<svg width="110" height="185" viewBox="0 0 110 185" fill="none" xmlns="http://www.w3.org/2000/svg">
<path d="M0.827358 179.666C0.827358 179.666 -3.85643 180.302 9.06439 181.813C41.6087 185.63 90.1425 183.881 97.2489 183.165C104.355 182.449 112.915 180.222 99.5908 179.348C89.4965 178.632 74.7183 178.711 64.4624 178.473C46.0502 177.916 6.48021 178.075 0.827358 179.666Z" fill="#1B1C1E"/>
<path d="M67.1274 44.7883C67.1274 44.7883 56.3062 7.8083 39.7514 0.968992C23.1966 -5.87032 29.657 27.4514 40.3167 40.0962C50.8956 52.741 68.8232 55.2859 67.1274 44.7883Z" fill="white"/>
<mask id="mask0_37_3954" style="mask-type:luminance" maskUnits="userSpaceOnUse" x="31" y="0" width="37" height="51">
<path d="M67.1274 44.7881C67.1274 44.7881 56.3062 7.80814 39.7514 0.968829C23.1966 -5.87048 33.614 25.3041 44.3544 37.9488C54.9334 50.5936 68.8232 55.2857 67.1274 44.7881Z" fill="white"/>
</mask>
<g mask="url(#mask0_37_3954)">
<g opacity="0.5">
<path d="M56.387 34.8473C56.4677 34.8473 56.5485 34.7678 56.5485 34.7678C56.5485 34.6883 56.4677 34.6883 56.387 34.8473Z" fill="#080809"/>
<path d="M51.7033 30.9507L51.5417 31.1097C51.7033 31.1097 51.7033 31.0302 51.7033 30.9507Z" fill="#080809"/>
<path d="M57.9214 33.8932C58.0021 33.8932 58.0829 33.8137 58.2444 33.7341L57.9214 33.8932Z" fill="#080809"/>
<path d="M58.1638 32.7003C58.1638 32.6208 58.2446 32.6208 58.2446 32.5413C58.1638 32.6208 58.1638 32.6208 58.1638 32.7003Z" fill="#080809"/>
<path d="M59.9401 38.9829C59.9401 38.9829 59.8594 38.9829 59.8594 39.0624C59.9401 38.9829 59.9401 38.9829 59.9401 38.9829Z" fill="#080809"/>
<path d="M60.5864 38.9829H60.6672C60.7479 38.9033 60.5864 38.9829 60.5864 38.9829Z" fill="#080809"/>
<path d="M60.667 38.5852L60.7478 38.6647C60.7478 38.6647 60.7477 38.5852 60.667 38.5852Z" fill="#080809"/>
<path d="M64.8662 38.6649L65.1085 38.5059C65.0277 38.5854 64.947 38.5854 64.8662 38.6649Z" fill="#080809"/>
<path d="M59.698 39.1419C59.7788 39.1419 59.8595 39.0624 59.9403 39.0624C59.7788 39.0624 59.7788 38.9828 59.698 39.1419Z" fill="#080809"/>
<path d="M56.3062 34.9269L56.3869 34.8474C56.3869 34.8474 56.3062 34.8474 56.3062 34.9269Z" fill="#080809"/>
<path d="M58.2444 34.2113C58.1636 34.1317 58.1636 34.1317 58.2444 34.2113Z" fill="#080809"/>
<path d="M49.6842 29.8372C49.6035 29.8372 49.5227 29.8372 49.5227 29.8372C49.6035 29.9962 49.6842 29.9962 49.6842 29.8372Z" fill="#080809"/>
<path d="M59.294 37.4719C59.7786 36.8357 59.4556 37.6309 60.0208 37.0742C59.8593 37.0742 59.6978 37.1538 59.9401 36.8357C60.3439 36.5971 60.1016 36.9947 60.5861 36.5971L60.2631 36.6766C60.4246 36.3585 60.9091 36.1199 60.7476 36.0404C60.0208 36.5971 60.5861 35.4837 60.4246 35.4042H60.5054L60.5861 34.927L60.5054 35.0065C60.7476 34.6089 60.8284 34.2908 60.5861 34.2113C60.1823 34.5294 59.9401 33.8932 59.6171 34.1317C59.7786 34.1317 59.8593 34.1317 59.8593 34.2908L59.4556 34.6884C59.294 34.5294 59.8593 34.2908 59.4556 34.3703C58.971 35.0065 59.6171 34.5294 59.6978 34.6884C59.5363 34.768 59.3748 34.8475 59.2133 34.8475C59.3748 35.0861 59.3748 35.4042 60.1016 35.0065C60.0208 35.1656 59.7786 35.4042 59.6978 35.4042C60.1823 35.1656 59.4556 35.8813 59.9401 35.6428C59.3748 36.1199 59.3748 35.6427 58.971 35.8813C59.2133 35.2451 58.5672 35.4837 58.2442 35.4042C58.5672 35.0065 59.0518 34.768 59.2133 34.4499C59.2133 33.9727 58.8095 34.5294 58.4865 34.6089C58.4865 34.3703 59.0518 33.8932 58.8903 33.6546L59.294 33.4955C59.6978 32.7798 58.971 33.6546 58.971 33.416C58.8903 33.5751 58.7287 33.7341 58.8903 33.8136C58.7287 34.0522 58.5672 34.0522 58.4865 34.0522V34.1317C58.1635 34.3703 57.9212 34.6884 57.8405 34.3703C58.2442 34.1317 57.9212 33.9727 58.0827 33.8136L58.1635 33.7341C57.9212 33.7341 57.8404 33.5751 57.7597 33.6546L57.8405 33.575C57.5982 33.6546 57.1944 34.0522 57.1944 33.8932C57.3559 33.7341 57.9212 33.3365 57.6789 33.3365C57.9212 33.0979 58.0827 33.1774 58.1635 33.416C58.1635 33.1774 58.4057 32.7003 58.5672 32.8593C58.8095 32.4617 58.325 32.8593 58.325 32.6207C58.2442 32.7003 58.1635 32.8593 58.0827 32.9388C58.4865 32.4617 57.8405 32.6207 57.5174 32.9388L57.8405 32.7798C57.5174 33.1774 57.1944 33.2569 57.0329 33.4955C57.4367 32.8593 56.3869 33.4955 56.7099 32.9388L56.5484 33.2569C56.3869 32.8593 55.5793 33.3365 55.1755 33.2569C55.4178 33.1774 55.9831 32.4617 55.9831 32.8593C55.8216 32.5412 56.3869 32.1436 56.5484 31.7459C56.4676 31.3483 55.9831 32.3026 55.7408 32.3821H55.9831C55.1755 33.0184 55.4986 31.7459 54.8525 31.9845C55.014 31.7459 55.014 31.905 55.0948 31.905C55.2563 31.4278 54.8525 31.905 54.691 31.9845C54.6103 31.8255 54.5295 31.5074 54.9333 31.1097C54.8525 30.8711 54.7718 31.4278 54.5295 31.5074L54.6102 31.3483L54.045 31.7459C54.045 31.5074 54.045 31.1097 54.2872 30.553C53.8835 30.394 53.3989 31.5869 52.9951 31.5869C52.9951 31.2688 53.3182 31.1892 53.3989 31.0302L53.1567 30.9507C53.6412 30.4735 53.6412 30.8711 54.045 30.1554C53.3989 30.7121 53.6412 30.1554 53.1567 30.4735V30.553C52.7529 30.9507 52.6721 30.4735 52.5106 30.4735C52.7529 30.2349 52.9144 30.3145 53.0759 30.2349C53.0759 29.9168 52.4299 29.8373 51.9453 30.394C51.9453 30.2349 51.8646 29.9168 52.1068 29.6782C51.7838 29.3601 51.4608 30.4735 51.2185 30.0759L51.4608 29.5987C51.5416 28.7239 50.4917 29.8373 50.4917 29.042L50.1687 29.5987C50.2495 29.3601 50.1687 29.1215 50.2495 28.883L50.4917 28.8034C50.5725 28.2467 50.088 29.2011 50.088 28.7239C50.0072 28.883 49.9265 29.3601 49.8457 29.5192C50.734 29.5192 50.8955 30.7121 51.8646 30.553C51.8646 30.4735 51.8646 30.394 51.9453 30.3144C51.9453 30.4735 52.1876 30.394 51.9453 30.7121H51.8646C52.1068 30.7121 51.8646 31.4278 51.9453 31.5074C52.2683 31.1892 52.1876 31.905 52.5106 31.1892L52.3491 31.6664C52.5106 31.4278 52.7529 31.1097 52.8336 31.0302C52.9144 31.1892 52.7529 31.4278 52.5914 31.5074C52.8336 32.064 53.3989 32.3026 53.9642 32.3821L53.6412 32.6207C53.6412 32.8593 54.368 32.3821 53.8027 33.0184C54.2065 32.8593 54.2065 33.6546 54.7718 32.9388C54.368 33.7341 55.014 33.6546 55.4178 33.7341C55.9023 33.0979 55.8216 33.7341 56.1446 33.4955C55.8216 33.9727 55.4986 33.8136 55.2563 34.1317C56.1446 33.5751 55.5793 35.3246 56.7906 34.1317C56.7906 34.2113 56.7099 34.2908 56.7099 34.2908C56.7906 34.3703 56.6291 34.6089 56.6291 34.6884C56.8714 34.5294 56.7906 34.2908 57.0329 34.3703C57.1137 34.5294 56.7906 34.768 56.6291 35.0065C57.0329 34.927 57.5174 35.0861 57.9212 34.6089C57.8405 34.768 57.6789 35.0861 57.5174 35.1656C58.1635 35.0861 57.7597 35.4837 58.325 35.5632C58.1635 35.4837 57.8405 36.0404 57.8405 35.6428C57.3559 36.438 58.4057 35.9609 58.325 36.5175L58.8095 36.1994C59.0518 36.279 58.648 36.6766 58.4057 36.7561C58.4057 37.2333 58.8095 37.0742 58.971 37.3128C58.971 37.3923 58.8095 37.4719 58.8095 37.3923L59.0518 37.6309C59.2133 37.5514 59.4555 37.4719 59.6978 37.1538C59.4555 37.7104 59.294 37.79 59.294 37.4719Z" fill="#080809"/>
<path d="M58.8095 33.2568C58.7288 33.4159 58.7288 33.4954 58.7288 33.4954C58.8095 33.4159 58.8095 33.3364 58.8095 33.2568Z" fill="#080809"/>
<path d="M63.0896 39.3806C63.7356 38.7444 62.8473 39.3011 62.8473 38.983C63.0896 38.983 63.4126 38.6649 63.5741 38.4263C62.605 39.0625 63.5741 38.1082 63.1703 37.9492C63.4126 37.7106 63.5741 37.7901 63.8971 37.5515C63.5741 37.6311 63.1703 37.472 62.6858 37.8696C62.4435 37.6311 62.4435 37.313 62.2013 37.2334C62.605 37.2334 62.6858 36.8358 63.2511 36.5972C62.5243 36.9153 61.4745 37.1539 60.5861 37.5515C61.0707 36.9948 61.0707 36.9948 61.5552 36.5177C61.5552 35.8815 60.9899 36.9153 60.9092 36.4382L60.9899 36.6767C60.6669 36.6767 60.2631 37.1539 59.8594 37.472L60.2631 37.7106C59.9401 38.0287 59.7786 37.7901 59.6171 37.7901C59.1326 38.1082 59.5363 38.2673 59.1326 38.5059C59.4556 38.2673 59.4556 38.5059 59.6978 38.4263L59.5363 38.5854C59.4556 38.9035 60.0209 38.5854 60.1824 38.6649C60.1016 38.7444 60.1016 38.7444 60.1016 38.824C60.3439 38.6649 60.6669 38.5059 60.8284 38.5059L60.7477 38.4263C61.313 38.1082 61.8782 38.1082 62.2013 37.472L62.3628 37.9492C61.7975 38.3468 60.9899 38.983 60.7477 38.9035L60.5054 39.0625C60.3439 39.4602 61.313 39.1421 61.636 38.5854C63.0088 37.6311 62.2012 39.0625 62.928 38.824C62.605 39.1421 62.3628 39.1421 62.0398 39.3011C61.959 39.2216 61.8782 39.2216 62.1205 38.983C61.636 38.824 61.1514 40.0169 60.9092 39.5397C60.9092 39.2216 61.636 39.3011 61.4745 38.983L60.4247 39.6192C60.5862 39.7783 60.9092 39.7783 61.0707 39.7783C62.3628 39.9373 62.282 40.8917 62.282 40.8917C63.3318 41.846 64.3816 42.8798 65.3507 43.9137C65.7545 44.1523 65.8352 44.3113 66.8851 43.7546C67.0466 43.516 66.8043 43.357 67.2081 43.1979C66.8043 43.4365 66.4813 43.4365 66.4005 43.1979C66.7235 42.8798 66.7235 43.2775 66.7235 43.1184V43.0389C66.8851 42.9594 67.0466 42.8798 67.1273 42.9594C67.5311 42.3231 67.0466 42.005 66.3198 42.4027C66.562 41.9255 66.9658 42.0846 67.2888 42.005C67.0466 41.2098 66.7235 40.8121 66.239 40.1759C65.593 40.6531 65.8352 40.4145 65.3507 40.6531L65.5122 40.4145C65.4315 40.494 64.9469 40.8121 64.8662 41.0507C65.0277 40.335 63.7356 41.2893 63.2511 41.2893L63.5741 41.0507C63.3318 40.8917 63.3318 40.8917 63.0088 40.8121C63.3318 40.0169 63.3318 40.9712 64.0586 40.2554H63.8164C64.1394 40.0169 64.7047 39.6988 65.0277 39.6192C64.3009 39.7783 64.8662 38.983 64.1394 39.0625C64.5431 38.824 65.0277 38.9035 65.1892 38.9035C65.1084 38.7444 64.7047 38.7444 65.0277 38.5059L64.5431 38.824C64.3009 38.6649 64.9469 38.5059 65.1892 38.1877C64.6239 37.9492 63.6548 39.5397 63.0896 39.3806Z" fill="#080809"/>
<path d="M58.9714 34.927C58.9714 35.0065 59.0522 35.0065 59.133 35.0065C59.0522 34.927 59.0522 34.927 58.9714 34.927Z" fill="#080809"/>
<path d="M60.5864 34.9269C60.6672 34.8474 60.6672 34.8473 60.7479 34.7678C60.6672 34.8473 60.5864 34.8474 60.5864 34.9269Z" fill="#080809"/>
<path d="M61.2323 34.45C61.0708 34.6885 60.9901 34.609 60.7478 34.7681C60.9093 34.6885 61.0708 34.8476 61.2323 34.45Z" fill="#080809"/>
<path d="M43.7086 24.509C43.6278 24.6681 43.4663 24.7476 43.4663 24.9067L43.7893 24.7476L43.7086 24.509Z" fill="#080809"/>
<path d="M44.0317 25.2247L44.1933 25.4633L44.597 24.7476C44.274 24.7476 44.274 25.3042 44.0317 25.2247Z" fill="#080809"/>
<path d="M44.5161 25.8608L44.4353 26.0199C44.5161 25.9404 44.5161 25.8608 44.5161 25.8608Z" fill="#080809"/>
<path d="M44.5968 25.5428L44.8391 25.0657L44.4353 25.3838L44.5161 25.5428C44.4353 25.7019 44.5161 25.8609 44.5161 25.9405L44.7583 25.6224C44.6776 25.5428 44.5968 25.6224 44.5968 25.5428Z" fill="#080809"/>
<path d="M45.162 26.7359C45.162 26.4973 45.4043 26.2587 45.485 26.0201C45.3235 25.7815 45.0813 26.4973 44.9197 26.2587C45.3235 25.9406 44.9197 25.9406 44.9197 25.543C44.839 26.0201 44.839 26.4178 45.0005 26.6563L45.162 26.3382C45.2428 26.3382 45.0813 26.5768 45.162 26.7359Z" fill="#080809"/>
<path d="M46.5348 26.3379L46.2118 26.7356C46.2926 26.497 45.9696 26.3379 46.2118 25.8608C46.0503 25.8608 45.9696 26.0994 45.8888 26.1789C45.8888 25.8608 45.8888 25.7017 45.7273 26.0198C46.0503 26.497 45.8888 26.5765 46.1311 26.8946C46.0503 26.9742 46.0503 26.9742 45.9696 26.8946L46.1311 27.2923C46.2926 26.7356 46.6156 26.8151 46.5348 26.3379Z" fill="#080809"/>
<path d="M46.7773 26.8152C46.6157 26.7357 46.2927 27.2128 46.2927 27.5309L46.858 27.2924C46.6965 27.2924 46.535 27.2924 46.7773 26.8152Z" fill="#080809"/>
<path d="M47.0194 26.9743C47.0194 27.2924 46.8579 27.8491 47.1809 27.372C47.0194 27.372 47.4232 26.6562 47.0194 26.9743Z" fill="#080809"/>
<path d="M48.15 27.9287L47.9077 27.4516C48.15 26.8154 48.15 27.2925 48.3922 27.054C48.15 26.8154 48.15 27.054 47.7462 27.3721C47.6654 27.2925 47.4232 27.5311 47.1809 27.6902C47.9885 27.3721 47.3424 28.9626 48.15 27.9287Z" fill="#080809"/>
<path d="M47.7462 26.9744L47.5847 27.2129L47.827 27.1334L47.7462 26.9744Z" fill="#080809"/>
<path d="M48.6345 29.0418C48.473 29.8371 49.1998 28.8033 49.2805 29.2804C49.1998 29.2804 49.1998 29.3599 49.119 29.4395H49.3613L49.2805 29.5985C49.5228 29.2009 49.7651 29.1214 50.0881 28.8033C50.0881 28.2466 49.6843 29.2804 49.7651 28.7237C49.9266 28.5647 50.0881 28.2466 50.2496 28.167C50.0074 28.3261 49.8458 28.5647 49.6843 28.8033C49.5228 28.8033 49.6843 28.5647 49.7651 28.4056C49.5228 28.5647 49.119 29.2009 49.0383 28.9623C49.119 28.4852 49.4421 28.4056 49.119 28.4056C48.8768 29.2009 48.9575 28.167 48.6345 28.5647C48.5538 28.3261 48.5538 27.8489 48.7153 27.6104C48.473 28.167 48.0692 28.5647 47.9077 28.6442C48.0692 28.5647 48.2307 28.4056 48.473 28.3261L48.3115 29.0418C48.473 28.7237 48.5538 28.8033 48.6345 29.0418Z" fill="#080809"/>
<path d="M50.2495 28.0876C50.3303 28.0876 50.3303 28.0081 50.411 28.0081C50.411 28.0081 50.3303 28.0081 50.2495 28.0876Z" fill="#080809"/>
<path d="M48.7153 27.2925L48.8768 27.2129V26.9744L48.7153 27.2925Z" fill="#080809"/>
<path d="M50.6535 27.6899C50.6535 27.6104 50.4919 27.8489 50.4919 27.8489L50.7342 27.6104L50.6535 27.6899Z" fill="#080809"/>
<path d="M50.6533 28.2468L50.5725 28.6445L50.8148 28.4059L50.6533 28.2468Z" fill="#080809"/>
<path d="M54.6105 31.0303C54.6105 30.7122 54.3682 31.1098 54.126 31.4279C54.2875 31.6665 54.3682 31.1098 54.6105 31.0303Z" fill="#080809"/>
<path d="M57.4371 32.3821C57.5179 32.064 57.0333 32.3025 56.9526 32.223C56.8718 32.4616 57.1949 32.4616 57.4371 32.3821Z" fill="#080809"/>
<path d="M59.4559 31.9844C59.2944 32.0639 59.2137 32.0639 59.2944 32.223L58.5676 32.7796C58.5676 33.0978 59.2944 32.223 59.4559 31.9844Z" fill="#080809"/>
<path d="M60.7479 32.8594L60.3441 32.9389L60.4249 33.0184C60.1826 33.257 60.0211 33.3365 59.7788 33.4956C60.0211 33.4956 60.3441 33.3365 60.7479 32.8594Z" fill="#080809"/>
<path d="M59.4556 33.4956H59.5363C59.6171 33.4161 59.6978 33.2571 59.4556 33.4956Z" fill="#080809"/>
<path d="M59.6171 33.5751C59.6171 33.5751 59.6979 33.5751 59.6979 33.4956C59.6171 33.4956 59.5364 33.4956 59.5364 33.4956C59.5364 33.5751 59.5364 33.6547 59.6171 33.5751Z" fill="#080809"/>
<path d="M60.5864 33.2569L60.9902 33.4955V33.2569C60.5864 33.6546 60.9902 32.9388 60.5864 33.2569Z" fill="#080809"/>
<path d="M61.8782 35.0862L61.5552 35.4838C61.6359 35.7224 62.6857 35.1657 62.2012 35.8815C62.3627 35.5633 62.7665 35.6429 62.6857 35.3248C62.282 35.5633 61.9589 35.3248 61.8782 35.0862Z" fill="#080809"/>
<path d="M62.0401 36.3586C61.8786 36.4381 61.8786 36.5176 61.7979 36.6767C61.7979 36.7562 62.0401 36.6767 62.2016 36.5176C61.6363 36.9153 62.4439 36.12 62.0401 36.3586Z" fill="#080809"/>
<path d="M62.9281 37.1537C62.8473 37.0742 62.7666 37.0742 62.7666 37.2333C62.9281 37.3923 63.3319 36.9152 63.6549 36.7561C63.7357 36.438 63.0896 36.8356 62.9281 37.1537Z" fill="#080809"/>
<path d="M61.3132 41.0506C61.6363 40.7325 61.4747 40.653 61.3132 40.7325C61.394 40.653 61.394 40.8916 61.3132 41.0506Z" fill="#080809"/>
<path d="M64.1395 38.5854V38.5059L63.5742 38.9035L64.1395 38.5854Z" fill="#080809"/>
<path d="M65.3508 39.3806L65.7546 39.2216L65.5124 39.0625L65.3508 39.3806Z" fill="#080809"/>
<path d="M65.4316 39.6192L65.5932 39.7783L65.6739 39.6192C65.6739 39.4602 65.4316 39.6988 65.4316 39.6192Z" fill="#080809"/>
<path d="M65.916 40.0964C65.8353 40.0964 65.916 40.0168 65.916 40.0168H65.593L65.916 40.0964Z" fill="#080809"/>
<path d="M65.916 44.6292C65.5122 44.8678 65.8352 44.8678 65.8352 44.9473C65.916 44.8678 66.3197 44.4702 65.916 44.6292Z" fill="#080809"/>
</g>
</g>
<path d="M13.4252 180.222C20.3382 180.222 25.9423 174.704 25.9423 167.896C25.9423 161.088 20.3382 155.569 13.4252 155.569C6.51227 155.569 0.908203 161.088 0.908203 167.896C0.908203 174.704 6.51227 180.222 13.4252 180.222Z" fill="white"/>
<mask id="mask1_37_3954" style="mask-type:luminance" maskUnits="userSpaceOnUse" x="0" y="155" width="26" height="26">
<path d="M13.4252 180.222C20.3382 180.222 25.9423 174.704 25.9423 167.896C25.9423 161.088 20.3382 155.569 13.4252 155.569C6.51227 155.569 0.908203 161.088 0.908203 167.896C0.908203 174.704 6.51227 180.222 13.4252 180.222Z" fill="white"/>
</mask>
<g mask="url(#mask1_37_3954)">
<g opacity="0.5">
<path d="M18.19 171.474C18.1093 171.474 18.0285 171.474 17.9478 171.474C17.9478 171.554 18.0285 171.554 18.19 171.474Z" fill="#080809"/>
<path d="M20.6125 177.2L20.8548 177.121C20.7741 177.121 20.6933 177.121 20.6125 177.2Z" fill="#080809"/>
<path d="M16.2519 171.554C16.1712 171.554 16.0904 171.474 15.8481 171.474L16.2519 171.554Z" fill="#080809"/>
<path d="M15.3637 172.508C15.283 172.508 15.283 172.588 15.283 172.588C15.283 172.588 15.3637 172.588 15.3637 172.508Z" fill="#080809"/>
<path d="M16.9787 165.51V165.43H16.898C16.8172 165.43 16.8979 165.51 16.9787 165.51Z" fill="#080809"/>
<path d="M16.6555 165.749L16.5747 165.669C16.5747 165.669 16.5747 165.749 16.6555 165.749Z" fill="#080809"/>
<path d="M17.7862 165.908C17.7054 165.908 17.6247 165.908 17.5439 165.908C17.6247 165.908 17.7054 165.987 17.7862 165.908Z" fill="#080809"/>
<path d="M16.0906 171.077C16.1713 171.156 16.1713 171.156 16.0906 171.077Z" fill="#080809"/>
<path d="M22.1472 178.95C22.228 178.95 22.228 179.029 22.3087 179.029C22.3895 178.87 22.3087 178.87 22.1472 178.95Z" fill="#080809"/>
<path d="M17.1401 167.578C16.3326 167.816 17.0593 167.339 16.2518 167.498C16.4133 167.578 16.5748 167.657 16.171 167.816C15.6865 167.816 16.171 167.578 15.4442 167.657L15.7673 167.816C15.4442 167.975 14.879 167.975 14.9597 168.055C15.9288 168.055 14.7175 168.691 14.879 168.771L14.7982 168.691L14.3944 169.089C14.3944 169.089 14.3944 169.089 14.3137 169.089C14.3944 169.089 14.3944 169.089 14.4752 169.089C14.0714 169.327 13.7484 169.566 13.9099 169.804C14.4752 169.725 14.3137 170.441 14.7175 170.441C14.5559 170.361 14.5559 170.282 14.6367 170.123L15.2827 169.964C15.3635 170.202 14.7175 170.123 15.1212 170.202C15.9288 169.964 15.0405 169.884 15.1212 169.725C15.3635 169.725 15.525 169.725 15.6058 169.804C15.525 169.486 15.7673 169.168 14.879 169.168C15.0405 169.009 15.4443 169.009 15.525 169.009C14.9597 168.93 16.0095 168.771 15.4442 168.691C16.2518 168.532 15.9288 169.009 16.4941 169.089C15.9288 169.486 16.6556 169.725 16.8171 169.964C16.2518 170.123 15.6865 170.043 15.3635 170.282C15.0405 170.679 15.7673 170.52 16.171 170.52C16.0095 170.759 15.202 170.838 15.2827 171.156L14.879 171.077C14.1522 171.554 15.2827 171.156 15.1212 171.395C15.2827 171.316 15.525 171.236 15.4442 171.077C15.7673 170.997 15.9288 171.077 15.9288 171.077V170.997C16.3326 170.918 16.8171 170.838 16.6556 171.077C16.171 171.077 16.3325 171.316 16.171 171.475H16.0903C16.3326 171.554 16.2518 171.713 16.4133 171.793H16.3326C16.5748 171.872 17.1401 171.634 17.1401 171.872C16.8978 171.952 16.171 171.952 16.3326 172.111C16.0095 172.19 15.848 172.031 15.9288 171.793C15.848 172.031 15.2827 172.27 15.202 172.111C14.7982 172.349 15.4443 172.27 15.2827 172.429C15.4443 172.349 15.6058 172.349 15.6865 172.27C15.0405 172.508 15.7673 172.667 16.171 172.508L15.7673 172.429C16.2518 172.27 16.6556 172.349 16.8978 172.19C16.171 172.588 17.4631 172.508 16.8978 172.906L17.2209 172.667C17.1401 173.145 18.1899 173.065 18.5129 173.383C18.1899 173.383 17.3824 173.701 17.5439 173.383C17.5439 173.781 16.7363 173.86 16.4133 174.178C16.2518 174.576 17.2209 174.019 17.5439 173.94L17.3016 173.781C18.3514 173.622 17.4631 174.576 18.1899 174.735C17.9477 174.894 18.0284 174.735 17.8669 174.735C17.4631 175.133 18.0284 174.815 18.2707 174.894C18.2707 175.133 18.1899 175.451 17.5439 175.61C17.5439 175.849 17.8669 175.371 18.1092 175.371L18.0284 175.451L18.7552 175.292C18.6745 175.53 18.4322 175.928 17.9477 176.326C18.2707 176.644 19.3205 175.689 19.6435 175.849C19.482 176.167 19.2397 176.087 18.9975 176.167L19.2397 176.405C18.5937 176.723 18.7552 176.326 18.0284 176.803C18.9167 176.564 18.4322 176.962 19.0782 176.882L19.159 176.803C19.7243 176.644 19.5628 177.121 19.805 177.2C19.482 177.36 19.3205 177.201 19.159 177.121C19.0782 177.439 19.5628 177.757 20.2896 177.439C20.2896 177.598 20.2088 177.996 19.805 178.075C19.9665 178.473 20.7741 177.519 20.8548 177.996L20.3703 178.314C19.9665 179.109 21.4201 178.473 21.0971 179.189L21.6624 178.712C21.5009 178.95 21.5009 179.189 21.3394 179.348H21.0163C20.6933 179.825 21.5816 179.109 21.4201 179.507C21.5816 179.348 21.8239 178.95 21.9854 178.791C21.5816 178.632 21.4201 178.234 21.2586 177.916C21.0971 177.519 20.9356 177.201 20.3703 177.121C20.2896 177.201 20.2896 177.28 20.128 177.36C20.2088 177.2 19.9665 177.2 20.2896 176.962H20.3703C20.128 176.882 20.6933 176.246 20.6126 176.167C20.2088 176.326 20.5318 175.689 19.8858 176.246L20.2088 175.849C19.9665 176.008 19.6435 176.167 19.4012 176.246C19.4012 176.087 19.6435 175.928 19.8858 175.928C19.8858 175.292 19.482 174.815 18.9975 174.497L19.4012 174.417C19.482 174.258 18.5937 174.338 19.482 173.94C18.9975 173.86 19.4012 173.224 18.5129 173.622C19.3205 173.065 18.6745 172.906 18.3514 172.588C17.5439 172.986 18.0284 172.429 17.6246 172.429C18.1899 172.111 18.4322 172.429 18.836 172.27C17.7054 172.27 19.159 171.077 17.4631 171.475C17.5439 171.395 17.5439 171.395 17.6246 171.395C17.6246 171.316 17.8669 171.156 17.8669 171.077C17.5439 171.156 17.4631 171.315 17.3016 171.236C17.3016 171.077 17.7861 170.997 18.0284 170.838C17.5439 170.679 17.3016 170.361 16.5748 170.52C16.7363 170.361 17.0593 170.202 17.2209 170.202C16.5748 169.964 17.2209 169.805 16.7363 169.486C16.8171 169.645 17.4631 169.327 17.2209 169.645C18.1092 169.248 16.8978 169.089 17.3016 168.612H16.6556C16.4941 168.453 17.0594 168.293 17.3016 168.373C17.6246 167.975 17.1401 167.816 17.1401 167.578C17.2209 167.578 17.3016 167.498 17.3016 167.578L17.2209 167.18C17.0593 167.18 16.7363 167.101 16.3326 167.18C17.1401 167.26 17.3824 167.26 17.1401 167.578Z" fill="#080809"/>
<path d="M15.0405 171.634C15.202 171.554 15.202 171.474 15.2828 171.474C15.202 171.474 15.1213 171.554 15.0405 171.634Z" fill="#080809"/>
<path d="M15.1214 163.601C14.1524 163.76 15.283 163.84 15.0407 164.078C14.8792 163.919 14.3139 163.999 14.0716 164.078C15.3637 164.158 13.8294 164.397 14.1524 164.715C13.7486 164.794 13.6678 164.556 13.1833 164.635C13.5063 164.794 13.7486 165.192 14.3946 165.112C14.4754 165.51 14.2331 165.749 14.3946 165.987C14.0716 165.749 13.6679 166.067 13.1026 165.908C13.9101 166.067 14.9599 166.544 16.0097 166.782C15.2829 166.941 15.2022 167.021 14.4754 167.101C14.0716 167.657 15.2022 167.101 15.0407 167.578L15.1214 167.339C15.3637 167.498 16.0905 167.339 16.575 167.339L16.4135 166.862C16.8981 166.782 16.8981 167.101 17.0596 167.101C17.7056 167.101 17.4633 166.782 17.9479 166.703C17.5441 166.703 17.6248 166.544 17.4633 166.464L17.7056 166.385C17.9479 166.146 17.2211 166.146 17.2211 165.908C17.3018 165.908 17.3826 165.828 17.3826 165.828C17.0596 165.828 16.6558 165.828 16.575 165.669L16.6558 165.749C16.0097 165.669 15.5252 165.271 14.7984 165.669L14.9599 165.112C15.6867 165.112 16.8173 165.033 16.8981 165.271H17.2211C17.6248 165.033 16.575 164.794 16.0097 164.953C14.2331 164.953 15.8482 164.238 15.1214 163.919C15.606 163.84 15.7675 163.999 16.1713 164.078C16.252 164.158 16.252 164.238 15.8482 164.317C16.1713 164.715 17.3826 164.078 17.2211 164.556C16.9788 164.794 16.4135 164.317 16.4135 164.715L17.7864 164.794C17.7056 164.556 17.4633 164.397 17.3018 164.238C16.8173 163.76 16.7365 163.363 16.8173 163.045C16.8981 162.727 17.0596 162.567 17.0596 162.567C16.8173 161.056 16.6558 159.625 16.575 158.114C16.4135 157.637 16.4943 157.478 15.2022 157.16C14.9599 157.239 15.0407 157.557 14.5562 157.398C15.0407 157.478 15.2829 157.716 15.2022 157.955C14.7177 157.955 14.9599 157.716 14.8792 157.796V157.875C14.6369 157.796 14.4754 157.796 14.4754 157.716C13.7486 157.955 13.8294 158.512 14.7984 158.75C14.3139 158.989 14.0716 158.591 13.6679 158.432C13.2641 159.307 13.3448 159.864 13.2641 160.738C14.0716 160.738 13.8294 160.818 14.3946 160.897L14.0716 160.977C14.2331 160.977 14.7984 161.056 14.9599 160.897C14.3139 161.375 16.0905 161.454 16.4943 161.693H16.0097C16.0905 161.931 16.0905 162.011 16.3328 162.249C15.5252 162.727 16.1713 161.852 15.1214 162.09L15.283 162.17C14.8792 162.09 14.1524 162.09 13.8294 161.931C14.5562 162.329 13.5871 162.567 14.1524 162.965C13.6678 162.965 13.2641 162.568 13.1833 162.408C13.1833 162.568 13.5063 162.806 13.1026 162.886H13.7486C13.8294 163.124 13.1833 162.886 12.7795 163.045C12.8603 163.84 14.7177 163.124 15.1214 163.601Z" fill="#080809"/>
<path d="M13.5872 169.089C13.8294 169.009 13.9102 169.089 14.2332 169.089C13.9909 169.089 13.9102 168.85 13.5872 169.089Z" fill="#080809"/>
<path d="M22.9545 180.143C23.3583 179.348 22.2277 180.223 22.3084 179.745C22.3892 179.745 22.3892 179.666 22.5507 179.666L22.3084 179.586L22.47 179.427C22.1469 179.825 21.8239 179.745 21.4201 179.984C21.1779 180.541 21.9854 179.586 21.6624 180.223C21.4201 180.382 21.1779 180.541 21.0164 180.7C21.3394 180.62 21.5816 180.461 21.8239 180.302C21.9854 180.382 21.7432 180.541 21.5817 180.7C21.9047 180.62 22.47 180.063 22.5507 180.382C22.3892 180.859 21.9854 180.859 22.3084 180.938C22.793 180.223 22.47 181.256 22.8737 180.938C22.9545 181.177 22.7122 181.654 22.47 181.893C22.8737 181.415 23.3583 181.097 23.6005 181.018C23.3583 181.097 23.1968 181.177 22.9545 181.177L23.3583 180.541C23.0352 180.541 22.9545 180.382 22.9545 180.143Z" fill="#080809"/>
<path d="M20.6933 180.302L20.8548 179.984L20.6125 180.143L20.6933 180.302Z" fill="#080809"/>
<path d="M17.867 175.848C17.7055 176.087 18.1901 175.848 18.5131 175.689C18.5131 175.451 18.1093 175.928 17.867 175.848Z" fill="#080809"/>
<path d="M15.848 173.224C15.6057 173.542 16.171 173.463 16.171 173.701C16.4132 173.383 16.171 173.224 15.848 173.224Z" fill="#080809"/>
<path d="M13.668 172.429C13.8295 172.429 13.9102 172.429 13.991 172.349L14.96 172.19C15.1216 171.872 14.0717 172.27 13.668 172.429Z" fill="#080809"/>
<path d="M13.1025 170.838L13.5063 170.997V170.838C13.9101 170.838 14.0716 170.838 14.3946 170.838C14.0716 170.759 13.7486 170.679 13.1025 170.838Z" fill="#080809"/>
<path d="M14.556 171.077L14.4753 170.997C14.3945 170.997 14.3138 171.077 14.556 171.077Z" fill="#080809"/>
<path d="M14.4753 170.838C14.3945 170.838 14.3945 170.838 14.3945 170.838C14.4753 170.838 14.4753 170.918 14.556 170.918C14.556 170.918 14.6368 170.918 14.4753 170.838Z" fill="#080809"/>
<path d="M13.4255 170.52L13.1832 170.123L13.0217 170.361C13.6678 170.202 12.8602 170.679 13.4255 170.52Z" fill="#080809"/>
<path d="M13.3449 168.055L13.9102 167.896C13.9909 167.578 12.6988 167.419 13.5871 167.101C13.2641 167.26 12.9411 166.942 12.8604 167.339C13.3449 167.419 13.5064 167.896 13.3449 168.055Z" fill="#080809"/>
<path d="M13.9906 166.862C14.1521 166.862 14.2328 166.782 14.3943 166.703C14.4751 166.623 14.1521 166.544 13.9098 166.623C14.7174 166.623 13.506 166.862 13.9906 166.862Z" fill="#080809"/>
<path d="M13.7482 165.59C13.7482 165.669 13.829 165.749 13.9905 165.669C13.9097 165.43 13.2637 165.59 12.9407 165.51C12.5369 165.749 13.4252 165.828 13.7482 165.59Z" fill="#080809"/>
<path d="M17.6246 163.363C17.1401 163.442 17.2209 163.601 17.3824 163.601C17.3016 163.522 17.4631 163.442 17.6246 163.363Z" fill="#080809"/>
<path d="M13.6679 163.601L13.5872 163.681H14.314L13.6679 163.601Z" fill="#080809"/>
<path d="M13.1833 162.17L12.6987 162.011L12.7795 162.249L13.1833 162.17Z" fill="#080809"/>
<path d="M13.2638 161.852L13.183 161.613L13.0215 161.693C12.9408 161.852 13.2638 161.772 13.2638 161.852Z" fill="#080809"/>
<path d="M13.1833 161.136C13.264 161.136 13.1833 161.216 13.1025 161.216L13.4256 161.454L13.1833 161.136Z" fill="#080809"/>
<path d="M16.3326 157.398C16.8171 157.478 16.4941 157.239 16.6556 157.239C16.4941 157.239 15.8481 157.319 16.3326 157.398Z" fill="#080809"/>
</g>
</g>
<path d="M67.935 45.1063C67.935 45.1063 63.978 40.6527 57.9214 35.1654C51.6225 29.4395 42.9817 22.6001 33.9371 18.4647C29.0918 16.238 24.085 14.8065 19.3205 14.727C-2.6449 14.5679 14.3944 42.8795 58.406 52.1841C58.4867 52.3432 69.7924 54.9676 67.935 45.1063Z" fill="white"/>
<path d="M67.9347 45.1063C67.9347 45.1063 63.9777 40.6528 57.921 35.1655C51.6221 29.4396 42.9813 22.6002 33.9368 18.4648" stroke="#06002C" stroke-width="1.3038" stroke-miterlimit="10"/>
<path d="M56.4678 51.8661C32.6451 46.3788 17.0593 35.3245 11.8102 26.7356C8.90305 19.101 19.4012 14.8066 35.31 22.7593C51.2187 30.712 58.3252 46.3788 58.3252 46.3788C59.698 48.7646 58.8905 50.7527 56.4678 51.8661Z" fill="#F7A9B4"/>
<path d="M101.368 136.801C101.368 136.801 94.7457 118.748 92.6461 114.613C90.5464 110.477 87.6392 123.758 87.9623 126.462C88.2853 129.166 101.368 136.801 101.368 136.801Z" fill="white"/>
<path d="M81.5824 181.972C81.5824 181.972 98.2987 181.972 100.318 181.972C102.336 181.972 102.256 172.668 82.8745 172.27C63.574 171.952 75.6065 181.972 81.5824 181.972Z" fill="white"/>
<path d="M61.6358 43.5158C55.9022 47.6512 16.09 130.041 14.2326 155.569C13.9096 159.864 14.3134 163.92 15.6862 167.657C17.059 171.316 19.3202 174.656 22.7926 177.598C23.6809 178.314 24.65 179.03 25.6998 179.745C27.961 181.256 30.6259 182.052 33.3715 182.052H82.8744C85.2163 182.052 86.5891 179.825 85.6201 177.439C84.4895 174.815 80.4518 172.111 71.4072 172.349C71.4072 172.349 80.4518 180.143 87.962 162.011C99.0254 135.369 92.6458 85.1084 89.9809 81.0525C89.9809 81.0525 97.3296 80.8935 104.517 71.5888C114.127 59.2622 110.573 43.993 97.9756 41.6867C83.5205 38.9033 66.6427 39.9371 61.6358 43.5158Z" fill="white"/>
<path d="M14.2326 155.569C13.9096 159.864 14.3134 163.919 15.6862 167.657C17.059 171.315 19.3202 174.656 22.7926 177.598" stroke="#06002C" stroke-width="1.3038" stroke-miterlimit="10"/>
<path d="M71.3267 172.27C71.3267 172.27 64.2203 172.588 60.021 175.292" stroke="#06002C" stroke-width="1.3038" stroke-miterlimit="10"/>
<path d="M64.7855 173.383C64.7855 173.383 75.7682 159.625 72.3765 142.686C68.9847 125.667 43.0624 127.496 33.614 132.665" stroke="#06002C" stroke-width="1.3038" stroke-miterlimit="10"/>
<path d="M83.3591 108.807C83.3591 108.807 86.9123 118.112 94.1802 126.781C100.156 133.938 102.013 137.358 102.417 140.062C102.579 141.016 102.094 142.05 101.287 142.606C99.1063 144.197 94.584 145.549 92.8882 144.197C90.627 142.368 80.8557 134.892 73.7492 129.723C66.6428 124.554 62.282 116.363 62.282 116.363" fill="white"/>
<path d="M92.8882 144.276C90.627 142.447 80.8557 134.972 73.7492 129.802C66.6428 124.633 62.282 116.442 62.282 116.442" stroke="#06002C" stroke-width="1.3038" stroke-miterlimit="10"/>
<path d="M83.3591 108.807C83.3591 108.807 86.9123 118.112 94.1803 126.781C100.156 133.938 102.014 137.358 102.417 140.062" stroke="#06002C" stroke-width="1.3038" stroke-miterlimit="10"/>
<path d="M84.1664 53.5363C85.4152 53.5363 86.4276 52.5393 86.4276 51.3095C86.4276 50.0797 85.4152 49.0828 84.1664 49.0828C82.9176 49.0828 81.9053 50.0797 81.9053 51.3095C81.9053 52.5393 82.9176 53.5363 84.1664 53.5363Z" fill="#06002C"/>
<path d="M81.5825 181.972C81.5825 181.972 82.8746 178.632 80.4519 177.36" stroke="#06002C" stroke-width="1.3038" stroke-miterlimit="10"/>
<path d="M77.06 181.972C77.06 181.972 77.3023 179.268 75.6064 178.712" stroke="#06002C" stroke-width="1.3038" stroke-miterlimit="10"/>
<path d="M93.615 181.972C93.615 181.972 93.8572 179.268 92.1614 178.712" stroke="#06002C" stroke-width="1.3038" stroke-miterlimit="10"/>
<path d="M101.852 142.209C101.852 142.209 99.9947 141.493 97.895 138.232" stroke="#06002C" stroke-width="1.3038" stroke-miterlimit="10"/>
<path d="M98.9448 143.958C98.9448 143.958 96.6029 143.084 94.9878 141.811" stroke="#06002C" stroke-width="1.3038" stroke-miterlimit="10"/>
<path d="M97.2487 181.972C97.2487 181.972 98.5408 178.632 96.1182 177.36" stroke="#06002C" stroke-width="1.3038" stroke-miterlimit="10"/>
<path d="M82.8745 181.972C85.2164 181.972 86.5892 179.745 85.6201 177.36C84.4896 174.735 80.4518 172.031 71.4072 172.27" stroke="#06002C" stroke-width="1.3038" stroke-miterlimit="10"/>
<mask id="mask2_37_3954" style="mask-type:luminance" maskUnits="userSpaceOnUse" x="70" y="75" width="23" height="18">
<path d="M92.4034 92.5839C69.5497 93.6972 70.115 75.6447 70.115 75.6447C78.9173 82.484 89.9 80.973 89.9 80.973C90.6268 82.0068 91.5959 86.3808 92.4034 92.5839Z" fill="white"/>
</mask>
<g mask="url(#mask2_37_3954)">
<g opacity="0.5">
<path d="M85.4584 82.5637L85.3777 82.9614C85.4584 82.8023 85.4584 82.6432 85.4584 82.5637Z" fill="#080809"/>
<path d="M81.9859 82.0068C81.9052 82.0068 81.8244 82.0068 81.7437 82.0864C81.9052 82.2454 81.9859 82.1659 81.9859 82.0068Z" fill="#080809"/>
<path d="M100.56 83.359C100.398 82.1661 100.883 83.2794 100.802 82.1661C100.64 82.4046 100.56 82.6432 100.398 82.007C100.479 81.3708 100.721 82.007 100.721 81.0527L100.479 81.4503C100.317 80.9731 100.479 80.1779 100.317 80.2574C100.156 81.6094 99.5906 79.7803 99.3483 80.0188L99.4291 79.8598L99.0253 79.2236V79.144C99.0253 79.2236 99.0253 79.3031 99.0253 79.3826C98.8638 78.6669 98.5408 78.1897 98.2985 78.3488C98.2177 79.144 97.4102 78.5873 97.2487 79.3031C97.3294 79.0645 97.4909 79.0645 97.6524 79.3031V80.2574C97.3294 80.2574 97.5717 79.3826 97.3294 79.9393C97.4102 81.2913 97.7332 79.9393 97.8947 80.0984C97.814 80.4165 97.7332 80.655 97.6524 80.8141C98.0562 80.8141 98.46 81.2913 98.7023 79.9393C98.8638 80.1779 98.783 80.7346 98.7023 80.8936C98.9445 80.0984 98.9445 81.6094 99.1868 80.8936C99.1868 82.0865 98.6215 81.5298 98.3793 82.2456C97.9755 81.2913 97.4909 82.2456 97.0872 82.4842C97.0064 81.5298 97.2487 80.8141 97.0872 80.2574C96.6834 79.6212 96.6834 80.7346 96.5219 81.2913C96.1989 80.9731 96.4411 79.7802 95.9566 79.7007L96.1989 79.0645C95.8758 77.7921 95.9566 79.6212 95.7951 79.3031C95.8758 79.6212 95.8758 79.9393 96.1181 79.9393C96.1989 80.4165 95.9566 80.655 95.8758 80.655H95.9566C95.8758 81.2913 95.8758 82.007 95.5528 81.6889C95.7143 80.8936 95.3105 81.1322 95.2298 80.7346L95.3105 80.5755C95.0683 80.8141 94.9068 80.7346 94.7453 80.8936V80.7346C94.5838 81.0527 94.5838 82.007 94.3415 81.8479C94.3415 81.4503 94.5838 80.4165 94.3415 80.5755C94.3415 80.0188 94.6645 79.9393 94.9068 80.1779C94.6645 79.9393 94.503 78.985 94.826 78.985C94.7453 78.2692 94.5837 79.3031 94.4222 78.985C94.4222 79.2236 94.4222 79.4621 94.4222 79.7007C94.4222 78.6669 93.857 79.6212 93.857 80.3369L94.0992 79.7802C94.0992 80.5755 93.7762 81.1322 93.9377 81.6094C93.7762 80.3369 93.2109 82.2456 93.0494 81.1322L93.1302 81.7684C92.5649 81.3708 92.0804 82.8818 91.5151 83.1204C91.7573 82.7227 91.7573 81.2913 92.0803 81.8479C91.5151 81.5298 91.9188 80.496 91.7573 79.7802C91.3536 79.3031 91.5151 81.0527 91.4343 81.5298L91.7573 81.2913C91.3536 82.8818 90.6268 80.9732 90.0615 81.9275C90.0615 81.5298 90.223 81.6889 90.3037 81.5298C90.0615 80.7346 90.0615 81.6889 89.9 82.007C89.6577 81.848 89.3347 81.5298 89.4962 80.496C89.1732 80.2574 89.4962 81.1322 89.3347 81.3708L89.2539 81.1322L88.9309 82.2456C88.6886 81.9275 88.3656 81.3708 88.2849 80.4165C87.6388 80.5755 87.9618 82.6432 87.4773 82.9613C87.2351 82.4046 87.5581 82.2456 87.6388 81.8479L87.235 81.9275C87.3965 80.8936 87.7196 81.4503 87.7196 80.1779C87.3158 81.4503 87.235 80.496 86.7505 81.2913V81.3708C86.5082 82.1661 86.1045 81.5298 85.7815 81.6889C85.943 81.2117 86.1852 81.1322 86.4275 80.9732C86.1852 80.5755 85.4584 80.8936 85.0547 81.9275C84.8932 81.7684 84.5701 81.2913 84.8931 80.8936C84.3279 80.655 84.4894 82.3251 84.0048 81.9275L84.0856 81.1322C83.8433 80.5755 83.6011 80.8141 83.278 80.9732C82.955 81.2117 82.7128 81.3708 82.4705 80.8936L82.309 81.7684C82.2282 81.3708 82.0667 81.1322 82.0667 80.8141L82.3897 80.5755C82.2282 79.8598 82.0667 81.2117 81.8245 80.655C81.8245 80.8936 81.9052 81.5298 81.9052 81.8479C82.4705 81.6889 83.0358 82.007 83.6011 82.2456C84.1663 82.4842 84.7316 82.7227 85.2969 82.2456C85.2969 82.0865 85.2162 82.007 85.2969 81.7684C85.3777 82.007 85.6199 81.7684 85.5392 82.3251L85.4584 82.4046C85.7815 82.2456 85.943 83.4385 86.1852 83.518C86.3467 82.8818 86.8313 83.9156 86.7505 82.6432L86.912 83.4385C86.9928 83.0408 86.9928 82.4046 87.1543 82.1661C87.3158 82.2456 87.3158 82.7227 87.1543 83.0408C87.9618 83.5975 88.8501 83.518 89.7385 83.1999L89.4962 83.7566C89.6577 84.0747 90.223 82.7227 90.0615 84.2337C90.4652 83.6771 91.1113 84.7109 91.192 83.1204C91.4343 84.6314 92.1611 83.8361 92.7264 83.5975C92.6456 82.2456 93.2109 83.1999 93.2917 82.5637C93.3724 83.5975 92.8071 83.6771 92.8071 84.3133C93.3724 82.6432 94.4222 85.5062 94.5838 82.7227C94.6645 82.8023 94.6645 82.9613 94.6645 83.0408C94.7453 83.0408 94.9068 83.518 95.0683 83.5975C95.149 83.1204 94.9068 82.8818 95.1491 82.7227C95.3913 82.8023 95.2298 83.5975 95.3913 83.9156C95.7951 83.2794 96.3604 83.0408 96.4411 81.9275C96.6026 82.2456 96.6834 82.8023 96.6026 83.0408C97.1679 82.166 97.2487 83.1204 97.814 82.5637C97.5717 82.6432 97.7332 83.6771 97.4102 83.2794C97.7332 84.7109 98.3792 82.9613 98.9445 83.6771L99.106 82.7227C99.4291 82.5637 99.5098 83.4385 99.2675 83.7566C99.8328 84.2338 100.075 83.6771 100.479 83.5975C100.479 83.6771 100.479 83.9156 100.398 83.8361L100.963 83.7566C101.044 83.518 101.206 83.0408 101.125 82.4842C100.963 83.359 100.883 83.6771 100.56 83.359Z" fill="#080809"/>
<path d="M71.9724 77.4741C71.8916 77.4741 71.6494 77.3945 71.7301 77.3945C71.8109 77.3945 71.9724 77.4741 72.0531 77.4741H71.9724Z" fill="#080809"/>
<path d="M72.6184 77.7125C72.6992 77.7921 72.7799 77.792 72.9414 77.8716C73.0222 77.8716 73.103 77.7921 73.2645 77.7921C72.8607 77.633 72.9414 77.7921 72.6184 77.7125Z" fill="#080809"/>
<path d="M73.426 78.0305H73.3452C73.426 78.11 73.426 78.0305 73.426 78.0305Z" fill="#080809"/>
<path d="M73.5067 77.9512L73.7489 77.7921C73.5874 77.7921 73.4259 77.7921 73.2644 77.7921L73.4259 77.8716C73.4259 77.9512 73.5067 77.9512 73.5067 78.0307L73.7489 77.9512C73.5874 77.9512 73.5067 77.9512 73.5067 77.9512Z" fill="#080809"/>
<path d="M74.3951 78.7463C74.3951 78.5873 74.5566 78.5077 74.6374 78.4282C74.3951 78.2692 74.1529 78.5873 73.9914 78.4282C74.4759 78.4282 73.9106 78.2692 73.8298 78.1101C73.8298 78.2692 73.9106 78.5077 74.2336 78.6668L74.3144 78.5077C74.4759 78.5873 74.3144 78.5873 74.3951 78.7463Z" fill="#080809"/>
<path d="M76.2522 78.6669L75.8484 78.985C75.8484 78.8259 75.4447 78.7464 75.6062 78.3488C75.4447 78.3488 75.3639 78.5078 75.2024 78.5873C75.1217 78.4283 75.1217 78.2692 74.8794 78.4283C75.3639 78.8259 75.2024 78.8259 75.6869 79.0645C75.6869 79.144 75.6062 79.144 75.5254 79.0645L75.7677 79.3826C76.01 78.985 76.4945 79.0645 76.2522 78.6669Z" fill="#080809"/>
<path d="M76.6561 79.0645C76.4138 79.0645 76.0908 79.303 76.1716 79.6212C76.4138 79.6212 76.6561 79.5416 76.8176 79.4621C76.6561 79.4621 76.4138 79.4621 76.6561 79.0645Z" fill="#080809"/>
<path d="M77.0601 79.2236C77.1408 79.4622 77.1408 80.0188 77.4638 79.6212C77.1408 79.5417 77.4638 78.9055 77.0601 79.2236Z" fill="#080809"/>
<path d="M78.9176 80.0984L78.433 79.6213C78.5138 78.9055 78.7561 79.4622 78.9983 79.1441C78.5946 78.9055 78.6753 79.2236 78.1908 79.5417C78.0293 79.4622 77.787 79.7803 77.6255 79.8598C78.433 79.5417 78.11 81.2118 78.9176 80.0984Z" fill="#080809"/>
<path d="M78.029 79.2235L77.8674 79.4621L78.1905 79.303L78.029 79.2235Z" fill="#080809"/>
<path d="M80.0479 81.2118C80.2094 82.2457 80.7747 80.8142 81.0977 81.2913C81.0169 81.3709 81.0977 81.4504 80.9362 81.5299H81.2592V81.7685C81.34 81.1323 81.663 80.9732 81.9053 80.4961C81.663 79.7803 81.663 81.2913 81.4207 80.4961C81.5015 80.2575 81.663 79.7803 81.7438 79.5417C81.5015 79.8598 81.4207 80.178 81.2592 80.4961C81.017 80.4961 81.1785 80.178 81.1785 79.9394C80.8554 80.2575 80.7747 81.1323 80.4517 80.8142C80.2902 80.2575 80.6939 80.0189 80.2902 80.178C80.2902 81.1323 79.8864 79.9394 79.6441 80.4961C79.4019 80.2575 79.3211 79.7008 79.4019 79.3827C79.3211 80.0189 78.9173 80.4961 78.675 80.6551C78.9173 80.4961 79.0788 80.4165 79.3211 80.2575V81.0527C79.7249 80.8937 79.8864 81.0528 80.0479 81.2118Z" fill="#080809"/>
<path d="M81.8245 79.5417C81.9052 79.4622 81.9052 79.4622 81.986 79.3827C81.9052 79.3827 81.9052 79.4622 81.8245 79.5417Z" fill="#080809"/>
<path d="M79.4019 79.303L79.5634 79.144V78.9054L79.4019 79.303Z" fill="#080809"/>
<path d="M82.1477 78.9053C82.0669 78.9053 81.9861 79.1439 82.0669 79.2234L82.2284 78.8258L82.1477 78.9053Z" fill="#080809"/>
<path d="M82.3899 79.5416L82.4707 80.0983L82.6322 79.6212L82.3899 79.5416Z" fill="#080809"/>
<path d="M89.0926 80.4958C88.8504 80.0982 88.8503 80.8935 88.8503 81.4502C89.1734 81.6092 88.8504 80.7344 89.0926 80.4958Z" fill="#080809"/>
</g>
</g>
<path d="M107.182 48.2875C106.617 47.4922 105.486 47.0946 104.517 47.3332C102.983 47.6513 100.641 48.367 100.318 49.3213C100.076 50.0371 101.852 51.1505 103.871 52.1048C106.294 53.2977 108.797 50.5938 107.263 48.367C107.182 48.2875 107.182 48.2875 107.182 48.2875Z" fill="#F7A9B4"/>
<path d="M96.6028 65.0677C96.6028 65.0677 92.8881 66.1015 92.4036 62.3638" stroke="#06002C" stroke-width="1.3038" stroke-miterlimit="10" stroke-linecap="round" stroke-linejoin="round"/>
</svg>
