<svg width="116" height="163" viewBox="0 0 116 163" fill="none" xmlns="http://www.w3.org/2000/svg">
<path d="M2.34685 160.172C2.34685 160.172 -2.57921 161.842 10.9069 162.398C24.393 162.955 95.6997 163.194 102.968 162.398C110.316 161.603 124.61 162.08 105.633 160.172C86.6552 158.263 67.1932 159.456 48.135 158.263C29.0768 157.07 5.17328 158.263 2.34685 160.172Z" fill="#1B1C1E"/>
<path d="M95.0534 104.503C95.0534 104.503 101.029 102.992 101.352 96.4709C101.352 96.4709 107.651 99.7316 107.893 108.241C108.136 116.75 101.433 120.409 101.433 120.409C101.433 120.409 92.3078 114.762 95.0534 104.503Z" fill="#FBAF5E"/>
<mask id="mask0_37_1600" style="mask-type:luminance" maskUnits="userSpaceOnUse" x="94" y="96" width="14" height="25">
<path d="M95.0534 104.503C95.0534 104.503 101.029 102.992 101.352 96.4709C101.352 96.4709 107.651 99.7316 107.893 108.241C108.136 116.75 101.433 120.409 101.433 120.409C101.433 120.409 92.3078 114.762 95.0534 104.503Z" fill="white"/>
</mask>
<g mask="url(#mask0_37_1600)">
<g opacity="0.62">
<path d="M100.06 113.251C100.141 113.251 100.222 113.251 100.302 113.251C100.302 113.172 100.302 113.172 100.06 113.251Z" fill="#3E240C"/>
<path d="M99.1719 109.99L98.9297 110.149C99.0104 110.07 99.0912 110.07 99.1719 109.99Z" fill="#3E240C"/>
<path d="M103.21 112.137C103.29 112.137 103.29 112.058 103.371 112.058C103.29 112.137 103.29 112.137 103.21 112.137Z" fill="#3E240C"/>
<path d="M98.2836 108.956C98.2028 108.956 98.2028 108.956 98.1221 108.956C98.1221 109.036 98.2028 109.036 98.2836 108.956Z" fill="#3E240C"/>
<path d="M100.464 115.318C101.352 115.159 100.545 115.398 101.433 115.318C101.191 115.239 101.11 115.239 101.514 115.159C101.998 115.159 101.514 115.318 102.241 115.239L101.918 115.159C102.321 115.08 102.887 115.08 102.806 115C101.756 115.08 103.129 114.603 102.968 114.523H103.048L103.533 114.284C103.533 114.284 103.533 114.284 103.614 114.284C103.533 114.284 103.533 114.284 103.452 114.284C103.937 114.125 104.26 113.966 104.098 113.807C103.533 113.887 103.775 113.41 103.291 113.489C103.452 113.489 103.452 113.569 103.371 113.648L102.644 113.807C102.644 113.648 103.291 113.648 102.806 113.648C101.837 113.887 102.806 113.807 102.725 113.887C102.483 113.887 102.321 113.887 102.16 113.887C102.16 114.046 101.837 114.284 102.887 114.205C102.725 114.284 102.321 114.364 102.16 114.284C102.725 114.284 101.675 114.443 102.16 114.443C101.272 114.523 101.675 114.284 101.11 114.284C101.756 113.966 101.11 113.966 100.868 113.807C101.514 113.648 102.079 113.648 102.483 113.489C102.887 113.251 102.079 113.41 101.675 113.41C101.837 113.251 102.725 113.091 102.725 112.932H103.21C104.098 112.535 102.806 112.932 102.968 112.773C102.725 112.853 102.483 112.932 102.564 113.012C102.241 113.091 102.079 113.091 101.998 113.012C101.514 113.091 101.11 113.251 101.272 113.012C101.837 112.932 101.675 112.773 101.918 112.694H102.079C101.837 112.694 101.918 112.535 101.837 112.535H101.998C101.756 112.535 101.11 112.694 101.191 112.614C101.433 112.535 102.241 112.376 102.079 112.376C102.483 112.296 102.564 112.376 102.483 112.535C102.564 112.376 103.21 112.137 103.291 112.217C103.775 112.058 103.048 112.137 103.21 112.058C103.048 112.137 102.887 112.137 102.725 112.217C103.371 111.978 102.725 111.978 102.241 112.137H102.644C102.079 112.296 101.675 112.296 101.433 112.455C102.241 112.137 100.949 112.296 101.595 111.978L101.191 112.217C101.352 111.899 100.303 112.058 100.06 111.978C100.383 111.899 101.272 111.58 101.029 111.819C101.11 111.58 101.918 111.421 102.321 111.103C102.564 110.785 101.433 111.342 101.11 111.421L101.352 111.501C100.222 111.819 101.352 111.024 100.626 111.103C100.868 110.944 100.787 111.103 100.949 111.024C101.433 110.706 100.787 110.944 100.545 111.024C100.626 110.865 100.787 110.626 101.433 110.388C101.514 110.229 101.029 110.626 100.787 110.626L100.949 110.547L100.141 110.785C100.303 110.626 100.545 110.308 101.191 109.91C100.949 109.751 99.7373 110.626 99.4143 110.626C99.6565 110.388 99.8988 110.388 100.141 110.229L99.9796 110.149C100.706 109.831 100.464 110.069 101.272 109.672C100.383 109.99 100.949 109.672 100.303 109.831L100.222 109.91C99.6565 110.149 99.8988 109.751 99.7373 109.751C100.06 109.592 100.222 109.672 100.383 109.672C100.626 109.433 100.141 109.274 99.4143 109.672C99.495 109.513 99.6565 109.274 100.06 109.115C100.06 108.877 99.0105 109.672 99.0912 109.433L99.5758 109.036C100.141 108.32 98.6067 109.195 99.172 108.479L98.526 108.956C98.7682 108.718 98.849 108.558 99.0105 108.32L99.2528 108.24C99.7373 107.763 98.6875 108.558 99.0105 108.161C98.849 108.32 98.4452 108.718 98.2837 108.877C98.9297 108.956 98.2837 109.91 99.172 109.831C99.2528 109.751 99.3335 109.672 99.4143 109.592C99.2527 109.751 99.495 109.672 99.172 109.91H99.0912C99.3335 109.91 98.526 110.467 98.6067 110.547C99.0912 110.308 98.526 110.865 99.2528 110.308L98.7682 110.626C99.0912 110.467 99.4143 110.229 99.5758 110.229C99.5758 110.308 99.2527 110.547 99.0105 110.547C98.849 110.944 99.0912 111.183 99.495 111.342L99.0912 111.421C98.9297 111.58 99.8988 111.342 98.849 111.74C99.3335 111.66 98.6875 112.217 99.7373 111.74C98.7682 112.296 99.4143 112.217 99.6565 112.376C100.545 111.978 99.9796 112.455 100.383 112.296C99.6565 112.535 99.5758 112.376 99.172 112.614C100.303 112.376 98.526 113.41 100.383 112.853C100.303 112.932 100.222 112.932 100.141 112.932C100.141 112.932 99.818 113.091 99.818 113.171C100.141 113.091 100.303 112.932 100.383 113.012C100.303 113.091 99.818 113.251 99.5758 113.33C100.06 113.33 100.303 113.489 101.029 113.33C100.868 113.41 100.464 113.569 100.303 113.569C100.949 113.648 100.222 113.807 100.626 113.966C100.545 113.887 99.8181 114.125 100.141 113.887C99.0913 114.205 100.383 114.205 99.8988 114.443L100.626 114.364C100.787 114.443 100.141 114.603 99.818 114.523C99.4143 114.762 99.818 114.762 99.8988 114.921C99.818 114.921 99.6565 114.921 99.7373 114.921V115.08C99.8988 115.08 100.303 115.08 100.706 115.08C100.464 115.477 100.222 115.477 100.464 115.318Z" fill="#3E240C"/>
<path d="M103.371 112.773C103.21 112.853 103.129 112.853 103.129 112.932C103.21 112.853 103.29 112.773 103.371 112.773Z" fill="#3E240C"/>
<path d="M102.16 117.466C103.21 117.466 101.998 117.307 102.241 117.227C102.402 117.307 103.048 117.307 103.29 117.307C101.918 117.148 103.533 117.148 103.29 116.909C103.775 116.909 103.775 116.989 104.259 117.068C103.936 116.909 103.694 116.75 102.967 116.671C102.967 116.432 103.21 116.273 103.048 116.193C103.371 116.352 103.775 116.193 104.502 116.273C103.613 116.114 102.564 115.796 101.433 115.716C102.241 115.637 102.321 115.557 103.129 115.557C103.613 115.239 102.321 115.557 102.564 115.319L102.402 115.478C102.16 115.398 101.352 115.478 100.787 115.478L100.949 115.716C100.383 115.796 100.464 115.637 100.302 115.557C99.5757 115.557 99.818 115.716 99.2527 115.796C99.7372 115.796 99.5757 115.875 99.818 115.955H99.4949C99.1719 116.114 99.9795 116.114 99.9795 116.193C99.8987 116.193 99.818 116.193 99.7372 116.193C100.06 116.193 100.545 116.193 100.626 116.273V116.193C101.352 116.273 101.837 116.432 102.644 116.273L102.402 116.591C101.595 116.591 100.383 116.591 100.222 116.432H99.8987C99.4142 116.512 100.545 116.671 101.191 116.591C103.129 116.671 101.272 116.989 102.079 117.227C101.514 117.227 101.352 117.148 100.949 117.068C100.868 116.989 100.868 116.989 101.352 116.989C101.029 116.75 99.6564 117.068 99.818 116.75C100.06 116.591 100.706 116.909 100.706 116.671L99.2527 116.591C99.3334 116.671 99.5757 116.75 99.7372 116.909C100.222 117.148 100.222 117.386 100.141 117.545C100.06 117.704 99.818 117.784 99.818 117.784C99.8987 118.5 99.9795 119.295 99.8987 120.09C100.06 120.408 99.9795 120.408 101.272 120.965C101.595 121.045 101.514 120.806 101.998 121.045C101.514 120.885 101.272 120.647 101.352 120.567C101.837 120.726 101.595 120.726 101.675 120.726H101.756C101.998 120.806 102.16 120.885 102.16 120.965C102.967 121.045 102.887 120.647 101.918 120.249C102.483 120.249 102.725 120.567 103.048 120.726C103.533 120.329 103.533 119.931 103.694 119.454C102.806 119.295 103.129 119.295 102.483 119.136H102.806C102.644 119.136 101.998 118.977 101.837 119.056C102.644 118.897 100.626 118.579 100.222 118.341L100.706 118.42C100.626 118.261 100.626 118.261 100.383 118.102C101.352 117.943 100.545 118.341 101.675 118.341L101.514 118.261C101.998 118.341 102.806 118.5 103.129 118.579C102.402 118.261 103.452 118.261 102.887 117.943C103.452 118.023 103.856 118.261 103.856 118.341C103.936 118.261 103.533 118.023 104.017 118.102L103.371 118.023C103.29 117.863 104.017 118.102 104.421 118.023C104.663 117.545 102.564 117.784 102.16 117.466Z" fill="#3E240C"/>
<path d="M102.241 113.808C102.16 113.887 102.241 113.887 102.321 113.887C102.321 113.887 102.321 113.808 102.241 113.808Z" fill="#3E240C"/>
<path d="M104.583 114.205C104.26 114.285 104.259 114.205 103.856 114.285C104.098 114.285 104.098 114.444 104.583 114.205Z" fill="#3E240C"/>
<path d="M97.3147 103.39C97.1532 103.549 96.9916 103.628 96.9109 103.787L97.1531 103.708L97.3147 103.39Z" fill="#3E240C"/>
<path d="M97.0725 104.185L96.9917 104.503L97.6378 103.867C97.557 103.708 97.234 104.264 97.0725 104.185Z" fill="#3E240C"/>
<path d="M97.0724 104.821L96.9109 104.98C96.9916 104.9 97.0724 104.821 97.0724 104.821Z" fill="#3E240C"/>
<path d="M97.3145 104.503L97.7991 104.026L97.3145 104.264V104.503C97.153 104.582 97.153 104.741 97.0723 104.821L97.3953 104.503C97.3953 104.503 97.3145 104.582 97.3145 104.503Z" fill="#3E240C"/>
<path d="M97.4761 104.582C97.4761 104.503 97.5568 104.503 97.5568 104.423C97.5568 104.503 97.4761 104.582 97.4761 104.582Z" fill="#3E240C"/>
<path d="M96.9915 105.775C97.1531 105.537 97.3953 105.378 97.6376 105.139C97.7184 104.821 97.0723 105.616 97.1531 105.298C97.6376 105.06 97.3146 104.98 97.5568 104.662C97.1531 105.059 96.9108 105.457 96.9915 105.775L97.2338 105.378C97.2338 105.457 97.0723 105.616 96.9915 105.775Z" fill="#3E240C"/>
<path d="M98.2031 105.457L97.7185 105.855C97.8801 105.616 97.7993 105.537 98.2031 105.06C98.1223 105.06 97.8801 105.298 97.7185 105.378C97.8801 105.139 98.0416 104.901 97.7185 105.219C97.6378 105.696 97.4763 105.775 97.557 106.093C97.4763 106.173 97.4763 106.173 97.4763 106.093L97.3955 106.412C97.7993 105.855 98.0415 105.934 98.2031 105.457Z" fill="#3E240C"/>
<path d="M98.0412 106.014C97.9604 105.934 97.4759 106.332 97.2336 106.65L97.7182 106.491C97.7182 106.412 97.6374 106.412 98.0412 106.014Z" fill="#3E240C"/>
<path d="M98.2028 106.093C98.0413 106.332 97.5568 106.889 98.0414 106.491C97.8798 106.491 98.6066 105.855 98.2028 106.093Z" fill="#3E240C"/>
<path d="M98.3644 107.127L98.5259 106.65C99.0912 106.014 98.7682 106.571 99.0912 106.332C99.0912 106.093 98.9297 106.332 98.4452 106.571C98.4452 106.491 98.0414 106.73 97.8799 106.809C98.5259 106.65 97.1531 108.002 98.3644 107.127Z" fill="#3E240C"/>
<path d="M98.6068 106.252L98.3645 106.491L98.6068 106.332V106.252Z" fill="#3E240C"/>
<path d="M98.1222 108.161C97.4761 108.877 98.6874 108.002 98.5259 108.4C98.4452 108.4 98.4452 108.479 98.2837 108.559H98.4452L98.2837 108.718C98.6874 108.32 99.0104 108.32 99.4142 108.082C99.818 107.604 98.849 108.479 99.2527 107.922C99.495 107.763 99.818 107.525 99.9795 107.445C99.7373 107.525 99.4142 107.763 99.172 107.922C99.0912 107.922 99.3335 107.684 99.495 107.525C99.172 107.684 98.5259 108.241 98.6067 108.002C98.9297 107.604 99.2527 107.525 99.0104 107.525C98.3644 108.161 99.0105 107.286 98.5259 107.684C98.6067 107.445 98.9297 107.048 99.172 106.809C98.6067 107.286 98.1221 107.604 97.8799 107.684L98.4452 107.445L97.8799 108.082C98.1221 107.843 98.1222 108.002 98.1222 108.161Z" fill="#3E240C"/>
<path d="M99.8987 107.445C99.9794 107.445 99.9794 107.366 100.06 107.366C100.06 107.366 99.9794 107.366 99.8987 107.445Z" fill="#3E240C"/>
<path d="M99.1719 106.65L99.3334 106.571L99.4949 106.332L99.1719 106.65Z" fill="#3E240C"/>
<path d="M100.464 107.127C100.464 107.048 100.222 107.286 100.222 107.286L100.545 107.048L100.464 107.127Z" fill="#3E240C"/>
<path d="M100.06 107.604L99.7373 107.922L100.06 107.763V107.604Z" fill="#3E240C"/>
<path d="M101.352 110.308C101.595 110.07 101.029 110.388 100.706 110.547C100.706 110.786 101.191 110.308 101.352 110.308Z" fill="#3E240C"/>
<path d="M102.806 111.819C103.129 111.581 102.564 111.66 102.564 111.581C102.321 111.74 102.564 111.819 102.806 111.819Z" fill="#3E240C"/>
<path d="M104.986 112.058C104.825 112.058 104.663 112.058 104.663 112.137L103.613 112.296C103.29 112.615 104.582 112.217 104.986 112.058Z" fill="#3E240C"/>
<path d="M105.39 113.092L104.986 113.012V113.092C104.583 113.171 104.34 113.171 104.017 113.171C104.26 113.251 104.663 113.251 105.39 113.092Z" fill="#3E240C"/>
<path d="M103.775 113.092C104.098 113.012 104.017 113.092 103.775 113.092Z" fill="#3E240C"/>
<path d="M103.856 113.171C103.936 113.171 103.936 113.171 103.936 113.171C103.936 113.171 103.936 113.092 103.856 113.171C103.775 113.171 103.694 113.171 103.856 113.171Z" fill="#3E240C"/>
<path d="M104.906 113.331L105.067 113.569L105.229 113.41C104.663 113.49 105.632 113.172 104.906 113.331Z" fill="#3E240C"/>
<path d="M104.663 114.841L104.017 114.921C103.936 115.08 105.228 115.159 104.259 115.398C104.663 115.318 104.986 115.478 105.148 115.239C104.582 115.239 104.502 115 104.663 114.841Z" fill="#3E240C"/>
<path d="M103.856 115.636C103.694 115.636 103.533 115.636 103.371 115.716C103.291 115.796 103.614 115.796 103.856 115.796C102.967 115.796 104.34 115.636 103.856 115.636Z" fill="#3E240C"/>
<path d="M103.936 116.432C103.936 116.352 103.856 116.352 103.694 116.432C103.775 116.591 104.421 116.511 104.825 116.591C105.228 116.352 104.259 116.273 103.936 116.432Z" fill="#3E240C"/>
<path d="M99.3335 117.386C99.8988 117.386 99.818 117.307 99.5758 117.307C99.7373 117.307 99.5758 117.386 99.3335 117.386Z" fill="#3E240C"/>
<path d="M103.775 117.625L103.856 117.545L103.048 117.466L103.775 117.625Z" fill="#3E240C"/>
<path d="M104.098 118.5L104.663 118.659L104.582 118.5H104.098Z" fill="#3E240C"/>
<path d="M103.937 118.659V118.818H104.179C104.34 118.738 103.937 118.738 103.937 118.659Z" fill="#3E240C"/>
<path d="M104.017 119.136C103.936 119.136 104.098 119.136 104.179 119.136L103.856 118.977L104.017 119.136Z" fill="#3E240C"/>
<path d="M100.303 120.488C99.818 120.329 100.06 120.488 99.9795 120.408C100.06 120.488 100.787 120.647 100.303 120.488Z" fill="#3E240C"/>
</g>
</g>
<path d="M7.75741 73.0898C7.75741 73.0898 6.46532 107.366 9.45326 145.857C9.45326 145.857 4.44645 151.98 7.35363 160.172C7.35363 160.172 25.362 160.172 27.7039 160.172C27.7039 160.172 32.5492 151.185 33.3568 138.858H49.3463C49.3463 138.858 55.3221 147.288 59.5214 154.366C60.8135 156.513 61.4595 159.376 62.4286 160.172C62.4286 160.172 97.0725 160.172 97.6378 160.172C98.2031 160.172 104.179 140.29 102.887 123.033C102.806 122.158 102.725 121.283 102.645 120.408C102.16 116.75 101.272 113.728 100.141 111.024C99.0107 108.479 97.7186 106.252 96.1035 104.185C92.3887 99.2541 87.5434 95.5163 82.6981 90.9038C75.5109 84.0645 69.9388 70.1473 69.9388 70.1473C69.9388 70.1473 72.2 65.5347 47.8927 64.4213C23.5854 63.3875 8.96873 66.8072 7.75741 73.0898Z" fill="#FBAF5E"/>
<path d="M49.3463 138.859L47.0044 135.36" stroke="#1B1C1E" stroke-width="1.2604" stroke-miterlimit="10" stroke-linecap="round" stroke-linejoin="round"/>
<path d="M64.6089 105.935C59.8443 115.557 54.676 116.591 54.676 116.591C48.6194 123.749 45.7929 123.908 45.7929 123.908C42.5627 128.123 36.3446 132.337 36.3446 132.337C31.6608 130.588 27.1385 123.43 27.1385 123.43C23.1008 122.715 19.5475 114.682 19.5475 114.682C11.7143 110.308 8.40335 98.8566 7.35354 94.0055C7.27278 81.2812 7.5958 73.1694 7.5958 73.1694C8.88789 66.9663 23.4238 63.4672 47.7311 64.5805C72.0384 65.6939 69.7772 70.3065 69.7772 70.3065C69.7772 70.3065 70.6655 72.4537 72.1191 75.4757C77.5297 95.9937 64.6089 105.935 64.6089 105.935Z" fill="#FFF0DD"/>
<path d="M69.858 70.1473C71.2308 73.6465 70.504 77.6228 67.8391 80.3267C61.298 87.007 48.1349 97.8226 32.8722 95.6754C24.8774 94.562 18.9823 91.4605 14.8638 88.2794C10.0992 84.6212 7.51506 78.9748 7.67657 73.0103C8.96865 66.8072 23.5046 63.308 47.8118 64.4214C72.1191 65.5347 69.858 70.1473 69.858 70.1473Z" fill="#D1493B"/>
<path d="M40.7056 92.8923C40.7056 89.075 37.5561 86.053 33.7606 86.053C29.9651 86.053 26.8157 89.1545 26.8157 92.8923C26.8157 94.6419 27.4617 96.2324 28.5923 97.4253C29.8844 98.8568 31.7417 99.7316 33.7606 99.7316C37.5561 99.7316 40.7056 96.7096 40.7056 92.8923Z" fill="#FFAE1F"/>
<path d="M28.5115 97.4254C29.8036 98.8568 31.6609 99.7317 33.6798 99.7317C37.556 99.7317 40.6247 96.6301 40.6247 92.8923" stroke="#1B1C1E" stroke-width="1.2604" stroke-miterlimit="10" stroke-linecap="round" stroke-linejoin="round"/>
<path d="M50.3153 26.1692C50.3153 26.1692 58.3101 12.1725 61.298 1.91349C61.8633 0.0048399 64.2052 -0.631375 65.7395 0.720582C71.5539 6.04888 81.3252 19.7275 67.9199 44.3013C68.0007 44.3013 49.427 37.462 50.3153 26.1692Z" fill="#FBAF5E"/>
<path d="M67.4352 39.4502C66.2239 36.9054 64.6895 34.3605 62.5091 32.2133C60.0865 29.8275 59.5212 26.1692 60.8133 23.0677C63.0744 17.8189 65.0125 11.5363 65.9008 8.51427C66.1431 7.719 67.1929 7.55994 67.6775 8.27568C76.9643 21.3976 67.4352 39.4502 67.4352 39.4502Z" fill="#BC763C"/>
<path d="M67.4354 39.4501C66.6279 41.1201 53.3033 35.8714 57.6641 29.3502C57.7448 29.1911 57.9063 28.9525 58.0678 28.7935C62.6709 31.3383 65.4973 35.3147 67.4354 39.4501Z" fill="#BC763C"/>
<path d="M75.2686 62.9103C70.1003 72.374 60.652 79.3724 52.0919 84.2235C40.6247 90.6652 26.331 89.5518 16.1559 81.281C2.5083 70.2268 -1.04493 59.0135 0.247155 58.1387C0.812441 57.7411 1.7815 55.912 2.83132 53.6852C2.83132 53.6852 6.78832 53.2081 14.0563 57.1844C21.2435 61.0812 26.5733 58.0592 27.9462 45.0168C29.4805 29.5886 32.1454 25.3736 32.1454 25.3736C34.6488 25.1351 37.7175 24.976 40.9477 25.1351C40.9477 25.1351 35.3756 47.0845 41.7553 56.6277C46.1968 63.308 55.4836 58.8545 61.2172 55.8324C66.8701 52.8899 71.3924 52.6514 71.3924 52.6514C71.5539 53.1285 71.6346 53.6057 71.7154 53.9238C72.9267 58.1387 75.2686 62.9103 75.2686 62.9103Z" fill="#FFF0DD"/>
<path d="M27.9461 26.0101C29.0767 25.692 30.4495 25.533 32.1454 25.2944C32.1454 25.2944 29.4805 29.5093 27.9461 44.9375C26.6541 57.9004 21.3242 61.002 14.0563 57.1051C6.86906 53.1288 2.8313 53.606 2.8313 53.606C4.93093 48.9139 7.35359 42.3131 7.35359 42.3131C-3.14457 19.3299 7.91888 6.04888 14.46 0.641049C16.1559 -0.710908 18.7401 0.243412 19.0631 2.39064C21.0012 14.8764 27.9461 26.0101 27.9461 26.0101Z" fill="#FBAF5E"/>
<path d="M71.2309 52.572C71.2309 52.572 66.7086 52.8106 61.0557 55.753C55.4029 58.6955 46.116 63.2286 41.5937 56.5483C35.2948 47.0051 40.7862 25.0557 40.7862 25.0557C45.5507 25.2147 50.5576 25.8509 54.5953 27.2824C55.4836 27.6005 56.2912 27.9186 57.0987 28.3163C57.341 28.4753 57.664 28.5549 57.9063 28.7139C62.5093 31.2588 65.4165 35.2351 67.2739 39.3705C67.8391 40.4839 68.2429 41.5973 68.6467 42.7106C70.1003 46.687 70.7463 50.3452 71.2309 52.572Z" fill="#FBAF5E"/>
<path d="M35.4563 64.1032C33.6797 65.5347 31.1763 65.4552 29.4804 63.9442C27.9461 62.5922 26.2502 60.6041 26.2502 58.3773C26.2502 55.8324 38.1212 55.7529 38.4443 58.3773C38.848 60.6041 37.1522 62.6718 35.4563 64.1032Z" fill="#1B1C1E"/>
<path d="M22.9392 52.4127C22.9392 53.6852 21.9702 55.1166 20.5166 55.0371C18.9822 54.8781 18.3362 53.5261 18.3362 52.3332C18.3362 51.0608 19.4668 50.1064 20.6781 50.1064C21.9702 50.1064 22.9392 51.1403 22.9392 52.4127Z" fill="#1B1C1E"/>
<path d="M47.7312 53.1287C47.7312 54.4012 46.6814 55.6736 45.4701 55.5941C44.178 55.5941 43.1282 54.2421 43.209 52.9697C43.209 51.6972 44.3395 50.7429 45.5509 50.7429C46.7622 50.8224 47.7312 51.8563 47.7312 53.1287Z" fill="#1B1C1E"/>
<path d="M15.5906 31.7359C12.6027 34.2012 10.3415 37.2232 8.96868 39.45C-0.641178 21.795 13.1679 1.83377 13.6525 9.6274C13.8947 13.6833 15.9136 18.932 17.6902 22.9879C19.1438 26.0099 18.2555 29.5887 15.5906 31.7359Z" fill="#BC763C"/>
<mask id="mask1_37_1600" style="mask-type:luminance" maskUnits="userSpaceOnUse" x="19" y="131" width="15" height="20">
<path d="M33.3568 138.859C33.1145 143.074 32.3069 146.891 31.4994 150.152C22.5356 144.426 20.3552 134.087 19.9514 131.542C25.2813 139.575 33.3568 138.859 33.3568 138.859Z" fill="white"/>
</mask>
<g mask="url(#mask1_37_1600)">
<g opacity="0.62">
<path d="M28.5114 137.666C28.5114 137.745 28.4307 137.825 28.4307 137.904C28.4307 137.904 28.5114 137.825 28.5114 137.666Z" fill="#3E240C"/>
<path d="M25.4429 136.234L25.6044 135.996C25.6044 136.075 25.5236 136.155 25.4429 136.234Z" fill="#3E240C"/>
<path d="M27.8654 139.654C27.8654 139.733 27.8654 139.813 27.7847 140.051L27.8654 139.654Z" fill="#3E240C"/>
<path d="M26.9772 140.529C26.9772 140.608 26.8965 140.608 26.8965 140.688C26.8965 140.608 26.8965 140.608 26.9772 140.529Z" fill="#3E240C"/>
<path d="M31.4993 137.984C31.4993 137.905 31.4993 137.905 31.4993 137.905C31.58 137.905 31.4993 137.905 31.4993 137.984Z" fill="#3E240C"/>
<path d="M31.4187 138.859C31.4995 138.938 31.4187 138.938 31.4187 138.859Z" fill="#3E240C"/>
<path d="M31.5803 137.586C31.5803 137.666 31.5803 137.745 31.5803 137.825C31.5803 137.745 31.4996 137.745 31.5803 137.586Z" fill="#3E240C"/>
<path d="M28.5922 137.586C28.5922 137.666 28.5115 137.666 28.5115 137.745C28.5922 137.666 28.5922 137.586 28.5922 137.586Z" fill="#3E240C"/>
<path d="M24.6353 135.201C24.6353 135.121 24.6353 135.121 24.6353 135.042C24.716 135.042 24.716 135.121 24.6353 135.201Z" fill="#3E240C"/>
<path d="M30.5304 138.381C30.2073 139.256 30.6111 138.461 30.3689 139.256C30.3689 139.018 30.3689 138.938 30.2074 139.336C30.1266 139.813 30.3689 139.336 30.1266 140.051V139.733C29.9651 140.051 29.8843 140.688 29.8036 140.608C30.0458 139.574 29.3998 140.926 29.319 140.688V140.767L28.996 141.165C28.996 141.165 28.996 141.165 28.996 141.244C28.996 141.165 28.996 141.165 29.0768 141.085C28.8345 141.563 28.5922 141.801 28.5115 141.642C28.673 141.085 28.1885 141.324 28.2692 140.767C28.2692 140.926 28.2692 140.926 28.4307 140.847L28.673 140.211C28.5922 140.211 28.4307 140.847 28.4307 140.37C28.8345 139.495 28.5922 140.449 28.7538 140.37C28.8345 140.131 28.8345 139.972 28.8345 139.813C28.996 139.813 29.2383 139.574 29.0768 140.529C29.1575 140.37 29.319 139.972 29.319 139.892C29.2383 140.449 29.5613 139.415 29.4805 139.892C29.7228 139.018 29.3998 139.336 29.4805 138.859C29.0768 139.495 29.1575 138.779 29.0768 138.62C28.8345 139.256 28.673 139.813 28.5115 140.131C28.1885 140.449 28.5115 139.733 28.5923 139.336C28.35 139.495 28.1077 140.29 27.9462 140.29L27.8654 140.688C27.3809 141.483 27.9462 140.29 27.7847 140.449C27.9462 140.211 28.027 140.051 28.1077 140.131C28.2692 139.813 28.2692 139.654 28.2692 139.654C28.4307 139.256 28.5922 138.779 28.4307 138.938C28.2692 139.495 28.1885 139.256 28.027 139.495V139.574C28.027 139.336 27.9462 139.415 27.9462 139.256L27.8654 139.415C27.9462 139.177 28.1885 138.54 28.027 138.7C27.8654 138.938 27.6232 139.654 27.6232 139.495C27.4617 139.892 27.5424 139.972 27.7039 139.892C27.5424 139.972 27.1387 140.529 27.3002 140.608C27.0579 141.085 27.3002 140.37 27.1387 140.529C27.2194 140.37 27.3002 140.211 27.3809 140.051C27.0579 140.688 27.1387 139.972 27.3809 139.574L27.3002 139.972C27.6232 139.495 27.6232 139.097 27.8654 138.859C27.3809 139.574 27.7847 138.302 27.3809 138.938L27.6232 138.54C27.3002 138.7 27.6232 137.666 27.6232 137.348C27.5424 137.586 26.9771 138.461 27.3002 138.222C26.9771 138.222 26.7349 139.018 26.4119 139.336C26.0888 139.495 26.8156 138.54 26.9771 138.222V138.461C27.4617 137.427 26.4926 138.381 26.6541 137.666C26.4926 137.904 26.5734 137.825 26.5734 137.904C26.1696 138.302 26.5734 137.745 26.6541 137.507C26.4926 137.507 26.2503 137.666 25.8466 138.222C25.6043 138.302 26.0888 137.904 26.1696 137.666L26.0888 137.745L26.4926 137.029C26.2503 137.189 25.9273 137.348 25.4428 137.825C25.362 137.586 26.4119 136.552 26.4926 136.234C26.1696 136.473 26.1696 136.632 26.0081 136.87L25.9273 136.711C25.4428 137.348 25.7658 137.109 25.2005 137.825C25.6851 137.029 25.2005 137.507 25.5236 136.87L25.6043 136.791C26.0081 136.234 25.5236 136.473 25.5236 136.314C25.2813 136.632 25.362 136.711 25.2813 136.87C24.9583 137.029 24.9583 136.632 25.4428 135.916C25.2813 135.996 24.9583 136.075 24.7968 136.393C24.5545 136.314 25.6043 135.518 25.2813 135.518L24.7968 135.996C23.9892 136.473 25.1198 135.121 24.3122 135.518L24.8775 134.962C24.6352 135.121 24.393 135.2 24.1507 135.359L23.9892 135.598C23.4239 135.916 24.393 135.121 23.9892 135.359C24.1507 135.2 24.6352 134.962 24.7968 134.803C24.7968 135.439 25.8466 134.962 25.6043 135.837C25.5235 135.916 25.4428 135.996 25.362 136.075C25.5236 135.996 25.4428 136.155 25.7658 135.837V135.757C25.7658 135.996 26.4926 135.359 26.4926 135.359C26.1696 135.757 26.8156 135.359 26.1696 135.996L26.5734 135.598C26.4119 135.837 26.0888 136.155 26.0081 136.314C26.0888 136.314 26.3311 136.075 26.4119 135.837C26.8156 135.757 27.0579 136.075 27.1387 136.473L27.3002 136.075C27.4617 135.916 27.0579 136.791 27.6232 135.916C27.4617 136.314 28.1077 135.837 27.4617 136.791C28.1885 135.916 28.027 136.632 28.1077 136.87C27.5424 137.666 28.1077 137.189 27.9462 137.586C28.35 136.95 28.1885 136.87 28.4307 136.473C28.027 137.586 29.319 135.996 28.4307 137.666C28.5115 137.586 28.5115 137.507 28.5923 137.507C28.5923 137.507 28.8345 137.268 28.9153 137.189C28.7538 137.507 28.673 137.586 28.673 137.745C28.7538 137.745 28.996 137.268 29.0768 137.029C28.996 137.507 29.1575 137.745 28.8345 138.461C28.996 138.302 29.1575 137.904 29.2383 137.745C29.2383 138.381 29.4806 137.745 29.5613 138.143C29.4806 138.063 29.8036 137.427 29.6421 137.666C30.1266 136.711 29.8843 137.984 30.2881 137.507L30.1266 138.143C30.2073 138.302 30.4496 137.666 30.4496 137.427C30.7726 137.109 30.6919 137.507 30.8534 137.586C30.8534 137.507 30.9341 137.348 30.8534 137.427H31.0149C31.0149 137.586 30.9341 137.984 30.7726 138.381C30.6919 138.381 30.7726 138.143 30.5304 138.381Z" fill="#3E240C"/>
<path d="M27.5425 140.767C27.6232 140.608 27.704 140.529 27.704 140.529C27.6232 140.688 27.5425 140.767 27.5425 140.767Z" fill="#3E240C"/>
<path d="M32.3876 140.449C32.226 141.483 32.3068 140.29 32.1453 140.529C32.226 140.688 32.0645 141.324 32.0645 141.563C32.1453 140.211 31.903 141.801 31.6608 141.483C31.58 141.881 31.6608 142.04 31.58 142.517C31.4993 142.199 31.3377 141.96 31.4185 141.165C31.1762 141.085 31.0147 141.324 30.8532 141.165C30.934 141.483 30.6917 141.881 30.6917 142.596C30.6917 141.722 30.6109 140.608 30.6917 139.495C30.4494 140.29 30.4494 140.37 30.2072 141.085C29.8034 141.563 30.3687 140.29 30.0457 140.449L30.2072 140.37C30.2072 140.131 30.3687 139.336 30.5302 138.779L30.7725 138.938C30.934 138.382 30.7725 138.461 30.7725 138.302C30.934 137.666 31.0147 137.904 31.1762 137.348C31.0955 137.825 31.1762 137.666 31.1762 137.904L31.257 137.586C31.4185 137.268 31.3377 138.063 31.4185 138.063C31.4185 137.984 31.4992 137.904 31.4992 137.904C31.4185 138.222 31.4185 138.62 31.4185 138.779V138.7C31.3377 139.415 31.4993 139.893 31.1762 140.688L31.4992 140.529C31.6608 139.733 31.8223 138.541 31.7415 138.382L31.8223 138.063C31.9838 137.666 31.9838 138.7 31.7415 139.415C31.4993 141.324 32.1453 139.574 32.2261 140.37C32.3068 139.893 32.2261 139.654 32.2261 139.256C32.1453 139.177 32.1453 139.177 32.0645 139.574C31.903 139.256 32.3876 137.984 32.1453 138.063C31.9838 138.302 32.1453 138.938 31.903 138.938L32.0645 137.507C32.1453 137.586 32.226 137.825 32.3068 137.984C32.4683 138.461 32.7106 138.541 32.8721 138.461C33.0336 138.382 33.1143 138.222 33.1143 138.222C33.8411 138.461 34.6487 138.62 35.3755 138.7C35.6178 138.859 35.6985 138.779 36.0215 140.211C36.0215 140.529 35.86 140.37 35.9408 140.847C35.86 140.29 35.6985 140.052 35.537 140.131C35.537 140.688 35.6985 140.37 35.6985 140.529C35.7793 140.767 35.7793 141.006 35.86 141.006C35.7793 141.801 35.3755 141.642 35.214 140.688C35.1332 141.244 35.3755 141.483 35.4563 141.881C34.9717 142.278 34.5679 142.278 34.0834 142.278C34.0834 141.324 34.0027 141.722 34.0027 141.085L33.9219 141.404C33.9219 141.244 33.9219 140.608 34.0027 140.449C33.6796 141.165 33.7604 139.177 33.5989 138.779V139.256C33.4374 139.177 33.4374 139.177 33.3566 138.859C33.0336 139.733 33.5181 139.018 33.3566 140.211L33.2759 140.052C33.2759 140.529 33.2759 141.324 33.3566 141.642C33.1951 140.847 32.9528 141.96 32.7106 141.324C32.7106 141.881 32.8721 142.278 32.9528 142.358C32.8721 142.437 32.7106 142.04 32.6298 142.517L32.7106 141.881C32.5491 141.801 32.6298 142.517 32.5491 142.915C32.0645 142.915 32.7106 140.847 32.3876 140.449Z" fill="#3E240C"/>
<path d="M28.7539 139.893C28.8347 139.893 28.8347 139.893 28.8347 139.972L28.7539 139.893Z" fill="#3E240C"/>
<path d="M28.7539 142.199C28.9154 141.96 28.8347 141.881 28.9154 141.562C28.9154 141.801 29.0769 141.801 28.7539 142.199Z" fill="#3E240C"/>
<path d="M20.0321 133.212H20.3551L19.6283 133.689C19.4668 133.53 20.1129 133.371 20.0321 133.212Z" fill="#3E240C"/>
<path d="M20.6782 133.292L20.8397 133.133C20.759 133.212 20.759 133.292 20.6782 133.292Z" fill="#3E240C"/>
<path d="M20.3551 133.53L19.7898 133.928L20.1128 133.53H20.3551C20.5166 133.371 20.5974 133.371 20.6781 133.371L20.2743 133.689C20.3551 133.53 20.4358 133.451 20.3551 133.53Z" fill="#3E240C"/>
<path d="M20.3551 133.689C20.2744 133.689 20.2744 133.769 20.1936 133.769C20.2744 133.689 20.3551 133.689 20.3551 133.689Z" fill="#3E240C"/>
<path d="M21.6474 133.371C21.4051 133.451 21.1628 133.689 20.9206 133.848C20.5976 133.848 21.4858 133.371 21.1628 133.371C20.8398 133.769 20.7591 133.53 20.436 133.61C21.0013 133.371 21.4051 133.212 21.6474 133.212L21.3243 133.451C21.2436 133.53 21.4859 133.371 21.6474 133.371Z" fill="#3E240C"/>
<path d="M21.1628 134.485L21.6473 134.087C21.4051 134.246 21.3243 134.087 20.759 134.405C20.8398 134.326 21.0013 134.167 21.1628 134.008C20.8398 134.167 20.5975 134.246 21.0013 133.928C21.4858 133.928 21.5666 133.769 21.8896 133.928C21.9704 133.849 21.9704 133.849 21.9704 133.849L22.3741 133.769C21.5666 134.167 21.6473 134.405 21.1628 134.485Z" fill="#3E240C"/>
<path d="M21.6473 134.485C21.5666 134.326 22.0511 134.008 22.4549 133.849L22.2126 134.326C22.1319 134.246 22.1319 134.087 21.6473 134.485Z" fill="#3E240C"/>
<path d="M21.8088 134.564C22.1319 134.405 22.7779 134.087 22.2934 134.485C22.2126 134.405 21.4858 134.962 21.8088 134.564Z" fill="#3E240C"/>
<path d="M22.778 134.962L22.2935 135.041C21.5667 135.439 22.1319 135.28 21.8897 135.598C21.6474 135.519 21.8897 135.439 22.2127 135.041C22.1319 135.041 22.455 134.723 22.6165 134.564C22.2127 135.041 23.9085 133.928 22.778 134.962Z" fill="#3E240C"/>
<path d="M21.8088 135.041L22.0511 134.882L21.9703 135.121L21.8088 135.041Z" fill="#3E240C"/>
<path d="M23.8278 134.882C24.6353 134.405 23.5855 135.439 23.9893 135.28C23.9893 135.2 24.0701 135.2 24.1508 135.121V135.28L24.3123 135.121C23.8278 135.518 23.747 135.757 23.5048 136.075C22.9395 136.393 23.9893 135.598 23.424 135.916C23.2625 136.075 22.9395 136.393 22.778 136.552C22.9395 136.314 23.1818 136.075 23.424 135.837C23.424 135.757 23.1818 135.996 23.0202 136.075C23.1818 135.757 23.9086 135.28 23.5855 135.28C23.101 135.518 23.0202 135.837 23.0202 135.518C23.8278 135.041 22.778 135.439 23.2625 135.041C23.0203 135.041 22.5357 135.359 22.2935 135.518C22.8587 135.121 23.2625 134.644 23.424 134.485L23.101 135.041L23.8278 134.564C23.5048 134.882 23.6663 134.882 23.8278 134.882Z" fill="#3E240C"/>
<path d="M22.778 136.473C22.778 136.552 22.6973 136.552 22.6973 136.632C22.6973 136.632 22.6973 136.552 22.778 136.473Z" fill="#3E240C"/>
<path d="M22.1319 135.677L21.9703 135.757L21.8088 135.916L22.1319 135.677Z" fill="#3E240C"/>
<path d="M22.374 136.95C22.374 136.95 22.5355 136.791 22.6163 136.791L22.374 137.109V136.95Z" fill="#3E240C"/>
<path d="M22.9395 136.711L23.3432 136.473L23.101 136.711H22.9395Z" fill="#3E240C"/>
<path d="M25.4427 138.461C25.2005 138.62 25.5235 138.223 25.7658 137.825C26.008 137.825 25.5235 138.223 25.4427 138.461Z" fill="#3E240C"/>
<path d="M26.6542 140.131C26.3312 140.37 26.5735 139.893 26.4927 139.813C26.735 139.574 26.735 139.813 26.6542 140.131Z" fill="#3E240C"/>
<path d="M26.4927 142.199C26.5734 142.04 26.5734 141.881 26.6542 141.881L27.058 140.926C27.381 140.688 26.7349 141.801 26.4927 142.199Z" fill="#3E240C"/>
<path d="M27.4617 142.835V142.437H27.5424C27.7039 142.04 27.7039 141.881 27.7847 141.562C27.7847 141.722 27.7847 142.119 27.4617 142.835Z" fill="#3E240C"/>
<path d="M27.7847 141.244C27.7039 141.403 27.6231 141.562 27.7847 141.244Z" fill="#3E240C"/>
<path d="M27.8655 141.404C27.8655 141.483 27.8655 141.483 27.8655 141.483C27.7847 141.404 27.7847 141.404 27.8655 141.404C27.8655 141.165 27.7847 141.244 27.8655 141.404Z" fill="#3E240C"/>
<path d="M27.7848 142.358L28.027 142.596L27.8655 142.755C28.027 142.119 27.5425 142.994 27.7848 142.358Z" fill="#3E240C"/>
<path d="M29.3999 142.358L29.6422 141.801C29.8037 141.722 29.7229 143.074 30.0459 142.119C29.8844 142.437 30.0459 142.835 29.7229 142.915C29.8037 142.437 29.5614 142.278 29.3999 142.358Z" fill="#3E240C"/>
<path d="M30.2879 141.722C30.2879 141.563 30.3687 141.403 30.4494 141.244C30.5302 141.165 30.5302 141.483 30.4494 141.722C30.6109 140.926 30.2071 142.199 30.2879 141.722Z" fill="#3E240C"/>
<path d="M31.0956 141.96C31.0149 141.96 31.0149 141.881 31.0956 141.722C31.2572 141.801 31.0149 142.437 31.0149 142.915C30.7726 143.233 30.9341 142.278 31.0956 141.96Z" fill="#3E240C"/>
<path d="M32.8722 137.666C32.7914 138.143 32.7107 138.063 32.7107 137.904C32.7107 138.063 32.7914 137.904 32.8722 137.666Z" fill="#3E240C"/>
<path d="M32.3071 142.04L32.2263 142.119L32.3071 141.324V142.04Z" fill="#3E240C"/>
<path d="M33.1147 142.517L33.1954 143.074L33.0339 142.914L33.1147 142.517Z" fill="#3E240C"/>
</g>
</g>
<path d="M12.9256 160.172C12.9256 160.172 11.7142 153.81 14.6214 151.026" stroke="#1B1C1E" stroke-width="1.2604" stroke-miterlimit="10" stroke-linecap="round" stroke-linejoin="round"/>
<path d="M19.9512 160.172C19.9512 160.172 18.8206 157.07 21.324 151.822" stroke="#1B1C1E" stroke-width="1.2604" stroke-miterlimit="10" stroke-linecap="round" stroke-linejoin="round"/>
<path d="M33.3566 138.859C33.3566 138.859 23.5045 139.733 18.3362 128.6" stroke="#1B1C1E" stroke-width="1.2604" stroke-miterlimit="10" stroke-linecap="round" stroke-linejoin="round"/>
<path d="M81.083 160.172C81.083 160.172 82.8596 156.116 82.052 149.436C81.2445 142.755 75.1879 115.875 75.9146 114.603" stroke="#1B1C1E" stroke-width="1.2604" stroke-miterlimit="10" stroke-linecap="round" stroke-linejoin="round"/>
<path d="M19.6284 114.603C19.6284 114.603 18.0133 110.706 17.5288 107.366" stroke="#1B1C1E" stroke-width="1.2604" stroke-miterlimit="10" stroke-linecap="round" stroke-linejoin="round"/>
<path d="M27.3 123.43C27.3 123.43 26.0079 121.203 25.4426 118.579" stroke="#1B1C1E" stroke-width="1.2604" stroke-miterlimit="10" stroke-linecap="round" stroke-linejoin="round"/>
<path d="M45.8735 123.828C45.8735 123.828 48.6192 120.567 49.1037 118.5" stroke="#1B1C1E" stroke-width="1.2604" stroke-miterlimit="10" stroke-linecap="round" stroke-linejoin="round"/>
<path d="M54.676 116.511C54.676 116.511 59.3598 110.786 60.0866 104.503" stroke="#1B1C1E" stroke-width="1.2604" stroke-miterlimit="10" stroke-linecap="round" stroke-linejoin="round"/>
<path d="M64.6089 105.935C64.6089 105.935 66.6278 102.197 67.0315 98.459" stroke="#1B1C1E" stroke-width="1.2604" stroke-miterlimit="10" stroke-linecap="round" stroke-linejoin="round"/>
<path d="M68.7274 160.172C68.7274 160.172 66.7893 157.468 67.193 152.537" stroke="#1B1C1E" stroke-width="1.2604" stroke-miterlimit="10" stroke-linecap="round" stroke-linejoin="round"/>
<path d="M74.5418 160.172C74.5418 160.172 73.7342 155.957 74.5418 152.537" stroke="#1B1C1E" stroke-width="1.2604" stroke-miterlimit="10" stroke-linecap="round" stroke-linejoin="round"/>
<path d="M85.2014 160.172C85.2014 160.172 83.344 156.196 85.5244 151.901" stroke="#1B1C1E" stroke-width="1.2604" stroke-miterlimit="10" stroke-linecap="round" stroke-linejoin="round"/>
<path d="M91.3387 160.172C91.3387 160.172 90.5312 155.48 93.3576 152.537" stroke="#1B1C1E" stroke-width="1.2604" stroke-miterlimit="10" stroke-linecap="round" stroke-linejoin="round"/>
<path d="M32.7104 69.0339C32.7104 69.0339 40.7052 72.9307 44.9045 68.9544C46.2773 67.6819 46.5196 64.2623 43.8547 61.8765" stroke="#1B1C1E" stroke-width="1.2604" stroke-miterlimit="10" stroke-linecap="round" stroke-linejoin="round"/>
<path d="M32.3877 65.1371C32.3877 65.1371 32.1454 66.4096 32.7107 69.034C32.8722 69.7497 24.4737 72.6127 21.2435 68.9544C20.1129 67.682 19.6284 65.1371 22.051 62.2742" stroke="#1B1C1E" stroke-width="1.2604" stroke-miterlimit="10" stroke-linecap="round" stroke-linejoin="round"/>
<path d="M29.4802 70.5449C29.4802 70.5449 30.6108 71.1811 32.8719 71.3402C35.2946 71.4992 36.2637 70.6245 36.2637 70.6245" stroke="#1B1C1E" stroke-width="1.2604" stroke-miterlimit="10" stroke-linecap="round" stroke-linejoin="round"/>
<path d="M80.1946 138.859C80.1946 138.859 83.5055 138.779 85.5244 135.359" stroke="#1B1C1E" stroke-width="1.2604" stroke-miterlimit="10" stroke-linecap="round" stroke-linejoin="round"/>
<path d="M102.564 120.409C102.079 116.75 101.191 113.728 100.06 111.024C98.9299 108.48 97.6378 106.253 96.0227 104.185" stroke="#1B1C1E" stroke-width="1.2604" stroke-miterlimit="10" stroke-linecap="round" stroke-linejoin="round"/>
<mask id="mask2_37_1600" style="mask-type:luminance" maskUnits="userSpaceOnUse" x="80" y="133" width="9" height="17">
<path d="M80.1948 138.859C80.1948 138.859 81.8907 138.859 83.8288 137.348C85.7669 135.837 86.5745 133.451 86.5745 133.451C86.5745 133.451 89.4817 140.926 88.0281 144.585C86.6552 148.243 82.0522 149.356 82.0522 149.356L80.1948 138.859Z" fill="white"/>
</mask>
<g mask="url(#mask2_37_1600)">
<g opacity="0.62">
<path d="M81.5676 138.461C81.6484 138.54 81.6484 138.62 81.7291 138.699C81.7291 138.699 81.7291 138.62 81.5676 138.461Z" fill="#3E240C"/>
<path d="M84.0709 136.154L83.8286 135.995C83.9094 136.075 83.9901 136.075 84.0709 136.154Z" fill="#3E240C"/>
<path d="M82.7791 140.131C82.7791 140.21 82.8598 140.29 82.9405 140.449L82.7791 140.131Z" fill="#3E240C"/>
<path d="M83.9905 140.767C84.0712 140.767 84.0712 140.846 84.152 140.846C84.0712 140.767 83.9905 140.767 83.9905 140.767Z" fill="#3E240C"/>
<path d="M81.4868 138.381C81.5676 138.461 81.5676 138.461 81.5676 138.461L81.4868 138.381Z" fill="#3E240C"/>
<path d="M84.6363 134.962C84.6363 134.882 84.6363 134.882 84.5556 134.802C84.3941 134.882 84.4748 134.882 84.6363 134.962Z" fill="#3E240C"/>
<path d="M79.8717 139.733C80.437 140.449 79.791 139.813 80.2755 140.529C80.1948 140.37 80.1947 140.211 80.437 140.529C80.6793 141.006 80.2755 140.529 80.6793 141.165L80.5985 140.847C80.8408 141.085 81.1638 141.642 81.1638 141.562C80.5985 140.688 81.6483 141.722 81.6483 141.483V141.562L82.0521 141.881C82.0521 141.881 82.0521 141.881 82.0521 141.96C82.0521 141.881 81.9714 141.881 81.9714 141.801C82.3752 142.199 82.6982 142.358 82.6982 142.199C82.3752 141.722 82.9404 141.722 82.6174 141.324C82.6982 141.483 82.6174 141.483 82.4559 141.403L81.9714 140.847C82.0521 140.767 82.3751 141.324 82.2136 140.926C81.5676 140.211 82.0521 141.006 81.9714 141.006C81.8906 140.847 81.7291 140.608 81.7291 140.529C81.5676 140.608 81.2446 140.449 81.7291 141.244C81.5676 141.085 81.3253 140.767 81.3253 140.688C81.5676 141.244 80.9216 140.29 81.1638 140.767C80.6793 140.051 81.0831 140.211 80.8408 139.813C81.4061 140.29 81.1638 139.654 81.1638 139.415C81.5676 139.892 81.8906 140.37 82.2136 140.688C82.6174 140.926 82.1329 140.29 81.9714 139.972C82.2136 140.051 82.6982 140.767 82.9404 140.688L83.1019 141.085C83.8287 141.722 82.9404 140.767 83.1019 140.847C82.9404 140.688 82.7789 140.529 82.6982 140.608C82.4559 140.37 82.4559 140.211 82.4559 140.131C82.2136 139.813 81.8098 139.415 82.0521 139.495C82.3751 139.972 82.3751 139.733 82.6174 139.892L82.6982 139.972C82.6174 139.813 82.7789 139.733 82.6982 139.654L82.7789 139.733C82.6982 139.495 82.2136 139.018 82.3752 139.097C82.5367 139.256 83.0212 139.892 83.0212 139.733C83.3442 140.051 83.2635 140.131 83.1019 140.131C83.2635 140.131 83.8287 140.608 83.748 140.688C84.1518 141.006 83.6672 140.449 83.9095 140.529C83.748 140.449 83.6672 140.29 83.5865 140.211C84.071 140.688 83.8287 140.051 83.425 139.733L83.5865 140.131C83.1827 139.733 83.0212 139.415 82.6982 139.177C83.425 139.733 82.6174 138.7 83.1827 139.097L82.7789 138.859C83.1827 138.859 82.4559 138.063 82.4559 137.745C82.6174 137.984 83.425 138.62 83.0212 138.54C83.3442 138.461 83.8287 139.097 84.2325 139.336C84.6363 139.415 83.5865 138.699 83.3442 138.461L83.425 138.7C82.6174 137.904 83.9095 138.461 83.5057 137.904C83.748 138.063 83.5865 138.063 83.6672 138.143C84.2325 138.381 83.6672 137.984 83.5057 137.825C83.6672 137.825 83.9095 137.825 84.4748 138.302C84.717 138.302 84.071 138.063 83.9903 137.904L84.1518 137.984L83.5865 137.427C83.8287 137.507 84.2325 137.586 84.7978 137.904C84.7978 137.586 83.5057 136.95 83.3442 136.632C83.748 136.711 83.8287 136.95 83.9903 137.109V136.95C84.6363 137.427 84.2325 137.348 85.0401 137.825C84.3133 137.188 84.8785 137.507 84.4748 137.029H84.394C83.9095 136.632 84.394 136.711 84.3133 136.552C84.6363 136.791 84.6363 136.87 84.717 137.029C85.0401 137.109 84.9593 136.632 84.2325 136.155C84.394 136.155 84.717 136.155 85.0401 136.473C85.2823 136.314 83.9903 135.837 84.3133 135.757L84.8785 136.075C85.7668 136.234 84.3133 135.359 85.2016 135.518L84.4748 135.2C84.7978 135.28 84.9593 135.28 85.2823 135.359L85.4438 135.598C86.0899 135.757 84.9593 135.28 85.3631 135.359C85.1208 135.28 84.6363 135.121 84.394 135.041C84.6363 135.598 83.425 135.518 83.9095 136.234C83.9903 136.234 84.071 136.314 84.2325 136.393C84.071 136.314 84.1518 136.552 83.8287 136.314L83.748 136.234C83.8287 136.393 82.9404 135.996 82.9404 136.075C83.3442 136.393 82.6174 136.155 83.425 136.552L82.9404 136.314C83.1827 136.473 83.5865 136.711 83.748 136.87C83.6672 136.87 83.3442 136.711 83.1827 136.552C82.6982 136.632 82.6174 136.95 82.6982 137.348L82.3752 137.029C82.1329 136.95 82.8597 137.666 81.9714 136.95C82.2136 137.348 81.4868 137.029 82.3752 137.745C81.4868 137.109 81.8099 137.745 81.8099 137.984C82.5367 138.62 81.8906 138.302 82.2136 138.62C81.6483 138.143 81.7291 137.984 81.4061 137.666C82.1329 138.54 80.437 137.507 81.7291 138.859C81.6483 138.859 81.5676 138.779 81.5676 138.7C81.5676 138.7 81.2446 138.54 81.1638 138.54C81.4061 138.779 81.5676 138.859 81.5676 139.018C81.4868 139.018 81.1638 138.62 80.9215 138.461C81.1638 138.859 81.0831 139.177 81.5676 139.733C81.4061 139.574 81.0831 139.336 81.0023 139.177C81.2446 139.733 80.76 139.256 80.8408 139.654C80.9215 139.574 80.3563 139.018 80.6793 139.177C79.8717 138.381 80.5178 139.574 80.0332 139.256L80.437 139.813C80.437 139.972 80.0333 139.495 79.9525 139.256C79.5487 139.018 79.7102 139.415 79.6295 139.495C79.5487 139.415 79.468 139.336 79.5487 139.336L79.3872 139.415C79.468 139.574 79.6295 139.892 79.8717 140.211C79.7102 139.813 79.6295 139.574 79.8717 139.733Z" fill="#3E240C"/>
<path d="M83.5057 141.165C83.3442 141.085 83.2634 141.006 83.2634 141.006C83.3442 141.006 83.425 141.085 83.5057 141.165Z" fill="#3E240C"/>
<path d="M78.7412 142.278C79.2258 143.233 78.822 142.04 78.9835 142.278C78.9835 142.437 79.2257 142.994 79.3873 143.232C78.9027 141.96 79.6295 143.392 79.7103 143.073C79.9525 143.471 79.8718 143.551 80.0333 144.028C80.0333 143.63 80.114 143.392 79.791 142.755C79.9525 142.676 80.2756 142.755 80.2756 142.596C80.2756 142.914 80.5986 143.233 80.8408 143.869C80.5986 142.994 80.3563 141.96 79.9525 140.926C80.4371 141.642 80.5178 141.642 80.8408 142.358C81.4061 142.676 80.5178 141.642 80.8408 141.721L80.6793 141.642C80.5986 141.403 80.1948 140.688 79.8718 140.21L79.7103 140.449C79.3872 139.972 79.5488 139.972 79.5488 139.813C79.2258 139.177 79.145 139.495 78.9027 139.018C79.145 139.415 78.9835 139.336 79.0642 139.574L78.9027 139.336C78.6605 139.097 78.9835 139.813 78.9027 139.813C78.822 139.733 78.822 139.654 78.822 139.654C78.9835 139.972 79.145 140.37 79.145 140.449V140.37C79.468 141.006 79.468 141.562 80.0333 142.199L79.6295 142.119C79.3065 141.403 78.7412 140.29 78.822 140.131L78.6605 139.813C78.3374 139.495 78.7412 140.529 79.0642 141.085C79.8718 142.835 78.7412 141.324 78.9027 142.119C78.6605 141.642 78.6605 141.403 78.5797 141.085C78.5797 141.006 78.6604 141.006 78.822 141.403C78.9027 141.006 78.0144 139.972 78.3374 139.972C78.5797 140.131 78.5797 140.767 78.822 140.767L78.2567 139.415C78.1759 139.495 78.1759 139.733 78.1759 139.972C78.1759 140.529 77.9337 140.608 77.7722 140.608C77.6106 140.608 77.4491 140.449 77.4491 140.449C76.8031 140.847 76.1571 141.244 75.4303 141.562C75.2687 141.801 75.188 141.722 75.2687 143.153C75.3495 143.471 75.511 143.312 75.511 143.789C75.4303 143.233 75.511 142.994 75.6725 142.994C75.7533 143.471 75.5918 143.233 75.6725 143.392C75.6725 143.63 75.7533 143.869 75.6725 143.869C75.9955 144.584 76.3186 144.346 76.1571 143.392C76.3993 143.869 76.2378 144.187 76.2378 144.664C76.8839 144.903 77.2069 144.744 77.6914 144.664C77.3684 143.789 77.5299 144.107 77.4491 143.471L77.6106 143.789C77.5299 143.63 77.3684 142.994 77.2069 142.835C77.6914 143.392 77.1261 141.562 77.1261 141.165L77.2876 141.642C77.3684 141.483 77.4491 141.483 77.4491 141.244C78.0144 141.96 77.2876 141.483 77.8529 142.517V142.278C78.0144 142.676 78.2567 143.471 78.2567 143.789C78.1759 142.994 78.7412 143.948 78.7412 143.312C78.9027 143.789 78.822 144.266 78.822 144.346C78.9027 144.346 78.9835 143.948 79.145 144.425L78.9027 143.789C78.9835 143.63 79.145 144.346 79.3873 144.744C79.791 144.425 78.5797 142.755 78.7412 142.278Z" fill="#3E240C"/>
<path d="M82.0522 140.608C81.9714 140.608 81.9714 140.608 81.9714 140.688C81.9714 140.688 82.0522 140.688 82.0522 140.608Z" fill="#3E240C"/>
<path d="M82.2136 142.04C82.2944 142.119 82.2944 142.199 82.3751 142.278C82.3751 142.199 82.2944 142.119 82.2136 142.04Z" fill="#3E240C"/>
<path d="M82.779 142.835C82.6175 142.596 82.6175 142.596 82.3752 142.278C82.456 142.517 82.3752 142.596 82.779 142.835Z" fill="#3E240C"/>
<path d="M87.1396 133.53C86.8166 133.451 86.0898 133.371 86.7358 133.61C86.5743 133.451 87.4626 133.769 87.1396 133.53Z" fill="#3E240C"/>
<path d="M86.2512 134.166L86.7358 134.087C87.5433 134.325 86.978 134.246 87.301 134.484C87.5433 134.325 87.2203 134.325 86.8165 134.007C86.8973 133.928 86.4935 133.769 86.332 133.61C86.8165 134.087 84.8784 133.451 86.2512 134.166Z" fill="#3E240C"/>
<path d="M87.2205 134.007L86.8975 133.848L87.1397 134.087L87.2205 134.007Z" fill="#3E240C"/>
<path d="M85.2016 134.405C84.2325 134.166 85.6054 134.882 85.2016 134.803C85.1208 134.803 85.0401 134.723 84.9593 134.644V134.803L84.717 134.723C85.2823 134.962 85.4438 135.121 85.7668 135.359C86.4129 135.439 85.1208 135.041 85.7668 135.2C86.0091 135.359 86.3321 135.518 86.5744 135.598C86.3321 135.439 86.0091 135.28 85.7668 135.121C85.7668 135.041 86.0091 135.2 86.2514 135.28C86.0091 135.041 85.2016 134.723 85.4438 134.644C85.9284 134.723 86.1706 134.962 86.0091 134.723C85.1208 134.485 86.1706 134.644 85.6861 134.325C85.9284 134.246 86.4937 134.405 86.7359 134.485C86.0899 134.246 85.5246 133.928 85.3631 133.769L85.8476 134.166L85.0401 133.928C85.5246 134.325 85.4438 134.326 85.2016 134.405Z" fill="#3E240C"/>
<path d="M86.7361 135.598C86.8168 135.598 86.8168 135.677 86.8168 135.677C86.8976 135.757 86.8168 135.677 86.7361 135.598Z" fill="#3E240C"/>
<path d="M87.1396 134.644L87.2204 134.723L87.4627 134.803L87.1396 134.644Z" fill="#3E240C"/>
<path d="M87.2206 135.995C87.2206 135.995 86.9783 135.836 86.9783 135.916L87.3013 136.075L87.2206 135.995Z" fill="#3E240C"/>
<path d="M86.6552 135.916L86.1707 135.757L86.4937 135.916H86.6552Z" fill="#3E240C"/>
<path d="M84.7979 138.302C85.121 138.381 84.6364 138.063 84.3134 137.825C84.0711 137.825 84.6364 138.063 84.7979 138.302Z" fill="#3E240C"/>
<path d="M84.0712 140.21C84.3943 140.369 84.0712 139.892 84.152 139.892C83.9097 139.733 83.9905 139.972 84.0712 140.21Z" fill="#3E240C"/>
<path d="M84.8788 142.198C84.798 142.039 84.7173 141.96 84.6365 141.96L83.9905 141.165C83.6675 141.006 84.5558 141.88 84.8788 142.198Z" fill="#3E240C"/>
<path d="M84.1518 142.994L83.9903 142.596H83.9096C83.6673 142.278 83.5866 142.119 83.425 141.801C83.5058 142.119 83.6673 142.517 84.1518 142.994Z" fill="#3E240C"/>
<path d="M83.425 141.642V141.721C83.5058 141.801 83.5866 141.88 83.425 141.642Z" fill="#3E240C"/>
<path d="M83.3442 141.801C83.3442 141.801 83.3442 141.881 83.425 141.881C83.425 141.801 83.425 141.801 83.3442 141.801C83.3442 141.642 83.2635 141.642 83.3442 141.801Z" fill="#3E240C"/>
<path d="M83.7482 142.755L83.5867 142.994L83.8289 143.073C83.4251 142.596 84.1519 143.312 83.7482 142.755Z" fill="#3E240C"/>
<path d="M82.2136 143.232L81.8098 142.755C81.5676 142.755 82.1329 143.948 81.4868 143.232C81.7291 143.471 81.7291 143.869 82.0521 143.948C81.8098 143.391 81.9713 143.153 82.2136 143.232Z" fill="#3E240C"/>
<path d="M81.1638 142.835C81.083 142.676 81.0023 142.596 80.8408 142.437C80.76 142.437 80.8408 142.676 81.0023 142.914C80.5985 142.198 81.3253 143.312 81.1638 142.835Z" fill="#3E240C"/>
<path d="M80.437 143.312C80.437 143.312 80.5178 143.153 80.3563 143.073C80.2755 143.153 80.5985 143.789 80.76 144.187C81.083 144.425 80.6793 143.551 80.437 143.312Z" fill="#3E240C"/>
</g>
</g>
</svg>
