<svg width="220" height="193" viewBox="0 0 220 193" fill="none" xmlns="http://www.w3.org/2000/svg">
<path d="M1.69845 189.401C1.69845 189.401 -7.83065 191.469 18.2532 192.105C44.3371 192.741 181.863 193.06 195.995 192.105C210.127 191.151 237.665 191.708 201.083 189.401C164.501 187.095 126.95 188.447 90.1253 187.095C53.2202 185.743 7.18979 187.016 1.69845 189.401Z" fill="#1B1C1E"/>
<path d="M172.092 120.69C172.092 120.69 171.607 160.613 188.081 181.608C188.081 181.608 199.952 181.449 199.064 189.64C199.064 189.64 184.77 189.64 182.671 189.64C180.571 189.64 170.315 177.234 164.662 168.724C164.662 168.724 162.401 171.985 162.159 166.418C162.159 166.418 160.705 168.804 159.413 167.452C158.121 166.1 159.413 158.625 159.413 158.625C159.413 158.625 158.04 161.249 156.829 160.056C155.618 158.943 156.345 153.535 156.345 153.535C156.345 153.535 153.276 156.954 153.68 151.944C154.083 146.934 163.855 122.678 172.092 120.69Z" fill="#B37D4F"/>
<mask id="mask0_37_1822" style="mask-type:luminance" maskUnits="userSpaceOnUse" x="153" y="120" width="47" height="70">
<path d="M172.092 120.69C172.092 120.69 171.607 160.613 188.081 181.608C188.081 181.608 199.952 181.449 199.064 189.64C199.064 189.64 184.77 189.64 182.671 189.64C180.571 189.64 170.315 177.234 164.662 168.724C164.662 168.724 162.401 171.985 162.159 166.418C162.159 166.418 160.705 168.804 159.413 167.452C158.121 166.1 159.413 158.625 159.413 158.625C159.413 158.625 158.04 161.249 156.829 160.056C155.618 158.943 156.345 153.535 156.345 153.535C156.345 153.535 153.276 156.954 153.68 151.944C154.083 146.934 163.855 122.678 172.092 120.69Z" fill="white"/>
</mask>
<g mask="url(#mask0_37_1822)">
<g opacity="0.88">
<path d="M169.992 127.45C169.992 127.529 170.073 127.609 170.073 127.609C170.073 127.609 170.073 127.529 169.992 127.45Z" fill="#322015"/>
<path d="M173.384 123.712L173.223 123.553C173.303 123.632 173.303 123.712 173.384 123.712Z" fill="#322015"/>
<path d="M170.881 128.881C170.881 128.961 170.962 129.04 171.042 129.199L170.881 128.881Z" fill="#322015"/>
<path d="M166.52 134.528L166.682 134.766C166.601 134.607 166.52 134.528 166.52 134.528Z" fill="#322015"/>
<path d="M166.116 129.835C166.116 129.915 166.197 129.995 166.197 129.995C166.197 129.915 166.278 129.915 166.116 129.835Z" fill="#322015"/>
<path d="M169.912 127.291L169.992 127.37C169.912 127.37 169.912 127.37 169.912 127.291Z" fill="#322015"/>
<path d="M174.353 122.042C174.353 121.962 174.353 121.962 174.353 121.883C174.272 121.962 174.272 122.042 174.353 122.042Z" fill="#322015"/>
<path d="M167.57 129.676C168.135 130.154 167.489 129.836 167.974 130.313C167.974 130.154 167.893 129.995 168.216 130.233C168.458 130.551 168.054 130.313 168.458 130.79L168.377 130.551C168.62 130.71 168.862 131.187 168.943 131.028C168.458 130.313 169.508 130.949 169.508 130.79V130.869L169.912 131.028L169.831 130.949C170.154 131.187 170.477 131.267 170.558 131.108C170.235 130.71 170.881 130.551 170.638 130.233C170.638 130.392 170.638 130.392 170.477 130.392L170.073 129.995C170.235 129.915 170.477 130.392 170.315 129.995C169.75 129.438 170.154 130.154 169.992 130.154C169.912 129.995 169.831 129.836 169.831 129.756C169.669 129.915 169.266 129.836 169.75 130.551C169.589 130.472 169.346 130.233 169.346 130.154C169.508 130.631 168.943 129.915 169.104 130.313C168.62 129.756 169.104 129.836 168.862 129.438C169.427 129.676 169.266 129.12 169.346 128.881C169.75 129.279 169.912 129.676 170.235 129.836C170.638 129.915 170.235 129.438 170.073 129.199C170.315 129.199 170.719 129.836 170.962 129.597L171.123 129.915C171.769 130.313 171.042 129.597 171.204 129.597C171.042 129.517 170.881 129.358 170.8 129.438C170.558 129.279 170.558 129.12 170.558 129.04C170.315 128.722 170.073 128.484 170.315 128.484C170.558 128.881 170.638 128.643 170.8 128.722L170.881 128.802C170.881 128.643 170.962 128.563 170.962 128.484L171.042 128.563C170.962 128.404 170.558 128.006 170.719 127.927C170.881 128.086 171.204 128.643 171.285 128.404C171.527 128.643 171.446 128.802 171.285 128.802C171.446 128.802 171.931 129.12 171.85 129.279C172.173 129.517 171.85 129.04 172.011 129.12C171.931 129.04 171.85 128.961 171.688 128.881C172.092 129.279 171.931 128.643 171.608 128.404L171.769 128.722C171.446 128.404 171.285 128.086 171.042 127.927C171.608 128.324 171.042 127.37 171.608 127.688L171.285 127.529C171.688 127.45 171.204 126.654 171.285 126.336C171.365 126.575 172.011 127.052 171.688 127.052C172.011 126.893 172.334 127.45 172.738 127.609C173.142 127.609 172.254 127.052 172.092 126.813V127.052C171.527 126.336 172.657 126.654 172.415 126.098C172.657 126.257 172.496 126.257 172.496 126.336C172.98 126.495 172.496 126.177 172.415 126.018C172.577 125.939 172.9 125.939 173.303 126.336C173.546 126.257 172.98 126.177 172.9 125.939L173.061 126.018L172.657 125.462C172.9 125.462 173.223 125.462 173.788 125.78C173.869 125.462 172.819 124.905 172.738 124.587C173.061 124.666 173.061 124.825 173.303 124.984L173.384 124.746C173.869 125.143 173.546 125.143 174.111 125.541C173.626 124.984 174.111 125.223 173.788 124.746H173.707C173.303 124.348 173.788 124.348 173.788 124.189C174.03 124.428 173.949 124.587 173.949 124.746C174.272 124.746 174.272 124.269 173.788 123.791C173.949 123.791 174.272 123.712 174.434 124.03C174.757 123.791 173.707 123.394 174.03 123.235L174.434 123.553C175.242 123.632 174.192 122.678 174.919 122.758L174.353 122.44C174.595 122.519 174.757 122.44 174.999 122.599L175.08 122.837C175.565 122.996 174.757 122.44 175.161 122.519C174.999 122.44 174.595 122.36 174.353 122.201C174.353 122.917 173.303 122.996 173.465 123.871C173.546 123.871 173.626 123.951 173.707 124.03C173.546 124.03 173.626 124.189 173.303 124.03V123.951C173.303 124.189 172.577 123.871 172.577 123.951C172.9 124.269 172.254 124.11 172.9 124.507L172.496 124.348C172.738 124.507 172.98 124.746 173.061 124.825C172.98 124.905 172.738 124.746 172.577 124.507C172.092 124.746 171.85 125.143 171.769 125.621L171.608 125.302C171.446 125.302 171.85 125.939 171.204 125.382C171.365 125.78 170.638 125.7 171.365 126.257C170.558 125.859 170.719 126.416 170.638 126.734C171.285 127.211 170.638 127.052 170.881 127.37C170.396 127.052 170.558 126.813 170.235 126.495C170.719 127.291 169.185 126.654 170.235 127.768C170.154 127.768 170.154 127.688 170.073 127.688C169.992 127.768 169.75 127.609 169.669 127.609C169.831 127.847 169.992 127.768 169.992 128.006C169.912 128.086 169.589 127.688 169.427 127.609C169.508 128.006 169.427 128.324 169.831 128.802C169.669 128.722 169.346 128.563 169.346 128.404C169.427 128.961 169.023 128.563 169.023 129.04C169.104 128.961 168.62 128.563 168.943 128.563C168.216 128.086 168.7 129.04 168.135 128.881L168.458 129.358C168.377 129.517 168.054 129.199 167.974 128.961C167.57 128.881 167.651 129.279 167.489 129.438C167.408 129.358 167.328 129.279 167.408 129.279L167.166 129.438C167.247 129.597 167.328 129.836 167.57 130.074C167.408 129.756 167.328 129.597 167.57 129.676Z" fill="#322015"/>
<path d="M171.446 129.676C171.284 129.597 171.284 129.597 171.204 129.597C171.284 129.597 171.365 129.676 171.446 129.676Z" fill="#322015"/>
<path d="M165.874 132.699C166.439 133.335 165.954 132.46 166.197 132.539C166.197 132.699 166.52 133.096 166.681 133.255C166.116 132.301 167.004 133.335 167.085 132.937C167.327 133.176 167.247 133.335 167.489 133.653C167.489 133.335 167.57 133.017 167.247 132.539C167.489 132.38 167.812 132.38 167.812 132.221C167.812 132.539 168.216 132.699 168.377 133.255C168.054 132.539 167.893 131.585 167.57 130.79C168.054 131.267 168.135 131.347 168.458 131.824C169.023 131.903 168.135 131.267 168.539 131.188H168.377C168.377 130.949 167.973 130.472 167.65 130.074L167.408 130.392C167.085 130.074 167.327 129.915 167.327 129.836C167.004 129.358 166.924 129.677 166.681 129.358C166.924 129.677 166.681 129.677 166.762 129.836L166.601 129.677C166.278 129.597 166.681 130.154 166.52 130.233C166.439 130.154 166.439 130.154 166.439 130.154C166.601 130.392 166.762 130.71 166.762 130.79V130.71C167.085 131.267 167.004 131.744 167.57 132.062L167.166 132.142C166.762 131.585 166.197 130.79 166.358 130.631L166.197 130.392C165.874 130.233 166.197 131.028 166.601 131.426C167.489 132.778 166.197 131.824 166.358 132.539C166.116 132.221 166.116 131.983 165.954 131.744C165.954 131.665 166.035 131.585 166.277 131.903C166.439 131.506 165.389 130.869 165.793 130.79C166.116 130.869 166.035 131.506 166.277 131.347L165.712 130.313C165.631 130.472 165.631 130.71 165.551 130.869C165.47 131.426 165.228 131.665 164.985 131.744C164.743 131.824 164.501 131.744 164.501 131.744C163.613 132.539 162.724 133.255 161.755 133.891C161.513 134.21 161.351 134.21 161.755 135.323C161.917 135.482 162.078 135.323 162.24 135.721C162.078 135.323 162.078 135.005 162.32 135.005C162.563 135.402 162.24 135.243 162.32 135.323H162.401C162.482 135.561 162.482 135.641 162.482 135.721C162.967 136.198 163.37 135.88 163.047 135.084C163.451 135.402 163.29 135.721 163.37 136.039C164.097 135.959 164.501 135.721 165.147 135.402C164.743 134.766 164.985 135.005 164.743 134.528L164.905 134.766C164.824 134.687 164.582 134.21 164.42 134.13C165.066 134.369 164.259 133.017 164.259 132.619L164.501 132.937C164.662 132.778 164.662 132.699 164.743 132.46C165.47 132.858 164.582 132.699 165.228 133.414V133.255C165.389 133.573 165.712 134.13 165.793 134.448C165.712 133.732 166.358 134.369 166.358 133.732C166.601 134.13 166.52 134.607 166.439 134.687C166.601 134.687 166.601 134.289 166.843 134.607L166.52 134.13C166.681 133.971 166.762 134.528 167.085 134.766C167.085 134.289 165.712 133.255 165.874 132.699Z" fill="#322015"/>
<path d="M169.912 129.597C169.831 129.597 169.831 129.676 169.831 129.756C169.912 129.756 169.912 129.676 169.912 129.597Z" fill="#322015"/>
<path d="M169.912 131.108C169.992 131.187 169.992 131.187 170.073 131.267C170.073 131.187 169.992 131.108 169.912 131.108Z" fill="#322015"/>
<path d="M170.396 131.665C170.235 131.506 170.235 131.426 170.073 131.188C170.154 131.426 169.992 131.506 170.396 131.665Z" fill="#322015"/>
<path d="M176.211 120.928L176.695 120.769C177.341 121.008 176.776 121.008 177.018 121.246C177.26 121.087 177.018 121.008 176.776 120.69C176.857 120.61 176.614 120.372 176.453 120.213C176.695 120.769 175.241 120.054 176.211 120.928Z" fill="#322015"/>
<path d="M175.161 121.247C174.353 121.008 175.403 121.803 174.999 121.803C174.999 121.724 174.919 121.724 174.838 121.644V121.803L174.676 121.724C175.08 121.962 175.161 122.201 175.403 122.44C175.968 122.519 174.919 122.042 175.484 122.201C175.645 122.36 175.888 122.519 176.049 122.678C175.888 122.44 175.645 122.281 175.484 122.121C175.484 121.962 175.726 122.121 175.888 122.201C175.726 121.962 175.08 121.644 175.403 121.485C175.807 121.565 175.968 121.883 175.888 121.565C175.161 121.326 176.13 121.406 175.726 121.088C175.968 121.008 176.372 121.088 176.614 121.247C176.13 121.008 175.726 120.61 175.645 120.451L175.968 120.929L175.322 120.69C175.484 121.088 175.403 121.167 175.161 121.247Z" fill="#322015"/>
<path d="M176.049 122.678L176.13 122.758C176.21 122.837 176.13 122.758 176.049 122.678Z" fill="#322015"/>
<path d="M176.776 121.406L176.857 121.565L177.099 121.644L176.776 121.406Z" fill="#322015"/>
<path d="M176.453 123.076L176.291 122.917L176.533 123.155L176.453 123.076Z" fill="#322015"/>
<path d="M175.968 122.996L175.564 122.917L175.807 123.076L175.968 122.996Z" fill="#322015"/>
<path d="M173.384 126.177C173.626 126.177 173.303 125.939 172.98 125.7C172.818 125.859 173.303 126.018 173.384 126.177Z" fill="#322015"/>
<path d="M172.253 128.563C172.576 128.643 172.334 128.245 172.415 128.166C172.173 128.086 172.173 128.325 172.253 128.563Z" fill="#322015"/>
<path d="M172.657 130.392C172.577 130.233 172.577 130.154 172.415 130.233L171.931 129.597C171.608 129.517 172.415 130.154 172.657 130.392Z" fill="#322015"/>
<path d="M171.85 131.426L171.769 131.028L171.688 131.108C171.527 130.869 171.365 130.71 171.285 130.472C171.285 130.71 171.365 131.028 171.85 131.426Z" fill="#322015"/>
<path d="M171.285 130.233V130.313C171.365 130.392 171.446 130.472 171.285 130.233Z" fill="#322015"/>
<path d="M171.204 130.392C171.204 130.392 171.204 130.472 171.285 130.472C171.285 130.392 171.285 130.392 171.204 130.392C171.204 130.313 171.123 130.233 171.204 130.392Z" fill="#322015"/>
<path d="M171.446 131.267L171.285 131.585H171.527C171.123 131.188 171.769 131.665 171.446 131.267Z" fill="#322015"/>
<path d="M169.75 132.221L169.346 131.903C169.104 131.983 169.588 132.937 168.942 132.46C169.185 132.619 169.185 133.016 169.508 132.937C169.346 132.539 169.588 132.221 169.75 132.221Z" fill="#322015"/>
<path d="M168.619 132.221C168.539 132.062 168.458 132.062 168.296 131.983C168.216 131.983 168.296 132.221 168.458 132.38C168.135 131.824 168.862 132.619 168.619 132.221Z" fill="#322015"/>
<path d="M167.893 132.937C167.973 132.858 167.973 132.778 167.812 132.778C167.65 132.937 168.054 133.335 168.216 133.653C168.539 133.732 168.135 133.096 167.893 132.937Z" fill="#322015"/>
<path d="M164.42 130.949C164.663 131.267 164.743 131.108 164.743 131.028C164.743 131.108 164.582 131.028 164.42 130.949Z" fill="#322015"/>
<path d="M166.601 133.812L166.681 133.891L166.358 133.255L166.601 133.812Z" fill="#322015"/>
<path d="M165.793 134.766L165.954 135.164L166.035 135.005L165.793 134.766Z" fill="#322015"/>
<path d="M165.551 134.846L165.389 135.005L165.551 135.084C165.712 135.084 165.47 134.846 165.551 134.846Z" fill="#322015"/>
<path d="M165.147 135.243C165.147 135.164 165.228 135.243 165.228 135.323V135.005L165.147 135.243Z" fill="#322015"/>
<path d="M161.19 134.369C161.028 133.971 161.029 134.289 160.948 134.21C160.948 134.289 161.271 134.766 161.19 134.369Z" fill="#322015"/>
</g>
</g>
<path d="M195.673 189.64C195.673 189.64 195.834 186.618 193.654 185.425" stroke="#1B1C1E" stroke-width="1.2604" stroke-miterlimit="10" stroke-linecap="round" stroke-linejoin="round"/>
<path d="M76.7201 167.055C76.7201 167.055 72.6016 176.518 57.7427 171.826C42.8837 167.134 38.523 165.623 28.5093 167.691C18.4957 169.758 13.7312 178.586 11.0662 181.847C8.40133 185.187 6.70547 187.413 5.17113 188.368C3.63678 189.322 8.15907 189.322 10.0164 188.765C10.0164 188.765 7.75529 189.958 9.04737 190.595C10.3394 191.231 17.2844 189.958 17.2844 189.958C17.2844 189.958 15.8308 190.913 16.8806 191.39C17.9304 191.867 23.1795 190.038 39.6535 190.515C56.1276 190.992 70.825 187.573 79.8696 176.598C88.9949 165.464 80.1926 163.158 76.7201 167.055Z" fill="#B37D4F"/>
<path d="M82.373 165.702C80.3541 169.758 75.3473 178.108 67.1103 181.449C56.0468 185.823 45.3064 184.073 37.6346 180.335C29.9629 176.677 28.2671 177.313 27.4595 177.154C26.7327 176.916 28.8323 175.802 28.8323 175.802C28.8323 175.802 22.5334 176.518 24.1485 174.927C25.7636 173.337 23.8255 173.416 22.3719 173.655C18.5764 174.291 14.9425 176.916 14.7002 177.075C17.6074 173.337 21.9682 169.042 28.5901 167.69C38.6037 165.623 42.8837 167.134 57.8234 171.826C72.7631 176.518 76.8009 167.054 76.8009 167.054C78.2545 165.384 80.7579 164.827 82.373 165.702Z" fill="#343434"/>
<path d="M194.057 24.065C194.057 24.065 196.076 25.0194 200.195 24.065C204.313 23.1107 207.14 22.1564 208.109 23.7469C208.109 23.7469 199.387 29.6319 194.138 31.302C188.808 32.9721 186.628 32.6539 186.709 31.302C186.709 29.95 190.827 23.5879 194.057 24.065Z" fill="#BC6464"/>
<path d="M162.078 9.43213C162.078 9.43213 167.408 6.80774 173.868 6.88727C180.329 6.96679 183.478 9.43213 183.478 9.43213C183.478 9.43213 202.052 2.67234 204.232 2.03613C206.493 1.39991 207.624 8.87544 205.686 13.488C203.748 18.1006 198.418 21.5997 194.945 23.5084C191.554 25.3375 188.485 28.5186 188.808 30.2682C189.131 32.0178 206.978 23.9855 207.705 23.6674C208.431 23.3493 208.997 27.9619 203.667 31.0634C198.337 34.2445 191.957 37.6642 190.665 39.0957C189.373 40.5271 187.516 44.424 187.354 44.9806C187.274 45.4578 189.939 52.1381 187.92 52.4562C186.385 52.6948 186.062 51.8995 186.062 51.8995C186.062 51.8995 186.628 55.6372 186.062 55.7963C185.497 55.9554 184.366 54.9215 184.366 54.9215C184.366 54.9215 184.124 62.0789 184.932 65.5781C185.739 69.0773 184.851 69.2363 183.317 68.5206C183.317 68.5206 185.982 78.7796 186.628 90.9472C187.274 103.115 186.708 104.069 185.336 103.751C185.336 103.751 185.174 110.988 183.397 112.34C182.428 113.056 181.782 112.34 181.782 112.34C181.782 112.34 181.298 120.611 179.117 121.883C177.583 122.758 177.018 119.895 177.018 119.895C177.018 119.895 171.123 129.518 161.836 133.096C152.549 136.596 147.784 152.262 147.784 152.262C147.784 152.262 140.516 159.499 139.467 160.533C138.417 161.567 136.721 168.009 134.702 164.828C134.702 164.828 133.087 171.985 130.745 169.44C130.745 169.44 127.434 175.007 127.353 179.461C127.353 179.461 135.51 179.222 140.193 180.097C144.877 180.972 149.965 184.789 149.077 189.72C149.077 189.72 96.1819 189.72 91.8212 189.72C87.4604 189.72 75.9932 175.643 72.5207 154.728C69.3712 135.721 77.2852 114.408 92.6287 99.6951C107.972 84.9827 128.807 67.1686 133.168 63.1128C137.529 58.9774 140.516 51.5814 141.889 46.8893C143.262 42.1972 150.611 21.2816 150.611 21.2816C150.611 21.2816 143.666 3.46761 142.697 1.79755C142.212 0.445594 152.549 -4.00791 162.078 9.43213Z" fill="#B37D4F"/>
<mask id="mask1_37_1822" style="mask-type:luminance" maskUnits="userSpaceOnUse" x="71" y="0" width="138" height="190">
<path d="M162.078 9.43213C162.078 9.43213 167.408 6.80774 173.868 6.88727C180.329 6.96679 183.478 9.43213 183.478 9.43213C183.478 9.43213 202.052 2.67234 204.232 2.03613C206.493 1.39991 207.624 8.87544 205.686 13.488C203.748 18.1006 198.418 21.5997 194.945 23.5084C191.554 25.3375 188.485 28.5186 188.808 30.2682C189.131 32.0178 206.978 23.9855 207.705 23.6674C208.431 23.3493 208.997 27.9619 203.667 31.0634C198.337 34.2445 191.957 37.6642 190.665 39.0957C189.373 40.5271 187.516 44.424 187.354 44.9806C187.274 45.4578 189.939 52.1381 187.92 52.4562C186.385 52.6948 186.062 51.8995 186.062 51.8995C186.062 51.8995 186.628 55.6372 186.062 55.7963C185.497 55.9554 184.366 54.9215 184.366 54.9215C184.366 54.9215 184.124 62.0789 184.932 65.5781C185.739 69.0773 184.851 69.2363 183.317 68.5206C183.317 68.5206 185.982 78.7796 186.628 90.9472C187.274 103.115 186.708 104.069 185.336 103.751C185.336 103.751 185.174 110.988 183.397 112.34C182.428 113.056 181.782 112.34 181.782 112.34C181.782 112.34 181.298 120.611 179.117 121.883C177.583 122.758 177.018 119.895 177.018 119.895C177.018 119.895 171.123 129.518 161.836 133.096C152.549 136.596 147.784 152.262 147.784 152.262C147.784 152.262 140.516 159.499 139.467 160.533C138.417 161.567 136.721 168.009 134.702 164.828C134.702 164.828 133.087 171.985 130.745 169.44C130.745 169.44 127.434 175.007 127.353 179.461C127.353 179.461 135.51 179.222 140.193 180.097C144.877 180.972 149.965 184.789 149.077 189.72C149.077 189.72 96.1819 189.72 91.8212 189.72C87.4604 189.72 75.9932 175.643 72.5207 154.728C69.3712 135.721 77.2852 114.408 92.6287 99.6951C107.972 84.9827 128.807 67.1686 133.168 63.1128C137.529 58.9774 140.516 51.5814 141.889 46.8893C143.262 42.1972 150.611 21.2816 150.611 21.2816C150.611 21.2816 143.666 3.46761 142.697 1.79755C142.212 0.445594 152.549 -4.00791 162.078 9.43213Z" fill="white"/>
</mask>
<g mask="url(#mask1_37_1822)">
<g opacity="0.88">
<path d="M145.281 154.648C145.201 154.648 145.12 154.569 145.039 154.569C145.039 154.648 145.12 154.648 145.281 154.648Z" fill="#322015"/>
<path d="M144.15 160.613L144.393 160.692C144.312 160.613 144.231 160.613 144.15 160.613Z" fill="#322015"/>
<path d="M143.424 154.012C143.343 153.932 143.262 153.853 143.101 153.853L143.424 154.012Z" fill="#322015"/>
<path d="M146.331 149.24H146.411C146.411 149.32 146.411 149.24 146.331 149.24Z" fill="#322015"/>
<path d="M145.927 148.843V148.763H145.846C145.766 148.763 145.846 148.763 145.927 148.843Z" fill="#322015"/>
<path d="M146.734 149.399C146.654 149.399 146.573 149.32 146.492 149.32C146.573 149.32 146.573 149.399 146.734 149.399Z" fill="#322015"/>
<path d="M143.908 162.919C143.908 162.998 143.908 163.078 143.989 163.078C144.07 162.919 144.07 162.919 143.908 162.919Z" fill="#322015"/>
<path d="M145.685 150.751C144.797 150.751 145.685 150.513 144.878 150.513C145.039 150.672 145.201 150.751 144.716 150.751C144.232 150.592 144.797 150.513 144.07 150.433L144.312 150.592C143.989 150.672 143.424 150.513 143.424 150.592C144.393 150.831 143.02 151.069 143.182 151.229L143.101 151.149L142.616 151.388C142.616 151.388 142.616 151.388 142.536 151.388C142.616 151.388 142.616 151.388 142.697 151.388C142.213 151.467 141.89 151.626 141.97 151.785C142.536 151.865 142.132 152.421 142.536 152.58C142.374 152.501 142.374 152.421 142.536 152.342L143.182 152.421C143.182 152.58 142.536 152.421 142.939 152.58C143.828 152.58 142.939 152.342 143.101 152.183C143.343 152.262 143.505 152.342 143.586 152.421C143.666 152.183 143.989 151.944 143.101 151.706C143.262 151.626 143.666 151.706 143.747 151.785C143.262 151.547 144.312 151.706 143.828 151.467C144.635 151.547 144.232 151.865 144.716 152.103C144.07 152.342 144.635 152.66 144.716 152.978C144.07 152.978 143.586 152.74 143.182 152.819C142.778 153.058 143.505 153.137 143.828 153.296C143.585 153.455 142.778 153.217 142.697 153.535L142.293 153.296C141.405 153.376 142.616 153.455 142.455 153.614C142.697 153.614 142.939 153.614 142.859 153.455C143.182 153.455 143.262 153.614 143.343 153.614C143.747 153.694 144.232 153.773 143.989 153.932C143.505 153.773 143.585 154.091 143.343 154.091L143.262 154.012C143.424 154.171 143.343 154.33 143.424 154.41H143.262C143.505 154.569 144.07 154.648 143.989 154.728C143.747 154.728 143.02 154.489 143.182 154.648C142.778 154.569 142.778 154.41 142.939 154.251C142.778 154.41 142.132 154.41 142.132 154.251C141.647 154.251 142.293 154.41 142.132 154.489C142.293 154.489 142.455 154.489 142.616 154.569C141.97 154.489 142.536 154.966 143.02 154.966L142.697 154.728C143.262 154.728 143.585 155.046 143.909 154.966C143.02 154.966 144.312 155.523 143.586 155.523H143.989C143.666 155.841 144.635 156.239 144.797 156.716C144.555 156.557 143.586 156.477 143.989 156.239C143.747 156.557 143.101 156.239 142.616 156.318C142.213 156.557 143.424 156.557 143.747 156.636L143.586 156.398C144.635 156.716 143.262 157.113 143.909 157.591C143.666 157.591 143.747 157.511 143.666 157.432C143.101 157.591 143.747 157.591 143.989 157.75C143.909 157.909 143.585 158.147 142.939 157.909C142.778 158.068 143.343 157.909 143.586 158.068H143.424L144.151 158.386C143.909 158.545 143.505 158.704 142.859 158.704C142.939 159.102 144.393 159.022 144.555 159.34C144.151 159.499 144.07 159.261 143.828 159.181L143.909 159.42C143.182 159.261 143.585 159.102 142.697 159.022C143.585 159.34 142.939 159.34 143.505 159.658H143.586C144.151 159.817 143.747 160.136 143.828 160.295C143.505 160.215 143.424 159.976 143.343 159.817C143.02 159.976 143.262 160.454 143.989 160.772C143.828 160.851 143.505 161.09 143.182 160.851C143.02 161.249 144.312 161.169 143.989 161.408L143.424 161.328C142.536 161.567 144.07 162.124 143.262 162.362L143.989 162.442C143.666 162.442 143.505 162.601 143.262 162.601L143.02 162.362C142.374 162.442 143.585 162.601 143.101 162.76C143.343 162.76 143.828 162.68 144.07 162.76C143.747 161.965 144.878 161.328 144.232 160.533C144.151 160.533 144.07 160.613 143.909 160.533C144.07 160.454 143.909 160.295 144.312 160.374H144.393C144.232 160.136 145.12 160.056 145.12 159.976C144.635 159.817 145.362 159.579 144.555 159.579L145.12 159.499C144.797 159.42 144.393 159.42 144.232 159.34C144.312 159.181 144.635 159.261 144.878 159.34C145.281 158.863 145.201 158.227 145.039 157.67L145.443 157.829C145.685 157.75 144.797 157.273 145.766 157.511C145.362 157.193 146.089 156.795 145.039 156.716C146.089 156.636 145.524 156.159 145.443 155.762C144.555 155.762 145.201 155.443 144.797 155.284C145.524 155.284 145.443 155.682 145.927 155.682C144.878 155.205 146.816 154.728 145.039 154.41C145.12 154.41 145.201 154.41 145.281 154.41C145.281 154.33 145.604 154.251 145.685 154.171C145.362 154.091 145.201 154.251 145.12 154.091C145.201 153.932 145.685 154.091 145.927 154.012C145.524 153.694 145.443 153.296 144.716 153.217C144.878 153.137 145.362 153.137 145.443 153.217C144.878 152.74 145.604 152.819 145.281 152.421C145.281 152.58 146.008 152.58 145.685 152.74C146.735 152.66 145.524 152.103 146.089 151.785L145.443 151.626C145.362 151.388 145.927 151.467 146.17 151.626C146.573 151.308 146.17 151.069 146.25 150.831C146.331 150.831 146.493 150.831 146.412 150.91L146.493 150.513C146.331 150.433 146.008 150.274 145.604 150.274C145.685 150.513 145.927 150.592 145.685 150.751Z" fill="#322015"/>
<path d="M142.293 153.614C142.454 153.614 142.535 153.535 142.535 153.535C142.454 153.614 142.374 153.614 142.293 153.614Z" fill="#322015"/>
<path d="M144.312 146.775C143.343 146.775 144.474 147.014 144.151 147.173C143.989 147.014 143.424 147.014 143.182 147.014C144.474 147.252 142.939 147.252 143.182 147.57C142.778 147.57 142.697 147.411 142.212 147.332C142.535 147.57 142.697 147.809 143.424 147.889C143.424 148.207 143.182 148.445 143.262 148.684C143.02 148.445 142.536 148.604 141.97 148.366C142.778 148.684 143.747 149.24 144.716 149.638C143.908 149.638 143.828 149.638 143.182 149.559C142.616 149.956 143.908 149.718 143.666 150.115L143.828 149.956C144.07 150.115 144.797 150.195 145.281 150.274L145.2 149.797C145.766 149.797 145.604 150.115 145.766 150.195C146.412 150.354 146.25 149.956 146.735 150.036C146.331 149.956 146.492 149.797 146.25 149.638H146.573C146.896 149.479 146.169 149.32 146.169 149.081C146.25 149.081 146.331 149.081 146.331 149.081C146.008 149.002 145.604 148.922 145.523 148.763V148.843C144.877 148.684 144.393 148.207 143.666 148.445L143.908 147.968C144.635 148.048 145.766 148.207 145.846 148.445L146.169 148.525C146.573 148.366 145.604 147.968 144.958 148.048C143.182 147.729 144.958 147.332 144.151 147.014C144.635 147.014 144.797 147.173 145.2 147.332C145.281 147.411 145.281 147.491 144.877 147.491C145.12 147.968 146.412 147.491 146.25 147.968C146.008 148.207 145.443 147.65 145.362 147.968L146.735 148.286C146.735 148.048 146.492 147.889 146.331 147.65C145.443 146.616 146.25 145.98 146.25 145.98C146.169 144.548 146.008 143.117 145.927 141.685C145.766 141.208 145.766 141.049 144.474 140.89C144.231 140.97 144.312 141.288 143.828 141.129C144.312 141.208 144.635 141.367 144.554 141.606C144.07 141.606 144.312 141.367 144.231 141.447V141.526C143.989 141.526 143.828 141.447 143.828 141.367C143.101 141.606 143.262 142.083 144.151 142.322C143.666 142.56 143.424 142.163 143.02 142.083C142.616 142.799 142.697 143.355 142.616 144.071C143.505 144.071 143.182 144.151 143.747 144.31L143.424 144.389C143.585 144.389 144.151 144.469 144.393 144.31C143.666 144.707 145.523 144.866 145.927 145.185H145.443C145.523 145.423 145.523 145.503 145.766 145.741C144.877 146.139 145.604 145.423 144.554 145.423L144.716 145.503C144.312 145.423 143.505 145.344 143.262 145.185C143.989 145.582 142.939 145.741 143.505 146.139C143.02 146.059 142.616 145.662 142.535 145.582C142.455 145.741 142.859 145.98 142.374 145.98L143.02 146.059C143.101 146.298 142.455 145.98 142.051 146.059C142.051 146.696 143.989 146.298 144.312 146.775Z" fill="#322015"/>
<path d="M143.666 152.66C143.747 152.581 143.666 152.501 143.666 152.501C143.585 152.501 143.585 152.581 143.666 152.66Z" fill="#322015"/>
<path d="M141.647 151.229C141.97 151.229 141.97 151.308 142.293 151.388C142.132 151.308 142.132 151.07 141.647 151.229Z" fill="#322015"/>
<path d="M139.709 169.52C139.87 169.599 140.032 169.758 140.194 169.758L140.032 169.52H139.709Z" fill="#322015"/>
<path d="M140.436 169.202L140.678 169.043L139.871 168.725C139.871 168.963 140.517 168.963 140.436 169.202Z" fill="#322015"/>
<path d="M141.001 168.645L141.162 168.725C141.162 168.725 141.082 168.645 141.001 168.645Z" fill="#322015"/>
<path d="M140.678 168.565L140.113 168.406L140.517 168.724L140.678 168.645C140.92 168.645 141.001 168.645 141.082 168.645L140.678 168.486C140.678 168.486 140.759 168.565 140.678 168.565Z" fill="#322015"/>
<path d="M141.889 168.009C141.647 168.009 141.324 167.85 141.082 167.77C140.839 167.929 141.728 168.088 141.405 168.247C141.001 167.85 141.001 168.327 140.678 168.327C141.243 168.406 141.647 168.327 141.889 168.168L141.485 168.088C141.485 167.929 141.728 168.088 141.889 168.009Z" fill="#322015"/>
<path d="M141.162 166.736L141.728 166.975C141.485 166.975 141.405 167.213 140.839 167.134C140.92 167.213 141.162 167.293 141.324 167.373C141.001 167.373 140.759 167.452 141.162 167.611C141.647 167.293 141.728 167.373 141.97 167.054C142.131 167.054 142.051 167.134 142.051 167.134L142.374 166.975C141.647 166.895 141.647 166.577 141.162 166.736Z" fill="#322015"/>
<path d="M141.647 166.418C141.647 166.577 142.212 166.816 142.535 166.736L142.132 166.259C142.212 166.418 142.212 166.577 141.647 166.418Z" fill="#322015"/>
<path d="M141.728 166.18C142.051 166.18 142.697 166.1 142.132 165.941C142.212 166.1 141.324 165.941 141.728 166.18Z" fill="#322015"/>
<path d="M142.454 164.907L142.051 165.225C141.243 165.225 141.808 164.987 141.485 164.828C141.243 165.146 141.566 165.066 141.97 165.384C141.889 165.464 142.293 165.623 142.454 165.782C141.97 165.225 143.827 165.464 142.454 164.907Z" fill="#322015"/>
<path d="M141.566 165.543L141.889 165.623L141.647 165.384L141.566 165.543Z" fill="#322015"/>
<path d="M143.424 164.191C144.393 164.112 142.939 163.714 143.424 163.476C143.504 163.476 143.585 163.476 143.666 163.555L143.585 163.317H143.827C143.262 163.237 143.1 162.998 142.697 162.839C142.131 162.998 143.343 162.998 142.697 163.157C142.454 163.078 142.131 162.998 141.889 162.919C142.131 163.078 142.454 163.157 142.777 163.237C142.858 163.396 142.535 163.317 142.293 163.317C142.616 163.476 143.343 163.635 143.181 163.873C142.697 163.953 142.454 163.714 142.616 163.953C143.504 163.953 142.454 164.191 142.939 164.35C142.777 164.509 142.212 164.589 141.889 164.509C142.535 164.589 143.1 164.828 143.262 164.987L142.777 164.589H143.585C143.181 164.43 143.262 164.271 143.424 164.191Z" fill="#322015"/>
<path d="M141.808 162.998C141.728 162.998 141.728 162.919 141.647 162.919C141.647 162.919 141.728 162.919 141.808 162.998Z" fill="#322015"/>
<path d="M141.647 164.589L141.485 164.51H141.243L141.647 164.589Z" fill="#322015"/>
<path d="M141.324 162.76C141.324 162.84 141.566 162.84 141.566 162.84L141.243 162.76H141.324Z" fill="#322015"/>
<path d="M141.809 162.601L142.293 162.521L141.97 162.442L141.809 162.601Z" fill="#322015"/>
<path d="M142.777 158.147C142.454 158.227 143.02 158.307 143.423 158.386C143.585 158.147 142.939 158.307 142.777 158.147Z" fill="#322015"/>
<path d="M142.374 155.205C141.97 155.364 142.535 155.523 142.455 155.682C142.778 155.523 142.616 155.364 142.374 155.205Z" fill="#322015"/>
<path d="M140.678 153.853C140.839 153.932 140.92 153.932 141.001 153.853L141.97 154.091C142.293 153.932 141.082 153.853 140.678 153.853Z" fill="#322015"/>
<path d="M140.597 152.501L140.92 152.74V152.66C141.324 152.74 141.485 152.819 141.808 152.899C141.647 152.66 141.324 152.501 140.597 152.501Z" fill="#322015"/>
<path d="M142.051 153.058C142.051 153.058 142.051 152.978 141.97 152.978C141.889 152.978 141.728 152.978 142.051 153.058Z" fill="#322015"/>
<path d="M141.97 152.899C141.889 152.899 141.889 152.899 141.889 152.899C141.97 152.978 141.97 152.978 141.97 153.058C142.051 152.978 142.131 152.978 141.97 152.899Z" fill="#322015"/>
<path d="M141.082 152.342L141.001 151.944L140.839 152.103C141.405 152.183 140.436 152.262 141.082 152.342Z" fill="#322015"/>
<path d="M141.728 150.354H142.293C142.455 150.115 141.243 149.718 142.132 149.638C141.809 149.718 141.486 149.399 141.324 149.718C141.89 149.797 141.89 150.195 141.728 150.354Z" fill="#322015"/>
<path d="M142.616 149.479C142.777 149.558 142.939 149.479 143.1 149.479C143.181 149.399 142.939 149.32 142.697 149.32C143.423 149.399 142.212 149.399 142.616 149.479Z" fill="#322015"/>
<path d="M142.616 148.366C142.616 148.445 142.697 148.525 142.858 148.445C142.858 148.206 142.212 148.286 141.809 148.127C141.486 148.286 142.374 148.445 142.616 148.366Z" fill="#322015"/>
<path d="M146.977 146.855C146.492 146.855 146.573 147.014 146.734 147.093C146.654 147.014 146.815 146.934 146.977 146.855Z" fill="#322015"/>
<path d="M142.859 146.616L142.778 146.695L143.505 146.775L142.859 146.616Z" fill="#322015"/>
<path d="M142.535 145.344L142.051 145.185L142.132 145.423L142.535 145.344Z" fill="#322015"/>
<path d="M142.616 145.105V144.866L142.454 144.946C142.293 145.026 142.616 145.026 142.616 145.105Z" fill="#322015"/>
<path d="M142.616 144.469C142.697 144.469 142.616 144.548 142.535 144.548L142.858 144.787L142.616 144.469Z" fill="#322015"/>
<path d="M145.765 141.049C146.25 141.129 145.927 140.89 146.088 140.811C145.927 140.811 145.281 140.97 145.765 141.049Z" fill="#322015"/>
</g>
</g>
<path d="M203.748 31.0635C198.499 34.2446 192.038 37.6642 190.746 39.0957C189.454 40.4476 187.597 44.424 187.435 44.9012C182.348 32.9721 179.521 27.3257 179.844 21.5202C180.167 16.351 182.025 14.4424 184.932 12.0565C187.355 9.98885 186.547 8.79595 186.305 8.39831C191.635 6.48967 202.456 2.59285 204.152 2.03616C206.413 1.39995 207.463 8.87547 205.605 13.488C203.748 18.1006 198.337 21.5998 194.865 23.5084C191.473 25.3375 188.404 28.5186 188.727 30.2682C189.131 32.0178 206.897 23.9856 207.624 23.6675C208.512 23.3494 209.078 27.8824 203.748 31.0635Z" fill="#343434"/>
<path d="M159.01 20.8842C157.637 25.4967 151.581 31.7794 153.115 50.3091C154.73 68.9184 154.891 70.5885 152.469 69.8727C152.469 69.8727 149.804 84.8238 146.654 81.8813C146.654 81.8813 145.201 87.2891 137.448 93.3332C129.777 99.2977 112.414 113.294 113.06 122.997C108.78 122.122 103.531 122.52 97.3131 124.667C97.3131 124.667 91.9025 125.542 85.9266 133.097C82.9387 136.914 83.3425 143.117 81.8889 140.97C81.8889 140.97 80.3545 140.254 78.3357 152.183C77.5281 157.114 76.8821 154.887 76.8821 154.887C76.8821 154.887 74.7824 161.249 76.9628 169.918C75.1054 165.385 73.6519 160.295 72.6828 154.648C69.5333 135.641 77.4474 114.328 92.7908 99.6158C108.134 84.9033 128.969 67.0893 133.33 63.0334C137.691 58.898 140.679 51.502 142.051 46.8099C143.424 42.1179 150.773 21.2023 150.773 21.2023C150.773 21.2023 143.828 3.38826 142.859 1.63867C142.778 1.55914 142.859 1.47961 142.859 1.32056C143.667 1.87724 147.139 4.42211 152.469 8.39845C158.687 13.011 160.383 16.2716 159.01 20.8842Z" fill="#343434"/>
<path d="M132.764 189.64C133.652 184.709 128.565 180.892 123.881 180.017C119.197 179.142 111.041 179.381 111.041 179.381H104.338" stroke="#1B1C1E" stroke-width="1.2604" stroke-miterlimit="10" stroke-linecap="round" stroke-linejoin="round"/>
<path d="M97.3125 124.746C128.807 114.089 135.106 147.252 123.558 165.384C117.905 174.291 112.414 177.95 109.264 179.381" stroke="#1B1C1E" stroke-width="1.2604" stroke-miterlimit="10" stroke-linecap="round" stroke-linejoin="round"/>
<path d="M164.017 120.69C164.017 120.69 164.017 123.235 164.178 127.45C164.259 128.802 164.34 130.233 164.501 131.903C165.551 145.264 169.023 167.691 180.006 181.687C180.006 181.687 191.877 181.528 190.989 189.72C190.989 189.72 176.695 189.72 174.596 189.72C172.496 189.72 162.24 177.313 156.587 168.804C156.587 168.804 154.326 172.065 154.084 166.498C154.084 166.498 152.63 168.883 151.338 167.532C150.046 166.18 151.338 158.704 151.338 158.704C151.338 158.704 149.965 161.328 148.754 160.136C147.543 159.022 148.269 153.614 148.269 153.614C148.269 153.614 145.201 157.034 145.604 152.024C145.685 150.99 140.84 143.117 141.647 140.651C144.716 131.665 157.475 122.281 164.017 120.69Z" fill="#B37D4F"/>
<path d="M164.501 131.904C165.551 145.264 169.023 167.691 180.006 181.687C180.006 181.687 191.877 181.528 190.989 189.72" stroke="#1B1C1E" stroke-width="1.2604" stroke-miterlimit="10" stroke-linecap="round" stroke-linejoin="round"/>
<path d="M164.017 120.69C164.017 120.69 164.017 123.235 164.178 127.45C164.259 128.802 164.34 130.233 164.501 131.903" stroke="#1B1C1E" stroke-width="1.2604" stroke-miterlimit="10" stroke-linecap="round" stroke-linejoin="round"/>
<path d="M187.516 189.64C187.516 189.64 187.677 186.618 185.497 185.425" stroke="#1B1C1E" stroke-width="1.2604" stroke-miterlimit="10" stroke-linecap="round" stroke-linejoin="round"/>
<path d="M145.523 189.64C145.523 189.64 145.524 186.538 142.778 184.868" stroke="#1B1C1E" stroke-width="1.2604" stroke-miterlimit="10" stroke-linecap="round" stroke-linejoin="round"/>
<path d="M140.436 189.64C140.436 189.64 140.113 186.777 137.771 185.584" stroke="#1B1C1E" stroke-width="1.2604" stroke-miterlimit="10" stroke-linecap="round" stroke-linejoin="round"/>
<path d="M128.242 189.64C128.242 189.64 128.242 186.538 125.497 184.868" stroke="#1B1C1E" stroke-width="1.2604" stroke-miterlimit="10" stroke-linecap="round" stroke-linejoin="round"/>
<path d="M123.074 189.64C123.074 189.64 122.751 186.777 120.409 185.584" stroke="#1B1C1E" stroke-width="1.2604" stroke-miterlimit="10" stroke-linecap="round" stroke-linejoin="round"/>
<path d="M164.42 36.3916C164.42 36.3916 164.097 44.5033 165.632 45.6962C167.166 46.8891 168.377 43.7876 168.539 44.1057C168.62 44.4238 170.396 47.6844 171.688 47.6844C172.819 47.6844 172.657 46.0144 172.657 46.0144C173.061 46.3325 175.645 48.4002 177.099 46.6506" stroke="#1B1C1E" stroke-width="1.2604" stroke-miterlimit="10" stroke-linecap="round" stroke-linejoin="round"/>
<path d="M201.083 2.75174C200.76 2.91079 200.518 3.30843 200.599 3.62654C200.679 4.50133 201.164 6.09187 202.618 7.12572C204.717 8.63673 206.898 7.12572 207.059 6.56903C207.221 6.01235 206.736 1.55884 204.959 1.55884C203.667 1.63836 201.972 2.35411 201.083 2.75174Z" fill="#1B1C1E" stroke="#1B1C1E" stroke-width="1.1485" stroke-miterlimit="10" stroke-linecap="round" stroke-linejoin="round"/>
<path d="M174.757 13.3288C174.757 13.3288 178.956 10.7044 179.925 10.2272C180.652 9.82961 181.702 12.6926 180.329 13.965C179.118 14.9989 177.26 14.1241 176.533 13.1697C176.533 13.1697 175.484 13.3288 174.757 13.3288Z" fill="#1B1C1E" stroke="#1B1C1E" stroke-width="1.1485" stroke-miterlimit="10" stroke-linecap="round" stroke-linejoin="round"/>
</svg>
