<svg width="226" height="181" viewBox="0 0 226 181" fill="none" xmlns="http://www.w3.org/2000/svg">
<path d="M225.204 176.072C227.142 175.038 32.6837 173.209 21.3779 176.072C13.2217 178.14 42.7781 180.208 77.5835 180.128C114.569 180.128 157.531 177.901 169.564 179.094C193.063 181.321 218.663 179.571 225.204 176.072Z" fill="#1B1C1E"/>
<path d="M92.2001 103.066C92.2001 103.066 90.585 161.36 90.585 163.348C90.585 165.336 86.7895 177.265 86.7895 177.265H77.8257C77.8257 177.265 83.317 137.342 80.9751 129.469C78.6332 121.517 77.3412 100.999 80.8136 100.521C84.2861 100.124 89.8582 95.5908 92.2001 103.066Z" fill="#FFF0DD"/>
<mask id="mask0_37_2643" style="mask-type:luminance" maskUnits="userSpaceOnUse" x="77" y="98" width="16" height="80">
<path d="M92.2001 103.066C92.2001 103.066 90.585 161.36 90.585 163.348C90.585 165.336 86.7895 177.265 86.7895 177.265H77.8257C77.8257 177.265 83.317 137.342 80.9751 129.469C78.6332 121.517 77.3412 100.999 80.8136 100.521C84.2861 100.124 89.8582 95.5908 92.2001 103.066Z" fill="white"/>
</mask>
<g mask="url(#mask0_37_2643)">
<g opacity="0.88">
<path d="M84.1243 112.61C84.205 112.689 84.2858 112.769 84.3665 112.848C84.3665 112.848 84.3665 112.769 84.1243 112.61Z" fill="#322015"/>
<path d="M92.3613 107.202V106.804C92.1998 106.963 92.2806 107.122 92.3613 107.202Z" fill="#322015"/>
<path d="M86.1433 114.519C86.2241 114.598 86.3048 114.757 86.4663 114.916L86.1433 114.519Z" fill="#322015"/>
<path d="M88.0007 114.598C88.0815 114.598 88.1622 114.678 88.1622 114.678C88.0815 114.598 88.0007 114.598 88.0007 114.598Z" fill="#322015"/>
<path d="M80.9747 120.801C80.894 120.801 80.894 120.801 80.8132 120.722C80.8132 120.722 80.894 120.801 80.9747 120.801Z" fill="#322015"/>
<path d="M81.5405 121.437C81.5405 121.517 81.5405 121.517 81.5405 121.596H81.6213C81.7828 121.596 81.6213 121.517 81.5405 121.437Z" fill="#322015"/>
<path d="M82.1055 121.199V121.358C82.1862 121.278 82.1055 121.278 82.1055 121.199Z" fill="#322015"/>
<path d="M80.4902 120.562C80.571 120.642 80.7325 120.642 80.8133 120.722C80.7325 120.642 80.6517 120.562 80.4902 120.562Z" fill="#322015"/>
<path d="M84.0435 112.53C84.1242 112.61 84.1242 112.61 84.205 112.61C84.1242 112.53 84.0435 112.53 84.0435 112.53Z" fill="#322015"/>
<path d="M85.9011 114.996C85.9011 114.916 85.8204 114.916 85.9011 114.996Z" fill="#322015"/>
<path d="M82.1055 118.495C83.3168 118.574 82.1055 118.813 83.236 118.972C82.9938 118.813 82.8323 118.654 83.4783 118.654C84.1243 118.892 83.3975 118.972 84.3666 119.21L84.0436 118.892C84.5281 118.813 85.3357 119.131 85.2549 118.972C83.9628 118.574 85.8202 118.415 85.7394 118.177L85.8202 118.256L86.547 118.097H86.6277C86.547 118.097 86.4662 118.097 86.3855 118.017C87.1123 118.017 87.5968 117.938 87.5161 117.62C87.1123 117.461 87.1123 117.302 87.1123 117.063C87.1123 116.904 87.193 116.666 86.87 116.506C87.0315 116.666 87.0315 116.745 86.7893 116.825L85.901 116.586C85.9817 116.347 86.7085 116.825 86.3047 116.427C85.0934 116.109 86.1432 116.745 85.9817 116.904C85.7394 116.745 85.4972 116.586 85.4164 116.506C85.2549 116.825 84.7704 117.143 85.9817 117.62C85.6587 117.62 85.1742 117.461 85.0934 117.381C85.7394 117.779 84.3666 117.381 84.9319 117.779C83.8013 117.461 84.4474 117.063 83.8821 116.666C84.8511 116.506 84.1243 115.87 84.1243 115.393C84.9319 115.632 85.5779 116.109 86.0625 116.109C86.7085 115.95 85.7394 115.632 85.3357 115.234C85.7394 115.075 86.7085 115.711 86.87 115.393L87.2738 115.791C88.4851 116.029 86.87 115.393 87.193 115.393C86.87 115.314 86.547 115.234 86.547 115.393C86.1432 115.234 85.9817 115.075 85.9817 114.916H85.901C85.4164 114.598 84.7704 114.359 85.1741 114.2C85.7394 114.677 85.7394 114.2 86.0625 114.28L86.1432 114.439C85.9817 114.2 86.224 114.041 86.1432 113.882L86.3047 113.962C86.1432 113.723 85.3357 113.246 85.6587 113.087C85.9817 113.325 86.7085 113.962 86.7085 113.723C87.193 114.041 87.0315 114.2 86.7893 114.359C87.0315 114.28 87.8391 114.598 87.8391 114.836C88.4851 115.075 87.6776 114.518 88.0006 114.598C87.8391 114.518 87.5968 114.359 87.4353 114.28C88.2428 114.757 87.7583 113.962 87.193 113.564L87.5161 114.041C86.87 113.723 86.6277 113.166 86.224 113.007C87.2738 113.564 86.1432 112.053 87.0315 112.53L86.4662 112.292C87.1123 112.053 86.3047 110.86 86.6277 110.144C86.7085 110.542 87.6776 111.417 87.1123 111.417C87.6776 111.178 88.1621 112.132 88.7274 112.451C89.2927 112.53 88.0006 111.496 87.7583 111.099V111.496C87.3545 110.86 87.5968 110.701 87.9198 110.621C88.2428 110.542 88.6466 110.542 88.5659 109.985C88.8081 110.303 88.6466 110.224 88.6466 110.383C89.2927 110.86 88.7274 110.144 88.7274 109.747C89.0504 109.667 89.4542 109.826 89.8579 110.621C90.181 110.701 89.5349 110.144 89.4542 109.826L89.6157 109.985C89.5349 109.667 89.3734 109.27 89.2927 108.951C89.6964 109.11 90.181 109.349 90.7463 110.065C91.15 109.667 89.9387 108.077 90.2617 107.599C90.6655 107.918 90.504 108.236 90.6655 108.633L90.9885 108.395C91.3115 109.429 90.827 109.031 91.3115 110.144C91.0693 108.872 91.5538 109.667 91.6346 108.792L91.5538 108.713C91.4731 107.918 92.0383 108.236 92.2806 107.997C92.3614 108.474 92.1191 108.633 91.9576 108.872C92.3614 109.11 92.8459 108.633 92.8459 107.52C93.0881 107.599 93.4919 107.997 93.4112 108.474C93.9765 108.554 93.3304 106.963 93.8957 107.122L94.0572 107.918C94.784 108.951 94.9455 106.725 95.5916 107.679L95.5108 106.725C95.6723 107.122 95.9146 107.281 95.9953 107.679L95.7531 108.077C96.0761 108.872 95.9146 107.281 96.2376 107.838C96.2376 107.52 95.9146 106.884 95.9146 106.566C95.43 106.884 94.784 106.804 94.2187 106.725C93.6534 106.645 93.0074 106.725 92.6036 107.361C92.6844 107.44 92.7651 107.599 92.7651 107.759C92.6036 107.599 92.4421 107.838 92.2806 107.361V107.281C92.0383 107.599 91.3923 106.486 91.2308 106.566C91.3115 107.281 90.504 106.566 91.0693 107.599L90.5847 106.963C90.6655 107.361 90.9078 107.918 90.9078 108.156C90.6655 108.156 90.504 107.759 90.504 107.361C89.5349 107.281 88.5659 107.918 88.0813 108.792L87.9198 108.236C87.5968 108.156 87.8391 109.508 87.1123 108.315C87.1123 108.713 86.7892 108.792 86.547 108.951C86.3855 109.11 86.3047 109.349 86.7893 109.906C86.224 109.508 85.9009 109.588 85.6587 109.826C85.4164 110.065 85.4164 110.542 85.3357 110.86C86.3855 111.576 85.3357 111.496 85.6587 111.894C84.7704 111.417 85.1742 110.94 84.6896 110.542C85.0934 111.258 84.6089 111.417 84.2859 111.735C83.9628 111.973 83.7206 112.292 84.7704 113.007C84.6089 113.007 84.5281 113.007 84.4474 112.928C84.3666 113.007 83.9628 113.007 83.8013 113.007C84.1243 113.246 84.4474 113.087 84.4474 113.405C84.2858 113.564 83.7206 113.166 83.3975 113.087C83.7206 113.723 83.6398 114.439 84.6089 114.836C84.2858 114.836 83.7206 114.757 83.6398 114.598C84.2051 115.473 83.3168 115.155 83.559 115.95C83.559 115.711 82.59 115.552 83.0745 115.314C82.3477 115.234 82.3477 115.473 82.3477 115.791C82.4285 116.109 82.59 116.506 82.1862 116.666L82.9938 117.063C83.0745 117.381 82.1862 117.222 81.9439 116.984C81.2979 117.381 81.7824 117.858 81.7017 118.256C81.6209 118.256 81.3787 118.256 81.4594 118.177L81.3787 118.733C81.6209 118.813 82.0247 119.131 82.59 119.131C81.9439 118.972 81.7017 118.813 82.1055 118.495Z" fill="#322015"/>
<path d="M87.4353 115.473C87.193 115.394 87.1122 115.394 87.0315 115.394C87.193 115.473 87.3545 115.473 87.4353 115.473Z" fill="#322015"/>
<path d="M83.882 124.3C85.2548 124.221 83.6397 123.982 84.0435 123.744C84.2857 123.982 85.0933 123.903 85.4971 123.823C83.7204 123.584 85.8201 123.505 85.4971 123.028C86.0623 123.028 86.1431 123.266 86.7891 123.266C86.3046 123.028 86.0623 122.63 85.0933 122.551C85.0933 122.073 85.4163 121.755 85.3355 121.517C85.7393 121.835 86.3046 121.596 87.1929 121.914C86.0623 121.596 84.6895 120.801 83.3167 120.085C84.4472 120.085 84.528 120.085 85.4971 120.244C86.3046 119.767 84.528 120.006 84.9318 119.529L84.6895 119.767C84.3665 119.449 83.3974 119.37 82.6706 119.131L82.7514 119.847C82.0246 119.767 82.1861 119.37 82.0246 119.211C81.1363 118.892 81.2978 119.529 80.6518 119.37C81.217 119.529 80.9748 119.767 81.217 120.006H80.8133C80.4095 120.324 81.3785 120.562 81.2978 120.881C81.217 120.881 81.1363 120.881 81.0555 120.881C81.5401 121.04 82.0246 121.119 82.1861 121.358V121.199C83.1552 121.517 83.7204 122.073 84.7703 121.755C84.6895 121.994 84.528 122.153 84.4472 122.392C83.3974 122.312 81.7823 122.153 81.7016 121.755L81.2978 121.676C80.6517 121.994 82.1053 122.551 82.9936 122.392C85.4971 122.71 83.0744 123.425 84.1242 123.823C83.3974 123.903 83.1552 123.584 82.6706 123.505C82.5899 123.346 82.5899 123.266 83.1552 123.266C82.7514 122.63 80.9748 123.425 81.217 122.71C81.5401 122.392 82.3476 123.187 82.4284 122.63L80.4902 122.233C80.571 122.551 80.894 122.869 81.0555 123.107C81.7016 123.823 81.7016 124.459 81.6208 124.857C81.5401 125.255 81.2978 125.573 81.2978 125.573L81.5401 127.163C81.6208 127.64 81.7823 128.197 81.8631 128.674L82.1861 130.185L82.5899 131.696C82.9936 132.253 82.9129 132.491 84.851 132.412C85.174 132.253 85.0125 131.855 85.6586 131.855C84.9318 131.935 84.528 131.776 84.528 131.378C85.174 131.219 84.9318 131.617 85.0933 131.537V131.458C85.4163 131.458 85.6586 131.458 85.7393 131.537C86.7084 130.98 86.3854 130.424 85.0125 130.344C85.6586 129.947 86.1431 130.344 86.7084 130.424C87.0314 129.31 86.8699 128.674 86.7891 127.64C85.5778 127.72 85.9816 127.64 85.174 127.561L85.5778 127.402C85.3355 127.481 84.528 127.402 84.2857 127.64C85.174 126.925 82.5899 127.084 82.0246 126.686H82.6706C82.5091 126.368 82.5091 126.209 82.1861 125.97C83.3167 125.334 82.4284 126.447 83.9627 126.209L83.7204 126.05C84.2857 126.129 85.4163 126.129 85.8201 126.288C84.7703 125.811 86.1431 125.493 85.3355 125.016C86.0623 125.016 86.6276 125.493 86.7084 125.652C86.7891 125.493 86.2239 125.175 86.8699 125.095H85.9816C85.8201 124.777 86.7891 125.095 87.3544 124.936C87.1122 124.141 84.4472 124.936 83.882 124.3Z" fill="#322015"/>
<path d="M85.2551 116.188C85.1744 116.268 85.1744 116.348 85.2551 116.427C85.2551 116.427 85.3359 116.348 85.2551 116.188Z" fill="#322015"/>
<path d="M86.5469 118.097C86.6276 118.097 86.7891 118.177 86.8699 118.177C86.7084 118.177 86.6276 118.097 86.5469 118.097Z" fill="#322015"/>
<path d="M87.6779 118.495C87.2741 118.415 87.2741 118.336 86.7896 118.177C87.0318 118.336 87.0318 118.574 87.6779 118.495Z" fill="#322015"/>
<path d="M90.0193 110.622C90.4231 110.86 89.9386 110.224 89.6963 109.747C89.3733 109.747 90.1001 110.304 90.0193 110.622Z" fill="#322015"/>
<path d="M88.0814 113.723C88.5659 113.802 88.0814 113.325 88.2429 113.166C87.8391 113.087 87.8391 113.405 88.0814 113.723Z" fill="#322015"/>
<path d="M89.6964 116.109C89.5349 115.95 89.3734 115.871 89.2927 115.871C88.8889 115.632 88.5659 115.393 88.1621 115.155C87.5968 115.234 89.1311 115.871 89.6964 116.109Z" fill="#322015"/>
<path d="M89.3734 117.382L88.9696 116.984L88.8889 117.064C88.4043 116.825 88.1621 116.745 87.7583 116.507C87.9198 116.825 88.4043 117.143 89.3734 117.382Z" fill="#322015"/>
<path d="M87.5969 116.268C87.5969 116.268 87.5969 116.348 87.6777 116.348C87.7584 116.427 88.0007 116.427 87.5969 116.268Z" fill="#322015"/>
<path d="M87.5968 116.506C87.6776 116.506 87.6776 116.586 87.7583 116.586C87.6776 116.506 87.6776 116.427 87.6776 116.427C87.5161 116.347 87.4353 116.347 87.5968 116.506Z" fill="#322015"/>
<path d="M88.6467 117.381C88.6467 117.54 88.6467 117.699 88.6467 117.859L88.9697 117.779C88.1622 117.461 89.4543 117.699 88.6467 117.381Z" fill="#322015"/>
<path d="M87.4354 119.528L86.6278 119.449C86.3856 119.767 88.0814 120.324 86.7894 120.324C87.2739 120.244 87.6777 120.642 87.9199 120.324C87.2739 120.164 87.2739 119.767 87.4354 119.528Z" fill="#322015"/>
<path d="M86.1432 120.563C85.9009 120.483 85.7394 120.563 85.4972 120.563C85.4164 120.642 85.7394 120.801 86.0625 120.801C85.0934 120.642 86.7892 120.722 86.1432 120.563Z" fill="#322015"/>
<path d="M86.1433 122.073C86.1433 121.994 86.0626 121.835 85.8203 121.994C85.8203 122.312 86.7894 122.232 87.3547 122.391C87.8392 122.153 86.5471 121.914 86.1433 122.073Z" fill="#322015"/>
<path d="M80.1675 124.539C80.8943 124.459 80.7328 124.221 80.4905 124.141C80.652 124.221 80.4905 124.38 80.1675 124.539Z" fill="#322015"/>
<path d="M85.9818 124.38L86.1433 124.3L85.0127 124.221L85.9818 124.38Z" fill="#322015"/>
<path d="M86.6279 126.05L87.3547 126.209L87.1932 125.891L86.6279 126.05Z" fill="#322015"/>
<path d="M86.4661 126.368L86.5468 126.686L86.7891 126.527C87.0313 126.368 86.4661 126.527 86.4661 126.368Z" fill="#322015"/>
<path d="M86.7088 127.243C86.628 127.243 86.7088 127.163 86.8703 127.163L86.3857 126.925L86.7088 127.243Z" fill="#322015"/>
<path d="M83.0745 132.571C82.3477 132.65 82.8322 132.809 82.7514 132.968C82.9129 132.968 83.8012 132.65 83.0745 132.571Z" fill="#322015"/>
</g>
</g>
<path d="M131.851 101.715C131.851 101.715 145.418 115.87 177.477 134.082L196.616 167.563C196.616 167.563 191.125 170.585 190.237 177.265H202.835C202.835 177.265 203.077 158.02 201.139 154.282C199.281 150.544 182.969 125.016 182.969 125.016C182.969 125.016 150.425 99.8855 149.052 98.3744C147.679 96.8634 127.167 94.9548 131.851 101.715Z" fill="#FFF0DD"/>
<mask id="mask1_37_2643" style="mask-type:luminance" maskUnits="userSpaceOnUse" x="131" y="96" width="72" height="82">
<path d="M131.851 101.715C131.851 101.715 145.418 115.87 177.477 134.082L196.616 167.563C196.616 167.563 191.125 170.585 190.237 177.265H202.835C202.835 177.265 203.077 158.02 201.139 154.282C199.281 150.544 182.969 125.016 182.969 125.016C182.969 125.016 150.425 99.8855 149.052 98.3744C147.679 96.8634 127.167 94.9548 131.851 101.715Z" fill="white"/>
</mask>
<g mask="url(#mask1_37_2643)">
<g opacity="0.88">
<path d="M147.921 102.669C147.921 102.748 147.921 102.828 147.921 102.908C147.84 102.908 147.84 102.828 147.921 102.669Z" fill="#322015"/>
<path d="M139.119 100.68L139.038 100.362C139.2 100.521 139.2 100.601 139.119 100.68Z" fill="#322015"/>
<path d="M146.225 105.532C146.225 105.611 146.145 105.611 146.145 105.611C146.225 105.532 146.225 105.532 146.225 105.532Z" fill="#322015"/>
<path d="M154.866 107.043C154.866 107.043 154.866 106.963 154.947 106.963L154.866 107.043Z" fill="#322015"/>
<path d="M154.947 107.838C155.028 107.838 155.028 107.918 155.028 107.918L154.947 107.997C154.866 108.077 154.947 107.918 154.947 107.838Z" fill="#322015"/>
<path d="M154.462 107.917L154.543 107.997C154.462 107.997 154.462 107.997 154.462 107.917Z" fill="#322015"/>
<path d="M154.381 113.167L154.139 113.405C154.22 113.246 154.301 113.167 154.381 113.167Z" fill="#322015"/>
<path d="M155.027 106.725C155.027 106.804 154.947 106.884 154.947 106.963C154.947 106.884 154.866 106.804 155.027 106.725Z" fill="#322015"/>
<path d="M147.921 102.589C147.921 102.669 147.921 102.669 147.84 102.748C147.921 102.669 147.921 102.589 147.921 102.589Z" fill="#322015"/>
<path d="M148.083 105.055C148.083 104.975 148.002 104.975 148.083 105.055Z" fill="#322015"/>
<path d="M135.808 100.522C135.727 100.522 135.646 100.442 135.565 100.442C135.727 100.363 135.808 100.442 135.808 100.522Z" fill="#322015"/>
<path d="M152.766 106.009C152.12 106.645 153.009 106.248 152.362 106.884C152.362 106.645 152.362 106.407 152.039 106.725C151.797 107.202 152.282 106.884 151.878 107.52V107.122C151.474 107.281 151.232 107.838 151.232 107.759C151.797 106.884 150.424 107.599 150.424 107.361V107.52L149.859 107.679C149.859 107.679 149.859 107.679 149.859 107.759C149.859 107.679 149.94 107.679 149.94 107.6C149.536 107.918 149.132 108.077 148.971 107.759C149.294 107.202 148.405 107.122 148.648 106.645C148.648 106.804 148.728 106.884 148.89 106.884L149.294 106.327C149.052 106.168 148.89 106.804 148.971 106.327C149.617 105.611 149.294 106.566 149.455 106.566C149.536 106.327 149.617 106.168 149.536 106.009C149.859 106.168 150.344 106.168 149.94 107.043C150.182 106.963 150.344 106.645 150.344 106.486C150.182 107.122 150.828 106.168 150.667 106.725C151.151 106.009 150.505 106.009 150.667 105.452C149.94 105.77 150.021 104.975 149.698 104.657C149.294 105.214 149.213 105.77 148.809 106.009C148.244 106.168 148.728 105.532 148.728 105.055C148.405 105.134 148.082 105.929 147.759 105.77V106.248C147.033 106.884 147.759 105.85 147.517 105.85C147.679 105.691 147.84 105.452 148.002 105.611C148.244 105.373 148.163 105.134 148.082 105.055H148.163C148.325 104.657 148.567 104.18 148.244 104.259C148.082 104.816 147.84 104.498 147.679 104.657V104.816C147.598 104.577 147.356 104.498 147.356 104.418L147.275 104.577C147.275 104.339 147.517 103.703 147.275 103.703C147.194 103.941 147.033 104.737 146.871 104.498C146.71 104.896 146.871 105.055 147.194 104.975C146.952 104.975 146.548 105.532 146.71 105.691C146.387 106.088 146.629 105.373 146.387 105.532C146.467 105.373 146.548 105.214 146.629 105.055C146.306 105.691 146.144 104.896 146.387 104.418V104.896C146.71 104.418 146.548 103.941 146.79 103.703C146.306 104.418 146.387 102.987 145.902 103.623L146.144 103.226C145.579 103.226 145.498 102.112 145.095 101.715C145.175 102.033 144.852 102.987 145.256 102.748C144.691 102.748 144.771 103.623 144.448 103.941C143.964 104.1 144.61 102.987 144.61 102.669L144.771 102.907C144.852 101.715 143.722 102.828 143.399 101.953C143.237 102.192 143.479 102.112 143.479 102.271C143.076 102.748 143.318 102.112 143.237 101.794C142.914 101.794 142.591 102.033 142.591 102.748C142.268 102.828 142.753 102.351 142.672 102.112L142.591 102.271L142.51 101.396C142.187 101.555 141.864 101.874 141.622 102.51C141.138 102.271 141.784 100.919 141.38 100.601C141.057 100.919 141.299 101.158 141.299 101.396L140.976 101.237C140.976 102.033 141.299 101.715 141.138 102.589C140.976 101.635 140.814 102.271 140.491 101.555V101.476C140.411 100.84 139.926 101.237 139.684 101.078C139.765 101.476 140.007 101.555 140.168 101.715C139.845 102.033 139.199 101.635 139.038 100.76C138.876 100.919 138.473 101.237 138.715 101.555C138.15 101.635 138.553 100.363 138.069 100.601V101.237C137.504 102.112 137.019 100.442 136.534 101.237L136.454 100.442C136.373 100.76 136.131 100.919 136.131 101.237L136.373 101.476C136.211 102.112 136.131 100.84 135.888 101.317C135.888 101.078 136.05 100.601 136.05 100.283C136.615 100.522 137.1 100.283 137.665 100.203C138.23 100.124 138.796 100.044 139.28 100.442C139.199 100.522 139.199 100.601 139.199 100.76C139.361 100.601 139.522 100.84 139.522 100.363V100.283C139.765 100.522 140.168 99.5673 140.33 99.6468C140.411 100.204 140.976 99.4878 140.734 100.363L140.976 99.8059C140.976 100.124 140.895 100.601 140.976 100.76C141.218 100.76 141.218 100.363 141.138 100.124C141.541 100.044 142.026 100.044 142.43 100.124C142.833 100.283 143.237 100.442 143.56 100.681L143.479 100.203C143.722 100.044 143.964 101.078 144.125 100.044C144.368 100.601 145.256 100.124 144.933 101.158C145.579 100.204 145.983 101.078 146.467 101.396C145.983 102.192 146.79 101.794 146.71 102.271C147.113 101.635 146.629 101.396 146.79 100.919C146.79 101.555 147.275 101.555 147.598 101.555C148.002 101.635 148.244 101.794 147.921 102.669C148.002 102.669 148.082 102.589 148.082 102.51C148.163 102.589 148.486 102.351 148.567 102.351C148.486 102.669 148.163 102.669 148.325 102.907C148.567 102.907 148.728 102.43 148.89 102.271C149.052 102.828 149.455 103.305 149.051 104.021C149.294 103.941 149.617 103.623 149.617 103.464C149.778 104.259 150.182 103.703 150.424 104.339C150.263 104.18 150.828 103.623 150.344 103.703C151.151 102.987 150.99 104.418 151.716 104.259L151.474 104.896C151.636 105.134 152.039 104.657 152.039 104.339C152.685 104.339 152.685 104.816 152.928 105.134C153.009 105.055 153.089 104.975 153.009 104.975C153.17 105.055 153.332 105.214 153.412 105.373C153.332 105.532 153.251 105.929 152.928 106.248C153.089 106.248 153.17 106.009 152.766 106.009Z" fill="#322015"/>
<path d="M147.275 106.009C147.436 105.93 147.517 105.85 147.517 105.85C147.436 105.93 147.356 106.009 147.275 106.009Z" fill="#322015"/>
<path d="M155.431 111.099C154.624 111.735 155.35 110.78 154.947 110.78C154.947 111.019 154.462 111.417 154.22 111.576C155.108 110.462 153.816 111.496 153.654 110.939C153.331 111.258 153.412 111.417 153.089 111.814C153.17 111.417 153.008 110.939 153.574 110.462C153.251 110.144 152.847 110.065 152.766 109.747C152.766 110.224 152.282 110.303 151.959 110.939C152.362 110.144 152.605 108.872 153.008 107.758C152.362 108.315 152.282 108.315 151.797 108.951C150.99 108.951 152.201 108.315 151.636 108.076L151.878 108.156C151.878 107.838 152.362 107.202 152.685 106.804L153.089 107.361C153.493 106.963 153.089 106.725 153.17 106.565C153.493 105.929 153.735 106.486 154.058 106.009C153.816 106.406 154.139 106.486 154.058 106.725L154.3 106.565C154.785 106.565 154.3 107.202 154.543 107.44C154.624 107.361 154.704 107.361 154.704 107.281C154.543 107.599 154.3 107.917 154.3 108.156L154.22 108.076C153.816 108.713 153.897 109.428 153.089 109.747L153.654 110.065C154.22 109.508 155.027 108.554 154.785 108.236L155.027 107.997C155.593 107.917 155.108 109.031 154.462 109.349C153.17 110.86 155.108 110.144 154.785 111.019C155.189 110.701 155.189 110.383 155.431 110.065C155.35 109.906 155.35 109.826 154.947 110.144C154.785 109.508 156.319 109.11 155.673 108.713C155.27 108.633 155.35 109.588 154.947 109.269L155.754 107.997C155.916 108.236 155.996 108.633 155.996 108.951C156.239 110.621 157.45 110.86 157.45 110.86C158.661 112.45 159.711 114.041 160.922 115.313C161.165 115.791 161.326 115.87 160.68 117.143C160.438 117.302 160.196 116.984 159.953 117.461C160.196 116.984 160.276 116.665 159.953 116.506C159.55 116.904 160.034 116.904 159.873 116.904H159.792C159.63 117.143 159.55 117.302 159.63 117.381C158.823 117.779 158.338 117.143 158.904 116.188C158.338 116.347 158.5 116.904 158.338 117.302C157.208 116.824 156.804 116.188 156.077 115.472C156.804 114.836 156.481 114.995 156.804 114.518L156.481 114.677C156.642 114.598 157.046 114.121 157.288 114.121C156.319 114.121 157.773 112.769 157.773 112.212L157.45 112.53C157.288 112.212 157.208 112.132 157.208 111.735C156.158 111.894 157.369 112.212 156.4 112.848L156.481 112.61C156.158 112.928 155.673 113.564 155.512 113.882C155.754 113.007 154.785 113.484 154.866 112.689C154.462 113.087 154.543 113.723 154.543 113.882C154.381 113.802 154.462 113.246 154.058 113.564L154.543 113.087C154.381 112.769 154.058 113.484 153.654 113.723C153.574 112.61 155.593 111.814 155.431 111.099Z" fill="#322015"/>
<path d="M149.294 105.771C149.375 105.771 149.455 105.85 149.455 105.93C149.375 105.85 149.294 105.85 149.294 105.771Z" fill="#322015"/>
<path d="M149.213 108.475C149.455 108.236 149.374 108.236 149.536 107.838C149.536 108.077 149.697 108.236 149.213 108.475Z" fill="#322015"/>
<path d="M131.043 102.987C131.043 102.669 131.124 101.954 131.447 102.51C131.124 102.51 131.447 103.385 131.043 102.987Z" fill="#322015"/>
<path d="M132.82 102.112L132.335 102.589C132.335 103.385 132.658 102.828 132.82 103.146C132.416 103.385 132.497 103.066 132.093 102.669C132.012 102.748 131.689 102.351 131.528 102.192C132.335 102.589 132.093 100.681 132.82 102.112Z" fill="#322015"/>
<path d="M131.931 103.067L131.851 102.749L132.093 102.908L131.931 103.067Z" fill="#322015"/>
<path d="M133.95 100.999C134.193 100.044 134.596 101.476 134.919 101.078C134.839 100.999 134.919 100.919 134.839 100.84L135.162 100.919V100.681C135.162 101.237 135.485 101.476 135.646 101.873C135.404 102.51 135.485 101.158 135.242 101.873C135.323 102.112 135.404 102.51 135.485 102.748C135.323 102.51 135.242 102.112 135.081 101.794C134.839 101.714 135 102.033 135 102.271C134.758 101.953 134.677 101.158 134.354 101.317C134.193 101.873 134.596 102.112 134.193 101.953C134.273 100.999 133.789 102.112 133.627 101.555C133.385 101.794 133.224 102.351 133.385 102.669C133.304 101.953 132.981 101.396 132.739 101.237L133.304 101.794L133.385 100.919C133.547 101.317 133.708 101.237 133.95 100.999Z" fill="#322015"/>
<path d="M135.485 102.749C135.485 102.828 135.565 102.828 135.565 102.908C135.565 102.908 135.485 102.828 135.485 102.749Z" fill="#322015"/>
<path d="M133.224 102.987L133.385 103.146L133.304 103.385L133.224 102.987Z" fill="#322015"/>
<path d="M135.727 103.305C135.646 103.305 135.646 103.067 135.727 103.067L135.808 103.465L135.727 103.305Z" fill="#322015"/>
<path d="M135.969 102.749L136.131 102.271L136.211 102.669L135.969 102.749Z" fill="#322015"/>
<path d="M142.187 102.908C141.945 103.146 142.107 102.589 142.107 102.192C142.51 102.112 142.026 102.669 142.187 102.908Z" fill="#322015"/>
<path d="M145.579 104.896C145.256 105.134 145.256 104.578 145.095 104.498C145.337 104.259 145.579 104.498 145.579 104.896Z" fill="#322015"/>
<path d="M145.983 107.282C146.064 107.123 146.064 106.963 146.144 106.963L146.467 106.009C146.952 105.85 146.225 106.884 145.983 107.282Z" fill="#322015"/>
<path d="M147.275 108.315V107.838L147.436 107.918C147.598 107.52 147.679 107.361 147.759 107.043C147.84 107.282 147.759 107.679 147.275 108.315Z" fill="#322015"/>
<path d="M147.679 106.646C147.679 106.646 147.679 106.725 147.759 106.725C147.679 106.884 147.517 106.964 147.679 106.646Z" fill="#322015"/>
<path d="M147.84 106.884C147.84 106.963 147.84 106.963 147.84 106.963C147.84 106.884 147.84 106.804 147.76 106.804C147.84 106.725 147.921 106.645 147.84 106.884Z" fill="#322015"/>
<path d="M147.759 107.997C147.84 108.156 148.002 108.236 148.082 108.395L147.84 108.474C148.163 107.918 147.436 108.554 147.759 107.997Z" fill="#322015"/>
<path d="M150.101 109.19L150.586 108.792C150.909 108.952 150.263 110.144 151.151 109.588C150.747 109.747 150.828 110.303 150.424 110.144C150.667 109.588 150.344 109.27 150.101 109.19Z" fill="#322015"/>
<path d="M151.636 109.428C151.717 109.269 151.878 109.269 152.04 109.11C152.201 109.11 152.04 109.428 151.797 109.588C152.282 108.951 151.313 109.826 151.636 109.428Z" fill="#322015"/>
<path d="M152.685 110.542C152.605 110.462 152.605 110.303 152.766 110.303C152.928 110.542 152.362 110.939 152.201 111.337C151.716 111.417 152.282 110.621 152.685 110.542Z" fill="#322015"/>
<path d="M157.692 109.349C157.288 109.667 157.127 109.429 157.288 109.27C157.208 109.349 157.45 109.349 157.692 109.349Z" fill="#322015"/>
<path d="M154.381 112.212H154.22L154.785 111.655L154.381 112.212Z" fill="#322015"/>
<path d="M155.189 113.803L154.947 114.359L154.785 114.041L155.189 113.803Z" fill="#322015"/>
<path d="M155.512 114.042L155.673 114.28L155.431 114.36C155.27 114.28 155.593 114.121 155.512 114.042Z" fill="#322015"/>
<path d="M155.997 114.757C155.997 114.677 155.916 114.757 155.835 114.757L155.916 114.359L155.997 114.757Z" fill="#322015"/>
<path d="M161.73 115.711C161.972 115.234 161.972 115.632 162.134 115.632C161.972 115.711 161.488 116.189 161.73 115.711Z" fill="#322015"/>
</g>
</g>
<path d="M44.716 14.1558C44.716 14.1558 44.1507 0 46.008 0C47.8654 0 54.9719 14.4739 57.7175 18.4502C60.4632 22.4266 67.5697 31.4131 73.3033 38.332C78.9561 45.2508 90.0196 57.9751 106.009 60.5995C121.999 63.2239 155.916 64.1782 168.998 68.7112C182.08 73.2443 194.436 84.8552 198.958 96.7047C203.561 108.554 209.537 124.38 221.57 132.015C221.57 132.015 204.369 135.911 191.286 122.153C191.286 122.153 192.256 127.641 192.417 128.913C192.659 130.186 199.927 140.206 200.412 141.16C200.977 142.115 206.63 165.098 206.791 166.211C207.034 167.325 205.096 177.424 205.096 177.424C205.096 177.424 195.001 177.424 194.436 177.424C193.871 177.424 195.889 170.028 200.089 167.802C200.089 167.802 192.498 148.715 191.69 147.602C190.883 146.489 178.366 134.878 177.477 134.241C176.67 133.605 155.27 123.108 145.66 101.794C145.66 101.794 139.522 100.045 124.825 103.067C110.128 106.009 89.6158 109.588 85.3358 109.588C85.3358 109.588 87.1124 161.042 86.7894 162.632C86.4663 164.223 80.4905 177.504 80.4905 177.504C80.4905 177.504 69.75 177.504 68.7002 177.504C67.6504 177.504 69.9116 170.744 77.2603 164.939C77.2603 164.939 70.6384 133.367 69.6693 129.47C68.7002 125.573 61.5938 107.52 61.5938 107.52C61.5938 107.52 43.9084 103.464 35.6714 86.6843C27.4344 69.9041 34.3793 57.3389 31.8759 45.8075C31.8759 45.8075 13.6253 38.8886 9.82977 36.98C6.03429 35.1509 -2.36424 30.2202 2.15804 21.8699C2.15804 21.8699 20.5702 23.8581 21.943 23.6195C23.3159 23.3809 26.7076 18.6093 30.9069 17.0188C35.2676 15.1896 44.716 14.1558 44.716 14.1558Z" fill="#FFF0DD"/>
<path d="M194.436 177.265C193.871 177.265 195.89 169.869 200.089 167.642C200.089 167.642 192.498 148.556 191.69 147.442C190.883 146.329 178.366 134.718 177.477 134.082C176.67 133.446 155.27 122.948 145.66 101.635" stroke="#1B1C1E" stroke-width="1.2604" stroke-miterlimit="10" stroke-linecap="round" stroke-linejoin="round"/>
<path d="M85.4166 109.429C85.4166 109.429 87.1932 160.883 86.8702 162.473C86.5472 164.064 80.5713 177.345 80.5713 177.345" stroke="#1B1C1E" stroke-width="1.2604" stroke-miterlimit="10" stroke-linecap="round" stroke-linejoin="round"/>
<path d="M189.752 107.202C190.318 113.326 191.206 122.074 191.206 122.074C191.206 122.074 191.448 123.346 191.69 124.778C175.943 127.561 167.222 111.656 162.942 105.135C158.662 98.6134 151.555 85.0938 135.162 86.7639C118.769 88.5135 106.251 102.59 85.4167 98.2953C64.5819 93.9213 57.0716 78.175 57.0716 78.175C56.6678 80.6403 57.4754 84.9348 57.4754 84.9348C35.6715 68.4727 41.1629 47.0004 42.2127 42.1493C43.2625 37.2982 43.8278 31.1746 41.6474 30.2203C39.467 29.1864 37.5289 29.0274 36.4791 27.1187C35.51 25.2896 37.2866 19.9613 34.6217 18.5298C31.9568 17.0983 29.1304 17.9731 29.1304 17.9731C29.7764 17.5755 30.4225 17.1779 31.1492 16.9393C35.3485 15.2692 44.7969 14.2354 44.7969 14.2354C44.7969 14.2354 44.2316 0.0795898 46.0889 0.0795898C48.0271 0.0795898 55.0528 14.5535 57.7984 18.5298C60.5441 22.5062 67.6506 31.4927 73.3842 38.4115C79.037 45.3304 90.1005 58.0547 106.09 60.6791C121.999 63.3035 155.997 64.2578 169.079 68.7908C182.161 73.3238 194.517 84.9348 199.039 96.7843C202.915 106.725 207.761 119.529 216.401 127.879C199.443 125.653 192.175 112.69 189.752 107.202Z" fill="#5F6C72"/>
<path d="M72.1729 177.265C72.1729 177.265 72.6574 175.198 73.6264 173.925" stroke="#1B1C1E" stroke-width="1.2604" stroke-miterlimit="10" stroke-linecap="round" stroke-linejoin="round"/>
<path d="M197.343 177.265C197.343 177.265 197.828 175.198 198.797 173.925" stroke="#1B1C1E" stroke-width="1.2604" stroke-miterlimit="10" stroke-linecap="round" stroke-linejoin="round"/>
<path d="M85.4165 109.429L85.0935 101.158" stroke="#1B1C1E" stroke-width="1.2604" stroke-miterlimit="10" stroke-linecap="round" stroke-linejoin="round"/>
<path d="M0.78522 24.0168C0.62371 25.4483 1.51202 26.8003 2.96561 27.1184C3.28863 27.1979 3.61165 27.2774 3.93467 27.1979C6.51883 27.0389 7.40714 23.3806 7.08412 22.0287C7.00336 21.5515 2.31957 21.2334 1.99655 21.2334C1.75428 21.2334 1.02749 22.3468 0.78522 24.0168Z" fill="#1B1C1E" stroke="#1B1C1E" stroke-width="1.5329" stroke-miterlimit="10" stroke-linecap="round" stroke-linejoin="round"/>
<path d="M3.4502 32.208C3.4502 32.208 5.30756 33.7985 10.3144 35.23C15.3212 36.6615 17.8246 36.9796 18.7129 37.3773C19.6012 37.7749 20.7318 39.0473 20.7318 39.0473" stroke="#1B1C1E" stroke-width="1.2604" stroke-miterlimit="10" stroke-linecap="round" stroke-linejoin="round"/>
<path d="M191.206 122.074C191.206 122.074 189.752 107.839 189.429 103.067" stroke="#1B1C1E" stroke-width="1.2604" stroke-miterlimit="10" stroke-linecap="round" stroke-linejoin="round"/>
<path d="M145.741 101.635C145.741 101.635 143.964 97.4999 143.479 93.0464" stroke="#1B1C1E" stroke-width="1.2604" stroke-miterlimit="10" stroke-linecap="round" stroke-linejoin="round"/>
<path d="M30.4345 25.4636C30.8207 24.6718 30.6124 23.7832 29.9691 23.479C29.3259 23.1747 28.4913 23.5699 28.1051 24.3617C27.7189 25.1535 27.9272 26.0421 28.5704 26.3464C29.2137 26.6507 30.0482 26.2554 30.4345 25.4636Z" fill="#1B1C1E"/>
<mask id="mask2_37_2643" style="mask-type:luminance" maskUnits="userSpaceOnUse" x="32" y="45" width="10" height="9">
<path d="M32.6026 53.7598C32.7642 50.9763 32.6026 48.3519 32.0374 45.7275C32.0374 45.7275 36.9634 47.5567 40.4359 48.0338C43.3431 48.4315 36.3981 53.3621 32.6026 53.7598Z" fill="white"/>
</mask>
<g mask="url(#mask2_37_2643)">
<g opacity="0.88">
<path d="M37.287 46.8408L37.2063 46.9203C37.2063 46.9203 37.2063 46.9203 37.287 46.8408Z" fill="#322015"/>
<path d="M40.9207 47.7953L41.0014 47.6362C40.9207 47.7158 40.9207 47.7158 40.9207 47.7953Z" fill="#322015"/>
<path d="M36.7213 47.6362C36.6406 47.6362 36.6406 47.7158 36.5598 47.7953L36.7213 47.6362Z" fill="#322015"/>
<path d="M37.0444 48.1934C37.0444 48.2729 36.9637 48.2729 37.0444 48.1934Z" fill="#322015"/>
<path d="M33.6529 45.9668C33.5721 45.9668 33.5721 45.9668 33.6529 45.9668C33.5721 46.0463 33.5721 45.9668 33.6529 45.9668Z" fill="#322015"/>
<path d="M33.7337 46.1255C33.6529 46.205 33.6529 46.205 33.7337 46.1255Z" fill="#322015"/>
<path d="M34.7834 46.2842C34.7026 46.6819 34.6219 46.2842 34.5411 46.6023C34.6219 46.5228 34.7026 46.5228 34.7026 46.6819C34.6218 46.8409 34.5411 46.6023 34.4603 46.9204L34.6219 46.8409C34.6219 47 34.5411 47.2386 34.5411 47.2386C34.7026 46.8409 34.7834 47.4771 34.9449 47.3976H34.8641L34.9449 47.6362V47.5567C34.9449 47.7952 35.0256 47.9543 35.1871 47.9543C35.2679 47.7157 35.5909 47.9543 35.6717 47.7952C35.5909 47.8748 35.5909 47.8748 35.5102 47.7952L35.5909 47.4771C35.6717 47.4771 35.5102 47.7157 35.6717 47.6362C35.7524 47.2386 35.5102 47.6362 35.4294 47.5567C35.5102 47.4771 35.5102 47.3976 35.5909 47.3976C35.4294 47.3181 35.2679 47.159 35.1064 47.5567C35.1064 47.4771 35.1064 47.3181 35.1871 47.2386C35.0256 47.4771 35.1871 47 35.0256 47.159C35.1064 46.7614 35.3487 47 35.4294 46.8409C35.5102 47.159 35.7524 46.9204 35.9947 46.9204C35.9139 47.159 35.7524 47.3976 35.8332 47.5567C35.9947 47.7952 35.9947 47.4771 36.1562 47.3181C36.237 47.4771 36.0754 47.7952 36.237 47.7952L36.0754 47.9543C36.0754 48.3519 36.237 47.7952 36.3177 47.9543C36.3177 47.8748 36.3177 47.7157 36.237 47.7157C36.237 47.5567 36.3177 47.5567 36.3985 47.5567C36.4792 47.3976 36.56 47.159 36.6407 47.3181C36.4792 47.5567 36.7215 47.4771 36.7215 47.6362L36.6407 47.7157C36.7215 47.6362 36.8022 47.7157 36.883 47.7157V47.7952C36.9637 47.7157 37.0445 47.4771 37.1253 47.5567C37.1253 47.6362 36.883 47.9543 37.0445 47.9543C36.9638 48.1133 36.883 48.1134 36.8022 48.0338C36.883 48.1134 36.883 48.4315 36.7215 48.4315C36.7215 48.67 36.883 48.3519 36.883 48.511C36.883 48.4315 36.883 48.3519 36.9637 48.2724C36.883 48.5905 37.206 48.3519 37.206 48.1133L37.0445 48.2724C37.0445 48.0338 37.2868 47.8748 37.206 47.7952C37.206 48.1929 37.529 47.6362 37.529 48.0338V47.7952C37.7713 47.9543 38.0136 47.5567 38.2558 47.5567C38.1751 47.6362 38.0943 48.0338 37.9328 47.8748C38.1751 48.0338 37.9328 48.2724 37.9328 48.511C38.0943 48.67 38.0943 48.1134 38.1751 48.0338L38.0136 48.1133C38.2558 47.6362 38.4173 48.2724 38.7404 48.0338C38.7404 48.1929 38.6596 48.1133 38.6596 48.1133C38.7404 48.3519 38.7404 48.1134 38.8211 48.0338C38.9019 48.1134 39.0634 48.1929 38.9019 48.511C38.9826 48.5905 38.9019 48.3519 38.9826 48.2724V48.3519L39.1441 48.0338C39.2249 48.1134 39.3056 48.3519 39.3056 48.5905C39.5479 48.5905 39.5479 47.9543 39.7094 47.8748C39.7902 48.0338 39.6287 48.1134 39.6287 48.1929H39.7902C39.7094 48.511 39.5479 48.3519 39.5479 48.7496C39.7902 48.3519 39.7902 48.67 39.9517 48.4315C40.1132 48.1929 40.2747 48.4315 40.3555 48.3519C40.2747 48.511 40.1939 48.511 40.1132 48.511C40.1939 48.67 40.517 48.5905 40.6785 48.2724C40.7592 48.3519 40.84 48.511 40.7592 48.5905C41.0015 48.67 40.9207 48.1134 41.163 48.2724L41.0823 48.511C41.2438 48.9086 41.5668 48.2724 41.7283 48.5905L41.8091 48.2724C41.8091 48.4315 41.8898 48.511 41.8898 48.5905L41.7283 48.67C41.809 48.9882 41.8898 48.4315 41.9706 48.67C41.9706 48.5905 41.8898 48.3519 41.9706 48.2724C41.486 48.4315 41.0823 47.8748 40.5977 48.1133C40.5977 48.1929 40.5977 48.1929 40.5977 48.2724C40.5977 48.1929 40.4362 48.2724 40.517 48.1133C40.3555 48.1929 40.3555 47.7952 40.2747 47.7157C40.194 47.9543 40.0324 47.5567 40.0324 47.9543V47.7157C39.9517 47.8748 39.9517 48.0338 39.8709 48.1133C39.7902 48.0338 39.7902 47.9543 39.8709 47.8748C39.5479 47.6362 39.2249 47.6362 38.8211 47.7157L38.9019 47.5567C38.8211 47.4771 38.5788 47.7952 38.7404 47.3976C38.5788 47.5567 38.3366 47.159 38.2558 47.6362C38.2558 47.159 37.9328 47.3976 37.6905 47.3976C37.6905 47.7952 37.4483 47.4771 37.3675 47.6362C37.3675 47.3181 37.6098 47.3976 37.6905 47.159C37.3675 47.5567 37.1253 46.6819 36.883 47.4771V47.3976C36.8022 47.3976 36.8022 47.2386 36.8022 47.2386C36.7215 47.3976 36.8022 47.4771 36.7215 47.4771C36.6407 47.3976 36.7215 47.2386 36.7215 47.0795C36.56 47.2386 36.237 47.2386 36.1562 47.5567C36.1562 47.4771 36.0754 47.2386 36.1562 47.2386C35.8332 47.3976 35.9139 47.159 35.5909 47.2386C35.6717 47.2386 35.6717 46.9205 35.8332 47.0795C35.8332 46.6023 35.4294 47.0795 35.2679 46.8409L35.1064 47.0795C34.9449 47.0795 35.0256 46.8409 35.1064 46.7614C34.9449 46.5228 34.7834 46.6819 34.6219 46.6819C34.6219 46.6819 34.6218 46.6023 34.7026 46.6023L34.4603 46.5228C34.4603 46.6023 34.2988 46.6819 34.2988 46.9204C34.6218 46.2842 34.7026 46.2047 34.7834 46.2842Z" fill="#322015"/>
<path d="M32.2798 46.4437C32.1991 46.9209 32.4414 46.3642 32.5221 46.5232C32.4414 46.6027 32.3606 46.8413 32.3606 46.9208C32.6029 46.3642 32.5221 47.0799 32.7644 47.0004C32.7644 47.1594 32.6029 47.1594 32.5221 47.398C32.6836 47.3185 32.8451 47.239 33.0066 46.9208C33.2489 46.9208 33.3297 47.0799 33.4912 47.0799C33.3297 47.1594 33.4104 47.398 33.2489 47.6366C33.4912 47.3185 33.895 46.9208 34.218 46.5232C34.1372 46.8413 34.1372 46.9209 34.0565 47.239C34.2987 47.5571 34.218 46.9209 34.3795 47.0799L34.2987 47.0004C34.4602 46.9209 34.541 46.6027 34.6217 46.3642H34.2987C34.3795 46.1256 34.541 46.2051 34.6217 46.1256C34.7833 45.887 34.541 45.887 34.6217 45.6484C34.541 45.8075 34.4602 45.7279 34.3795 45.8075V45.6484C34.2987 45.4894 34.1372 45.8075 34.0565 45.7279V45.6484C33.9757 45.8075 33.895 45.9665 33.8142 45.9665H33.8949C33.7334 46.2846 33.4104 46.3642 33.5719 46.7618L33.3297 46.6027C33.4104 46.2846 33.5719 45.8075 33.7334 45.8075L33.8142 45.6484C33.7334 45.4098 33.4104 45.8075 33.4104 46.1256C33.0874 46.9208 33.0066 46.0461 32.6836 46.3642C32.6836 46.1256 32.8451 46.0461 32.9259 45.9665C33.0066 45.9665 33.0066 45.9665 33.0066 46.1256C33.3297 46.0461 33.0874 45.4098 33.4104 45.5689C33.5719 45.7279 33.1682 45.887 33.3297 45.9665L33.6527 45.4098C33.4912 45.4098 33.3297 45.4894 33.2489 45.4894C32.5221 45.728 32.1991 45.3303 32.1991 45.3303C31.3108 45.2508 30.3417 45.0917 29.4534 45.0122C29.1304 45.0122 29.0496 45.0122 28.8074 45.5689C28.8074 45.7279 29.0496 45.6484 28.9689 45.887C29.0496 45.6484 29.1304 45.5689 29.2919 45.6484C29.2919 45.887 29.1304 45.7279 29.1304 45.8075C29.1304 45.887 29.0496 45.9665 28.9689 45.9665C29.0496 46.3642 29.3727 46.2846 29.6149 45.887C29.6957 46.1256 29.4534 46.2051 29.3727 46.3642C29.7764 46.6027 30.0995 46.6823 30.584 46.7618C30.6647 46.3642 30.6647 46.5232 30.8263 46.2846V46.4437C30.8263 46.3642 30.907 46.1256 30.8263 46.0461C31.0685 46.3642 31.23 45.5689 31.4723 45.4894L31.3108 45.8075C31.4723 45.8075 31.5531 45.8075 31.7146 45.7279C31.8761 46.1256 31.4723 45.7279 31.4723 46.2051L31.5531 46.1256C31.4723 46.2846 31.3915 46.6027 31.23 46.7618C31.553 46.5232 31.553 46.9208 31.8761 46.7618C31.7953 47.0004 31.553 47.0799 31.4723 47.0799C31.553 47.0799 31.7146 47.0004 31.7146 47.1594L31.7953 46.9208C31.9568 46.9208 31.7146 47.1594 31.7146 47.398C32.0376 47.4775 31.8761 46.5232 32.2798 46.4437Z" fill="#322015"/>
<path d="M34.864 48.1136C34.864 47.9545 34.9448 47.9545 34.9448 47.875C34.9448 47.9545 34.864 47.875 34.864 48.1136Z" fill="#322015"/>
<path d="M39.3054 48.1932C39.3862 48.3523 39.3862 48.1137 39.4669 47.9547C39.3862 47.8751 39.4669 48.1932 39.3054 48.1932Z" fill="#322015"/>
<path d="M37.4482 48.1934C37.529 48.3524 37.6905 48.1934 37.7713 48.1934C37.6905 48.0343 37.6098 48.1139 37.4482 48.1934Z" fill="#322015"/>
<path d="M36.5598 48.8296C36.6406 48.7501 36.6406 48.7501 36.5598 48.6705L36.7213 48.2729C36.6406 48.1139 36.5598 48.6705 36.5598 48.8296Z" fill="#322015"/>
<path d="M35.6716 48.75L35.8332 48.591H35.7524C35.8331 48.4319 35.8331 48.3524 35.9139 48.1934C35.8331 48.2729 35.6716 48.4319 35.6716 48.75Z" fill="#322015"/>
<path d="M36.0755 48.1138C35.9947 48.2728 35.9947 48.1933 36.0755 48.1138Z" fill="#322015"/>
<path d="M35.9949 48.1138C35.9949 48.1933 35.9141 48.1933 35.9949 48.1138C35.9949 48.1933 35.9949 48.1933 35.9949 48.1138Z" fill="#322015"/>
<path d="M35.5909 48.5112H35.3486L35.4294 48.5908C35.5101 48.3522 35.5101 48.7498 35.5909 48.5112Z" fill="#322015"/>
<path d="M34.299 48.0343V47.7958C34.1375 47.7162 33.8145 48.1934 33.8145 47.7958C33.8145 47.9548 33.6529 48.0343 33.8145 48.1934C33.976 47.8753 34.2182 47.8753 34.299 48.0343Z" fill="#322015"/>
<path d="M33.8141 47.4775C33.8949 47.398 33.8141 47.3185 33.8141 47.239C33.7334 47.1594 33.6526 47.3185 33.6526 47.398C33.8141 47.1594 33.7334 47.7161 33.8141 47.4775Z" fill="#322015"/>
<path d="M33.0875 47.3979C33.1683 47.3979 33.1683 47.3979 33.1683 47.3184C33.0068 47.3184 33.0068 47.6365 32.926 47.716C33.0068 47.875 33.1683 47.5569 33.0875 47.3979Z" fill="#322015"/>
<path d="M32.0376 47.0794V47.1589L32.1991 46.8408L32.0376 47.0794Z" fill="#322015"/>
</g>
</g>
<path d="M61.7554 107.361L60.0596 103.385" stroke="#1B1C1E" stroke-width="1.2604" stroke-miterlimit="10" stroke-linecap="round" stroke-linejoin="round"/>
</svg>
