<svg width="166" height="191" viewBox="0 0 166 191" fill="none" xmlns="http://www.w3.org/2000/svg">
<path d="M116.142 114.295C116.142 114.295 108.712 144.356 107.743 149.207C107.743 149.207 107.905 170.679 110.005 180.143C110.005 180.143 120.18 179.348 119.13 187.38C119.13 187.38 105.402 187.38 104.836 187.38C104.271 187.38 98.4566 177.042 96.7607 130.439" fill="#EFBE9D"/>
<mask id="mask0_37_5890" style="mask-type:luminance" maskUnits="userSpaceOnUse" x="96" y="114" width="24" height="74">
<path d="M109.924 180.222C107.824 170.759 107.663 149.286 107.663 149.286C108.713 144.435 116.061 114.374 116.061 114.374L96.6802 130.598C98.376 177.2 104.271 187.539 104.756 187.539C105.321 187.539 119.049 187.539 119.049 187.539C120.18 179.347 109.924 180.222 109.924 180.222Z" fill="white"/>
</mask>
<g mask="url(#mask0_37_5890)">
<g opacity="0.88">
<path d="M108.309 124.712C108.309 124.792 108.39 124.871 108.39 124.871C108.39 124.871 108.39 124.871 108.309 124.712Z" fill="#443730"/>
<path d="M112.347 121.69L112.185 121.531C112.266 121.531 112.266 121.611 112.347 121.69Z" fill="#443730"/>
<path d="M108.955 126.303C108.955 126.383 108.955 126.462 109.036 126.621L108.955 126.303Z" fill="#443730"/>
<path d="M110.005 126.78L110.086 126.86C110.086 126.78 110.086 126.78 110.005 126.78Z" fill="#443730"/>
<path d="M104.271 126.78V126.701C104.19 126.701 104.271 126.701 104.271 126.78Z" fill="#443730"/>
<path d="M104.191 127.257C104.11 127.257 104.11 127.257 104.191 127.257L104.11 127.337C104.191 127.416 104.191 127.337 104.191 127.257Z" fill="#443730"/>
<path d="M103.706 131.154L103.787 131.393C103.787 131.234 103.706 131.154 103.706 131.154Z" fill="#443730"/>
<path d="M104.19 126.462C104.19 126.541 104.19 126.621 104.271 126.7C104.19 126.621 104.271 126.541 104.19 126.462Z" fill="#443730"/>
<path d="M108.228 124.633C108.228 124.712 108.309 124.712 108.309 124.712C108.309 124.712 108.309 124.633 108.228 124.633Z" fill="#443730"/>
<path d="M113.558 120.18C113.558 120.1 113.558 120.1 113.558 120.021C113.477 120.1 113.477 120.1 113.558 120.18Z" fill="#443730"/>
<path d="M105.644 126.541C106.128 127.098 105.482 126.701 105.886 127.257C105.886 127.098 105.886 126.939 106.128 127.257C106.29 127.655 105.967 127.337 106.209 127.893V127.655C106.451 127.893 106.613 128.371 106.694 128.212C106.371 127.416 107.259 128.291 107.259 128.052V128.132L107.663 128.371C107.663 128.291 107.582 128.291 107.582 128.212C107.905 128.53 108.228 128.689 108.309 128.45C108.066 128.052 108.713 127.973 108.551 127.575C108.551 127.734 108.551 127.734 108.39 127.734L108.066 127.257C108.228 127.178 108.39 127.655 108.309 127.337C107.824 126.701 108.147 127.496 107.986 127.496C107.905 127.337 107.905 127.178 107.905 127.098C107.663 127.178 107.34 127.098 107.663 127.814C107.501 127.734 107.34 127.416 107.34 127.337C107.501 127.814 107.017 127.019 107.097 127.496C106.694 126.86 107.178 127.019 107.017 126.541C107.501 126.86 107.42 126.303 107.582 126.064C107.905 126.462 108.066 126.939 108.309 127.178C108.713 127.337 108.309 126.78 108.228 126.462C108.47 126.541 108.793 127.178 109.036 127.019L109.116 127.416C109.682 127.893 109.036 127.098 109.278 127.178C109.116 127.019 109.036 126.86 108.874 127.019C108.713 126.78 108.713 126.621 108.713 126.621C108.551 126.303 108.309 125.985 108.551 125.985C108.713 126.382 108.874 126.144 109.036 126.303V126.382C109.036 126.223 109.197 126.144 109.197 126.064L109.278 126.144C109.197 125.905 108.874 125.508 109.116 125.508C109.278 125.667 109.52 126.223 109.601 126.064C109.762 126.303 109.682 126.462 109.52 126.462C109.682 126.462 110.085 126.86 110.005 127.019C110.328 127.337 110.005 126.78 110.247 126.86C110.166 126.78 110.085 126.621 110.005 126.541C110.408 127.019 110.328 126.382 110.005 126.064L110.085 126.382C109.762 126.064 109.762 125.667 109.52 125.508C110.085 125.985 109.601 124.951 110.085 125.349L109.762 125.11C110.166 125.11 109.843 124.235 109.924 123.917C110.005 124.156 110.489 124.792 110.166 124.712C110.489 124.633 110.731 125.269 111.135 125.508C111.539 125.587 110.731 124.871 110.651 124.633V124.871C110.166 124.076 111.297 124.633 111.135 123.917C111.297 124.076 111.216 124.076 111.216 124.156C111.62 124.394 111.297 123.997 111.216 123.758C111.377 123.679 111.7 123.758 112.023 124.235C112.266 124.235 111.781 123.997 111.7 123.838L111.781 123.917L111.458 123.36C111.7 123.44 112.023 123.519 112.508 123.838C112.67 123.519 111.62 122.804 111.7 122.486C112.023 122.565 112.023 122.804 112.185 122.963L112.266 122.724C112.67 123.201 112.347 123.122 112.831 123.679C112.427 123.042 112.831 123.36 112.67 122.804H112.589C112.266 122.406 112.75 122.406 112.75 122.247C112.912 122.486 112.831 122.645 112.831 122.804C113.154 122.883 113.235 122.406 112.831 121.849C112.993 121.849 113.316 121.929 113.396 122.167C113.719 122.008 112.75 121.452 113.073 121.372L113.477 121.69C114.204 121.929 113.396 120.816 114.123 120.975L113.639 120.577C113.881 120.736 114.042 120.656 114.285 120.816L114.365 121.054C114.85 121.293 114.042 120.656 114.446 120.736C114.285 120.656 113.881 120.418 113.719 120.338C113.558 121.054 112.508 120.975 112.508 121.849C112.589 121.849 112.67 121.929 112.75 122.008C112.589 121.929 112.589 122.167 112.427 121.929V121.849C112.427 122.088 111.781 121.69 111.7 121.69C111.943 122.008 111.297 121.849 111.943 122.247L111.539 122.008C111.7 122.247 111.943 122.486 112.023 122.565C111.862 122.645 111.7 122.406 111.62 122.247C111.135 122.327 110.812 122.804 110.651 123.201L110.489 122.883C110.328 122.804 110.651 123.599 110.085 122.883C110.166 123.281 109.52 123.122 110.085 123.758C109.359 123.201 109.439 123.838 109.278 124.076C109.843 124.633 109.197 124.394 109.359 124.712C108.955 124.315 109.197 124.076 108.874 123.758C109.197 124.633 107.824 123.758 108.632 125.03C108.551 125.03 108.551 124.951 108.47 124.871C108.39 124.871 108.228 124.712 108.066 124.712C108.228 124.951 108.39 124.951 108.309 125.11C108.147 125.11 107.986 124.792 107.824 124.633C107.905 125.03 107.663 125.349 108.066 125.905C107.905 125.826 107.663 125.587 107.663 125.428C107.663 125.985 107.34 125.508 107.259 125.985C107.34 125.905 106.936 125.428 107.178 125.508C106.532 124.871 106.855 125.905 106.371 125.746L106.613 126.303C106.532 126.462 106.209 126.064 106.209 125.826C105.805 125.746 105.886 126.064 105.644 126.144C105.563 126.064 105.563 125.985 105.563 125.985L105.321 126.144C105.402 126.303 105.402 126.541 105.644 126.86C105.402 126.621 105.321 126.462 105.644 126.541Z" fill="#443730"/>
<path d="M109.44 127.257C109.359 127.178 109.278 127.098 109.197 127.098C109.278 127.178 109.359 127.178 109.44 127.257Z" fill="#443730"/>
<path d="M103.383 129.325C103.787 130.041 103.464 129.087 103.706 129.246C103.625 129.405 103.867 129.802 104.029 130.041C103.625 129.007 104.352 130.12 104.513 129.802C104.675 130.12 104.594 130.2 104.756 130.598C104.756 130.28 104.917 130.041 104.675 129.484C104.917 129.325 105.24 129.405 105.321 129.246C105.24 129.564 105.563 129.802 105.725 130.359C105.563 129.643 105.563 128.689 105.321 127.735C105.725 128.291 105.725 128.371 106.048 128.848C106.613 129.007 105.805 128.291 106.209 128.291H106.048C106.048 128.053 105.725 127.496 105.563 127.098L105.321 127.417C105.079 127.019 105.321 126.939 105.321 126.86C105.079 126.303 104.917 126.621 104.756 126.224C104.917 126.542 104.756 126.542 104.756 126.701L104.594 126.462C104.352 126.303 104.594 126.939 104.433 127.019C104.352 126.939 104.352 126.939 104.352 126.86C104.433 127.098 104.594 127.417 104.513 127.576L104.594 127.496C104.756 128.053 104.675 128.53 105.159 129.007H104.756C104.513 128.45 104.029 127.496 104.19 127.337L104.11 127.098C103.787 126.86 103.948 127.735 104.352 128.212C104.998 129.643 103.867 128.53 103.948 129.246C103.706 128.848 103.787 128.689 103.706 128.371C103.787 128.291 103.787 128.212 103.948 128.53C104.19 128.132 103.221 127.417 103.625 127.337C103.867 127.417 103.787 128.053 104.029 127.973L103.625 126.86C103.464 126.939 103.464 127.257 103.383 127.417C103.221 127.973 102.898 128.132 102.656 128.212C102.414 128.291 102.171 128.212 102.171 128.212C101.202 128.848 100.153 129.405 99.1028 129.882C98.7798 130.12 98.699 130.12 98.8605 131.313C99.022 131.552 99.1836 131.313 99.2643 131.791C99.1836 131.393 99.2643 131.075 99.4258 131.075C99.5873 131.472 99.3451 131.313 99.4258 131.393H99.5066C99.5873 131.631 99.5873 131.791 99.5066 131.791C99.9104 132.347 100.314 132.029 100.233 131.234C100.556 131.552 100.314 131.87 100.314 132.268C101.041 132.347 101.525 132.109 102.171 131.87C101.848 131.154 102.01 131.393 101.929 130.916L102.091 131.154C102.01 131.075 101.848 130.518 101.687 130.439C102.252 130.836 101.687 129.325 101.768 128.928L101.929 129.325C102.091 129.166 102.172 129.166 102.252 128.848C102.898 129.405 102.01 129.087 102.495 129.882V129.723C102.575 130.041 102.818 130.677 102.818 130.995C102.898 130.28 103.383 130.995 103.464 130.439C103.625 130.836 103.464 131.313 103.383 131.393C103.544 131.393 103.544 130.995 103.787 131.313L103.544 130.836C103.706 130.677 103.706 131.313 103.948 131.552C104.352 131.075 103.141 129.802 103.383 129.325Z" fill="#443730"/>
<path d="M107.905 126.939C107.824 126.939 107.824 127.018 107.824 127.018C107.905 127.018 107.905 127.018 107.905 126.939Z" fill="#443730"/>
<path d="M107.663 128.371C107.663 128.45 107.744 128.53 107.744 128.53C107.744 128.45 107.744 128.45 107.663 128.371Z" fill="#443730"/>
<path d="M108.067 129.007C107.905 128.848 107.986 128.768 107.824 128.53C107.824 128.689 107.663 128.768 108.067 129.007Z" fill="#443730"/>
<path d="M118.807 116.68L118.484 116.76L119.049 117.237C119.13 116.998 118.645 116.839 118.807 116.68Z" fill="#443730"/>
<path d="M118.161 116.919L118 116.76C118.08 116.839 118.08 116.919 118.161 116.919Z" fill="#443730"/>
<path d="M118.403 117.078L118.807 117.396L118.646 116.998L118.403 117.078C118.323 116.918 118.242 116.918 118.161 116.918L118.403 117.237C118.403 117.157 118.323 117.078 118.403 117.078Z" fill="#443730"/>
<path d="M118.323 117.316C118.404 117.316 118.404 117.396 118.484 117.396C118.404 117.316 118.323 117.316 118.323 117.316Z" fill="#443730"/>
<path d="M117.192 117.157C117.353 117.237 117.596 117.475 117.757 117.634C117.999 117.555 117.353 117.157 117.676 117.157C117.919 117.634 117.999 117.237 118.322 117.316C117.838 117.078 117.515 116.998 117.273 117.078L117.515 117.237C117.515 117.316 117.353 117.157 117.192 117.157Z" fill="#443730"/>
<path d="M117.353 118.43L117.03 118.032C117.273 118.112 117.353 117.953 117.838 118.271C117.838 118.191 117.676 118.032 117.596 117.873C117.838 117.953 118.08 118.032 117.757 117.793C117.273 117.953 117.192 117.793 116.95 117.953C116.869 117.873 116.869 117.873 116.95 117.873H116.626C117.03 118.191 116.869 118.43 117.353 118.43Z" fill="#443730"/>
<path d="M116.788 118.509C116.869 118.35 116.546 118.032 116.223 117.873L116.385 118.35C116.385 118.271 116.465 118.191 116.788 118.509Z" fill="#443730"/>
<path d="M116.708 118.669C116.465 118.589 115.9 118.351 116.304 118.748C116.304 118.51 116.869 119.066 116.708 118.669Z" fill="#443730"/>
<path d="M115.577 119.384L116.061 119.305C116.627 119.623 116.142 119.543 116.304 119.782C116.546 119.623 116.384 119.543 116.142 119.146C116.223 119.066 115.981 118.827 115.9 118.589C116.061 119.305 114.769 118.35 115.577 119.384Z" fill="#443730"/>
<path d="M116.546 119.225L116.304 119.066L116.384 119.305L116.546 119.225Z" fill="#443730"/>
<path d="M114.527 119.543C113.8 119.225 114.608 120.1 114.204 120.02C114.204 119.941 114.123 119.941 114.043 119.861L113.962 120.02L113.8 119.941C114.204 120.259 114.204 120.497 114.446 120.815C114.931 120.974 114.043 120.338 114.608 120.577C114.769 120.736 115.012 120.974 115.092 121.133C115.012 120.895 114.769 120.736 114.608 120.497C114.608 120.338 114.85 120.577 115.012 120.656C114.85 120.338 114.366 119.941 114.608 119.861C115.012 120.02 115.092 120.338 115.092 120.02C114.446 119.622 115.335 119.941 115.012 119.543C115.254 119.463 115.658 119.702 115.9 119.861C115.415 119.543 115.092 119.066 115.092 118.907L115.335 119.463L114.769 119.145C114.85 119.463 114.689 119.463 114.527 119.543Z" fill="#443730"/>
<path d="M115.173 121.134C115.173 121.213 115.254 121.213 115.254 121.293C115.254 121.213 115.254 121.134 115.173 121.134Z" fill="#443730"/>
<path d="M116.062 119.941L116.142 120.1L116.304 120.18L116.062 119.941Z" fill="#443730"/>
<path d="M115.415 121.531C115.496 121.531 115.254 121.372 115.254 121.372L115.496 121.611L115.415 121.531Z" fill="#443730"/>
<path d="M115.012 121.372L114.608 121.213L114.85 121.452L115.012 121.372Z" fill="#443730"/>
<path d="M111.943 124.076C112.185 124.156 111.862 123.838 111.62 123.599C111.378 123.679 111.943 123.917 111.943 124.076Z" fill="#443730"/>
<path d="M110.409 126.223C110.732 126.382 110.57 125.905 110.651 125.826C110.409 125.746 110.328 125.985 110.409 126.223Z" fill="#443730"/>
<path d="M110.489 128.132C110.409 127.973 110.409 127.894 110.328 127.894L109.924 127.178C109.601 127.098 110.247 127.814 110.489 128.132Z" fill="#443730"/>
<path d="M109.52 129.007V128.609L109.44 128.689C109.278 128.371 109.197 128.212 109.117 127.973C109.036 128.212 109.117 128.53 109.52 129.007Z" fill="#443730"/>
<path d="M109.117 127.734V127.814C109.197 127.893 109.278 127.973 109.117 127.734Z" fill="#443730"/>
<path d="M109.036 127.894V127.973C109.116 127.894 109.116 127.894 109.036 127.894C109.036 127.735 109.036 127.735 109.036 127.894Z" fill="#443730"/>
<path d="M109.116 128.769L108.874 129.087L109.116 129.166C108.874 128.689 109.439 129.246 109.116 128.769Z" fill="#443730"/>
<path d="M107.34 129.484L107.017 129.086C106.774 129.086 107.098 130.2 106.532 129.564C106.774 129.802 106.694 130.12 106.936 130.12C106.855 129.643 107.098 129.405 107.34 129.484Z" fill="#443730"/>
<path d="M106.209 129.245C106.129 129.086 106.048 129.007 105.967 128.927C105.886 128.927 105.886 129.166 106.048 129.325C105.806 128.768 106.371 129.643 106.209 129.245Z" fill="#443730"/>
<path d="M105.321 129.802C105.402 129.723 105.402 129.643 105.24 129.643C105.079 129.802 105.402 130.2 105.483 130.597C105.886 130.756 105.563 130.041 105.321 129.802Z" fill="#443730"/>
<path d="M102.333 127.337C102.575 127.735 102.656 127.575 102.575 127.416C102.575 127.496 102.414 127.416 102.333 127.337Z" fill="#443730"/>
<path d="M103.868 130.439L103.948 130.518L103.706 129.961L103.868 130.439Z" fill="#443730"/>
<path d="M102.979 131.313L103.06 131.711L103.221 131.552L102.979 131.313Z" fill="#443730"/>
<path d="M102.737 131.313L102.575 131.393L102.737 131.552C102.817 131.631 102.656 131.313 102.737 131.313Z" fill="#443730"/>
<path d="M102.252 131.631C102.252 131.552 102.333 131.631 102.333 131.711L102.414 131.393L102.252 131.631Z" fill="#443730"/>
<path d="M98.4569 130.12C98.3762 129.723 98.2954 129.961 98.2954 129.882C98.2954 130.041 98.5377 130.518 98.4569 130.12Z" fill="#443730"/>
</g>
</g>
<path d="M1.22753 187.221C1.22753 187.221 -5.63664 189.288 13.0985 189.925C31.8337 190.561 130.678 190.879 140.853 189.925C151.028 188.97 170.813 189.527 144.568 187.221C118.322 184.914 91.2695 186.266 64.7818 184.914C38.2941 183.483 5.18453 184.835 1.22753 187.221Z" fill="#1B1C1E"/>
<path d="M30.703 187.46C30.703 187.46 80.7712 187.46 83.0323 187.46C85.2127 187.46 84.1629 180.223 78.5908 179.586C73.0187 178.95 59.5326 178.791 59.5326 178.791L55.0911 164.715C55.0911 164.794 27.7151 178.314 30.703 187.46Z" fill="#EFBE9D"/>
<mask id="mask1_37_5890" style="mask-type:luminance" maskUnits="userSpaceOnUse" x="30" y="164" width="55" height="24">
<path d="M30.703 187.46C30.703 187.46 80.7712 187.46 83.0323 187.46C85.2127 187.46 84.1629 180.223 78.5908 179.586C73.0187 178.95 59.5326 178.791 59.5326 178.791L55.0911 164.715C55.0911 164.794 27.7151 178.314 30.703 187.46Z" fill="white"/>
</mask>
<g mask="url(#mask1_37_5890)">
<g opacity="0.88">
<path d="M47.5005 182.767C47.5005 182.847 47.5005 182.926 47.5812 183.085C47.662 183.085 47.662 183.006 47.5005 182.767Z" fill="#443730"/>
<path d="M53.557 179.745L53.3955 179.427C53.3955 179.586 53.4763 179.666 53.557 179.745Z" fill="#443730"/>
<path d="M48.1465 185.153C48.1465 185.232 48.1465 185.391 48.2272 185.63L48.1465 185.153Z" fill="#443730"/>
<path d="M49.519 186.107C49.519 186.187 49.5998 186.187 49.6806 186.266C49.5998 186.187 49.519 186.107 49.519 186.107Z" fill="#443730"/>
<path d="M41.5246 185.312C41.4439 185.312 41.4438 185.312 41.4438 185.312V185.392C41.5246 185.471 41.5246 185.312 41.5246 185.312Z" fill="#443730"/>
<path d="M41.9282 185.63C41.8475 185.71 41.8475 185.71 41.9282 185.63Z" fill="#443730"/>
<path d="M41.605 184.119C41.605 184.199 41.605 184.278 41.6857 184.437C41.6857 184.358 41.7665 184.278 41.605 184.119Z" fill="#443730"/>
<path d="M47.5005 182.608C47.5005 182.688 47.5812 182.688 47.5812 182.767C47.5005 182.767 47.5005 182.688 47.5005 182.608Z" fill="#443730"/>
<path d="M55.4953 178.155C55.4953 178.075 55.5761 177.996 55.5761 177.916C55.3338 177.996 55.4146 178.075 55.4953 178.155Z" fill="#443730"/>
<path d="M43.6243 184.596C44.1088 185.55 43.4628 184.755 43.8666 185.63C43.8666 185.391 43.8666 185.153 44.1896 185.63C44.3511 186.187 43.9473 185.709 44.2703 186.505V186.107C44.5933 186.425 44.7549 187.141 44.7549 187.061C44.3511 185.869 45.4817 187.22 45.5624 186.982V187.141L46.0469 187.539C46.0469 187.539 46.0469 187.539 46.0469 187.618C46.0469 187.539 45.9662 187.459 45.9662 187.38C46.37 187.857 46.693 188.175 46.8545 187.936C46.6122 187.3 47.4198 187.38 47.2583 186.823C47.2583 186.982 47.1775 187.061 47.016 186.982L46.693 186.266C46.9352 186.187 47.0968 186.982 47.016 186.425C46.4507 185.471 46.7737 186.584 46.5315 186.505C46.4507 186.266 46.4507 186.028 46.4507 185.869C46.1277 185.948 45.7239 185.709 46.0469 186.823C45.8854 186.664 45.7239 186.187 45.7239 186.107C45.8047 186.823 45.3202 185.63 45.4009 186.187C44.9971 185.232 45.5624 185.471 45.4817 184.914C46.1277 185.55 46.0469 184.676 46.2892 184.358C46.693 185.073 46.7737 185.709 47.0968 186.028C47.5813 186.346 47.1775 185.55 47.0968 185.073C47.4198 185.232 47.7428 186.187 48.0658 186.107L48.1466 186.664C48.8734 187.539 48.1466 186.187 48.3888 186.346C48.2273 186.107 48.0658 185.869 47.9043 185.948C47.662 185.63 47.7428 185.391 47.7428 185.312H47.662C47.5005 184.835 47.2583 184.278 47.5813 184.437C47.7428 185.073 47.9851 184.755 48.1466 184.994V185.153C48.1466 184.914 48.3888 184.914 48.3888 184.755L48.4696 184.914C48.4696 184.596 48.0658 183.88 48.3081 183.96C48.4696 184.278 48.7119 185.073 48.7926 184.914C49.0349 185.312 48.8734 185.471 48.5504 185.391C48.7926 185.471 49.2771 186.107 49.1156 186.266C49.4387 186.743 49.1964 185.948 49.4387 186.107C49.3579 185.948 49.2771 185.789 49.1156 185.63C49.5194 186.346 49.5194 185.471 49.2771 184.994L49.3579 185.471C49.0349 184.914 49.0349 184.358 48.7926 184.119C49.4387 184.994 49.0349 183.403 49.6002 184.119L49.2771 183.721C49.8424 183.801 49.5194 182.528 49.7617 182.131C49.8424 182.449 50.4077 183.483 49.9232 183.244C50.4077 183.244 50.65 184.198 51.0538 184.596C51.5383 184.755 50.65 183.562 50.5692 183.244L50.4885 183.562C50.0039 182.29 51.3768 183.403 51.296 182.449C51.5383 182.687 51.296 182.687 51.3768 182.847C51.9421 183.324 51.4575 182.608 51.4575 182.369C51.6998 182.369 52.1036 182.449 52.4266 183.244C52.7496 183.324 52.1036 182.847 52.1036 182.528L52.2651 182.687L51.9421 181.733C52.2651 181.892 52.7496 182.131 53.2341 182.687C53.5572 182.29 52.2651 181.017 52.3458 180.62C52.7496 180.858 52.6689 181.176 52.8304 181.415L52.9919 181.176C53.4764 181.972 52.9919 181.733 53.6379 182.608C53.2341 181.574 53.7187 182.21 53.5572 181.415L53.4764 181.336C53.1534 180.62 53.7187 180.858 53.7994 180.62C54.0417 181.017 53.8802 181.176 53.8802 181.415C54.284 181.574 54.5262 180.938 54.0417 180.063C54.2032 180.143 54.6877 180.302 54.7685 180.699C55.253 180.54 54.0417 179.506 54.5262 179.506L55.0108 180.063C55.9798 180.62 55.0915 178.87 55.9798 179.347L55.4145 178.632C55.7376 178.87 55.9798 178.87 56.2221 179.109L56.3028 179.506C56.9489 179.984 55.9798 178.791 56.4644 179.109C56.3028 178.87 55.7376 178.552 55.576 178.313C55.253 179.268 53.7994 178.711 53.7187 179.904C53.7994 179.984 53.8802 180.063 54.0417 180.222C53.7994 180.063 53.8802 180.381 53.5572 179.984V179.904C53.4764 180.222 52.6689 179.427 52.5881 179.506C52.9111 180.063 52.1036 179.586 52.7496 180.381L52.2651 179.904C52.4266 180.222 52.7496 180.62 52.8304 180.858C52.6689 180.858 52.4266 180.54 52.3458 180.222C51.619 180.222 51.1345 180.699 50.8115 181.256L50.65 180.779C50.4077 180.62 50.7307 181.813 50.0847 180.699C50.0847 181.256 49.2771 180.779 49.9232 181.892C49.1156 180.938 49.0349 181.733 48.7926 182.131C49.4387 183.085 48.6311 182.528 48.8734 183.085C48.3888 182.369 48.7119 182.131 48.3888 181.654C48.7119 183.006 46.9352 181.415 47.9043 183.403C47.8236 183.324 47.7428 183.244 47.7428 183.165C47.662 183.165 47.4198 182.926 47.2583 182.847C47.4198 183.244 47.662 183.244 47.5813 183.483C47.4198 183.483 47.1775 182.926 47.016 182.687C47.016 183.244 46.693 183.642 47.0968 184.437C46.9352 184.278 46.6122 183.88 46.6122 183.642C46.5315 184.437 46.1277 183.721 45.9662 184.358C46.1277 184.278 45.6432 183.483 45.9662 183.721C45.2394 182.687 45.4009 184.278 44.8356 183.801L45.0779 184.596C44.9164 184.835 44.5934 184.119 44.5934 183.801C44.0281 183.483 44.1088 184.039 43.7858 184.198C43.705 184.119 43.705 183.96 43.705 183.96L43.3013 184.119C43.382 184.358 43.382 184.755 43.6243 185.232C43.3013 184.676 43.2205 184.437 43.6243 184.596Z" fill="#443730"/>
<path d="M48.5504 186.505C48.3889 186.346 48.3081 186.266 48.3081 186.266C48.3889 186.425 48.4696 186.505 48.5504 186.505Z" fill="#443730"/>
<path d="M40.3129 188.016C40.7975 189.129 40.4744 187.698 40.7975 187.936C40.7167 188.175 41.0397 188.811 41.1205 189.129C40.7167 187.539 41.5243 189.288 41.7665 188.891C42.0088 189.368 41.8473 189.527 42.0088 190.084C42.0895 189.607 42.3318 189.288 42.0088 188.493C42.3318 188.334 42.7356 188.493 42.8971 188.255C42.8163 188.732 43.2201 189.05 43.3009 189.845C43.1394 188.811 43.2201 187.38 43.1394 186.107C43.6239 186.982 43.6239 187.062 43.9469 187.857C44.6737 188.255 43.7047 186.982 44.1892 187.062L43.9469 186.982C44.0277 186.664 43.6239 185.789 43.4624 185.153L43.0586 185.471C42.8163 184.835 43.1394 184.835 43.1394 184.596C42.8971 183.801 42.6548 184.199 42.4126 183.562C42.5741 184.04 42.3318 183.96 42.3318 184.278L42.1703 183.96C41.8473 183.722 42.0895 184.596 41.8473 184.676C41.7665 184.596 41.7665 184.517 41.7665 184.437C41.8473 184.835 42.0088 185.312 41.928 185.471L42.0088 185.392C42.1703 186.266 42.0088 186.903 42.6548 187.698L42.0895 187.618C41.7665 186.744 41.282 185.392 41.5243 185.153L41.3628 184.755C40.959 184.358 41.1205 185.63 41.5243 186.346C42.1703 188.493 40.7975 186.744 40.7975 187.698C40.5552 187.141 40.636 186.823 40.5552 186.425C40.636 186.346 40.7167 186.266 40.8782 186.744C41.2012 186.266 40.0707 184.994 40.636 184.994C41.0397 185.153 40.7167 186.028 41.1205 185.948L40.7167 184.278C40.4744 184.437 40.3937 184.755 40.3129 184.994C39.9899 185.71 39.5861 185.948 39.2631 185.948C38.9401 185.948 38.6978 185.789 38.6978 185.789C37.325 186.505 35.8714 187.141 34.4178 187.777C34.014 188.175 33.8525 188.096 34.014 189.766C34.1755 190.084 34.4986 189.845 34.4986 190.402C34.4178 189.766 34.4986 189.368 34.7408 189.368C34.9023 189.925 34.5793 189.686 34.6601 189.845H34.7408C34.8216 190.163 34.8216 190.402 34.7408 190.402C35.3061 191.197 35.7907 190.879 35.7099 189.686C36.1137 190.243 35.7906 190.64 35.7906 191.118C36.7597 191.356 37.325 191.038 38.2133 190.799C37.8903 189.766 38.0518 190.084 37.971 189.368L38.1326 189.686C38.0518 189.527 37.8903 188.732 37.648 188.573C38.3748 189.209 37.7288 187.062 37.8903 186.505L38.0518 187.062C38.2941 186.903 38.3748 186.823 38.4556 186.505C39.2631 187.38 38.1326 186.823 38.6978 188.016L38.7786 187.777C38.8593 188.334 39.1016 189.209 39.1016 189.607C39.1824 188.652 39.8284 189.766 40.0707 188.891C40.2322 189.527 39.9899 190.084 39.9092 190.243C40.0707 190.243 40.2322 189.686 40.3937 190.243L40.1514 189.527C40.3937 189.368 40.3937 190.243 40.636 190.64C41.3628 190.72 39.9092 188.652 40.3129 188.016Z" fill="#443730"/>
<path d="M46.6928 185.71C46.612 185.71 46.5312 185.789 46.5312 185.869C46.5312 185.869 46.612 185.789 46.6928 185.71Z" fill="#443730"/>
<path d="M64.2168 175.053C64.0553 174.894 63.9745 174.576 63.813 174.497V174.894L64.2168 175.053Z" fill="#443730"/>
<path d="M63.167 174.974H62.7632L63.49 175.769C63.6515 175.53 63.0054 175.133 63.167 174.974Z" fill="#443730"/>
<path d="M62.2787 175.133L62.1172 174.894C62.1979 174.974 62.1979 175.053 62.2787 175.133Z" fill="#443730"/>
<path d="M62.6015 175.371L63.1668 175.928L62.9246 175.292H62.6823C62.44 175.133 62.3593 175.133 62.1978 175.053L62.5208 175.53C62.6015 175.53 62.5208 175.371 62.6015 175.371Z" fill="#443730"/>
<path d="M60.9058 175.133C61.148 175.292 61.3903 175.689 61.6326 175.848C62.0363 175.848 61.148 175.053 61.6326 175.133C61.8748 175.769 62.0363 175.371 62.4401 175.53C61.8748 175.133 61.3903 174.894 61.0673 174.894L61.3903 175.212C61.3095 175.53 61.148 175.212 60.9058 175.133Z" fill="#443730"/>
<path d="M60.9055 176.962L60.5017 176.326C60.744 176.564 60.9862 176.326 61.5515 176.803C61.5515 176.644 61.3093 176.405 61.2285 176.167C61.5515 176.326 61.7938 176.485 61.4708 176.087C60.744 176.087 60.744 175.928 60.2594 176.008C60.1787 175.928 60.1787 175.849 60.2594 175.849L59.7749 175.769C60.5017 176.485 60.2594 176.723 60.9055 176.962Z" fill="#443730"/>
<path d="M60.1789 176.882C60.3404 176.723 59.8559 176.167 59.4521 175.849L59.5329 176.564C59.6944 176.485 59.6944 176.326 60.1789 176.882Z" fill="#443730"/>
<path d="M59.9367 177.041C59.6136 176.802 58.8868 176.325 59.3714 176.961C59.4521 176.802 60.1789 177.598 59.9367 177.041Z" fill="#443730"/>
<path d="M58.3216 177.678L58.9676 177.757C59.6944 178.393 59.0484 178.155 59.2099 178.552C59.6137 178.473 59.2907 178.314 59.1292 177.678C59.2099 177.678 59.0484 177.2 58.8869 176.882C59.0484 177.757 57.4333 176.087 58.3216 177.678Z" fill="#443730"/>
<path d="M59.6134 177.757L59.3711 177.439L59.4519 177.837L59.6134 177.757Z" fill="#443730"/>
<path d="M56.8678 177.598C55.8987 176.882 56.9486 178.393 56.3833 178.234C56.3833 178.155 56.3025 178.075 56.2218 177.996L56.141 178.234L55.9795 178.075C56.464 178.553 56.3833 178.95 56.7063 179.427C57.3523 179.825 56.2218 178.712 56.9486 179.189C57.1101 179.427 57.3523 179.825 57.5138 180.064C57.4331 179.666 57.1908 179.348 56.9486 179.03C57.0293 178.871 57.2716 179.189 57.4331 179.348C57.3523 178.95 56.6255 178.155 57.0293 178.155C57.5946 178.473 57.5946 178.95 57.6754 178.553C56.8678 177.837 57.9984 178.473 57.6754 177.916C57.9984 177.916 58.5637 178.314 58.8059 178.632C58.2406 177.996 57.9176 177.36 57.8369 177.042L58.0791 177.837L57.2716 177.201C57.2716 177.519 57.1101 177.598 56.8678 177.598Z" fill="#443730"/>
<path d="M57.4331 179.904C57.4331 179.984 57.5139 180.063 57.5139 180.063C57.5139 180.063 57.5139 179.984 57.4331 179.904Z" fill="#443730"/>
<path d="M58.8867 178.632L58.9675 178.87L59.2097 179.029L58.8867 178.632Z" fill="#443730"/>
<path d="M57.7562 180.54C57.837 180.54 57.5947 180.302 57.5947 180.302L57.837 180.699L57.7562 180.54Z" fill="#443730"/>
<path d="M57.1911 180.222L56.7065 179.904L56.9488 180.302L57.1911 180.222Z" fill="#443730"/>
<path d="M52.5072 182.926C52.8302 183.085 52.4265 182.528 52.1842 182.131C51.8612 182.21 52.5072 182.688 52.5072 182.926Z" fill="#443730"/>
<path d="M50.0039 185.392C50.4077 185.63 50.2462 184.994 50.4077 184.914C50.0847 184.755 50.0039 185.073 50.0039 185.392Z" fill="#443730"/>
<path d="M49.8423 188.096C49.7615 187.857 49.7615 187.777 49.6808 187.698L49.277 186.584C48.7925 186.425 49.6 187.698 49.8423 188.096Z" fill="#443730"/>
<path d="M48.4694 189.05V188.493H48.3079C48.1464 188.016 48.0656 187.777 47.9849 187.459C47.9849 187.777 47.9849 188.334 48.4694 189.05Z" fill="#443730"/>
<path d="M48.1462 187.221C48.1462 187.221 48.1462 187.3 48.0654 187.3C48.1462 187.38 48.3077 187.539 48.1462 187.221Z" fill="#443730"/>
<path d="M47.9851 187.38C47.9851 187.459 47.9851 187.459 47.9851 187.539C47.9851 187.459 47.9851 187.38 48.0659 187.3C47.9851 187.221 47.9044 187.141 47.9851 187.38Z" fill="#443730"/>
<path d="M39.021 184.994C39.2633 185.551 39.4248 185.392 39.344 185.153C39.344 185.312 39.1825 185.153 39.021 184.994Z" fill="#443730"/>
</g>
</g>
<path d="M80.2868 187.459C80.2868 187.459 81.5789 184.596 79.8022 183.324" stroke="#1B1C1E" stroke-miterlimit="10"/>
<path d="M76.1681 187.46C76.1681 187.46 76.8142 184.994 75.6836 183.801" stroke="#1B1C1E" stroke-miterlimit="10"/>
<path d="M109.762 69.2029C109.762 69.2029 100.718 77.1556 95.2266 78.9847C89.6545 80.8933 69.7887 80.8933 61.7939 80.8933C53.7992 80.8933 37.5674 78.3485 29.0881 97.1168C20.6089 115.885 6.8805 147.378 7.36503 167.578C7.84956 187.777 29.2497 192.072 48.6309 182.847C67.2853 174.019 70.5963 158.273 71.9691 152.547C71.9691 152.547 118.888 117.078 127.852 108.41C136.815 99.7412 135.443 90.357 133.02 81.6886C130.597 73.0201 130.436 69.7596 131.324 64.9084C132.212 60.0573 111.781 62.4431 111.781 62.4431L109.762 69.2029Z" fill="#EFBE9D"/>
<mask id="mask2_37_5890" style="mask-type:luminance" maskUnits="userSpaceOnUse" x="108" y="61" width="25" height="20">
<path d="M131.324 64.8288C132.212 59.9777 111.781 62.3635 111.781 62.3635L109.682 69.2823C109.682 69.2823 109.116 69.7595 108.228 70.5548C115.334 75.4854 124.056 79.7003 132.858 80.9728C130.678 72.7815 130.516 69.5209 131.324 64.8288Z" fill="white"/>
</mask>
<g mask="url(#mask2_37_5890)">
<g opacity="0.88">
<path d="M124.783 69.521C124.783 69.521 124.864 69.6005 124.945 69.6005C124.864 69.6005 124.783 69.6005 124.783 69.521Z" fill="#443730"/>
<path d="M120.665 71.5887L120.584 71.4297C120.665 71.5092 120.665 71.5092 120.665 71.5887Z" fill="#443730"/>
<path d="M125.833 70.1567C125.914 70.1567 125.995 70.1567 126.075 70.2363L125.833 70.1567Z" fill="#443730"/>
<path d="M127.771 65.8628C127.852 65.8628 127.852 65.9423 127.932 65.9423C127.852 65.8628 127.771 65.9423 127.771 65.8628Z" fill="#443730"/>
<path d="M118.888 71.5888C118.807 71.5888 118.807 71.5888 118.727 71.5093C118.888 71.5093 118.888 71.5093 118.888 71.5888Z" fill="#443730"/>
<path d="M126.883 67.3737C127.206 67.7713 127.044 67.2147 127.367 67.6123C127.206 67.6123 127.125 67.6123 127.286 67.8509C127.529 68.0099 127.367 67.6918 127.771 67.9304H127.529C127.609 68.169 127.933 68.2485 127.852 68.328C127.367 68.0099 127.771 68.8052 127.609 68.8052H127.69L127.771 69.1233C127.771 69.1233 127.69 69.1233 127.69 69.0438C127.852 69.2824 127.852 69.5209 127.69 69.6005C127.367 69.4414 127.206 69.9186 126.963 69.7595C127.044 69.7595 127.125 69.7595 127.125 69.6005L126.802 69.3619C126.721 69.5209 127.044 69.6005 126.802 69.6005C126.479 69.2028 126.963 69.4414 126.963 69.2824C126.883 69.2028 126.721 69.2028 126.64 69.2028C126.802 69.0438 126.802 68.7257 127.286 69.0438C127.286 68.8847 127.044 68.8052 126.963 68.8052C127.286 68.8847 126.802 68.4871 127.125 68.6461C126.721 68.328 126.721 68.7257 126.398 68.6461C126.56 69.0438 126.075 68.9643 125.914 69.1233C126.156 69.3619 126.479 69.5209 126.56 69.68C126.56 69.9981 126.237 69.68 125.994 69.6005C125.994 69.839 126.398 70.0776 126.237 70.2367L126.479 70.3162C126.721 70.7934 126.237 70.2367 126.237 70.3957C126.156 70.2367 126.075 70.1572 126.237 70.0776C126.156 69.9186 125.994 69.9186 125.914 69.9186C125.671 69.7595 125.51 69.6005 125.51 69.7595C125.752 69.9186 125.591 69.9981 125.591 70.1571H125.671C125.51 70.1571 125.429 70.2367 125.348 70.2367L125.429 70.3162C125.268 70.2367 125.025 69.9981 124.945 70.1571C125.025 70.2367 125.429 70.4753 125.268 70.5548C125.429 70.7138 125.591 70.6343 125.591 70.4753C125.51 70.6343 125.671 70.9524 125.833 70.8729C125.994 71.1115 125.591 70.8729 125.671 71.0319C125.671 70.9524 125.51 70.8729 125.51 70.7934C125.752 71.1115 125.268 71.0319 125.106 70.7934L125.348 70.8729C125.187 70.6343 124.864 70.5548 124.864 70.3957C125.106 70.8729 124.379 70.3957 124.541 70.7934L124.46 70.5548C124.299 70.8729 123.733 70.4753 123.41 70.5548C123.572 70.6343 123.814 71.1115 123.895 70.8729C123.652 71.1115 124.056 71.3501 124.137 71.6682C124.056 71.9863 123.814 71.2705 123.653 71.191H123.814C123.329 70.7138 123.329 71.5886 122.845 71.3501C122.926 71.5091 122.926 71.4296 123.006 71.4296C123.006 71.7477 122.845 71.4296 122.764 71.3501C122.683 71.4296 122.522 71.6682 122.764 71.9863C122.603 72.1453 122.683 71.7477 122.603 71.6682V71.7477L122.28 71.3501C122.199 71.5091 122.118 71.7477 122.118 72.1453C121.795 72.1453 121.714 71.3501 121.472 71.2705C121.391 71.5091 121.553 71.5886 121.634 71.6682H121.391C121.553 72.0658 121.714 71.8272 121.795 72.3044C121.472 71.8272 121.472 72.2249 121.23 71.9068V71.8272C121.068 71.5091 120.907 71.8272 120.745 71.7477C120.826 71.9863 120.988 71.9067 121.149 71.9863C121.068 72.2249 120.584 72.0658 120.422 71.6682C120.342 71.7477 120.18 71.9863 120.342 72.1453C120.019 72.2248 120.18 71.5091 119.857 71.6682V71.9863C119.534 72.4634 119.292 71.5886 118.969 71.9863V71.5886C118.888 71.7477 118.807 71.8272 118.726 71.9863L118.888 72.1453C118.726 72.4634 118.726 71.8272 118.565 72.0658C118.565 71.9067 118.726 71.6682 118.726 71.5091C119.292 71.7477 119.857 71.191 120.503 71.5091C120.503 71.5886 120.503 71.5886 120.503 71.6682C120.584 71.5886 120.665 71.6682 120.665 71.4296C120.826 71.5091 120.907 70.9524 120.988 70.9524C121.068 71.191 121.23 70.7934 121.311 71.2705V70.9524C121.391 71.1115 121.391 71.3501 121.472 71.4296C121.553 71.3501 121.553 71.191 121.391 71.1115C121.714 70.8729 122.118 70.7138 122.603 70.7138L122.441 70.5548C122.441 70.3957 122.926 70.7934 122.603 70.3162C122.845 70.4753 123.006 69.9981 123.329 70.4753C123.168 69.9186 123.572 69.9981 123.895 69.9186C124.137 70.3957 124.137 69.9186 124.379 70.0776C124.218 69.7595 123.976 69.839 123.814 69.6005C124.379 69.9981 124.137 68.8052 124.864 69.6005C124.864 69.5209 124.864 69.5209 124.783 69.5209C124.864 69.5209 124.783 69.2824 124.783 69.2028C124.945 69.3619 124.864 69.4414 125.025 69.4414C125.106 69.3619 124.864 69.1233 124.783 69.0438C125.106 69.1233 125.429 68.9643 125.671 69.2824C125.671 69.1233 125.51 68.9643 125.429 68.8847C125.914 68.8847 125.591 68.6461 125.994 68.5666C125.914 68.6461 125.671 68.328 125.671 68.5666C125.348 68.0895 126.075 68.328 126.075 67.9304L126.398 68.0895C126.56 68.0099 126.317 67.7713 126.075 67.7713C126.075 67.4532 126.317 67.4532 126.479 67.2942L126.398 67.2147L126.56 66.9761C126.64 66.9761 126.883 67.0556 127.044 67.2147C127.044 67.2147 126.883 67.1351 126.883 67.3737Z" fill="#443730"/>
<path d="M126.398 70.555C126.398 70.4755 126.317 70.396 126.317 70.396C126.398 70.396 126.398 70.4755 126.398 70.555Z" fill="#443730"/>
<path d="M130.597 66.5782C130.597 67.1348 130.355 66.4986 130.274 66.6577C130.436 66.7372 130.436 67.0553 130.436 67.2144C130.194 66.4986 130.274 67.3734 129.951 67.2939C129.951 67.5325 130.113 67.5325 130.194 67.8506C130.032 67.6915 129.79 67.612 129.628 67.2144C129.386 67.2939 129.225 67.453 129.063 67.453C129.305 67.5325 129.225 67.8506 129.467 68.1687C129.144 67.7711 128.579 67.2939 127.933 67.1349C128.175 67.5325 128.256 67.5325 128.498 67.8506C128.498 68.1687 128.256 67.7711 128.094 67.8506C128.094 67.8506 128.013 67.8506 128.013 67.9301V67.7711C127.771 67.7711 127.448 67.5325 127.206 67.3734L127.367 67.2939C127.448 67.2144 127.529 67.2144 127.61 67.1349C127.448 66.9758 127.286 67.0553 127.206 67.1349C127.125 67.1349 127.125 67.2144 127.044 67.2144C126.802 67.1348 126.883 66.9758 126.802 66.8963V66.8167C126.802 66.7372 126.802 66.7372 126.721 66.7372C127.044 66.8167 127.125 66.5782 127.367 66.5782L127.286 66.2601C127.448 65.8624 127.852 66.1805 128.013 66.0215C128.013 65.9419 128.013 65.942 128.013 65.942C128.175 66.101 128.336 66.2601 128.498 66.2601H128.417C128.74 66.5782 129.144 66.6577 129.063 67.2144C129.144 67.1348 129.305 67.0553 129.386 66.9758C129.225 66.5782 128.982 65.942 128.659 65.942L128.579 65.7829C128.74 65.4648 129.225 65.942 129.225 66.3396C129.467 66.8167 129.628 66.8167 129.709 66.7372C129.871 66.6577 130.032 66.4986 130.194 66.6577C130.194 66.3396 130.032 66.2601 129.871 66.101C129.79 66.101 129.709 66.101 129.709 66.3396C129.305 66.2601 129.628 65.3853 129.144 65.6238C128.902 65.7829 129.548 66.0215 129.225 66.101C129.063 65.8624 128.902 65.6238 128.74 65.3853C128.982 65.3853 129.225 65.4648 129.386 65.4648C129.951 65.6238 130.274 65.6238 130.597 65.5443C130.84 65.4648 131.001 65.3853 131.001 65.3853C132.293 65.4648 133.585 65.6238 134.797 65.8624C135.2 66.0215 135.281 66.0215 135.362 66.8167C135.281 66.9758 135.039 66.8963 135.12 67.1349C135.12 66.8167 134.958 66.6577 134.797 66.6577C134.716 66.9758 134.958 66.8167 134.877 66.8963C134.877 67.0553 134.877 67.1349 134.958 67.1349C134.716 67.5325 134.312 67.3734 134.231 66.8167C133.989 67.0553 134.312 67.2939 134.393 67.5325C133.747 67.6915 133.343 67.612 132.697 67.612C132.697 67.1348 132.616 67.2939 132.616 66.8963L132.536 67.0553C132.536 66.9758 132.455 66.5782 132.616 66.4986C132.213 66.8963 132.213 65.7829 131.97 65.5443V65.7829C131.728 65.7034 131.728 65.7034 131.486 65.6238C131.163 66.101 131.809 65.7034 131.728 66.3396L131.647 66.2601C131.728 66.4986 131.809 66.9758 131.89 67.1349C131.567 66.7372 131.486 67.2939 131.082 66.9758C131.163 67.2939 131.405 67.453 131.486 67.5325C131.405 67.5325 131.163 67.3734 131.163 67.612V67.2144C131.001 67.1348 131.243 67.5325 131.163 67.7711C130.678 67.9301 131.001 66.8167 130.597 66.5782Z" fill="#443730"/>
<path d="M128.256 69.3619C128.175 69.2028 128.094 69.2824 127.933 69.2029C128.094 69.2029 128.175 69.0438 128.256 69.3619Z" fill="#443730"/>
<path d="M112.589 71.8274C112.589 71.7479 112.508 71.5888 112.589 71.5093L112.751 71.6683L112.589 71.8274Z" fill="#443730"/>
<path d="M113.074 71.5888L113.316 71.5093L113.235 71.9864C113.074 71.9864 113.316 71.6683 113.074 71.5888Z" fill="#443730"/>
<path d="M113.639 71.7475L113.558 72.1451L113.396 71.827H113.477C113.558 71.7475 113.639 71.668 113.639 71.668V71.9066C113.72 71.827 113.639 71.7475 113.639 71.7475Z" fill="#443730"/>
<path d="M113.8 71.8271C113.8 71.8271 113.8 71.9067 113.72 71.9067C113.8 71.9067 113.8 71.9067 113.8 71.8271Z" fill="#443730"/>
<path d="M114.527 71.3501C114.447 71.4296 114.447 71.6682 114.447 71.8273C114.204 71.9068 114.447 71.3501 114.204 71.5092C114.366 71.8273 114.043 71.6682 113.881 71.8273C114.043 71.5092 114.204 71.3501 114.447 71.3501L114.366 71.5887C114.447 71.5887 114.447 71.4296 114.527 71.3501Z" fill="#443730"/>
<path d="M115.254 72.225V71.8274C115.173 71.9864 114.931 71.9069 114.85 72.225C114.77 72.1455 114.85 71.9864 114.77 71.9069C114.689 72.066 114.527 72.1455 114.527 71.9069C114.931 71.8274 114.85 71.6683 115.173 71.6683C115.173 71.5888 115.173 71.5888 115.093 71.5888L115.335 71.5093C115.254 71.9069 115.496 72.066 115.254 72.225Z" fill="#443730"/>
<path d="M115.658 72.066C115.496 71.9864 115.496 71.6683 115.658 71.5093L115.9 71.9069C115.819 71.8274 115.658 71.7479 115.658 72.066Z" fill="#443730"/>
<path d="M115.819 72.1453C115.9 71.9862 116.142 71.6681 116.142 71.9862C115.981 71.9067 115.981 72.4634 115.819 72.1453Z" fill="#443730"/>
<path d="M117.031 72.0654L116.708 72.2245C116.546 72.6221 116.789 72.3835 116.869 72.6221C116.546 72.6221 116.708 72.5426 116.546 72.2245C116.466 72.2245 116.385 71.9859 116.385 71.8268C116.708 72.304 116.95 71.1906 117.031 72.0654Z" fill="#443730"/>
<path d="M116.304 72.3837L116.384 72.2246L116.465 72.3837H116.304Z" fill="#443730"/>
<path d="M117.838 71.7479C118.08 71.2708 118.161 72.066 118.403 71.907C118.403 71.907 118.403 71.8274 118.403 71.7479L118.565 71.8275V71.7479C118.565 72.066 118.726 72.2251 118.807 72.4637C118.565 72.7818 118.726 72.066 118.565 72.3841C118.565 72.5432 118.565 72.7818 118.646 72.8613C118.565 72.7022 118.565 72.4637 118.484 72.3046C118.403 72.2251 118.403 72.4637 118.403 72.5432C118.323 72.3841 118.323 71.907 118.161 71.9865C118 72.2251 118.161 72.4637 118 72.3046C118.161 71.8275 117.757 72.3841 117.757 71.9865C117.596 72.066 117.434 72.3841 117.434 72.5432C117.515 72.1456 117.434 71.8275 117.354 71.6684C117.434 71.8275 117.515 71.907 117.596 72.066L117.757 71.5889C117.596 71.8274 117.757 71.7479 117.838 71.7479Z" fill="#443730"/>
<path d="M118.565 72.7817C118.565 72.7817 118.565 72.8613 118.646 72.8613C118.565 72.9408 118.565 72.8613 118.565 72.7817Z" fill="#443730"/>
<path d="M117.111 72.6226L117.192 72.7816L117.111 72.8611V72.6226Z" fill="#443730"/>
<path d="M118.727 73.1791C118.646 73.1791 118.646 73.02 118.727 73.02V73.1791Z" fill="#443730"/>
<path d="M118.888 72.8611L118.969 72.6226L119.05 72.8611H118.888Z" fill="#443730"/>
<path d="M122.764 72.0658C122.683 72.2248 122.603 71.9862 122.522 71.7476C122.683 71.5886 122.603 71.9862 122.764 72.0658Z" fill="#443730"/>
<path d="M125.187 71.2702C125.187 71.5088 124.864 71.3497 124.783 71.4293C124.864 71.1907 125.025 71.1907 125.187 71.2702Z" fill="#443730"/>
<path d="M126.802 71.4293C126.722 71.3497 126.641 71.3497 126.641 71.2702L126.156 70.9521C126.237 70.634 126.641 71.2702 126.802 71.4293Z" fill="#443730"/>
<path d="M127.852 70.6344H127.529L127.61 70.5549C127.448 70.3958 127.287 70.3958 127.125 70.3163C127.287 70.2368 127.529 70.3163 127.852 70.6344Z" fill="#443730"/>
<path d="M126.883 70.3164C126.964 70.3164 126.964 70.3164 126.883 70.3164C127.044 70.3959 127.044 70.3164 126.883 70.3164Z" fill="#443730"/>
<path d="M127.044 70.2368C127.044 70.3163 127.044 70.3163 127.044 70.2368C126.964 70.2368 126.964 70.2368 127.044 70.2368Z" fill="#443730"/>
<path d="M127.771 70.3157L128.094 70.0771V70.2362C127.771 70.0771 128.094 70.5543 127.771 70.3157Z" fill="#443730"/>
<path d="M128.74 68.7257L128.498 68.4871C128.498 68.4076 128.66 68.4076 128.821 68.4076C128.983 68.4871 129.063 68.4871 128.902 68.2485C129.063 68.4076 129.144 68.4871 129.225 68.6462C129.144 68.5666 129.063 68.4871 128.983 68.4871C128.821 68.5666 128.821 68.6462 128.74 68.7257Z" fill="#443730"/>
<path d="M128.821 68.0098C128.74 67.9302 128.74 67.8507 128.66 67.7712C128.66 67.6917 128.821 67.8507 128.902 67.9302C128.579 67.6121 128.983 68.1688 128.821 68.0098Z" fill="#443730"/>
<path d="M129.467 67.7709C129.386 67.7709 129.306 67.7709 129.386 67.6914C129.548 67.6914 129.629 68.089 129.709 68.2481C129.629 68.4071 129.386 67.93 129.467 67.7709Z" fill="#443730"/>
<path d="M130.517 65.0674C130.517 65.3855 130.355 65.306 130.274 65.2264C130.355 65.306 130.436 65.1469 130.517 65.0674Z" fill="#443730"/>
<path d="M130.759 67.4533L130.678 67.5328L130.598 67.0557L130.759 67.4533Z" fill="#443730"/>
<path d="M131.809 67.6914L131.89 67.93H131.728L131.809 67.6914Z" fill="#443730"/>
<path d="M131.97 67.6123H132.132L132.051 67.6918C132.051 67.7714 132.051 67.6123 131.97 67.6123Z" fill="#443730"/>
<path d="M132.536 67.6918C132.536 67.6122 132.455 67.6918 132.536 67.6918Z" fill="#443730"/>
</g>
</g>
<path d="M71.9687 152.468C71.9687 152.468 74.8759 136.642 65.1853 125.906C55.4947 115.17 39.5052 122.804 38.8591 126.781C38.2131 130.757 43.9467 123.441 53.2335 124.872C62.6011 126.304 66.2351 137.278 65.0238 148.651C63.8932 160.023 53.9603 172.986 41.0395 176.803C28.038 180.62 22.8696 174.099 22.8696 174.099" stroke="#1B1C1E" stroke-miterlimit="10"/>
<path d="M115.98 187.459C115.98 187.459 116.626 185.153 115.173 183.642" stroke="#1B1C1E" stroke-miterlimit="10"/>
<path d="M99.345 114.295C99.345 114.295 100.072 117.317 101.122 122.089C102.656 128.928 104.998 139.266 107.34 149.287C110.893 164.715 114.365 179.427 114.608 179.666C115.254 180.064 119.372 179.586 121.714 181.893C124.056 184.199 122.925 187.46 122.925 187.46C122.925 187.46 111.862 187.46 111.377 187.46C110.974 187.46 93.6921 152.945 87.7162 140.459C86.5857 138.073 85.7781 136.483 85.4551 136.085" fill="#EFBE9D"/>
<path d="M120.018 187.46C120.018 187.46 120.826 184.915 119.21 183.643" stroke="#1B1C1E" stroke-miterlimit="10"/>
<path d="M116.626 187.459C116.626 187.459 116.869 184.915 115.173 184.278" stroke="#1B1C1E" stroke-miterlimit="10"/>
<path d="M112.104 33.3361C112.104 33.3361 112.912 29.3598 112.508 27.9283C112.104 26.4968 103.786 19.4984 98.0528 11.5458C92.3192 3.59307 89.6543 -0.701379 87.7162 0.0938897C85.6973 0.889159 84.5667 17.5898 87.7162 28.4055C90.8656 39.2211 92.8037 41.2093 95.6302 41.766C98.4566 42.4022 100.395 43.1179 100.395 43.1179C100.395 43.1179 110.893 37.7101 112.104 33.3361Z" fill="#EFBE9D"/>
<path d="M105.402 40.1755C102.817 41.9251 100.395 43.118 100.395 43.118C100.395 43.118 98.4566 42.3228 95.6301 41.7661C92.8037 41.1299 90.8656 39.2212 87.7161 28.4056C85.6165 21.1686 85.3743 11.3073 86.101 5.34276C86.101 5.34276 86.101 5.34277 86.101 5.26324C86.1818 4.8656 86.1818 4.54749 86.2626 4.22939C86.5856 3.11601 87.7161 2.32074 91.5116 7.09235C97.0837 14.2498 105.644 29.5985 106.048 31.1095C106.29 32.3819 105.644 37.7897 105.402 40.1755Z" fill="#E2AF8D"/>
<path d="M134.07 37.1535C134.07 37.1535 134.393 33.3362 134.393 31.5866C134.393 29.8371 134.958 28.167 139.965 23.793C144.972 19.419 153.047 10.9097 156.843 7.25142C160.638 3.59319 163.384 1.52549 165.241 3.35461C167.098 5.18372 164.03 37.2331 161.849 41.0503C159.669 44.7881 157.327 46.1401 151.513 47.0149C145.698 47.8897 142.064 47.7306 141.58 47.8897C141.015 47.9692 132.535 42.3228 134.07 37.1535Z" fill="#EFBE9D"/>
<path d="M165.645 12.7389C165.16 23.0774 163.303 38.426 161.849 40.8914C159.669 44.6291 157.327 45.9811 151.513 46.8559C145.698 47.7307 142.064 47.5716 141.58 47.7307C141.418 47.8102 139.965 46.9354 138.35 45.5835C138.753 40.3347 139.561 33.0978 140.53 31.1096C142.064 27.7695 161.042 6.69482 163.384 6.69482C165.726 6.77435 165.645 12.7389 165.645 12.7389Z" fill="#E2AF8D"/>
<path d="M104.028 59.0233C104.028 59.0233 99.1024 55.206 98.2949 52.343C97.4873 49.5596 98.0526 41.6069 105.321 35.9605C112.589 30.3141 120.906 30.7117 124.944 31.5865C128.982 32.4613 138.43 35.6424 142.306 46.3785C146.183 57.1146 141.418 61.9658 136.815 64.113C132.293 66.2602 127.77 65.8626 127.77 65.8626C127.77 65.8626 125.186 69.4413 123.329 70.2365C121.472 71.0318 117.838 71.509 114.688 71.0318C111.539 70.5547 107.259 67.8507 106.047 66.0216C104.836 64.1925 104.432 59.3414 104.028 59.0233Z" fill="#EFBE9D"/>
<path d="M108.39 68.4077C108.39 68.4077 109.682 69.2029 111.135 67.6919C112.589 66.1809 114.85 65.0675 115.496 64.8289L115.738 63.3975" stroke="#1B1C1E" stroke-miterlimit="10" stroke-linecap="round" stroke-linejoin="round"/>
<path d="M115.496 64.8291C115.496 64.8291 115.738 65.2267 117.272 66.5787C119.049 68.1692 120.179 71.2708 123.41 70.396" stroke="#1B1C1E" stroke-miterlimit="10" stroke-linecap="round" stroke-linejoin="round"/>
<path d="M115.9 63.5568C115.9 63.5568 115.254 63.7158 114.688 62.4434C114.123 61.171 112.669 60.3757 112.104 59.819C111.539 59.2623 111.862 57.9104 113.558 58.6261C115.334 59.3418 116.949 59.4214 118.484 59.4214C120.826 59.4214 121.068 59.7395 121.149 60.3757C121.149 61.0119 120.099 61.5686 118.807 61.7277C117.515 61.9662 117.111 63.7954 115.9 63.5568Z" fill="#1B1C1E" stroke="#1B1C1E" stroke-miterlimit="10"/>
<path d="M112.104 54.0131C112.104 54.0131 112.75 49.7981 110.489 47.1737C108.228 44.5494 104.271 45.106 104.271 45.106C104.271 45.106 102.413 49.5595 105.724 52.5816C107.985 54.6493 112.104 54.0131 112.104 54.0131Z" fill="#FCEA9F"/>
<path d="M124.541 54.7288C124.541 54.7288 125.752 48.7643 129.628 48.0485C133.504 47.3328 135.604 49.5595 135.604 49.5595C135.604 49.5595 135.039 55.2059 130.92 55.9217C126.802 56.717 124.541 54.7288 124.541 54.7288Z" fill="#FCEA9F"/>
<path d="M109.028 49.7855C109.304 48.1833 108.993 46.7951 108.334 46.6848C107.674 46.5745 106.916 47.7839 106.639 49.3861C106.363 50.9883 106.674 52.3765 107.333 52.4868C107.993 52.5971 108.752 51.3877 109.028 49.7855Z" fill="#1B1C1E"/>
<path d="M130.534 52.1951C130.81 50.593 130.5 49.2048 129.84 49.0945C129.181 48.9842 128.422 50.1936 128.146 51.7958C127.869 53.3979 128.18 54.7862 128.84 54.8965C129.499 55.0068 130.258 53.7973 130.534 52.1951Z" fill="#1B1C1E"/>
<path d="M87.7968 140.459C86.6662 138.073 85.8587 136.483 85.5356 136.085" stroke="#1B1C1E" stroke-miterlimit="10"/>
<path d="M99.3447 114.295C99.3447 114.295 100.072 117.317 101.121 122.089C102.656 128.928 104.998 139.266 107.339 149.287" stroke="#1B1C1E" stroke-miterlimit="10"/>
</svg>
