<svg width="225" height="137" viewBox="0 0 225 137" fill="none" xmlns="http://www.w3.org/2000/svg">
<path d="M188.729 62.9301C188.729 62.9301 205.93 55.9318 204.072 35.4138C204.072 35.4138 208.999 55.2955 190.102 65.475C190.021 65.5545 187.195 64.4411 188.729 62.9301Z" fill="#D29F7E"/>
<mask id="mask0_37_4723" style="mask-type:luminance" maskUnits="userSpaceOnUse" x="188" y="35" width="17" height="31">
<path d="M188.729 62.9301C188.729 62.9301 205.93 55.9318 204.072 35.4138C204.072 35.4138 208.999 55.2955 190.102 65.475C190.021 65.5545 187.195 64.4411 188.729 62.9301Z" fill="white"/>
</mask>
<g mask="url(#mask0_37_4723)">
<g opacity="0.88">
<path d="M192.524 62.6123C192.524 62.6918 192.524 62.6918 192.524 62.7714C192.605 62.7714 192.524 62.6918 192.524 62.6123Z" fill="#322015"/>
<path d="M195.432 61.2599L195.351 61.1008C195.351 61.1804 195.351 61.1804 195.432 61.2599Z" fill="#322015"/>
<path d="M189.617 63.4073C189.617 63.3278 189.537 63.3278 189.617 63.4073Z" fill="#322015"/>
<path d="M196.32 60.4648V60.3852C196.239 60.3057 196.32 60.3852 196.32 60.4648Z" fill="#322015"/>
<path d="M190.586 63.2483C190.748 63.7254 190.506 63.3278 190.586 63.805C190.586 63.6459 190.667 63.5664 190.748 63.8845C190.748 64.2026 190.586 63.8845 190.748 64.2821L190.829 64.1231C190.909 64.2821 190.99 64.6798 190.99 64.6002C190.909 63.964 191.313 64.7593 191.394 64.6002V64.6798L191.636 64.9183V64.8388C191.798 65.0774 191.959 65.2365 192.04 65.1569C191.959 64.8388 192.363 64.9183 192.282 64.6002C192.282 64.6798 192.201 64.6798 192.121 64.6798L191.959 64.2821C192.04 64.2821 192.121 64.6002 192.121 64.3617C191.878 63.805 191.959 64.4412 191.878 64.3617C191.878 64.2026 191.878 64.1231 191.878 64.0436C191.717 64.0436 191.555 63.964 191.636 64.5207C191.555 64.4412 191.475 64.2026 191.475 64.1231C191.475 64.4412 191.313 63.805 191.313 64.1231C191.152 63.6459 191.475 63.805 191.394 63.4869C191.636 63.805 191.717 63.4073 191.798 63.3278C191.959 63.6459 191.959 64.0436 192.121 64.2026C192.363 64.3617 192.201 63.964 192.201 63.7254C192.363 63.805 192.444 64.2821 192.605 64.2821V64.5207C192.928 64.9979 192.605 64.2821 192.767 64.3617C192.686 64.2026 192.605 64.1231 192.524 64.2026C192.444 64.0436 192.444 63.8845 192.524 63.8845C192.444 63.6459 192.363 63.3278 192.524 63.4073C192.605 63.7254 192.686 63.5664 192.767 63.7254V63.805C192.767 63.6459 192.928 63.6459 192.928 63.6459V63.7254C192.928 63.5664 192.767 63.2483 192.928 63.2483C193.009 63.4073 193.09 63.805 193.17 63.7254C193.251 63.964 193.17 64.0435 193.09 63.964C193.17 64.0435 193.413 64.3617 193.332 64.4412C193.494 64.6798 193.413 64.2821 193.493 64.3617C193.413 64.2821 193.413 64.2026 193.332 64.1231C193.494 64.5207 193.574 64.0436 193.413 63.805V64.0436C193.251 63.7254 193.251 63.4869 193.17 63.3278C193.413 63.805 193.332 63.0097 193.574 63.3278L193.413 63.0892C193.655 63.0892 193.574 62.5325 193.655 62.294C193.655 62.453 193.978 63.0097 193.736 62.8507C193.978 62.8507 194.059 63.3278 194.301 63.5664C194.543 63.6459 194.14 63.0892 194.059 62.8507L193.978 63.0097C193.736 62.3735 194.382 62.9302 194.382 62.453C194.463 62.6121 194.382 62.5325 194.382 62.6121C194.624 62.8506 194.463 62.5325 194.382 62.3735C194.463 62.3735 194.705 62.453 194.866 62.8507C195.028 62.8507 194.705 62.6121 194.705 62.5325L194.786 62.6121L194.624 62.1349C194.786 62.2144 195.028 62.294 195.27 62.6121C195.432 62.453 194.786 61.8168 194.866 61.5782C195.028 61.7373 195.028 61.8168 195.109 61.9758L195.189 61.8963C195.432 62.294 195.189 62.2144 195.512 62.6121C195.27 62.0554 195.593 62.3735 195.512 61.9758C195.351 61.6577 195.674 61.7373 195.674 61.6577C195.755 61.8963 195.674 61.9759 195.674 62.0554C195.835 62.1349 195.997 61.8168 195.755 61.4192C195.835 61.4192 196.078 61.4987 196.158 61.7373C196.401 61.6577 195.755 61.1806 195.997 61.101L196.239 61.4192C196.724 61.6577 196.239 60.7829 196.724 61.0215L196.401 60.7034C196.562 60.7829 196.724 60.8625 196.804 60.942V61.101C197.127 61.3396 196.643 60.783 196.885 60.8625C196.804 60.783 196.481 60.6239 196.401 60.4648C196.239 60.942 195.512 60.7034 195.512 61.2601C195.593 61.2601 195.593 61.3396 195.674 61.4192C195.593 61.3396 195.593 61.4987 195.432 61.3396C195.432 61.4987 195.028 61.101 194.947 61.101C195.109 61.3396 194.705 61.101 195.028 61.4987L194.786 61.2601C194.866 61.4192 195.028 61.6577 195.028 61.7373C194.947 61.7373 194.786 61.5782 194.786 61.4192C194.463 61.4192 194.22 61.6577 194.059 61.8963L193.978 61.6577C193.817 61.5782 193.978 62.1349 193.736 61.5782C193.736 61.8168 193.332 61.5782 193.655 62.1349C193.251 61.6577 193.251 62.0554 193.09 62.2144C193.413 62.6916 193.009 62.453 193.09 62.6916C192.847 62.294 193.009 62.2144 192.928 61.9758C193.09 62.6916 192.282 61.7373 192.686 62.7711L192.605 62.6916C192.605 62.6916 192.444 62.5325 192.363 62.5325C192.444 62.6916 192.524 62.7711 192.444 62.8507C192.363 62.8507 192.282 62.5325 192.201 62.453C192.201 62.7711 192.04 62.9302 192.201 63.3278C192.121 63.2483 191.959 63.0097 191.959 62.9302C191.878 63.3278 191.717 62.9302 191.636 63.2483C191.717 63.2483 191.475 62.7711 191.636 62.9302C191.313 62.3735 191.394 63.1688 191.071 62.8507L191.152 63.2483C191.071 63.3278 190.99 63.0097 190.99 62.8507C190.748 62.6916 190.748 62.9302 190.586 62.9302C190.586 62.8506 190.586 62.7711 190.586 62.8507H190.425C190.425 62.9302 190.425 63.1688 190.506 63.4073C190.425 63.2483 190.425 63.0892 190.586 63.2483Z" fill="#322015"/>
<path d="M192.928 64.5206C192.848 64.4411 192.848 64.3616 192.848 64.3616C192.848 64.4411 192.848 64.5206 192.928 64.5206Z" fill="#322015"/>
<path d="M188.729 64.5209C188.81 65.1572 188.81 64.4414 188.972 64.6005C188.891 64.68 188.972 65.0776 188.972 65.2367C188.972 64.4414 189.133 65.3957 189.295 65.1572C189.375 65.3957 189.214 65.4753 189.295 65.7138C189.375 65.4753 189.537 65.3957 189.537 64.9186C189.698 64.9186 189.86 64.9981 190.021 64.9186C189.941 65.0776 190.102 65.3162 190.021 65.7138C190.102 65.1572 190.264 64.5209 190.344 63.8847C190.506 64.3619 190.506 64.3619 190.587 64.8391C190.91 65.0776 190.506 64.3619 190.829 64.4414L190.748 64.3619C190.829 64.2028 190.667 63.7257 190.667 63.4076L190.425 63.5666C190.344 63.2485 190.506 63.2485 190.506 63.169C190.506 62.7714 190.344 62.9304 190.264 62.6123C190.264 62.8509 190.183 62.8509 190.183 62.9304L190.102 62.7714C189.941 62.6123 190.021 63.0895 189.941 63.0895C189.941 63.0099 189.941 63.0099 189.941 63.0099C189.941 63.2485 189.941 63.4871 189.941 63.5666H190.021C190.021 63.9643 189.86 64.2824 190.102 64.7595L189.86 64.68C189.779 64.2028 189.779 63.4871 189.86 63.4076V63.2485C189.698 63.0099 189.618 63.6462 189.779 64.0438C189.86 65.1572 189.375 64.1233 189.295 64.6005C189.214 64.2824 189.295 64.2028 189.375 63.9643C189.456 63.8847 189.456 63.8847 189.537 64.1233C189.779 63.8847 189.375 63.169 189.618 63.2485C189.779 63.4076 189.537 63.7257 189.698 63.8052V62.9304C189.618 62.9304 189.537 63.0895 189.456 63.2485C189.295 63.5666 189.052 63.5666 188.891 63.5666C188.729 63.5666 188.648 63.4076 188.648 63.4076C187.922 63.5666 187.195 63.6462 186.468 63.5666C186.226 63.6462 186.145 63.5666 185.903 64.3619C185.903 64.5209 186.064 64.5209 185.984 64.7595C186.064 64.4414 186.226 64.2824 186.307 64.3619C186.307 64.68 186.145 64.5209 186.145 64.6005C186.064 64.7595 186.064 64.8391 185.984 64.8391C186.064 65.3162 186.387 65.2367 186.549 64.68C186.63 64.9981 186.387 65.1572 186.307 65.3957C186.71 65.7139 187.033 65.6343 187.518 65.7138C187.518 65.1572 187.599 65.3957 187.679 64.9981V65.1572C187.679 65.0776 187.76 64.68 187.679 64.6005C187.922 64.9981 188.002 63.8847 188.083 63.6462V63.9643C188.245 63.8847 188.245 63.8847 188.325 63.7257C188.568 64.2824 188.164 63.8052 188.245 64.5209L188.325 64.4414C188.325 64.68 188.245 65.1572 188.245 65.3957C188.487 64.9186 188.568 65.5548 188.81 65.2367C188.81 65.5548 188.568 65.7934 188.568 65.8729C188.649 65.8729 188.81 65.6343 188.81 65.9524V65.5548C188.972 65.4753 188.81 65.9524 188.891 66.191C188.891 65.9524 188.487 64.7595 188.729 64.5209Z" fill="#322015"/>
<path d="M191.959 64.0437C191.878 64.0437 191.878 64.0437 191.878 64.1232C191.959 64.0437 191.959 64.0437 191.959 64.0437Z" fill="#322015"/>
<path d="M191.556 64.9185C191.556 64.998 191.556 64.998 191.556 65.0775C191.636 64.998 191.636 64.998 191.556 64.9185Z" fill="#322015"/>
<path d="M191.717 65.475C191.636 65.316 191.717 65.316 191.636 65.0774C191.636 65.2364 191.475 65.2364 191.717 65.475Z" fill="#322015"/>
<path d="M200.6 58.7154C200.519 58.6359 200.519 58.4768 200.358 58.4768V58.6359L200.6 58.7154Z" fill="#322015"/>
<path d="M200.035 58.7151H199.874L200.277 59.1127C200.277 58.9537 199.954 58.7946 200.035 58.7151Z" fill="#322015"/>
<path d="M199.631 58.7946L199.55 58.7151C199.55 58.7151 199.55 58.7946 199.631 58.7946Z" fill="#322015"/>
<path d="M199.792 58.9537L200.035 59.1923L199.954 58.8742L199.792 58.9537C199.712 58.8742 199.712 58.8742 199.631 58.7947L199.792 58.9537Z" fill="#322015"/>
<path d="M198.904 58.8742C199.066 58.9538 199.147 59.1128 199.308 59.1923C199.47 59.1923 199.066 58.7947 199.308 58.8742C199.47 59.1923 199.55 58.9538 199.712 59.0333C199.389 58.8742 199.147 58.7152 198.904 58.8742L199.147 58.9538C199.147 58.9538 199.066 58.8742 198.904 58.8742Z" fill="#322015"/>
<path d="M198.985 59.7491L198.743 59.431C198.904 59.5105 198.985 59.431 199.308 59.6695C199.308 59.59 199.147 59.5105 199.147 59.3514C199.308 59.431 199.47 59.5105 199.308 59.2719C198.985 59.2719 198.904 59.1924 198.743 59.2719C198.662 59.1924 198.743 59.1924 198.743 59.1924H198.5C198.743 59.5105 198.662 59.6695 198.985 59.7491Z" fill="#322015"/>
<path d="M198.662 59.6695C198.743 59.59 198.501 59.2719 198.258 59.1924C198.258 59.3514 198.339 59.431 198.339 59.5105C198.339 59.5105 198.42 59.431 198.662 59.6695Z" fill="#322015"/>
<path d="M198.501 59.8287C198.339 59.7492 197.935 59.5106 198.178 59.8287C198.258 59.6697 198.662 60.0673 198.501 59.8287Z" fill="#322015"/>
<path d="M197.693 60.1469H198.016C198.42 60.465 198.016 60.306 198.178 60.5445C198.339 60.465 198.258 60.3855 198.097 60.1469C198.178 60.1469 198.016 59.9083 197.935 59.7493C198.097 60.1469 197.209 59.3516 197.693 60.1469Z" fill="#322015"/>
<path d="M198.339 60.1466L198.258 59.9875V60.1466H198.339Z" fill="#322015"/>
<path d="M196.966 60.1469C196.481 59.8288 197.047 60.5445 196.724 60.465C196.724 60.465 196.643 60.3855 196.643 60.306L196.562 60.3855L196.481 60.306C196.724 60.5445 196.724 60.7036 196.885 60.9422C197.208 61.1012 196.643 60.6241 196.966 60.7831C197.047 60.9422 197.208 61.1012 197.289 61.1808C197.208 61.0217 197.127 60.8626 196.966 60.7036C196.966 60.6241 197.127 60.7831 197.208 60.8627C197.127 60.6241 196.804 60.306 196.966 60.306C197.208 60.465 197.289 60.7036 197.289 60.465C196.885 60.1469 197.451 60.3855 197.289 60.1469C197.451 60.1469 197.693 60.306 197.854 60.465C197.531 60.1469 197.37 59.8288 197.37 59.7493L197.451 60.1469L197.047 59.8288C197.208 60.0674 197.127 60.1469 196.966 60.1469Z" fill="#322015"/>
<path d="M198.016 60.624L198.097 60.7035L198.178 60.7831L198.016 60.624Z" fill="#322015"/>
<path d="M197.209 61.4193L196.966 61.2603L197.128 61.4193H197.209Z" fill="#322015"/>
<path d="M194.947 62.8508C195.109 62.9303 194.947 62.6917 194.786 62.4531C194.624 62.4531 194.947 62.6917 194.947 62.8508Z" fill="#322015"/>
<path d="M193.655 64.0437C193.817 64.2027 193.736 63.8846 193.898 63.8051C193.736 63.7256 193.655 63.8846 193.655 64.0437Z" fill="#322015"/>
<path d="M193.493 65.3163C193.493 65.2368 193.493 65.1572 193.413 65.1572L193.251 64.6005C193.009 64.4415 193.332 65.1572 193.493 65.3163Z" fill="#322015"/>
<path d="M192.686 65.7933L192.767 65.5547H192.686C192.605 65.3162 192.605 65.2366 192.605 64.998C192.525 65.1571 192.525 65.3957 192.686 65.7933Z" fill="#322015"/>
<path d="M192.605 64.8389C192.686 64.9979 192.686 64.9184 192.605 64.8389Z" fill="#322015"/>
<path d="M192.524 64.9182C192.605 64.9182 192.605 64.9182 192.524 64.9182C192.605 64.8387 192.524 64.7592 192.524 64.9182Z" fill="#322015"/>
<path d="M192.444 65.5544L192.202 65.7135L192.363 65.793C192.282 65.3954 192.605 65.8726 192.444 65.5544Z" fill="#322015"/>
<path d="M191.152 65.6343L191.071 65.3162C190.909 65.2367 190.909 66.1115 190.667 65.5548C190.748 65.7138 190.667 65.9524 190.829 66.0319C190.829 65.6343 190.99 65.5548 191.152 65.6343Z" fill="#322015"/>
<path d="M190.506 65.2366C190.506 65.1571 190.425 65.0776 190.425 64.998C190.344 64.998 190.344 65.1571 190.425 65.3161C190.263 64.7595 190.506 65.5547 190.506 65.2366Z" fill="#322015"/>
<path d="M189.779 65.3956C189.86 65.3956 189.86 65.3161 189.779 65.2366C189.617 65.3161 189.779 65.6342 189.698 65.9523C189.941 66.1114 189.941 65.5547 189.779 65.3956Z" fill="#322015"/>
<path d="M188.487 62.9302C188.568 63.2483 188.648 63.1688 188.648 63.0892C188.648 63.0892 188.568 63.0097 188.487 62.9302Z" fill="#322015"/>
<path d="M188.729 65.475L188.81 65.5546V65.0774L188.729 65.475Z" fill="#322015"/>
</g>
</g>
<path d="M19.4661 132.914C17.5279 131.88 211.986 130.051 223.292 132.914C231.448 134.982 201.892 137.049 167.086 136.97C130.101 136.97 87.1388 134.743 75.1063 135.936C51.6873 138.163 26.0072 136.413 19.4661 132.914Z" fill="#1B1C1E"/>
<path d="M176.696 106.193C169.994 111.68 164.987 127.745 163.372 133.232C163.049 134.345 161.999 135.141 160.788 135.141H156.427C155.135 135.141 154.085 134.186 153.923 132.914C152.066 116.372 157.638 97.6835 157.638 97.6835C157.638 97.6835 162.887 92.7529 169.913 94.2639C177.019 95.9339 188.487 96.4906 176.696 106.193Z" fill="#D29F7E"/>
<path d="M156.588 134.981C156.588 134.981 156.185 131.562 156.75 128.778" stroke="#1B1C1E" stroke-width="1.2604" stroke-miterlimit="10" stroke-linecap="round" stroke-linejoin="round"/>
<path d="M160.222 134.663C160.222 134.663 160.384 131.641 160.707 130.289" stroke="#1B1C1E" stroke-width="1.2604" stroke-miterlimit="10" stroke-linecap="round" stroke-linejoin="round"/>
<mask id="mask1_37_4723" style="mask-type:luminance" maskUnits="userSpaceOnUse" x="153" y="93" width="29" height="43">
<path d="M176.696 106.193C169.994 111.68 164.987 127.745 163.372 133.232C163.049 134.345 161.999 135.141 160.788 135.141H156.427C155.135 135.141 154.085 134.186 153.923 132.914C152.066 116.372 157.638 97.6835 157.638 97.6835C157.638 97.6835 162.887 92.7529 169.913 94.2639C177.019 95.9339 188.487 96.4906 176.696 106.193Z" fill="white"/>
</mask>
<g mask="url(#mask1_37_4723)">
<g opacity="0.84">
<path d="M164.987 98.479V98.2405C165.068 98.32 165.068 98.3995 164.987 98.479Z" fill="#322015"/>
<path d="M169.025 101.501C169.025 101.501 169.025 101.581 168.944 101.581C168.944 101.501 169.025 101.501 169.025 101.501Z" fill="#322015"/>
<path d="M174.193 102.058C174.274 102.137 174.274 102.058 174.193 102.058V102.137C174.193 102.217 174.193 102.137 174.193 102.058Z" fill="#322015"/>
<path d="M173.062 105.398L172.901 105.557C172.982 105.398 172.982 105.398 173.062 105.398Z" fill="#322015"/>
<path d="M174.435 101.342C174.435 101.421 174.354 101.421 174.354 101.501C174.354 101.421 174.354 101.421 174.435 101.342Z" fill="#322015"/>
<path d="M169.832 99.1152C169.832 99.1948 169.832 99.1948 169.832 99.1948C169.751 99.1948 169.751 99.1948 169.832 99.1152Z" fill="#322015"/>
<path d="M163.291 98.1608C163.21 98.1608 163.21 98.0813 163.21 98.0813C163.291 98.0018 163.291 98.0018 163.291 98.1608Z" fill="#322015"/>
<path d="M173.062 100.865C172.497 101.262 173.143 101.024 172.659 101.421C172.739 101.262 172.739 101.103 172.416 101.342C172.174 101.66 172.578 101.421 172.174 101.819L172.255 101.581C172.013 101.74 171.77 102.058 171.69 101.978C172.174 101.342 171.205 101.899 171.205 101.74V101.819C171.044 101.899 170.963 101.899 170.882 101.978L170.963 101.899C170.64 102.137 170.478 102.296 170.478 102.217C170.559 101.978 170.559 101.978 170.478 101.899C170.398 101.819 170.317 101.819 170.398 101.66C170.398 101.819 170.478 101.819 170.559 101.74L170.721 101.262C170.559 101.262 170.559 101.74 170.559 101.342C170.721 100.865 170.801 101.103 170.801 101.262C170.801 101.342 170.801 101.342 170.882 101.342C170.882 101.262 170.963 101.103 170.882 101.024V100.944H170.963C171.124 100.944 171.447 100.944 171.124 101.581C171.286 101.501 171.447 101.262 171.447 101.183C171.286 101.581 171.77 100.944 171.69 101.342C172.093 100.865 171.609 100.865 171.69 100.467C171.447 100.626 171.367 100.547 171.286 100.467C171.124 100.388 171.124 100.149 170.963 100.07C170.801 100.547 170.801 100.944 170.64 101.183C170.317 101.421 170.559 100.865 170.478 100.547C170.317 100.626 170.155 101.262 169.994 101.262V101.581C169.671 102.137 169.994 101.262 169.832 101.342C169.913 101.183 169.994 101.024 170.075 101.103C170.155 100.865 170.155 100.785 170.075 100.706C170.155 100.388 170.236 100.07 170.075 100.149C170.075 100.547 169.832 100.388 169.751 100.547V100.626C169.671 100.467 169.59 100.467 169.509 100.388V100.467C169.509 100.308 169.59 99.8309 169.428 99.9105C169.348 100.07 169.348 100.626 169.267 100.547C169.186 100.865 169.348 100.944 169.428 100.865C169.267 100.944 169.105 101.421 169.186 101.421C169.025 101.74 169.105 101.262 168.944 101.342C169.025 101.262 169.025 101.103 169.025 101.024C168.863 101.501 168.782 100.944 168.863 100.626L168.944 100.944C169.105 100.547 169.025 100.229 169.105 100.07C168.863 100.706 168.863 99.6719 168.621 100.149L168.782 99.8309C168.459 99.9105 168.379 99.1947 168.136 98.9561C168.217 99.1947 167.975 99.9105 168.217 99.6719C167.894 99.7514 167.975 100.308 167.733 100.626C167.49 100.785 167.813 99.99 167.813 99.7514L167.894 99.9105C167.894 99.0357 167.329 99.9105 167.167 99.3538C167.087 99.5924 167.167 99.5128 167.248 99.5924C167.006 99.99 167.167 99.5128 167.087 99.2742C166.925 99.2742 166.683 99.4333 166.683 99.99C166.521 100.07 166.764 99.6719 166.764 99.5128L166.683 99.5924V98.9561C166.521 99.1152 166.279 99.3538 166.118 99.8309C165.794 99.6719 166.279 98.638 166.118 98.3995C165.956 98.638 166.037 98.7971 166.037 98.9561L165.875 98.8766C165.795 99.4333 166.037 99.1947 165.875 99.8309C165.875 99.1152 165.714 99.5924 165.552 99.1152V99.0357C165.552 98.5585 165.229 98.7971 165.148 98.7176C165.148 99.0357 165.31 99.0357 165.391 99.1947C165.229 99.3538 164.906 99.1152 164.825 98.479C164.745 98.5585 164.502 98.7971 164.583 99.0357C164.26 99.1152 164.583 98.1609 164.341 98.3199L164.26 98.7971C163.856 99.3538 163.776 98.1609 163.453 98.638L163.533 98.0813C163.453 98.3199 163.291 98.3995 163.21 98.638L163.291 98.8766C163.13 99.3538 163.21 98.3995 163.049 98.7176C163.049 98.5585 163.291 98.1609 163.291 98.0018C163.776 98.3995 164.502 97.7632 164.987 98.3995C164.987 98.479 164.906 98.5585 164.906 98.638C164.987 98.479 165.068 98.7176 165.148 98.3995V98.3199C165.31 98.479 165.552 97.8428 165.633 97.8428C165.633 98.2404 165.956 97.7632 165.794 98.3995L165.956 98.0018C165.956 98.2404 165.875 98.5585 165.875 98.7176C165.956 98.7176 166.037 98.3995 166.037 98.2404C166.521 98.0814 166.925 98.2404 167.329 98.5585V98.2404C167.49 98.0814 167.571 98.8766 167.652 98.0813C167.813 98.3995 168.298 98.0018 168.056 98.7971C168.379 98.0814 168.621 98.638 168.863 98.7971C168.621 99.4333 169.025 99.0357 169.025 99.3538C169.186 98.8766 168.944 98.7971 169.025 98.3995C169.105 99.2743 169.994 98.0814 169.671 99.4333C169.751 99.3538 169.751 99.3538 169.751 99.2742C169.832 99.2742 169.994 99.1152 169.994 99.0357C169.913 99.2743 169.832 99.3538 169.913 99.4333C169.994 99.4333 170.075 99.0357 170.155 98.8766C170.236 99.1947 170.559 99.4333 170.398 99.99C170.478 99.8309 170.64 99.5924 170.64 99.5128C170.801 100.07 170.963 99.5128 171.205 99.9105C171.044 99.8309 171.367 99.3538 171.124 99.5128C171.286 99.1947 171.447 99.2743 171.609 99.3538C171.77 99.5128 171.932 99.8309 172.255 99.7514C172.174 99.9105 172.174 100.07 172.093 100.229C172.255 100.467 172.578 100.07 172.497 99.8309C172.82 99.8309 172.901 99.9105 172.901 100.07C172.982 100.149 172.982 100.308 173.062 100.388C173.143 100.388 173.143 100.308 173.143 100.229C173.224 100.308 173.305 100.388 173.385 100.467C173.305 100.547 173.224 100.865 172.982 101.024C173.224 101.103 173.305 100.865 173.062 100.865Z" fill="#322015"/>
<path d="M169.59 101.66C169.671 101.581 169.671 101.501 169.751 101.501C169.751 101.581 169.671 101.581 169.59 101.66Z" fill="#322015"/>
<path d="M174.112 104.046C173.466 104.443 174.112 103.807 173.87 103.807C173.87 103.966 173.466 104.205 173.304 104.284C174.031 103.569 173.062 104.284 173.062 103.887C172.82 104.046 172.82 104.205 172.578 104.443C172.658 104.205 172.658 103.887 173.062 103.569C172.901 103.33 172.658 103.33 172.658 103.171C172.578 103.41 172.255 103.569 171.932 103.887C172.335 103.33 172.739 102.535 173.143 101.819C172.658 102.217 172.578 102.217 172.174 102.614C171.689 102.614 172.578 102.217 172.255 102.058H172.416C172.497 101.819 172.901 101.421 173.143 101.183C173.224 101.262 173.304 101.421 173.304 101.501C173.627 101.262 173.466 101.103 173.466 100.944C173.789 100.547 173.87 100.865 174.112 100.547C173.87 100.785 174.112 100.865 174.031 101.024L174.193 100.865C174.516 100.865 174.112 101.262 174.193 101.421C174.274 101.421 174.274 101.342 174.354 101.342C174.193 101.501 173.951 101.74 173.951 101.899V101.819C173.627 102.217 173.547 102.694 172.981 102.853L173.304 103.012C173.789 102.614 174.435 102.058 174.354 101.819L174.516 101.66C174.92 101.58 174.435 102.296 173.951 102.535C172.901 103.489 174.274 103.012 173.951 103.569C174.274 103.33 174.354 103.171 174.516 102.932C174.516 102.853 174.516 102.773 174.193 103.012C174.193 102.614 175.243 102.376 174.839 102.137C174.597 102.137 174.516 102.694 174.274 102.455L175 101.66C175.081 101.819 175.081 102.058 175 102.217C174.92 103.251 175.727 103.33 175.727 103.33C176.292 104.364 176.777 105.318 177.261 106.352C177.342 106.75 177.423 106.829 176.535 107.465C176.292 107.465 176.292 107.306 175.969 107.545C176.292 107.306 176.454 107.068 176.292 106.988C175.969 107.147 176.212 107.227 176.131 107.227H176.05C175.889 107.306 175.808 107.465 175.808 107.465C175.243 107.545 175.162 107.227 175.646 106.75C175.243 106.829 175.162 107.147 175 107.386C174.435 107.068 174.274 106.67 173.951 106.273C174.516 105.875 174.274 105.954 174.597 105.716L174.354 105.795C174.435 105.716 174.839 105.398 175 105.477C174.354 105.477 175.566 104.682 175.646 104.284L175.323 104.523C175.243 104.364 175.243 104.284 175.323 104.046C174.597 104.125 175.404 104.364 174.597 104.762L174.677 104.603C174.435 104.841 173.951 105.159 173.789 105.398C174.112 104.841 173.385 105.159 173.547 104.682C173.224 104.921 173.143 105.318 173.143 105.398C173.062 105.318 173.143 105 172.901 105.239L173.304 104.921C173.224 104.762 172.901 105.159 172.658 105.318C172.578 105.08 174.031 104.523 174.112 104.046Z" fill="#322015"/>
<path d="M170.721 101.024C170.801 101.024 170.801 101.024 170.882 101.103C170.801 101.103 170.801 101.024 170.721 101.024Z" fill="#322015"/>
<path d="M170.963 102.137C170.882 102.217 170.882 102.217 170.882 102.296C170.801 102.217 170.882 102.217 170.963 102.137Z" fill="#322015"/>
<path d="M170.478 102.694C170.64 102.535 170.64 102.535 170.801 102.296C170.72 102.376 170.801 102.535 170.478 102.694Z" fill="#322015"/>
<path d="M157.477 99.9106C157.477 99.7515 157.396 99.5925 157.396 99.5129L157.557 99.672L157.477 99.9106Z" fill="#322015"/>
<path d="M157.88 99.4332L158.042 99.2742L158.123 99.9104C157.88 99.9104 158.042 99.4332 157.88 99.4332Z" fill="#322015"/>
<path d="M158.365 99.3538V99.831L158.204 99.4333L158.365 99.3538C158.284 99.1948 158.365 99.1948 158.365 99.1152V99.3538Z" fill="#322015"/>
<path d="M159.011 98.5583C158.93 98.7174 159.011 99.0355 159.011 99.1946C158.85 99.3536 158.85 98.6379 158.688 98.8765C158.85 99.2741 158.607 99.115 158.446 99.4332C158.527 98.956 158.607 98.7174 158.85 98.5583V98.8765C159.011 98.8765 158.93 98.6379 159.011 98.5583Z" fill="#322015"/>
<path d="M159.818 99.354L159.738 98.8768C159.657 99.1154 159.495 99.0359 159.415 99.513C159.334 99.4335 159.334 99.2744 159.334 99.1154C159.253 99.354 159.172 99.513 159.172 99.1949C159.495 98.8768 159.415 98.7973 159.738 98.7178C159.738 98.6382 159.738 98.6382 159.657 98.6382L159.899 98.3997C159.818 98.9563 160.061 99.0359 159.818 99.354Z" fill="#322015"/>
<path d="M160.142 99.0358C159.98 98.9563 159.98 98.5586 160.061 98.3201L160.303 98.7177C160.222 98.6382 160.142 98.6382 160.142 99.0358Z" fill="#322015"/>
<path d="M160.384 99.0358C160.465 98.7972 160.626 98.32 160.707 98.7972C160.465 98.7177 160.465 99.4334 160.384 99.0358Z" fill="#322015"/>
<path d="M161.434 98.797L161.111 99.0355C160.949 99.5922 161.192 99.2741 161.272 99.5127C161.03 99.5922 161.111 99.4332 160.949 99.0355C160.869 99.0355 160.788 98.7174 160.707 98.5584C161.111 99.1151 161.272 97.6836 161.434 98.797Z" fill="#322015"/>
<path d="M160.788 99.2742V99.0356L160.949 99.2742H160.788Z" fill="#322015"/>
<path d="M162.241 98.2406C162.483 97.6043 162.483 98.7177 162.726 98.3996C162.726 98.3201 162.726 98.3201 162.726 98.2406L162.887 98.3201V98.161C162.806 98.5587 162.968 98.7972 162.968 99.1153C162.726 99.513 162.968 98.5587 162.726 99.0358C162.726 99.1949 162.726 99.513 162.726 99.672C162.645 99.4335 162.645 99.1949 162.645 98.9563C162.564 98.8768 162.564 99.1153 162.483 99.2744C162.403 99.0358 162.483 98.3996 162.241 98.5587C162.08 98.8768 162.241 99.1154 162.08 98.9563C162.241 98.3201 161.837 99.0358 161.837 98.6382C161.676 98.7177 161.514 99.1154 161.514 99.3539C161.595 98.8768 161.514 98.3996 161.434 98.2406L161.676 98.7177L161.837 98.161C161.999 98.3201 162.08 98.3201 162.241 98.2406Z" fill="#322015"/>
<path d="M161.515 99.5129L161.595 99.5925L161.515 99.7515V99.5129Z" fill="#322015"/>
<path d="M163.049 99.7515L163.21 99.4333V99.6719L163.049 99.7515Z" fill="#322015"/>
<path d="M166.602 100.07C166.441 100.229 166.521 99.831 166.602 99.5129C166.764 99.5129 166.521 99.9106 166.602 100.07Z" fill="#322015"/>
<path d="M168.54 101.103C168.379 101.342 168.379 100.944 168.217 100.865C168.379 100.785 168.54 100.944 168.54 101.103Z" fill="#322015"/>
<path d="M169.025 102.773C169.025 102.614 169.025 102.535 169.106 102.535L169.267 101.819C169.429 101.58 169.106 102.455 169.025 102.773Z" fill="#322015"/>
<path d="M169.913 103.171L169.832 102.853H169.913C169.994 102.535 169.994 102.455 169.994 102.137C170.074 102.376 170.074 102.694 169.913 103.171Z" fill="#322015"/>
<path d="M169.913 101.978C169.994 102.058 169.994 102.058 169.913 101.978C169.913 102.217 169.913 102.137 169.913 101.978Z" fill="#322015"/>
<path d="M170.074 102.137V102.217C169.993 102.137 169.993 102.137 170.074 102.137C170.074 101.978 169.993 101.978 170.074 102.137Z" fill="#322015"/>
<path d="M170.155 102.853C170.155 102.932 170.155 102.932 170.155 102.932L170.074 103.012C170.155 102.773 170.155 102.853 170.074 102.932C170.074 103.012 169.994 103.091 170.155 102.853Z" fill="#322015"/>
<path d="M170.882 103.012L171.205 102.774C171.366 102.853 170.801 103.648 171.447 103.251C171.205 103.33 171.124 103.648 170.882 103.569C171.205 103.251 171.043 103.092 170.882 103.012Z" fill="#322015"/>
<path d="M171.851 103.091C171.932 103.012 172.013 102.932 172.174 102.932C172.255 102.932 172.174 103.171 172.013 103.25C172.336 102.773 171.609 103.41 171.851 103.091Z" fill="#322015"/>
<path d="M172.336 103.807C172.336 103.728 172.336 103.648 172.416 103.648C172.497 103.807 172.093 104.046 171.851 104.284C171.609 104.364 172.093 103.887 172.336 103.807Z" fill="#322015"/>
<path d="M175.808 102.932C175.485 103.171 175.404 103.012 175.566 102.853C175.485 103.012 175.646 103.012 175.808 102.932Z" fill="#322015"/>
<path d="M173.224 104.761H173.062L173.547 104.443L173.224 104.761Z" fill="#322015"/>
<path d="M173.466 105.795L173.224 106.034V105.875L173.466 105.795Z" fill="#322015"/>
<path d="M173.709 105.875L173.789 106.034H173.628C173.466 106.034 173.709 105.875 173.709 105.875Z" fill="#322015"/>
<path d="M173.87 106.352H173.789L173.951 106.114L173.87 106.352Z" fill="#322015"/>
<path d="M177.343 107.386C177.666 107.148 177.504 107.466 177.666 107.466C177.585 107.466 177.1 107.625 177.343 107.386Z" fill="#322015"/>
</g>
</g>
<path d="M38.1205 94.3433C38.1205 94.3433 25.1997 100.467 22.5348 115.577C22.2925 116.849 22.2117 118.201 22.2925 119.553C22.2925 120.428 22.9385 121.223 23.8268 121.382C24.7151 121.541 25.8457 121.701 26.734 121.86C27.7031 122.019 28.6721 121.621 29.2374 120.826C30.8525 118.519 34.7288 113.668 41.1892 111.044C41.1892 111.044 48.0534 110.567 49.9915 105.716C51.9296 100.865 44.2579 93.1504 42.3198 93.1504C40.4624 93.2299 38.1205 94.3433 38.1205 94.3433Z" fill="#D29F7E"/>
<path d="M24.0693 121.462C24.0693 121.462 24.4731 118.043 25.1999 116.293" stroke="#1B1C1E" stroke-width="1.2604" stroke-miterlimit="10" stroke-linecap="round" stroke-linejoin="round"/>
<path d="M26.2495 121.86C26.2495 121.86 27.2993 117.963 28.9144 116.531" stroke="#1B1C1E" stroke-width="1.2604" stroke-miterlimit="10" stroke-linecap="round" stroke-linejoin="round"/>
<mask id="mask2_37_4723" style="mask-type:luminance" maskUnits="userSpaceOnUse" x="22" y="93" width="29" height="29">
<path d="M38.1205 94.3433C38.1205 94.3433 25.1997 100.467 22.5348 115.577C22.2925 116.849 22.2117 118.201 22.2925 119.553C22.2925 120.428 22.9385 121.223 23.8268 121.382C24.7151 121.541 25.8457 121.701 26.734 121.86C27.7031 122.019 28.6721 121.621 29.2374 120.826C30.8525 118.519 34.7288 113.668 41.1892 111.044C41.1892 111.044 48.0534 110.567 49.9915 105.716C51.9296 100.865 44.2579 93.1504 42.3198 93.1504C40.4624 93.2299 38.1205 94.3433 38.1205 94.3433Z" fill="white"/>
</mask>
<g mask="url(#mask2_37_4723)">
<path d="M40.059 103.33C39.9782 103.33 39.9782 103.409 39.8975 103.409C39.8975 103.33 39.9782 103.33 40.059 103.33Z" fill="#322015"/>
<path d="M39.8975 98.24H40.1397C39.9782 98.3195 39.8975 98.3195 39.8975 98.24Z" fill="#322015"/>
<path d="M38.7667 103.727C38.6859 103.807 38.6859 103.807 38.5244 103.886L38.7667 103.727Z" fill="#322015"/>
<path d="M40.3816 108.181V108.26C40.3008 108.26 40.3816 108.181 40.3816 108.181Z" fill="#322015"/>
<path d="M40.1397 108.022C40.0589 108.101 40.0589 108.101 40.1397 108.022Z" fill="#322015"/>
<path d="M40.9472 107.704C40.8664 107.704 40.8664 107.783 40.7856 107.783C40.7856 107.783 40.8664 107.704 40.9472 107.704Z" fill="#322015"/>
<path d="M40.1393 103.33H40.0586C40.1393 103.25 40.1393 103.25 40.1393 103.33Z" fill="#322015"/>
<path d="M40.0586 96.4108C40.0586 96.3312 40.1393 96.3312 40.1393 96.2517C40.1393 96.3312 40.1393 96.4108 40.0586 96.4108Z" fill="#322015"/>
<path d="M40.2202 106.59C39.5742 106.59 40.2202 106.749 39.655 106.749C39.8165 106.67 39.8972 106.59 39.5742 106.511C39.2512 106.59 39.5742 106.67 39.0897 106.749L39.2512 106.59C39.0089 106.511 38.6051 106.67 38.6051 106.59C39.3319 106.431 38.3629 106.193 38.4436 106.034L38.3629 106.113L38.0399 105.874C38.0399 105.874 38.1206 105.874 38.2014 105.874C37.8783 105.795 37.6361 105.636 37.7168 105.477C38.1206 105.397 37.8783 104.92 38.2014 104.841C38.1206 104.92 38.1206 105 38.2014 105.079H38.6859C38.6859 104.92 38.2821 105.079 38.5244 104.92C39.1704 104.92 38.5244 105.159 38.6051 105.238C38.7666 105.159 38.8474 105.159 38.9281 105.079C38.9281 105.318 39.1704 105.556 38.5244 105.715C38.6859 105.795 38.9282 105.715 39.0089 105.715C38.6051 105.874 39.4127 105.795 39.0089 105.954C39.5742 105.874 39.3319 105.636 39.655 105.477C39.1704 105.238 39.6549 105 39.7357 104.761C39.3319 104.761 38.9282 104.92 38.6859 104.841C38.3629 104.602 38.9282 104.602 39.1704 104.443C39.0089 104.284 38.4436 104.443 38.4436 104.204L38.1206 104.363C37.4746 104.204 38.3629 104.204 38.2014 104.125C38.3629 104.125 38.5244 104.125 38.5244 104.284C38.7666 104.284 38.8474 104.204 38.8474 104.125C39.1704 104.045 39.4934 104.045 39.3319 103.886C38.9281 103.966 39.0897 103.727 38.8474 103.727L38.7666 103.807C38.9282 103.648 38.8474 103.568 38.9281 103.489H38.8474C39.0089 103.409 39.4934 103.33 39.3319 103.25C39.1704 103.25 38.6859 103.409 38.7666 103.25C38.5244 103.25 38.4436 103.409 38.6051 103.568C38.5244 103.409 38.0399 103.33 38.0399 103.568C37.7168 103.489 38.2014 103.409 38.0399 103.33C38.1206 103.33 38.2821 103.33 38.3629 103.33C37.8783 103.33 38.3629 103.011 38.6859 103.011L38.4436 103.171C38.8474 103.171 39.0897 103.011 39.2512 103.091C38.6859 103.011 39.5742 102.693 39.0089 102.614L39.3319 102.693C39.1704 102.375 39.8165 102.137 39.978 101.819C39.8165 101.898 39.1704 101.898 39.3319 102.137C39.1704 101.819 38.6859 102.057 38.3629 101.898C38.1206 101.66 39.0089 101.819 39.1704 101.739H39.0089C39.7357 101.58 38.8474 101.103 39.3319 100.785C39.1704 100.785 39.2512 100.864 39.1704 100.864C38.7666 100.705 39.2512 100.705 39.4127 100.626C39.3319 100.467 39.1704 100.308 38.6859 100.387C38.6051 100.228 39.0089 100.387 39.0897 100.308H39.0089L39.5742 100.149C39.4127 99.9895 39.1704 99.8304 38.6859 99.7509C38.7666 99.4328 39.7357 99.6714 39.978 99.4328C39.7357 99.2737 39.5742 99.4328 39.4127 99.4328L39.4934 99.1942C38.9282 99.2737 39.2512 99.4328 38.6051 99.4328C39.2512 99.2737 38.7666 99.1942 39.2512 98.9556H39.3319C39.7357 98.8761 39.4934 98.6375 39.5742 98.4785C39.3319 98.558 39.2512 98.717 39.1704 98.7966C39.0089 98.6375 39.1704 98.2399 39.7357 98.0808C39.6549 98.0013 39.4127 97.7627 39.1704 97.9218C39.0897 97.6037 39.978 97.8422 39.8165 97.5241H39.4127C38.8474 97.206 39.978 96.9675 39.4934 96.6493H39.978C39.7357 96.5698 39.655 96.4108 39.4934 96.4108L39.3319 96.5698C38.9281 96.4108 39.7357 96.4903 39.4934 96.2517C39.655 96.2517 39.978 96.4108 40.1395 96.4108C39.8165 97.047 40.4625 97.6832 39.8972 98.2399C39.8165 98.2399 39.7357 98.1603 39.655 98.1603C39.7357 98.2399 39.655 98.3194 39.8972 98.3194C39.7357 98.4785 40.3817 98.6375 40.3817 98.7966C40.0587 98.8761 40.5433 99.1147 39.8972 99.0351L40.301 99.1942C40.0587 99.1942 39.8165 99.1942 39.655 99.2737C39.7357 99.3532 39.8972 99.4328 40.0587 99.3533C40.301 99.8304 40.2202 100.308 39.978 100.705L40.301 100.626C40.4625 100.705 39.8165 101.023 40.5433 100.944C40.2202 101.182 40.7048 101.5 39.978 101.5C40.7048 101.66 40.301 102.057 40.1395 102.296C39.4934 102.216 39.978 102.534 39.655 102.614C40.1395 102.693 40.1395 102.375 40.4625 102.375C39.655 102.693 41.0278 103.25 39.7357 103.33C39.8165 103.33 39.8165 103.33 39.8972 103.33C39.8972 103.409 40.1395 103.489 40.1395 103.568C39.8972 103.568 39.8165 103.489 39.7357 103.648C39.8165 103.727 40.1395 103.727 40.301 103.727C39.978 103.966 39.8972 104.284 39.4127 104.363C39.5742 104.443 39.8165 104.522 39.8972 104.443C39.4934 104.761 39.978 104.761 39.7357 105.159C39.7357 105 40.301 105.079 40.0587 104.92C40.7855 105.079 39.8972 105.477 40.301 105.715L39.8165 105.874C39.7357 106.034 40.1395 106.034 40.301 105.954C40.624 106.272 40.301 106.352 40.301 106.59C40.3818 106.59 40.4625 106.59 40.4625 106.59V106.908C40.3817 106.908 40.1395 107.067 39.8165 107.067C40.2202 106.829 40.3817 106.749 40.2202 106.59Z" fill="#322015"/>
<path d="M37.959 103.966C38.0397 103.966 38.1205 104.046 38.1205 104.046C38.0397 104.046 37.959 104.046 37.959 103.966Z" fill="#322015"/>
<path d="M39.332 109.851C38.6052 109.851 39.4127 109.612 39.2512 109.533C39.1705 109.692 38.7667 109.692 38.5244 109.692C39.4127 109.453 38.3629 109.533 38.5244 109.215C38.2014 109.215 38.2014 109.374 37.8784 109.453C38.1207 109.294 38.2014 108.976 38.6859 108.976C38.6859 108.658 38.5244 108.499 38.5244 108.34C38.3629 108.578 38.0399 108.419 37.6361 108.578C38.2014 108.34 38.9282 107.863 39.5742 107.545C39.0089 107.545 38.9282 107.545 38.4437 107.545C38.0399 107.226 38.9282 107.465 38.7667 107.147L38.8474 107.306C39.009 107.147 39.4935 107.147 39.8973 107.067L39.8165 107.465C40.2203 107.465 40.1395 107.226 40.2203 107.147C40.7048 106.988 40.5433 107.306 40.9471 107.306C40.624 107.385 40.7856 107.545 40.6241 107.624H40.8663C41.1086 107.783 40.5433 107.942 40.6241 108.101C40.7048 108.101 40.7048 108.101 40.7856 108.101C40.5433 108.181 40.301 108.26 40.2203 108.34V108.26C39.7357 108.419 39.4127 108.737 38.9282 108.578L39.0897 108.976C39.655 108.897 40.4625 108.817 40.4625 108.578H40.7048C41.0278 108.737 40.301 109.056 39.8165 108.976C38.5244 109.215 39.8165 109.533 39.2512 109.851C39.5742 109.851 39.7357 109.692 39.978 109.612C39.978 109.533 39.978 109.453 39.7357 109.453C39.8973 109.056 40.8663 109.453 40.7048 109.056C40.5433 108.897 40.1395 109.294 40.0588 109.056L41.0278 108.817C41.0278 108.976 40.8663 109.135 40.7856 109.294C40.2203 110.169 40.7856 110.646 40.7856 110.646C40.7856 111.203 40.7856 111.839 40.8663 112.396C40.8663 112.952 40.9471 113.509 41.0278 113.907C40.9471 114.145 40.9471 114.066 40.3818 114.781C40.1395 114.861 40.0588 114.622 39.8973 114.861C40.1395 114.622 40.301 114.463 40.2203 114.304C39.8973 114.384 40.1395 114.543 40.0588 114.543C39.8973 114.622 39.8165 114.702 39.8165 114.781C39.1705 114.781 39.1705 114.225 39.7357 113.907C39.332 113.827 39.2512 114.145 39.009 114.384C38.5244 113.748 38.5244 113.27 38.3629 112.634C39.0089 112.555 38.7667 112.475 39.1705 112.396H38.9282C39.0089 112.396 39.4127 112.237 39.5742 112.396C39.0897 112.078 40.301 111.839 40.5433 111.6L40.2203 111.68C40.2203 111.441 40.2203 111.441 40.3818 111.203C39.7357 110.964 40.301 111.521 39.4935 111.521L39.5742 111.441C39.2512 111.521 38.7667 111.6 38.5244 111.759C39.0089 111.362 38.2822 111.282 38.6052 110.964C38.2822 111.044 38.0399 111.362 37.9591 111.441C37.8784 111.362 38.1206 111.123 37.7976 111.123L38.2014 111.044C38.2014 110.805 37.7976 111.123 37.4746 111.044C37.6361 110.01 39.0897 110.328 39.332 109.851Z" fill="#322015"/>
<path d="M38.8477 104.92C38.8477 105 38.8477 105 38.8477 105.079C38.7669 105 38.7669 105 38.8477 104.92Z" fill="#322015"/>
<path d="M37.394 106.034C37.6363 106.034 37.6363 105.954 37.8786 105.954C37.7171 106.034 37.7171 106.193 37.394 106.034Z" fill="#322015"/>
<path d="M39.1704 92.9911C39.2512 92.8321 39.6549 92.8321 39.8972 92.9116L39.4934 93.2297C39.5742 93.1502 39.5742 93.0707 39.1704 92.9911Z" fill="#322015"/>
<path d="M39.1707 93.23C39.413 93.3095 39.8167 93.4686 39.413 93.5481C39.4937 93.389 38.8477 93.389 39.1707 93.23Z" fill="#322015"/>
<path d="M39.4128 94.5021L39.1705 94.184C38.6053 94.025 39.009 94.3431 38.7668 94.3431C38.686 94.025 38.8475 94.184 39.2513 94.025C39.2513 93.9454 39.4936 93.8659 39.6551 93.7864C39.0898 94.1045 40.3819 94.2635 39.4128 94.5021Z" fill="#322015"/>
<path d="M38.9282 93.7864H39.1705L38.9282 93.8659V93.7864Z" fill="#322015"/>
<path d="M39.8971 95.2976C40.5431 95.5362 39.4933 95.6158 39.7355 95.8543C39.7355 95.8543 39.8163 95.8543 39.8971 95.8543L39.8163 96.0134H39.9778C39.574 95.9339 39.4125 96.1724 39.0895 96.1724C38.6857 95.9339 39.574 96.0929 39.1703 95.9339C39.0088 95.9339 38.7665 95.9339 38.605 96.0134C38.8472 95.9339 39.0088 95.9339 39.251 95.8543C39.3318 95.7748 39.0895 95.7748 38.928 95.6953C39.1703 95.6157 39.7356 95.6158 39.6548 95.3772C39.3318 95.2181 39.0895 95.3772 39.251 95.2181C39.8163 95.3772 39.1703 94.9795 39.574 94.9C39.4933 94.741 39.0895 94.5819 38.928 94.5819C39.4125 94.6614 39.8163 94.5024 39.9778 94.4229L39.574 94.6614L40.1393 94.8205C39.7355 94.9795 39.8163 95.1386 39.8971 95.2976Z" fill="#322015"/>
<path d="M38.6052 95.9336C38.6052 95.9336 38.5244 95.9336 38.5244 96.0131C38.5244 96.0131 38.5244 96.0131 38.6052 95.9336Z" fill="#322015"/>
<path d="M38.7669 94.5815L38.6054 94.6611L38.4438 94.5815H38.7669Z" fill="#322015"/>
<path d="M38.2017 96.093C38.2017 96.0134 38.3632 96.093 38.3632 96.093H38.2017Z" fill="#322015"/>
<path d="M38.5244 96.2517L38.8474 96.4108H38.6052L38.5244 96.2517Z" fill="#322015"/>
<path d="M38.605 100.228C38.4435 100.069 38.7665 100.149 39.0895 100.149C39.1703 100.308 38.7665 100.069 38.605 100.228Z" fill="#322015"/>
<path d="M38.1204 102.694C37.8782 102.534 38.2819 102.455 38.2012 102.296C38.3627 102.375 38.2819 102.534 38.1204 102.694Z" fill="#322015"/>
<path d="M36.748 103.727C36.9096 103.727 36.9096 103.648 36.9903 103.727L37.6364 103.568C37.9594 103.727 37.0711 103.727 36.748 103.727Z" fill="#322015"/>
<path d="M36.667 104.92L36.9092 104.761V104.841C37.1515 104.761 37.313 104.761 37.5553 104.682C37.4745 104.761 37.1515 104.92 36.667 104.92Z" fill="#322015"/>
<path d="M37.7169 104.443C37.7169 104.523 37.7169 104.523 37.7169 104.443C37.5554 104.523 37.4746 104.523 37.7169 104.443Z" fill="#322015"/>
<path d="M37.6362 104.602C37.7977 104.602 37.717 104.522 37.6362 104.602Z" fill="#322015"/>
<path d="M37.0709 105.079L36.9901 105.397L36.8286 105.238C37.2324 105.238 36.5864 105.079 37.0709 105.079Z" fill="#322015"/>
<path d="M37.3936 106.829H37.7974C37.8782 107.068 36.9899 107.306 37.7167 107.465C37.4744 107.386 37.2321 107.624 37.1514 107.386C37.4744 107.306 37.5551 106.988 37.3936 106.829Z" fill="#322015"/>
<path d="M38.0397 107.545C38.1205 107.545 38.282 107.545 38.3628 107.545C38.4435 107.624 38.2013 107.704 38.0397 107.704C38.605 107.624 37.7167 107.704 38.0397 107.545Z" fill="#322015"/>
<path d="M38.0399 108.579C38.0399 108.499 38.0399 108.419 38.2014 108.499C38.2014 108.658 37.7169 108.658 37.4746 108.738C37.2324 108.658 37.8784 108.419 38.0399 108.579Z" fill="#322015"/>
<path d="M41.1895 109.772C40.8665 109.772 40.8665 109.613 41.028 109.613C40.9472 109.692 41.028 109.772 41.1895 109.772Z" fill="#322015"/>
<path d="M38.2824 110.089L38.2017 110.01L38.6862 109.93L38.2824 110.089Z" fill="#322015"/>
<path d="M38.1209 111.203L37.7979 111.362V111.203H38.1209Z" fill="#322015"/>
<path d="M38.2014 111.441V111.6L38.0399 111.521C37.9592 111.441 38.2014 111.441 38.2014 111.441Z" fill="#322015"/>
<path d="M38.2014 111.998C38.2014 111.998 38.2014 111.998 38.1206 111.919L38.3629 111.68L38.2014 111.998Z" fill="#322015"/>
<path d="M40.9469 113.907C41.1892 113.668 41.1085 113.827 41.1892 113.748C41.1085 113.827 40.7854 114.145 40.9469 113.907Z" fill="#322015"/>
</g>
<path d="M39.6548 2.64884C37.636 4.47796 35.1325 7.89762 35.2941 13.544C35.2941 13.544 53.1409 2.33074 45.3077 0.97878C43.2888 0.581146 41.1892 1.29689 39.6548 2.64884Z" fill="#1B1C1E"/>
<path d="M64.5274 40.7422C64.5274 40.7422 62.67 55.8523 77.6097 59.9877C92.5494 64.1231 151.743 57.6019 171.205 56.409C187.194 55.3751 196.804 64.2026 195.916 79.5513C195.512 87.4245 195.593 93.0709 195.997 97.0472C196.643 104.205 202.376 119.712 204.96 124.404C206.253 126.79 205.768 129.653 203.911 131.562L203.022 132.357C201.65 133.63 199.631 133.868 198.016 132.834C193.897 130.13 185.741 123.132 176.696 106.352C176.535 106.034 176.292 105.636 176.131 105.238C174.435 102.057 172.901 100.546 172.901 100.546C172.901 100.546 168.298 98.4787 157.396 98.3196C148.916 98.2401 136.722 99.274 119.845 103.409C93.9222 109.772 68.0806 110.01 62.5085 106.909C62.5085 106.909 58.6323 115.657 58.6323 132.834C58.6323 134.345 57.4209 135.538 55.8866 135.618L52.0103 135.777C50.799 135.856 49.6684 135.141 49.1032 134.107C48.7801 133.471 48.3764 132.596 47.8918 131.562C46.1152 127.665 43.6118 121.144 41.2699 111.601C40.1394 106.909 39.0895 101.501 38.1205 95.3772C38.0397 94.8205 37.959 94.3433 37.8782 93.7866C34.1635 66.3498 37.5552 41.1398 37.5552 41.1398C37.5552 41.1398 7.83731 50.9216 0.811619 30.4832C0.0848235 28.4155 1.53842 26.1888 3.71881 26.0297C4.04183 26.0297 4.4456 26.0297 4.84937 26.0297C10.0985 26.1888 25.2804 27.1431 31.0948 16.1684C35.3748 8.2157 42.562 -1.08895 51.6066 0.103953C52.0103 0.18348 52.3334 0.183484 52.7371 0.263011C53.0602 0.342537 64.2851 14.4188 64.5274 40.7422Z" fill="#D29F7E"/>
<path d="M41.2701 111.123C40.2202 106.59 39.1704 101.342 38.2821 95.4566C38.2014 95.1385 38.2014 94.8999 38.1206 94.5818" stroke="#1B1C1E" stroke-width="1.2604" stroke-miterlimit="10" stroke-linecap="round" stroke-linejoin="round"/>
<path d="M53.0606 0.342666C53.0606 0.342666 50.6379 0.342668 51.7685 5.7505C52.6568 10.2835 54.2719 15.0551 51.4455 27.6999C48.2153 42.0943 55.6447 45.4344 63.8818 41.8557C72.1995 38.277 70.7459 30.3243 69.1308 22.6102C67.5157 14.8961 60.49 -0.373076 53.0606 0.342666Z" fill="#1B1C1E"/>
<path d="M0.0043675 28.2564C-0.0763876 26.984 0.973431 25.8706 2.26551 25.7911C4.12288 25.7116 7.03006 25.632 8.56441 25.473C10.9063 25.2344 12.0369 28.5745 8.64517 32.3123C5.25345 36.0501 1.86174 34.38 0.488903 30.3241C0.165883 29.5289 0.0851226 28.8926 0.0043675 28.2564Z" fill="#1B1C1E"/>
<path d="M24.3115 43.5256C24.3115 43.5256 32.064 43.3666 32.8716 33.0281" stroke="#1B1C1E" stroke-width="1.2604" stroke-linecap="round" stroke-linejoin="round"/>
<path d="M31.418 32.5508C31.418 32.5508 32.7908 33.5846 34.2444 33.187" stroke="#1B1C1E" stroke-width="1.2604" stroke-miterlimit="10" stroke-linecap="round" stroke-linejoin="round"/>
<path d="M37.4745 22.7691C37.313 23.8825 36.4247 24.7573 35.6171 24.5982C34.8096 24.4392 34.4058 23.4848 34.5673 22.2919C34.7288 21.1786 35.5364 20.3038 36.3439 20.4628C37.1515 20.6219 37.636 21.6557 37.4745 22.7691Z" fill="#1B1C1E"/>
<path d="M67.0311 98.8762C67.0311 98.8762 64.4469 102.694 62.5088 107.067" stroke="#1B1C1E" stroke-width="1.2604" stroke-miterlimit="10" stroke-linecap="round" stroke-linejoin="round"/>
<path d="M172.982 100.626C172.982 100.626 170.074 96.8087 168.136 91.4009" stroke="#1B1C1E" stroke-width="1.2604" stroke-miterlimit="10" stroke-linecap="round" stroke-linejoin="round"/>
<path d="M66.1426 50.6036C61.4588 52.9099 56.8557 54.2618 52.8987 55.0571C46.1153 56.409 41.27 56.0909 41.27 56.0909C41.9968 55.2161 42.4813 54.0232 42.5621 52.6713C42.5621 51.9555 42.4813 51.3193 42.2391 50.6831C42.2391 50.6831 55.8867 49.7288 64.6082 45.7524C64.9313 47.1839 65.4158 48.854 66.1426 50.6036Z" fill="#D1493B"/>
<path d="M55.806 135.618C55.806 135.618 55.7253 130.051 55.6445 128.62" stroke="#1B1C1E" stroke-width="1.2604" stroke-miterlimit="10" stroke-linecap="round" stroke-linejoin="round"/>
<path d="M202.619 132.993C202.619 132.993 200.115 131.482 198.339 129.574" stroke="#1B1C1E" stroke-width="1.2604" stroke-miterlimit="10" stroke-linecap="round" stroke-linejoin="round"/>
<path d="M204.557 131.244C204.557 131.244 202.861 129.415 201.811 127.904" stroke="#1B1C1E" stroke-width="1.2604" stroke-miterlimit="10" stroke-linecap="round" stroke-linejoin="round"/>
<path d="M52.7374 135.936C52.5759 135.379 51.8491 133.471 50.7993 129.812" stroke="#1B1C1E" stroke-width="1.2604" stroke-miterlimit="10" stroke-linecap="round" stroke-linejoin="round"/>
<path d="M43.1276 53.3073C43.0469 56.4088 40.8665 58.7946 38.3631 58.7151C37.4748 58.7151 36.6672 58.3175 35.9404 57.8403C34.6484 56.8065 33.8408 55.0569 33.9216 53.0687C34.0023 49.9671 36.1827 47.5813 38.6861 47.6609C40.2205 47.7404 41.5125 48.6152 42.3201 50.0467C42.8854 50.9215 43.2084 52.1144 43.1276 53.3073Z" fill="#FFAE1F"/>
<path d="M42.4006 49.9673C42.9659 50.9216 43.2082 52.035 43.2082 53.3074C43.1274 56.409 40.9471 58.7948 38.4436 58.7152C37.5553 58.7152 36.7478 58.3176 36.021 57.8405" stroke="#1B1C1E" stroke-width="1.2604" stroke-miterlimit="10" stroke-linecap="round" stroke-linejoin="round"/>
<mask id="mask3_37_4723" style="mask-type:luminance" maskUnits="userSpaceOnUse" x="37" y="33" width="11" height="15">
<path d="M44.6616 45.6729C40.6238 49.0926 37.1514 46.7068 37.1514 46.7068C37.4744 43.2076 37.7167 41.2194 37.7167 41.2194C37.7167 41.2194 41.5929 40.2651 45.2269 36.4478L47.2458 33.7439C47.3265 33.7439 48.6993 42.2533 44.6616 45.6729Z" fill="white"/>
</mask>
<g mask="url(#mask3_37_4723)">
<g opacity="0.88">
<path d="M41.6738 39.5493C41.6738 39.6288 41.6738 39.6288 41.7546 39.7084C41.7546 39.7084 41.7546 39.6288 41.6738 39.5493Z" fill="#322015"/>
<path d="M44.1771 37.4818L44.0156 37.3228C44.0156 37.4023 44.0964 37.4818 44.1771 37.4818Z" fill="#322015"/>
<path d="M42.2388 40.6626C42.2388 40.7421 42.2388 40.8217 42.3195 40.9012L42.2388 40.6626Z" fill="#322015"/>
<path d="M38.605 43.6848L38.6857 43.8439C38.6857 43.8439 38.6857 43.7643 38.605 43.6848Z" fill="#322015"/>
<path d="M39.0894 40.5039C39.0894 40.5834 39.0893 40.5834 39.1701 40.663C39.0893 40.5834 39.1701 40.5039 39.0894 40.5039Z" fill="#322015"/>
<path d="M44.8228 36.4477V36.3682C44.742 36.3682 44.742 36.4477 44.8228 36.4477Z" fill="#322015"/>
<path d="M39.978 40.6626C40.301 41.1398 39.8972 40.7422 40.1395 41.1398C40.1395 40.9807 40.1395 40.9012 40.301 41.1398C40.3818 41.3784 40.1395 41.1398 40.3818 41.5374V41.3784C40.5433 41.5374 40.624 41.8555 40.7048 41.8555C40.4625 41.2988 41.1086 41.9351 41.1086 41.776V41.8555L41.3508 42.0146C41.3508 42.0146 41.3508 41.9351 41.2701 41.9351C41.5123 42.1736 41.6738 42.2532 41.7546 42.1736C41.5931 41.8555 41.9969 41.8555 41.9161 41.6169C41.9161 41.6965 41.9161 41.776 41.7546 41.6965L41.5123 41.3784C41.5931 41.2988 41.7546 41.6965 41.6739 41.4579C41.3508 40.9807 41.5123 41.5374 41.4316 41.5374C41.3508 41.3784 41.3508 41.2988 41.3508 41.2193C41.1893 41.2988 40.9471 41.2193 41.1893 41.6965C41.1086 41.6169 40.9471 41.3784 40.9471 41.3784C41.0278 41.6965 40.7048 41.1398 40.7855 41.4579C40.5433 40.9807 40.7856 41.1398 40.7048 40.8217C41.0278 41.0603 40.9471 40.6626 41.0278 40.5036C41.2701 40.8217 41.3508 41.1398 41.5123 41.2988C41.7546 41.3784 41.5123 41.0603 41.4316 40.8217C41.5931 40.9012 41.8354 41.2988 41.9969 41.2193L42.0776 41.4579C42.4814 41.8555 41.9969 41.2193 42.1584 41.2988C42.0776 41.2193 41.9969 41.0603 41.9161 41.1398C41.7546 40.9807 41.7546 40.9012 41.8354 40.8217C41.6739 40.5831 41.5123 40.3445 41.6739 40.424C41.8354 40.7421 41.9161 40.5831 41.9969 40.6626V40.7422C41.9969 40.5831 42.0776 40.5831 42.0776 40.5036L42.1584 40.5831C42.1584 40.4241 41.9161 40.1059 41.9969 40.1059C42.0776 40.265 42.3199 40.6626 42.3199 40.5036C42.4814 40.6626 42.4006 40.8217 42.2391 40.7422C42.4006 40.7422 42.6429 41.0603 42.5622 41.1398C42.8044 41.3784 42.5622 40.9807 42.7237 41.0603C42.6429 40.9807 42.5622 40.9012 42.5622 40.8217C42.8044 41.1398 42.7237 40.7422 42.5622 40.5036L42.6429 40.7422C42.4006 40.5036 42.4006 40.265 42.2391 40.1059C42.6429 40.5036 42.3199 39.7083 42.6429 40.0264L42.4006 39.8674C42.6429 39.8674 42.4006 39.3107 42.4006 39.0721C42.4814 39.2311 42.8852 39.6288 42.6429 39.6288C42.8852 39.5492 43.1274 40.0264 43.3697 40.1855C43.612 40.1855 43.0467 39.7083 42.9659 39.5493V39.7083C42.5622 39.1516 43.3697 39.5492 43.2082 39.0721C43.3697 39.1516 43.289 39.1516 43.289 39.2311C43.612 39.3902 43.289 39.1516 43.2082 38.9926C43.289 38.9926 43.5312 38.9926 43.7735 39.3107C43.935 39.3107 43.612 39.1516 43.5312 38.9926L43.612 39.0721L43.3697 38.6745C43.5312 38.6745 43.7735 38.754 44.0965 38.9926C44.1773 38.754 43.4505 38.3563 43.3697 38.1178C43.612 38.1973 43.612 38.3563 43.6927 38.4359L43.7735 38.2768C44.0965 38.5949 43.8542 38.5949 44.258 38.913C43.935 38.4359 44.258 38.6745 44.0965 38.3563H44.0157C43.7735 38.0382 44.0965 38.1178 44.0965 37.9587C44.258 38.1178 44.1773 38.1973 44.258 38.3563C44.5003 38.3563 44.5003 38.0382 44.1773 37.7201C44.258 37.7201 44.5003 37.7201 44.581 37.8792C44.7425 37.7201 44.0965 37.402 44.258 37.3225L44.581 37.5611C45.1463 37.7201 44.4195 36.9249 44.9041 37.0839L44.5003 36.8453C44.6618 36.9249 44.8233 36.9249 44.9848 37.0044L45.0656 37.1634C45.4693 37.3225 44.8233 36.9249 45.0656 36.9249C44.9848 36.8453 44.6618 36.7658 44.5003 36.6863C44.5003 37.1634 43.6927 37.0839 43.8542 37.7201C43.935 37.7201 43.935 37.7997 44.0157 37.7997C43.935 37.7997 43.935 37.8792 43.7735 37.7201C43.7735 37.8792 43.289 37.5611 43.289 37.6406C43.5312 37.8792 43.0467 37.7201 43.5312 38.0382L43.2082 37.8792C43.3697 38.0382 43.5312 38.1973 43.612 38.2768C43.5312 38.2768 43.3697 38.1973 43.289 38.0382C42.9659 38.1178 42.8044 38.4359 42.7237 38.754L42.5622 38.5154C42.4006 38.5154 42.7237 38.9926 42.3199 38.5154C42.4007 38.754 41.9161 38.6745 42.4006 39.0721C41.9161 38.6745 41.9969 39.0721 41.9161 39.3107C42.3199 39.7083 41.9161 39.5493 42.0776 39.7878C41.7546 39.4697 41.9161 39.3107 41.6739 39.1516C41.9969 39.7878 40.9471 39.1516 41.5931 40.0264C41.5123 40.0264 41.5123 39.9469 41.5123 39.9469C41.5123 39.9469 41.3508 39.8674 41.2701 39.8674C41.3508 40.0264 41.5123 40.0264 41.5123 40.1855C41.4316 40.1855 41.2701 39.9469 41.1893 39.8674C41.2701 40.1059 41.1086 40.3445 41.4316 40.7422C41.3508 40.6626 41.1086 40.5036 41.1086 40.424C41.1893 40.8217 40.8663 40.5036 40.8663 40.8217C40.9471 40.7421 40.624 40.424 40.7855 40.5036C40.3818 40.0264 40.5433 40.7422 40.2203 40.5831L40.3818 40.9807C40.301 41.0603 40.1395 40.7422 40.0588 40.5831C39.8165 40.5036 39.8165 40.7421 39.7357 40.8217C39.7357 40.8217 39.655 40.7422 39.7357 40.7422L39.5742 40.8217C39.5742 40.9012 39.655 41.1398 39.8165 41.3784C39.8972 40.7422 39.8165 40.5831 39.978 40.6626Z" fill="#322015"/>
<path d="M42.5619 41.299C42.4811 41.2195 42.4004 41.2195 42.4004 41.2195C42.4811 41.2195 42.4811 41.299 42.5619 41.299Z" fill="#322015"/>
<path d="M38.524 42.4125C38.7662 42.9692 38.6047 42.2534 38.7662 42.4125C38.6855 42.492 38.847 42.8897 38.9277 43.0487C38.7662 42.2534 39.0892 43.1282 39.2508 42.8897C39.3315 43.1282 39.2508 43.2078 39.4123 43.4463C39.4123 43.2078 39.5738 43.0487 39.4123 42.6511C39.5738 42.5715 39.816 42.6511 39.8968 42.5716C39.816 42.8101 40.0583 42.9692 40.1391 43.3668C40.0583 42.8101 40.0583 42.1739 39.8968 41.5377C40.1391 41.9353 40.2198 42.0149 40.3813 42.4125C40.7851 42.5715 40.2198 42.0149 40.4621 42.0149H40.3006C40.3006 41.8558 40.0583 41.4582 39.9775 41.1401L39.816 41.2991C39.6545 40.981 39.816 40.981 39.816 40.9015C39.6545 40.5038 39.5738 40.7424 39.4123 40.4243C39.493 40.6629 39.4123 40.6629 39.4123 40.7424L39.3315 40.5834C39.17 40.5039 39.3315 40.9015 39.2508 40.9015C39.2508 40.822 39.17 40.822 39.17 40.822C39.2508 40.981 39.3315 41.2196 39.2508 41.2991C39.3315 41.6968 39.2508 42.0149 39.6545 42.4125H39.3315C39.17 42.0149 38.9277 41.2991 39.0085 41.2196L38.9277 41.0605C38.7662 40.822 38.847 41.5377 39.0893 41.8558C39.493 42.8897 38.7662 42.0149 38.7662 42.5716C38.6047 42.2534 38.6855 42.1739 38.6047 41.9353C38.6047 41.8558 38.6855 41.8558 38.7662 42.0944C38.9277 41.8558 38.3624 41.2196 38.6047 41.2196C38.7662 41.2991 38.6855 41.6968 38.847 41.6968L38.6047 40.9015C38.524 40.981 38.524 41.1401 38.4432 41.2991C38.3625 41.6968 38.1202 41.7763 37.9587 41.7763C37.7972 41.7763 37.7164 41.6968 37.7164 41.6968C37.0704 42.0149 36.4243 42.2534 35.6975 42.4125C35.4553 42.5715 35.4553 42.492 35.3745 43.3668C35.4553 43.5259 35.6168 43.4463 35.536 43.7645C35.536 43.4463 35.6168 43.2873 35.7783 43.2873C35.859 43.6054 35.6975 43.4463 35.6975 43.5259C35.6975 43.6849 35.6975 43.7645 35.6168 43.7645C35.7783 44.2416 36.1013 44.0826 36.1013 43.4463C36.2628 43.7644 36.1013 43.9235 36.0206 44.1621C36.5051 44.3211 36.8281 44.2416 37.3126 44.1621C37.1511 43.6054 37.3126 43.844 37.2319 43.4463L37.3126 43.6054C37.2319 43.5259 37.2319 43.1282 37.1511 43.0487C37.4741 43.3668 37.2319 42.2534 37.3126 42.0149L37.3934 42.2534C37.4741 42.1739 37.5549 42.1739 37.6357 42.0149C38.0394 42.492 37.4741 42.1739 37.7164 42.8101V42.6511C37.7972 42.8897 37.8779 43.3668 37.8779 43.6054C37.9587 43.1282 38.2817 43.6849 38.3624 43.2873C38.4432 43.6054 38.2817 43.9235 38.2817 43.9235C38.3625 43.9235 38.4432 43.6849 38.524 43.9235L38.4432 43.5259C38.6047 43.4463 38.524 43.844 38.6855 44.0826C39.0893 43.7645 38.3624 42.7306 38.524 42.4125Z" fill="#322015"/>
<path d="M41.5928 41.0603C41.512 41.0603 41.512 41.0603 41.5928 41.0603C41.512 41.1398 41.512 41.0603 41.5928 41.0603Z" fill="#322015"/>
<path d="M41.6735 42.4919C41.5927 42.3328 41.5927 42.3328 41.5119 42.0942C41.5119 42.2533 41.4312 42.3328 41.6735 42.4919Z" fill="#322015"/>
<path d="M47.488 34.0619L47.4072 33.9824C47.4072 33.9824 47.488 33.9824 47.488 34.0619Z" fill="#322015"/>
<path d="M47.7301 34.1415L48.0531 34.3006L47.8916 34.062L47.7301 34.1415C47.6493 34.062 47.5685 34.062 47.4878 34.062L47.7301 34.1415Z" fill="#322015"/>
<path d="M46.8418 34.2211C47.0033 34.2211 47.1648 34.3802 47.3263 34.4597C47.4878 34.3802 47.0033 34.1416 47.1648 34.1416C47.4071 34.3802 47.4071 34.1416 47.6493 34.2211C47.3263 34.1416 47.0841 34.0621 46.9226 34.1416L47.1648 34.2211C47.0841 34.3802 47.0033 34.2211 46.8418 34.2211Z" fill="#322015"/>
<path d="M47.1648 35.0956L46.8418 34.857C47.0033 34.9365 47.084 34.7775 47.407 34.9365C47.407 34.857 47.2455 34.7775 47.1648 34.6979C47.3263 34.6979 47.4878 34.7775 47.2455 34.6184C46.9225 34.6979 46.8418 34.6184 46.6803 34.7775C46.5995 34.7775 46.5995 34.6979 46.6803 34.6979H46.438C46.9225 34.9365 46.8418 35.0956 47.1648 35.0956Z" fill="#322015"/>
<path d="M46.8419 35.1755C46.8419 35.0959 46.5997 34.8574 46.3574 34.7778C46.4382 34.8574 46.4382 35.0164 46.5189 35.0959C46.5189 35.0959 46.5189 34.9369 46.8419 35.1755Z" fill="#322015"/>
<path d="M46.7614 35.3344C46.5999 35.2549 46.1961 35.1754 46.4383 35.4139C46.4383 35.2549 46.9229 35.4935 46.7614 35.3344Z" fill="#322015"/>
<path d="M46.0342 35.8116L46.3573 35.7321C46.761 35.8912 46.438 35.8912 46.5995 36.0502C46.761 35.9707 46.5995 35.8912 46.438 35.6526C46.5188 35.6526 46.2765 35.414 46.1957 35.3345C46.438 35.7321 45.3882 35.255 46.0342 35.8116Z" fill="#322015"/>
<path d="M46.6806 35.6525L46.519 35.573L46.5998 35.732L46.6806 35.6525Z" fill="#322015"/>
<path d="M45.3883 35.9707C44.823 35.8116 45.5498 36.3683 45.3075 36.3683L45.2267 36.2888V36.4479L45.146 36.3683C45.469 36.5274 45.469 36.6864 45.7113 36.925C46.1151 37.0045 45.3883 36.6864 45.792 36.766C45.8728 36.8455 46.115 37.0045 46.1958 37.0841C46.115 36.925 45.9535 36.8455 45.792 36.6864C45.792 36.6069 45.9535 36.6864 46.0343 36.766C45.8728 36.6069 45.469 36.2888 45.6305 36.2888C45.9535 36.3683 46.0343 36.6069 45.9535 36.3683C45.469 36.1298 46.1151 36.2888 45.8728 36.0502C46.0343 35.9707 46.3573 36.1298 46.5188 36.2093C46.1151 35.9707 45.8728 35.7321 45.792 35.6526L46.0343 35.9707L45.5498 35.8117C45.5498 35.8912 45.469 35.9707 45.3883 35.9707Z" fill="#322015"/>
<path d="M46.519 36.209V36.2885H46.6806L46.519 36.209Z" fill="#322015"/>
<path d="M46.2767 37.2431C46.2767 37.2431 46.196 37.1636 46.1152 37.1636L46.2767 37.2431Z" fill="#322015"/>
<path d="M45.8731 37.1635L45.6309 37.084L45.7924 37.243L45.8731 37.1635Z" fill="#322015"/>
<path d="M44.0964 39.1519C44.2579 39.2314 44.0157 38.9928 43.8542 38.8337C43.6927 38.8337 44.0157 38.9928 44.0964 39.1519Z" fill="#322015"/>
<path d="M43.208 40.5835C43.4502 40.663 43.2887 40.3449 43.3695 40.3449C43.1272 40.2654 43.1272 40.4244 43.208 40.5835Z" fill="#322015"/>
<path d="M43.3692 41.9352C43.2885 41.8557 43.2885 41.7762 43.2077 41.7762L42.8847 41.2195C42.6424 41.2195 43.2077 41.7762 43.3692 41.9352Z" fill="#322015"/>
<path d="M42.7234 42.5712V42.3326H42.6427C42.5619 42.0941 42.4811 42.0145 42.4004 41.8555C42.4004 42.0145 42.4004 42.2531 42.7234 42.5712Z" fill="#322015"/>
<path d="M42.4004 41.6968C42.4811 41.8558 42.4811 41.7763 42.4004 41.6968Z" fill="#322015"/>
<path d="M42.3198 41.7762C42.4006 41.7762 42.4006 41.7762 42.3198 41.7762C42.3198 41.6966 42.3198 41.6171 42.3198 41.7762Z" fill="#322015"/>
<path d="M42.4003 42.4124L42.2388 42.5714L42.4003 42.6509C42.2388 42.3328 42.6425 42.7305 42.4003 42.4124Z" fill="#322015"/>
<path d="M41.1888 42.81L40.9466 42.4919C40.785 42.4919 41.0273 43.2872 40.6235 42.81C40.785 42.9691 40.7043 43.2077 40.9466 43.2077C40.8658 42.8896 41.0273 42.81 41.1888 42.81Z" fill="#322015"/>
<path d="M40.3815 42.6509C40.3815 42.5714 40.3007 42.4919 40.22 42.4124C40.1392 42.4124 40.22 42.5714 40.3007 42.7305C40.1392 42.2533 40.543 42.8895 40.3815 42.6509Z" fill="#322015"/>
<path d="M39.8164 42.9691C39.8164 42.9691 39.8972 42.8896 39.8164 42.8101C39.7357 42.8896 39.8972 43.2077 39.978 43.4463C40.1395 43.6053 39.978 43.0486 39.8164 42.9691Z" fill="#322015"/>
<path d="M37.8779 40.9014C37.9587 41.2195 38.0394 41.14 38.0394 40.9809C38.0394 41.0604 37.9587 40.9809 37.8779 40.9014Z" fill="#322015"/>
<path d="M38.7666 43.2873H38.8474L38.7666 42.8896V43.2873Z" fill="#322015"/>
<path d="M38.1201 43.7642V44.0823L38.2816 44.0027L38.1201 43.7642Z" fill="#322015"/>
<path d="M37.9589 43.6848L37.7974 43.7643L37.8781 43.8439C38.0396 43.9234 37.9589 43.7643 37.9589 43.6848Z" fill="#322015"/>
</g>
</g>
<path d="M176.777 106.432C176.616 106.114 176.373 105.716 176.212 105.318C174.516 102.137 172.982 100.626 172.982 100.626C172.982 100.626 168.378 98.5585 157.477 98.3994" stroke="#1B1C1E" stroke-width="1.2604" stroke-miterlimit="10" stroke-linecap="round" stroke-linejoin="round"/>
</svg>
