<svg width="109" height="143" viewBox="0 0 109 143" fill="none" xmlns="http://www.w3.org/2000/svg">
<path d="M20.1066 139.437C20.1066 139.437 16.1496 141.107 26.9708 141.584C37.8727 142.061 95.2896 142.3 101.185 141.584C107.08 140.868 113.702 139.994 102.558 139.039C94.159 138.323 81.8035 138.403 73.2434 138.164C57.8192 137.767 24.7904 137.926 20.1066 139.437Z" fill="#1B1C1E"/>
<path d="M97.3893 94.902C95.855 74.7817 95.9357 49.3331 96.3395 29.9286C96.3395 29.849 96.3395 29.69 96.3395 29.6104C96.7433 12.6712 97.3893 0.424072 97.3893 0.424072C97.147 0.74218 89.8791 11.7964 80.8345 20.8625C78.3311 23.4073 75.5854 25.7136 72.9205 27.7018C72.759 27.7813 72.5975 27.9404 72.436 28.0199C70.9016 29.0537 69.3673 30.1671 67.8329 31.2805C65.8948 32.712 63.9567 34.1435 62.0993 35.4954C60.3227 36.7679 58.6269 38.0403 57.0925 39.2332C52.651 42.5733 49.5015 45.0387 49.5015 45.0387C49.5015 45.0387 47.0789 42.8119 40.457 37.5631C37.2268 35.0183 33.1083 31.7577 27.7784 27.7018C27.5361 27.4632 27.2131 27.2246 26.9709 27.0656C23.7407 24.6002 20.9142 22.0554 18.3301 19.5901C7.99342 9.56967 3.14812 0.74218 2.90586 0.424072C1.77529 10.9216 0.886976 20.6239 0.402445 29.6104C0.32169 30.3262 0.321685 30.9624 0.321685 31.6781V31.7577C-1.61644 72.7935 4.84397 99.3555 29.6358 120.907C36.0962 126.474 43.2026 130.61 50.4706 133.552C54.9121 135.381 59.4344 136.813 63.7952 137.926C85.1145 143.254 103.85 140.789 103.85 140.789C103.85 140.789 99.4082 120.351 97.3893 94.902Z" fill="white"/>
<mask id="mask0_37_3004" style="mask-type:luminance" maskUnits="userSpaceOnUse" x="0" y="0" width="104" height="142">
<path d="M97.3893 94.902C95.855 74.7817 95.9357 49.3331 96.3395 29.9286C96.3395 29.849 96.3395 29.69 96.3395 29.6104C96.7433 12.6712 97.3893 0.424072 97.3893 0.424072C97.147 0.74218 89.8791 11.7964 80.8345 20.8625C78.3311 23.4073 75.5854 25.7136 72.9205 27.7018C72.759 27.7813 72.5975 27.9404 72.436 28.0199C70.9016 29.0537 69.3673 30.1671 67.8329 31.2805C65.8948 32.712 63.9567 34.1435 62.0993 35.4954C60.3227 36.7679 58.6269 38.0403 57.0925 39.2332C52.651 42.5733 49.5015 45.0387 49.5015 45.0387C49.5015 45.0387 47.0789 42.8119 40.457 37.5631C37.2268 35.0183 33.1083 31.7577 27.7784 27.7018C27.5361 27.4632 27.2131 27.2246 26.9709 27.0656C23.7407 24.6002 20.9142 22.0554 18.3301 19.5901C7.99342 9.56967 3.14812 0.74218 2.90586 0.424072C1.77529 10.9216 0.886976 20.6239 0.402445 29.6104C0.32169 30.3262 0.321685 30.9624 0.321685 31.6781V31.7577C-1.61644 72.7935 4.84397 99.3555 29.6358 120.907C36.0962 126.474 43.2026 130.61 50.4706 133.552C54.9121 135.381 59.4344 136.813 63.7952 137.926C85.1145 143.254 103.85 140.789 103.85 140.789C103.85 140.789 99.4082 120.351 97.3893 94.902Z" fill="white"/>
</mask>
<g mask="url(#mask0_37_3004)">
<g opacity="0.78">
<path d="M89.5561 135.301C89.4753 135.381 89.3946 135.46 89.3138 135.54C89.3138 135.619 89.3946 135.54 89.5561 135.301Z" fill="#181716"/>
<path d="M97.2278 139.119L97.4701 138.721C97.3086 138.88 97.2278 138.96 97.2278 139.119Z" fill="#181716"/>
<path d="M87.6988 137.448C87.6181 137.528 87.4566 137.608 87.295 137.767L87.6988 137.448Z" fill="#181716"/>
<path d="M87.8601 139.357C87.8601 139.437 87.8601 139.516 87.8601 139.596C87.7794 139.516 87.8601 139.437 87.8601 139.357Z" fill="#181716"/>
<path d="M82.934 131.166C82.934 131.086 83.0147 131.086 83.0147 131.007C83.0147 131.007 83.0147 131.086 82.934 131.166Z" fill="#181716"/>
<path d="M82.1266 131.484C82.1266 131.405 82.0458 131.405 82.0458 131.405L81.9651 131.484C81.9651 131.564 82.0459 131.484 82.1266 131.484Z" fill="#181716"/>
<path d="M76.312 134.506L76.0697 134.824C76.2312 134.665 76.312 134.586 76.312 134.506Z" fill="#181716"/>
<path d="M83.3379 130.689C83.2571 130.768 83.1763 130.848 83.0956 130.927C83.1763 130.927 83.2571 130.927 83.3379 130.689Z" fill="#181716"/>
<path d="M89.6368 135.142C89.6368 135.222 89.556 135.222 89.556 135.301C89.556 135.301 89.6368 135.222 89.6368 135.142Z" fill="#181716"/>
<path d="M100.296 139.914C100.377 139.914 100.458 139.914 100.539 139.834C100.377 139.675 100.377 139.755 100.296 139.914Z" fill="#181716"/>
<path d="M84.5492 132.836C84.0647 133.949 84.2262 132.756 83.7417 133.79C83.984 133.631 84.2262 133.472 83.9839 134.108C83.5802 134.665 83.7417 133.87 83.1764 134.824L83.5802 134.586C83.4994 135.142 82.9341 135.699 83.0956 135.699C83.9032 134.506 83.4994 136.494 83.8224 136.415L83.6609 136.494V137.21V137.289C83.6609 137.21 83.7417 137.13 83.8224 137.051C83.6609 137.767 83.6609 138.323 83.9839 138.244C84.3877 137.608 84.953 138.403 85.3568 137.846C85.1953 138.005 85.0338 137.926 85.0338 137.687L85.4375 136.812C85.6798 136.971 85.1145 137.608 85.5991 137.21C86.0836 136.017 85.276 137.051 85.1145 136.812C85.276 136.574 85.5183 136.415 85.6798 136.335C85.3568 136.097 85.1953 135.54 84.3877 136.653C84.3877 136.335 84.7107 135.858 84.7915 135.778C84.2262 136.335 84.953 135.063 84.3877 135.54C84.953 134.506 85.1953 135.222 85.6798 134.665C85.5991 135.699 86.4066 135.063 86.8104 135.063C86.4874 135.858 85.8413 136.415 85.8413 136.971C85.9221 137.687 86.4066 136.733 86.8104 136.335C86.9719 136.733 86.2451 137.687 86.6489 137.926L86.1643 138.323C85.8413 139.596 86.5681 138.005 86.6489 138.323C86.7296 138.005 86.8911 137.687 86.6489 137.687C86.8104 137.289 87.0526 137.13 87.1334 137.13V137.051C87.4564 136.574 87.7794 135.937 87.8602 136.335C87.3757 136.971 87.8602 136.971 87.7794 137.289L87.6179 137.369C87.9409 137.21 88.0217 137.448 88.264 137.369L88.1832 137.528C88.4255 137.289 88.91 136.494 88.9908 136.812C88.8293 137.13 88.1832 137.926 88.4255 137.926C88.1832 138.403 87.8602 138.323 87.7794 138.085C87.941 138.323 87.6179 139.198 87.3757 139.198C87.1334 139.834 87.7794 139.039 87.7794 139.357C87.8602 139.119 88.0217 138.96 88.0217 138.721C87.6179 139.596 88.5062 139.039 88.7485 138.403L88.264 138.8C88.587 138.085 89.0715 137.767 89.1523 137.369C88.8292 138.482 90.0406 137.13 89.7983 138.085L89.9598 137.448C90.3636 138.005 91.2519 136.892 91.8979 136.812C91.5749 137.13 91.0904 138.323 90.9289 137.767C91.3327 138.164 90.6059 139.039 90.4444 139.675C90.6059 140.311 91.0904 138.641 91.4134 138.323L91.0904 138.403C91.9787 137.13 91.9787 139.119 92.867 138.403C92.7863 138.8 92.7055 138.562 92.544 138.721C92.4632 139.516 92.867 138.641 93.1093 138.403C93.2708 138.641 93.5131 139.039 92.9478 139.914C93.1093 140.232 93.1093 139.357 93.3515 139.119V139.357L93.9976 138.482C94.0783 138.88 94.2398 139.437 93.9976 140.311C94.6436 140.311 94.9667 138.323 95.4512 138.164C95.5319 138.721 95.1282 138.8 94.9666 139.198H95.3704C94.8859 140.152 94.8051 139.596 94.4014 140.709C95.1281 139.675 94.9666 140.55 95.6127 139.914V139.834C96.0972 139.119 96.2587 139.755 96.5817 139.755C96.3395 140.232 96.0165 140.152 95.7742 140.311C95.9357 140.789 96.7433 140.63 97.3085 139.675C97.3893 139.914 97.5508 140.391 97.2278 140.789C97.7123 141.107 97.9546 139.357 98.2776 139.834L98.0353 140.63C98.1968 141.902 99.3274 139.914 99.4889 141.107L99.812 140.152C99.812 140.63 99.9735 140.868 99.8927 141.266L99.5697 141.504C99.5697 142.379 100.054 140.789 100.135 141.425C100.216 141.107 100.216 140.391 100.296 140.073C99.0852 140.391 98.6006 138.641 97.2278 139.357C97.2278 139.516 97.2278 139.675 97.147 139.834C97.147 139.596 96.824 139.755 97.0663 139.278L97.147 139.198C96.824 139.357 96.9855 138.085 96.824 138.005C96.501 138.641 96.4202 137.528 96.0972 138.721L96.178 137.926C95.9357 138.323 95.7742 138.88 95.6127 139.039C95.4512 138.88 95.6127 138.403 95.855 138.164C95.2897 137.448 94.4821 137.289 93.6746 137.369L94.0783 136.892C93.9976 136.574 93.1093 137.608 93.7553 136.335C93.19 136.733 92.9478 135.619 92.3825 136.971C92.7055 135.54 91.8172 136.017 91.2519 136.017C90.8481 137.21 90.6866 136.176 90.3636 136.653C90.6866 135.699 91.1712 135.858 91.4134 135.301C90.2829 136.494 90.5251 133.711 89.3138 135.937C89.3138 135.858 89.3138 135.699 89.3945 135.619C89.3138 135.54 89.3945 135.142 89.3138 134.983C89.0715 135.381 89.233 135.619 88.91 135.699C88.7485 135.54 89.1523 134.904 89.233 134.586C88.6677 134.983 88.0217 134.983 87.5372 135.858C87.5372 135.54 87.6987 134.983 87.8602 134.904C86.9719 135.381 87.3757 134.506 86.6489 134.745C86.8911 134.824 87.2142 133.79 87.2949 134.347C87.6987 132.915 86.3258 134.188 86.2451 133.313L85.6798 134.029C85.3568 134.029 85.6798 133.234 86.0028 133.075C85.8413 132.359 85.3568 132.756 84.953 132.597C84.953 132.518 85.1145 132.359 85.1145 132.438L84.63 132.2C84.4685 132.359 84.0647 132.677 83.9032 133.234C84.1455 132.677 84.3877 132.438 84.5492 132.836Z" fill="#181716"/>
<path d="M83.903 133.074L83.8223 133.154C83.8223 133.154 83.903 133.154 83.903 133.074Z" fill="#181716"/>
<path d="M86.7296 138.8C86.8104 138.562 86.8104 138.482 86.7296 138.403C86.7296 138.562 86.6489 138.721 86.7296 138.8Z" fill="#181716"/>
<path d="M78.4925 132.359C77.9273 133.631 78.8963 132.279 78.8963 132.756C78.5733 132.836 78.2503 133.631 78.0888 133.949C79.1386 132.438 78.2503 134.427 78.8963 134.347C78.654 134.904 78.331 134.824 78.008 135.381C78.4925 135.142 78.9771 135.063 79.5423 134.188C80.0269 134.427 80.1076 134.904 80.5114 134.824C80.0269 135.063 80.0269 135.699 79.3808 136.335C80.2691 135.46 81.5612 134.506 82.6918 133.472C82.288 134.506 82.2073 134.586 81.7227 135.46C81.965 136.415 82.3688 134.586 82.6918 135.142L82.5303 134.824C82.9341 134.665 83.4186 133.711 83.8224 133.075L83.1763 132.916C83.4993 132.2 83.8224 132.518 84.0646 132.359C84.6299 131.643 84.0646 131.643 84.3876 131.007C84.0646 131.484 83.9031 131.245 83.6609 131.404L83.8224 131.007C83.7416 130.53 83.0956 131.325 82.9341 131.245C82.9341 131.166 83.0148 131.086 83.0148 131.007C82.6918 131.404 82.3688 131.802 82.1265 131.882H82.288C81.642 132.677 80.8344 132.916 80.6729 134.029L80.1884 133.472C80.7537 132.518 81.642 131.166 81.965 131.245L82.2073 130.848C82.2073 130.212 81.0767 131.245 80.8344 132.12C79.3808 134.267 79.8654 131.723 78.977 132.518C79.3001 131.882 79.6231 131.723 79.9461 131.404C80.1076 131.404 80.1884 131.405 79.9461 131.961C80.6729 131.882 80.8344 129.893 81.319 130.45C81.4805 130.927 80.4307 131.245 80.8344 131.564L82.0458 129.973C81.7227 129.893 81.3189 130.053 80.9959 130.132C79.1386 130.689 78.8156 129.257 78.8156 129.257C76.8774 128.542 75.0201 127.746 73.0819 126.951C72.3551 126.871 72.1936 126.712 71.0631 128.223C70.9823 128.621 71.3861 128.701 70.9823 129.178C71.3861 128.621 71.7898 128.382 72.1129 128.621C71.7898 129.257 71.7091 128.78 71.6284 128.939V129.019C71.3861 129.337 71.2246 129.496 71.1438 129.496C70.9823 130.609 71.7091 130.768 72.5974 129.734C72.5166 130.53 71.8706 130.609 71.4668 131.007C72.1936 132.041 72.8397 132.279 73.8087 132.836C74.4548 131.723 74.2933 132.2 74.8586 131.484L74.697 131.961C74.7778 131.723 75.3431 131.086 75.2623 130.768C75.3431 131.882 76.7159 129.655 77.3619 129.416L77.0389 129.973C77.4427 130.053 77.5235 130.053 77.9272 129.893C77.8465 131.245 77.362 129.814 76.7967 131.325L77.0389 131.166C76.6352 131.643 76.0699 132.597 75.6661 132.836C76.6352 132.2 76.1506 133.552 77.1197 133.154C76.7159 133.79 75.9891 134.029 75.8276 134.029C75.9891 134.188 76.5544 133.87 76.2314 134.506L76.7159 133.711C77.1197 133.79 76.3121 134.427 76.1506 134.983C77.0389 135.222 77.685 132.438 78.4925 132.359Z" fill="#181716"/>
<path d="M86.0026 136.494C85.9219 136.415 85.8411 136.415 85.7604 136.415C85.7604 136.494 85.8411 136.494 86.0026 136.494Z" fill="#181716"/>
<path d="M83.7417 137.29C83.661 137.369 83.661 137.528 83.5802 137.608C83.5802 137.528 83.661 137.449 83.7417 137.29Z" fill="#181716"/>
<path d="M83.0148 138.403C83.1763 138.005 83.257 138.085 83.4993 137.608C83.3378 137.846 83.0955 137.687 83.0148 138.403Z" fill="#181716"/>
<path d="M102.961 142.22L103.446 142.856C103.365 143.97 103.123 143.174 102.881 143.572C103.284 143.89 103.204 143.492 103.688 142.856C103.85 142.936 104.092 142.379 104.253 142.14C103.365 143.015 103.769 140.311 102.961 142.22Z" fill="#181716"/>
<path d="M101.992 140.868C101.992 139.516 101.266 141.425 101.023 140.789C101.104 140.709 101.104 140.63 101.185 140.471L100.862 140.55L100.943 140.232C100.781 140.948 100.377 141.186 100.135 141.743C100.216 142.618 100.539 140.868 100.62 141.822C100.458 142.141 100.297 142.618 100.135 142.936C100.458 142.618 100.62 142.141 100.781 141.743C101.023 141.743 100.862 142.141 100.781 142.379C101.104 141.982 101.346 140.868 101.669 141.266C101.75 141.982 101.266 142.3 101.75 142.061C101.831 140.789 102.073 142.3 102.396 141.584C102.638 141.902 102.638 142.618 102.558 143.095C102.719 142.141 103.123 141.425 103.365 141.186C103.204 141.425 102.961 141.663 102.719 141.902L102.8 140.789C102.315 141.186 102.154 141.107 101.992 140.868Z" fill="#181716"/>
<path d="M93.1899 140.152C93.2707 140.63 93.513 139.834 93.7552 139.357C93.513 139.039 93.513 139.914 93.1899 140.152Z" fill="#181716"/>
<path d="M88.9102 139.437C88.9102 139.993 89.4754 139.357 89.6369 139.516C89.6369 139.039 89.2332 139.198 88.9102 139.437Z" fill="#181716"/>
<path d="M86.1642 141.107C86.3257 140.948 86.4872 140.789 86.4064 140.709L87.214 139.596C87.0525 138.96 86.4064 140.55 86.1642 141.107Z" fill="#181716"/>
<path d="M84.2261 140.391L84.7914 140.073L84.6298 139.993C84.9529 139.516 85.1144 139.357 85.4374 138.959C85.0336 139.119 84.5491 139.516 84.2261 140.391Z" fill="#181716"/>
<path d="M85.7605 138.88C85.6797 138.88 85.6797 138.88 85.599 138.88C85.599 139.039 85.5182 139.198 85.7605 138.88Z" fill="#181716"/>
<path d="M85.4373 138.801C85.3565 138.88 85.3566 138.88 85.3566 138.96C85.4373 138.96 85.5181 138.88 85.5988 138.88C85.5988 138.721 85.5988 138.642 85.4373 138.801Z" fill="#181716"/>
<path d="M84.2263 139.675L83.661 139.596L83.7418 139.914C84.1455 139.198 83.8225 140.47 84.2263 139.675Z" fill="#181716"/>
<path d="M81.8034 137.767L82.1264 136.971C81.8842 136.653 80.6728 138.085 81.0766 136.733C80.9958 137.29 80.3498 137.449 80.6728 137.846C81.1573 137.29 81.6419 137.449 81.8034 137.767Z" fill="#181716"/>
<path d="M81.1573 136.096C81.3188 135.937 81.3188 135.699 81.3995 135.46C81.3188 135.301 80.9958 135.619 80.915 135.937C81.4803 135.063 80.7535 136.653 81.1573 136.096Z" fill="#181716"/>
<path d="M79.6232 135.46C79.704 135.46 79.8655 135.46 79.8655 135.222C79.5425 135.142 79.2194 136.017 78.8157 136.415C78.8157 136.971 79.5425 135.938 79.6232 135.46Z" fill="#181716"/>
<path d="M80.1885 128.939C79.8655 129.575 80.1885 129.575 80.35 129.416C80.1885 129.496 80.1077 129.257 80.1885 128.939Z" fill="#181716"/>
<path d="M77.4427 134.108V134.267L78.008 133.393L77.4427 134.108Z" fill="#181716"/>
<path d="M75.4237 133.711L74.8584 134.267H75.2622L75.4237 133.711Z" fill="#181716"/>
<path d="M75.1814 133.393L74.8584 133.313V133.631C74.8584 133.87 75.1007 133.393 75.1814 133.393Z" fill="#181716"/>
<path d="M74.2933 133.074C74.3741 133.074 74.2933 133.154 74.2933 133.233L74.7779 132.995L74.2933 133.074Z" fill="#181716"/>
<path d="M72.032 126.792C72.4358 126.235 71.9513 126.474 72.032 126.315C71.8705 126.474 71.5475 127.349 72.032 126.792Z" fill="#181716"/>
</g>
</g>
<path d="M97.3891 0.423828C97.3891 0.423828 96.743 12.671 96.3393 29.6102C96.3393 29.6897 96.3393 29.8488 96.3393 29.9283C96.0163 46.7085 89.4751 58.4784 77.3618 61.6595C76.635 61.8186 75.9082 61.9776 75.1815 62.1367C74.6969 62.2162 74.1316 62.2957 73.6471 62.3753C72.9203 62.4548 72.1127 62.5343 71.3052 62.5343C65.1678 62.6934 60.484 60.1485 57.1731 56.9674C51.924 51.9572 49.7436 45.3565 49.6628 45.0384C49.6628 45.0384 52.8123 42.5731 57.2538 39.2329C58.7882 38.04 60.484 36.7676 62.2606 35.4952C64.118 34.1432 66.0561 32.7117 67.9943 31.2803C69.5286 30.1669 71.0629 29.0535 72.5973 28.0197C72.7588 27.9401 72.9203 27.7811 73.0818 27.7015C75.7467 25.7929 78.4924 23.4071 80.9958 20.8622C89.8789 11.8757 97.1468 0.821463 97.3891 0.423828Z" fill="#706153"/>
<path d="M49.582 45.118C49.5012 45.4361 47.0786 52.0368 41.2642 57.047C37.6303 60.1486 32.5427 62.6139 25.84 62.6139C24.3057 62.6139 22.7713 62.4548 21.3985 62.2163C21.3985 62.2163 21.3985 62.2163 21.3177 62.2163C7.26633 59.8305 -0.0823813 46.7881 0.321394 31.837V31.7575C0.321394 31.0417 0.402154 30.4055 0.402154 29.6898C0.886685 20.7032 1.775 11.001 2.90557 0.503418C3.06708 0.821525 7.99313 9.72853 18.3298 19.6694C20.8332 22.1347 23.7404 24.6796 26.9706 27.1449C27.2128 27.3835 27.5359 27.6221 27.7781 27.7811C33.108 31.837 37.3072 35.0976 40.4567 37.6425C47.1594 42.8912 49.582 45.118 49.582 45.118Z" fill="#706153"/>
<path d="M2.98635 0.423828C2.90559 0.423828 2.90559 0.423828 2.98635 0.423828Z" stroke="#1B1C1E" stroke-width="0.8477" stroke-miterlimit="10"/>
<path d="M53.3778 134.188C53.3778 134.188 39.8109 134.029 39.8109 138.562H65.9756C65.9756 138.562 62.2608 132.995 53.3778 134.188Z" fill="#FCBD30"/>
<path d="M45.3831 134.188C45.3831 134.188 31.8163 134.029 31.8163 138.562H57.9809C57.9002 138.562 54.1854 132.995 45.3831 134.188Z" fill="#FCBD30"/>
<path d="M89.9597 48.3787C87.0525 57.5243 80.5921 60.7053 77.4426 61.7392C76.7158 61.8982 75.9891 62.0573 75.2623 62.2163C74.7777 62.2959 74.2124 62.3754 73.7279 62.4549C73.0011 62.5345 72.1936 62.614 71.386 62.614C65.2486 62.773 60.5648 60.2282 57.2539 57.0471C52.0048 52.0369 49.8244 45.4362 49.7437 45.1181C49.7437 45.1181 52.8931 42.6527 57.3346 39.3126C58.869 38.1197 60.5648 36.8473 62.3415 35.5748C64.1988 34.2229 66.1369 32.7914 68.075 31.3599C69.6094 30.2465 71.1437 29.1332 72.6781 28.0993C72.8396 28.0198 73.0011 27.8607 73.1626 27.7812C75.8275 25.8726 78.5732 23.4868 81.0766 20.9419C87.86 25.4749 93.5129 37.1654 89.9597 48.3787Z" fill="#E8D9CD"/>
<path d="M49.5822 45.118C49.5015 45.4361 47.0788 52.0369 41.2645 57.0471C37.6305 60.1486 32.5429 62.6139 25.8403 62.6139C24.3059 62.6139 22.8523 62.4549 21.4795 62.2163C21.4795 62.2163 21.4795 62.2163 21.3987 62.2163C21.3987 62.2163 21.3987 62.2163 21.318 62.2163C21.2372 62.2163 21.1565 62.2163 20.9949 62.1368C20.9949 62.1368 20.9949 62.1368 20.9142 62.1368C18.8146 61.6596 10.416 59.2738 7.02431 48.4582C3.06731 36.052 10.416 23.0096 18.33 19.6694C20.8334 22.1348 23.7406 24.6796 26.9708 27.145C27.2131 27.3835 27.5361 27.6221 27.7784 27.7812C33.1082 31.837 37.3075 35.0976 40.4569 37.6425C47.1596 42.8913 49.5822 45.118 49.5822 45.118Z" fill="#E8D9CD"/>
<path d="M80.8345 38.6762C80.8345 45.1179 75.5046 50.3666 68.9635 50.3666C62.6646 50.3666 57.4155 45.436 57.1732 39.3124C58.7076 38.1195 60.4034 36.8471 62.18 35.5746C64.0374 34.2227 65.9755 32.7912 67.9137 31.3597C69.448 30.2463 70.9823 29.133 72.5167 28.0991C72.6782 28.0196 72.8397 27.8605 73.0012 27.781C77.5235 29.292 80.8345 33.5865 80.8345 38.6762Z" fill="white"/>
<path d="M76.5544 38.6762C76.5544 42.8116 73.1627 46.1517 68.9634 46.1517C64.7641 46.1517 61.3724 42.8116 61.3724 38.6762C61.3724 37.5628 61.6147 36.4495 62.0992 35.4951C63.9566 34.1432 65.8947 32.7117 67.8328 31.2802C68.2366 31.2007 68.5596 31.2007 68.9634 31.2007C73.1627 31.2007 76.5544 34.5408 76.5544 38.6762Z" fill="#534E4A"/>
<path d="M49.582 45.1179C49.582 45.1179 42.9601 53.5478 41.1835 57.047C41.1835 57.047 45.8673 60.5461 49.4205 61.739C49.4205 61.739 54.6696 59.9099 57.0922 57.047C57.173 57.047 52.5699 48.458 49.582 45.1179Z" fill="#FCBD30"/>
<mask id="mask1_37_3004" style="mask-type:luminance" maskUnits="userSpaceOnUse" x="41" y="56" width="17" height="6">
<path d="M57.0922 57.047C54.5888 59.9099 49.4205 61.7391 49.4205 61.7391C45.8673 60.6257 41.1835 57.047 41.1835 57.047C41.1835 57.047 46.271 55.9336 49.4205 60.8643C49.4205 60.8643 51.9239 56.8879 57.0922 57.047Z" fill="white"/>
</mask>
<g mask="url(#mask1_37_3004)">
<g opacity="0.78">
<path d="M44.5748 58.1604L44.494 58.2399C44.5748 58.2399 44.5748 58.1604 44.5748 58.1604Z" fill="#181716"/>
<path d="M47.4821 57.5242L47.4014 57.6037C47.4014 57.6037 47.4821 57.6037 47.4821 57.5242Z" fill="#181716"/>
<path d="M54.3459 57.2856L54.4267 57.2061C54.3459 57.2061 54.3459 57.206 54.3459 57.2856Z" fill="#181716"/>
<path d="M48.1278 58.4784C47.8856 58.876 47.9663 58.3988 47.724 58.7169C47.8048 58.7169 47.9663 58.6374 47.8048 58.876C47.6433 59.035 47.6433 58.7965 47.4818 59.035H47.6433C47.5625 59.1941 47.3203 59.3532 47.401 59.4327C47.8048 59.1146 47.5625 59.7508 47.6433 59.8303H47.5625V60.1484C47.5625 60.1484 47.5625 60.0689 47.6433 60.0689C47.5625 60.3075 47.4818 60.5461 47.6433 60.5461C47.724 60.4665 47.8855 60.5461 47.9663 60.5461C48.0471 60.6256 48.2086 60.7846 48.2893 60.7051C48.2086 60.7051 48.1278 60.6256 48.1278 60.5461L48.3701 60.3075C48.4508 60.387 48.2086 60.5461 48.4508 60.5461C48.6931 60.1484 48.2893 60.387 48.2893 60.3075C48.3701 60.228 48.4508 60.228 48.5316 60.228C48.3701 60.0689 48.3701 59.8303 47.9663 60.1484C47.9663 60.0689 48.1278 59.9098 48.2086 59.9098C47.9663 59.9894 48.2893 59.6713 48.0471 59.7508C48.3701 59.4327 48.3701 59.7508 48.6931 59.6713C48.6123 59.8303 48.6931 59.9099 48.8546 59.9894C48.9354 59.9894 49.0161 59.9894 49.0969 59.9894C48.9354 60.3075 48.6931 60.4665 48.6931 60.6256C48.7739 60.9437 48.9354 60.6256 49.0969 60.4665C49.1776 60.7051 48.8546 61.0232 49.0969 61.2618C49.0161 61.3413 48.9354 61.3413 48.9354 61.3413C48.9354 61.9775 49.0969 61.2618 49.1776 61.4209C49.1776 61.2618 49.1776 61.1027 49.0969 61.0232C49.1776 60.8642 49.2584 60.7846 49.2584 60.8642C49.3391 60.6256 49.4199 60.387 49.5007 60.6256C49.4199 60.8642 49.5007 60.9437 49.5007 61.1028V61.1823C49.5814 61.1823 49.5814 61.1823 49.5814 61.1823L49.6622 61.1028V61.1823C49.7429 61.0232 49.7429 60.5461 49.8237 60.6256C49.8237 60.7846 49.7429 61.2618 49.8237 61.1823C49.8237 61.4209 49.6622 61.5799 49.5814 61.5004C49.6622 61.5004 49.7429 61.898 49.5814 61.9776C49.5814 62.2957 49.7429 61.739 49.8237 61.8185C49.8237 61.739 49.8237 61.5799 49.8237 61.5004C49.8237 61.898 50.1467 61.3413 50.0659 61.1028L49.9852 61.4209C49.9852 61.1027 50.0659 60.7846 49.9852 60.6256C50.0659 60.8642 50.1467 60.7051 50.1467 60.6256C50.2275 60.5461 50.2275 60.387 50.3082 60.5461L50.1467 60.3075C50.389 60.3075 50.3082 59.7508 50.4697 59.5122C50.4697 59.6713 50.712 60.0689 50.4697 60.0689C50.712 59.9894 50.7927 60.4665 51.035 60.6256C51.2773 60.7051 50.8735 60.1484 50.8735 59.9894L50.7927 60.1484C50.6312 59.5917 51.2773 59.9894 51.358 59.5122C51.4388 59.5917 51.358 59.5917 51.358 59.6713C51.6003 59.8303 51.4388 59.5917 51.4388 59.4327C51.6003 59.4327 51.7618 59.4327 51.9233 59.7508C52.0848 59.7508 51.7618 59.5917 51.7618 59.4327L51.8425 59.5122L51.7618 59.1146C51.9233 59.1146 52.1656 59.2736 52.4078 59.5122C52.6501 59.2736 52.0848 58.7965 52.1656 58.5579C52.3271 58.6374 52.2463 58.7965 52.3271 58.876L52.4886 58.7169C52.6501 59.1146 52.4078 58.9555 52.6501 59.3532C52.5693 58.876 52.7309 59.1146 52.8116 58.7965C52.7309 58.4784 53.0539 58.5579 53.1346 58.4784C53.2154 58.6374 53.0539 58.7169 53.0539 58.876C53.2154 58.9555 53.4577 58.6374 53.3769 58.2398C53.4577 58.2398 53.6999 58.3193 53.6999 58.4784C53.9422 58.3988 53.5384 58.0012 53.7807 57.9217L53.9422 58.1603C54.346 58.3988 54.2652 57.6036 54.5882 57.8421L54.4267 57.524C54.5075 57.6036 54.669 57.6036 54.7497 57.6831L54.669 57.8421C54.9112 58.0012 54.669 57.6036 54.8305 57.6831C54.7497 57.6036 54.5882 57.4445 54.5075 57.365C54.1037 57.7626 53.3769 57.524 53.1346 58.0807C53.1346 58.0807 53.2154 58.1603 53.2154 58.2398C53.1346 58.1603 53.0539 58.3193 52.9731 58.1603C52.8924 58.3193 52.5693 58.0012 52.4886 58.0012C52.5693 58.2398 52.1656 58.0807 52.4886 58.3988L52.2463 58.2398C52.3271 58.3988 52.4078 58.5579 52.4078 58.6374C52.3271 58.6374 52.2463 58.4784 52.2463 58.3988C51.8425 58.3988 51.4388 58.7169 51.1965 58.9555V58.7169C51.035 58.6374 51.1158 59.1941 50.8735 58.7169C50.7927 58.9555 50.389 58.876 50.6312 59.3532C50.4697 59.1941 50.3082 59.1941 50.2274 59.2736C50.1467 59.3532 50.1467 59.3532 50.0659 59.4327C50.0659 59.5122 50.0659 59.5122 50.0659 59.5917C50.3082 59.9894 50.0659 59.7508 50.0659 59.9894C49.9044 59.6713 49.9852 59.5917 49.9044 59.3532C49.9852 59.6713 49.9044 59.5917 49.8237 59.5917C49.7429 59.5917 49.7429 59.5917 49.7429 60.1484C49.7429 60.1484 49.7429 60.0689 49.7429 59.9894C49.7429 59.9894 49.6622 59.8303 49.6622 59.7508C49.6622 59.9894 49.6622 60.0689 49.6622 60.1484C49.6622 60.0689 49.6622 59.7508 49.6622 59.5917C49.5814 59.8303 49.5007 59.8303 49.3391 60.1484C49.3391 59.9894 49.4199 59.7508 49.4199 59.7508C49.1776 59.9099 49.3391 59.5917 49.1776 59.6713C49.2584 59.6713 49.4199 59.3532 49.4199 59.5122C49.5007 59.2736 49.5814 59.2736 49.4199 59.2736C49.2584 59.1941 49.0969 59.1941 49.0969 59.035L48.7739 59.1941C48.6123 59.1146 48.8546 58.876 48.9354 58.876C48.8546 58.5579 48.6123 58.6374 48.4508 58.5579L48.5316 58.4784L48.2893 58.3193C48.2086 58.3988 48.0471 58.3988 47.9663 58.6374C47.9663 58.3193 48.1278 58.2398 48.1278 58.4784Z" fill="#181716"/>
<path d="M49.0971 61.4209C49.0971 61.2619 49.0971 61.2619 49.0971 61.1824C49.0163 61.2619 49.0163 61.3414 49.0971 61.4209Z" fill="#181716"/>
<path d="M45.3015 57.6832C45.14 58.0013 45.463 57.6832 45.5438 57.8422C45.3823 57.8422 45.3823 58.0808 45.3015 58.1604C45.6246 57.7627 45.3823 58.3194 45.6246 58.3194C45.5438 58.4785 45.4631 58.3989 45.3015 58.558C45.4631 58.4785 45.7053 58.558 45.8668 58.3194C46.0283 58.3989 46.1899 58.6375 46.2706 58.6375C46.0283 58.6375 46.1091 58.8761 45.8668 59.0352C46.1899 58.7966 46.7551 58.6375 47.2397 58.3989C47.0782 58.7171 47.0782 58.717 46.8359 59.0352C46.9166 59.4328 47.0782 58.7966 47.2397 59.0352L47.1589 58.8761C47.3204 58.8761 47.5627 58.558 47.7242 58.3989C47.6434 58.3194 47.4819 58.3194 47.4012 58.2399C47.5627 58.0013 47.7242 58.1604 47.8049 58.1604C48.0472 58.0013 47.8049 57.9218 47.9665 57.6832C47.8049 57.8422 47.7242 57.6832 47.5627 57.7627L47.6434 57.6832C47.5627 57.5241 47.3204 57.7627 47.1589 57.6832V57.6037C46.9974 57.6832 46.9166 57.8422 46.7551 57.8422H46.8359C46.5936 58.0808 46.1898 58.0808 46.1898 58.4785L45.9476 58.2399C46.1091 58.0013 46.4321 57.6037 46.6744 57.6037L46.7551 57.5241C46.6744 57.2856 46.2706 57.6037 46.1898 57.8422C45.7053 58.3989 45.7053 57.6037 45.3823 57.8422C45.4631 57.6832 45.6246 57.6832 45.7053 57.5241C45.7861 57.5241 45.8668 57.5241 45.7861 57.6832C46.1091 57.6832 46.0283 57.1265 46.3514 57.2856C46.4321 57.4446 46.0283 57.4446 46.1898 57.6037L46.6744 57.206C46.5129 57.1265 46.3514 57.206 46.1898 57.206C45.7861 57.2856 45.4631 57.1265 45.3015 57.047C45.14 56.9675 44.9785 56.8879 44.9785 56.8879C43.9287 56.6493 42.8789 56.5698 41.8291 56.5698C41.5061 56.5698 41.3445 56.6493 41.2638 56.6493C41.3445 56.6493 41.5061 56.6493 41.4253 56.7289C41.4253 56.7289 41.5868 56.7289 41.7483 56.7289C41.7483 56.8084 41.5868 56.7289 41.6676 56.7289H41.5868C41.7483 56.8084 42.0713 56.9675 42.2329 56.8084C42.3944 56.8879 42.0713 56.8879 41.9906 56.8879C42.4751 57.1265 42.7981 57.206 43.2827 57.4446C43.3634 57.206 43.3634 57.3651 43.5249 57.206V57.2856C43.5249 57.206 43.6057 57.1265 43.5249 57.047C43.7672 57.2856 44.0095 56.8879 44.2517 56.8084L44.171 56.9675C44.3325 56.9675 44.4132 56.9675 44.5747 56.9675C44.7363 57.2856 44.3325 56.9675 44.2517 57.2856H44.3325C44.2517 57.3651 44.0902 57.6037 44.0095 57.6832C44.3325 57.6037 44.3325 57.9218 44.6555 57.8422C44.5747 58.0013 44.2517 58.0013 44.171 58.0013C44.2517 58.0808 44.4132 58.0013 44.4132 58.1604L44.494 58.0013C44.6555 58.0808 44.4132 58.1604 44.4132 58.3194C44.9785 58.4785 44.9785 57.6832 45.3015 57.6832Z" fill="#181716"/>
<path d="M48.6934 60.069C48.6934 59.9895 48.6127 59.9895 48.6127 59.9895C48.6127 60.069 48.6127 60.069 48.6934 60.069Z" fill="#181716"/>
<path d="M47.6434 59.9895L47.5626 60.069C47.6434 60.069 47.6434 60.069 47.6434 59.9895Z" fill="#181716"/>
<path d="M47.3204 60.3077C47.4012 60.1486 47.4012 60.2281 47.5627 60.0691C47.4819 60.1486 47.4012 60.0691 47.3204 60.3077Z" fill="#181716"/>
<path d="M56.9304 56.8084C56.8496 56.7289 56.6881 56.6493 56.6881 56.8084C56.7689 56.7289 56.8496 56.9674 56.9304 56.8084Z" fill="#181716"/>
<path d="M55.9611 57.0471H56.2841C56.4456 57.2857 56.2033 57.2062 56.2033 57.2857C56.4456 57.2062 56.2841 57.2062 56.4456 56.9676C56.5264 56.9676 56.5264 56.8085 56.6071 56.729C56.2841 57.0471 56.0418 56.4904 55.9611 57.0471Z" fill="#181716"/>
<path d="M56.5264 57.047V56.8879L56.4457 57.047H56.5264Z" fill="#181716"/>
<path d="M55.2345 56.9674C54.9115 56.7288 55.073 57.2855 54.8308 57.206V57.1265L54.6692 57.206L54.5885 57.1265C54.6693 57.2855 54.5885 57.4446 54.5885 57.6831C54.8308 57.8422 54.5077 57.365 54.75 57.6036C54.75 57.6831 54.8308 57.8422 54.8308 57.9217C54.8308 57.7627 54.8308 57.6831 54.8308 57.5241C54.9115 57.4446 54.9115 57.6036 54.9923 57.6831C54.9923 57.5241 54.9115 57.206 55.073 57.206C55.2345 57.2855 55.1538 57.5241 55.3153 57.365C55.073 57.1265 55.4768 57.365 55.4768 57.1265C55.6383 57.1265 55.7998 57.2855 55.7998 57.365C55.7191 57.1265 55.7191 56.8879 55.7998 56.8083L55.6383 57.0469L55.4768 56.8083C55.4768 56.9674 55.396 56.9674 55.2345 56.9674Z" fill="#181716"/>
<path d="M55.9611 57.365V57.4445L56.0418 57.524L55.9611 57.365Z" fill="#181716"/>
<path d="M54.9921 58.1603C54.9921 58.1603 54.9921 58.0808 54.9114 58.0808L54.9921 58.1603Z" fill="#181716"/>
<path d="M54.75 58.0809L54.5885 57.9219L54.6692 58.0809H54.75Z" fill="#181716"/>
<path d="M51.9235 59.5124C52.085 59.592 51.9235 59.3534 51.8427 59.1943C51.6812 59.1943 51.9235 59.3534 51.9235 59.5124Z" fill="#181716"/>
<path d="M50.2278 61.0234C50.3893 61.1029 50.4701 60.7848 50.5508 60.7053C50.3893 60.6257 50.3085 60.7848 50.2278 61.0234Z" fill="#181716"/>
<path d="M47.8051 61.4212C47.8858 61.4212 48.0473 61.5007 48.1281 61.5007L48.0473 61.4212C48.2088 61.2621 48.2896 61.2621 48.4511 61.1826C48.2088 61.1031 47.9666 61.1031 47.8051 61.4212Z" fill="#181716"/>
<path d="M48.6124 61.1824C48.5317 61.1824 48.5317 61.1824 48.6124 61.1824C48.5317 61.1824 48.4509 61.2619 48.6124 61.1824Z" fill="#181716"/>
<path d="M48.4509 61.103C48.5317 61.103 48.5317 61.0234 48.4509 61.103Z" fill="#181716"/>
<path d="M47.7244 61.0233C47.5629 60.8643 47.5629 60.8643 47.4014 60.8643V61.0233C47.4821 60.9438 47.4821 60.9438 47.4821 61.0233C47.5629 61.1028 47.6436 61.1824 47.7244 61.0233Z" fill="#181716"/>
<path d="M46.9166 59.91L47.0781 59.6714C46.9973 59.5124 46.5128 59.91 46.6743 59.4329C46.6743 59.5919 46.4321 59.5919 46.5128 59.751C46.6743 59.6714 46.8358 59.751 46.9166 59.91Z" fill="#181716"/>
<path d="M46.6745 59.1942C46.7553 59.1147 46.7553 59.1147 46.7553 59.0351C46.7553 58.9556 46.5938 59.0351 46.5938 59.1147C46.7553 58.8761 46.513 59.3533 46.6745 59.1942Z" fill="#181716"/>
<path d="M46.0283 58.7965C46.1091 58.7965 46.1091 58.7965 46.1091 58.717C45.9476 58.6374 45.8668 58.876 45.7053 59.0351C45.7053 59.2737 46.0283 58.9556 46.0283 58.7965Z" fill="#181716"/>
<path d="M45.7054 56.8083C45.6246 56.9674 45.7861 56.9674 45.8669 56.9674C45.7861 56.9674 45.7054 56.8879 45.7054 56.8083Z" fill="#181716"/>
<path d="M44.9786 58.1605H45.0594L45.2209 57.9219L44.9786 58.1605Z" fill="#181716"/>
<path d="M44.1709 57.8423L44.0094 57.9218L44.1709 58.0013V57.8423Z" fill="#181716"/>
<path d="M44.0093 57.7629L43.8478 57.6833V57.7629C44.0093 57.8424 44.0093 57.6834 44.0093 57.7629Z" fill="#181716"/>
</g>
</g>
<path d="M103.849 140.868C64.1179 136.494 45.302 105.32 50.1473 84.0066C54.0235 67.1469 68.8017 63.2501 73.647 62.3753C74.1315 62.2957 74.6161 62.2957 75.0198 62.2162C75.1006 62.2162 75.1814 62.2162 75.1814 62.2162C75.9082 62.0571 76.6349 61.8981 77.3617 61.739C89.475 58.558 96.0162 46.788 96.3392 30.0078C95.9354 49.4124 95.8547 74.7815 97.389 94.9813C99.4079 120.35 103.849 140.868 103.849 140.868Z" fill="#89745E"/>
<path d="M50.0665 97.3672C50.0665 97.3672 54.1043 115.42 70.7398 123.213C83.9029 129.417 76.6349 115.658 76.6349 115.658C76.6349 115.658 80.6727 122.577 86.8909 125.122C92.8667 127.508 93.1897 121.543 93.1897 121.543C93.1897 121.543 96.9045 126.951 101.184 126.235" stroke="#1B1C1E" stroke-miterlimit="10" stroke-linecap="round" stroke-linejoin="round"/>
<path d="M28.7476 50.3667C35.3038 50.3667 40.6186 45.1327 40.6186 38.6763C40.6186 32.2198 35.3038 26.9858 28.7476 26.9858C22.1914 26.9858 16.8766 32.2198 16.8766 38.6763C16.8766 45.1327 22.1914 50.3667 28.7476 50.3667Z" fill="white"/>
<path d="M28.7474 46.152C32.9397 46.152 36.3383 42.8051 36.3383 38.6765C36.3383 34.5478 32.9397 31.2009 28.7474 31.2009C24.555 31.2009 21.1564 34.5478 21.1564 38.6765C21.1564 42.8051 24.555 46.152 28.7474 46.152Z" fill="#1B1C1E" stroke="#1B1C1E" stroke-miterlimit="10"/>
<path d="M68.9634 50.3667C75.5196 50.3667 80.8344 45.1327 80.8344 38.6763C80.8344 32.2198 75.5196 26.9858 68.9634 26.9858C62.4072 26.9858 57.0924 32.2198 57.0924 38.6763C57.0924 45.1327 62.4072 50.3667 68.9634 50.3667Z" fill="white"/>
<path d="M68.9633 46.152C73.1557 46.152 76.5543 42.8051 76.5543 38.6765C76.5543 34.5478 73.1557 31.2009 68.9633 31.2009C64.7709 31.2009 61.3723 34.5478 61.3723 38.6765C61.3723 42.8051 64.7709 46.152 68.9633 46.152Z" fill="#1B1C1E" stroke="#1B1C1E" stroke-miterlimit="10"/>
<path d="M97.3891 0.423828C96.5816 3.04822 85.9219 18.9536 68.9634 31.2007C65.6524 33.5865 49.5821 45.0384 49.5821 45.0384C36.096 37.0857 9.93139 15.693 2.9057 0.423828C3.06721 0.821463 26.4054 15.4544 27.536 15.693C28.7473 16.0111 72.5973 15.693 72.5973 15.693L97.3891 0.423828Z" fill="#89745E"/>
<path d="M72.5975 15.7727C72.5975 15.7727 77.6851 16.0113 79.6232 17.6814" stroke="#1B1C1E" stroke-miterlimit="10"/>
<path d="M27.6168 15.7726C27.6168 15.7726 22.8523 15.6135 19.9451 17.3631" stroke="#1B1C1E" stroke-miterlimit="10"/>
<path d="M66.5409 105.718C66.5409 105.718 70.5787 114.943 76.716 115.658C82.8534 116.295 80.9153 107.308 80.9153 107.308C80.9153 107.308 88.264 121.225 93.2708 121.543C98.2776 121.782 95.6935 109.853 95.6935 109.853" stroke="#1B1C1E" stroke-miterlimit="10"/>
</svg>
