<svg width="122" height="196" viewBox="0 0 122 196" fill="none" xmlns="http://www.w3.org/2000/svg">
<path d="M0.852272 191.989C0.852272 191.989 -3.91228 194.056 9.08929 194.693C22.0909 195.329 90.8942 195.647 98.0006 194.693C105.107 193.738 118.835 194.295 100.585 191.989C82.3341 189.682 63.5182 191.034 45.1061 189.682C26.6939 188.33 3.59794 189.603 0.852272 191.989Z" fill="#1B1C1E"/>
<path d="M96.224 152.146C96.224 152.146 103.492 148.885 104.703 132.185C105.915 115.484 98.4851 102.044 97.7583 80.8898C97.0315 59.7357 109.145 47.8067 118.512 54.646C127.88 61.4853 113.829 74.8458 116.413 102.442C118.997 129.958 119.724 157.792 97.5161 164.95C97.5968 164.95 93.8013 159.781 96.224 152.146Z" fill="#513F3B"/>
<path d="M37.5954 192.069C37.5954 192.069 9.57338 192.069 7.87752 192.069C6.18166 192.069 4.08203 179.503 18.941 179.265C33.7999 179.026 42.7637 179.265 42.7637 179.265L37.5954 192.069Z" fill="#513F3B"/>
<path d="M11.8348 192.068C11.8348 192.068 11.0272 189.046 13.2884 186.899" stroke="#1B1C1E" stroke-miterlimit="10"/>
<path d="M17.1646 192.068C17.1646 192.068 17.1645 189.603 18.2951 188.49" stroke="#1B1C1E" stroke-miterlimit="10"/>
<path d="M27.6629 13.0532C27.6629 13.0532 17.8108 -1.26164 11.4311 0.090315C5.05148 1.44227 4.16318 30.9467 9.73528 32.7759C15.2266 34.6845 27.6629 13.0532 27.6629 13.0532Z" fill="#513F3B"/>
<path d="M56.5728 14.0872C56.5728 14.0872 69.5743 4.86206 77.4883 5.41875C85.4831 5.89591 77.3268 29.1178 71.4317 35.0823C65.5366 41.0468 56.5728 14.0872 56.5728 14.0872Z" fill="#513F3B"/>
<path d="M20.2333 63.1551C20.2333 63.1551 9.81591 56.8725 8.12005 43.7505C6.4242 30.6286 12.4808 9.87207 41.5527 9.87207C70.6245 9.87207 76.1158 33.8097 74.0162 46.1363C72.0781 57.8268 66.1022 61.485 66.1022 61.485C66.1022 61.485 72.5626 75.8794 75.7928 84.3092C78.2962 90.8304 79.5075 97.5107 78.5385 105.304C78.5385 105.304 88.2291 119.46 94.2857 131.23C100.1 142.523 104.945 170.834 99.6963 190C99.3733 191.273 98.162 192.148 96.8699 192.148H20.3948C13.6114 192.148 5.6974 181.173 11.9155 137.672C11.9155 137.672 8.68534 130.196 11.5118 114.688C14.3382 99.1807 20.2333 63.1551 20.2333 63.1551Z" fill="#FFE6BD"/>
<path d="M87.5023 192.069C87.5023 192.069 82.5762 192.069 81.1226 192.069H45.5096C41.3911 181.491 53.9082 177.515 60.2878 177.515C65.2139 177.515 76.5196 177.515 76.5196 177.515C76.5196 177.515 82.5762 177.754 85.1604 181.889C88.2291 186.74 87.6638 191.83 87.5023 192.069Z" fill="#513F3B"/>
<path d="M28.8742 140.297C25.8863 142.364 23.1406 143.557 21.2025 144.273C19.1028 144.989 16.7609 144.511 15.2266 142.841C13.127 140.615 11.8349 137.593 11.8349 137.593C11.8349 137.593 9.73524 132.741 10.3813 122.801C10.3813 122.801 10.6235 116.279 19.8296 114.291C26.6938 112.78 30.4085 116.041 30.4085 116.041C30.247 117.313 30.0048 118.586 29.7625 120.017C28.9549 124.789 29.924 133.06 30.4085 136.877C30.57 138.149 30.0048 139.501 28.8742 140.297Z" fill="#513F3B"/>
<path d="M20.2332 63.1553C20.2332 63.1553 21.5252 63.9505 21.929 64.0301" stroke="#1B1C1E" stroke-miterlimit="10"/>
<path d="M11.8347 137.672C11.8347 137.672 13.1268 140.694 15.2264 142.921C16.7608 144.511 19.1027 145.068 21.2023 144.273C23.1404 143.557 25.8861 142.364 28.874 140.296C30.0046 139.501 30.5699 138.229 30.3276 136.877C29.8431 133.059 28.9548 124.789 29.6816 120.017C30.7314 113.655 31.3775 108.486 31.3775 108.486" stroke="#1B1C1E" stroke-miterlimit="10"/>
<path d="M21.6061 144.034C21.6061 144.034 18.3759 141.569 17.9722 137.115" stroke="#1B1C1E" stroke-miterlimit="10"/>
<path d="M26.6937 141.648C26.6937 141.648 24.2711 139.422 24.0288 135.525" stroke="#1B1C1E" stroke-miterlimit="10"/>
<path d="M66.8289 120.494C61.176 123.914 58.2688 125.902 58.5919 129.719C58.9956 134.173 55.5232 134.57 53.9888 134.968C51.7277 135.525 47.4477 135.922 44.1367 135.525C42.6831 135.366 39.8567 132.741 39.8567 126.856C39.8567 121.448 44.2982 112.223 52.8583 107.531C52.8583 107.531 59.884 106.179 64.5678 111.507C67.6364 115.086 66.8289 120.494 66.8289 120.494Z" fill="#513F3B"/>
<path d="M78.5383 105.304C78.5383 105.304 77.4885 113.893 69.8168 118.665C62.145 123.437 58.1073 125.345 58.5111 129.799C58.9148 134.252 55.4424 134.65 53.908 135.048C51.6469 135.604 47.3669 136.002 44.0559 135.604C42.6023 135.445 39.7759 132.821 39.7759 126.936C39.7759 121.528 44.2174 112.303 52.7775 107.611" stroke="#1B1C1E" stroke-miterlimit="10"/>
<path d="M49.0628 135.604C49.0628 135.604 45.1058 134.73 45.3481 128.765" stroke="#1B1C1E" stroke-miterlimit="10"/>
<path d="M53.989 134.968C53.989 134.968 51.4049 133.219 51.7279 128.765" stroke="#1B1C1E" stroke-miterlimit="10"/>
<path d="M86.614 133.139C86.614 133.139 79.3461 124.312 67.9596 130.674C57.4614 136.559 54.8773 163.677 63.8411 177.435" stroke="#1B1C1E" stroke-miterlimit="10"/>
<path d="M45.5905 192.069C41.4719 181.491 53.989 177.515 60.3686 177.515C65.2947 177.515 76.6004 177.515 76.6004 177.515" stroke="#1B1C1E" stroke-miterlimit="10"/>
<path d="M51.324 192.068C51.324 192.068 49.3052 188.967 51.324 186.899" stroke="#1B1C1E" stroke-miterlimit="10"/>
<path d="M55.9272 192.069C55.9272 192.069 55.4427 188.569 56.8155 187.376" stroke="#1B1C1E" stroke-miterlimit="10"/>
<path d="M40.9876 60.7696C40.9876 60.7696 26.6132 57.668 20.2335 48.9996C13.8539 40.3312 17.4878 27.925 19.0222 25.8573C20.5565 23.8691 22.1716 16.6322 43.0872 17.5865C59.4805 18.3818 65.4563 27.0502 66.4254 32.8557C67.3137 38.1044 65.9409 47.8862 59.8842 52.6579C51.3242 59.4176 40.9876 60.7696 40.9876 60.7696Z" fill="#513F3B"/>
<path d="M33.5579 33.0944C33.8001 32.6967 33.8001 32.2991 33.5579 31.9015C32.7503 30.7086 30.8122 27.9251 28.228 28.0842C25.1593 28.2432 22.8982 31.5038 22.8982 32.5377C22.8982 33.8896 24.9978 36.9117 28.1473 37.2298C30.5699 37.3888 32.7503 34.3668 33.5579 33.0944Z" fill="#9BBEDC"/>
<path d="M28.1472 35.8779C29.5744 35.8779 30.7313 34.3469 30.7313 32.4582C30.7313 30.5696 29.5744 29.0386 28.1472 29.0386C26.72 29.0386 25.563 30.5696 25.563 32.4582C25.563 34.3469 26.72 35.8779 28.1472 35.8779Z" fill="#1B1C1E"/>
<path d="M38.8071 36.434C38.8071 36.434 34.5271 36.1159 32.1045 38.5813C29.6818 41.0466 30.0856 45.1025 32.5082 46.6135C34.6886 48.045 35.8192 44.6253 38.8071 44.4663C41.7951 44.3072 41.4721 42.16 41.6336 40.0127C41.7143 37.9451 38.8071 36.434 38.8071 36.434Z" stroke="#1B1C1E" stroke-miterlimit="10"/>
<path d="M41.391 42.7959C41.391 42.7959 41.2295 44.2274 42.8446 44.9431C44.4597 45.7384 45.8325 45.4998 47.5284 47.4085C49.2242 49.2376 52.5352 47.0904 52.5352 43.5912C52.5352 39.6148 49.8702 36.8314 45.0249 36.6723C40.1796 36.5133 41.7947 38.2629 41.7947 38.2629L41.391 42.7959Z" stroke="#1B1C1E" stroke-miterlimit="10"/>
<path d="M35.0923 46.3748C35.0923 46.3748 37.1112 49.1582 40.5029 49.4763C43.6523 49.7944 46.4787 47.8858 46.9633 46.9314" stroke="#1B1C1E" stroke-miterlimit="10"/>
<path d="M41.6336 40.0921C41.6336 40.0921 38.1611 37.9448 37.6765 36.1157C37.192 34.3661 38.1611 33.2527 42.1988 33.4118C45.5098 33.5709 46.9634 34.8433 45.6713 36.911C44.3792 38.7401 41.6336 40.0921 41.6336 40.0921Z" fill="#1B1C1E" stroke="#1B1C1E" stroke-miterlimit="10"/>
<mask id="mask0_37_5251" style="mask-type:luminance" maskUnits="userSpaceOnUse" x="51" y="61" width="18" height="9">
<path d="M68.7672 67.5294C38.6456 72.6986 58.0268 65.3026 58.0268 65.3026C63.0336 64.0302 66.1023 61.4854 66.1023 61.4854C66.1023 61.4854 67.2329 64.0302 68.7672 67.5294Z" fill="white"/>
</mask>
<g mask="url(#mask0_37_5251)">
<g opacity="0.88">
<path d="M64.7296 62.9167L64.5681 62.519C64.6489 62.6781 64.6489 62.8372 64.7296 62.9167Z" fill="#443730"/>
<path d="M62.5495 63.5532C62.4687 63.5532 62.3879 63.4736 62.3879 63.4736C62.3879 63.2351 62.4687 63.3146 62.5495 63.5532Z" fill="#443730"/>
<path d="M72.4823 57.1906C73.2899 58.1449 72.6438 57.1111 73.4514 57.9859C73.2091 57.9063 72.9668 57.7473 73.3706 58.304C73.9359 58.7811 73.5321 58.0654 74.2589 58.8607L73.8552 58.7016C74.0974 59.1788 74.8242 59.6559 74.6627 59.6559C73.6129 58.7016 74.6627 60.4512 74.3397 60.3717L74.5012 60.4512L74.7434 61.1669C74.7434 61.1669 74.7434 61.167 74.8242 61.2465C74.7434 61.167 74.7435 61.167 74.6627 61.0874C75.0665 61.7236 75.228 62.2008 74.905 62.2008C74.3397 61.6441 74.1782 62.4394 73.6129 61.9622C73.7744 62.0417 73.8552 62.0417 73.8552 61.8032L73.2091 61.0874C73.0476 61.2465 73.7744 61.8032 73.2091 61.4851C72.4015 60.4512 73.4514 61.326 73.4514 61.0874C73.2091 60.8488 72.9668 60.6898 72.8053 60.6898C73.0476 60.4512 72.8861 59.974 73.9359 60.8488C73.7744 60.6103 73.4514 60.2126 73.2899 60.1331C73.9359 60.6103 72.8861 59.4969 73.5321 59.8945C72.7246 59.0197 72.8053 59.6559 72.2401 59.2583C72.6438 60.1331 71.8363 59.6559 71.5132 59.6559C72.0785 60.3717 72.7246 60.8488 72.9668 61.326C73.1284 61.9622 72.4015 61.0874 71.9978 60.7693C71.9978 61.1669 72.8861 61.9622 72.6438 62.2008L73.1283 62.5189C73.6936 63.6323 72.6438 62.2008 72.7246 62.5189C72.5631 62.2008 72.4016 61.9622 72.5631 61.8827C72.3208 61.4851 72.0785 61.4055 71.9978 61.4055V61.326C71.594 60.8488 71.1902 60.3717 71.1902 60.6898C71.7555 61.2465 71.4325 61.2465 71.594 61.5646L71.7555 61.6441C71.5133 61.5646 71.4325 61.7236 71.271 61.6441L71.3517 61.8032C71.1095 61.6441 70.5442 60.8488 70.4634 61.0874C70.7057 61.4055 71.4325 62.1213 71.1902 62.1213C71.5132 62.5984 71.7555 62.5189 71.7555 62.2803C71.7555 62.5189 72.1593 63.3142 72.4015 63.3142C72.7246 63.9504 72.0785 63.1551 72.1593 63.4732C72.0785 63.3142 71.917 63.0756 71.7555 62.9165C72.3208 63.7118 71.4325 63.2346 71.1095 62.5984L71.594 62.9165C71.1902 62.2803 70.7057 61.9622 70.5442 61.5646C71.1095 62.678 69.8174 61.326 70.2212 62.2803L69.9789 61.7236C69.8174 62.2803 68.8483 61.2465 68.3638 61.1669C68.6868 61.4055 69.3329 62.5984 69.3329 62.0417C69.1714 62.4394 69.8981 63.2347 70.1404 63.8709C70.1404 64.5071 69.4136 62.837 69.0906 62.5189C69.1713 62.5984 69.3329 62.5984 69.4136 62.5984C68.4446 61.4055 68.8483 63.2346 68.0408 62.5984C68.2023 62.9961 68.2023 62.7575 68.3638 62.9165C68.6061 63.7118 68.1215 62.837 67.8793 62.5984C67.7985 62.7575 67.7177 63.2347 68.283 64.0299C68.2023 64.348 68.0408 63.4732 67.7985 63.2347L67.8793 63.4732L67.2332 62.5984C67.2332 62.9961 67.2332 63.5528 67.5562 64.4276C67.0717 64.4276 66.5064 62.4394 66.1027 62.2803C66.1834 62.837 66.4257 62.9961 66.5872 63.3142H66.2642C66.7487 64.2685 66.7487 63.7118 67.2332 64.9047C66.5064 63.7913 66.7487 64.6661 66.1834 64.0299V63.9504C65.6989 63.1551 65.6989 63.8709 65.4566 63.7913C65.6989 64.2685 65.9412 64.2685 66.1027 64.348C66.1027 64.8252 65.4566 64.5866 64.8913 63.6323C64.8106 63.8709 64.7298 64.348 65.0528 64.7457C64.7298 65.0638 64.4068 63.2347 64.1645 63.7118L64.4068 64.5071C64.4068 65.7795 63.357 63.6323 63.357 64.8252L63.034 63.7913C63.1147 64.2685 62.9532 64.5071 63.034 64.9047L63.2762 65.2228C63.357 66.0976 62.8725 64.4276 62.8725 65.0638C62.7917 64.7457 62.7917 64.0299 62.7109 63.7118C63.1147 63.9504 63.4377 63.6323 63.7608 63.3937C64.0838 63.1551 64.326 62.9165 64.8913 63.2347C64.8913 63.3937 64.8913 63.4732 64.9721 63.7118C64.9721 63.4732 65.2144 63.6323 64.9721 63.1551L64.8913 63.0756C65.1336 63.2347 64.8913 61.9622 64.9721 61.9622C65.2951 62.5984 65.2144 61.5646 65.6181 62.678L65.4566 61.8827C65.6989 62.2803 65.8604 62.837 66.0219 62.9961C66.1027 62.837 65.9412 62.4394 65.6989 62.2008C66.0219 61.6441 66.5064 61.4055 67.1525 61.5646L66.7487 61.0874C66.7487 60.7693 67.637 61.8032 66.8295 60.5307C67.314 60.9284 67.2332 59.8945 67.96 61.2465C67.3947 59.8945 68.1215 60.3717 68.6061 60.3717C69.2521 61.4851 69.0098 60.5307 69.4136 61.0079C68.9291 60.1331 68.6061 60.2922 68.283 59.7355C69.4136 60.8488 68.4446 58.304 70.0597 60.3717C70.0597 60.2922 69.9789 60.2126 69.8981 60.1331C69.9789 60.0536 69.8174 59.6559 69.7366 59.5764C70.0597 59.8945 70.0597 60.2126 70.2212 60.2126C70.3019 60.0536 69.8174 59.4969 69.6559 59.1788C70.2212 59.4969 70.6249 59.4969 71.3517 60.2922C71.271 60.0536 70.948 59.4969 70.7864 59.4174C71.594 59.815 71.0287 59.0993 71.6748 59.2583C71.5132 59.3378 70.948 58.463 71.0287 58.8607C70.2212 57.5882 71.6748 58.7016 71.4325 57.9064L72.1593 58.5426C72.4016 58.5426 71.8363 57.8268 71.5132 57.6678C71.3517 57.0316 71.917 57.3497 72.0785 57.1906C71.9978 57.1111 71.8363 56.952 71.917 57.0316L72.1593 56.793C72.3208 56.952 72.8053 57.1906 73.1283 57.6678C72.6438 57.0316 72.4016 56.793 72.4823 57.1906Z" fill="#443730"/>
<path d="M55.2815 68.8812C55.2815 68.6426 55.0392 68.3245 55.12 68.0859L55.3623 68.404L55.2815 68.8812Z" fill="#443730"/>
<path d="M55.7659 67.9267L56.0081 67.5291L56.1696 68.8015C55.9274 68.8015 56.0889 67.9267 55.7659 67.9267Z" fill="#443730"/>
<path d="M56.4929 67.2112L56.4121 66.8931C56.4929 67.0521 56.4929 67.1316 56.4929 67.2112Z" fill="#443730"/>
<path d="M56.4928 67.6883L56.5735 68.5631L56.2505 67.9269L56.412 67.7679C56.412 67.4498 56.4928 67.2907 56.4928 67.2112L56.6543 67.8474C56.5735 67.7679 56.4928 67.6088 56.4928 67.6883Z" fill="#443730"/>
<path d="M56.8159 67.7681C56.8159 67.8476 56.8159 67.9271 56.8159 68.0066C56.7352 67.9271 56.7352 67.8476 56.8159 67.7681Z" fill="#443730"/>
<path d="M57.3005 66.0979C57.2197 66.416 57.3812 66.8932 57.4619 67.2908C57.2197 67.6089 57.1389 66.3365 56.9774 66.7341C57.3004 67.4498 56.8967 67.2908 56.8159 67.768C56.8967 66.8932 56.9774 66.3365 57.2197 66.0979L57.3005 66.6546C57.3005 66.6546 57.2197 66.3365 57.3005 66.0979Z" fill="#443730"/>
<path d="M58.6731 67.3703L58.4309 66.575C58.4309 66.9726 58.1079 66.9726 58.1886 67.8474C58.1079 67.7679 58.0271 67.3703 57.9464 67.1317C57.8656 67.6088 57.8656 67.9269 57.7041 67.2907C58.1079 66.6545 57.9464 66.4955 58.3501 66.2569C58.3501 66.0978 58.2694 66.0978 58.2694 66.1773L58.5117 65.7002C58.5117 66.6545 58.9154 66.734 58.6731 67.3703Z" fill="#443730"/>
<path d="M58.9964 66.734C58.7541 66.734 58.5926 65.9388 58.6734 65.3821L59.1579 66.0183C58.9964 65.9388 58.8349 65.8592 58.9964 66.734Z" fill="#443730"/>
<path d="M59.3191 66.6547C59.3191 66.1776 59.3998 65.2233 59.6421 66.0981C59.3191 65.939 59.6421 67.2114 59.3191 66.6547Z" fill="#443730"/>
<path d="M60.6919 65.6206L60.3689 66.2568C60.4497 67.3702 60.6112 66.5749 60.8535 67.0521C60.5304 67.2907 60.6112 66.9726 60.2074 66.3364C60.1267 66.4159 59.8844 65.8592 59.7229 65.5411C60.3689 66.3364 59.9652 63.712 60.6919 65.6206Z" fill="#443730"/>
<path d="M60.046 66.8929L59.8845 66.4158L60.1268 66.7339L60.046 66.8929Z" fill="#443730"/>
<path d="M61.3382 64.3484C61.2574 62.9965 61.9034 64.9846 62.065 64.3484C61.9842 64.2689 61.9842 64.1894 61.9034 64.0303L62.1457 64.1099L62.065 63.7917C62.2265 64.587 62.5495 64.8256 62.7917 65.3823C62.7917 66.2571 62.4687 64.428 62.4687 65.3823C62.6302 65.7004 62.7917 66.2571 62.8725 66.4957C62.6302 66.1776 62.4687 65.7004 62.3072 65.3028C62.1457 65.2232 62.3072 65.7004 62.3072 65.939C62.0649 65.5413 61.7419 64.428 61.5804 64.7461C61.5804 65.4618 61.9034 65.7799 61.5804 65.5413C61.4997 64.2689 61.3381 65.7799 61.0959 65.0642C60.9344 65.3028 60.9344 66.098 61.0151 66.5752C60.8536 65.6209 60.5306 64.8256 60.2883 64.587L60.7729 65.3028L60.6921 64.1894C61.0959 64.6665 61.2574 64.587 61.3382 64.3484Z" fill="#443730"/>
<path d="M62.8726 66.4954C62.9533 66.5749 62.9533 66.6544 63.0341 66.6544C63.0341 66.7339 62.9533 66.6544 62.8726 66.4954Z" fill="#443730"/>
<path d="M61.0959 66.8931L61.2575 67.1316V67.4498L61.0959 66.8931Z" fill="#443730"/>
<path d="M63.2763 67.2111C63.1956 67.2906 63.1148 66.893 63.1956 66.8135L63.4378 67.2906L63.2763 67.2111Z" fill="#443730"/>
<path d="M63.3571 66.4955L63.2764 65.7798L63.5186 66.3365L63.3571 66.4955Z" fill="#443730"/>
<path d="M67.8795 64.189C67.8795 64.5866 67.5565 63.8709 67.3142 63.3937C67.4757 63.1552 67.6372 64.03 67.8795 64.189Z" fill="#443730"/>
</g>
</g>
<mask id="mask1_37_5251" style="mask-type:luminance" maskUnits="userSpaceOnUse" x="58" y="105" width="34" height="30">
<path d="M91.3785 125.743L83.7875 130.833C80.7189 128.765 75.1467 126.698 67.8788 130.753C66.4252 131.549 65.2139 132.742 64.0833 134.173L58.8342 127.334C59.884 124.391 63.6795 122.403 69.8169 118.586C77.4887 113.894 78.5385 105.225 78.5385 105.225C78.5385 105.225 85.5642 115.484 91.3785 125.743Z" fill="white"/>
</mask>
<g mask="url(#mask1_37_5251)">
<g opacity="0.88">
<path d="M73.4509 116.28C73.5317 116.28 73.5317 116.28 73.6124 116.359C73.6124 116.359 73.5317 116.359 73.4509 116.28Z" fill="#443730"/>
<path d="M68.7672 119.858L68.6057 119.699C68.7672 119.779 68.7672 119.858 68.7672 119.858Z" fill="#443730"/>
<path d="M76.7617 111.667C76.7617 111.667 76.7617 111.587 76.8425 111.587L76.7617 111.667C76.9232 111.587 76.8425 111.667 76.7617 111.667Z" fill="#443730"/>
<path d="M80.0728 110.156L80.2343 110.236C80.1535 110.236 80.0728 110.236 80.0728 110.156Z" fill="#443730"/>
<path d="M76.1157 111.826C76.1965 111.826 76.1965 111.826 76.2772 111.826C76.1965 111.826 76.1157 111.906 76.1157 111.826Z" fill="#443730"/>
<path d="M66.5866 120.654C66.5058 120.654 66.5058 120.654 66.425 120.654C66.5058 120.574 66.5866 120.654 66.5866 120.654Z" fill="#443730"/>
<path d="M75.8735 113.337C76.2772 113.655 76.0349 113.178 76.4387 113.496C76.2772 113.496 76.1965 113.576 76.358 113.735C76.681 113.814 76.4387 113.496 76.8425 113.735L76.6002 113.814C76.7618 114.053 77.0848 114.132 77.004 114.132C76.4387 113.894 76.9233 114.689 76.7617 114.769H76.8425L76.9233 115.166C76.9233 115.166 76.8425 115.166 76.8425 115.087C77.004 115.325 77.0848 115.643 76.9233 115.802C76.6002 115.643 76.358 116.28 76.1157 116.12C76.2772 116.12 76.2772 116.041 76.2772 115.882L75.9542 115.643C75.7927 115.802 76.2772 115.882 75.9542 115.882C75.5504 115.484 76.1157 115.643 76.1965 115.484C76.035 115.405 75.9542 115.405 75.7927 115.484C75.9542 115.246 75.9542 114.928 76.5195 115.166C76.4387 115.007 76.2772 114.928 76.1965 114.928C76.6002 115.007 76.0349 114.609 76.358 114.689C75.8734 114.45 75.8734 114.848 75.5504 114.769C75.7119 115.246 75.2274 115.246 74.9851 115.405C75.3082 115.643 75.6312 115.723 75.7927 115.961C75.7927 116.359 75.4697 116.041 75.1466 116.041C75.1466 116.28 75.6312 116.518 75.4697 116.757H75.7927C76.1157 117.313 75.4697 116.757 75.4697 116.916C75.3889 116.757 75.3082 116.677 75.3889 116.598C75.2274 116.439 75.0659 116.518 75.0659 116.518V116.439C74.8236 116.28 74.5814 116.12 74.5814 116.359C74.9044 116.518 74.6621 116.677 74.7429 116.757H74.8236C74.6621 116.757 74.5814 116.916 74.4198 116.916L74.5006 116.995C74.3391 116.995 74.0161 116.677 73.9353 116.916C74.0968 116.995 74.5006 117.234 74.3391 117.313C74.5006 117.472 74.6621 117.393 74.7429 117.154C74.6621 117.313 74.9044 117.711 75.0659 117.552C75.2274 117.791 74.8236 117.552 74.8236 117.791C74.7429 117.711 74.6621 117.632 74.5814 117.552C74.9044 117.87 74.3391 117.87 74.0968 117.631H74.4198C74.1776 117.393 73.8546 117.393 73.7738 117.154C74.0968 117.632 73.2085 117.313 73.4508 117.711L73.2893 117.472C73.1278 117.87 72.4817 117.552 72.078 117.711C72.3202 117.791 72.6432 118.188 72.724 117.95C72.4817 118.268 72.9663 118.506 73.047 118.745C72.9663 119.063 72.5625 118.427 72.401 118.347H72.6433C71.9972 117.95 72.0779 118.904 71.5127 118.824C71.5934 118.983 71.6742 118.824 71.7549 118.904C71.8357 119.302 71.5934 118.983 71.4319 118.904C71.3512 119.063 71.1896 119.302 71.5127 119.62C71.4319 119.858 71.3512 119.381 71.1896 119.302V119.381C71.0281 119.302 70.8666 119.222 70.7859 119.063C70.7051 119.302 70.6244 119.54 70.7859 119.938C70.3821 120.097 70.1398 119.143 69.8168 119.143C69.8168 119.381 69.9783 119.381 70.1398 119.54L69.8976 119.62C70.2206 120.017 70.3013 119.699 70.5436 120.176C70.0591 119.779 70.2206 120.176 69.7361 120.017V119.938C69.413 119.699 69.2515 120.017 69.09 120.097C69.2515 120.256 69.413 120.176 69.5745 120.176C69.4938 120.415 68.9285 120.494 68.6055 120.176C68.5247 120.335 68.3632 120.574 68.6055 120.654C68.2825 120.892 68.1209 120.097 67.8787 120.335L68.0402 120.654C67.8787 121.29 67.1519 120.494 66.9904 121.051L66.8289 120.654C66.8289 120.892 66.7481 120.972 66.7481 121.21L66.9904 121.29C66.9904 121.687 66.6674 120.972 66.5866 121.369C66.5059 121.21 66.5866 120.892 66.5059 120.733C67.3134 120.733 67.7979 119.858 68.6055 119.938C68.6055 120.017 68.6055 120.097 68.6862 120.176C68.6862 120.017 68.9285 120.097 68.767 119.858C69.0093 119.858 68.9285 119.302 69.0093 119.222C69.2515 119.461 69.3323 118.904 69.4938 119.461L69.413 119.143C69.5746 119.302 69.6553 119.54 69.7361 119.62C69.8168 119.54 69.7361 119.302 69.5745 119.302C69.8976 118.904 70.4629 118.665 71.0281 118.506L70.7859 118.347C70.7859 118.188 71.4319 118.427 70.9474 117.95C71.2704 118.029 71.4319 117.393 71.8357 117.95C71.5934 117.313 72.1587 117.393 72.4817 117.234C72.8048 117.711 72.8048 117.154 73.047 117.313C72.8048 116.916 72.5625 117.154 72.3202 116.916C73.047 117.154 72.724 115.882 73.6123 116.598C73.6123 116.518 73.6123 116.518 73.5315 116.518C73.6123 116.439 73.5315 116.28 73.5315 116.2C73.693 116.28 73.6931 116.518 73.8546 116.439C73.9353 116.28 73.6123 116.12 73.6123 116.041C74.0161 116.041 74.3391 115.802 74.7429 116.12C74.6621 115.961 74.5814 115.723 74.4198 115.723C74.9851 115.643 74.5814 115.405 75.0659 115.246C74.9851 115.325 74.6621 115.007 74.6621 115.246C74.2584 114.689 75.1467 114.848 75.0659 114.371L75.4697 114.53C75.6312 114.45 75.3081 114.132 75.1466 114.212C75.1466 113.814 75.3889 113.814 75.5504 113.576C75.5504 113.496 75.4697 113.496 75.4697 113.576L75.6312 113.258C75.7119 113.258 75.9542 113.258 76.1965 113.417C76.035 113.098 75.8735 113.098 75.8735 113.337Z" fill="#443730"/>
<path d="M75.4697 117.075C75.3889 116.995 75.3889 116.916 75.3889 116.916C75.4697 116.916 75.4697 116.995 75.4697 117.075Z" fill="#443730"/>
<path d="M78.5383 110.315C79.1036 110.633 78.3768 110.474 78.4575 110.713C78.619 110.633 78.9421 110.792 79.1036 110.872C78.296 110.713 79.1843 111.19 78.8613 111.429C79.1036 111.508 79.1843 111.429 79.5074 111.508C79.2651 111.588 79.0228 111.906 78.5383 111.747C78.3768 112.065 78.3768 112.383 78.2153 112.542C78.5383 112.383 78.6191 112.701 79.1036 112.701C78.5383 112.701 77.65 112.94 76.9232 112.94C77.327 113.258 77.327 113.258 77.8115 113.496C77.8923 114.053 77.327 113.337 77.2462 113.735V113.496C77.0039 113.576 76.6002 113.337 76.2772 113.178L76.6002 112.86C76.2772 112.701 76.1964 112.94 76.0349 112.94C75.6311 112.86 75.9541 112.621 75.6311 112.462C75.8734 112.542 75.9541 112.383 76.1156 112.303L75.9541 112.224C75.8734 111.985 76.3579 112.065 76.4387 111.906L76.3579 111.826C76.6002 111.906 76.8424 111.906 76.9232 111.906L76.8424 111.985C77.327 112.065 77.7307 111.826 78.0538 112.303L78.1345 111.826C77.65 111.667 77.0039 111.429 76.7617 111.588L76.6002 111.508C76.4387 111.19 77.1655 111.19 77.4885 111.508C78.6191 111.826 77.8115 110.872 78.3768 110.792C78.1345 110.633 77.8922 110.792 77.65 110.792C77.5692 110.872 77.5692 110.951 77.8115 111.031C77.4885 111.349 76.9232 110.554 76.8424 111.031C76.8424 111.27 77.4077 111.031 77.327 111.349L76.4387 111.19C76.5194 111.031 76.7617 110.951 76.9232 110.792C77.4077 110.474 77.5692 110.077 77.65 109.838C77.7307 109.599 77.65 109.361 77.65 109.361C78.2153 108.088 78.619 106.736 78.9421 105.385C79.1036 104.987 79.1036 104.828 79.9919 104.748C80.1534 104.828 80.0726 105.146 80.3956 105.066C80.0726 105.066 79.9111 105.225 79.9111 105.464C80.2342 105.544 80.0726 105.305 80.1534 105.305V105.385C80.3149 105.385 80.3957 105.385 80.4764 105.305C80.8802 105.623 80.7187 106.18 80.0726 106.259C80.3149 106.498 80.5572 106.18 80.8802 106.1C80.9609 106.896 80.7994 107.452 80.6379 108.247C80.0726 108.088 80.2342 108.247 79.9111 108.247L80.0726 108.407C79.9919 108.327 79.5881 108.327 79.5074 108.168C79.8304 108.725 78.6191 108.486 78.296 108.645L78.6191 108.725C78.4575 108.963 78.4575 109.043 78.2153 109.122C78.6191 109.679 78.3768 108.804 79.0228 109.122L78.8613 109.202C79.1036 109.202 79.5881 109.281 79.8304 109.202C79.2651 109.44 79.8304 109.838 79.3458 110.077C79.6689 110.156 79.9919 109.838 80.0726 109.758C80.0726 109.918 79.7496 110.077 79.9919 110.236L79.5881 110.156C79.4266 110.395 79.9919 110.236 80.1534 110.395C79.9919 110.872 79.0228 109.997 78.5383 110.315Z" fill="#443730"/>
<path d="M75.6311 115.643C75.6311 115.564 75.7119 115.564 75.7926 115.484C75.7119 115.564 75.7119 115.564 75.6311 115.643Z" fill="#443730"/>
<path d="M77.0042 115.166C77.0849 115.166 77.0849 115.246 77.1656 115.246C77.0849 115.166 77.0849 115.166 77.0042 115.166Z" fill="#443730"/>
<path d="M77.5693 115.325C77.4078 115.166 77.4078 115.246 77.1655 115.166C77.327 115.246 77.4078 115.007 77.5693 115.325Z" fill="#443730"/>
<path d="M59.5612 124.153C59.4805 124.073 59.3189 123.914 59.3997 123.835L59.642 123.914L59.5612 124.153Z" fill="#443730"/>
<path d="M60.0457 123.676L60.2879 123.517L60.5302 124.073C60.2072 123.994 60.2879 123.596 60.0457 123.676Z" fill="#443730"/>
<path d="M60.6914 123.278L60.6106 123.119C60.6106 123.198 60.6914 123.198 60.6914 123.278Z" fill="#443730"/>
<path d="M60.6918 123.517L60.8533 123.914L60.5303 123.676L60.611 123.596C60.611 123.437 60.6918 123.358 60.6918 123.358L60.8533 123.596C60.7725 123.517 60.6918 123.437 60.6918 123.517Z" fill="#443730"/>
<path d="M61.4183 122.642C61.4183 122.801 61.4991 122.96 61.5799 123.119C61.3376 123.278 61.2568 122.721 61.0953 122.96C61.4184 123.198 61.0146 123.198 60.9338 123.437C60.9338 123.039 61.0146 122.801 61.2569 122.642L61.3376 122.88C61.4184 122.96 61.3376 122.801 61.4183 122.642Z" fill="#443730"/>
<path d="M62.7105 123.119L62.4682 122.801C62.4682 122.96 62.1452 123.039 62.226 123.358C62.1452 123.358 62.0645 123.119 61.9837 123.039C61.903 123.278 61.903 123.358 61.7415 123.119C62.1452 122.801 61.9837 122.721 62.3875 122.562C62.3875 122.483 62.3067 122.483 62.3067 122.562L62.549 122.324C62.6298 122.801 62.9528 122.801 62.7105 123.119Z" fill="#443730"/>
<path d="M63.0336 122.801C62.8721 122.801 62.6299 122.483 62.7106 122.244C62.8721 122.324 63.0336 122.403 63.1952 122.483C63.1144 122.483 62.9529 122.483 63.0336 122.801Z" fill="#443730"/>
<path d="M63.3567 122.721C63.3567 122.483 63.4374 122.085 63.6797 122.403C63.4374 122.403 63.599 122.96 63.3567 122.721Z" fill="#443730"/>
<path d="M64.6485 122.006L64.3255 122.324C64.4063 122.801 64.5678 122.403 64.7293 122.642C64.4063 122.801 64.487 122.642 64.164 122.403C64.0833 122.483 63.841 122.244 63.7603 122.165C64.3255 122.403 64.0833 121.29 64.6485 122.006Z" fill="#443730"/>
<path d="M64.0024 122.721L63.9216 122.483L64.1639 122.642L64.0024 122.721Z" fill="#443730"/>
<path d="M65.456 121.29C65.5367 120.654 66.0213 121.528 66.1828 121.21C66.1828 121.21 66.1828 121.131 66.102 121.051H66.3443V120.892C66.4251 121.21 66.6673 121.29 66.9096 121.449C66.8288 121.846 66.6673 121.051 66.5866 121.528C66.6673 121.687 66.8288 121.846 66.9096 122.005C66.7481 121.926 66.5866 121.687 66.5058 121.528C66.3443 121.528 66.4251 121.687 66.5058 121.846C66.2636 121.687 66.102 121.21 65.9405 121.369C65.8598 121.687 66.1828 121.767 65.8598 121.767C65.8598 121.21 65.6175 121.926 65.3753 121.608C65.2137 121.767 65.133 122.085 65.2137 122.324C65.133 121.926 64.8099 121.608 64.6484 121.528L65.0522 121.767V121.29C65.133 121.528 65.2945 121.449 65.456 121.29Z" fill="#443730"/>
<path d="M65.0522 122.562L65.133 122.642V122.721L65.0522 122.562Z" fill="#443730"/>
<path d="M66.9904 122.324C66.9097 122.324 66.9097 122.244 66.9097 122.165L66.9904 122.324Z" fill="#443730"/>
<path d="M67.071 121.926L67.1518 121.608L67.2326 121.846L67.071 121.926Z" fill="#443730"/>
<path d="M71.4321 119.62C71.4321 119.858 71.1898 119.54 71.0283 119.381C71.1898 119.143 71.1898 119.62 71.4321 119.62Z" fill="#443730"/>
<path d="M74.1777 118.109C74.1777 118.427 73.8546 118.268 73.6931 118.347C73.6931 118.109 73.9354 118.109 74.1777 118.109Z" fill="#443730"/>
<path d="M75.9541 118.029C75.8733 117.95 75.7926 117.95 75.7926 117.87L75.2273 117.552C75.3081 117.234 75.7926 117.791 75.9541 118.029Z" fill="#443730"/>
<path d="M77.0849 116.916L76.7619 116.995L76.8426 116.916C76.6003 116.836 76.5196 116.757 76.2773 116.677C76.5196 116.598 76.7619 116.598 77.0849 116.916Z" fill="#443730"/>
<path d="M76.0349 116.677C76.0349 116.677 76.1157 116.677 76.1157 116.598C76.1964 116.757 76.1964 116.836 76.0349 116.677Z" fill="#443730"/>
<path d="M77.0042 116.518L77.3272 116.2V116.439C77.0041 116.28 77.3272 116.757 77.0042 116.518Z" fill="#443730"/>
<path d="M78.1348 114.53L77.8118 114.292C77.8925 114.053 78.7808 114.132 78.377 113.735C78.5385 113.973 78.8616 113.735 78.7808 114.053C78.377 113.973 78.1348 114.292 78.1348 114.53Z" fill="#443730"/>
<path d="M78.2152 113.416C78.1344 113.416 78.0537 113.337 77.9729 113.257C77.9729 113.178 78.2152 113.178 78.2959 113.257C77.8114 113.019 78.4574 113.496 78.2152 113.416Z" fill="#443730"/>
<path d="M78.7806 112.303C78.6999 112.383 78.6191 112.463 78.6191 112.303C78.7807 112.144 79.1037 112.383 79.3459 112.383C79.5074 112.622 78.9421 112.542 78.7806 112.303Z" fill="#443730"/>
<path d="M77.0042 109.679C77.3272 109.838 77.1657 109.917 77.0849 109.917C77.1657 109.917 77.0849 109.758 77.0042 109.679Z" fill="#443730"/>
<path d="M79.5075 110.554V110.633L79.1038 110.554H79.5075Z" fill="#443730"/>
<path d="M80.2344 109.361L80.5574 109.281L80.4766 109.52L80.2344 109.361Z" fill="#443730"/>
<path d="M80.2344 109.043L80.3151 108.804L80.3959 108.883C80.4766 109.122 80.2344 108.963 80.2344 109.043Z" fill="#443730"/>
<path d="M80.4767 108.406C80.4767 108.406 80.4767 108.486 80.5574 108.486L80.3152 108.645L80.4767 108.406Z" fill="#443730"/>
</g>
</g>
<path d="M50.2741 33.4123C50.1125 33.0146 50.1125 32.5375 50.4356 32.2194C51.3239 31.106 53.585 28.5611 56.1692 28.9588C59.1571 29.4359 61.0952 32.9351 61.0145 33.8894C60.853 35.2414 58.5111 38.0248 55.2809 37.9453C52.6967 38.0248 50.9201 34.7642 50.2741 33.4123Z" fill="#9BBEDC"/>
<path d="M58.2114 33.6185C58.4166 31.7407 57.4325 30.0965 56.0135 29.9461C54.5944 29.7957 53.2777 31.1961 53.0725 33.0739C52.8673 34.9518 53.8513 36.596 55.2704 36.7464C56.6894 36.8968 58.0061 35.4964 58.2114 33.6185Z" fill="#1B1C1E"/>
</svg>
