<svg width="192" height="114" viewBox="0 0 192 114" fill="none" xmlns="http://www.w3.org/2000/svg">
<path d="M21.7647 103.848C21.7647 103.848 2.22196 102.098 0.0415684 107.188C-2.13882 112.278 84.1076 112.596 117.056 113.311C150.004 114.027 189.735 109.971 191.27 104.882C192.804 99.7918 86.1265 99.3147 86.1265 99.3147L21.7647 103.848Z" fill="#1B1C1E"/>
<path d="M151.296 67.0269C148.873 66.5497 146.37 66.0726 143.866 65.6749C139.425 45.6342 131.026 28.9335 131.026 28.9335C141.444 27.6611 158.968 29.2516 163.49 25.1162C167.931 21.0604 170.677 10.3242 159.614 3.32587C150.731 -2.32054 103.004 -3.75202 105.346 23.7643C106.8 40.5444 112.776 51.042 116.248 62.7324C81.2812 60.7443 45.5067 64.6411 28.4674 68.856C0.364646 75.7748 -9.16446 96.4518 10.0553 104.166C22.007 108.938 46.1528 110.051 66.8261 109.494C66.8261 109.494 172.454 114.107 186.344 98.9967C193.935 90.6464 191.996 75.4567 151.296 67.0269Z" fill="white"/>
<path d="M152.346 14.3004C153.282 14.3004 154.042 13.2323 154.042 11.9146C154.042 10.597 153.282 9.52881 152.346 9.52881C151.409 9.52881 150.65 10.597 150.65 11.9146C150.65 13.2323 151.409 14.3004 152.346 14.3004Z" fill="#1B1C1E"/>
<path d="M66.8262 109.494C66.8262 109.494 82.1696 97.3265 112.049 92.3958C141.928 87.4652 163.571 87.1471 171.646 83.5684" stroke="#1B1C1E" stroke-width="1.3738" stroke-miterlimit="10"/>
<path d="M143.866 65.6748C144.432 68.1401 144.916 70.6055 145.32 73.1503C146.289 79.1944 144.593 84.2046 141.282 88.4195" stroke="#1B1C1E" stroke-width="1.3738" stroke-miterlimit="10"/>
<path d="M25.8833 80.0691C25.8833 80.0691 33.9588 81.5801 61.4155 81.8187C88.8723 82.0573 117.46 77.7628 116.975 66.7086C116.894 65.5157 116.652 64.2433 116.248 62.8118" stroke="#1B1C1E" stroke-width="1.3738" stroke-miterlimit="10"/>
<mask id="mask0_37_5411" style="mask-type:luminance" maskUnits="userSpaceOnUse" x="33" y="74" width="75" height="8">
<path d="M73.6097 81.6596L33.2321 80.8643H33.1514C33.6359 80.7053 50.756 77.6832 65.1304 75.7746C75.79 74.3431 107.527 74.8203 107.446 76.3313C107.446 77.5242 73.6097 81.6596 73.6097 81.6596Z" fill="white"/>
</mask>
<g mask="url(#mask0_37_5411)">
<g opacity="0.45">
<path d="M79.5859 81.4211H79.6667V81.5007L79.5859 81.4211Z" fill="#080809"/>
<path d="M79.6665 81.5005L79.828 81.8186C79.5857 81.7391 79.5857 81.58 79.6665 81.5005Z" fill="#080809"/>
<path d="M62.3042 80.5462C62.1427 80.4667 61.9811 80.3077 61.9004 80.0691L62.3042 80.5462Z" fill="#080809"/>
<path d="M63.8384 78.8761C63.8384 78.7966 63.9191 78.717 63.9191 78.717C63.9191 78.7966 63.8384 78.7966 63.8384 78.8761Z" fill="#080809"/>
<path d="M85.5615 81.0234C85.723 81.0234 85.8845 81.0234 86.0461 81.103C85.723 81.1825 85.6423 81.1825 85.5615 81.0234Z" fill="#080809"/>
<path d="M53.502 83.1705C53.6635 82.1367 52.9367 83.091 52.9367 82.1367C53.2598 82.3753 53.502 82.5343 53.5828 81.9776C53.3405 81.421 52.9367 82.0572 52.856 81.1824L53.3405 81.5005C53.5828 81.0233 53.2598 80.3871 53.502 80.4666C53.9058 81.6595 54.7941 79.9895 55.1979 80.1485L55.0364 80.069L55.6824 79.4328V79.3533C55.6824 79.4328 55.6824 79.5123 55.6824 79.5918C55.9247 78.9556 56.4092 78.4785 56.8937 78.6375C57.136 79.3533 58.5896 78.7966 58.8319 79.4328C58.5896 79.2737 58.4281 79.2737 58.1051 79.4328L58.1858 80.3076C58.6704 80.3076 58.1858 79.5123 58.6703 79.9895C58.5896 81.1824 57.9436 79.9895 57.6205 80.1485C57.782 80.3871 57.9436 80.6257 58.1858 80.7847C57.459 80.8643 56.813 81.2619 56.3285 80.069C56.1669 80.3076 56.2477 80.7847 56.4092 80.9438C55.9247 80.3076 56.0862 81.58 55.6017 81.0233C55.7632 82.0572 56.6515 81.58 57.136 82.2162C57.782 81.3414 58.6704 82.1367 59.3971 82.2957C59.3971 81.5005 58.9126 80.7847 59.1549 80.3076C59.8817 79.7509 59.8817 80.7052 60.2854 81.1824C60.77 80.8643 60.2854 79.8304 61.093 79.7509L60.6085 79.1942C61.0122 78.0013 61.093 79.6714 61.416 79.3533C61.3353 79.6714 61.3353 79.9895 60.9315 79.9099C60.9315 80.3076 61.1738 80.4666 61.3353 80.5462H61.2545C61.416 81.1028 61.4968 81.7391 61.9813 81.421C61.6583 80.7052 62.3851 80.8643 62.4658 80.5462L62.3043 80.3871C62.7081 80.6257 63.0311 80.4666 63.2734 80.6257V80.4666C63.5964 80.7052 63.6772 81.58 64.0809 81.421C64.0002 81.1028 63.5157 80.1485 64.0002 80.3076C63.9194 79.7509 63.4349 79.7509 63.0311 79.9895C63.4349 79.7509 63.5964 78.8761 63.1119 78.8761C63.1926 78.2399 63.5964 79.1147 63.8387 78.7966C63.7579 79.0351 63.9194 79.1942 63.8387 79.4328C63.8387 78.558 64.8077 79.3533 64.8077 79.9895L64.3232 79.5123C64.3232 80.228 64.9692 80.7052 64.727 81.1028C64.8885 79.9895 66.0191 81.6595 66.2613 80.6257L66.0998 81.1824C67.0689 80.7847 67.9572 82.0572 69.007 82.2957C68.6032 81.9776 68.6032 80.7052 67.9572 81.1824C68.9262 80.8643 68.1994 79.9099 68.4417 79.2737C69.1685 78.7966 68.8455 80.3871 69.0878 80.7847L68.5225 80.5462C69.2493 81.9776 70.4606 80.1485 71.5104 81.0233C71.5912 80.6257 71.2681 80.7847 71.1066 80.7052C71.5104 79.9099 71.5912 80.8643 71.8334 81.1028C72.318 80.9438 72.8832 80.6257 72.5602 79.7509C73.0448 79.5123 72.5602 80.3076 72.8025 80.5462L72.8832 80.3076L73.4485 81.2619C73.8523 80.9438 74.4176 80.4666 74.5791 79.5918C75.6289 79.6714 75.0636 81.58 75.8712 81.8186C76.275 81.3414 75.7904 81.1824 75.7097 80.8643L76.4365 80.9438C76.1134 79.9895 75.6289 80.4666 75.6289 79.3533C76.275 80.4666 76.4365 79.6714 77.244 80.3076L77.1633 80.3871C77.567 81.1028 78.2938 80.5462 78.7784 80.6257C78.5361 80.1485 78.0516 80.1485 77.7285 79.9895C78.2131 79.5918 79.5052 79.9099 79.9897 80.7847C80.232 80.6257 80.878 80.2281 80.3935 79.8304C81.4433 79.5918 80.878 81.1028 81.7663 80.7847L81.6855 80.069C82.5738 79.0352 83.6237 80.7847 84.512 79.8304L84.5927 80.6257C84.7542 80.3076 85.158 80.069 85.2388 79.7509L84.7542 79.5123C85.0773 78.7966 85.2388 80.069 85.7233 79.5918C85.7233 79.8304 85.4003 80.3871 85.4003 80.6257C84.4312 80.5462 83.4622 80.7847 82.4931 81.0233C81.524 81.2619 80.555 81.4209 79.5052 81.1028C79.5859 81.0233 79.6667 80.8643 79.5859 80.7052C79.3437 80.9438 78.9399 80.7052 79.0206 81.1824L79.1014 81.2619C78.5361 81.1029 78.1323 82.2162 77.8901 82.2162C77.6478 81.58 76.8402 82.5343 77.0018 81.5005L76.6787 82.2162C76.5172 81.8186 76.598 81.3414 76.3557 81.1028C76.0327 81.1824 76.0327 81.6595 76.275 81.8981C74.9021 82.4548 73.287 82.4548 71.9142 82.1367L72.318 82.6139C71.9949 82.932 71.0259 81.7391 71.4296 83.091C70.7029 82.6139 69.5723 83.5682 69.4915 82.1367C69.0878 83.5682 67.8764 82.8524 66.9074 82.6139C66.9881 81.421 66.0998 82.2957 65.8576 81.7391C65.7768 82.6934 66.6651 82.6934 66.7459 83.3296C65.696 81.8981 64.0809 84.443 63.5964 82.0572C63.5157 82.1367 63.5156 82.2162 63.5156 82.3753C63.3541 82.3753 63.1119 82.7729 62.8696 82.932C62.7081 82.5343 63.1119 82.2957 62.7081 82.1367C62.3851 82.2162 62.5466 82.932 62.4658 83.1705C61.739 82.6139 60.6892 82.4548 60.5277 81.5005C60.3662 81.7391 60.1239 82.2958 60.3662 82.4548C59.2356 81.7391 59.3164 82.6139 58.1858 82.1367C58.5896 82.1367 58.4281 83.1705 58.9126 82.7729C58.5088 84.1249 57.2168 82.5343 56.3285 83.1705L55.9247 82.3753C55.3594 82.2162 55.3594 83.0115 55.7632 83.3296C54.8749 83.8068 54.3903 83.3296 53.6635 83.2501C53.6635 83.3296 53.6635 83.4886 53.7443 83.4886H52.7752C52.6945 83.2501 52.2907 82.8524 52.3715 82.3753C52.7752 83.1705 52.9367 83.4887 53.502 83.1705Z" fill="#080809"/>
<path d="M61.5772 79.0354C61.4965 79.274 61.4157 79.3535 61.335 79.433C61.4157 79.274 61.4965 79.1149 61.5772 79.0354Z" fill="#080809"/>
<path d="M43.2458 81.1824C43.4073 80.2281 43.8111 81.3415 44.2956 81.1029C43.8919 80.9439 43.9726 80.3872 44.0534 80.1486C44.5379 81.421 44.6994 79.91 45.5877 80.1486C45.5877 79.751 45.1839 79.6714 45.1032 79.1943C45.5877 79.5124 46.3953 79.6714 46.5568 80.3872C47.4451 80.3872 48.0911 80.0691 48.5756 80.2281C47.9296 79.91 48.4949 79.4328 48.0104 78.7966C48.6564 79.6714 50.11 80.7848 51.0791 81.9777C51.1598 81.0234 51.2406 80.9439 51.0791 80.1486C52.1289 79.5124 51.4021 81.0234 52.3711 80.7053L51.8866 80.8643C52.3711 81.1824 52.3711 82.0572 52.5326 82.6934L51.3213 82.5344C51.3213 83.1706 52.0481 83.0911 52.2904 83.2501C52.6134 84.0454 51.6443 83.8068 51.8058 84.3635C51.6443 83.8068 51.1598 83.9659 50.8368 83.7273L50.756 84.0454C50.1907 84.3635 49.8677 83.4887 49.3832 83.4887C49.3024 83.5682 49.3024 83.6478 49.3024 83.7273C49.1409 83.3297 48.9794 82.8525 48.6564 82.773L48.8987 82.8525C48.4949 82.0572 47.4451 81.5801 48.0911 80.7848C47.6873 80.8643 47.2836 80.9439 46.8798 81.0234C47.0413 81.8187 47.2836 83.0911 47.9296 83.2501L48.0104 83.5682C47.5258 83.9659 46.5568 82.8525 46.8798 82.1368C46.6375 81.1824 46.153 81.1029 45.6685 81.262C45.1839 81.3415 44.6186 81.5801 44.1341 81.1824C44.0534 81.6596 44.5379 81.8982 44.7802 82.2163C45.0224 82.2958 45.2647 82.2958 45.2647 81.8982C46.3953 82.2163 45.0224 83.4887 46.3145 83.4092C46.9605 83.1706 45.5877 82.5344 46.476 82.5344L47.1221 84.0454C46.5568 83.9659 45.9915 83.6478 45.5877 83.4092C44.2956 82.8525 43.2458 82.6934 42.4383 82.6934C41.6307 82.6934 41.2269 82.773 41.2269 82.773C37.4314 82.2163 33.7167 81.5801 29.9212 80.7848C28.7906 80.5462 28.3061 80.3872 27.9023 80.3076C28.1446 80.3076 28.8714 80.3872 28.6291 80.3076C28.7906 80.3872 29.1944 80.4667 29.8405 80.4667C29.9212 80.3872 29.2752 80.3872 29.4367 80.3872H29.5174C29.4367 80.3076 29.3559 80.3076 29.1944 80.3076C29.9212 80.2281 31.2133 80.1486 31.6978 80.4667C32.2631 80.3076 31.2941 80.1486 31.0518 80.0691C33.0707 79.91 34.3628 79.8305 36.3816 79.6714C36.3816 80.2281 36.5431 79.9895 36.8662 80.3872L37.0277 80.1486C36.9469 80.2281 37.1892 80.6257 36.7854 80.7848C37.916 80.3872 38.1582 81.6596 38.885 82.0572L38.8043 81.7391C39.4503 81.8982 39.6118 81.8982 40.1771 82.1368C41.2269 81.5005 39.2888 81.8982 39.5311 81.1029L39.8541 81.262C39.6926 80.9439 39.5311 80.3076 39.2081 80.0691C40.1771 80.6258 40.6616 79.8305 41.7115 80.2281C41.6307 79.751 40.6616 79.5124 40.3386 79.4328C40.7424 79.3533 41.3884 79.6714 41.3884 79.2738L41.4692 79.8305C42.1152 79.91 41.3884 79.3533 41.6307 78.9557C43.3266 79.0352 41.9537 80.8643 43.2458 81.1824Z" fill="#080809"/>
<path d="M58.6701 80.785C58.5086 80.8645 58.3471 80.8645 58.1855 80.785C58.3471 80.7055 58.5086 80.7055 58.6701 80.785Z" fill="#080809"/>
<path d="M55.6018 79.3535C55.6018 79.274 55.6018 79.1149 55.521 79.0354C55.6018 79.1149 55.6825 79.1944 55.6018 79.3535Z" fill="#080809"/>
<path d="M55.2784 78.24C55.1977 78.6376 55.4399 78.6376 55.5207 79.0353C55.3592 78.7967 54.8746 78.7967 55.2784 78.24Z" fill="#080809"/>
<path d="M103.247 78.081L102.682 78.1605C102.52 78.081 102.439 78.081 102.278 78.0015C102.924 78.0015 102.601 78.081 103.247 78.081Z" fill="#080809"/>
<path d="M101.632 78.24L101.793 78.3195C101.632 78.24 101.632 78.24 101.632 78.24Z" fill="#080809"/>
<path d="M101.632 78.1605L101.39 78.0015C101.632 78.081 101.874 78.081 102.116 78.1605H101.793C101.793 78.24 101.632 78.24 101.551 78.24L101.228 78.1605C101.39 78.1605 101.551 78.1605 101.632 78.1605Z" fill="#080809"/>
<path d="M99.5323 78.6376C99.6938 78.558 99.3708 78.399 99.29 78.3195C99.8553 78.2399 99.9361 78.558 100.421 78.399C99.6131 78.2399 100.663 78.2399 100.905 78.1604C100.744 78.3195 100.501 78.4785 99.9361 78.6376L99.8553 78.4785C99.6131 78.4785 99.7746 78.558 99.5323 78.6376Z" fill="#080809"/>
<path d="M96.4635 78.3195L96.9481 78.6376C97.0288 78.4785 97.7556 78.399 97.6749 78.1604C97.9171 78.2399 97.9979 78.3195 98.2401 78.399C98.4016 78.2399 98.5632 78.1604 98.8054 78.3195C97.7556 78.558 98.0786 78.6376 97.1096 78.7966C97.1096 78.8761 97.2711 78.8761 97.3518 78.7966L96.7058 79.0352C96.7058 78.6376 95.8982 78.6376 96.4635 78.3195Z" fill="#080809"/>
<path d="M95.5754 78.6377C96.0599 78.6377 96.3829 78.9558 96.1406 79.1944C95.8176 79.1149 95.4138 79.0353 95.0908 79.0353C95.3331 78.9558 95.7369 78.9558 95.5754 78.6377Z" fill="#080809"/>
<path d="M94.8486 78.6376C94.6871 78.8762 94.364 79.3533 94.041 78.9557C94.6063 79.0352 94.2833 78.399 94.8486 78.6376Z" fill="#080809"/>
<path d="M91.2954 79.3534L92.2645 78.9558C92.426 78.3195 91.7799 78.7967 91.4569 78.4786C92.2645 78.3196 92.0222 78.5581 92.6682 78.8762C92.9105 78.7967 93.3143 79.1148 93.5566 79.2739C92.2645 78.8762 92.3452 80.3872 91.2954 79.3534Z" fill="#080809"/>
<path d="M93.1526 78.5581L93.3141 78.7967L92.8296 78.6376L93.1526 78.5581Z" fill="#080809"/>
<path d="M89.034 80.3077C88.4687 81.262 87.9035 79.9101 87.2574 80.3872C87.3382 80.4668 87.2574 80.5463 87.4189 80.6258H86.8536V80.8644C86.8536 80.3077 86.2076 80.1487 85.9653 79.6715C86.5306 79.0353 86.2884 80.3872 86.7729 79.6715C86.6114 79.4329 86.5306 79.0353 86.3691 78.8762C86.7729 79.1148 86.8536 79.4329 87.0152 79.751C87.4189 79.751 87.2574 79.5124 87.2574 79.2739C87.6612 79.592 87.7419 80.3872 88.388 80.1486C88.7918 79.6715 88.065 79.4329 88.7918 79.592C88.4687 80.4668 89.5186 79.4329 89.8416 79.9101C90.3261 79.6715 90.6491 79.1943 90.5684 78.9557C90.5684 79.5124 91.1337 79.9896 91.5374 80.1486C91.2144 79.9896 90.8914 79.9101 90.6491 79.751L90.4069 80.4668C89.7608 80.0691 89.4378 80.1486 89.034 80.3077Z" fill="#080809"/>
<path d="M86.3692 78.7967C86.2885 78.7172 86.2077 78.7172 86.127 78.6377C86.2077 78.6377 86.2885 78.6377 86.3692 78.7967Z" fill="#080809"/>
<path d="M90.6495 78.6376L90.4072 78.4786L90.5687 78.24L90.6495 78.6376Z" fill="#080809"/>
<path d="M85.8847 78.2401C85.9654 78.2401 86.0462 78.4787 85.9654 78.4787L85.7231 78.0811L85.8847 78.2401Z" fill="#080809"/>
<path d="M85.3193 78.717L85.077 79.2737L84.9155 78.8761L85.3193 78.717Z" fill="#080809"/>
<path d="M73.2871 79.8305C73.6909 79.4329 73.6909 80.1486 73.7716 80.7053C73.2064 80.7848 73.6909 79.9896 73.2871 79.8305Z" fill="#080809"/>
<path d="M65.6958 79.1943C66.0996 78.7172 66.5033 79.4329 66.9879 79.3534C66.5841 79.751 66.0188 79.5125 65.6958 79.1943Z" fill="#080809"/>
<path d="M62.3851 76.8086C62.4659 77.0472 62.6274 77.1267 62.3851 77.2858L62.8697 78.5582C62.2236 78.9558 62.3851 77.3653 62.3851 76.8086Z" fill="#080809"/>
<path d="M58.7511 76.8086L59.3164 77.2858L58.9934 77.3653C59.1549 77.8424 59.2356 78.081 59.4779 78.4787C59.0741 78.1606 58.6704 77.6834 58.7511 76.8086Z" fill="#080809"/>
<path d="M60.043 78.6376C59.9623 78.6376 59.8815 78.6376 59.8008 78.5581C59.8815 78.4785 59.9623 78.24 60.043 78.6376Z" fill="#080809"/>
<path d="M59.6394 78.5582C59.6394 78.4787 59.5586 78.4787 59.5586 78.3992C59.6393 78.4787 59.8009 78.4787 59.8816 78.5582C59.8009 78.7173 59.7201 78.7968 59.6394 78.5582Z" fill="#080809"/>
<path d="M58.2666 77.4446L57.2168 77.365L57.6206 77.1265C57.7821 77.8422 58.1051 76.6493 58.2666 77.4446Z" fill="#080809"/>
<path d="M52.9364 78.3991L52.8557 79.1148C52.2096 79.2739 51.4021 77.8424 50.9983 78.9558C51.3213 78.4786 50.433 78.24 51.2406 78.0015C51.5636 78.5582 52.4519 78.5582 52.9364 78.3991Z" fill="#080809"/>
<path d="M50.5139 79.5124C50.5946 79.6714 50.4331 79.8305 50.3524 80.0691C50.1101 80.1486 49.8678 79.8305 50.0293 79.5919C50.2716 80.3872 50.2716 78.9557 50.5139 79.5124Z" fill="#080809"/>
<path d="M47.5262 79.5124C47.6877 79.5124 48.0108 79.5919 47.6877 79.751C47.1225 79.751 47.284 79.0352 46.9609 78.6376C47.4455 78.24 47.8493 79.1943 47.5262 79.5124Z" fill="#080809"/>
<path d="M42.9229 79.8305L43.0844 79.751L43.2459 80.3872L42.9229 79.8305Z" fill="#080809"/>
<path d="M39.5314 79.592L39.0469 79.2739H39.6929L39.5314 79.592Z" fill="#080809"/>
<path d="M38.8851 79.7512H38.3198L38.5621 79.5921C38.7236 79.4331 38.6428 79.7512 38.8851 79.7512Z" fill="#080809"/>
<path d="M37.1084 79.7512C37.1892 79.7512 37.1892 79.7512 37.2699 79.6716L37.7544 79.8307L37.1084 79.7512Z" fill="#080809"/>
</g>
</g>
<mask id="mask1_37_5411" style="mask-type:luminance" maskUnits="userSpaceOnUse" x="0" y="81" width="100" height="29">
<path d="M99.8548 94.9407C78.4547 100.508 67.2297 109.176 66.8259 109.494C46.2334 109.971 22.0069 108.858 10.0551 104.166C-1.81587 99.3942 -2.70418 89.6919 5.04831 81.3416L99.8548 94.9407Z" fill="white"/>
</mask>
<g mask="url(#mask1_37_5411)">
<g opacity="0.45">
<path d="M37.4308 107.426C37.2693 107.267 37.1078 107.108 36.9463 106.79L37.4308 107.426Z" fill="#080809"/>
<path d="M20.2303 108.619C20.1495 108.619 19.988 108.619 19.9072 108.54V108.46C19.988 108.381 20.1495 108.54 20.2303 108.619Z" fill="#080809"/>
<path d="M20.7955 108.222L20.5532 108.142C20.634 108.142 20.7147 108.222 20.7955 108.222Z" fill="#080809"/>
<path d="M13.043 102.655V102.337C13.1237 102.416 13.1237 102.575 13.043 102.655Z" fill="#080809"/>
<path d="M36.1387 107.427C36.3002 107.506 36.3002 107.506 36.1387 107.427Z" fill="#080809"/>
<path d="M26.4481 109.653C26.7711 108.381 25.7213 109.494 25.9635 108.222C26.2865 108.54 26.5288 108.779 26.7711 108.142C26.5288 107.347 26.0443 108.142 26.0443 107.029L26.5288 107.506C26.9326 107.029 26.5288 106.075 26.8518 106.234C27.0941 107.824 28.4669 105.836 28.9515 106.075L28.7899 105.916L29.5975 105.2V105.12C29.5975 105.2 29.5975 105.279 29.5975 105.438C30.0013 104.643 30.5666 104.086 31.2126 104.325C31.3741 105.279 33.1507 104.723 33.393 105.518C33.1507 105.279 32.9085 105.2 32.5854 105.518L32.5047 106.631C33.07 106.631 32.6662 105.518 33.1507 106.313C32.9085 107.904 32.3432 106.234 31.8586 106.393C32.0202 106.79 32.1817 107.108 32.4239 107.267C31.6164 107.267 30.7281 107.665 30.2435 106.154C30.0013 106.472 30.0013 107.108 30.1628 107.267C29.5975 106.313 29.5975 108.063 29.1937 107.267C29.1937 108.699 30.405 108.142 30.8088 109.017C31.6971 107.983 32.5854 109.176 33.4737 109.494C33.5545 108.381 33.07 107.427 33.4737 106.79C34.362 106.075 34.2813 107.427 34.6851 108.142C35.3311 107.824 34.8466 106.234 35.8156 106.234L35.3311 105.438C35.9772 103.848 35.8156 106.075 36.3002 105.756C36.1387 106.154 36.1387 106.552 35.6541 106.552C35.5734 107.108 35.8964 107.427 36.0579 107.506L35.9772 107.586C36.1387 108.381 36.1387 109.256 36.7847 108.858C36.4617 107.904 37.35 108.142 37.5115 107.745L37.35 107.506C37.7538 107.824 38.2383 107.745 38.5613 107.904V107.665C38.8843 108.063 38.9651 109.335 39.4496 109.097C39.4496 108.619 38.8843 107.188 39.4496 107.427C39.4496 106.631 38.8036 106.552 38.319 106.87C38.8036 106.631 39.1266 105.359 38.5613 105.279C38.8036 104.325 39.1266 105.677 39.4496 105.279C39.3689 105.597 39.4496 105.916 39.4496 106.154C39.5304 104.882 40.5802 106.075 40.5802 107.029L40.0149 106.313C39.9342 107.347 40.5802 108.063 40.3379 108.699C40.6609 107.029 41.8723 109.574 42.2761 108.222L42.0338 109.097C43.2451 108.619 44.2142 110.687 45.4255 111.244C45.0217 110.608 45.0217 108.699 44.2949 109.335C45.4255 109.017 44.6987 107.427 45.1025 106.472C45.9908 105.756 45.5062 108.301 45.7485 108.938L45.1025 108.54C45.5063 109.653 46.0715 109.574 46.7176 109.415C47.3636 109.176 48.0904 108.858 48.6557 109.653C48.7365 109.017 48.4134 109.256 48.2519 109.017C48.8172 107.824 48.8172 109.256 49.1402 109.812C49.7055 109.653 50.4323 109.097 50.1093 107.506C50.7553 107.108 50.0285 108.46 50.3516 108.938L50.5131 108.619L51.1591 110.449C51.7244 109.971 52.3704 109.097 52.6935 107.506C53.9855 107.824 53.0972 111.244 54.0663 111.96C54.6316 111.085 53.9855 110.687 53.9048 110.051L54.7123 110.29C54.3893 108.381 53.7433 109.335 53.824 107.108C54.4701 109.335 54.7931 107.745 55.6814 109.256L55.6006 109.415C56.0044 110.926 56.9735 109.892 57.5388 110.21C57.2965 109.256 56.7312 109.176 56.3274 108.779C56.9735 107.983 58.5078 108.779 58.9924 110.846C59.3154 110.528 60.1229 109.653 59.5576 108.858C60.769 108.54 60.1229 111.801 61.1727 111.164L61.092 109.574C62.2225 107.347 63.4339 111.482 64.4837 109.494L64.5644 111.323C64.8067 110.528 65.2912 110.13 65.372 109.415L64.8067 108.779C65.2912 107.268 65.372 110.21 65.9373 109.097C65.9373 109.653 65.4528 110.926 65.5335 111.482C63.1109 110.528 60.769 113.312 58.3463 111.403C58.4271 111.164 58.5078 110.926 58.5078 110.528C58.2656 111.005 57.781 110.449 57.8618 111.482L57.9425 111.641C57.2965 111.164 56.7312 113.471 56.3274 113.471C56.0852 112.198 55.0353 113.948 55.2776 111.801L54.8738 113.153C54.7123 112.357 54.7931 111.323 54.5508 110.926C54.147 111.085 54.0663 111.88 54.4701 112.437C52.7742 113.152 50.8361 112.675 49.1402 111.96L49.544 112.914C49.1402 113.312 48.0904 111.164 48.4134 113.471C47.6059 112.437 46.1523 113.789 46.1523 111.562C45.5062 113.709 44.1334 112.278 43.0028 111.88C43.2451 110.051 42.1145 111.323 41.7915 110.449C41.5493 111.801 42.6798 111.96 42.6798 112.914C42.1145 111.721 41.307 112.119 40.5802 112.198C39.8534 112.357 39.2074 112.278 39.0459 110.528C38.8843 110.687 38.8843 110.767 38.9651 110.926C38.7228 110.926 38.3998 111.482 38.1575 111.562C38.0768 110.926 38.5613 110.767 37.996 110.449C37.5923 110.528 37.7538 111.482 37.5115 111.88C36.7039 111.005 35.4119 110.528 35.4119 109.256C35.1696 109.574 34.8466 110.29 35.0888 110.608C33.8775 109.415 33.7968 110.608 32.5047 109.892C32.9892 109.971 32.6662 111.244 33.3122 110.846C32.6662 112.516 31.2934 110.21 30.1628 111.005L29.8398 109.892C29.1937 109.574 29.113 110.608 29.5167 111.085C28.3862 111.562 27.8209 110.767 27.0133 110.608C26.9326 110.687 26.9326 110.926 27.0941 110.926L25.8828 110.687C25.802 110.449 25.3982 109.812 25.5597 109.256C25.479 109.574 25.7213 109.971 26.4481 109.653Z" fill="#080809"/>
<path d="M25.3984 108.938V108.779H25.4792C25.4792 108.938 25.3984 108.938 25.3984 108.938Z" fill="#080809"/>
<path d="M36.7044 105.279C36.5429 105.597 36.4621 105.677 36.3813 105.756C36.4621 105.597 36.5429 105.359 36.7044 105.279Z" fill="#080809"/>
<path d="M14.4964 105.12C14.9002 104.086 15.1425 105.438 15.7885 105.279C15.304 105.041 15.627 104.405 15.7078 104.086C16.0308 105.597 16.5153 103.927 17.5651 104.405C17.7266 103.927 17.1614 103.768 17.2421 103.212C17.8074 103.689 18.6957 104.007 18.6149 104.882C19.6648 105.041 20.4723 104.882 21.0376 105.12C20.3108 104.643 21.0376 104.166 20.6338 103.291C21.1991 104.405 22.7335 105.995 23.6218 107.665C23.9448 106.552 23.9448 106.472 23.9448 105.438C25.3176 104.802 24.187 106.552 25.3984 106.313L24.8331 106.472C25.3176 106.87 25.2369 107.983 25.3176 108.778L23.9448 108.381C23.864 109.176 24.7523 109.256 24.9946 109.494C25.3176 110.528 24.1063 110.051 24.187 110.767C24.0255 110.13 23.4602 110.21 23.1372 109.812L22.9757 110.21C22.2489 110.449 22.0067 109.335 21.4414 109.256C21.3606 109.335 21.3606 109.415 21.3606 109.494C21.1991 109.017 21.1183 108.381 20.7146 108.222L20.9568 108.301C20.5531 107.267 19.4225 106.472 20.3916 105.677H18.938C18.938 106.631 18.938 108.142 19.7455 108.46V108.938C19.0187 109.335 18.1304 107.745 18.6957 107.029C18.6149 105.836 18.0497 105.677 17.4036 105.756C16.7576 105.756 16.0308 105.916 15.627 105.359C15.4655 105.916 15.95 106.234 16.1115 106.711C16.4346 106.87 16.6768 106.949 16.7576 106.472C18.0497 107.108 16.1115 108.222 17.6459 108.46C18.4534 108.381 16.9191 107.267 18.0497 107.427L18.5342 109.335C17.8881 109.097 17.2421 108.619 16.7576 108.301C15.304 107.347 14.0119 106.87 13.1236 106.711C12.1545 106.472 11.5893 106.472 11.5893 106.472C9.40887 105.597 7.22848 104.564 5.12885 103.291C3.10997 102.019 1.09109 100.428 -0.0394816 98.1219C-0.604767 96.6904 -0.604763 96.0542 -0.281743 95.418C-0.200988 95.7361 -0.0394767 96.5313 0.0412784 96.2132C-0.0394767 96.2928 -0.0394767 96.4518 0.0412784 96.7699C0.122034 97.0085 0.202784 97.3266 0.364294 97.6447C0.606559 97.6447 0.12203 97.0085 0.28354 97.1676C0.28354 97.2471 0.364294 97.2471 0.364294 97.3266C0.445049 97.2471 0.445049 97.088 0.364294 96.8495C0.929579 97.4857 1.81789 98.5991 1.89864 99.3148C2.54468 99.6329 1.89864 98.6786 1.73713 98.3605C3.43299 99.792 4.88658 100.428 6.98621 101.303C6.74395 101.939 6.98621 101.78 7.14772 102.337L7.47074 102.178C7.30923 102.257 7.47075 102.814 6.98621 102.734C7.71301 102.734 8.03602 103.132 8.19753 103.609C8.4398 104.086 8.52056 104.643 8.92434 105.041L9.00509 104.643C9.73188 104.961 9.97415 105.12 10.5394 105.597C11.993 105.279 9.48962 105.12 10.1357 104.245L10.4587 104.564C10.3779 104.086 10.3779 103.371 10.1357 102.973C11.024 103.927 11.8315 103.132 12.9621 104.007C12.9621 103.45 11.9123 102.814 11.67 102.734C12.0738 102.814 12.7198 103.291 12.8813 102.814L12.8006 103.45C13.5274 103.689 12.8813 102.814 13.2044 102.496C15.1425 102.734 13.0428 104.405 14.4964 105.12Z" fill="#080809"/>
<path d="M33.0702 107.347C32.8279 107.426 32.6664 107.347 32.5049 107.267C32.6664 107.267 32.8279 107.267 33.0702 107.347Z" fill="#080809"/>
<path d="M29.3555 103.689C29.194 104.166 29.4363 104.166 29.517 104.723C29.3555 104.404 28.7902 104.404 29.3555 103.689Z" fill="#080809"/>
<path d="M88.2257 106.552C88.3064 106.631 88.8717 106.79 88.7102 106.79C88.4679 106.711 88.2257 106.631 87.9834 106.552C88.0642 106.631 88.1449 106.552 88.2257 106.552Z" fill="#080809"/>
<path d="M86.7724 106.631C86.5301 106.631 86.2878 106.711 86.0456 106.711C85.8841 106.472 85.7225 106.234 85.561 105.995C86.3686 106.154 86.0456 106.472 86.7724 106.631Z" fill="#080809"/>
<path d="M84.834 106.79L84.9955 106.949C84.834 106.87 84.834 106.79 84.834 106.79Z" fill="#080809"/>
<path d="M84.8343 106.472L84.5112 105.836C84.8343 105.995 85.1573 106.234 85.4803 106.393C85.3995 106.393 85.238 106.393 85.1573 106.472C85.1573 106.631 84.915 106.711 84.915 106.791L84.5112 106.393C84.592 106.393 84.7535 106.552 84.8343 106.472Z" fill="#080809"/>
<path d="M84.0269 106.313C84.0269 106.234 84.1076 106.234 84.1076 106.154C84.1076 106.234 84.0269 106.313 84.0269 106.313Z" fill="#080809"/>
<path d="M82.3308 107.586C82.4923 107.268 82.0886 106.87 82.0078 106.552C82.6539 106.313 82.8154 107.347 83.3806 107.029C82.4116 106.472 83.7037 106.631 84.0267 106.313C83.8652 106.87 83.5422 107.268 82.8961 107.506L82.8154 107.029C82.4116 107.108 82.5731 107.427 82.3308 107.586Z" fill="#080809"/>
<path d="M78.6162 106.234L79.1815 107.188C79.2623 106.711 80.1506 106.711 80.0698 105.916C80.3928 106.075 80.4736 106.472 80.7159 106.631C80.9581 106.234 81.1197 105.916 81.4427 106.472C80.1506 106.949 80.5544 107.188 79.4238 107.506C79.4238 107.665 79.5853 107.665 79.7468 107.586C79.5045 107.745 79.2623 107.904 79.02 108.142C78.8585 107.108 77.8895 106.949 78.6162 106.234Z" fill="#080809"/>
<path d="M77.5663 106.949C78.1315 107.029 78.5353 107.904 78.2931 108.54C77.8893 108.301 77.4048 108.063 77.001 107.824C77.324 107.904 77.7278 107.983 77.5663 106.949Z" fill="#080809"/>
<path d="M76.6777 107.029C76.4355 107.586 76.1125 108.858 75.6279 107.745C76.3547 107.824 75.951 106.234 76.6777 107.029Z" fill="#080809"/>
<path d="M72.3174 108.222C72.7212 107.904 73.1249 107.665 73.4479 107.347C73.6095 105.757 72.8827 106.87 72.4789 106.075C73.448 105.757 73.2057 106.313 73.9325 107.268C74.2555 107.188 74.6593 107.983 75.0631 108.381C74.2555 107.824 73.9325 108.461 73.5287 108.938C73.2864 109.335 72.9634 109.653 72.3174 108.222Z" fill="#080809"/>
<path d="M74.6591 106.552L74.8207 107.188L74.2554 106.711L74.6591 106.552Z" fill="#080809"/>
<path d="M69.5717 110.21C68.9256 112.437 68.1988 109.097 67.3913 110.051C67.472 110.21 67.3913 110.369 67.6335 110.608L66.9068 110.448V110.926C66.9068 109.574 66.18 109.097 65.8569 108.063C66.503 106.631 66.2607 109.733 66.826 108.142C66.6645 107.506 66.503 106.631 66.4222 106.154C66.826 106.87 66.9875 107.586 67.149 108.381C67.6335 108.54 67.472 107.745 67.472 107.267C68.0373 108.063 68.0373 109.971 68.8449 109.415C69.3294 108.301 68.5218 107.665 69.4102 108.063C69.0064 110.13 70.2985 107.745 70.6215 108.937C71.2675 108.54 71.5905 107.347 71.429 106.631C71.429 108.142 72.0751 109.335 72.5596 109.733C72.1558 109.335 71.8328 109.017 71.429 108.619L71.106 110.369C70.46 109.574 70.0562 109.733 69.4909 110.051L69.5717 110.21Z" fill="#080809"/>
<path d="M66.422 106.234C66.3412 106.075 66.2604 105.995 66.1797 105.916C66.2604 105.836 66.3412 105.995 66.422 106.234Z" fill="#080809"/>
<path d="M71.5904 106.234L71.3481 105.916L71.5097 105.438L71.5904 106.234Z" fill="#080809"/>
<path d="M65.8568 104.802C66.0183 104.722 66.0991 105.359 65.9376 105.438L65.6953 104.484L65.8568 104.802Z" fill="#080809"/>
<path d="M65.2108 105.995L64.8878 107.188L64.6455 106.234L65.2108 105.995Z" fill="#080809"/>
<path d="M50.6748 107.267C51.1593 106.631 51.0786 107.904 51.1593 108.858C50.4325 109.017 51.1593 107.665 50.6748 107.267Z" fill="#080809"/>
<path d="M41.6304 105.757C42.1957 105.041 42.5994 106.154 43.084 106.075C42.5994 106.631 41.9534 106.313 41.6304 105.757Z" fill="#080809"/>
<path d="M37.9156 102.257C37.9964 102.575 38.1579 102.734 37.9156 102.894L38.3194 104.723C37.5118 105.279 37.8349 103.053 37.9156 102.257Z" fill="#080809"/>
<path d="M33.6352 102.098L34.2813 102.734L33.8775 102.814C34.039 103.45 34.1198 103.848 34.362 104.404C33.8775 103.927 33.393 103.291 33.6352 102.098Z" fill="#080809"/>
<path d="M34.9273 104.643C34.8466 104.643 34.7658 104.564 34.6851 104.564C34.7658 104.325 34.8466 104.086 34.9273 104.643Z" fill="#080809"/>
<path d="M34.4431 104.564C34.4431 104.484 34.3623 104.405 34.3623 104.405C34.4431 104.484 34.6046 104.564 34.6853 104.643C34.6046 104.723 34.5238 104.802 34.4431 104.564Z" fill="#080809"/>
<path d="M32.9896 102.893L31.7783 102.734L32.2628 102.416C32.3436 103.45 32.9089 101.78 32.9896 102.893Z" fill="#080809"/>
<path d="M26.5289 103.609L26.2866 104.484C25.4791 104.564 24.7523 102.734 24.1062 104.007C24.51 103.53 23.6217 103.053 24.51 102.814C24.833 103.609 25.9636 103.768 26.5289 103.609Z" fill="#080809"/>
<path d="M23.5411 104.643C23.6219 104.882 23.4604 105.041 23.2989 105.279C22.9759 105.359 22.7336 104.961 22.9759 104.643C22.9759 105.677 23.2989 104.007 23.5411 104.643Z" fill="#080809"/>
<path d="M19.9878 104.166C20.23 104.245 20.4723 104.325 20.1493 104.484C19.5032 104.325 19.8262 103.53 19.584 103.052C20.1493 102.655 20.4723 103.848 19.9878 104.166Z" fill="#080809"/>
<path d="M13.5273 107.904C13.7696 107.427 14.2541 107.665 14.3349 107.904C14.2541 107.665 13.8504 107.745 13.5273 107.904Z" fill="#080809"/>
<path d="M14.4966 103.53L14.7388 103.45V104.245L14.4966 103.53Z" fill="#080809"/>
<path d="M10.7011 102.257L10.2974 101.7L11.0242 101.939L10.7011 102.257Z" fill="#080809"/>
<path d="M9.8936 102.178L9.24756 101.939L9.57059 101.86C9.89361 101.78 9.73209 102.098 9.8936 102.178Z" fill="#080809"/>
<path d="M8.03613 101.462C8.11689 101.542 8.19765 101.462 8.2784 101.462L8.76294 101.86L8.03613 101.462Z" fill="#080809"/>
</g>
</g>
<mask id="mask2_37_5411" style="mask-type:luminance" maskUnits="userSpaceOnUse" x="141" y="65" width="31" height="24">
<path d="M170.435 83.966C164.944 85.8746 154.849 86.829 141.202 88.4195C144.513 84.2841 146.208 79.2739 145.239 73.1503C144.836 70.6055 144.351 68.0606 143.786 65.6748C146.289 66.0724 148.793 66.5496 151.215 67.0268C158.322 68.4582 164.217 70.1283 169.062 71.9574C174.311 79.592 170.435 83.966 170.435 83.966Z" fill="white"/>
</mask>
<g mask="url(#mask2_37_5411)">
<g opacity="0.45">
<path d="M157.272 88.6576C157.272 88.5781 157.191 88.4191 157.191 88.26C157.191 88.26 157.272 88.4191 157.272 88.6576Z" fill="#080809"/>
<path d="M168.013 88.0215L168.093 88.4191C167.932 88.2601 167.932 88.1805 168.013 88.0215Z" fill="#080809"/>
<path d="M156.464 85.6358C156.384 85.5563 156.303 85.3972 156.222 85.0791L156.464 85.6358Z" fill="#080809"/>
<path d="M157.595 83.8067C157.595 83.7272 157.595 83.6476 157.676 83.5681C157.676 83.7272 157.595 83.8067 157.595 83.8067Z" fill="#080809"/>
<path d="M146.855 87.7828C146.774 87.7828 146.774 87.7828 146.693 87.7828V87.7033C146.693 87.5443 146.774 87.7033 146.855 87.7828Z" fill="#080809"/>
<path d="M147.178 87.3852L147.016 87.3057C147.097 87.3057 147.097 87.3057 147.178 87.3852Z" fill="#080809"/>
<path d="M155.738 85.6357C155.819 85.7153 155.819 85.7153 155.738 85.6357Z" fill="#080809"/>
<path d="M150.247 88.1804C150.489 86.9875 149.843 88.1009 150.004 86.908C150.166 87.2261 150.327 87.3852 150.489 86.7489C150.408 86.0332 150.085 86.749 150.085 85.7946L150.327 86.1923C150.57 85.7151 150.327 84.9198 150.57 84.9994C150.731 86.4308 151.458 84.5222 151.7 84.7608L151.619 84.6017L152.104 83.9655V83.886C152.104 83.9655 152.104 84.045 152.104 84.1246C152.346 83.4088 152.669 82.9317 152.992 83.0907C153.073 83.886 154.123 83.4088 154.204 84.1246C154.042 83.886 153.961 83.886 153.719 84.1246V85.1584C154.042 85.1584 153.8 84.2041 154.123 84.8403C153.961 86.1923 153.638 84.8403 153.396 84.9994C153.477 85.3175 153.558 85.6356 153.719 85.7151C153.235 85.7151 152.75 86.1923 152.508 84.7608C152.346 85.0789 152.346 85.6356 152.427 85.7151C152.104 84.9198 152.104 86.4308 151.862 85.7151C151.862 86.9875 152.508 86.4308 152.75 87.1466C153.234 86.1923 153.8 87.1466 154.204 87.3852C154.284 86.4308 153.961 85.6356 154.204 85.0789C154.688 84.4427 154.607 85.6356 154.85 86.1923C155.173 85.8742 155.011 84.6017 155.496 84.6017L155.253 83.9655C155.657 82.6136 155.496 84.5222 155.738 84.2836C155.657 84.6017 155.657 84.9994 155.334 84.9198C155.253 85.397 155.496 85.6356 155.576 85.7151H155.496C155.576 86.3513 155.576 87.0671 155.899 86.7489C155.738 85.9537 156.222 86.1923 156.303 85.7946L156.222 85.6356C156.465 85.9537 156.707 85.7946 156.868 85.9537V85.7151C157.03 86.0332 157.03 87.0671 157.353 86.8285C157.353 86.4308 157.111 85.3175 157.353 85.4765C157.353 84.8403 157.03 84.7608 156.707 84.9994C157.03 84.7608 157.191 83.8065 156.868 83.7269C157.03 82.9317 157.192 84.045 157.353 83.7269C157.272 83.9655 157.353 84.2041 157.353 84.4427C157.434 83.4088 157.999 84.3631 157.999 85.0789L157.676 84.5222C157.595 85.397 157.999 85.9537 157.838 86.4308C158.08 85.0789 158.645 87.1466 158.887 86.0332L158.726 86.7489C159.453 86.3513 159.937 87.9418 160.583 88.26C160.341 87.8623 160.422 86.3513 159.937 86.908C160.583 86.6694 160.179 85.4765 160.422 84.7608C160.906 84.2836 160.583 86.1127 160.745 86.5899L160.422 86.3513C160.825 88.0214 161.714 86.0332 162.36 87.0671C162.441 86.6694 162.198 86.8285 162.118 86.6694C162.441 85.7946 162.441 86.8285 162.602 87.2261C162.925 87.0671 163.329 86.7489 163.167 85.7151C163.49 85.4765 163.087 86.3513 163.248 86.6694L163.329 86.4308L163.652 87.6237C163.975 87.3056 164.379 86.749 164.54 85.7946C165.267 86.0332 164.702 88.1009 165.267 88.4985C165.59 87.9418 165.267 87.7033 165.186 87.3056L165.671 87.3852C165.509 86.2718 165.186 86.8285 165.186 85.4765C165.509 86.8285 165.671 85.8742 166.155 86.7489V86.8285C166.398 87.7033 166.882 87.0671 167.205 87.2261C167.124 86.6694 166.801 86.6694 166.559 86.4308C166.882 86.0332 167.77 86.4308 168.013 87.5442C168.174 87.3852 168.659 86.908 168.336 86.5104C169.063 86.3513 168.578 88.0214 169.224 87.7033V86.908C169.87 85.7946 170.516 87.9418 171.162 86.908V87.7828C171.324 87.3852 171.566 87.2261 171.647 86.8285L171.324 86.5104C171.566 85.7946 171.647 87.2261 171.97 86.6694C171.97 86.908 171.647 87.5442 171.647 87.8623C171.001 87.6237 170.355 87.8623 169.628 88.0214C168.982 88.1804 168.255 88.3395 167.609 87.8623C167.69 87.7033 167.69 87.6237 167.69 87.3852C167.528 87.6237 167.286 87.3852 167.286 87.9419L167.367 88.0214C167.044 87.7828 166.64 89.0552 166.478 89.0552C166.398 88.3395 165.752 89.3733 165.913 88.1009L165.671 88.8962C165.59 88.419 165.671 87.8623 165.509 87.6237C165.267 87.7033 165.267 88.26 165.429 88.4985C164.459 88.9757 163.41 88.8962 162.441 88.419L162.683 89.0552C162.441 89.3733 161.875 87.9419 162.037 89.5324C161.633 88.8962 160.745 89.93 160.825 88.3395C160.422 89.93 159.695 88.9757 159.049 88.7371C159.21 87.3056 158.564 88.3395 158.403 87.6237C158.241 88.7371 158.887 88.7371 158.887 89.5324C158.322 87.7828 156.949 90.6458 156.868 87.8623C156.788 87.9418 156.788 88.1009 156.788 88.1804C156.626 88.1804 156.465 88.6576 156.303 88.7371C156.222 88.26 156.545 88.0214 156.222 87.8623C155.98 87.9418 156.061 88.7371 155.98 89.0552C155.576 88.419 154.85 88.1009 154.85 86.9875C154.688 87.3056 154.527 87.8623 154.688 88.1009C154.042 87.1466 153.961 88.1804 153.234 87.6237C153.477 87.7033 153.315 88.8166 153.719 88.3395C153.315 89.8505 152.588 87.9418 151.942 88.6576L151.781 87.7033C151.458 87.4647 151.377 88.419 151.539 88.8167C150.893 89.2938 150.57 88.6576 150.166 88.6576C150.166 88.7371 150.166 88.9757 150.247 88.8962L149.601 88.8167C149.52 88.5781 149.358 88.1009 149.439 87.5442C149.762 88.1009 149.924 88.419 150.247 88.1804Z" fill="#080809"/>
<path d="M156.061 83.8064C155.98 84.045 155.899 84.204 155.899 84.204C155.98 84.1245 155.98 83.9655 156.061 83.8064Z" fill="#080809"/>
<path d="M143.624 85.238C143.786 84.2042 144.028 85.4766 144.351 85.238C144.109 84.9995 144.19 84.4428 144.27 84.1247C144.432 85.5561 144.755 83.8861 145.32 84.2042C145.401 83.727 145.078 83.6475 145.078 83.0908C145.401 83.4884 145.885 83.6475 145.885 84.5223C146.451 84.6018 146.935 84.2837 147.258 84.4428C146.855 84.0451 147.258 83.4884 147.016 82.7727C147.339 83.8066 148.227 85.1585 148.712 86.6695C148.873 85.6357 148.954 85.4766 148.954 84.5223C149.762 83.8066 149.116 85.5562 149.762 85.238L149.439 85.3971C149.762 85.7152 149.681 86.749 149.681 87.5443L148.873 87.3057C148.793 88.0215 149.358 88.0215 149.439 88.2601C149.6 89.2144 148.954 88.8167 148.954 89.5325C148.873 88.8963 148.55 89.0553 148.389 88.7372L148.308 89.1349C147.904 89.453 147.743 88.4191 147.42 88.4191C147.42 88.4986 147.339 88.5782 147.339 88.6577C147.258 88.1805 147.178 87.7034 147.016 87.4648L147.178 87.5443C146.935 86.59 146.289 85.9538 146.855 85.079L146.047 85.3176C146.047 86.2719 146.047 87.7034 146.532 87.942V88.3396C146.128 88.8167 145.643 87.3853 145.885 86.6695C145.805 85.5561 145.482 85.4766 145.159 85.5561C144.836 85.6357 144.432 85.8743 144.19 85.3971C144.109 85.9538 144.432 86.1924 144.513 86.6695C144.674 86.749 144.836 86.8286 144.836 86.3514C145.562 86.8286 144.513 88.1805 145.401 88.1805C145.885 87.942 144.997 87.1467 145.643 87.1467L145.885 88.8963C145.482 88.7372 145.159 88.4191 144.916 88.101C144.109 87.3853 143.382 87.1467 142.898 87.1467C142.413 87.0672 142.09 87.2262 142.09 87.2262C139.587 86.3514 137.164 85.4766 134.741 84.4428C134.015 84.1247 133.691 83.9656 133.449 83.8066C133.611 83.8066 134.095 83.8861 133.934 83.8066C134.015 83.8861 134.338 83.9656 134.741 84.0451C134.822 83.9656 134.338 83.8861 134.499 83.8861H134.58C134.58 83.8065 134.499 83.8066 134.338 83.8066C134.822 83.727 135.71 83.6475 135.953 84.1247C136.356 83.9656 135.71 83.8066 135.549 83.6475C136.922 83.4885 137.81 83.4884 139.183 83.4089C139.102 84.0451 139.264 83.8065 139.425 84.2837L139.587 84.0451C139.506 84.1247 139.667 84.6018 139.344 84.7609C140.152 84.3632 140.152 85.7947 140.636 86.2719V85.8742C141.04 86.0333 141.202 86.1128 141.525 86.4309C142.332 85.7947 140.959 86.1924 141.202 85.1585L141.363 85.3971C141.282 84.9995 141.282 84.2837 141.04 83.9656C141.605 84.6814 142.009 83.727 142.736 84.2837C142.736 83.727 142.09 83.3294 141.929 83.3294C142.171 83.2499 142.575 83.6475 142.655 83.1703V83.8066C143.059 83.8861 142.655 83.2499 142.817 82.7727C143.301 82.7727 143.301 83.3294 143.221 83.8861C143.221 84.3632 143.221 84.9995 143.624 85.238Z" fill="#080809"/>
<path d="M153.961 85.7153C153.8 85.7948 153.719 85.7153 153.638 85.6357C153.8 85.6357 153.88 85.6357 153.961 85.7153Z" fill="#080809"/>
<path d="M151.943 82.5342C151.862 82.9318 152.023 82.9318 152.023 83.4885C151.943 83.1704 151.619 83.1704 151.943 82.5342Z" fill="#080809"/>
<path d="M171.97 85.3176L171.727 85.8743L171.646 85.3972L171.97 85.3176Z" fill="#080809"/>
<path d="M163.813 85.5562C164.056 85.1586 164.056 85.9539 164.056 86.5901C163.652 86.7491 164.136 85.8743 163.813 85.5562Z" fill="#080809"/>
<path d="M158.807 84.2837C159.13 83.727 159.372 84.6018 159.614 84.6018C159.372 84.9995 158.968 84.6814 158.807 84.2837Z" fill="#080809"/>
<path d="M156.787 81.3413C156.868 81.5799 156.949 81.7389 156.787 81.898L156.949 83.409C156.545 83.8862 156.787 81.9775 156.787 81.3413Z" fill="#080809"/>
<path d="M154.365 81.1025L154.688 81.6592H154.446C154.527 82.2159 154.527 82.534 154.688 83.0112C154.527 82.6931 154.284 82.1364 154.365 81.1025Z" fill="#080809"/>
<path d="M155.092 83.3295C155.011 83.3295 155.011 83.25 154.93 83.25C155.011 83.0909 155.092 82.8523 155.092 83.3295Z" fill="#080809"/>
<path d="M154.769 83.2499C154.769 83.1704 154.769 83.1703 154.688 83.0908C154.769 83.1703 154.85 83.2499 154.85 83.2499C154.93 83.3294 154.85 83.4885 154.769 83.2499Z" fill="#080809"/>
<path d="M154.042 81.8183L153.396 81.6592L153.638 81.4207C153.638 82.2954 153.961 80.864 154.042 81.8183Z" fill="#080809"/>
<path d="M150.408 82.5342L150.247 83.3294C149.762 83.4885 149.358 81.7389 149.035 83.0113C149.277 82.5342 148.712 82.1365 149.277 81.8979C149.439 82.6137 150.085 82.6932 150.408 82.5342Z" fill="#080809"/>
<path d="M148.712 83.6474C148.793 83.886 148.631 84.0451 148.551 84.2836C148.389 84.3632 148.228 83.9655 148.389 83.6474C148.389 84.6813 148.551 83.0112 148.712 83.6474Z" fill="#080809"/>
<path d="M146.693 83.568C146.855 83.568 147.016 83.6475 146.774 83.8065C146.37 83.727 146.532 82.9318 146.451 82.4546C146.774 82.057 146.936 83.1703 146.693 83.568Z" fill="#080809"/>
<path d="M143.14 88.0216C143.221 87.5445 143.544 87.624 143.625 87.8626C143.544 87.783 143.302 87.8626 143.14 88.0216Z" fill="#080809"/>
<path d="M143.544 83.6476L143.705 83.4885V84.3633L143.544 83.6476Z" fill="#080809"/>
<path d="M141.283 83.1703L141.041 82.7727L141.444 82.8522L141.283 83.1703Z" fill="#080809"/>
</g>
</g>
<mask id="mask3_37_5411" style="mask-type:luminance" maskUnits="userSpaceOnUse" x="121" y="28" width="16" height="14">
<path d="M136.679 41.9758C129.33 41.9758 121.417 30.6034 121.417 30.6034C124.243 29.331 131.026 28.9333 131.026 28.9333C131.026 28.9333 133.611 34.0231 136.679 41.9758Z" fill="white"/>
</mask>
<g mask="url(#mask3_37_5411)">
<g opacity="0.45">
<path d="M128.927 29.6487C128.927 29.7282 129.008 29.7282 129.008 29.8077C129.008 29.8077 128.927 29.7282 128.927 29.6487Z" fill="#080809"/>
<path d="M124.323 30.285L124.243 30.126C124.323 30.126 124.323 30.2055 124.323 30.285Z" fill="#080809"/>
<path d="M129.411 30.9214C129.492 31.0009 129.492 31.0009 129.573 31.16L129.411 30.9214Z" fill="#080809"/>
<path d="M129.008 31.7166V31.7961C128.927 31.7961 129.008 31.7961 129.008 31.7166Z" fill="#080809"/>
<path d="M133.449 29.3308C133.529 29.4103 133.449 29.4103 133.449 29.3308Z" fill="#080809"/>
<path d="M129.734 30.9215C129.654 30.8419 129.654 30.8419 129.734 30.9215Z" fill="#080809"/>
<path d="M122.547 30.3644C122.466 30.3644 122.466 30.3644 122.385 30.2849C122.547 30.2054 122.547 30.2849 122.547 30.3644Z" fill="#080809"/>
<path d="M131.995 29.4898C131.995 30.0464 132.157 29.4898 132.157 30.0464C132.076 29.8874 131.995 29.8079 131.995 30.126C132.076 30.4441 132.157 30.126 132.237 30.6031L132.076 30.4441C131.995 30.6827 132.157 31.0803 132.076 31.0008C131.914 30.3645 131.672 31.2394 131.591 31.1598L131.672 31.2393L131.511 31.5575C131.511 31.5575 131.511 31.4779 131.511 31.3984C131.43 31.7165 131.349 31.9551 131.188 31.8756C131.107 31.4779 130.703 31.796 130.622 31.4779C130.703 31.5575 130.784 31.5575 130.784 31.4779V31.0008C130.622 31.0008 130.784 31.3984 130.622 31.1598C130.622 30.5236 130.784 31.1598 130.945 31.0803C130.865 30.9212 130.865 30.8417 130.784 30.7622C131.026 30.7622 131.188 30.5236 131.349 31.1598C131.43 31.0008 131.349 30.7622 131.349 30.6827C131.511 31.0008 131.43 30.3646 131.591 30.6827C131.511 30.126 131.268 30.3646 131.107 30.0464C130.945 30.5236 130.703 30.0465 130.461 29.9669C130.461 30.3646 130.622 30.7622 130.542 31.0008C130.38 31.3189 130.299 30.7622 130.219 30.5236C130.057 30.6827 130.219 31.2393 129.976 31.2393L130.138 31.4779C130.057 32.1141 129.976 31.2393 129.896 31.3984C129.896 31.2393 129.896 31.0803 130.057 31.0803C130.057 30.8417 129.976 30.7622 129.896 30.7622C129.815 30.4441 129.815 30.126 129.653 30.285C129.734 30.6031 129.573 30.5236 129.492 30.6827L129.573 30.7622C129.492 30.6827 129.33 30.6827 129.25 30.6031V30.6827C129.169 30.5236 129.088 30.126 129.007 30.2055C129.007 30.3645 129.169 30.8417 129.088 30.7622C129.088 31.0008 129.25 31.0803 129.411 30.9212C129.33 31.0008 129.25 31.4779 129.411 31.4779C129.411 31.796 129.25 31.3189 129.169 31.4779C129.169 31.3984 129.169 31.2394 129.169 31.1598C129.169 31.637 128.927 31.2394 128.846 30.9212L129.007 31.1598C129.007 30.7622 128.846 30.5236 128.846 30.3646C128.765 30.9212 128.442 30.126 128.442 30.6031V30.285C128.119 30.4441 127.877 29.8079 127.554 29.7283C127.634 29.8874 127.715 30.5236 127.877 30.285C127.634 30.4441 127.796 30.9212 127.715 31.2393C127.473 31.4779 127.554 30.6827 127.473 30.4441L127.634 30.5236C127.392 29.8079 127.069 30.6827 126.746 30.285C126.746 30.4441 126.827 30.3646 126.827 30.4441C126.746 30.8417 126.665 30.3645 126.585 30.2055C126.423 30.285 126.262 30.4441 126.423 30.9212C126.262 31.0803 126.423 30.6031 126.342 30.5236V30.6031L126.181 30.126C126.019 30.285 125.939 30.5236 125.858 31.0008C125.535 30.9212 125.696 29.9669 125.454 29.8079C125.373 30.0464 125.535 30.126 125.535 30.3646H125.293C125.373 30.8417 125.535 30.6031 125.535 31.2393C125.293 30.6827 125.293 31.0803 125.05 30.6827V30.6031C124.889 30.2055 124.727 30.5236 124.566 30.4441C124.647 30.6827 124.808 30.6827 124.889 30.7622C124.727 31.0008 124.404 30.7622 124.243 30.285C124.162 30.3646 124 30.6031 124.162 30.8417C123.839 30.9212 124 30.126 123.758 30.285V30.6827C123.516 31.2393 123.193 30.2055 122.951 30.7622L122.87 30.285C122.789 30.5236 122.708 30.6031 122.708 30.7622L122.87 30.9212C122.789 31.3189 122.708 30.5236 122.547 30.8417C122.547 30.6827 122.628 30.3645 122.628 30.2055C123.193 30.4441 123.758 29.7283 124.323 30.126C124.323 30.2055 124.323 30.285 124.323 30.3646C124.404 30.2055 124.485 30.3646 124.485 30.126C124.647 30.2055 124.727 29.6488 124.808 29.6488C124.889 29.9669 125.131 29.4898 125.05 30.0464L125.131 29.6488C125.212 29.8874 125.212 30.126 125.212 30.2055C125.293 30.126 125.293 29.8874 125.212 29.8079C125.616 29.5693 126.1 29.5693 126.504 29.7283L126.342 29.4898C126.423 29.3307 126.746 29.9669 126.585 29.2512C126.827 29.4898 127.15 29.0126 127.15 29.7283C127.231 29.0126 127.634 29.4102 127.877 29.4898C127.877 30.126 128.119 29.6488 128.2 29.9669C128.2 29.4898 127.957 29.4898 127.957 29.1717C128.28 29.8874 128.765 28.615 128.927 29.8079C128.927 29.7283 128.927 29.7283 128.927 29.6488C129.007 29.6488 129.007 29.4102 129.088 29.4102C129.088 29.6488 129.007 29.7283 129.169 29.8079C129.25 29.7283 129.169 29.4102 129.25 29.2512C129.492 29.4898 129.815 29.6488 129.815 30.126C129.896 29.9669 129.896 29.7283 129.815 29.6488C130.138 30.0464 130.138 29.5693 130.461 29.8079C130.38 29.8079 130.38 29.3307 130.219 29.4898C130.299 28.774 130.703 29.5693 130.945 29.2512L131.026 29.6488C131.188 29.7283 131.188 29.3307 131.107 29.1717C131.349 28.8535 131.511 29.1717 131.753 29.1717C131.753 29.0921 131.753 29.0126 131.753 29.0921H132.076C132.076 29.1716 132.237 29.4102 132.237 29.7283C132.157 29.4898 132.076 29.3307 131.995 29.4898Z" fill="#080809"/>
<path d="M129.653 31.7167C129.653 31.6371 129.734 31.5576 129.734 31.5576C129.653 31.5576 129.653 31.6371 129.653 31.7167Z" fill="#080809"/>
<path d="M134.983 30.4442C134.983 31.0804 134.822 30.3646 134.66 30.5237C134.822 30.6032 134.741 31.0009 134.741 31.2394C134.58 30.3646 134.58 31.3985 134.257 31.2394C134.257 31.5575 134.418 31.5575 134.418 31.8757C134.257 31.6371 134.014 31.5575 134.014 31.0804C133.772 31.0804 133.611 31.2394 133.449 31.1599C133.611 31.319 133.449 31.6371 133.611 32.0347C133.449 31.478 132.964 30.7623 132.722 30.1261C132.722 30.6828 132.722 30.6827 132.722 31.2394C132.399 31.6371 132.641 30.7623 132.318 30.9213L132.48 30.8418C132.318 30.6827 132.318 30.2056 132.238 29.808L132.561 29.8875C132.561 29.4898 132.318 29.5694 132.238 29.4898C132.157 29.0127 132.399 29.1717 132.399 28.8536C132.48 29.1717 132.561 29.0127 132.641 29.1717V29.0127C132.803 28.7741 132.884 29.3308 133.045 29.2513C133.045 29.1717 133.045 29.1717 133.045 29.0922C133.126 29.3308 133.126 29.5694 133.207 29.6489H133.126C133.287 30.1261 133.53 30.4442 133.368 30.9213L133.691 30.7623C133.61 30.2851 133.53 29.4898 133.368 29.4103V29.1717C133.53 28.8536 133.772 29.5694 133.691 29.967C133.853 31.2394 134.257 29.967 134.499 30.5237C134.499 30.2056 134.337 30.0465 134.337 29.808C134.257 29.808 134.176 29.7284 134.176 30.0465C133.853 29.8875 134.257 29.0127 133.853 29.0922C133.691 29.2513 134.095 29.6489 133.772 29.6489L133.53 28.6946C133.691 28.6946 133.853 28.8536 134.014 29.0127C134.741 29.6489 135.306 29.0922 135.306 29.0922L138.617 29.4103C138.94 29.5694 139.102 29.4898 139.183 30.4442C139.102 30.6032 138.86 30.5237 138.94 30.8418C138.94 30.5237 138.779 30.2851 138.617 30.3646C138.617 30.6828 138.779 30.5237 138.698 30.6032C138.698 30.7623 138.779 30.9213 138.779 30.9213C138.537 31.3985 138.214 31.319 138.052 30.6828C137.891 31.0009 138.133 31.2394 138.214 31.478C137.648 31.7166 137.244 31.6371 136.679 31.7166C136.679 31.1599 136.598 31.319 136.518 30.9213L136.437 31.1599C136.437 31.0804 136.356 30.6032 136.518 30.5237C136.195 31.0009 136.114 29.7284 135.872 29.4898V29.808C135.71 29.7284 135.629 29.7284 135.468 29.5694C135.145 30.1261 135.71 29.6489 135.629 30.4442L135.872 30.2851C135.952 30.6032 135.952 31.0804 136.033 31.319C135.71 30.8418 135.629 31.478 135.306 31.1599C135.306 31.478 135.629 31.7961 135.71 31.7961C135.629 31.7961 135.387 31.5575 135.387 31.8757V31.478C135.226 31.3985 135.387 31.8757 135.387 32.1142C134.983 32.0347 135.306 30.7623 134.983 30.4442Z" fill="#080809"/>
<path d="M131.43 32.1937C131.43 32.0347 131.43 32.0347 131.349 31.7166C131.43 31.8756 131.591 31.8756 131.43 32.1937Z" fill="#080809"/>
<path d="M121.578 30.6032C121.74 29.967 121.901 30.9213 122.143 30.6828C122.143 30.6828 122.143 30.6032 122.063 30.5237L122.224 30.6032V30.4442C122.224 30.8418 122.466 30.9213 122.547 31.2394C122.386 31.6371 122.386 30.7623 122.305 31.2394C122.386 31.3985 122.386 31.6371 122.466 31.7961C122.386 31.6371 122.305 31.3985 122.224 31.1599C122.143 31.1599 122.143 31.319 122.143 31.478C121.982 31.2394 121.982 30.7623 121.82 30.8418C121.74 31.1599 121.901 31.319 121.74 31.2394C121.82 30.6828 121.578 31.319 121.417 31.0009C121.255 31.1599 121.174 31.478 121.255 31.7166C121.255 31.2395 121.094 30.8418 120.932 30.7623L121.255 31.1599L121.336 30.6032C121.417 30.7623 121.497 30.7623 121.578 30.6032Z" fill="#080809"/>
<path d="M122.466 31.7166C122.466 31.7166 122.466 31.7961 122.547 31.7961C122.466 31.8756 122.466 31.7961 122.466 31.7166Z" fill="#080809"/>
<path d="M122.628 32.1141C122.628 32.1141 122.547 31.9551 122.628 31.9551V32.1141Z" fill="#080809"/>
<path d="M122.708 31.7961L122.789 31.478L122.87 31.7166L122.708 31.7961Z" fill="#080809"/>
<path d="M126.181 31.2393C126.1 31.3983 126.1 31.0802 126.02 30.7621C126.262 30.6826 126.1 31.0802 126.181 31.2393Z" fill="#080809"/>
<path d="M128.442 31.5576C128.362 31.7962 128.2 31.4781 128.039 31.4781C128.2 31.319 128.362 31.3985 128.442 31.5576Z" fill="#080809"/>
<path d="M129.411 32.8299C129.411 32.7504 129.33 32.6708 129.411 32.5913L129.25 31.9551C129.411 31.7165 129.411 32.5118 129.411 32.8299Z" fill="#080809"/>
<path d="M130.461 32.8299L130.3 32.5914H130.38C130.3 32.3528 130.3 32.1937 130.219 32.0347C130.38 32.1142 130.461 32.4323 130.461 32.8299Z" fill="#080809"/>
<path d="M130.057 31.8755C130.138 32.1141 130.138 32.0345 130.057 31.8755Z" fill="#080809"/>
<path d="M130.219 31.9551C130.138 31.8756 130.138 31.7961 130.219 31.9551Z" fill="#080809"/>
<path d="M130.623 32.512L130.946 32.5915L130.865 32.7505C130.784 32.3529 130.623 32.9891 130.623 32.512Z" fill="#080809"/>
<path d="M132.157 32.1938V31.7962C132.318 31.7167 132.561 32.5915 132.722 31.9552C132.641 32.1938 132.884 32.4324 132.641 32.5119C132.561 32.1143 132.318 32.0348 132.157 32.1938Z" fill="#080809"/>
<path d="M132.884 31.5575C132.884 31.478 132.884 31.3985 132.884 31.2394C132.965 31.1599 133.045 31.3985 132.965 31.5575C132.965 31.0009 132.884 31.8757 132.884 31.5575Z" fill="#080809"/>
<path d="M133.691 31.5575C133.611 31.5575 133.53 31.478 133.611 31.3984C133.772 31.3984 133.772 31.8756 133.853 32.1142C133.772 32.4323 133.611 31.7961 133.691 31.5575Z" fill="#080809"/>
<path d="M134.983 28.6946C134.983 29.0127 134.822 29.0127 134.822 28.8536C134.903 28.9332 134.983 28.7741 134.983 28.6946Z" fill="#080809"/>
<path d="M135.064 31.478L134.983 31.5575V31.0803L135.064 31.478Z" fill="#080809"/>
<path d="M136.033 31.7959L136.195 32.114L136.033 32.0345V31.7959Z" fill="#080809"/>
<path d="M136.275 31.637H136.437L136.356 31.796C136.275 31.9551 136.275 31.7165 136.275 31.637Z" fill="#080809"/>
</g>
</g>
<path d="M162.521 22.9688C162.521 22.9688 165.59 23.9231 167.609 28.5357C167.609 28.5357 168.012 27.8995 167.932 27.3428C167.851 26.8656 170.677 28.5357 170.677 28.5357C170.677 28.5357 168.497 24.1617 164.298 22.7302L162.521 22.9688Z" fill="#FF510C"/>
<path d="M156.383 22.7301C156.383 22.7301 157.837 25.1954 158.644 25.1954C159.452 25.1954 159.29 23.0482 160.34 22.7301C161.39 22.4915 162.44 23.6844 165.589 22.2529" stroke="#1B1C1E" stroke-width="1.3738" stroke-miterlimit="10" stroke-linecap="round" stroke-linejoin="round"/>
<path d="M60.9307 63.8458C60.9307 63.8458 67.9564 63.4482 75.2243 70.6056C82.4923 77.763 83.8651 65.993 75.0628 62.7324C75.0628 62.7324 63.8378 63.4482 60.9307 63.8458Z" fill="#1B1C1E"/>
<path d="M67.9567 81.8982C67.9567 81.8982 60.931 82.6934 57.8623 92.0776C54.7128 101.541 43.8109 96.9287 41.792 89.7713C39.7731 82.6139 30.244 88.3398 27.4984 86.1926C24.7527 84.0454 30.0825 80.3076 30.0825 80.3076C30.0825 80.3076 58.8313 82.5344 67.9567 81.8982Z" fill="#1B1C1E"/>
<path d="M29.5173 88.8965C29.5173 88.8965 22.5724 90.5666 26.6909 94.3838C30.8094 98.2011 34.2011 89.2146 29.5173 88.8965Z" fill="#1B1C1E"/>
<path d="M125.131 90.4076C125.131 90.4076 131.026 89.9304 139.344 95.3382C147.662 100.746 160.018 95.4973 152.75 87.147" fill="#1B1C1E"/>
<path d="M165.105 94.384C165.105 94.384 160.663 92.7139 160.744 96.5312C160.825 100.269 164.459 101.78 168.416 99.3942C172.292 96.9288 165.105 94.384 165.105 94.384Z" fill="#1B1C1E"/>
<path d="M170.677 88.8966C170.677 88.8966 168.254 92.6344 170.677 92.1572C173.099 91.6005 173.665 87.4651 170.677 88.8966Z" fill="#1B1C1E"/>
</svg>
