<svg width="176" height="162" viewBox="0 0 176 162" fill="none" xmlns="http://www.w3.org/2000/svg">
<path d="M15.5677 157.976C15.5677 157.976 9.2688 160.044 26.4696 160.68C43.6705 161.316 134.52 161.634 143.888 160.68C153.255 159.726 171.425 160.282 147.279 157.976C123.133 155.67 98.2609 157.022 73.9536 155.67C49.6463 154.238 19.2017 155.59 15.5677 157.976Z" fill="#1B1C1E"/>
<path d="M67.3315 137.378C67.3315 137.378 48.5156 128.153 50.9383 134.038L57.7217 149.307C60.7904 150.739 63.9398 151.852 67.3315 152.409V137.378Z" fill="#6E85BD"/>
<mask id="mask0_37_1395" style="mask-type:luminance" maskUnits="userSpaceOnUse" x="50" y="132" width="18" height="21">
<path d="M67.3315 137.378C67.3315 137.378 48.5156 128.153 50.9383 134.038L57.7217 149.307C60.7904 150.739 63.9398 151.852 67.3315 152.409V137.378Z" fill="white"/>
</mask>
<g mask="url(#mask0_37_1395)">
<g opacity="0.78">
<path d="M53.8455 135.469L53.9262 135.31C53.9262 135.39 53.9262 135.39 53.8455 135.469Z" fill="#030203"/>
<path d="M57.1564 140.161L57.0757 140.241C57.1564 140.161 57.1564 140.161 57.1564 140.161Z" fill="#030203"/>
<path d="M58.5292 138.173C58.5292 138.173 58.5292 138.253 58.4485 138.253C58.5292 138.253 58.5292 138.253 58.5292 138.173Z" fill="#030203"/>
<path d="M52.2307 134.117C52.2307 134.038 52.1499 134.038 52.1499 133.958C52.3114 134.038 52.3114 134.038 52.2307 134.117Z" fill="#030203"/>
<path d="M61.5173 140.002C61.1942 140.559 61.6788 140.082 61.3558 140.638C61.3558 140.479 61.275 140.32 61.1135 140.638C61.0327 140.957 61.3558 140.718 61.1135 141.195V140.957C60.8712 141.116 60.7905 141.593 60.7905 141.513C61.0327 140.797 60.2252 141.513 60.1444 141.354V141.434L59.7407 141.593C59.7407 141.593 59.7407 141.513 59.8214 141.513C59.5792 141.752 59.2561 141.911 59.1754 141.752C59.3369 141.354 58.6908 141.354 58.8524 140.957C58.8524 141.116 58.9331 141.116 59.0946 141.116L59.3369 140.718C59.1754 140.638 59.0946 141.116 59.0946 140.797C59.4984 140.241 59.3369 140.957 59.4176 140.957C59.4984 140.798 59.4984 140.638 59.4176 140.559C59.6599 140.638 59.9829 140.559 59.7407 141.275C59.9022 141.195 59.9829 140.957 59.9829 140.877C59.9829 141.275 60.306 140.638 60.2252 140.957C60.4675 140.4 60.0637 140.479 60.1444 140.161C59.7407 140.479 59.6599 139.923 59.4984 139.684C59.2561 140.082 59.1754 140.479 58.9331 140.638C58.5293 140.797 58.8524 140.32 58.8524 140.002C58.6101 140.082 58.4486 140.638 58.2063 140.479V140.797C57.7218 141.275 58.2063 140.479 58.0448 140.559C58.2063 140.479 58.2871 140.32 58.3678 140.4C58.5293 140.241 58.4486 140.082 58.4486 140.002C58.5293 139.684 58.7716 139.446 58.5293 139.446C58.4486 139.843 58.2871 139.605 58.1256 139.764V139.843C58.0448 139.684 57.964 139.605 57.8833 139.525L57.8025 139.605C57.8025 139.446 58.0448 139.048 57.8833 139.048C57.8025 139.207 57.641 139.764 57.5603 139.605C57.3988 139.843 57.5603 140.002 57.7218 139.923C57.5603 139.923 57.2373 140.241 57.318 140.4C57.0757 140.638 57.2373 140.161 57.0757 140.241C57.1565 140.161 57.1565 140.002 57.2372 139.923C56.995 140.32 56.9142 139.764 57.1565 139.446V139.764C57.3988 139.446 57.318 139.127 57.5603 138.968C57.1565 139.446 57.3988 138.491 56.995 138.809L57.2372 138.571C56.8335 138.491 56.995 137.775 56.8335 137.457C56.8335 137.696 56.4297 138.253 56.7527 138.173C56.4297 138.094 56.2682 138.65 56.0259 138.889C55.7029 138.968 56.2682 138.332 56.3489 138.094L56.4297 138.332C56.672 137.537 55.7837 138.094 55.7837 137.457C55.6222 137.616 55.7837 137.616 55.7837 137.696C55.3799 137.935 55.7029 137.537 55.7029 137.378C55.5414 137.298 55.2991 137.378 55.0569 137.775C54.8146 137.775 55.2184 137.537 55.2991 137.378L55.2184 137.457L55.3799 136.901C55.1376 136.901 54.8146 137.06 54.4916 137.378C54.2493 137.06 55.0569 136.424 54.9761 136.105C54.7339 136.185 54.7338 136.424 54.6531 136.583L54.4916 136.424C54.2493 136.901 54.5723 136.821 54.1686 137.298C54.4108 136.662 54.0878 136.98 54.0878 136.503H54.1686C54.3301 136.105 53.9263 136.185 53.8455 136.026C53.7648 136.264 53.8455 136.424 53.8455 136.583C53.6033 136.662 53.361 136.185 53.6033 135.708C53.4418 135.708 53.1187 135.787 53.1187 136.026C52.7957 135.867 53.5225 135.31 53.1995 135.231L52.9572 135.549C52.3112 135.867 52.7957 134.674 52.1497 134.913L52.4727 134.515C52.3112 134.674 52.0689 134.674 51.9882 134.753V134.992C51.5844 135.231 52.1497 134.594 51.8267 134.674C51.9074 134.515 52.2304 134.356 52.3919 134.197C52.715 134.833 53.7648 134.674 53.9263 135.549C53.8455 135.549 53.7648 135.628 53.7648 135.708C53.9263 135.628 53.9263 135.867 54.0878 135.628V135.549C54.1686 135.787 54.6531 135.31 54.7338 135.39C54.5723 135.708 55.1376 135.469 54.6531 135.946L54.9761 135.708C54.8954 135.946 54.6531 136.105 54.6531 136.264C54.8146 136.264 54.8954 136.105 54.9761 135.946C55.4606 136.026 55.8644 136.424 56.1874 136.821L56.2682 136.503C56.4297 136.424 56.2682 137.139 56.672 136.503C56.672 136.901 57.318 136.662 56.8335 137.298C57.3988 136.821 57.4795 137.378 57.7218 137.616C57.318 138.094 57.8025 137.935 57.7218 138.253C58.0448 137.855 57.8025 137.696 57.9641 137.378C57.8025 138.253 59.0139 137.378 58.4486 138.571C58.5293 138.571 58.5293 138.491 58.5293 138.491C58.6101 138.491 58.7716 138.412 58.8524 138.412C58.7716 138.65 58.6101 138.65 58.6908 138.809C58.8524 138.809 58.9331 138.491 59.0946 138.412C59.0946 138.809 59.3369 139.048 59.0946 139.525C59.2561 139.446 59.4176 139.207 59.4176 139.127C59.4984 139.684 59.7407 139.207 59.9022 139.684C59.8214 139.605 60.1444 139.207 59.9022 139.286C60.3867 138.73 60.3059 139.684 60.7905 139.525L60.629 140.002C60.7097 140.161 60.952 139.764 60.952 139.605C61.3558 139.525 61.3558 139.843 61.5173 139.923C61.5173 139.843 61.598 139.764 61.5173 139.764L61.8403 139.923C61.8403 140.002 61.8403 140.32 61.6788 140.559C61.7595 140.082 61.7595 139.923 61.5173 140.002Z" fill="#030203"/>
<path d="M61.6787 140.321C61.598 140.4 61.598 140.4 61.6787 140.321Z" fill="#030203"/>
<path d="M57.8833 140.559C57.9641 140.48 58.0448 140.48 58.0448 140.4C57.9641 140.48 57.9641 140.48 57.8833 140.559Z" fill="#030203"/>
<path d="M64.1822 142.309C63.94 143.024 64.0207 142.15 63.8592 142.309C63.94 142.468 63.8592 142.865 63.7784 143.024C63.8592 142.07 63.5362 143.183 63.2132 142.865C63.1324 143.183 63.2132 143.263 63.1324 143.581C63.0516 143.263 62.8094 143.104 62.8901 142.547C62.5671 142.468 62.3249 142.547 62.1633 142.388C62.3249 142.706 62.0018 142.865 62.0018 143.343C62.0018 142.706 61.8403 141.831 61.9211 141.036C61.5981 141.513 61.5981 141.593 61.3558 142.07C60.8713 142.229 61.5173 141.513 61.1135 141.513H61.275C61.1943 141.275 61.4366 140.798 61.5981 140.48L61.9211 140.718C62.0826 140.4 61.8403 140.32 61.8403 140.161C61.9211 139.684 62.1633 140.002 62.3249 139.605C62.2441 139.923 62.4056 139.923 62.4056 140.082L62.4864 139.923C62.7286 139.764 62.5671 140.32 62.7286 140.4C62.7286 140.32 62.8094 140.32 62.8094 140.241C62.7286 140.48 62.6479 140.798 62.7286 140.877L62.6479 140.798C62.5671 141.275 62.7286 141.752 62.3249 142.15C62.4864 142.15 62.6479 142.15 62.8094 142.15C62.9709 141.593 63.2132 140.798 63.0517 140.718L63.1324 140.48C63.3747 140.241 63.3747 141.036 63.1324 141.434C62.8094 142.706 63.6977 141.672 63.7784 142.309C63.8592 141.991 63.7784 141.831 63.7784 141.513C63.6977 141.434 63.6977 141.434 63.5362 141.672C63.2939 141.354 63.94 140.639 63.5362 140.639C63.2939 140.718 63.5362 141.275 63.2939 141.195C63.3747 140.877 63.3747 140.559 63.4554 140.241C63.6169 140.32 63.6977 140.559 63.7784 140.718C64.0207 141.195 64.3437 141.275 64.586 141.275C64.8283 141.275 64.9898 141.116 64.9898 141.116C65.9588 141.354 66.8471 141.354 67.5739 140.957C67.897 140.877 67.897 140.798 68.7045 141.354C68.7853 141.513 68.543 141.672 68.866 141.831C68.543 141.593 68.3007 141.593 68.22 141.752C68.4622 142.07 68.4622 141.752 68.4622 141.831V141.911C68.6238 142.07 68.7045 142.07 68.7853 142.07C69.0275 142.627 68.3815 142.945 67.897 142.388C67.897 142.786 68.3007 142.786 68.543 142.945C67.9777 143.661 67.3317 143.82 66.5241 143.979C66.4434 143.342 66.3626 143.581 66.2011 143.183V143.422C66.2011 143.342 66.0396 142.865 66.2011 142.706C65.8781 143.263 65.7166 141.911 65.4743 141.593V141.911C65.3128 141.831 65.232 141.831 65.0705 141.672C64.6668 142.229 65.3128 141.831 65.1513 142.547L65.0705 142.388C65.0705 142.706 65.1513 143.263 65.232 143.502C64.909 142.945 64.6667 143.661 64.3437 143.183C64.3437 143.581 64.6667 143.899 64.7475 143.979C64.586 143.979 64.3437 143.661 64.3437 144.058L64.4245 143.581C64.1822 143.502 64.3437 143.979 64.263 144.297C63.7785 143.979 64.586 142.627 64.1822 142.309Z" fill="#030203"/>
<path d="M59.2561 140.321C59.3369 140.321 59.3369 140.4 59.4176 140.4C59.3369 140.4 59.2561 140.321 59.2561 140.321Z" fill="#030203"/>
<path d="M59.7407 141.593C59.7407 141.673 59.6599 141.673 59.6599 141.752C59.6599 141.673 59.6599 141.673 59.7407 141.593Z" fill="#030203"/>
<path d="M59.4985 142.149C59.66 141.99 59.5793 141.911 59.66 141.672C59.66 141.911 59.8216 141.99 59.4985 142.149Z" fill="#030203"/>
<path d="M51.1806 133.561C51.7459 133.163 51.2613 134.117 51.5843 134.038C51.5843 133.958 51.6651 133.958 51.6651 133.879L51.7459 134.038L51.8266 133.958C51.5843 134.276 51.6651 134.515 51.5036 134.833C51.0998 135.072 51.7459 134.356 51.3421 134.594C51.2613 134.753 51.0998 134.992 51.0191 135.151C51.0191 134.913 51.1806 134.753 51.2613 134.515C51.1806 134.435 51.0998 134.594 50.9383 134.674C50.9383 134.435 51.3421 133.958 51.0998 133.879C50.7768 134.038 50.8576 134.356 50.696 134.117C51.1806 133.72 50.4538 134.038 50.6153 133.64C50.373 133.64 50.05 133.879 49.9692 134.038C50.2923 133.64 50.4538 133.242 50.373 133.004V133.481L50.8575 133.083C50.8575 133.561 50.9383 133.561 51.1806 133.561Z" fill="#030203"/>
<path d="M50.9384 135.549C50.8576 135.549 51.0191 135.39 51.0191 135.39L50.9384 135.628V135.549Z" fill="#030203"/>
<path d="M51.2615 135.39L51.5845 135.151L51.5037 135.39H51.2615Z" fill="#030203"/>
<path d="M54.8955 137.696C54.6532 137.776 54.8955 137.458 55.057 137.219C55.2185 137.299 54.8147 137.458 54.8955 137.696Z" fill="#030203"/>
<path d="M56.7527 139.605C56.5104 139.764 56.5912 139.366 56.4297 139.287C56.672 139.207 56.7527 139.366 56.7527 139.605Z" fill="#030203"/>
<path d="M56.9951 141.354C56.9951 141.195 56.9951 141.116 57.1566 141.116L57.3989 140.48C57.6412 140.4 57.1566 141.116 56.9951 141.354Z" fill="#030203"/>
<path d="M58.0449 142.149L57.9641 141.831L58.0449 141.911C58.1256 141.672 58.2064 141.513 58.2064 141.275C58.3679 141.434 58.3679 141.752 58.0449 142.149Z" fill="#030203"/>
<path d="M58.2065 141.036C58.2065 141.116 58.1258 141.195 58.2065 141.036Z" fill="#030203"/>
<path d="M58.2871 141.116C58.3679 141.036 58.2871 141.036 58.2871 141.116Z" fill="#030203"/>
<path d="M58.3679 141.911L58.6909 142.15L58.5294 142.229C58.6909 141.832 58.2064 142.388 58.3679 141.911Z" fill="#030203"/>
<path d="M60.3059 142.547L60.5482 142.229C60.7904 142.229 60.6289 143.183 61.1135 142.627C60.8712 142.786 61.0327 143.104 60.7904 143.104C60.7904 142.786 60.4674 142.547 60.3059 142.547Z" fill="#030203"/>
<path d="M61.3558 142.468C61.3558 142.309 61.4365 142.309 61.5173 142.229C61.598 142.229 61.598 142.468 61.5173 142.547C61.6788 141.99 61.275 142.786 61.3558 142.468Z" fill="#030203"/>
<path d="M62.3249 142.945C62.2441 142.945 62.1634 142.865 62.3249 142.786C62.4864 142.865 62.2441 143.343 62.2441 143.581C62.0019 143.74 62.1634 143.104 62.3249 142.945Z" fill="#030203"/>
<path d="M64.6668 140.4C64.5861 140.718 64.4246 140.639 64.4246 140.559C64.5053 140.639 64.5861 140.559 64.6668 140.4Z" fill="#030203"/>
<path d="M64.0207 143.342L63.9399 143.422L64.0207 142.865V143.342Z" fill="#030203"/>
<path d="M65.3937 143.82L65.5552 144.217L65.2322 144.138L65.3937 143.82Z" fill="#030203"/>
<path d="M65.636 143.74H65.8783L65.7975 143.899C65.636 144.058 65.7167 143.74 65.636 143.74Z" fill="#030203"/>
<path d="M66.3626 143.819C66.3626 143.819 66.2818 143.819 66.2818 143.899L66.0396 143.66L66.3626 143.819Z" fill="#030203"/>
</g>
</g>
<path d="M57.7218 149.307C57.7218 149.387 27.8425 151.773 21.7051 153.92C15.5677 156.067 67.3317 153.92 67.3317 153.92V152.329C63.94 151.773 60.7905 150.739 57.7218 149.307Z" fill="#86889A"/>
<path d="M51.6652 17.293C52.069 34.4708 30.8304 46.3203 20.8975 48.0699C19.8477 48.2289 18.9594 48.3085 18.2326 48.3085C10.3186 47.9108 6.84615 42.3439 6.84615 42.3439C5.79633 33.6755 6.20011 26.5181 6.20011 26.5181C6.20011 15.6229 7.65371 8.14739 11.3684 4.25057C17.1021 -1.79347 26.7119 -0.282466 33.1723 2.02381C41.2478 4.80725 47.2237 10.6127 51.6652 17.293Z" fill="#0B060A"/>
<path d="M61.8404 40.7532C61.8404 40.7532 61.7596 56.9766 44.9625 60.0782C28.1655 63.1797 20.9783 48.0696 20.9783 48.0696C30.8304 46.32 52.069 34.5501 51.746 17.2927C55.2184 22.462 57.6411 28.1879 59.4177 33.4367C59.7407 34.5501 60.4675 37.0949 61.8404 40.7532Z" fill="#736E72"/>
<path d="M139.123 136.424C111.343 144.615 60.4676 131.414 38.5829 107.954C32.284 109.146 25.8236 108.59 19.2825 106.602C20.6553 108.749 22.1089 110.816 23.8048 112.805C40.4403 131.971 72.7424 147.717 107.144 153.761C124.506 156.783 137.346 153.841 144.857 154.238C164.884 155.272 174.09 157.101 175.624 155.352C176.997 153.761 160.523 150.023 139.123 136.424Z" fill="#6E85BD"/>
<path d="M38.583 107.953C36.7256 105.965 35.1105 103.898 33.6569 101.75C28.2463 93.4795 27.358 86.4811 28.4886 80.9938C29.9422 73.2797 36.4026 67.4742 44.2358 66.1223C51.4231 64.8498 62.325 60.2373 65.4744 49.5807C63.9401 46.161 62.7288 43.139 61.8405 40.7532C61.8405 40.7532 61.7597 56.9767 44.9626 60.0782C28.1656 63.1798 20.9784 48.0696 20.9784 48.0696C19.9286 48.2287 19.0403 48.3082 18.3135 48.3082C10.3995 47.9106 6.927 42.3437 6.927 42.3437C7.00776 43.2185 7.16926 44.1728 7.25002 45.1272C8.5421 54.0342 6.11945 85.2087 19.3633 106.681C25.8237 108.59 32.2841 109.146 38.583 107.953Z" fill="#9E9AA0"/>
<path d="M139.123 136.424C119.257 142.309 87.5205 137.219 63.0518 125.211C64.5053 125.847 97.9379 140.162 126.768 127.835C131.048 131.096 135.166 133.959 139.123 136.424Z" fill="#18172A"/>
<path d="M126.848 127.835C97.9379 140.162 64.5861 125.847 63.1325 125.211H63.0517C50.4539 119.008 39.7943 111.055 33.7376 101.75C28.327 93.4796 27.4387 86.4813 28.5693 80.9939C30.0229 73.2798 36.4833 67.4744 44.3165 66.1224C51.5037 64.85 62.4057 60.2374 65.5551 49.5808C71.4503 62.6232 82.5944 82.5049 103.672 106.283C111.263 114.872 119.177 122.03 126.848 127.835Z" fill="#3B4D84"/>
<path d="M4.50439 26.1205C4.50439 26.1205 5.95798 26.6772 7.41157 28.1087C8.86516 29.5401 12.0146 23.7347 14.9218 20.2355C17.829 16.7363 19.2826 13.3167 19.3633 12.6804C19.4441 12.1238 4.58515 22.7804 4.50439 26.1205Z" fill="#FFA3AC"/>
<path d="M40.6018 15.5434C41.0864 15.1458 41.3286 14.5096 41.0864 13.9529C40.7633 13.0781 40.1173 11.5671 38.9867 9.97655C36.8063 7.03406 31.961 5.52305 30.1037 6.79548C26.9542 8.86317 27.358 14.0324 29.6999 16.5773C31.7188 18.804 37.6139 17.6907 40.6018 15.5434Z" fill="#E7E6E8"/>
<path d="M36.3493 15.0833C37.7997 13.9866 37.9406 11.7702 36.6641 10.1328C35.3875 8.49537 33.1768 8.05703 31.7263 9.1537C30.2759 10.2504 30.135 12.4668 31.4115 14.1042C32.6881 15.7416 34.8988 16.18 36.3493 15.0833Z" fill="#0B080B"/>
<path d="M12.2568 2.58032C12.2568 2.58032 4.90811 3.29606 1.35489 12.5212C-1.63305 20.2353 1.11263 26.7565 2.08169 28.6651C2.2432 28.9037 2.56621 28.9037 2.72772 28.6651C3.45452 27.3927 5.4734 24.3707 8.78435 21.9849C13.0644 18.8833 19.0403 15.5432 19.444 12.2031C19.8478 8.78342 16.6984 3.21654 12.2568 2.58032Z" fill="#FFA3AC"/>
<path d="M61.2751 150.342V150.421C61.2751 150.421 45.5278 152.648 33.0108 152.648C20.5745 152.648 17.7481 155.034 17.1021 158.135C17.1021 158.135 35.8372 158.135 50.2924 158.135C64.7476 158.135 63.6977 158.135 67.4125 158.135C71.1272 158.135 73.3076 154.795 73.6306 154.318C73.7114 154.238 73.9536 153.602 74.2767 152.807L61.2751 150.342Z" fill="#86889A"/>
<path d="M37.5331 152.568C36.8871 153.761 34.5452 156.704 28.8923 155.749C23.2395 154.795 18.8787 157.181 17.3444 158.135C17.2636 158.135 17.1829 158.135 17.1829 158.135C17.8289 155.033 20.5746 152.648 33.0916 152.648C34.4644 152.727 35.9988 152.648 37.5331 152.568Z" fill="#18172A"/>
<path d="M67.4934 158.215C67.4934 158.215 69.5123 158.215 72.258 158.215C75.0036 158.215 78.2338 153.602 78.2338 153.602L74.0346 152.807L67.4934 158.215Z" fill="#86889A"/>
<path d="M79.2028 141.514L56.9951 130.698L61.2751 150.341C61.2751 150.341 63.4555 152.091 67.3318 152.727C70.3197 153.284 74.3575 152.807 74.3575 152.807C74.9227 151.296 76.1341 148.353 77.2646 145.729C77.5877 144.854 77.9914 144.059 78.3145 143.343C78.6375 142.548 78.9605 141.912 79.2028 141.514Z" fill="#6E85BD"/>
<path d="M56.9143 130.698L61.1943 150.341C61.1943 150.341 63.3747 152.091 67.251 152.727" stroke="#1B1C1E" stroke-width="1.2005" stroke-miterlimit="10" stroke-linecap="round" stroke-linejoin="round"/>
<path d="M58.5294 137.935L56.9143 130.698" stroke="#1B1C1E" stroke-width="1.2005" stroke-miterlimit="10" stroke-linecap="round" stroke-linejoin="round"/>
<mask id="mask1_37_1395" style="mask-type:luminance" maskUnits="userSpaceOnUse" x="4" y="12" width="16" height="17">
<path d="M4.50439 26.1205C4.50439 26.1205 5.95798 26.6772 7.41157 28.1087C8.86516 29.5401 12.0146 23.7347 14.9218 20.2355C17.829 16.7363 19.2826 13.3167 19.3633 12.6804C19.4441 12.1238 4.58515 22.7804 4.50439 26.1205Z" fill="white"/>
</mask>
<g mask="url(#mask1_37_1395)">
<g opacity="0.78">
<path d="M11.2878 18.0889C11.3686 18.0889 11.3686 18.1684 11.4493 18.1684C11.3686 18.1684 11.3686 18.1684 11.2878 18.0889Z" fill="#030203"/>
<path d="M7.16932 21.5878L7.00781 21.5083C7.16932 21.5083 7.16932 21.5083 7.16932 21.5878Z" fill="#030203"/>
<path d="M12.3376 18.7249C12.4184 18.7249 12.4992 18.7249 12.5799 18.8044L12.3376 18.7249Z" fill="#030203"/>
<path d="M15.4871 15.0667H15.5678C15.5678 15.1462 15.5678 15.0667 15.4871 15.0667Z" fill="#030203"/>
<path d="M18.6365 15.7031L18.7172 15.8622C18.6365 15.7827 18.6365 15.7827 18.6365 15.7031Z" fill="#030203"/>
<path d="M14.8411 14.9077C14.8411 14.9077 14.9218 14.9872 15.0026 14.9872C14.9218 14.9872 14.8411 14.9872 14.8411 14.9077Z" fill="#030203"/>
<path d="M5.6349 22.8603C5.55414 22.8603 5.55414 22.9399 5.47339 22.9399C5.55414 22.7808 5.6349 22.7808 5.6349 22.8603Z" fill="#030203"/>
<path d="M14.1142 16.1008C14.3564 16.5779 14.2757 16.0212 14.518 16.4189C14.3564 16.4189 14.2757 16.3393 14.3564 16.5779C14.5987 16.737 14.518 16.4189 14.7602 16.737L14.518 16.6575C14.518 16.896 14.841 17.0551 14.7602 17.1346C14.3564 16.737 14.518 17.5322 14.3564 17.5322H14.4372V17.8504L14.3564 17.7708C14.4372 18.0889 14.4372 18.3275 14.2757 18.3275C14.0334 18.0889 13.7912 18.5661 13.5489 18.407C13.6297 18.407 13.7104 18.407 13.7104 18.248L13.4681 17.9299C13.3066 18.0094 13.6297 18.248 13.3874 18.1685C13.0644 17.6913 13.5489 18.0094 13.6296 17.9299C13.5489 17.8504 13.3874 17.7708 13.3066 17.7708C13.4681 17.6118 13.5489 17.3732 14.0334 17.6913C14.0334 17.5322 13.8719 17.3732 13.7912 17.3732C14.1142 17.5322 13.7104 17.0551 14.0334 17.2141C13.7104 16.8165 13.6296 17.2141 13.3066 17.0551C13.3874 17.5322 12.9029 17.3732 12.6606 17.4527C12.9029 17.7708 13.1451 17.9299 13.2259 18.1685C13.1451 18.4866 12.9029 18.1685 12.6606 18.0889C12.5798 18.3275 12.9836 18.5661 12.8221 18.7251L13.0644 18.8047C13.2259 19.2818 12.8221 18.7251 12.8221 18.8842C12.7413 18.7251 12.6606 18.6456 12.8221 18.5661C12.7413 18.407 12.5798 18.407 12.5798 18.407C12.4183 18.248 12.1761 18.0094 12.1761 18.248C12.4183 18.407 12.1761 18.4866 12.2568 18.6456H12.3376C12.1761 18.6456 12.0953 18.7251 12.0145 18.7251L12.0953 18.8047C11.9338 18.7251 11.6915 18.4866 11.6108 18.6456C11.6915 18.7252 12.0953 18.9637 11.9338 19.0433C12.0953 19.2023 12.2568 19.1228 12.2568 18.9637C12.1761 19.1228 12.3376 19.4409 12.4991 19.3614C12.6606 19.5999 12.3376 19.3614 12.3376 19.5204C12.3376 19.4409 12.1761 19.3614 12.1761 19.2818C12.4183 19.5999 11.9338 19.5204 11.7723 19.2818L12.0145 19.3614C11.853 19.1228 11.53 19.0433 11.53 18.8842C11.7723 19.3614 11.0455 18.9637 11.207 19.3614L11.1262 19.1228C10.9647 19.4409 10.3994 19.1228 9.99567 19.2818C10.1572 19.3614 10.4802 19.759 10.561 19.5204C10.3995 19.759 10.8032 19.9976 10.884 20.3157C10.8032 20.6338 10.4802 19.9976 10.3187 19.9181H10.4802C9.91492 19.5204 10.0764 20.3952 9.51114 20.3157C9.5919 20.4747 9.5919 20.3157 9.67265 20.3952C9.75341 20.7133 9.51115 20.3952 9.34964 20.3952C9.26888 20.5543 9.18812 20.7928 9.51114 21.0314C9.43039 21.1905 9.34963 20.7928 9.18812 20.7928V20.8724L8.78434 20.6338C8.70358 20.7928 8.70359 21.111 8.94586 21.4291C8.62284 21.5881 8.29981 20.7928 7.97679 20.8724C7.97679 21.111 8.21906 21.111 8.29982 21.1905L8.05755 21.27C8.38057 21.5881 8.38057 21.27 8.70359 21.6676C8.21906 21.3495 8.38056 21.7472 7.97679 21.5881V21.5086C7.65377 21.27 7.57302 21.6676 7.41151 21.6676C7.57302 21.8267 7.73453 21.7472 7.89604 21.6676C7.89604 21.9062 7.41151 22.0653 7.00773 21.7472C7.00773 21.8267 6.92697 22.1448 7.16924 22.2243C6.92697 22.4629 6.60396 21.8267 6.52321 22.0653L6.76546 22.3039C6.84622 22.8605 5.95792 22.3834 6.03867 22.9401L5.71566 22.622C5.79641 22.781 5.71565 22.9401 5.7964 23.0991H6.03867C6.20018 23.4172 5.71566 22.9401 5.71566 23.2582C5.6349 23.1787 5.55414 22.8605 5.47339 22.781C6.11943 22.5424 6.28093 21.6676 7.00773 21.5881C7.00773 21.6676 7.00774 21.6676 7.08849 21.7472C7.08849 21.5881 7.25 21.5881 7.08849 21.4291C7.25 21.4291 7.08848 20.8724 7.16924 20.8724C7.4115 21.0314 7.41151 20.5543 7.65377 20.9519L7.57301 20.6338C7.73452 20.7133 7.81528 20.9519 7.97679 20.9519C8.05754 20.8724 7.89604 20.7133 7.73453 20.6338C7.9768 20.1566 8.46133 19.9181 8.94586 19.759L8.70359 19.6795C8.70359 19.5204 9.26888 19.759 8.8651 19.3614C9.18812 19.4409 9.26888 18.8842 9.67265 19.3614C9.43039 18.8047 9.99567 18.8047 10.2379 18.7251C10.4802 19.2023 10.561 18.7251 10.7225 18.8047C10.4802 18.4866 10.2379 18.6456 10.0764 18.407C10.7225 18.7251 10.561 17.5322 11.2878 18.248C11.2878 18.1685 11.2877 18.1685 11.207 18.1685C11.2877 18.1685 11.207 17.9299 11.207 17.8504C11.3685 18.0094 11.2877 18.0889 11.4493 18.0889C11.53 18.0094 11.2878 17.7708 11.2878 17.6913C11.6108 17.7708 11.9338 17.6118 12.2568 17.9299C12.2568 17.7708 12.1761 17.5322 12.0953 17.5322C12.5798 17.6118 12.3376 17.2937 12.7413 17.2141C12.6606 17.2937 12.4183 16.896 12.4183 17.1346C12.1761 16.5779 12.9836 16.896 12.9836 16.4984L13.3066 16.737C13.4681 16.6575 13.3066 16.4189 13.1451 16.3393C13.2259 15.9417 13.5489 16.1008 13.7104 15.9417C13.7104 15.8622 13.6296 15.8622 13.6296 15.8622L13.8719 15.7031C13.9527 15.7827 14.1949 15.8622 14.2757 16.1008C14.2757 15.9417 14.1949 15.8622 14.1142 16.1008Z" fill="#030203"/>
<path d="M17.506 14.987C17.7482 15.4641 17.2637 14.987 17.2637 15.2255C17.4252 15.2255 17.5867 15.5437 17.6675 15.7027C17.1022 15.146 17.5867 15.9413 17.183 15.9413C17.3445 16.1799 17.4252 16.1003 17.5867 16.3389C17.3445 16.2594 17.1022 16.3389 16.7792 16.0208C16.5369 16.1799 16.4562 16.4185 16.2139 16.4185C16.4562 16.4185 16.4562 16.7366 16.7792 16.9751C16.3754 16.657 15.5679 16.4185 15.0026 16.1003C15.2448 16.498 15.2448 16.5775 15.4871 16.8956C15.3256 17.3728 15.1641 16.5775 14.9218 16.8956L15.0026 16.7366C14.7603 16.7366 14.518 16.3389 14.3565 16.1003L14.7603 15.9413C14.5988 15.7027 14.4373 15.8618 14.2758 15.8618C13.9527 15.6232 14.2758 15.5437 14.1143 15.3051C14.2758 15.4641 14.3565 15.3051 14.518 15.3846L14.4373 15.2255C14.518 14.987 14.8411 15.3051 14.9218 15.146C14.9218 15.0665 14.9218 15.0665 14.841 15.0665C15.0026 15.2256 15.1641 15.3846 15.3256 15.3846H15.2448C15.5678 15.6232 16.0524 15.7027 16.0524 16.1799L16.2946 15.8618C16.0524 15.5437 15.5678 14.987 15.3256 15.0665L15.1641 14.9074C15.1641 14.5893 15.8101 14.9074 15.8909 15.3051C16.6177 16.1003 16.4562 14.987 16.9407 15.2255C16.7792 14.987 16.6177 14.987 16.4562 14.8279C16.3754 14.8279 16.2946 14.9074 16.4562 15.0665C16.0524 15.146 16.0524 14.2712 15.7294 14.5893C15.6486 14.8279 16.2139 14.8279 15.9716 15.0665L15.3256 14.5098C15.4871 14.4303 15.7294 14.4303 15.8909 14.4303C16.9407 14.4303 17.183 13.7145 17.183 13.7145C18.3135 13.1578 19.5249 12.6012 20.6554 12.0445C21.0592 11.9649 21.2207 11.8854 21.7052 12.5216C21.7052 12.6807 21.463 12.7602 21.6245 12.9193C21.463 12.6807 21.2207 12.6012 21.0592 12.7602C21.14 12.9988 21.3015 12.7602 21.3015 12.9193C21.3822 13.0783 21.463 13.0783 21.5437 13.0783C21.5437 13.5555 21.1399 13.7145 20.7362 13.3169C20.7362 13.635 21.0592 13.635 21.2207 13.7941C20.7362 14.2712 20.3324 14.4303 19.7671 14.8279C19.5248 14.4303 19.5248 14.5893 19.2826 14.3508L19.3633 14.5098C19.3633 14.4303 19.1211 14.1917 19.1211 14.0326C18.9596 14.5893 18.3943 13.635 18.0713 13.635L18.2328 13.8736C17.9905 13.9531 17.9905 13.9531 17.7482 13.9531C17.6675 14.5893 18.0713 13.8736 18.3135 14.5098L18.152 14.4303C18.3135 14.5893 18.6365 14.987 18.7981 15.0665C18.3135 14.9074 18.475 15.4641 17.9905 15.3846C18.152 15.6232 18.5558 15.6232 18.6365 15.6232C18.5558 15.7027 18.2328 15.6232 18.3943 15.8618L18.152 15.5437C17.9097 15.6232 18.3943 15.8618 18.3943 16.0208C18.2328 16.1799 17.9905 14.987 17.506 14.987Z" fill="#030203"/>
<path d="M13.2258 18.0092C13.2258 17.9297 13.3066 17.9297 13.3874 17.9297C13.3874 17.9297 13.3066 18.0092 13.2258 18.0092Z" fill="#030203"/>
<path d="M14.5181 18.0093C14.5181 18.0888 14.5988 18.0888 14.5988 18.0888C14.5181 18.0888 14.5181 18.0093 14.5181 18.0093Z" fill="#030203"/>
<path d="M14.8411 18.3275C14.7603 18.1684 14.6796 18.1684 14.5181 18.0889C14.6796 18.1684 14.8411 18.0889 14.8411 18.3275Z" fill="#030203"/>
<path d="M4.66606 24.6101L4.5853 25.0078C4.82757 25.4054 4.82757 25.0078 4.98908 25.0873C4.82757 25.3259 4.82758 25.1668 4.50455 25.0873C4.4238 25.1668 4.18153 25.0873 4.02002 25.0078C4.58531 25.0078 3.85851 24.2125 4.66606 24.6101Z" fill="#030203"/>
<path d="M4.9082 23.7352C4.66593 23.1785 5.39272 23.7352 5.39272 23.417C5.39272 23.417 5.31197 23.3375 5.23122 23.3375L5.39272 23.258L5.31198 23.1785C5.47349 23.417 5.71574 23.417 5.95801 23.4966C6.03876 23.8942 5.635 23.258 5.71575 23.6556C5.87726 23.7352 6.03877 23.8942 6.11953 23.9737C5.95802 23.8942 5.7965 23.8147 5.63499 23.7352C5.55424 23.8147 5.635 23.8942 5.71575 23.9737C5.47349 23.8942 5.15046 23.5761 5.06971 23.8147C5.15046 24.1328 5.39272 24.0533 5.15046 24.1328C4.90819 23.6556 4.98894 24.3714 4.74668 24.1328C4.66592 24.2918 4.82744 24.61 4.98895 24.769C4.74668 24.4509 4.42366 24.2918 4.1814 24.3714L4.58517 24.4509L4.3429 24.0533C4.74668 23.9737 4.82744 23.8942 4.9082 23.7352Z" fill="#030203"/>
<path d="M6.2002 23.8943H6.28096C6.28096 23.9738 6.28095 23.9738 6.2002 23.8943Z" fill="#030203"/>
<path d="M5.15039 24.8486H5.23115L5.31191 25.0077L5.15039 24.8486Z" fill="#030203"/>
<path d="M6.52329 24.0534C6.52329 24.0534 6.36178 23.9739 6.44253 23.9739L6.52329 24.0534Z" fill="#030203"/>
<path d="M6.52334 23.7352L6.36182 23.4966L6.60408 23.5761L6.52334 23.7352Z" fill="#030203"/>
<path d="M9.43044 21.0313C9.43044 21.2698 9.26893 20.9517 9.10742 20.7927C9.18818 20.6336 9.26893 21.0313 9.43044 21.0313Z" fill="#030203"/>
<path d="M11.6916 19.8383C11.6916 20.0769 11.3686 19.9179 11.2878 19.9974C11.3686 19.7588 11.5301 19.7588 11.6916 19.8383Z" fill="#030203"/>
<path d="M13.2257 20.0768C13.145 19.9973 13.0642 19.9973 13.145 19.9177L12.7412 19.5201C12.7412 19.2815 13.0642 19.8382 13.2257 20.0768Z" fill="#030203"/>
<path d="M14.2757 19.441L13.9527 19.3615L14.0334 19.282C13.8719 19.1229 13.7911 19.0434 13.6296 18.9639C13.7911 19.0434 14.0334 19.1229 14.2757 19.441Z" fill="#030203"/>
<path d="M13.3875 19.0433C13.4682 18.9638 13.4682 18.9638 13.3875 19.0433C13.549 19.1228 13.4682 19.0433 13.3875 19.0433Z" fill="#030203"/>
<path d="M13.5488 18.9638C13.4681 18.9638 13.4681 18.8843 13.5488 18.9638Z" fill="#030203"/>
<path d="M14.1948 19.1229L14.5178 18.9639L14.4371 19.1229C14.2756 18.8843 14.4371 19.441 14.1948 19.1229Z" fill="#030203"/>
<path d="M15.4872 17.93L15.3257 17.6119C15.4872 17.4528 16.1332 17.93 15.891 17.3733C15.891 17.6119 16.214 17.6119 16.0525 17.8505C15.891 17.6119 15.5679 17.7709 15.4872 17.93Z" fill="#030203"/>
<path d="M15.8908 17.0552C15.8101 16.9757 15.8101 16.8961 15.8101 16.8166C15.8908 16.7371 15.9716 16.8166 16.0523 16.9757C15.7293 16.6575 16.1331 17.2142 15.8908 17.0552Z" fill="#030203"/>
<path d="M16.779 16.5777C16.6982 16.5777 16.6175 16.6572 16.6982 16.4981C16.8598 16.4186 17.0213 16.7367 17.2635 16.8958C17.1828 17.1344 16.779 16.7367 16.779 16.5777Z" fill="#030203"/>
<path d="M16.6984 13.6353C16.8599 13.8738 16.6984 13.9534 16.6177 13.8738C16.6984 13.8738 16.6984 13.7943 16.6984 13.6353Z" fill="#030203"/>
<path d="M18.0713 15.7031L17.9906 15.7826L17.7483 15.385L18.0713 15.7031Z" fill="#030203"/>
<path d="M19.1211 15.3054L19.3634 15.4645L19.2019 15.544L19.1211 15.3054Z" fill="#030203"/>
<path d="M19.2825 15.1462L19.444 15.0667V15.2257C19.444 15.3052 19.3632 15.1462 19.2825 15.1462Z" fill="#030203"/>
</g>
</g>
<mask id="mask2_37_1395" style="mask-type:luminance" maskUnits="userSpaceOnUse" x="77" y="141" width="39" height="14">
<path d="M115.22 154.795C112.635 154.556 109.97 154.238 107.225 153.761C97.0496 152.011 87.036 149.308 77.5877 146.047C77.4262 145.888 77.2646 145.808 77.2646 145.808C77.6684 144.934 77.9914 144.138 78.2337 143.423C78.6375 142.548 78.9605 141.832 79.122 141.514C79.122 141.514 85.8247 145.093 101.007 148.433C110.293 150.5 115.543 152.886 115.22 154.795Z" fill="white"/>
</mask>
<g mask="url(#mask2_37_1395)">
<g opacity="0.78">
<path d="M90.7508 151.615V151.853C90.67 151.774 90.67 151.694 90.7508 151.615Z" fill="#030203"/>
<path d="M84.5327 148.751C84.5327 148.672 84.4519 148.592 84.4519 148.433L84.5327 148.751Z" fill="#030203"/>
<path d="M85.4209 148.036L85.5017 147.956C85.4209 147.956 85.4209 148.036 85.4209 148.036Z" fill="#030203"/>
<path d="M78.7183 148.195V148.274C78.6375 148.274 78.7183 148.195 78.7183 148.195Z" fill="#030203"/>
<path d="M78.5566 147.559C78.4758 147.559 78.4758 147.479 78.4758 147.479V147.4C78.5566 147.4 78.5566 147.479 78.5566 147.559Z" fill="#030203"/>
<path d="M78.8798 147.479L78.7991 147.4C78.8798 147.4 78.8798 147.479 78.8798 147.479Z" fill="#030203"/>
<path d="M79.6064 143.821L79.8487 143.741C79.7679 143.741 79.6872 143.821 79.6064 143.821Z" fill="#030203"/>
<path d="M78.6375 148.513C78.6375 148.433 78.6375 148.354 78.7182 148.274C78.6375 148.354 78.7182 148.433 78.6375 148.513Z" fill="#030203"/>
<path d="M92.9312 152.25C93.0119 152.25 93.0119 152.33 93.0926 152.41C92.9311 152.41 92.9312 152.33 92.9312 152.25Z" fill="#030203"/>
<path d="M80.4949 148.831C80.8987 148.274 80.3334 148.672 80.6564 148.115C80.6564 148.274 80.7372 148.433 80.9794 148.195C81.0602 147.797 80.7372 148.115 80.9794 147.559V147.877C81.2217 147.718 81.3025 147.24 81.3832 147.32C81.141 148.115 81.9485 147.32 82.0293 147.479V147.399L82.433 147.161C82.433 147.24 82.433 147.24 82.3523 147.32C82.5946 147.002 82.9176 146.843 82.9983 147.002C82.8368 147.479 83.4829 147.399 83.4021 147.797C83.4021 147.638 83.3214 147.638 83.1598 147.718L82.9176 148.195C83.0791 148.274 83.1598 147.718 83.1598 148.115C82.8368 148.751 82.9176 148.036 82.7561 148.036C82.7561 148.195 82.7561 148.354 82.7561 148.433C82.5138 148.354 82.11 148.513 82.2715 147.718C82.11 147.797 82.0293 148.115 82.0293 148.195C82.0293 147.718 81.7063 148.513 81.7063 148.115C81.464 148.751 81.9485 148.592 81.9485 149.07C82.433 148.672 82.5138 149.308 82.7561 149.467C82.9983 148.99 82.9176 148.513 83.1598 148.274C83.5636 148.036 83.3214 148.672 83.3214 148.99C83.5636 148.91 83.6444 148.195 83.9674 148.274L83.8866 147.877C84.2904 147.24 83.9674 148.195 84.1289 148.115C84.0482 148.274 83.9674 148.433 83.8059 148.354C83.7251 148.592 83.8059 148.751 83.8059 148.751H83.7251C83.6444 149.07 83.5636 149.467 83.8059 149.388C83.8059 148.91 84.0481 149.149 84.2096 148.99V148.911C84.2904 149.07 84.4519 149.07 84.5327 149.149V149.07C84.6134 149.229 84.4519 149.785 84.6134 149.706C84.6942 149.467 84.6942 148.91 84.7749 149.07C84.8557 148.751 84.6942 148.672 84.4519 148.751C84.6134 148.672 84.8557 148.195 84.6942 148.115C84.8557 147.718 84.775 148.354 84.9365 148.195C84.8557 148.274 84.8557 148.433 84.8557 148.592C85.0172 148.115 85.2595 148.672 85.098 148.99L85.0172 148.672C84.8557 149.07 85.0172 149.388 84.8557 149.626C85.1787 148.99 85.2595 150.103 85.5017 149.547L85.3402 149.865C85.744 149.785 85.9055 150.66 86.2285 150.899C86.1478 150.66 86.39 149.944 86.067 150.103C86.4708 150.103 86.39 149.388 86.6323 149.07C86.9553 148.91 86.5515 149.785 86.6323 150.024L86.4708 149.865C86.4708 150.74 87.2783 149.865 87.5206 150.501C87.6014 150.262 87.4398 150.342 87.4398 150.262C87.7629 149.865 87.6014 150.422 87.6821 150.581C87.8436 150.581 88.1667 150.422 88.1667 149.865C88.4089 149.785 88.0859 150.183 88.0859 150.342L88.1667 150.262L88.2474 150.899C88.4897 150.74 88.732 150.501 88.9742 150.024C89.378 150.262 88.8127 151.296 89.055 151.535C89.2972 151.296 89.1357 151.137 89.1357 150.899L89.378 150.978C89.4587 150.342 89.1357 150.581 89.378 149.944C89.378 150.66 89.6203 150.183 89.7818 150.74V150.819C89.7818 151.296 90.1855 151.058 90.347 151.217C90.347 150.899 90.1855 150.819 90.1048 150.66C90.347 150.501 90.7508 150.819 90.8316 151.455C90.9931 151.376 91.2353 151.217 91.1546 150.899C91.5584 150.899 91.0738 151.853 91.4776 151.694L91.5584 151.217C92.1236 150.66 92.1237 152.012 92.6082 151.455L92.4467 152.012C92.6082 151.773 92.7697 151.694 92.8505 151.535L92.6889 151.296C92.9312 150.819 92.7697 151.773 93.012 151.535C92.9312 151.694 92.6889 152.092 92.6889 152.251C92.0429 151.773 91.0738 152.41 90.5086 151.614C90.5893 151.535 90.5893 151.455 90.5893 151.376C90.5086 151.455 90.347 151.296 90.2663 151.614V151.694C90.1048 151.535 89.7818 152.171 89.6202 152.171C89.6202 151.773 89.1357 152.251 89.4587 151.614L89.2165 152.012C89.2165 151.773 89.378 151.455 89.2972 151.296C89.1357 151.296 89.055 151.614 89.1357 151.773C88.5704 151.933 87.9244 151.694 87.4398 151.296L87.5206 151.614C87.3591 151.773 87.1976 150.978 87.1168 151.773C86.9553 151.376 86.3093 151.773 86.5516 150.978C86.1478 151.773 85.8248 151.137 85.5017 150.899C85.744 150.183 85.2595 150.581 85.2595 150.262C85.0172 150.819 85.421 150.899 85.2595 151.296C85.1787 150.342 83.9674 151.535 84.2904 150.103C84.2097 150.103 84.2096 150.183 84.2096 150.262C84.1289 150.262 83.9674 150.422 83.8866 150.501C83.9674 150.262 84.1289 150.183 83.9674 150.024C83.8059 150.024 83.7251 150.422 83.6444 150.581C83.4829 150.183 83.1599 149.865 83.3214 149.308C83.1599 149.467 82.9983 149.706 82.9983 149.865C82.7561 149.308 82.5945 149.785 82.2715 149.308C82.433 149.388 82.11 149.944 82.433 149.785C81.9485 150.501 81.8678 149.388 81.3025 149.626L81.3832 149.07C81.2217 148.91 80.9794 149.308 81.0602 149.547C80.5757 149.626 80.4949 149.308 80.2527 149.149C80.1719 149.229 80.1719 149.308 80.2527 149.308L79.8489 149.07C79.8489 148.91 79.8489 148.592 80.0912 148.354C80.2527 148.672 80.2527 148.831 80.4949 148.831Z" fill="#030203"/>
<path d="M84.6134 147.797C84.5326 147.877 84.4519 147.956 84.4519 147.956C84.4519 147.877 84.5326 147.797 84.6134 147.797Z" fill="#030203"/>
<path d="M78.2337 144.855C78.9605 144.537 78.2337 145.093 78.476 145.173C78.476 144.934 78.9605 144.775 79.2028 144.696C78.3952 145.332 79.5258 144.775 79.5258 145.173C79.7681 145.014 79.7681 144.855 80.0911 144.616C79.9296 144.855 80.0103 145.173 79.5258 145.57C79.7681 145.809 80.0911 145.809 80.0911 146.048C80.0911 145.73 80.4949 145.57 80.7371 145.093C80.3334 145.73 80.2526 146.684 80.0911 147.559C80.4949 147.081 80.5756 147.002 80.8179 146.525C81.3832 146.366 80.5756 147.081 80.9794 147.161H80.7371C80.8179 147.4 80.4949 147.956 80.3334 148.354C80.1718 148.274 80.0911 148.115 79.9296 148.036C79.6873 148.433 80.0103 148.513 80.0103 148.672C79.8488 149.229 79.5258 148.831 79.3643 149.229C79.5258 148.911 79.2028 148.831 79.2028 148.672L79.0413 148.831C78.6375 148.831 78.8798 148.274 78.7183 148.195C78.6375 148.195 78.6375 148.274 78.6375 148.274C78.7182 148.036 78.8798 147.718 78.799 147.559L78.8798 147.638C79.0413 147.081 79.0413 146.525 79.6873 146.286L79.2028 146.048C78.799 146.525 78.153 147.241 78.3952 147.479L78.2337 147.718C77.7492 147.797 78.0722 146.843 78.5567 146.604C79.0413 146.048 78.8798 145.889 78.7183 145.809C78.5567 145.73 78.2337 145.65 78.3952 145.332C77.9915 145.491 77.9915 145.73 77.8299 145.968C77.8299 146.127 77.9107 146.207 78.2337 145.968C78.3952 146.525 77.1032 146.604 77.6684 147.081C78.0722 147.161 77.9107 146.366 78.2337 146.684C77.9915 147.002 77.83 147.32 77.6684 147.638C77.4262 147.4 77.4262 147.081 77.3454 146.763C77.2647 146.366 77.1839 146.048 77.1032 145.809C77.0224 145.491 76.9416 145.332 76.7801 145.093C76.6186 144.934 76.6186 144.775 76.4571 144.616C76.3764 144.537 76.2956 144.457 76.2956 144.457C76.0533 143.423 76.2148 142.31 76.5379 141.435C76.8609 140.56 77.3454 139.765 77.9107 139.049C78.3145 138.731 78.476 138.493 79.445 139.049C79.5258 139.288 79.2835 139.447 79.6873 139.606C79.3643 139.367 79.0413 139.367 78.8798 139.606C79.2028 139.845 79.2028 139.526 79.2028 139.606V139.686C79.3643 139.765 79.5258 139.845 79.6066 139.765C79.9296 140.322 79.6066 140.56 78.8798 140.401C79.122 140.799 79.5258 140.56 79.8488 140.64C79.7681 141.356 79.5258 141.753 79.445 142.31C78.7182 142.151 78.9605 142.31 78.476 142.31L78.7183 142.389C78.5567 142.31 78.0722 142.389 77.9915 142.151C78.476 142.628 76.9416 142.548 76.6186 143.026H77.0224C76.9416 143.344 76.9416 143.423 76.7801 143.741C77.5069 144.139 76.8609 143.264 77.7492 143.344L77.5877 143.503C77.9107 143.423 78.5567 143.264 78.799 143.185C78.476 143.344 78.5567 143.503 78.6375 143.582C78.7182 143.662 78.8798 143.741 78.7183 143.98C79.122 143.821 79.3643 143.503 79.3643 143.423C79.445 143.503 79.2028 143.741 79.5258 143.662L79.0413 143.821C79.0413 144.059 79.5258 143.662 79.8488 143.662C79.8488 143.821 79.445 143.98 79.0413 144.139C78.7182 144.457 78.2337 144.537 78.2337 144.855Z" fill="#030203"/>
<path d="M83.1598 148.354C83.0791 148.354 82.9983 148.354 82.9983 148.274C83.079 148.274 83.0791 148.274 83.1598 148.354Z" fill="#030203"/>
<path d="M82.7558 146.286C82.5943 146.445 82.6751 146.524 82.5943 146.763C82.5943 146.684 82.4328 146.604 82.7558 146.286Z" fill="#030203"/>
<path d="M100.845 151.932C100.845 152.091 100.926 152.25 100.845 152.41L100.684 152.171L100.845 151.932Z" fill="#030203"/>
<path d="M100.199 152.33L99.876 152.41L99.9567 151.694C100.28 151.774 99.9567 152.171 100.199 152.33Z" fill="#030203"/>
<path d="M99.5529 152.171L99.6337 151.694L99.7952 152.171L99.6337 152.251C99.5529 152.41 99.4722 152.489 99.4722 152.569V152.171C99.4722 152.092 99.5529 152.251 99.5529 152.171Z" fill="#030203"/>
<path d="M99.3108 152.091C99.3108 152.012 99.3916 152.012 99.3916 151.932C99.3916 152.012 99.3915 152.012 99.3108 152.091Z" fill="#030203"/>
<path d="M98.5032 152.728C98.5839 152.569 98.5839 152.251 98.6647 152.091C98.907 152.012 98.7454 152.728 98.9877 152.489C98.8262 152.012 99.23 152.251 99.3915 152.012C99.1492 152.41 98.9877 152.728 98.6647 152.728L98.7454 152.41C98.5839 152.489 98.5839 152.648 98.5032 152.728Z" fill="#030203"/>
<path d="M97.6148 151.694V152.171C97.6956 151.933 98.0186 152.012 98.0993 151.615C98.1801 151.694 98.0994 151.933 98.1801 152.092C98.3416 151.853 98.4224 151.694 98.4224 152.092C97.9378 152.251 98.0186 152.41 97.6148 152.41C97.6148 152.489 97.6148 152.489 97.6956 152.489L97.3726 152.648C97.5341 152.092 97.211 151.933 97.6148 151.694Z" fill="#030203"/>
<path d="M97.1304 151.932C97.2919 152.012 97.2919 152.489 97.0497 152.728L96.8074 152.25C96.9689 152.25 97.0496 152.33 97.1304 151.932Z" fill="#030203"/>
<path d="M96.8882 151.853C96.7266 152.092 96.4844 152.569 96.4844 152.012C96.6459 152.171 96.7266 151.455 96.8882 151.853Z" fill="#030203"/>
<path d="M95.3538 151.853L95.8383 151.614C96.0806 151.058 95.6768 151.376 95.6768 151.058C95.9998 151.058 95.8383 151.217 95.9998 151.614C96.0805 151.614 96.1613 151.932 96.2421 152.171C95.8383 151.614 95.4345 153.046 95.3538 151.853Z" fill="#030203"/>
<path d="M96.3229 151.455L96.2421 151.694L96.1614 151.455H96.3229Z" fill="#030203"/>
<path d="M94.304 152.251C93.9002 152.887 93.981 151.774 93.658 152.012C93.658 152.092 93.658 152.092 93.658 152.251L93.4965 152.092L93.4157 152.251C93.5772 151.853 93.335 151.615 93.335 151.217C93.658 150.819 93.335 151.774 93.658 151.297C93.658 151.058 93.7387 150.819 93.7387 150.581C93.8195 150.819 93.8195 151.058 93.7387 151.376C93.9002 151.456 93.9002 151.217 93.981 151.058C94.0617 151.376 93.9003 152.012 94.2233 151.933C94.4655 151.615 94.304 151.297 94.5463 151.535C94.2233 152.171 94.8693 151.535 94.8693 151.933C95.1116 151.853 95.3538 151.456 95.3538 151.217C95.1923 151.774 95.2731 152.251 95.3538 152.41L95.1116 151.853L94.7885 152.41C94.627 152.171 94.4655 152.171 94.304 152.251Z" fill="#030203"/>
<path d="M93.7387 150.66C93.7387 150.581 93.7387 150.581 93.658 150.501C93.7387 150.501 93.7387 150.581 93.7387 150.66Z" fill="#030203"/>
<path d="M95.3538 151.137V150.978L95.4345 150.819L95.3538 151.137Z" fill="#030203"/>
<path d="M93.658 150.183C93.7387 150.183 93.658 150.422 93.658 150.422V150.104V150.183Z" fill="#030203"/>
<path d="M93.3349 150.501L93.1733 150.899V150.581L93.3349 150.501Z" fill="#030203"/>
<path d="M88.6511 149.785C88.8933 149.626 88.7318 150.024 88.6511 150.342C88.4088 150.342 88.8126 149.944 88.6511 149.785Z" fill="#030203"/>
<path d="M85.9861 148.433C86.2283 148.195 86.2283 148.672 86.3899 148.672C86.2283 148.831 86.0668 148.672 85.9861 148.433Z" fill="#030203"/>
<path d="M85.3402 146.684C85.3402 146.843 85.3401 146.922 85.2594 146.922L85.1786 147.717C84.7749 147.877 85.1786 147.002 85.3402 146.684Z" fill="#030203"/>
<path d="M84.1289 146.127L84.2096 146.445H84.1289C84.0481 146.763 84.0481 146.922 84.0481 147.161C83.8866 146.922 83.8866 146.604 84.1289 146.127Z" fill="#030203"/>
<path d="M84.1287 147.4C84.1287 147.32 84.1287 147.32 84.1287 147.4C84.2094 147.082 84.1287 147.241 84.1287 147.4Z" fill="#030203"/>
<path d="M83.9673 147.24V147.161C84.048 147.24 84.048 147.24 83.9673 147.24C84.048 147.32 83.9673 147.399 83.9673 147.24Z" fill="#030203"/>
<path d="M83.8865 146.366L83.5635 146.127L83.725 146.048C83.5635 146.525 84.048 145.889 83.8865 146.366Z" fill="#030203"/>
<path d="M82.029 145.968L81.7868 146.366C81.5445 146.366 81.8675 145.332 81.3022 145.889C81.5445 145.73 81.4638 145.332 81.706 145.412C81.5445 145.73 81.7868 145.968 82.029 145.968Z" fill="#030203"/>
<path d="M80.8986 146.047C80.8178 146.207 80.7371 146.207 80.6563 146.286C80.5756 146.286 80.5756 146.047 80.7371 145.888C80.4948 146.525 81.1409 145.729 80.8986 146.047Z" fill="#030203"/>
<path d="M80.1719 145.412C80.1719 145.491 80.2526 145.571 80.0911 145.571C80.0104 145.412 80.4141 145.094 80.5756 144.775C80.8987 144.696 80.4141 145.332 80.1719 145.412Z" fill="#030203"/>
<path d="M79.2836 144.298H79.3643L78.7991 144.616C78.9606 144.536 79.1221 144.377 79.2836 144.298Z" fill="#030203"/>
<path d="M79.3643 143.344C79.5258 143.264 79.6065 143.264 79.768 143.264L79.6873 143.423L79.3643 143.344Z" fill="#030203"/>
<path d="M79.2834 143.105L79.3642 142.946L79.5257 143.026C79.6065 143.105 79.2834 143.105 79.2834 143.105Z" fill="#030203"/>
<path d="M79.4449 142.628C79.3642 142.628 79.4449 142.628 79.5257 142.708C79.4449 142.708 79.3642 142.787 79.2834 142.787C79.2834 142.787 79.3642 142.708 79.4449 142.628Z" fill="#030203"/>
</g>
</g>
<path d="M77.2646 145.808C77.5877 144.934 77.9914 144.138 78.3145 143.423C78.7182 142.548 79.0413 141.832 79.2028 141.514" stroke="#1B1C1E" stroke-width="1.2005" stroke-miterlimit="10" stroke-linecap="round" stroke-linejoin="round"/>
<path d="M38.583 107.953C38.583 107.953 55.3801 122.03 69.916 125.211C84.4519 128.392 71.4503 115.031 71.4503 115.031C71.4503 115.031 80.0911 122.348 88.0859 123.063C96.0806 123.779 86.5515 112.168 86.5515 112.168C86.5515 112.168 93.981 119.803 103.349 120.996C112.716 122.189 101.168 110.101 101.168 110.101C101.168 110.101 108.517 117.258 114.493 117.338" stroke="#1B1C1E" stroke-width="1.2005" stroke-miterlimit="10" stroke-linecap="round" stroke-linejoin="round"/>
</svg>
