<svg width="145" height="174" viewBox="0 0 145 174" fill="none" xmlns="http://www.w3.org/2000/svg">
<path d="M1.1258 169.989C1.1258 169.989 -5.1731 172.057 12.0277 172.693C29.2286 173.329 120.078 173.647 129.446 172.693C138.813 171.738 156.983 172.295 132.837 169.989C108.692 167.683 83.819 169.035 59.5117 167.683C35.2044 166.251 4.75978 167.524 1.1258 169.989Z" fill="#1B1C1E"/>
<path d="M56.2005 8.78808C56.2005 8.78808 48.2866 0.676337 41.0186 0.0401221C33.2661 -0.67562 31.5702 8.23139 38.5152 23.0234C38.5152 23.0234 52.3243 17.9337 56.2005 8.78808Z" fill="#F6EBEF"/>
<path d="M52.4052 14.1958C46.9138 19.9218 38.5153 23.0233 38.5153 23.0233C34.0738 13.6391 33.1047 6.64077 34.9621 2.98253C35.1236 2.82347 38.273 0.358143 44.0066 5.28881C47.6406 8.31083 50.6285 11.8895 52.4052 14.1958Z" fill="#EAD6DE"/>
<path d="M89.6333 10.3784C89.6333 10.3784 102.473 0.437541 108.449 3.61862C114.425 6.79969 107.157 23.4208 105.058 26.5224C103.039 29.5444 87.2107 15.6272 89.6333 10.3784Z" fill="#F6EBEF"/>
<path d="M105.138 26.522C103.927 28.2716 98.1124 24.3748 93.9131 19.7623C95.6089 16.8198 99.4852 10.5371 103.2 7.99229C107.48 5.12932 110.064 6.64033 110.71 7.11749C111.679 13.082 106.753 24.0567 105.138 26.522Z" fill="#EAD6DE"/>
<path d="M133.16 168.16C133.079 169.273 132.11 170.148 130.98 170.148C115.152 170.148 15.5 170.069 14.0464 170.069C12.5121 170.069 9.4434 161.321 18.6495 158.14C18.6495 158.14 15.5808 142.075 22.445 113.525C29.5514 84.2591 40.6956 67.3994 40.6956 67.3994C40.6956 67.3994 29.6322 60.7192 28.8246 47.9949C28.0171 35.191 37.6269 19.6038 47.8021 12.7645C57.8965 5.84562 67.1833 5.76609 79.6196 6.959C92.0559 8.1519 100.051 14.514 106.996 23.8187C114.263 33.6005 117.494 47.3587 113.94 56.9019C111.033 64.6955 105.461 68.2742 105.461 68.2742C105.461 68.2742 106.996 70.9781 109.257 75.8293C112.81 83.2253 118.14 95.5519 122.824 110.344C123.147 111.378 123.47 112.412 123.712 113.445C124.439 115.99 125.004 118.535 125.569 121.001C126.781 126.806 127.427 132.373 127.75 137.383C128.557 149.71 127.265 158.378 127.265 158.378C127.265 158.378 133.887 159.969 133.16 168.16Z" fill="#F6EBEF"/>
<path d="M70.6557 51.4938C70.6557 51.4938 67.3448 50.3805 65.8104 48.4718C64.1953 46.5632 65.3259 44.3364 70.6557 44.3364C76.3086 44.3364 76.5508 46.8018 75.0165 48.7104C73.4822 50.5395 70.6557 51.4938 70.6557 51.4938Z" fill="#1B1C1E" stroke="#1B1C1E" stroke-width="1.0185" stroke-miterlimit="10"/>
<path d="M70.6558 51.4938V55.7882C69.7675 56.0268 68.9599 56.3449 68.1524 56.7426C63.3878 59.2874 58.7848 53.2434 62.5803 49.4261C63.3071 48.6308 64.2761 47.9946 65.4875 47.3584" stroke="#1B1C1E" stroke-width="1.0185" stroke-miterlimit="10"/>
<path d="M70.6558 51.4938V55.7882C71.7056 56.0268 72.5939 56.4245 73.4822 56.9016C77.6007 59.2079 82.123 54.3568 79.4581 50.5395C78.489 49.1875 77.1162 48.0741 75.0973 47.3584" stroke="#1B1C1E" stroke-width="1.0185" stroke-miterlimit="10"/>
<path d="M66.5374 57.7764C66.5374 57.7764 68.3947 58.7307 70.4136 58.7307C72.271 58.7307 75.0974 57.9354 75.0974 57.9354" stroke="#1B1C1E" stroke-width="1.0185" stroke-miterlimit="10"/>
<path d="M53.2934 37.0996C51.0322 37.0996 48.125 37.6563 46.5099 39.9626C44.2488 43.3822 46.9945 47.6767 52.4858 47.7562C57.9772 47.8357 61.0459 45.0523 60.0768 41.4736C59.1077 37.8949 54.6662 37.0996 53.2934 37.0996Z" fill="#FBAF5E" stroke="#1B1C1E" stroke-miterlimit="10"/>
<path d="M53.2934 46.8014C55.3004 46.8014 56.9274 44.7719 56.9274 42.2684C56.9274 39.7649 55.3004 37.7354 53.2934 37.7354C51.2864 37.7354 49.6594 39.7649 49.6594 42.2684C49.6594 44.7719 51.2864 46.8014 53.2934 46.8014Z" fill="#1B1C1E"/>
<path d="M88.5025 37.0996C90.7636 37.0996 93.6708 37.6563 95.2859 39.9626C97.5471 43.3822 94.8014 47.6767 89.31 47.7562C83.8187 47.8357 80.75 45.0523 81.7191 41.4736C82.6881 37.8949 87.1297 37.0996 88.5025 37.0996Z" fill="#FBAF5E" stroke="#1B1C1E" stroke-miterlimit="10"/>
<path d="M88.5024 46.8014C90.4648 46.8014 92.0557 44.7719 92.0557 42.2684C92.0557 39.7649 90.4648 37.7354 88.5024 37.7354C86.54 37.7354 84.9492 39.7649 84.9492 42.2684C84.9492 44.7719 86.54 46.8014 88.5024 46.8014Z" fill="#1B1C1E"/>
<path d="M30.5205 131.578C30.5205 131.578 36.4964 169.035 38.919 170.148" stroke="#1B1C1E" stroke-miterlimit="10"/>
<path d="M63.7916 170.069C63.7916 170.069 64.1953 164.661 60.3191 162.434C56.4429 160.287 56.4429 158.617 56.0391 149.869C55.6353 141.2 56.0391 101.278 56.0391 101.278" stroke="#1B1C1E" stroke-miterlimit="10"/>
<path d="M98.1123 170.068C98.1123 170.068 101.262 167.921 106.915 129.589" stroke="#1B1C1E" stroke-miterlimit="10"/>
<path d="M57.9774 170.148C57.9774 170.148 58.2196 166.887 56.2815 165.217" stroke="#1B1C1E" stroke-miterlimit="10"/>
<path d="M49.5789 170.068C49.5789 170.068 49.1751 168.239 47.8022 167.683" stroke="#1B1C1E" stroke-miterlimit="10"/>
<path d="M81.7999 170.068C81.7999 170.068 81.3153 167.046 83.0919 165.217" stroke="#1B1C1E" stroke-miterlimit="10"/>
<path d="M88.9065 170.068C88.9065 170.068 89.1488 167.205 90.1986 166.331" stroke="#1B1C1E" stroke-miterlimit="10"/>
<path d="M127.184 158.378C127.184 158.378 118.463 156.31 112.891 160.843" stroke="#1B1C1E" stroke-miterlimit="10"/>
<path d="M126.296 164.263C126.296 164.263 127.184 168.637 126.054 170.148" stroke="#1B1C1E" stroke-miterlimit="10"/>
<path d="M119.27 170.069C119.27 170.069 118.382 167.762 119.109 165.376" stroke="#1B1C1E" stroke-miterlimit="10"/>
<path d="M18.5688 158.139C18.5688 158.139 22.5258 156.708 26.1598 158.139" stroke="#1B1C1E" stroke-miterlimit="10"/>
<path d="M17.7612 170.069C17.7612 170.069 16.9537 166.41 18.5688 164.899" stroke="#1B1C1E" stroke-miterlimit="10"/>
<path d="M23.9795 170.068C23.9795 170.068 24.8678 168.16 25.3523 166.49" stroke="#1B1C1E" stroke-miterlimit="10"/>
<path d="M123.712 113.445C114.344 114.718 104.331 107.799 102.554 95.3927C101.02 84.7361 106.511 78.2944 109.176 75.8291C112.729 83.2251 118.059 95.5518 122.743 110.344C123.066 111.378 123.389 112.411 123.712 113.445Z" fill="#513F3B"/>
<path d="M127.669 137.383C124.6 136.429 121.935 133.884 121.693 129.589C121.451 125.215 123.47 122.511 125.569 121C126.7 126.806 127.346 132.373 127.669 137.383Z" fill="#FBAF5E"/>
<path d="M83.1728 101.357C83.1728 101.357 82.7691 157.026 79.7811 160.207C76.8739 163.468 74.0475 165.854 75.2588 169.989" stroke="#1B1C1E" stroke-miterlimit="10"/>
<path d="M54.3433 26.92C47.8829 32.1688 38.3538 30.7373 33.4277 29.4648C37.0617 22.546 42.3108 16.3429 47.7214 12.6847C53.0512 9.02643 58.1388 7.27684 63.5494 6.64062C63.5494 6.64062 64.5992 18.5697 54.3433 26.92Z" fill="#FBAF5E"/>
<mask id="mask0_37_2846" style="mask-type:luminance" maskUnits="userSpaceOnUse" x="86" y="68" width="24" height="10">
<path d="M109.499 76.4652C94.1555 78.851 86.7261 74.7156 86.7261 74.7156C99.0816 72.6479 105.38 68.2739 105.38 68.2739C105.38 68.2739 106.915 70.9778 109.176 75.829C109.257 75.988 109.337 76.2266 109.499 76.4652Z" fill="white"/>
</mask>
<g mask="url(#mask0_37_2846)">
<g opacity="0.88">
<path d="M100.293 73.2845C100.293 73.2049 100.293 73.1254 100.293 73.0459C100.212 73.1254 100.212 73.1254 100.293 73.2845Z" fill="#443730"/>
<path d="M99.3239 70.8193C99.3239 70.7398 99.2432 70.7397 99.2432 70.7397C99.2432 70.8193 99.3239 70.8193 99.3239 70.8193Z" fill="#443730"/>
<path d="M105.219 71.5348L105.3 71.4553C105.219 71.3758 105.219 71.4553 105.219 71.5348Z" fill="#443730"/>
<path d="M104.896 71.2965C104.977 71.2169 104.977 71.2169 104.896 71.2965Z" fill="#443730"/>
<path d="M105.138 72.3304C105.138 72.2509 105.138 72.1713 105.138 72.0918C105.057 72.1713 105.057 72.2509 105.138 72.3304Z" fill="#443730"/>
<path d="M93.1056 74.875C93.0249 74.875 93.0248 74.9545 92.9441 74.9545C93.1056 75.0341 93.1056 75.0341 93.1056 74.875Z" fill="#443730"/>
<path d="M103.604 72.0913C103.281 71.4551 103.765 72.0118 103.442 71.3755C103.442 71.5346 103.362 71.6936 103.2 71.3755C103.119 70.9779 103.442 71.296 103.2 70.7393V70.9779C102.958 70.7393 102.877 70.2622 102.877 70.3417C103.119 71.137 102.393 70.1826 102.312 70.4212V70.3417L101.989 70.1031C101.989 70.1031 101.989 70.1031 101.989 70.0236C101.989 70.1031 101.989 70.1031 102.07 70.1826C101.827 69.8645 101.585 69.6259 101.424 69.785C101.585 70.2622 101.02 70.1031 101.101 70.5007C101.101 70.3417 101.181 70.3417 101.343 70.4212L101.585 70.9779C101.424 71.0574 101.343 70.5007 101.343 70.8984C101.666 71.6141 101.585 70.8189 101.666 70.8189C101.666 70.9779 101.666 71.137 101.666 71.296C101.908 71.2165 102.231 71.3755 102.07 70.6598C102.231 70.8189 102.312 71.0574 102.312 71.2165C102.312 70.7393 102.635 71.5346 102.554 71.137C102.796 71.8527 102.393 71.6141 102.393 72.0118C101.989 71.5346 101.908 72.1708 101.747 72.3299C101.504 71.8527 101.504 71.3755 101.343 71.137C101.02 70.8984 101.262 71.4551 101.181 71.8527C100.939 71.7732 100.858 71.0574 100.616 71.137V70.7393C100.212 70.1031 100.616 71.0574 100.454 70.9779C100.535 71.137 100.616 71.296 100.777 71.2165C100.858 71.4551 100.858 71.6141 100.777 71.6141C100.858 71.9322 101.02 72.3299 100.777 72.2503C100.697 71.7732 100.535 72.0118 100.454 71.7732V71.6936C100.374 71.8527 100.212 71.8527 100.212 71.9322V71.8527C100.212 72.0118 100.374 72.5684 100.212 72.4889C100.131 72.2503 100.131 71.6936 99.9699 71.7732C99.8892 71.4551 100.051 71.3755 100.212 71.4551C100.051 71.3755 99.8084 70.8984 99.9699 70.8189C99.8084 70.4212 99.8892 71.0574 99.7277 70.8984C99.8084 70.9779 99.8084 71.137 99.8892 71.296C99.7277 70.7393 99.5662 71.3755 99.7277 71.6936L99.8084 71.3755C99.9699 71.7732 99.8892 72.1708 100.051 72.3299C99.7277 71.6936 99.7277 72.807 99.4854 72.2503L99.6469 72.5684C99.2432 72.4889 99.2431 73.3637 99.0009 73.6023C99.0816 73.3637 98.8394 72.648 99.0816 72.807C98.7586 72.7275 98.7586 72.0913 98.5163 71.7732C98.1933 71.5346 98.5971 72.4889 98.5971 72.7275L98.6779 72.5684C98.7586 73.5228 98.0318 72.5684 97.8703 73.2047C97.7896 72.9661 97.8703 73.0456 97.9511 72.9661C97.628 72.5684 97.8703 73.1251 97.7895 73.2842C97.628 73.2842 97.3858 73.1251 97.305 72.5684C97.0627 72.4889 97.3858 72.8865 97.3858 73.1251L97.305 73.0456V73.6818C97.1435 73.5228 96.8205 73.2842 96.659 72.807C96.336 72.9661 96.9013 74.0795 96.7397 74.318C96.4975 74.0795 96.659 73.9204 96.5782 73.6818L96.336 73.7613C96.2552 73.1251 96.4975 73.3637 96.2552 72.648C96.2552 73.4432 96.0937 72.8866 95.9322 73.4432V73.5228C95.9322 74.0795 95.6092 73.7613 95.4477 73.9204C95.4477 73.6023 95.6092 73.5228 95.6899 73.3637C95.4476 73.1251 95.1246 73.5228 95.1246 74.159C95.0439 74.0795 94.7209 73.8409 94.8016 73.6023C94.4786 73.6023 94.8824 74.5566 94.5593 74.3976L94.4786 73.9204C93.9941 73.2842 93.9941 74.7157 93.5903 74.0794L93.671 74.7157C93.5903 74.4771 93.4288 74.3976 93.348 74.159L93.4288 73.9204C93.1865 73.4432 93.348 74.3976 93.1865 74.0794C93.1865 74.2385 93.4288 74.6361 93.5095 74.8747C94.0748 74.3976 94.9631 75.1133 95.4477 74.318C95.3669 74.2385 95.3669 74.159 95.3669 74.0794C95.4477 74.2385 95.5284 73.9999 95.6092 74.318V74.3976C95.7707 74.2385 96.0937 74.8747 96.1744 74.8747C96.0937 74.4771 96.5782 74.9542 96.336 74.318L96.5782 74.7157C96.5782 74.4771 96.4167 74.159 96.4975 73.9999C96.659 73.9999 96.7397 74.318 96.659 74.4771C97.1435 74.6361 97.7088 74.3976 98.1126 74.0794V74.3976C98.2741 74.5566 98.3548 73.6818 98.5163 74.5566C98.5971 74.159 99.1624 74.6361 98.9201 73.7613C99.3239 74.5566 99.5662 73.9204 99.8084 73.7613C99.4854 73.0456 99.9699 73.4432 99.9699 73.1251C100.212 73.6818 99.8892 73.7613 100.051 74.159C100.051 73.2047 101.181 74.4771 100.777 73.0456C100.858 73.1251 100.858 73.1251 100.858 73.2047C100.939 73.2047 101.101 73.3637 101.181 73.4432C101.101 73.2047 100.939 73.1251 101.02 72.9661C101.181 72.9661 101.262 73.3637 101.343 73.5228C101.424 73.1251 101.747 72.8866 101.504 72.2503C101.666 72.4094 101.827 72.648 101.827 72.807C101.989 72.2503 102.15 72.7275 102.393 72.3299C102.312 72.4094 102.554 72.9661 102.312 72.807C102.796 73.5228 102.796 72.4889 103.2 72.7275L103.119 72.1708C103.281 72.0118 103.442 72.4889 103.442 72.7275C103.846 72.8865 103.846 72.5684 104.088 72.4094C104.169 72.4889 104.169 72.5684 104.088 72.5684L104.411 72.4094C104.411 72.2503 104.411 71.9322 104.25 71.6936C103.846 72.0117 103.846 72.2503 103.604 72.0913Z" fill="#443730"/>
<path d="M100.051 70.6602C100.131 70.7397 100.212 70.8192 100.212 70.8192C100.131 70.7397 100.051 70.6602 100.051 70.6602Z" fill="#443730"/>
<path d="M106.107 69.4673C105.703 68.7516 106.026 69.7059 105.784 69.5469C105.865 69.3878 105.623 68.9902 105.461 68.7516C105.784 69.7854 105.219 68.6721 104.977 68.9902C104.815 68.6721 104.896 68.5925 104.734 68.1949C104.734 68.513 104.573 68.7516 104.815 69.3083C104.573 69.4673 104.25 69.3083 104.169 69.4673C104.25 69.1492 103.927 68.9106 103.846 68.354C104.007 69.0697 103.927 70.024 104.008 70.9783C103.684 70.4217 103.684 70.3421 103.442 69.7854C102.958 69.5469 103.604 70.4217 103.2 70.3421L103.361 70.4217C103.281 70.6602 103.523 71.2169 103.684 71.6941L104.008 71.4555C104.169 71.8531 103.927 71.9327 103.927 72.0122C104.007 72.5689 104.25 72.2508 104.411 72.6484C104.331 72.3303 104.492 72.3303 104.573 72.1712L104.654 72.4098C104.977 72.5689 104.734 71.9327 104.896 71.9327C104.977 72.0122 104.977 72.0122 104.977 72.0917C104.896 71.8531 104.815 71.4555 104.896 71.376L104.815 71.4555C104.654 70.8988 104.815 70.4217 104.331 69.9445H104.734C104.977 70.5012 105.38 71.4555 105.138 71.6146L105.219 71.8531C105.542 72.0917 105.461 71.2169 105.057 70.7398C104.492 69.3083 105.623 70.4216 105.542 69.7059C105.784 70.1035 105.703 70.2626 105.784 70.5807C105.703 70.6602 105.703 70.7398 105.542 70.4217C105.3 70.8193 106.188 71.535 105.784 71.6146C105.461 71.535 105.703 70.8988 105.38 70.9783L105.703 72.0917C105.865 72.0122 105.946 71.6941 106.026 71.535C106.43 70.4217 107.318 70.7398 107.318 70.7398C108.368 70.024 109.418 69.2288 110.468 68.4335C110.71 68.0359 110.872 68.0358 110.306 67.002C110.064 66.8429 109.983 67.0815 109.822 66.6839C110.064 67.0815 110.064 67.3201 109.822 67.3996C109.58 67.0815 109.822 67.1611 109.741 67.0815H109.66C109.58 66.9225 109.499 66.7634 109.58 66.6839C109.014 66.2863 108.772 66.6044 109.095 67.3996C108.691 67.1611 108.853 66.7634 108.691 66.4453C107.964 66.5248 107.641 66.7634 107.076 67.0815C107.48 67.7177 107.238 67.4792 107.48 68.0359L107.318 67.7973C107.399 67.8768 107.561 68.354 107.803 68.4335C107.157 68.1154 107.884 69.4673 107.803 69.9445L107.641 69.6264C107.48 69.7854 107.399 69.865 107.399 70.1035C106.753 69.6264 107.641 69.865 107.076 69.0697V69.2288C106.915 68.9106 106.672 68.2744 106.672 68.0359C106.672 68.7516 106.188 68.0358 106.107 68.5925C105.946 68.1949 106.026 67.7973 106.107 67.6382C105.946 67.6382 105.946 68.0358 105.784 67.7177L106.026 68.1949C105.865 68.354 105.784 67.7177 105.623 67.4792C105.138 67.7177 106.349 68.9902 106.107 69.4673Z" fill="#443730"/>
<path d="M101.343 71.2963C101.423 71.2963 101.423 71.2963 101.504 71.2168C101.423 71.2168 101.343 71.2168 101.343 71.2963Z" fill="#443730"/>
<path d="M101.827 70.0238C101.827 69.9443 101.746 69.8647 101.746 69.8647C101.827 69.8647 101.827 69.9443 101.827 70.0238Z" fill="#443730"/>
<path d="M101.666 69.3081C101.747 69.5467 101.747 69.5467 101.827 69.8648C101.747 69.6262 101.908 69.5467 101.666 69.3081Z" fill="#443730"/>
<path d="M86.9683 73.6026L87.1298 73.7616L87.2105 73.0459C87.049 73.1254 87.1298 73.6026 86.9683 73.6026Z" fill="#443730"/>
<path d="M87.5335 73.6822V73.1255L87.2913 73.5231L87.5335 73.6822C87.4528 73.8412 87.5335 73.9208 87.5335 74.0003V73.6822Z" fill="#443730"/>
<path d="M88.2604 74.5569C88.1796 74.3979 88.2604 74.0798 88.2604 73.8412C88.0181 73.6821 88.0989 74.3979 87.9373 74.2388C88.1796 73.8412 87.7758 73.9207 87.6951 73.6821C87.7758 74.1593 87.9373 74.4774 88.0988 74.6365V74.3183C88.1796 74.2388 88.1796 74.3979 88.2604 74.5569Z" fill="#443730"/>
<path d="M89.1487 73.6819L89.0679 74.1591C88.9872 73.9205 88.7449 73.9205 88.7449 73.4434C88.6642 73.5229 88.6642 73.7615 88.6642 73.9205C88.5834 73.6819 88.5026 73.4434 88.4219 73.841C88.8257 74.1591 88.7449 74.2386 89.0679 74.3977C89.0679 74.4772 89.0679 74.4772 88.9872 74.4772L89.2294 74.7158C89.1487 74.0796 89.391 74 89.1487 73.6819Z" fill="#443730"/>
<path d="M89.5525 74C89.391 74.0795 89.391 74.5567 89.4717 74.7953L89.7948 74.3181C89.6332 74.3976 89.5525 74.4772 89.5525 74Z" fill="#443730"/>
<path d="M89.7139 74C89.7946 74.2386 90.0369 74.7953 90.0369 74.2386C89.8754 74.3181 89.8754 73.6024 89.7139 74Z" fill="#443730"/>
<path d="M91.006 74.2386L90.6023 74C90.4408 73.3638 90.683 73.7615 90.7638 73.4434C90.4408 73.3638 90.6023 73.5229 90.4407 74C90.36 74 90.2792 74.3181 90.1985 74.4772C90.6023 73.9205 90.8445 75.5111 91.006 74.2386Z" fill="#443730"/>
<path d="M90.2793 73.6821V74.0002L90.3601 73.7617L90.2793 73.6821Z" fill="#443730"/>
<path d="M91.8943 74.8752C92.2174 75.5909 92.2174 74.3981 92.4596 74.6366C92.4596 74.7162 92.4596 74.7162 92.4596 74.8752L92.6211 74.7957L92.7019 74.9547C92.6211 74.4776 92.7827 74.3185 92.7827 73.9209C92.4596 73.4437 92.7826 74.4776 92.5404 74.0004C92.5404 73.7618 92.5404 73.4437 92.5404 73.2847C92.4596 73.5232 92.5404 73.8414 92.5404 74.0799C92.4596 74.1595 92.3789 73.9209 92.3789 73.6823C92.2981 74.0004 92.4596 74.6366 92.2174 74.5571C91.9751 74.1595 92.2174 73.9209 91.9751 74.1595C92.2174 74.8752 91.7328 74.0799 91.7328 74.5571C91.5713 74.4776 91.3291 74.0004 91.3291 73.7618C91.4098 74.3185 91.329 74.7957 91.2483 75.0343L91.4906 74.5571L91.7328 75.1933C91.5713 74.7162 91.7328 74.7162 91.8943 74.8752Z" fill="#443730"/>
<path d="M91.0866 73.5231V73.3641L91.0059 73.1255L91.0866 73.5231Z" fill="#443730"/>
<path d="M92.4595 72.7275C92.3787 72.7275 92.4595 72.9661 92.4595 72.9661V72.6479V72.7275Z" fill="#443730"/>
<path d="M92.7019 73.1255L92.9442 73.5231V73.205L92.7019 73.1255Z" fill="#443730"/>
<path d="M96.6587 72.5684C96.4972 72.4094 96.5779 72.807 96.6587 73.1251C96.9009 73.1251 96.5779 72.7275 96.6587 72.5684Z" fill="#443730"/>
<path d="M98.8392 71.2963C98.5969 71.0577 98.5969 71.5349 98.5161 71.5349C98.6776 71.6939 98.8392 71.5349 98.8392 71.2963Z" fill="#443730"/>
<path d="M99.2432 69.4673C99.2432 69.6263 99.2431 69.7059 99.3239 69.7059L99.4854 70.5011C99.8084 70.7397 99.4047 69.7854 99.2432 69.4673Z" fill="#443730"/>
<path d="M100.293 68.9106L100.212 69.2288H100.293C100.374 69.5469 100.374 69.7059 100.454 69.9445C100.535 69.7854 100.535 69.4673 100.293 68.9106Z" fill="#443730"/>
<path d="M100.374 70.2623C100.454 70.1827 100.374 70.1827 100.374 70.2623C100.374 70.1032 100.293 69.9442 100.374 70.2623Z" fill="#443730"/>
<path d="M100.535 70.1034V70.0239C100.454 70.1035 100.454 70.1034 100.535 70.1034C100.535 70.2625 100.454 70.2625 100.535 70.1034Z" fill="#443730"/>
<path d="M100.616 69.2288L100.858 68.9902L100.697 68.9106C100.858 69.4673 100.454 68.7516 100.616 69.2288Z" fill="#443730"/>
<path d="M102.312 68.9897L102.554 69.3874C102.796 69.3874 102.554 68.3535 103.038 68.9897C102.796 68.7512 102.958 68.433 102.635 68.3535C102.796 68.9102 102.554 69.0693 102.312 68.9897Z" fill="#443730"/>
<path d="M103.361 69.308C103.361 69.4671 103.442 69.5466 103.604 69.6261C103.684 69.6261 103.684 69.3876 103.523 69.2285C103.684 69.8647 103.281 68.9104 103.361 69.308Z" fill="#443730"/>
<path d="M104.25 68.9104C104.169 68.9104 104.169 68.9899 104.25 69.0694C104.411 68.9899 104.088 68.5127 104.008 68.1151C103.765 67.9561 104.008 68.6718 104.25 68.9104Z" fill="#443730"/>
<path d="M107.238 71.376C106.996 70.9784 106.915 71.1374 106.915 71.2965C106.915 71.217 107.076 71.2965 107.238 71.376Z" fill="#443730"/>
<path d="M105.623 68.3534L105.461 68.2739L105.784 68.8306L105.623 68.3534Z" fill="#443730"/>
</g>
</g>
<mask id="mask1_37_2846" style="mask-type:luminance" maskUnits="userSpaceOnUse" x="34" y="67" width="22" height="11">
<path d="M55.6352 73.7615C55.6352 73.7615 42.3914 78.056 34.9619 77.7379C38.1921 70.9781 40.6148 67.3198 40.6148 67.3198C40.6148 67.3198 45.2986 71.6143 55.6352 73.7615Z" fill="white"/>
</mask>
<g mask="url(#mask1_37_2846)">
<g opacity="0.88">
<path d="M46.1869 70.103C46.1869 70.1826 46.1061 70.1826 46.0254 70.2621C46.0254 70.2621 46.1061 70.2621 46.1869 70.103Z" fill="#443730"/>
<path d="M50.8706 72.0115L50.9514 71.7729C50.8706 71.8525 50.8706 71.932 50.8706 72.0115Z" fill="#443730"/>
<path d="M45.137 71.4546C45.0563 71.4546 44.9755 71.5341 44.8948 71.6932L45.137 71.4546Z" fill="#443730"/>
<path d="M41.7453 68.0352C41.7453 67.9557 41.6646 67.9557 41.7453 68.0352H41.6646C41.5838 68.0352 41.6646 68.0352 41.7453 68.0352Z" fill="#443730"/>
<path d="M38.2728 69.7847L38.1113 70.0233C38.1921 69.9437 38.2728 69.8642 38.2728 69.7847Z" fill="#443730"/>
<path d="M42.3915 67.5581C42.3107 67.5581 42.3107 67.6376 42.23 67.7172C42.3107 67.6376 42.3915 67.6376 42.3915 67.5581Z" fill="#443730"/>
<path d="M46.187 70.0234C46.187 70.103 46.187 70.103 46.1062 70.103C46.187 70.103 46.187 70.0234 46.187 70.0234Z" fill="#443730"/>
<path d="M52.728 72.4091C52.8088 72.4091 52.8088 72.4091 52.8895 72.3296C52.8088 72.2501 52.8088 72.2501 52.728 72.4091Z" fill="#443730"/>
<path d="M43.1184 68.8306C42.8761 69.5464 42.9569 68.7511 42.6338 69.4668C42.7954 69.3873 42.8761 69.3078 42.7953 69.6259C42.5531 69.944 42.6338 69.5464 42.3108 70.0235L42.5531 69.8645C42.5531 70.1826 42.2301 70.5802 42.3108 70.5802C42.7953 69.8645 42.5531 71.0574 42.7146 70.9778L42.6338 71.0574V71.5345C42.6338 71.5345 42.6338 71.5345 42.6338 71.6141C42.6338 71.5345 42.7146 71.5345 42.7146 71.455C42.6338 71.8526 42.6338 72.1707 42.8761 72.1707C43.1184 71.7731 43.4414 72.2503 43.6836 71.9322C43.6029 72.0117 43.5221 72.0117 43.4414 71.8526L43.6836 71.3755C43.8452 71.455 43.5221 71.8526 43.7644 71.6141C44.0067 70.8983 43.5221 71.5345 43.4414 71.3755C43.5221 71.2164 43.6837 71.1369 43.7644 71.0574C43.5221 70.9778 43.4414 70.6597 43.0376 71.2959C43.0376 71.1369 43.1991 70.8188 43.2799 70.8188C42.9569 71.1369 43.3606 70.3416 43.0376 70.6597C43.3606 70.0235 43.5221 70.4211 43.7644 70.103C43.7644 70.7392 44.1682 70.3416 44.4912 70.2621C44.3297 70.7393 44.0067 71.1369 43.9259 71.455C44.0067 71.8526 44.2489 71.2959 44.4912 71.0574C44.572 71.2959 44.1682 71.8526 44.4104 72.0117L44.1682 72.2503C44.0067 72.966 44.4104 72.0117 44.4912 72.2503C44.4912 72.0912 44.572 71.8526 44.4912 71.8526C44.572 71.6141 44.7335 71.5345 44.7335 71.5345C44.895 71.2164 45.0565 70.8983 45.1372 71.0574C44.895 71.455 45.1372 71.3755 45.1372 71.6141L45.0565 71.6936C45.218 71.614 45.2988 71.6936 45.4603 71.6141L45.3795 71.6936C45.541 71.5345 45.7833 71.0574 45.864 71.2164C45.7833 71.455 45.3795 71.9322 45.6218 71.8526C45.4603 72.1707 45.2988 72.0912 45.218 71.9322C45.2988 72.0912 45.218 72.6479 44.9757 72.5684C44.895 72.966 45.218 72.4889 45.218 72.6479C45.218 72.4889 45.2988 72.4093 45.3795 72.2503C45.218 72.807 45.7025 72.4093 45.7833 72.0117L45.541 72.2503C45.7025 71.8526 45.9448 71.6141 46.0256 71.3755C45.864 72.0912 46.5101 71.2164 46.4293 71.7731L46.5101 71.3755C46.7523 71.6936 47.2369 70.9778 47.6407 70.8983C47.4791 71.0574 47.2369 71.8526 47.0754 71.5345C47.3176 71.7731 46.9138 72.3298 46.9138 72.7274C47.0754 73.0455 47.2369 72.0912 47.3984 71.8526L47.1561 71.9322C47.6406 71.1369 47.7214 72.3298 48.2059 71.8526C48.1252 72.0912 48.1252 71.9322 48.0444 72.0117C48.0444 72.4888 48.2059 71.9322 48.3674 71.8526C48.529 71.9322 48.6097 72.2503 48.3674 72.7274C48.529 72.8865 48.4482 72.4093 48.6097 72.2503V72.4093L48.9327 71.8526C49.0135 72.0912 49.0942 72.4093 49.0135 72.966C49.4173 72.966 49.498 71.7731 49.821 71.6141C49.9018 71.9322 49.6595 72.0117 49.5788 72.2503H49.821C49.5788 72.807 49.498 72.4888 49.2558 73.2046C49.6595 72.4888 49.5788 73.0455 49.9018 72.6479V72.5684C50.1441 72.0912 50.3056 72.4888 50.4671 72.4888C50.3056 72.8069 50.1441 72.7274 50.0633 72.8865C50.1441 73.2046 50.6286 73.0455 50.9516 72.4093C51.0324 72.5684 51.1131 72.807 50.9516 73.0455C51.2746 73.2046 51.2746 72.1707 51.5169 72.4093L51.3554 72.8865C51.5169 73.6817 52.0822 72.4093 52.2437 73.0455L52.4052 72.4888C52.4052 72.7274 52.486 72.8865 52.486 73.1251L52.3245 73.2841C52.3245 73.8408 52.5667 72.807 52.6475 73.2046C52.6475 73.0455 52.6475 72.5684 52.6475 72.4093C51.9207 72.6479 51.5169 71.6936 50.7901 72.0912C50.7901 72.1707 50.7901 72.2503 50.7901 72.3298C50.7901 72.1707 50.6286 72.3298 50.7093 72.0117C50.5478 72.0912 50.5478 71.3755 50.4671 71.2959C50.3056 71.6936 50.1441 71.0574 50.0633 71.7731V71.2959C49.9826 71.5345 49.9018 71.8526 49.821 72.0117C49.7403 71.9322 49.821 71.6936 49.9018 71.5345C49.5788 71.1369 49.0135 71.0574 48.529 71.1369L48.7712 70.8188C48.6905 70.6597 48.2059 71.2959 48.529 70.5007C48.2059 70.7392 48.0444 70.103 47.7214 70.9778C47.8829 70.103 47.3176 70.5007 46.9946 70.5007C46.8331 71.2164 46.6716 70.5802 46.5101 70.8983C46.6716 70.3416 46.9139 70.4211 47.0754 70.0235C46.5101 70.8188 46.5101 69.1487 45.864 70.5007C45.864 70.4211 45.864 70.3416 45.864 70.3416C45.7833 70.3416 45.864 70.0235 45.7833 69.944C45.6218 70.1826 45.7025 70.3416 45.541 70.3416C45.4603 70.2621 45.7025 69.8645 45.7025 69.7054C45.3795 69.944 44.9757 69.944 44.7335 70.5007C44.7335 70.3416 44.8142 69.944 44.895 69.8645C44.4104 70.1826 44.6527 69.6259 44.1682 69.7849C44.3297 69.7849 44.4912 69.2282 44.572 69.5463C44.7335 68.6716 44.0067 69.4668 43.9259 68.9897L43.6029 69.4668C43.4414 69.4668 43.6029 68.9897 43.7644 68.8306C43.6029 68.433 43.3606 68.6716 43.1991 68.592C43.1991 68.5125 43.2799 68.433 43.2799 68.433L43.0376 68.2739C42.9569 68.3535 42.7146 68.592 42.6338 68.9101C42.9569 68.6716 43.0376 68.5125 43.1184 68.8306Z" fill="#443730"/>
<path d="M42.7952 68.9102C42.7952 68.9897 42.7144 68.9897 42.7952 68.9102Z" fill="#443730"/>
<path d="M39.5651 68.5122C39.242 69.3074 39.8073 68.5122 39.8073 68.7507C39.6458 68.8303 39.4036 69.2279 39.3228 69.4665C39.9688 68.5917 39.4036 69.7846 39.8073 69.7051C39.6458 70.0232 39.4843 70.0232 39.3228 70.3413C39.5651 70.1822 39.8881 70.1822 40.2111 69.6255C40.4534 69.7051 40.5341 70.0232 40.7764 70.0232C40.4534 70.1822 40.4534 70.5799 40.1303 70.9775C40.6149 70.4208 41.4224 69.8641 42.0685 69.2279C41.8262 69.8641 41.8262 69.9437 41.5032 70.4208C41.6647 70.9775 41.8262 69.9437 42.0685 70.1822L41.9877 70.0232C42.23 69.9437 42.4722 69.3074 42.7145 68.9893L42.3107 68.9098C42.4722 68.5122 42.7145 68.6712 42.7953 68.5917C43.1183 68.1145 42.7953 68.1941 42.9568 67.7964C42.7953 68.1145 42.6338 67.9555 42.553 68.035L42.6338 67.7964C42.553 67.4783 42.23 68.035 42.0685 67.9555C42.0685 67.876 42.0685 67.876 42.1492 67.7964C41.9877 68.035 41.7454 68.2736 41.6647 68.3531H41.7454C41.3417 68.8303 40.8571 68.9893 40.7764 69.7051L40.5341 69.387C40.8571 68.8303 41.3417 67.9555 41.5839 68.035L41.7454 67.7964C41.7454 67.3988 41.0994 68.035 40.9379 68.5917C40.0496 69.8641 40.3726 68.3531 39.8073 68.8303C39.9688 68.4326 40.2111 68.3531 40.3726 68.1145C40.4534 68.1145 40.5341 68.1145 40.3726 68.4326C40.7764 68.3531 40.9379 67.2397 41.1802 67.5578C41.2609 67.7964 40.6149 68.035 40.8571 68.1941L41.5839 67.2397C41.4224 67.1602 41.1802 67.3193 41.0187 67.3193C39.9688 67.6374 39.7266 66.7626 39.7266 66.7626C38.596 66.2854 37.5462 65.8083 36.4964 65.2516C36.0926 65.172 36.0118 65.0925 35.2043 65.8878C35.1235 66.1264 35.3658 66.2059 35.1235 66.4445C35.4466 66.1264 35.6888 66.0468 35.7696 66.1264C35.5273 66.4445 35.5273 66.2059 35.5273 66.2854V66.3649C35.3658 66.524 35.285 66.6035 35.2043 66.6035C35.0428 67.2397 35.4466 67.3988 36.0926 66.8421C36.0118 67.3193 35.6081 67.3193 35.3658 67.5578C35.7696 68.1941 36.1734 68.3531 36.7386 68.7507C37.1424 68.1145 37.0617 68.3531 37.3847 68.035L37.3039 68.2736C37.3847 68.1145 37.7077 67.7169 37.6269 67.5578C37.6269 68.2736 38.5152 66.9216 38.919 66.7626L38.6768 67.0807C38.919 67.1602 38.919 67.1602 39.242 67.0807C39.1613 67.876 38.919 67.0012 38.5152 67.876L38.6768 67.7964C38.4345 68.1145 38.1115 68.5917 37.8692 68.7507C38.4345 68.3531 38.1922 69.2279 38.7575 68.9893C38.5152 69.3074 38.0307 69.4665 37.95 69.4665C38.0307 69.546 38.3537 69.387 38.1922 69.7846L38.4345 69.3074C38.6768 69.387 38.1922 69.7051 38.0307 70.0232C38.6768 70.2618 39.0805 68.5917 39.5651 68.5122Z" fill="#443730"/>
<path d="M44.0873 70.898C44.0873 70.8185 44.0065 70.8185 43.9258 70.898C43.9258 70.898 44.0065 70.898 44.0873 70.898Z" fill="#443730"/>
<path d="M42.7145 71.4546C42.7145 71.5341 42.6338 71.6136 42.6338 71.6136C42.7145 71.6136 42.7145 71.5341 42.7145 71.4546Z" fill="#443730"/>
<path d="M42.3914 72.0914C42.4721 71.8528 42.5529 71.8528 42.7144 71.6143C42.5529 71.7733 42.3914 71.6938 42.3914 72.0914Z" fill="#443730"/>
<path d="M55.5545 74.318C55.5545 74.0794 55.4738 73.5227 55.3123 73.9999C55.4738 73.9203 55.3123 74.6361 55.5545 74.318Z" fill="#443730"/>
<path d="M54.424 73.6817L54.6663 74.0793C54.5855 74.7155 54.5048 74.2384 54.3433 74.5565C54.5855 74.7155 54.5855 74.4769 54.8278 74.1588C54.9085 74.2384 55.0701 73.9202 55.1508 73.7612C54.6663 74.1588 54.9085 72.5683 54.424 73.6817Z" fill="#443730"/>
<path d="M54.9891 74.4768L55.0699 74.1587L54.8276 74.3973L54.9891 74.4768Z" fill="#443730"/>
<path d="M53.7778 72.8863C53.697 72.091 53.374 73.2044 53.2125 72.8863C53.2125 72.8863 53.2125 72.8068 53.2933 72.7272L53.1318 72.8068V72.6477C53.051 73.1249 52.8087 73.2044 52.6472 73.602C52.728 74.1587 52.8895 73.0454 52.8895 73.602C52.8087 73.7611 52.728 74.0792 52.6472 74.2383C52.8087 73.9997 52.8895 73.7611 52.9702 73.5225C53.1317 73.5225 53.051 73.7611 52.9702 73.9201C53.1317 73.6816 53.2933 73.0454 53.4548 73.2044C53.5355 73.602 53.2933 73.8406 53.5355 73.6816C53.5355 72.9658 53.7778 73.8406 53.9393 73.3635C54.1008 73.5225 54.1008 73.9997 54.0201 74.2383C54.1008 73.6816 54.3431 73.2044 54.5046 73.0454L54.1008 73.443V72.8068C54.0201 73.1249 53.9393 73.0453 53.7778 72.8863Z" fill="#443730"/>
<path d="M52.728 74.1587L52.6472 74.2382C52.6472 74.2382 52.6472 74.2382 52.728 74.1587Z" fill="#443730"/>
<path d="M54.1008 74.3975L54.02 74.5565V74.7156L54.1008 74.3975Z" fill="#443730"/>
<path d="M52.4858 74.5565C52.4858 74.5565 52.5665 74.3974 52.5665 74.3179L52.405 74.636L52.4858 74.5565Z" fill="#443730"/>
<path d="M52.3242 74.1589V73.7612L52.2434 73.9998L52.3242 74.1589Z" fill="#443730"/>
<path d="M48.5288 72.807C48.6096 73.0456 48.6903 72.648 48.8518 72.3299C48.6903 72.1708 48.6903 72.648 48.5288 72.807Z" fill="#443730"/>
<path d="M45.9446 72.5685C45.9446 72.8867 46.2676 72.489 46.3484 72.5685C46.3484 72.33 46.1061 72.4095 45.9446 72.5685Z" fill="#443730"/>
<path d="M44.3293 73.6818C44.4101 73.5227 44.4909 73.5227 44.4101 73.4432L44.8139 72.7274C44.8139 72.3298 44.4909 73.3637 44.3293 73.6818Z" fill="#443730"/>
<path d="M43.1182 73.2839L43.4412 73.0453L43.3604 72.9658C43.5219 72.6477 43.6027 72.5682 43.7642 72.3296C43.6027 72.4886 43.3604 72.7272 43.1182 73.2839Z" fill="#443730"/>
<path d="M44.0065 72.3296H43.9257C43.9257 72.4091 43.845 72.5682 44.0065 72.3296Z" fill="#443730"/>
<path d="M43.845 72.3297C43.9257 72.3297 43.845 72.4092 43.845 72.3297C43.9257 72.2501 43.9257 72.2501 43.845 72.3297Z" fill="#443730"/>
<path d="M43.1182 72.8866L42.7952 72.8071L42.8759 72.9662C43.0374 72.5685 42.8759 73.3638 43.1182 72.8866Z" fill="#443730"/>
<path d="M41.5838 71.773L41.7453 71.2958C41.5838 71.1368 40.857 71.9321 41.0992 71.2163C41.0992 71.5344 40.6955 71.6139 40.857 71.8525C41.18 71.5344 41.503 71.6139 41.5838 71.773Z" fill="#443730"/>
<path d="M41.1799 70.7391C41.2606 70.6596 41.2606 70.5005 41.3414 70.3415C41.2606 70.262 41.0991 70.421 41.0991 70.6596C41.3414 70.1029 40.9376 71.1368 41.1799 70.7391Z" fill="#443730"/>
<path d="M40.2111 70.3416C40.2919 70.3416 40.3726 70.3416 40.3726 70.1825C40.2111 70.103 39.9688 70.6597 39.7266 70.8982C39.7266 71.2959 40.2111 70.6597 40.2111 70.3416Z" fill="#443730"/>
<path d="M38.9189 69.5461V69.7051L39.242 69.1484L38.9189 69.5461Z" fill="#443730"/>
<path d="M37.7075 69.3076L37.3845 69.6257H37.6268L37.7075 69.3076Z" fill="#443730"/>
<path d="M37.546 69.1484L37.3845 69.0688V69.2279C37.3845 69.387 37.546 69.0688 37.546 69.1484Z" fill="#443730"/>
<path d="M37.0615 68.9101C37.1423 68.9101 37.0615 68.9896 37.0615 68.9896L37.3846 68.8306L37.0615 68.9101Z" fill="#443730"/>
</g>
</g>
</svg>
