<svg width="177" height="168" viewBox="0 0 177 168" fill="none" xmlns="http://www.w3.org/2000/svg">
<path d="M14.7876 164.64C14.7876 164.64 7.68119 166.708 27.0624 167.344C46.4436 167.98 148.68 168.299 159.178 167.344C169.676 166.39 190.188 166.947 162.973 164.64C135.759 162.334 107.817 163.686 80.4415 162.334C53.1463 160.982 18.9061 162.255 14.7876 164.64Z" fill="#1B1C1E"/>
<path d="M128.41 152.87C128.41 152.87 134.87 161.857 149.891 160.028C166.123 158.04 178.155 139.112 174.602 119.946C171.049 100.78 150.618 95.77 139.07 102.45C127.522 109.131 126.876 119.946 130.752 128.535C130.671 128.456 127.118 149.61 128.41 152.87Z" fill="#FBAF5E"/>
<path d="M130.671 128.456C130.671 128.456 135.435 136.806 146.337 134.977C157.159 133.148 156.109 119.867 150.779 117.64" stroke="#1B1C1E" stroke-width="1.2604" stroke-miterlimit="10" stroke-linecap="round" stroke-linejoin="round"/>
<mask id="mask0_37_4992" style="mask-type:luminance" maskUnits="userSpaceOnUse" x="128" y="99" width="48" height="62">
<path d="M128.41 152.87C128.41 152.87 134.87 161.857 149.891 160.028C166.123 158.04 178.155 139.112 174.602 119.946C171.049 100.78 150.618 95.77 139.07 102.45C127.522 109.131 126.876 119.946 130.752 128.535C130.671 128.456 127.118 149.61 128.41 152.87Z" fill="white"/>
</mask>
<g mask="url(#mask0_37_4992)">
<path d="M130.267 153.188C130.348 153.109 130.348 152.95 130.429 152.87C130.509 152.95 130.509 153.029 130.267 153.188Z" fill="#322015"/>
<path d="M139.069 159.869L138.989 160.266C138.908 160.028 138.908 159.948 139.069 159.869Z" fill="#322015"/>
<path d="M132.125 151.041C132.125 150.882 132.205 150.803 132.448 150.564L132.125 151.041Z" fill="#322015"/>
<path d="M133.982 150.962C134.063 150.962 134.143 150.882 134.143 150.882C134.063 150.962 134.063 150.962 133.982 150.962Z" fill="#322015"/>
<path d="M130.187 153.268C130.267 153.188 130.267 153.188 130.348 153.188C130.267 153.268 130.187 153.268 130.187 153.268Z" fill="#322015"/>
<path d="M127.36 146.588C128.571 146.429 127.36 146.19 128.41 145.951C128.167 146.19 128.087 146.429 128.652 146.349C129.217 146.031 128.49 145.951 129.46 145.713L129.137 146.111C129.621 146.19 130.348 145.713 130.348 145.951C129.056 146.508 131.075 146.588 130.913 146.826L130.994 146.667C131.236 146.747 131.478 146.826 131.721 146.826H131.801C131.721 146.826 131.64 146.906 131.559 146.906C132.286 146.826 132.77 146.985 132.77 147.303C132.044 147.701 132.851 148.258 132.286 148.655C132.447 148.496 132.367 148.337 132.124 148.258L131.236 148.576C131.398 148.814 132.044 148.258 131.64 148.735C130.429 149.133 131.478 148.337 131.236 148.178C130.994 148.337 130.832 148.576 130.752 148.735C130.509 148.337 130.025 148.099 131.075 147.383C130.752 147.383 130.267 147.542 130.186 147.701C130.752 147.144 129.46 147.701 129.944 147.224C128.894 147.622 129.54 148.019 129.056 148.496C130.025 148.576 129.46 149.371 129.46 149.928C130.267 149.61 130.832 149.053 131.317 148.973C132.044 149.133 131.075 149.53 130.752 150.007C131.155 150.166 132.044 149.451 132.367 149.848L132.77 149.371C133.982 149.053 132.447 149.769 132.77 149.848C132.447 149.928 132.205 150.087 132.124 149.848C131.721 150.007 131.64 150.246 131.64 150.405H131.559C131.075 150.803 130.509 151.121 130.913 151.28C131.478 150.803 131.478 151.28 131.882 151.121L131.963 150.962C131.882 151.28 132.124 151.439 132.044 151.598L132.205 151.518C132.044 151.836 131.317 152.314 131.64 152.473C131.963 152.234 132.609 151.518 132.609 151.836C133.013 151.518 132.932 151.2 132.609 151.121C132.932 151.2 133.74 150.882 133.659 150.564C134.305 150.246 133.578 150.962 133.901 150.882C133.74 150.962 133.497 151.121 133.336 151.2C134.143 150.723 133.74 151.598 133.174 151.996L133.417 151.439C132.77 151.836 132.609 152.393 132.205 152.552C133.255 151.996 132.205 153.586 133.094 153.109L132.528 153.347C133.255 153.586 132.528 154.938 132.77 155.654C132.851 155.256 133.82 154.381 133.174 154.381C133.74 154.699 134.224 153.666 134.87 153.427C135.516 153.427 134.143 154.381 133.982 154.779L133.901 154.381C133.497 155.018 133.82 155.177 134.143 155.336C134.466 155.495 134.87 155.574 134.87 156.131C135.193 155.892 134.951 155.892 134.951 155.733C135.678 155.336 135.032 156.051 135.032 156.369C135.355 156.449 135.839 156.449 136.324 155.574C136.727 155.574 135.92 155.972 135.92 156.369L136.081 156.21C135.92 156.529 135.839 156.926 135.758 157.244C136.162 157.165 136.808 157.006 137.374 156.29C137.777 156.767 136.404 158.199 136.647 158.755C137.131 158.517 136.97 158.119 137.131 157.801L137.454 158.119C137.858 157.165 137.293 157.403 137.939 156.449C137.616 157.642 138.181 157.006 138.181 157.881L138.262 158.119C138.02 158.914 138.746 158.676 138.989 158.994C139.15 158.517 138.827 158.358 138.746 158.04C139.231 157.881 139.715 158.517 139.554 159.63C139.796 159.551 140.361 159.312 140.281 158.835C140.927 158.914 139.958 160.346 140.604 160.266L140.927 159.471C141.896 158.596 141.734 160.903 142.623 160.107L142.38 161.062C142.623 160.664 142.946 160.584 143.107 160.266L142.946 159.869C143.43 159.153 143.026 160.743 143.43 160.266C143.349 160.584 142.865 161.141 142.784 161.459C142.219 160.982 141.573 160.982 140.846 160.903C140.523 160.823 140.2 160.823 139.877 160.664C139.554 160.505 139.312 160.266 139.15 159.869C139.231 159.789 139.392 159.71 139.392 159.471C139.15 159.63 139.069 159.312 138.827 159.789V159.869C138.585 159.551 137.777 160.425 137.535 160.346C137.777 159.71 136.727 160.187 137.454 159.312L136.889 159.789C137.05 159.392 137.374 158.914 137.374 158.676C137.131 158.596 136.889 158.994 136.889 159.392C136.324 159.392 135.839 159.073 135.435 158.755C135.032 158.437 134.628 158.04 134.386 157.562L134.224 158.119C133.82 158.199 134.224 156.847 133.417 158.04C133.417 157.324 132.124 157.324 133.174 156.369C132.528 156.767 132.205 156.608 132.044 156.369C131.882 156.051 131.801 155.574 131.64 155.256C132.69 154.54 131.559 154.62 131.963 154.143C131.155 154.62 131.478 155.177 130.994 155.574C131.317 154.858 130.832 154.62 130.509 154.302C130.106 154.063 129.863 153.666 130.832 152.95C130.671 152.95 130.59 152.95 130.59 153.029C130.509 152.95 130.025 152.95 129.863 152.95C130.186 152.632 130.509 152.791 130.509 152.473C130.267 152.314 129.783 152.791 129.46 152.791C129.702 152.075 129.621 151.28 130.429 150.803C130.106 150.803 129.54 150.882 129.46 151.121C129.863 150.166 129.056 150.484 129.217 149.61C129.298 149.848 128.248 150.087 128.813 150.325C128.087 150.485 128.006 150.166 128.087 149.769C128.087 149.371 128.167 148.973 127.764 148.814L128.571 148.337C128.571 147.94 127.764 148.178 127.521 148.496C126.795 148.019 127.279 147.542 127.118 147.065C127.037 147.065 126.875 147.144 126.875 147.224C126.795 146.985 126.714 146.747 126.714 146.508C126.956 146.349 127.279 146.031 127.844 145.951C127.198 146.111 126.956 146.349 127.36 146.588Z" fill="#322015"/>
<path d="M133.255 149.928C133.013 150.007 132.932 150.007 132.852 150.007C133.013 149.928 133.175 149.928 133.255 149.928Z" fill="#322015"/>
<path d="M128.572 139.669C129.944 139.748 128.329 140.066 128.733 140.305C128.895 140.066 129.702 140.066 130.106 140.066C128.329 140.464 130.429 140.464 130.106 141.021C130.671 141.021 130.752 140.703 131.398 140.623C130.994 140.941 130.752 141.418 129.783 141.577C129.783 142.134 130.187 142.452 130.106 142.77C130.429 142.373 131.075 142.611 131.882 142.214C130.752 142.691 129.541 143.725 128.248 144.599C129.298 144.52 129.46 144.52 130.429 144.202C131.236 144.679 129.46 144.599 129.944 145.156L129.702 144.918C129.46 145.236 128.41 145.474 127.764 145.713V144.918C127.037 145.077 127.279 145.554 127.118 145.713C126.31 146.11 126.391 145.395 125.745 145.633C126.31 145.395 126.068 145.077 126.23 144.838H125.826C125.341 144.52 126.31 144.122 126.23 143.804C126.149 143.804 125.987 143.804 125.987 143.804C126.391 143.645 126.956 143.407 127.118 143.168V143.327C128.006 142.929 128.572 142.214 129.621 142.532L129.218 141.816C128.168 141.975 126.633 142.293 126.553 142.77L126.149 142.85C125.503 142.532 126.876 141.736 127.764 141.896C130.267 141.339 127.764 140.703 128.814 140.066C128.087 140.066 127.845 140.385 127.36 140.544C127.279 140.703 127.279 140.862 127.845 140.862C127.522 141.657 125.664 140.862 125.987 141.657C126.391 142.055 127.037 141.021 127.199 141.657C126.553 141.816 125.987 142.055 125.341 142.293C125.341 141.896 125.664 141.498 125.826 141.18C126.391 140.225 126.472 139.589 126.31 139.033C126.23 138.555 125.907 138.237 125.907 138.237C126.149 135.692 126.553 133.227 127.118 130.921C127.522 130.205 127.441 129.887 129.379 129.967C129.702 130.205 129.46 130.603 130.187 130.523C129.46 130.523 129.056 130.682 129.056 131.08C129.702 131.239 129.46 130.762 129.621 130.921V131C129.944 131 130.187 131 130.267 130.841C131.236 131.398 130.913 132.193 129.541 132.273C130.187 132.67 130.671 132.193 131.236 132.114C131.64 133.386 131.398 134.181 131.398 135.374C130.187 135.295 130.59 135.454 129.783 135.533L130.187 135.692C129.944 135.613 129.137 135.772 128.895 135.454C129.783 136.249 127.199 136.17 126.714 136.726H127.36C127.199 137.124 127.199 137.283 126.876 137.601C128.006 138.317 127.118 137.044 128.652 137.283L128.41 137.442C128.975 137.363 130.106 137.283 130.51 137.044C129.46 137.601 130.913 137.919 130.106 138.555C130.833 138.476 131.317 137.919 131.398 137.76C131.479 137.999 130.994 138.396 131.64 138.396L130.752 138.476C130.671 138.874 131.559 138.396 132.125 138.555C131.802 139.669 129.137 138.874 128.572 139.669Z" fill="#322015"/>
<path d="M130.913 149.133C130.833 149.053 130.833 148.974 130.833 148.814C130.913 148.894 130.913 148.974 130.913 149.133Z" fill="#322015"/>
<path d="M131.882 146.826C131.963 146.747 132.125 146.747 132.205 146.667C132.125 146.747 131.963 146.826 131.882 146.826Z" fill="#322015"/>
<path d="M133.013 146.349C132.609 146.429 132.609 146.508 132.206 146.747C132.367 146.508 132.286 146.27 133.013 146.349Z" fill="#322015"/>
<path d="M155.059 158.358C155.14 158.596 155.382 158.835 155.301 159.073L154.897 158.755L155.059 158.358Z" fill="#322015"/>
<path d="M154.413 159.312L154.09 159.63L153.848 158.437C154.171 158.517 154.009 159.312 154.413 159.312Z" fill="#322015"/>
<path d="M153.363 160.028L153.444 160.346C153.363 160.187 153.363 160.107 153.363 160.028Z" fill="#322015"/>
<path d="M153.363 159.471L153.202 158.596L153.686 159.232L153.525 159.391C153.525 159.71 153.444 159.789 153.363 159.948L153.202 159.312C153.282 159.471 153.363 159.63 153.363 159.471Z" fill="#322015"/>
<path d="M152.959 159.471C152.959 159.391 152.959 159.312 152.959 159.232C153.04 159.312 153.04 159.391 152.959 159.471Z" fill="#322015"/>
<path d="M152.071 160.982C152.152 160.664 151.99 160.187 151.99 159.869C152.394 159.55 152.313 160.823 152.636 160.425C152.152 159.71 152.798 159.948 152.959 159.471C152.879 160.266 152.636 160.823 152.313 161.061V160.505C152.071 160.425 152.152 160.823 152.071 160.982Z" fill="#322015"/>
<path d="M150.214 159.63L150.456 160.425C150.537 160.028 151.021 160.028 151.021 159.232C151.183 159.391 151.183 159.71 151.264 159.948C151.425 159.551 151.506 159.232 151.667 159.789C150.941 160.346 151.183 160.505 150.537 160.743C150.537 160.902 150.618 160.902 150.698 160.902L150.295 161.3C150.295 160.346 149.81 160.187 150.214 159.63Z" fill="#322015"/>
<path d="M149.648 160.187C149.971 160.266 150.052 161.062 149.891 161.539L149.245 160.823C149.406 160.823 149.648 160.982 149.648 160.187Z" fill="#322015"/>
<path d="M149.164 160.107C149.002 160.505 148.679 161.38 148.599 160.584C148.922 160.743 148.841 159.55 149.164 160.107Z" fill="#322015"/>
<path d="M146.822 160.584L147.549 160.187C147.791 159.153 147.306 159.789 147.226 159.312C147.791 159.153 147.549 159.471 147.872 160.187C148.033 160.107 148.195 160.743 148.356 161.061C147.549 160.107 147.145 162.572 146.822 160.584Z" fill="#322015"/>
<path d="M148.195 159.71V160.187L147.953 159.789L148.195 159.71Z" fill="#322015"/>
<path d="M145.126 161.459C144.48 162.572 144.561 160.584 143.996 161.061C143.996 161.141 143.996 161.221 143.996 161.38L143.673 161.141L143.592 161.38C143.834 160.664 143.511 160.266 143.511 159.71C144.077 159.073 143.43 160.664 143.996 159.948C143.996 159.63 144.077 159.073 144.077 158.835C144.157 159.232 144.077 159.71 144.077 160.107C144.319 160.266 144.319 159.789 144.4 159.55C144.561 160.028 144.319 161.061 144.723 160.902C145.126 160.346 144.803 159.869 145.207 160.266C144.723 161.38 145.692 160.187 145.692 160.982C146.095 160.823 146.418 160.107 146.418 159.71C146.257 160.584 146.418 161.459 146.58 161.698L146.176 160.823L145.772 161.857C145.53 161.3 145.288 161.3 144.965 161.38L145.126 161.459Z" fill="#322015"/>
<path d="M144.076 158.755C144.076 158.676 144.076 158.596 143.996 158.517C144.076 158.517 144.076 158.596 144.076 158.755Z" fill="#322015"/>
<path d="M146.66 159.312L146.58 159.073L146.741 158.835L146.66 159.312Z" fill="#322015"/>
<path d="M144.076 157.96C144.157 157.96 144.076 158.278 143.996 158.278V157.801L144.076 157.96Z" fill="#322015"/>
<path d="M143.592 158.517L143.188 159.073L143.269 158.517H143.592Z" fill="#322015"/>
<path d="M136.728 155.892C137.132 155.733 136.647 156.29 136.405 156.767C136.001 156.608 136.808 156.21 136.728 155.892Z" fill="#322015"/>
<path d="M134.305 152.075C134.87 151.995 134.386 152.632 134.547 152.791C134.063 152.791 134.063 152.393 134.305 152.075Z" fill="#322015"/>
<path d="M135.516 149.292C135.355 149.451 135.274 149.61 135.113 149.53L134.063 150.405C133.497 150.246 134.951 149.53 135.516 149.292Z" fill="#322015"/>
<path d="M134.87 147.542L134.547 148.019L134.466 147.86C133.982 148.099 133.82 148.258 133.417 148.576C133.578 148.258 133.982 147.86 134.87 147.542Z" fill="#322015"/>
<path d="M133.255 148.974C133.255 148.894 133.255 148.894 133.255 148.814C133.497 148.814 133.659 148.735 133.255 148.974Z" fill="#322015"/>
<path d="M133.255 148.735C133.336 148.735 133.336 148.656 133.417 148.656C133.417 148.735 133.336 148.815 133.336 148.894C133.174 148.894 133.094 148.894 133.255 148.735Z" fill="#322015"/>
<path d="M134.143 147.622C134.143 147.463 134.062 147.304 134.062 147.065L134.386 147.144C133.659 147.463 134.951 147.224 134.143 147.622Z" fill="#322015"/>
<path d="M132.609 145.077L131.802 145.156C131.559 144.838 133.174 144.043 131.882 144.043C132.367 144.122 132.69 143.566 133.013 143.963C132.367 144.361 132.367 144.838 132.609 145.077Z" fill="#322015"/>
<path d="M131.156 143.963C130.913 144.043 130.752 143.963 130.51 143.963C130.429 143.804 130.752 143.645 131.075 143.645C130.106 143.963 131.802 143.725 131.156 143.963Z" fill="#322015"/>
<path d="M130.994 142.214C130.994 142.293 130.913 142.452 130.671 142.373C130.671 142.055 131.559 142.055 132.124 141.816C132.69 141.975 131.478 142.373 130.994 142.214Z" fill="#322015"/>
<path d="M130.671 139.51L130.833 139.589L129.783 139.669L130.671 139.51Z" fill="#322015"/>
<path d="M131.236 137.442L131.882 137.203L131.802 137.601L131.236 137.442Z" fill="#322015"/>
<path d="M131.075 137.044L131.155 136.726L131.398 136.885C131.64 137.044 131.075 136.965 131.075 137.044Z" fill="#322015"/>
<path d="M131.317 136.01C131.236 136.01 131.398 136.09 131.479 136.09L130.994 136.408L131.317 136.01Z" fill="#322015"/>
<path d="M127.683 129.887C126.956 129.887 127.441 129.569 127.36 129.49C127.522 129.49 128.329 129.808 127.683 129.887Z" fill="#322015"/>
</g>
<path d="M31.5038 119.151L28.8389 157.006C28.8389 157.006 37.3181 153.984 40.7099 151.757C44.1016 149.53 47.4125 123.366 47.4125 123.366C47.4125 123.366 30.5347 119.867 31.5038 119.151Z" fill="#FFF0DD"/>
<mask id="mask1_37_4992" style="mask-type:luminance" maskUnits="userSpaceOnUse" x="28" y="119" width="20" height="39">
<path d="M31.5038 119.151L28.8389 157.006C28.8389 157.006 37.3181 153.984 40.7099 151.757C44.1016 149.53 47.4125 123.366 47.4125 123.366C47.4125 123.366 30.5347 119.867 31.5038 119.151Z" fill="white"/>
</mask>
<g mask="url(#mask1_37_4992)">
<g opacity="0.58">
<path d="M36.2687 126.865C36.2687 126.945 36.188 126.945 36.188 127.024C36.188 127.024 36.188 127.024 36.2687 126.865Z" fill="#322015"/>
<path d="M33.2002 123.923L33.3617 123.764C33.3617 123.843 33.281 123.923 33.2002 123.923Z" fill="#322015"/>
<path d="M35.3803 128.217C35.3803 128.297 35.2995 128.376 35.2188 128.456L35.3803 128.217Z" fill="#322015"/>
<path d="M34.4113 128.535L34.3306 128.615C34.3306 128.535 34.4113 128.535 34.4113 128.535Z" fill="#322015"/>
<path d="M39.0142 129.728C39.0949 129.808 39.0142 129.808 39.0142 129.728Z" fill="#322015"/>
<path d="M38.7723 133.068L38.6108 133.227C38.6916 133.148 38.7723 133.148 38.7723 133.068Z" fill="#322015"/>
<path d="M39.4987 128.933C39.4987 129.013 39.418 129.013 39.418 129.092C39.418 129.013 39.418 129.013 39.4987 128.933Z" fill="#322015"/>
<path d="M32.3115 122.65C32.3115 122.571 32.3115 122.571 32.3115 122.491C32.3923 122.491 32.3923 122.571 32.3115 122.65Z" fill="#322015"/>
<path d="M38.2876 128.774C37.803 129.251 38.3683 128.933 37.8838 129.331C37.9645 129.172 37.9645 129.013 37.7223 129.251C37.48 129.569 37.8838 129.331 37.48 129.808L37.5608 129.569C37.3185 129.728 37.0762 130.126 37.0762 130.046C37.5608 129.41 36.5917 130.046 36.5917 129.887V129.967L36.1879 130.126L36.2687 130.046C35.9457 130.285 35.6226 130.364 35.6226 130.205C35.8649 129.887 35.3804 129.728 35.6226 129.49C35.6226 129.649 35.6227 129.649 35.7842 129.649L36.1879 129.251C36.1072 129.172 35.7842 129.569 35.9457 129.251C36.511 128.774 36.1072 129.41 36.1879 129.41C36.2687 129.251 36.3494 129.172 36.3494 129.013C36.511 129.172 36.834 129.092 36.3494 129.728C36.511 129.649 36.6725 129.41 36.7532 129.331C36.5917 129.728 37.157 129.092 36.9147 129.49C37.3993 129.013 36.9955 129.013 37.157 128.694C36.6725 128.933 36.834 128.456 36.7532 128.217C36.3494 128.535 36.1879 128.933 35.9457 129.092C35.5419 129.172 36.0264 128.774 36.1072 128.456C35.8649 128.456 35.4611 129.013 35.2996 128.853L35.1381 129.172C34.4921 129.569 35.2189 128.933 35.0574 128.933C35.2189 128.853 35.3804 128.694 35.3804 128.774C35.5419 128.615 35.6226 128.456 35.6226 128.456C35.8649 128.217 36.1072 127.899 35.8649 127.979C35.6226 128.297 35.5419 128.138 35.3804 128.217V128.297C35.3804 128.138 35.2996 128.058 35.2996 127.979L35.2189 128.058C35.2996 127.899 35.6226 127.502 35.4611 127.502C35.2996 127.661 34.9766 128.138 34.9766 127.979C34.7343 128.217 34.8151 128.297 34.9766 128.297C34.8151 128.297 34.4113 128.615 34.4921 128.694C34.1691 128.933 34.4921 128.456 34.3306 128.535C34.4113 128.456 34.4921 128.376 34.5728 128.297C34.1691 128.615 34.3306 128.138 34.6536 127.899L34.4921 128.217C34.8151 127.899 34.8959 127.661 35.1381 127.502C34.5728 127.899 35.1381 127.024 34.6536 127.342L34.9766 127.183C34.6536 127.104 35.0574 126.468 35.0574 126.15C34.9766 126.388 34.4113 126.865 34.7343 126.786C34.4921 126.706 34.0883 127.183 33.7653 127.342C33.4423 127.342 34.2498 126.786 34.3306 126.627V126.786C34.8959 126.07 33.846 126.468 34.0883 125.911C33.9268 126.07 34.0075 126.07 34.0075 126.15C33.6038 126.309 34.0075 125.991 34.0883 125.831C33.9268 125.752 33.6845 125.752 33.3615 126.15C33.2 126.15 33.6038 125.991 33.6845 125.752L33.6038 125.831L34.0075 125.354C33.7653 125.354 33.4423 125.434 33.0385 125.672C32.9577 125.354 33.9268 124.798 33.9268 124.559C33.6038 124.639 33.6038 124.798 33.4423 124.957L33.3615 124.798C32.9577 125.195 33.2808 125.116 32.7155 125.593C33.2 125.036 32.7155 125.275 32.9577 124.877H33.0385C33.3615 124.48 32.9577 124.559 32.9577 124.4C32.7155 124.639 32.7962 124.718 32.7962 124.877C32.5539 124.877 32.4732 124.48 32.9577 124.002C32.7962 124.002 32.5539 124.002 32.3924 124.241C32.1502 124.082 33.0385 123.605 32.7155 123.525L32.3117 123.843C31.5849 124.002 32.4732 123.048 31.8272 123.207L32.3117 122.889C32.0694 122.969 31.9079 122.968 31.7464 123.048L31.6656 123.287C31.1811 123.446 31.9887 122.889 31.5849 122.969C31.7464 122.889 32.1502 122.73 32.3117 122.65C32.3117 123.287 33.3615 123.207 33.2 124.002C33.1192 124.002 33.0385 124.082 32.9577 124.161C33.1192 124.161 33.0385 124.32 33.2808 124.082V124.002C33.2808 124.161 33.9268 123.843 33.9268 123.923C33.6845 124.241 34.2498 124.082 33.6845 124.4L34.0883 124.241C33.9268 124.4 33.6038 124.639 33.6038 124.718C33.6845 124.798 33.9268 124.559 34.0075 124.4C34.4113 124.559 34.6536 124.877 34.7343 125.354L34.8959 125.116C35.0574 125.116 34.6536 125.752 35.2189 125.116C35.0574 125.434 35.7034 125.354 35.0574 125.911C35.7842 125.513 35.6226 125.991 35.7034 126.309C35.1381 126.706 35.7034 126.627 35.4611 126.865C35.8649 126.547 35.7842 126.309 36.0264 126.07C35.5419 126.865 36.9955 126.15 35.9457 127.183C36.0264 127.183 36.0264 127.104 36.1072 127.104C36.1072 127.104 36.3494 127.024 36.4302 127.024C36.2687 127.183 36.1072 127.183 36.1072 127.342C36.1879 127.342 36.4302 127.104 36.5917 126.945C36.511 127.263 36.5917 127.581 36.1879 127.979C36.3494 127.899 36.5917 127.74 36.6725 127.581C36.511 128.058 36.9147 127.74 36.9147 128.138C36.834 128.058 37.3185 127.661 37.0762 127.74C37.7223 127.263 37.3185 128.138 37.7223 128.058L37.3993 128.456C37.3993 128.615 37.803 128.297 37.8838 128.058C38.2876 127.979 38.1261 128.297 38.2876 128.456C38.3683 128.456 38.3683 128.376 38.3683 128.376L38.5298 128.535C38.4491 128.615 38.3683 128.933 38.1261 129.092C38.4491 128.933 38.5298 128.774 38.2876 128.774Z" fill="#322015"/>
<path d="M34.896 128.933C34.9768 128.853 35.0575 128.853 35.1383 128.853C34.9768 128.933 34.896 128.933 34.896 128.933Z" fill="#322015"/>
<path d="M39.4987 131.478C38.9334 132.034 39.4179 131.239 39.2564 131.398C39.2564 131.557 38.9334 131.875 38.7719 132.034C39.3372 131.16 38.5296 132.114 38.4488 131.716C38.2066 131.955 38.2873 132.114 38.0451 132.353C38.1258 132.034 38.0451 131.796 38.3681 131.398C38.2066 131.239 37.9643 131.239 37.8836 131.08C37.8836 131.398 37.5605 131.557 37.3183 131.955C37.6413 131.319 37.8836 130.523 38.2066 129.728C37.7221 130.126 37.7221 130.205 37.3183 130.603C36.8337 130.682 37.6413 130.126 37.3183 130.046H37.4798C37.4798 129.808 37.9643 129.41 38.2066 129.092L38.3681 129.41C38.6911 129.092 38.4488 129.012 38.5296 128.853C38.8526 128.456 38.9334 128.694 39.1756 128.376C38.9334 128.615 39.0949 128.694 39.0949 128.853L39.2564 128.694C39.4987 128.615 39.1756 129.092 39.2564 129.171C39.3371 129.092 39.3372 129.092 39.3372 129.092C39.1756 129.331 39.0141 129.569 39.0141 129.728V129.649C38.6911 130.126 38.6911 130.603 38.1258 130.921L38.5296 131.001C38.9334 130.523 39.4987 129.808 39.4179 129.649L39.5794 129.41C39.9024 129.251 39.5794 130.046 39.1756 130.364C38.2873 131.557 39.4987 130.762 39.3372 131.319C39.5794 131.001 39.5794 130.842 39.7409 130.603C39.7409 130.523 39.6602 130.523 39.4987 130.762C39.4179 130.364 40.387 129.887 40.0639 129.728C39.8217 129.808 39.8217 130.364 39.5794 130.205L40.2255 129.251C40.3062 129.331 40.3062 129.569 40.3062 129.808C40.3062 130.762 41.1138 130.603 41.1138 130.603C41.4368 130.921 41.8406 131.239 42.1636 131.637C42.4866 131.955 42.8904 132.273 43.2134 132.512C43.3749 132.75 43.4557 132.75 43.1326 133.784C42.9711 133.943 42.8096 133.784 42.7289 134.102C42.8904 133.705 42.8904 133.466 42.7289 133.466C42.4866 133.784 42.8096 133.705 42.6481 133.784H42.5674C42.4866 133.943 42.4058 134.102 42.4866 134.102C42.0021 134.5 41.7598 134.261 42.0021 133.545C41.6791 133.784 41.7598 134.102 41.679 134.42C41.033 134.341 40.71 134.102 40.2255 133.784C40.6292 133.227 40.4677 133.386 40.6292 132.989L40.4677 133.148C40.5485 133.068 40.7907 132.591 40.9523 132.591C40.387 132.83 41.1945 131.637 41.2753 131.239L41.033 131.557C40.9523 131.398 40.8715 131.398 40.8715 131.16C40.2255 131.557 41.033 131.398 40.387 132.034V131.875C40.2255 132.194 39.9024 132.671 39.8217 132.909C39.9832 132.273 39.3372 132.83 39.4179 132.273C39.1756 132.591 39.1756 132.989 39.2564 133.068C39.1756 133.068 39.1756 132.671 38.9334 132.989L39.2564 132.591C39.1756 132.432 39.0141 132.989 38.6911 133.148C38.2873 132.909 39.5794 131.955 39.4987 131.478Z" fill="#322015"/>
<path d="M36.188 128.853C36.2687 128.853 36.2687 128.933 36.2687 128.933C36.188 128.933 36.188 128.933 36.188 128.853Z" fill="#322015"/>
<path d="M36.1071 130.126C36.0264 130.206 36.0264 130.206 36.0264 130.285C36.0264 130.206 36.0264 130.126 36.1071 130.126Z" fill="#322015"/>
<path d="M35.6226 130.683C35.7841 130.523 35.7841 130.523 35.9456 130.285C35.8648 130.444 36.0263 130.523 35.6226 130.683Z" fill="#322015"/>
<path d="M28.6777 119.628L28.8392 119.549C28.7585 119.628 28.6777 119.628 28.6777 119.628Z" fill="#322015"/>
<path d="M29.4852 119.946C29.3237 120.026 29.0814 120.185 28.9199 120.264C28.6776 120.185 29.3237 119.867 29.0814 119.867C28.8391 120.264 28.7584 119.946 28.5161 119.946C29.0006 119.787 29.3237 119.708 29.4852 119.787L29.2429 119.946C29.1621 120.026 29.3237 119.946 29.4852 119.946Z" fill="#322015"/>
<path d="M29.1621 121.06L29.4851 120.742C29.2428 120.821 29.1621 120.662 28.7583 120.901C28.7583 120.821 29.0006 120.662 29.0813 120.583C28.8391 120.662 28.6776 120.662 28.9198 120.503C29.3236 120.662 29.4043 120.503 29.6466 120.662C29.7274 120.583 29.7274 120.583 29.6466 120.583H29.9696C29.4851 120.821 29.5659 120.98 29.1621 121.06Z" fill="#322015"/>
<path d="M29.6467 121.06C29.566 120.901 29.9698 120.662 30.212 120.583L30.0505 120.98C30.0505 120.901 29.9698 120.821 29.6467 121.06Z" fill="#322015"/>
<path d="M29.7274 121.219C29.9697 121.139 30.4542 120.98 30.1312 121.298C30.0504 121.139 29.4851 121.537 29.7274 121.219Z" fill="#322015"/>
<path d="M30.6157 121.855L30.2119 121.776C29.6467 122.014 30.1312 122.014 29.8889 122.173C29.6467 122.014 29.8889 122.014 30.1312 121.617C30.0504 121.617 30.2927 121.298 30.3734 121.139C30.1312 121.855 31.4233 121.06 30.6157 121.855Z" fill="#322015"/>
<path d="M29.8081 121.696L29.9696 121.616L29.8889 121.776L29.8081 121.696Z" fill="#322015"/>
<path d="M31.5041 122.014C32.2309 121.775 31.3426 122.491 31.6656 122.491C31.6656 122.491 31.7464 122.412 31.8271 122.332V122.491L31.9886 122.412C31.5849 122.65 31.5849 122.889 31.3426 123.127C30.8581 123.286 31.7464 122.73 31.2618 122.889C31.1003 123.048 30.8581 123.207 30.7773 123.366C30.9388 123.127 31.1003 122.968 31.2618 122.809C31.2618 122.73 31.0196 122.889 30.9388 122.968C31.1003 122.73 31.5849 122.412 31.4234 122.332C31.0196 122.412 30.9388 122.73 31.0196 122.491C31.6656 122.173 30.7773 122.412 31.1811 122.094C31.0196 122.014 30.6158 122.173 30.3735 122.332C30.8581 122.014 31.1811 121.696 31.2618 121.537L31.0196 122.014L31.5849 121.775C31.2618 121.935 31.4234 122.014 31.5041 122.014Z" fill="#322015"/>
<path d="M30.7775 123.366L30.6968 123.446C30.6968 123.446 30.7775 123.446 30.7775 123.366Z" fill="#322015"/>
<path d="M30.1314 122.412L30.0507 122.491L29.8892 122.571L30.1314 122.412Z" fill="#322015"/>
<path d="M30.5349 123.764L30.6964 123.605L30.4541 123.843L30.5349 123.764Z" fill="#322015"/>
<path d="M30.939 123.605L31.262 123.446L31.0197 123.684L30.939 123.605Z" fill="#322015"/>
<path d="M33.2806 126.07C33.0384 126.15 33.3614 125.831 33.6036 125.672C33.7652 125.752 33.2806 125.911 33.2806 126.07Z" fill="#322015"/>
<path d="M34.2499 127.979C33.9269 128.058 34.1692 127.74 34.0884 127.661C34.3307 127.581 34.3307 127.82 34.2499 127.979Z" fill="#322015"/>
<path d="M33.7651 129.649C33.8459 129.569 33.8459 129.489 33.9266 129.489L34.4112 128.853C34.7342 128.853 34.0074 129.41 33.7651 129.649Z" fill="#322015"/>
<path d="M34.4111 130.524L34.4919 130.205L34.5727 130.285C34.7342 130.046 34.8149 129.887 34.9764 129.728C34.9764 129.808 34.8149 130.126 34.4111 130.524Z" fill="#322015"/>
<path d="M34.9765 129.41C34.9765 129.49 34.9765 129.49 34.9765 129.41C34.8958 129.569 34.815 129.649 34.9765 129.41Z" fill="#322015"/>
<path d="M35.0571 129.569C34.9764 129.649 34.9764 129.569 35.0571 129.569C34.9764 129.569 34.9764 129.569 35.0571 129.569C35.1379 129.41 35.0571 129.49 35.0571 129.569Z" fill="#322015"/>
<path d="M34.7344 130.365L34.8959 130.603H34.7344C35.0574 130.285 34.4113 130.683 34.7344 130.365Z" fill="#322015"/>
<path d="M36.188 131.16L36.511 130.842C36.7533 130.921 36.188 131.796 36.7533 131.319C36.511 131.478 36.511 131.796 36.2687 131.716C36.511 131.319 36.3495 131.16 36.188 131.16Z" fill="#322015"/>
<path d="M37.1571 131.08C37.2379 130.921 37.3187 130.921 37.3994 130.842C37.4802 130.842 37.3994 131.08 37.2379 131.16C37.6417 130.683 36.9149 131.398 37.1571 131.08Z" fill="#322015"/>
<path d="M37.722 131.716C37.722 131.637 37.6413 131.557 37.8028 131.557C37.8836 131.716 37.5605 132.035 37.399 132.353C37.076 132.432 37.4798 131.796 37.722 131.716Z" fill="#322015"/>
<path d="M40.8717 129.967C40.6294 130.285 40.5487 130.126 40.6294 130.046C40.6294 130.046 40.7909 130.046 40.8717 129.967Z" fill="#322015"/>
<path d="M38.7722 132.432L38.6914 132.512L39.0952 132.034L38.7722 132.432Z" fill="#322015"/>
<path d="M39.3375 133.307L39.2567 133.705L39.0952 133.545L39.3375 133.307Z" fill="#322015"/>
<path d="M39.5794 133.386L39.6602 133.546L39.4987 133.625C39.4179 133.625 39.5794 133.386 39.5794 133.386Z" fill="#322015"/>
<path d="M39.9025 133.705C39.9025 133.625 39.8218 133.705 39.8218 133.784V133.466L39.9025 133.705Z" fill="#322015"/>
<path d="M43.3752 132.909C43.5367 132.512 43.5367 132.83 43.6174 132.75C43.5367 132.909 43.2137 133.307 43.3752 132.909Z" fill="#322015"/>
</g>
</g>
<path d="M22.7017 16.4817C22.7017 16.4817 8.00428 13.6188 5.74313 13.1416C3.48199 12.6644 -0.0712234 16.1636 1.46312 25.3887C2.99747 34.6139 7.92352 39.9422 14.2224 43.1232C20.5213 46.3043 21.1674 46.5429 21.4904 47.1791C21.8942 47.8153 24.0745 56.8814 23.913 57.6767C23.7515 58.4719 12.9303 77.3198 21.1674 103.882C29.4044 130.444 62.514 148.496 71.1548 151.836C71.1548 151.836 62.514 153.188 62.6755 164.958C62.6755 164.958 125.018 164.958 127.441 164.958C129.864 164.958 133.821 148.496 130.348 126.865C126.876 105.234 109.19 91.5551 99.2575 81.8528C89.3247 72.071 82.2182 60.301 78.342 49.2468C74.385 38.1926 73.4967 33.9776 72.6084 31.4328C72.6084 31.4328 71.6393 20.14 71.4778 14.4936C71.3163 8.84715 70.751 1.45115 66.471 0.337774C62.191 -0.775602 57.9109 3.43932 52.9041 9.56289C52.9041 9.40384 29.4044 3.3598 22.7017 16.4817Z" fill="#FFF0DD"/>
<mask id="mask2_37_4992" style="mask-type:luminance" maskUnits="userSpaceOnUse" x="58" y="129" width="14" height="23">
<path d="M71.9621 151.598C71.4776 151.757 71.2353 151.757 71.2353 151.757C68.6512 150.723 63.8059 148.417 58.0723 144.838C60.0911 139.748 62.1908 134.42 64.0481 129.887C65.9863 131.08 67.8436 132.193 69.6202 133.148C67.0361 144.44 71.9621 151.598 71.9621 151.598Z" fill="white"/>
</mask>
<g mask="url(#mask2_37_4992)">
<g opacity="0.58">
<path d="M59.6064 139.191C59.6872 139.191 59.768 139.112 59.768 139.112C59.768 139.191 59.6872 139.191 59.6064 139.191Z" fill="#322015"/>
<path d="M58.476 146.985H58.3145C58.3952 146.905 58.476 146.905 58.476 146.985Z" fill="#322015"/>
<path d="M61.1406 138.794C61.2214 138.714 61.3021 138.714 61.4636 138.635L61.1406 138.794Z" fill="#322015"/>
<path d="M61.7866 139.748C61.7866 139.748 61.8674 139.748 61.8674 139.828C61.8674 139.748 61.8674 139.748 61.7866 139.748Z" fill="#322015"/>
<path d="M61.3828 131.716C61.3828 131.636 61.3828 131.636 61.3828 131.557H61.4636C61.5443 131.636 61.4636 131.716 61.3828 131.716Z" fill="#322015"/>
<path d="M61.625 132.034L61.7057 131.954C61.625 131.954 61.625 132.034 61.625 132.034Z" fill="#322015"/>
<path d="M60.5757 132.193C60.6564 132.193 60.7372 132.193 60.818 132.193C60.7372 132.193 60.7372 132.272 60.5757 132.193Z" fill="#322015"/>
<path d="M58.1528 149.848C58.1528 149.927 58.0721 150.007 58.0721 150.086C57.9913 149.927 57.9913 149.848 58.1528 149.848Z" fill="#322015"/>
<path d="M60.8178 134.181C61.3831 134.42 60.8986 133.943 61.4639 134.102C61.3023 134.181 61.1408 134.261 61.4639 134.42C61.8676 134.42 61.5446 134.102 62.0291 134.181L61.7869 134.34C62.0291 134.579 62.4329 134.499 62.3522 134.579C61.6254 134.579 62.4329 135.295 62.2714 135.454L62.3522 135.374L62.5944 135.772C62.5137 135.772 62.5137 135.772 62.4329 135.772C62.7559 136.01 62.9174 136.249 62.7559 136.487C62.3522 136.487 62.4329 137.203 62.0291 137.283C62.1907 137.203 62.1907 137.124 62.1099 136.965L61.6254 136.885C61.5446 137.124 62.0291 137.044 61.7061 137.203C61.0601 136.965 61.7869 136.885 61.7869 136.726C61.6254 136.726 61.4639 136.806 61.3831 136.885C61.4639 136.567 61.3024 136.169 62.0291 136.09C61.9484 135.931 61.6254 135.931 61.5446 136.01C61.9484 135.851 61.2216 135.772 61.6254 135.613C60.9793 135.533 61.1408 136.01 60.8178 136.169C61.2216 136.567 60.6563 136.885 60.4948 137.203C60.8986 137.362 61.3831 137.203 61.6254 137.362C61.8676 137.76 61.3024 137.68 60.9793 137.76C61.0601 138.078 61.7061 137.999 61.6254 138.317L61.9484 138.158C62.5137 138.555 61.6254 138.317 61.7061 138.476C61.5446 138.396 61.3831 138.317 61.4639 138.158C61.2216 138.078 61.1408 138.237 61.0601 138.237V138.158C60.7371 138.158 60.414 138.078 60.4948 138.396C60.8986 138.317 60.7371 138.635 60.8986 138.794L60.9793 138.714C60.8178 138.873 60.8178 139.032 60.7371 139.191H60.8178C60.6563 139.271 60.1718 139.271 60.2525 139.43C60.414 139.43 60.9793 139.35 60.8986 139.51C61.2216 139.51 61.3024 139.35 61.2216 139.112C61.3024 139.35 61.7061 139.51 61.7869 139.271C62.1099 139.43 61.5446 139.43 61.7061 139.589C61.6254 139.51 61.4639 139.589 61.3831 139.51C61.8676 139.589 61.3024 139.987 60.9793 139.907L61.3023 139.748C60.8986 139.669 60.5756 139.907 60.414 139.748C60.9793 139.987 60.0103 140.305 60.4948 140.543L60.1718 140.384C60.2525 140.941 59.445 141.18 59.2027 141.657C59.445 141.498 60.091 141.657 59.9295 141.339C59.9295 141.816 60.5755 141.577 60.8986 141.816C61.0601 142.213 60.2525 141.895 60.0103 141.975L60.1718 141.736C59.3642 141.895 60.1718 142.691 59.6065 143.088C59.768 143.168 59.768 143.009 59.8488 142.929C60.1718 143.247 59.6872 143.168 59.5257 143.247C59.5257 143.486 59.6872 143.804 60.1718 143.724C60.2525 143.963 59.8488 143.645 59.6872 143.724L59.768 143.804L59.2027 143.963C59.2835 144.202 59.5257 144.52 60.0103 144.679C59.8488 145.156 58.8797 144.679 58.6374 144.997C58.8797 145.235 59.0412 144.997 59.2027 144.997L59.122 145.315C59.6872 145.315 59.445 144.997 60.091 145.076C59.3642 145.235 59.8488 145.395 59.3642 145.713H59.2835C58.7989 145.792 59.0412 146.269 58.9605 146.428C59.2027 146.349 59.2835 146.11 59.445 146.031C59.6065 146.269 59.2835 146.906 58.7182 147.065C58.7989 147.224 58.9605 147.542 59.2027 147.383C59.2027 147.86 58.3952 147.462 58.4759 147.939H58.8797C59.445 148.496 58.2337 148.814 58.7182 149.291H58.1529C58.3952 149.45 58.4759 149.609 58.6374 149.689L58.8797 149.45C59.2835 149.689 58.3952 149.609 58.7182 149.928C58.5567 149.928 58.2337 149.689 58.0721 149.689C58.4759 148.735 57.8299 147.701 58.4759 146.826C58.5567 146.906 58.6374 146.906 58.7182 146.906C58.6374 146.746 58.7989 146.587 58.4759 146.587H58.3952C58.5567 146.349 57.9106 146.031 57.9914 145.872C58.3952 145.792 57.9106 145.315 58.5567 145.554L58.2336 145.315C58.4759 145.315 58.7989 145.395 58.8797 145.315C58.8797 145.156 58.6374 145.076 58.4759 145.235C58.3144 144.52 58.5567 143.724 58.8797 143.088L58.5567 143.247C58.4759 143.088 59.2027 142.77 58.3952 142.77C58.7182 142.532 58.3952 141.816 59.122 141.975C58.3952 141.577 58.9605 141.1 59.2027 140.702C59.8488 140.941 59.445 140.384 59.768 140.305C59.2835 140.146 59.2027 140.543 58.7989 140.543C59.6873 140.225 58.5567 139.112 59.8488 139.191C59.8488 139.112 59.768 139.112 59.6872 139.112C59.6872 139.032 59.5257 138.873 59.445 138.714C59.6872 138.714 59.768 138.953 59.8488 138.714C59.8488 138.555 59.445 138.555 59.2835 138.476C59.6872 138.237 59.9295 137.76 60.414 137.76C60.3333 137.601 60.0103 137.442 59.9295 137.521C60.4948 137.124 60.0103 136.965 60.3333 136.567C60.2525 136.726 59.768 136.488 59.9295 136.806C59.2835 136.408 60.2525 136.01 60.0103 135.533L60.4948 135.454C60.6563 135.215 60.1718 135.056 60.0103 135.215C59.8488 134.738 60.1718 134.579 60.2525 134.261C60.1718 134.261 60.091 134.181 60.091 134.261L60.1718 133.784C60.3333 133.784 60.5755 133.625 60.8986 133.784C60.8986 133.863 60.6563 133.863 60.8178 134.181Z" fill="#322015"/>
<path d="M62.0292 138.635C61.9484 138.555 61.8677 138.476 61.8677 138.476C61.9484 138.555 61.9484 138.635 62.0292 138.635Z" fill="#322015"/>
<path d="M63.3211 129.728C63.9672 130.046 63.0789 129.966 63.2404 130.205C63.4019 130.046 63.8057 130.205 63.9672 130.284C62.9981 130.205 64.0479 130.602 63.7249 131C64.0479 131.08 64.1287 130.92 64.4517 131C64.1287 131.159 63.8864 131.477 63.4019 131.398C63.2404 131.795 63.3211 132.113 63.1596 132.352C63.4826 132.113 63.6442 132.431 64.2094 132.352C63.5634 132.511 62.5943 132.909 61.7868 133.147C62.3521 133.386 62.3521 133.386 62.9174 133.465C63.1596 134.102 62.3521 133.465 62.3521 134.022V133.783C62.1098 133.942 61.6253 133.863 61.2215 133.783L61.4638 133.227C61.06 133.147 61.06 133.465 60.8985 133.545C60.414 133.624 60.6562 133.147 60.2524 133.147C60.5755 133.147 60.5755 132.909 60.737 132.829L60.5755 132.75C60.414 132.431 60.9792 132.431 61.06 132.193C60.9792 132.193 60.9792 132.113 60.8985 132.113C61.1407 132.113 61.4638 132.113 61.5445 131.954L61.4638 132.034C62.0291 131.954 62.4328 131.557 62.9174 132.034V131.398C62.3521 131.318 61.5445 131.159 61.383 131.477H61.1408C60.8985 131.159 61.7868 130.92 62.1906 131.239C63.5634 131.398 62.5136 130.364 63.1596 130.125C62.8366 129.966 62.5943 130.205 62.3521 130.205C62.2713 130.284 62.2713 130.443 62.5136 130.523C62.1098 131 61.4638 130.046 61.383 130.682C61.4638 131 62.0291 130.523 61.9483 130.92H60.8985C60.9792 130.682 61.2215 130.443 61.4638 130.284C62.5136 129.25 62.2713 128.217 62.2713 128.217C62.9981 126.467 63.8057 124.717 64.6132 123.047C65.017 122.57 65.017 122.332 66.0668 122.57C66.2283 122.729 65.9861 123.047 66.3091 123.047C65.9053 122.968 65.663 123.047 65.5823 123.365C65.9053 123.524 65.8245 123.206 65.9053 123.286V123.365C66.0668 123.445 66.2283 123.445 66.3091 123.365C66.7128 123.922 66.3091 124.399 65.5823 124.399C65.8245 124.797 66.1476 124.399 66.4706 124.399C66.3898 125.354 66.0668 125.99 65.7438 126.865C65.0977 126.626 65.34 126.785 64.8555 126.785L65.017 126.944C64.9362 126.865 64.4517 126.865 64.371 126.626C64.6132 127.342 63.3211 126.944 62.9174 127.262L63.2404 127.342C63.0789 127.66 62.9981 127.739 62.7559 127.898C63.1596 128.614 62.9981 127.501 63.7249 127.898L63.5634 127.978C63.8864 127.978 64.4517 128.058 64.694 128.058C64.0479 128.376 64.694 128.773 64.1287 129.171C64.5325 129.25 64.9362 128.853 65.017 128.773C65.017 128.932 64.6132 129.171 64.9362 129.33L64.4517 129.25C64.2902 129.569 64.8555 129.33 65.0977 129.569C64.9362 130.205 63.8057 129.171 63.3211 129.728Z" fill="#322015"/>
<path d="M61.4639 137.044C61.4639 136.964 61.4639 136.885 61.5446 136.805C61.5446 136.885 61.5446 136.964 61.4639 137.044Z" fill="#322015"/>
<path d="M63.3209 135.851C63.1594 135.771 63.0787 135.851 62.8364 135.851C62.9979 135.771 63.0787 135.533 63.3209 135.851Z" fill="#322015"/>
<path d="M58.2334 151.598C57.5874 151.279 58.6372 151.041 58.395 150.723C58.3142 150.723 58.3142 150.723 58.2334 150.802L58.3142 150.564H58.1527C58.5565 150.643 58.718 150.325 59.041 150.246C59.4448 150.564 58.5565 150.325 58.9602 150.643C59.1218 150.564 59.4448 150.564 59.6063 150.564C59.364 150.723 59.1218 150.723 58.8795 150.802C58.7987 150.961 59.041 150.961 59.2025 150.961C58.9602 151.12 58.395 151.12 58.4757 151.439C58.7987 151.677 59.041 151.359 58.8795 151.677C58.2334 151.438 58.9602 151.995 58.5565 152.154C58.6372 152.393 59.041 152.631 59.2833 152.552C58.7987 152.552 58.3142 152.711 58.2334 152.95L58.6372 152.552L58.0719 152.393C58.395 151.995 58.3142 151.836 58.2334 151.598Z" fill="#322015"/>
<path d="M59.6064 150.484L59.6872 150.405C59.6872 150.405 59.6872 150.405 59.6064 150.484Z" fill="#322015"/>
<path d="M60.0102 150.245C60.0102 150.325 59.8486 150.325 59.8486 150.245L60.0909 150.166L60.0102 150.245Z" fill="#322015"/>
<path d="M59.6873 150.007L59.3643 149.768H59.6065L59.6873 150.007Z" fill="#322015"/>
<path d="M60.1715 144.122C60.3331 144.36 59.9293 144.281 59.687 144.201C59.687 143.883 60.01 144.281 60.1715 144.122Z" fill="#322015"/>
<path d="M61.4635 140.543C61.7058 140.782 61.2213 140.941 61.2213 141.1C61.0598 140.941 61.2213 140.702 61.4635 140.543Z" fill="#322015"/>
<path d="M63.079 139.35C62.9175 139.35 62.8368 139.43 62.8368 139.271H62.11C61.9485 138.953 62.756 139.271 63.079 139.35Z" fill="#322015"/>
<path d="M63.6444 137.68L63.3213 137.919V137.76C62.9983 137.76 62.9176 137.76 62.6753 137.839C62.8368 137.601 63.1598 137.521 63.6444 137.68Z" fill="#322015"/>
<path d="M62.4326 137.998C62.4326 137.998 62.4326 137.919 62.5134 137.919C62.5941 137.998 62.6749 137.998 62.4326 137.998Z" fill="#322015"/>
<path d="M62.5135 137.839H62.5943C62.5135 137.919 62.5135 137.919 62.4328 137.998C62.4328 137.839 62.352 137.839 62.5135 137.839Z" fill="#322015"/>
<path d="M63.3213 137.362L63.4828 136.885L63.5636 137.124C63.1598 137.044 63.8058 137.362 63.3213 137.362Z" fill="#322015"/>
<path d="M63.644 134.738L63.2402 134.579C63.2402 134.261 64.2093 134.102 63.644 133.783C63.8863 134.022 64.2093 133.704 64.2093 134.022C63.8055 134.102 63.644 134.499 63.644 134.738Z" fill="#322015"/>
<path d="M63.4021 133.465C63.2406 133.465 63.2406 133.386 63.0791 133.306C63.0791 133.147 63.3214 133.147 63.4021 133.227C62.8368 133.147 63.7251 133.465 63.4021 133.465Z" fill="#322015"/>
<path d="M63.8056 132.034C63.8056 132.113 63.7248 132.193 63.644 132.034C63.7248 131.795 64.2093 131.954 64.5323 131.954C64.6939 132.272 63.9671 132.272 63.8056 132.034Z" fill="#322015"/>
<path d="M64.4515 129.886V129.966L63.8862 129.886H64.4515Z" fill="#322015"/>
</g>
</g>
<path d="M127.441 164.879C125.018 164.879 62.675 164.879 62.675 164.879C62.5942 153.189 71.235 151.757 71.235 151.757C71.235 151.757 71.4773 151.678 71.9618 151.598C71.9618 151.598 67.0358 144.441 69.5392 133.227C61.3829 128.615 51.9346 122.571 42.567 109.369C31.1805 93.3843 36.5104 66.5838 37.8832 57.1201C39.256 47.6564 39.9828 38.1132 38.933 36.284C37.8832 34.4549 33.2802 35.6478 22.782 31.5124C14.3835 28.2518 10.5072 22.7645 9.2959 20.6172C9.45741 20.5377 9.61892 20.4582 9.69967 20.3787C11.7993 19.1062 12.6069 16.8 12.8491 15.3685C12.9299 15.1299 12.8491 14.8118 12.7684 14.5732C17.4522 15.5275 22.7012 16.4818 22.7012 16.4818C29.4039 3.35991 52.8229 9.40396 52.8229 9.40396C57.8297 3.28039 62.029 -0.934538 66.3897 0.178839C70.7505 1.29222 71.3158 8.68821 71.3966 14.3346C71.5581 19.981 72.5271 31.2738 72.5271 31.2738C73.4154 33.8187 74.3037 38.0336 78.2607 49.0879C82.2177 60.1421 89.3242 71.9916 99.1763 81.6939C109.028 91.4757 126.795 105.075 130.267 126.706C133.901 148.417 129.944 164.879 127.441 164.879Z" fill="#FBAF5E"/>
<path d="M71.2354 151.837C71.2354 151.837 76.2422 150.326 81.8143 151.041" stroke="#1B1C1E" stroke-width="1.2604" stroke-miterlimit="10" stroke-linecap="round" stroke-linejoin="round"/>
<path d="M71.9619 151.598C71.9619 151.598 66.3898 143.566 70.1046 131.16C73.254 120.503 85.0443 117.163 89.9703 117.72" stroke="#1B1C1E" stroke-width="1.2604" stroke-miterlimit="10" stroke-linecap="round" stroke-linejoin="round"/>
<path d="M66.4709 164.879C66.4709 164.879 66.0671 159.869 69.0551 157.006" stroke="#1B1C1E" stroke-width="1.2604" stroke-miterlimit="10" stroke-linecap="round" stroke-linejoin="round"/>
<path d="M41.2751 107.381C41.2751 107.381 35.1377 147.542 33.6034 151.837C33.6034 151.837 22.7822 151.837 22.7822 164.959C22.7822 164.959 48.4623 164.959 49.5122 164.959C50.3197 164.959 58.5567 143.725 64.0481 129.967C66.39 124.002 68.3281 119.469 68.8126 118.674L41.2751 107.381Z" fill="#FBAF5E"/>
<path d="M28.8391 164.879C28.8391 164.879 28.4353 159.869 31.4232 157.006" stroke="#1B1C1E" stroke-width="1.2604" stroke-miterlimit="10" stroke-linecap="round" stroke-linejoin="round"/>
<path d="M35.2993 164.879C35.2993 164.879 35.5416 160.425 37.8027 158.596" stroke="#1B1C1E" stroke-width="1.2604" stroke-miterlimit="10" stroke-linecap="round" stroke-linejoin="round"/>
<path d="M72.9312 164.879C72.9312 164.879 73.1734 160.425 75.4346 158.596" stroke="#1B1C1E" stroke-width="1.2604" stroke-miterlimit="10" stroke-linecap="round" stroke-linejoin="round"/>
<path d="M11.8803 13.6982C12.6071 13.8573 13.0109 14.573 12.8493 15.2888C12.5263 16.7202 11.7188 19.0265 9.6999 20.299C6.55045 22.2871 2.18968 21.2533 1.13986 19.0265C0.0900432 16.7202 2.83572 12.2667 5.09687 12.3463C6.71197 12.4258 10.0229 13.2211 11.8803 13.6982Z" fill="#1B1C1E" stroke="#1B1C1E" stroke-width="1.818" stroke-miterlimit="10" stroke-linecap="round" stroke-linejoin="round"/>
<path d="M31.4491 22.6095C31.9456 21.0596 31.4171 19.514 30.2687 19.1571C29.1203 18.8003 27.7867 19.7674 27.2902 21.3173C26.7936 22.8671 27.3221 24.4128 28.4706 24.7696C29.619 25.1265 30.9525 24.1593 31.4491 22.6095Z" fill="#1B1C1E"/>
<path d="M39.0947 12.9825C37.8834 12.5849 34.9762 11.9487 33.9264 12.9825C32.6343 14.1754 34.2494 16.0841 37.6411 16.9589C41.5981 17.9132 43.8593 14.5731 39.0947 12.9825Z" fill="white"/>
<path d="M59.8487 16.8001C58.7182 16.1638 57.1838 15.4481 56.134 13.619C55.0842 11.7899 56.134 9.88122 58.2336 7.81352C60.3333 5.82535 63.8058 3.36001 65.6631 5.18913C67.4397 6.93872 66.3092 16.1638 64.7748 17.5158C63.8057 18.4701 60.8986 17.3567 59.8487 16.8001Z" fill="#CC813E"/>
<path d="M4.69336 34.614C4.69336 34.614 6.87374 37.477 11.3153 37.8746C15.1915 38.1927 16.9681 36.5227 16.9681 36.5227" stroke="#1B1C1E" stroke-width="1.2604" stroke-miterlimit="10" stroke-linecap="round" stroke-linejoin="round"/>
<path d="M64.0483 129.887C66.3902 123.923 68.3284 119.39 68.8129 118.594" stroke="#1B1C1E" stroke-width="1.2604" stroke-miterlimit="10" stroke-linecap="round" stroke-linejoin="round"/>
<mask id="mask3_37_4992" style="mask-type:luminance" maskUnits="userSpaceOnUse" x="21" y="46" width="15" height="12">
<path d="M23.9127 57.12C23.6704 54.8932 21.813 47.7358 21.49 47.1791C21.4093 47.0201 21.3285 46.9405 21.167 46.7815C21.167 46.7815 27.3851 50.2807 34.1686 49.4059C38.2063 48.9287 31.4229 54.098 23.9127 57.12Z" fill="white"/>
</mask>
<g mask="url(#mask3_37_4992)">
<g opacity="0.58">
<path d="M27.0622 48.3721C27.0622 48.2926 26.9814 48.2131 26.9814 48.1335L27.0622 48.3721Z" fill="#322015"/>
<path d="M22.9436 49.247C22.9436 49.3265 22.8629 49.247 22.9436 49.247Z" fill="#322015"/>
<path d="M23.186 49.9628C23.186 49.8832 23.186 49.8832 23.186 49.8037C23.186 49.8037 23.2668 49.8037 23.186 49.9628Z" fill="#322015"/>
<path d="M33.5229 49.7241C33.6037 49.7241 33.6037 49.7241 33.6845 49.8037C33.5229 49.8832 33.5229 49.8036 33.5229 49.7241Z" fill="#322015"/>
<path d="M24.3974 49.4858C24.5589 48.9291 24.2359 49.4062 24.3166 48.8495C24.3974 49.0086 24.3974 49.0881 24.4781 48.77C24.4781 48.4519 24.3166 48.77 24.3974 48.2928L24.4781 48.5314C24.6396 48.2928 24.5589 47.8952 24.6396 47.9747C24.6396 48.6905 25.0434 47.7362 25.1242 47.8952V47.8157L25.3664 47.4976C25.3664 47.4976 25.3664 47.5771 25.3664 47.6566C25.5279 47.3385 25.6895 47.0999 25.7702 47.1795C25.7702 47.5771 26.174 47.3385 26.2547 47.7362C26.174 47.6566 26.174 47.5771 26.0932 47.7362L26.0125 48.2133C26.174 48.2133 26.0932 47.8157 26.174 48.0543C26.0932 48.6905 26.0125 48.0543 25.851 48.0543C25.851 48.2133 25.9317 48.3724 25.9317 48.3724C25.7702 48.3724 25.528 48.5314 25.4472 47.8952C25.3664 48.0543 25.3664 48.2929 25.3664 48.3724C25.2857 47.9747 25.2049 48.6905 25.1242 48.3724C25.0434 48.9291 25.3664 48.6905 25.4472 49.0881C25.6895 48.611 25.851 49.0881 26.0932 49.2472C26.174 48.8495 26.0932 48.4519 26.174 48.2133C26.4163 47.9747 26.3355 48.4519 26.4163 48.77C26.5778 48.611 26.497 48.0543 26.7393 48.0543L26.6585 47.7362C26.9008 47.0999 26.7393 47.9747 26.82 47.8952C26.7393 48.0543 26.7393 48.2133 26.6585 48.2133C26.5778 48.4519 26.6585 48.5314 26.7393 48.611C26.7393 48.9291 26.7393 49.2472 26.9008 49.0881C26.82 48.6905 27.0623 48.8495 27.0623 48.6905V48.611C27.1431 48.77 27.2238 48.6905 27.3046 48.77V48.6905C27.3853 48.8495 27.3046 49.3267 27.4661 49.2472C27.4661 49.0881 27.3853 48.5314 27.5468 48.611C27.5468 48.3724 27.4661 48.2929 27.3046 48.3724C27.4661 48.2929 27.5468 47.8157 27.3853 47.8157C27.4661 47.4976 27.4661 47.9747 27.5468 47.8157C27.5468 47.8952 27.5468 48.0543 27.5468 48.1338C27.6276 47.6566 27.7891 48.1338 27.7891 48.4519L27.7083 48.2133C27.6276 48.611 27.7891 48.8495 27.7083 49.0881C27.8699 48.5314 28.0314 49.4062 28.1929 48.9291L28.1121 49.2472C28.4351 49.0881 28.5966 49.8039 28.8389 49.9629C28.7582 49.8039 28.8389 49.0881 28.5966 49.3267C28.8389 49.2472 28.7582 48.6905 28.8389 48.3724C29.0812 48.1338 28.9197 49.0086 28.9197 49.1676L28.7581 49.0086C28.9197 49.8039 29.3234 48.8495 29.5657 49.4062C29.5657 49.2472 29.485 49.3267 29.485 49.2472C29.6465 48.8495 29.5657 49.3267 29.6465 49.4858C29.808 49.4062 29.9695 49.2472 29.8887 48.77C30.0502 48.6905 29.8887 49.0881 29.8887 49.2472V49.1676L30.0502 49.7243C30.2117 49.5653 30.3733 49.3267 30.454 48.8495C30.777 48.9291 30.5348 49.9629 30.6963 50.122C30.8578 49.8834 30.6963 49.7243 30.6963 49.5653L30.8578 49.6448C30.777 49.0881 30.6155 49.4062 30.6963 48.77C30.8578 49.4062 30.9385 48.9291 31.1001 49.4062V49.4858C31.1808 49.8834 31.4231 49.6448 31.5038 49.7243C31.4231 49.4858 31.3423 49.4062 31.2616 49.3267C31.4231 49.1676 31.7461 49.3267 31.8268 49.8834C31.9076 49.8039 32.0691 49.5653 31.9884 49.3267C32.3114 49.2472 32.0691 50.122 32.3114 49.9629V49.5653C32.5536 48.9291 32.8767 50.122 33.1189 49.5653V50.0424C33.1997 49.8039 33.2804 49.7243 33.2804 49.4858L33.1189 49.3267C33.1997 48.9291 33.2804 49.7243 33.3612 49.4062C33.3612 49.5653 33.2804 49.8834 33.2804 50.0424C32.7152 49.8039 32.1499 50.4401 31.5846 49.9629C31.5846 49.8834 31.6653 49.8039 31.5846 49.7243C31.5038 49.8834 31.4231 49.7243 31.4231 49.9629C31.2616 49.8834 31.1 50.4401 31.0193 50.4401C30.9385 50.122 30.6963 50.5991 30.777 49.9629L30.6963 50.3606C30.6963 50.122 30.6963 49.8834 30.6155 49.7243C30.5348 49.8039 30.5348 50.0424 30.5348 50.122C30.131 50.3605 29.6465 50.281 29.3234 50.0424L29.4042 50.3606C29.3234 50.5196 29.0812 49.8039 29.1619 50.5991C29.0004 50.281 28.5966 50.7582 28.6774 50.0424C28.5159 50.7582 28.1929 50.3606 27.9506 50.2015C28.0314 49.5653 27.7083 50.0424 27.7083 49.7243C27.6276 50.2015 27.8699 50.281 27.8699 50.5991C27.7083 49.8039 27.0623 51.0763 27.0623 49.8039C27.0623 49.8834 26.9815 49.8834 27.0623 49.9629C26.9815 49.9629 26.9008 50.2015 26.82 50.2015C26.82 49.9629 26.9008 49.8834 26.82 49.8039C26.7393 49.8039 26.7393 50.2015 26.6585 50.3606C26.497 50.0424 26.174 49.8834 26.2547 49.4062C26.174 49.5653 26.0932 49.8039 26.0932 49.8834C25.851 49.4858 25.7702 49.8834 25.5279 49.6448C25.6087 49.6448 25.528 50.2015 25.6895 49.9629C25.4472 50.6787 25.2049 49.8039 24.9627 50.122V49.6448C24.8012 49.5653 24.7204 49.9629 24.8012 50.122C24.4781 50.3605 24.3974 50.0424 24.2359 50.0424C24.2359 50.122 24.2359 50.2015 24.2359 50.2015H23.9128C23.9128 50.122 23.8321 49.8039 23.9128 49.5653C24.2359 49.4062 24.2359 49.5653 24.3974 49.4858Z" fill="#322015"/>
<path d="M26.9816 47.5769C26.9009 47.6564 26.9009 47.736 26.9009 47.736C26.9009 47.6564 26.9816 47.5769 26.9816 47.5769Z" fill="#322015"/>
<path d="M21.8134 47.8155C22.0556 47.1793 21.9749 47.9746 22.1364 47.8155C22.0556 47.6565 22.2172 47.2588 22.2172 47.0998C22.1364 47.9746 22.4594 46.9407 22.6209 47.1793C22.7017 46.8612 22.6209 46.7817 22.6209 46.4636C22.7017 46.7022 22.8632 46.8612 22.7824 47.4179C23.0247 47.4974 23.1862 47.3384 23.3477 47.4179C23.1862 47.1793 23.4285 46.9407 23.4285 46.4636C23.5092 47.0998 23.7515 47.8155 23.8323 48.6108C23.9938 48.0541 23.9938 48.0541 24.0745 47.4974C24.3975 47.1793 24.0745 48.0541 24.3975 47.8951L24.236 47.9746C24.3168 48.1336 24.236 48.6903 24.236 49.0084L23.913 48.8494C23.8322 49.247 24.0745 49.1675 24.0745 49.3265C24.0745 49.8037 23.8323 49.6447 23.8323 49.9628C23.8323 49.6447 23.6707 49.7242 23.59 49.5651L23.5092 49.7242C23.3477 49.8832 23.3477 49.4061 23.1862 49.3265C23.1862 49.4061 23.1862 49.4061 23.1862 49.4856C23.1862 49.247 23.1862 48.9289 23.1054 48.8494H23.1862C23.1862 48.3722 22.9439 47.9746 23.267 47.4974L22.9439 47.577C22.8632 48.1336 22.7824 48.9289 22.9439 49.0084V49.247C22.7017 49.4856 22.6209 48.7699 22.7824 48.3722C22.9439 47.0998 22.2979 48.2132 22.1364 47.6565C22.0556 47.9746 22.1364 48.1336 22.1364 48.3722C22.2171 48.4517 22.2171 48.4517 22.2979 48.1336C22.5402 48.3722 21.9749 49.1675 22.3787 49.1675C22.6209 49.0084 22.2979 48.6108 22.5402 48.6108V49.5651C22.3787 49.4856 22.2979 49.3265 22.1364 49.1675C21.5711 48.3722 20.9251 48.7699 20.9251 48.7699C20.4405 48.6108 19.8753 48.3722 19.3907 48.1336C18.9062 47.8951 18.3409 47.6565 17.8564 47.3384C17.6141 47.0998 17.4526 47.0203 17.7756 46.1455C17.9371 45.9864 18.0986 46.1455 18.1794 45.8274C18.0179 46.1455 18.0986 46.3841 18.2601 46.4636C18.4217 46.1455 18.1794 46.225 18.2601 46.225C18.3409 46.0659 18.3409 45.9069 18.3409 45.9069C18.7447 45.5092 18.9869 45.7478 18.8254 46.384C19.1485 46.1455 18.9062 45.8274 18.9869 45.5888C19.5522 45.5093 19.8753 45.6683 20.3598 45.8274C20.1983 46.3841 20.279 46.225 20.1983 46.6226L20.279 46.384C20.1983 46.4636 20.1983 46.9407 20.0368 47.0203C20.5213 46.6226 20.1175 47.8951 20.279 48.2132L20.3598 47.8951C20.5213 47.9746 20.602 48.0541 20.6828 48.2132C21.1673 47.736 20.4405 48.0541 20.7636 47.3384L20.8443 47.4974C20.8443 47.1793 21.0058 46.7022 20.9251 46.4636C21.0058 47.0203 21.3288 46.3841 21.4903 46.8612C21.5711 46.5431 21.3288 46.1455 21.3288 46.1455C21.4096 46.1455 21.5711 46.4636 21.6519 46.1455L21.5711 46.5431C21.7326 46.6226 21.6519 46.1455 21.8134 45.9069C22.2172 46.225 21.4904 47.4974 21.8134 47.8155Z" fill="#322015"/>
<path d="M26.0932 48.3723C26.0124 48.3723 26.0124 48.3723 25.9316 48.2927C26.0124 48.2927 26.0124 48.2927 26.0932 48.3723Z" fill="#322015"/>
<path d="M25.3662 46.7817C25.2855 46.9408 25.3662 47.0203 25.3662 47.2589C25.3662 47.0999 25.2047 47.0998 25.3662 46.7817Z" fill="#322015"/>
<path d="M35.0571 48.8494L35.2994 48.5313C35.2994 47.9746 35.1379 48.3722 35.0571 48.1336C35.2994 47.9746 35.2186 48.2132 35.3802 48.5313C35.4609 48.5313 35.5417 48.7698 35.6224 48.9289C35.3801 48.5313 35.4609 49.8037 35.0571 48.8494Z" fill="#322015"/>
<path d="M34.4916 49.4856C34.3301 50.1218 34.1686 49.1675 34.0071 49.4061C34.0071 49.4061 34.0071 49.4856 34.0879 49.5652L33.9263 49.4856V49.6447C33.9263 49.2471 33.7648 49.088 33.6841 48.8494C33.8456 48.4518 33.7648 49.3266 33.9263 48.8494C33.9263 48.6904 33.8456 48.3723 33.8456 48.2927C33.9263 48.4518 34.0071 48.6904 34.0071 48.9289C34.0879 49.0085 34.0879 48.7699 34.0879 48.6108C34.2494 48.8494 34.2494 49.4061 34.4109 49.2471C34.4916 48.9289 34.3301 48.6904 34.4916 48.8494C34.4109 49.4856 34.6531 48.7699 34.8146 49.088C34.9762 48.9289 35.0569 48.6108 34.9762 48.3723C34.9762 48.8494 35.1377 49.2471 35.2992 49.4061L35.0569 49.0085L34.9762 49.5652C34.6531 49.3266 34.5724 49.4061 34.4916 49.4856Z" fill="#322015"/>
<path d="M33.6843 48.2926C33.6843 48.2926 33.6843 48.2131 33.6035 48.2131C33.6843 48.1336 33.6843 48.2131 33.6843 48.2926Z" fill="#322015"/>
<path d="M34.8957 48.2132L34.8149 48.1337L34.8957 47.9746V48.2132Z" fill="#322015"/>
<path d="M33.6035 47.895C33.6035 47.895 33.6843 48.0541 33.6035 48.0541V47.895Z" fill="#322015"/>
<path d="M33.4418 48.2131L33.361 48.5312L33.2803 48.2927L33.4418 48.2131Z" fill="#322015"/>
<path d="M30.1309 48.4517C30.2116 48.2927 30.2116 48.6108 30.2116 48.9289C30.0501 49.0084 30.2116 48.6108 30.1309 48.4517Z" fill="#322015"/>
<path d="M28.1123 47.8155C28.2738 47.5769 28.3546 47.9745 28.4353 47.9745C28.2738 48.1336 28.1931 48.0541 28.1123 47.8155Z" fill="#322015"/>
<path d="M27.3853 46.4636C27.3853 46.6227 27.466 46.6227 27.3853 46.7022V47.4179C27.143 47.577 27.3045 46.7817 27.3853 46.4636Z" fill="#322015"/>
<path d="M26.4163 46.2251L26.497 46.4637H26.4163C26.4163 46.7023 26.4163 46.8613 26.497 47.0999C26.4163 47.0204 26.3355 46.7023 26.4163 46.2251Z" fill="#322015"/>
<path d="M26.4971 47.2589C26.4971 47.1793 26.4971 47.1793 26.4971 47.2589C26.5778 47.2589 26.4971 47.1793 26.4971 47.2589C26.5778 47.3384 26.4971 47.3384 26.4971 47.2589Z" fill="#322015"/>
<path d="M26.255 46.5431L26.0127 46.4636L26.1742 46.384C26.0934 46.7817 26.255 46.1455 26.255 46.5431Z" fill="#322015"/>
<path d="M24.8011 46.7021L24.7204 47.0997C24.5589 47.1792 24.4781 46.2249 24.2358 46.8611C24.3974 46.6226 24.1551 46.384 24.3973 46.3044C24.3973 46.7021 24.6396 46.7816 24.8011 46.7021Z" fill="#322015"/>
<path d="M23.9934 47.1793C23.9934 47.3384 23.9126 47.3384 23.9126 47.4974C23.8319 47.4974 23.8319 47.3384 23.9126 47.1793C23.8319 47.6565 23.9934 46.8612 23.9934 47.1793Z" fill="#322015"/>
<path d="M23.186 46.9408C23.2668 46.9408 23.2668 47.0204 23.186 47.0999C23.0245 47.0204 23.186 46.6227 23.186 46.3046C23.4283 46.1456 23.3476 46.7818 23.186 46.9408Z" fill="#322015"/>
<path d="M21.248 49.5651C21.3288 49.247 21.4903 49.3266 21.4903 49.4061C21.4903 49.4061 21.3288 49.4856 21.248 49.5651Z" fill="#322015"/>
<path d="M21.9746 46.7817L22.0554 46.7021L21.9746 47.2588V46.7817Z" fill="#322015"/>
</g>
</g>
</svg>
