<svg width="164" height="135" viewBox="0 0 164 135" fill="none" xmlns="http://www.w3.org/2000/svg">
<path d="M60.7534 132.09C60.7534 132.09 56.2311 133.76 68.5059 134.238C80.7806 134.715 145.546 134.953 152.168 134.238C158.79 133.522 166.22 132.647 153.702 131.693C144.173 130.977 130.284 131.057 120.593 130.818C103.231 130.42 66.0025 130.579 60.7534 132.09Z" fill="#1B1C1E"/>
<path d="M37.4151 80.7161C37.4151 80.7161 6.80887 90.4979 0.590733 96.6214C-4.57759 101.632 25.8671 96.6214 25.8671 96.6214C25.8671 96.6214 17.5493 98.9277 20.3757 99.723C24.6557 100.916 35.5577 98.2915 40.3222 95.5081C46.4596 91.9293 37.4151 80.7161 37.4151 80.7161Z" fill="#89745E"/>
<mask id="mask0_37_4304" style="mask-type:luminance" maskUnits="userSpaceOnUse" x="0" y="80" width="43" height="21">
<path d="M37.4151 80.7161C37.4151 80.7161 6.80887 90.4979 0.590733 96.6214C-4.57759 101.632 25.8671 96.6214 25.8671 96.6214C25.8671 96.6214 17.5493 98.9277 20.3757 99.723C24.6557 100.916 35.5577 98.2915 40.3222 95.5081C46.4596 91.9293 37.4151 80.7161 37.4151 80.7161Z" fill="white"/>
</mask>
<g mask="url(#mask0_37_4304)">
<g opacity="0.78">
<path d="M39.0296 91.0546C38.9489 91.0546 38.8681 91.0546 38.7874 90.9751C38.7874 91.0546 38.8681 91.0546 39.0296 91.0546Z" fill="#060606"/>
<path d="M39.272 96.3034H39.595C39.4335 96.2239 39.3527 96.3034 39.272 96.3034Z" fill="#060606"/>
<path d="M37.0913 90.7364C37.0106 90.6569 36.9298 90.6569 36.7683 90.5774L37.0913 90.7364Z" fill="#060606"/>
<path d="M35.8803 91.3728C35.7995 91.3728 35.7995 91.3728 35.7188 91.4523C35.7995 91.3728 35.8803 91.3728 35.8803 91.3728Z" fill="#060606"/>
<path d="M39.2722 86.0446V85.9651H39.1914C39.1107 85.9651 39.1914 86.0446 39.2722 86.0446Z" fill="#060606"/>
<path d="M40.0797 86.5217C39.9989 86.5217 39.9182 86.4421 39.8374 86.4421C39.9182 86.4421 39.9181 86.5217 40.0797 86.5217Z" fill="#060606"/>
<path d="M39.1913 91.0547C39.1105 91.0547 39.1105 91.0547 39.0298 91.0547C39.1105 91.0547 39.1913 91.1342 39.1913 91.0547Z" fill="#060606"/>
<path d="M39.8374 98.2122C39.9182 98.2122 39.9182 98.2917 39.9989 98.2917C39.9989 98.2122 39.9182 98.2122 39.8374 98.2122Z" fill="#060606"/>
<path d="M39.0298 87.7146C38.1415 87.7942 39.0298 87.5556 38.1415 87.5556C38.303 87.6351 38.4645 87.7146 37.98 87.7942C37.4954 87.7146 38.0607 87.5556 37.3339 87.5556L37.5762 87.7146C37.1724 87.7942 36.6071 87.7146 36.6879 87.7942C37.6569 87.9532 36.2841 88.2713 36.4456 88.3509L36.3649 88.2713L35.8803 88.5099C35.8803 88.5099 35.8803 88.5099 35.7996 88.5099C35.8803 88.5099 35.8803 88.5099 35.9611 88.5099C35.4766 88.5894 35.1535 88.7485 35.2343 88.9871C35.7996 89.0666 35.4766 89.5438 35.9611 89.6233C35.7996 89.5438 35.7996 89.4642 35.9611 89.3847H36.6071C36.6071 89.5438 35.9611 89.3847 36.3649 89.5438C37.2532 89.4642 36.3649 89.3052 36.4456 89.1461C36.6879 89.1461 36.8494 89.2257 36.9302 89.3052C36.9302 89.0666 37.2532 88.828 36.3649 88.669C36.5264 88.5895 36.9302 88.5895 37.0109 88.669C36.4456 88.5099 37.5762 88.5099 37.0109 88.4304C37.8992 88.4304 37.4954 88.7485 37.98 88.9075C37.3339 89.1461 37.98 89.3847 38.1415 89.6233C37.4954 89.6233 36.9302 89.5438 36.6071 89.6233C36.2034 89.8619 36.9302 89.8619 37.3339 89.9414C37.0917 90.1005 36.2841 90.0209 36.2841 90.2595L35.8803 90.1005C34.992 90.339 36.2841 90.2595 36.0418 90.339C36.2841 90.2595 36.5264 90.2595 36.4456 90.1005C36.7686 90.1005 36.9302 90.18 36.9302 90.18C37.3339 90.18 37.8185 90.18 37.6569 90.4186C37.0917 90.339 37.2532 90.5776 37.0109 90.6571H36.9302C37.0917 90.7367 37.0109 90.8957 37.1724 90.9753H37.0109C37.2532 91.0548 37.8992 91.0548 37.7377 91.2138C37.4954 91.2138 36.7686 91.1343 36.8494 91.2934C36.4456 91.2934 36.3649 91.1343 36.5264 90.9753C36.3649 91.1343 35.7188 91.2138 35.7188 91.0548C35.2343 91.1343 35.9611 91.2138 35.7188 91.2934C35.8803 91.2934 36.0419 91.2934 36.2034 91.2934C35.5573 91.3729 36.2034 91.6115 36.6879 91.6115L36.2841 91.4524C36.8494 91.3729 37.1724 91.6115 37.4954 91.4524C36.6071 91.6115 37.98 91.8501 37.2532 92.0091L37.6569 91.9296C37.4147 92.3272 38.4645 92.4863 38.7068 92.8044C38.3837 92.7248 37.4954 92.8044 37.8185 92.5658C37.657 92.8839 36.9301 92.8044 36.4456 92.8839C36.1226 93.202 37.3339 92.8839 37.6569 92.9634L37.4954 92.8044C38.626 92.8839 37.3339 93.5201 38.0607 93.7587C37.8185 93.8382 37.8992 93.6792 37.7377 93.6792C37.1724 93.9177 37.8992 93.8382 38.1415 93.8382C38.0607 93.9973 37.8992 94.2359 37.1724 94.2359C37.0109 94.4744 37.5762 94.1563 37.8185 94.2359L37.6569 94.3154L38.4645 94.3949C38.303 94.554 37.8992 94.7925 37.2532 95.0311C37.4147 95.3492 38.7875 94.8721 39.1105 95.1106C38.7875 95.3492 38.5453 95.1902 38.303 95.1902L38.3837 95.4288C37.5762 95.5083 37.98 95.2697 37.0917 95.4288C38.0607 95.4288 37.4147 95.6673 38.0607 95.8264H38.1415C38.7875 95.8264 38.3837 96.1445 38.5453 96.3036C38.1415 96.3036 38.0607 96.1445 37.8992 96.065C37.6569 96.3035 37.98 96.7012 38.7875 96.6217C38.7068 96.7807 38.3837 97.0193 38.0607 96.9398C37.98 97.3374 39.1913 96.8602 39.0298 97.1784L38.4645 97.3374C37.7377 97.8941 39.3528 97.735 38.7068 98.2917L39.4336 98.1327C39.1105 98.2917 39.0298 98.4508 38.7875 98.5303L38.4645 98.4508C37.8992 98.7689 39.1105 98.4508 38.7068 98.6894C38.949 98.6098 39.3528 98.3712 39.5951 98.2917C39.0298 97.735 39.9181 96.8602 39.0298 96.4626C38.949 96.5421 38.8683 96.5421 38.7068 96.5421C38.8683 96.4626 38.626 96.3036 39.0298 96.3036H39.1105C38.949 96.1445 39.7566 95.8264 39.7566 95.7469C39.272 95.7469 39.9181 95.3492 39.0298 95.5878L39.5143 95.3492C39.1913 95.3492 38.7875 95.4288 38.626 95.4288C38.7068 95.2697 39.0298 95.2697 39.272 95.2697C39.5143 94.7925 39.3528 94.2359 39.0298 93.8382L39.4336 93.9177C39.5951 93.7587 38.626 93.5996 39.6758 93.5996C39.272 93.4406 39.8373 92.9634 38.7875 93.1225C39.8373 92.8839 39.1913 92.5658 39.0298 92.2477C38.1415 92.4067 38.7875 92.0091 38.303 92.0091C39.0298 91.9296 39.0298 92.1682 39.5143 92.1682C38.3837 91.9296 40.2411 91.2138 38.3837 91.2138C38.4645 91.1343 38.5453 91.1343 38.626 91.1343C38.626 91.0548 38.949 90.9752 39.0298 90.8957C38.7068 90.8957 38.5452 91.0548 38.4645 90.8957C38.5452 90.7367 39.0298 90.8162 39.272 90.7367C38.8683 90.5776 38.626 90.18 37.8992 90.18C38.0607 90.1005 38.5453 90.0209 38.626 90.1005C38.0607 89.7823 38.7068 89.7823 38.303 89.3847C38.303 89.5438 39.1105 89.3847 38.7875 89.6233C39.8373 89.4642 38.5453 89.0666 39.1105 88.7485L38.4645 88.669C38.3837 88.5099 38.949 88.5099 39.1913 88.5894C39.5951 88.2713 39.1913 88.1123 39.1913 87.9532C39.2721 87.9532 39.4336 87.9532 39.3528 87.9532V87.6351C39.1913 87.6351 38.8683 87.4761 38.4645 87.4761C39.1105 87.4761 39.3528 87.5556 39.0298 87.7146Z" fill="#060606"/>
<path d="M35.8804 90.5776C36.0419 90.4981 36.1226 90.498 36.1226 90.498C36.0419 90.498 35.9611 90.4981 35.8804 90.5776Z" fill="#060606"/>
<path d="M37.6567 84.2155C36.6069 84.2155 37.8182 84.4541 37.4952 84.5336C37.3337 84.3746 36.7684 84.3746 36.4454 84.3746C37.7375 84.6131 36.2031 84.6131 36.4454 84.9313C36.0416 84.9313 35.9609 84.7722 35.4763 84.6927C35.7994 84.9313 35.9609 85.1698 36.6877 85.2494C36.6877 85.5675 36.4454 85.7265 36.5262 85.9651C36.2839 85.7265 35.7994 85.8856 35.1533 85.7265C35.9609 85.9651 37.0107 86.5218 37.9797 86.8399C37.1722 86.8399 37.0914 86.8399 36.3646 86.8399C35.7994 87.2375 37.0914 86.9194 36.8492 87.3171L37.0107 87.158C37.253 87.3171 37.9797 87.3171 38.545 87.3966L38.4643 86.999C39.0296 86.999 38.9488 87.2375 39.1103 87.3171C39.7564 87.4761 39.5948 87.0785 40.0794 87.158C39.6756 87.0785 39.7564 86.9194 39.5948 86.8399H39.9179C40.2409 86.6809 39.5141 86.5218 39.5141 86.3627C39.5948 86.3627 39.6756 86.3627 39.6756 86.3627C39.3526 86.2832 38.9488 86.2037 38.868 86.1242V86.2037C38.1413 86.0446 37.7375 85.647 36.9299 85.8856L37.1722 85.488C37.9797 85.5675 39.1103 85.7265 39.1911 85.9651H39.5141C39.9179 85.8061 38.9488 85.4879 38.3028 85.5675C36.4454 85.3289 38.3028 84.9313 37.4952 84.6132C37.9797 84.6132 38.222 84.7722 38.545 84.9313C38.6258 85.0108 38.6258 85.0903 38.222 85.0903C38.4643 85.488 39.8371 85.0903 39.5948 85.488C39.3526 85.647 38.7873 85.1698 38.7065 85.488L40.0794 85.8061C40.0794 85.647 39.8371 85.4084 39.6756 85.2494C38.7873 84.3746 39.6756 83.8179 39.6756 83.8179L39.5948 81.9888L39.6756 80.1596C39.5141 79.762 39.5948 79.603 38.3028 79.2053C37.9797 79.2053 38.0605 79.5234 37.6567 79.3644C38.1413 79.5234 38.3835 79.6825 38.3028 79.9211C37.8182 79.8415 38.0605 79.6825 37.9797 79.762H37.899C37.6567 79.6825 37.4952 79.603 37.4952 79.603C36.6877 79.6825 36.7684 80.1596 37.7375 80.4778C37.1722 80.5573 37.0107 80.2392 36.6069 80.0801C36.1224 80.7163 36.1224 81.1935 35.9609 81.9092C36.8492 81.9888 36.5262 82.0683 37.0914 82.2273H36.7684C36.9299 82.2273 37.4952 82.3864 37.7375 82.3069C37.0107 82.625 38.868 82.8636 39.2718 83.1817L38.7873 83.1021C38.8681 83.3407 38.868 83.4202 39.1103 83.5793C38.222 83.8179 39.0296 83.2612 37.899 83.2612L38.0605 83.3407C37.6567 83.2612 36.8492 83.1021 36.5262 82.9431C37.2529 83.3407 36.2031 83.4202 36.6877 83.8179C36.2031 83.7384 35.7994 83.3407 35.7994 83.2612C35.7186 83.4203 36.1224 83.6588 35.6378 83.5793L36.2839 83.6588C36.3646 83.8974 35.7186 83.5793 35.2341 83.5793C35.2341 84.0565 37.3337 83.7384 37.6567 84.2155Z" fill="#060606"/>
<path d="M37.1726 89.4642C37.2533 89.3847 37.1726 89.3847 37.0918 89.3052C37.0918 89.3847 37.0918 89.4642 37.1726 89.4642Z" fill="#060606"/>
<path d="M34.9919 88.3508C35.315 88.3508 35.315 88.3508 35.638 88.4303C35.4765 88.4303 35.4765 88.1918 34.9919 88.3508Z" fill="#060606"/>
<path d="M39.8373 99.4049C40.6449 98.9277 39.1913 99.1663 39.5143 98.8482C39.595 98.8482 39.6758 98.8482 39.7565 98.8482L39.595 98.6891L39.7565 98.6096C39.1913 98.7687 38.949 98.6096 38.5452 98.6891C38.0607 99.0072 39.272 98.6096 38.7067 98.9277C38.4645 98.9277 38.0607 99.0073 37.8992 99.0073C38.2222 99.0868 38.5452 99.0072 38.8682 98.9277C38.949 99.0072 38.626 99.0868 38.4645 99.1663C38.7875 99.2458 39.595 99.0072 39.5143 99.2458C39.1105 99.4844 38.7875 99.4049 39.0297 99.5639C39.8373 99.1663 38.949 99.8025 39.5143 99.723C39.4335 99.9616 38.949 100.2 38.626 100.28C39.272 100.041 39.918 100.041 40.0796 100.121H39.3528L40.0796 99.8025C39.6758 99.723 39.6758 99.5639 39.8373 99.4049Z" fill="#060606"/>
<path d="M37.2533 99.0868C37.2533 99.1664 37.4956 99.0869 37.4956 99.0073H37.0918L37.2533 99.0868Z" fill="#060606"/>
<path d="M37.7375 98.7686L38.1413 98.53H37.7375V98.7686Z" fill="#060606"/>
<path d="M37.253 94.5538C37.0108 94.7129 37.5761 94.6333 37.8991 94.5538C38.0606 94.3152 37.4953 94.6333 37.253 94.5538Z" fill="#060606"/>
<path d="M36.2032 92.009C35.8802 92.1681 36.4455 92.2476 36.4455 92.4067C36.6877 92.2476 36.5262 92.0886 36.2032 92.009Z" fill="#060606"/>
<path d="M34.2654 90.9753C34.4269 90.9753 34.5077 91.0548 34.5884 90.9753L35.5575 91.0548C35.9612 90.8162 34.6692 90.9753 34.2654 90.9753Z" fill="#060606"/>
<path d="M34.1035 89.623L34.5073 89.8616V89.7821C34.9111 89.7821 35.0726 89.8616 35.3956 89.9411C35.1533 89.7026 34.7496 89.623 34.1035 89.623Z" fill="#060606"/>
<path d="M35.5571 90.1004C35.5571 90.0209 35.5571 90.0209 35.5571 90.1004C35.3956 90.0209 35.2341 90.0209 35.5571 90.1004Z" fill="#060606"/>
<path d="M35.4765 89.9414C35.3957 89.9414 35.3958 89.9414 35.3958 89.9414C35.4765 89.9414 35.4765 90.0209 35.5573 90.0209C35.638 89.9414 35.638 89.9414 35.4765 89.9414Z" fill="#060606"/>
<path d="M34.5076 89.464L34.3461 89.0664L34.1846 89.2255C34.8306 89.305 33.8615 89.464 34.5076 89.464Z" fill="#060606"/>
<path d="M35.073 87.5555H35.6382C35.7998 87.3169 34.5077 86.9988 35.4767 86.9192C35.073 86.9988 34.8307 86.6807 34.6692 86.9988C35.1537 86.9988 35.1537 87.3964 35.073 87.5555Z" fill="#060606"/>
<path d="M35.8801 86.6808C36.0416 86.7603 36.2031 86.6808 36.3646 86.6808C36.4454 86.6013 36.2031 86.5217 35.9609 86.5217C36.6877 86.6013 35.3956 86.6013 35.8801 86.6808Z" fill="#060606"/>
<path d="M35.88 85.6468C35.88 85.7263 35.9608 85.8058 36.1223 85.7263C36.1223 85.4877 35.3955 85.5673 34.9917 85.4082C34.6687 85.5673 35.557 85.7263 35.88 85.6468Z" fill="#060606"/>
<path d="M40.3218 84.3745C39.8373 84.3745 39.8373 84.5336 40.0795 84.5336C39.9988 84.454 40.1603 84.3745 40.3218 84.3745Z" fill="#060606"/>
<path d="M36.1225 83.9768L36.0417 84.0563L36.7686 84.2154L36.1225 83.9768Z" fill="#060606"/>
<path d="M35.8803 82.784L35.3958 82.5454V82.784H35.8803Z" fill="#060606"/>
<path d="M35.961 82.5452V82.3066L35.7188 82.3862C35.638 82.4657 35.961 82.4657 35.961 82.5452Z" fill="#060606"/>
<path d="M35.9611 81.9888C36.0418 81.9888 35.9611 81.9888 35.7996 82.0683L36.1226 82.3069L35.9611 81.9888Z" fill="#060606"/>
</g>
</g>
<path d="M92.5711 120.4L99.1122 131.693C99.6775 132.647 100.647 133.204 101.777 133.204H112.921C115.102 133.204 113.89 130.818 110.902 130.659C107.915 130.5 101.616 129.943 101.616 129.943L96.9318 120.321C96.9318 120.4 92.0058 118.412 92.5711 120.4Z" fill="#4D483E"/>
<path d="M124.308 133.204C124.308 133.204 126.65 130.897 115.587 131.295Z" fill="#4D483E"/>
<path d="M154.914 33.9545C154.914 33.9545 160.082 16.5381 150.149 7.63107C140.216 -1.27594 112.275 -6.68377 81.2649 16.5381C50.255 39.7599 42.018 63.5385 37.3342 80.7958C32.6504 98.0531 61.7222 122.388 90.471 123.343C119.22 124.297 146.192 116.344 159.436 87.8737C170.822 63.8566 154.914 33.9545 154.914 33.9545Z" fill="#FFF0DD"/>
<path d="M159.597 87.8737C158.548 90.1005 157.417 92.1682 156.206 94.1563C156.932 92.6453 153.541 83.0226 153.541 83.0226C153.541 83.0226 145.384 101.552 130.445 95.3493C115.505 89.1462 113.325 63.8566 111.387 50.8142C109.368 37.8513 96.2046 36.4994 96.2046 36.4994C98.1427 33.875 117.847 30.7734 118.816 21.8664C119.785 12.9594 122.531 7.6311 132.383 7.6311C137.228 7.6311 144.012 9.6988 146.596 10.335C152.733 11.7665 152.733 10.4145 152.733 10.2555C159.274 19.5601 155.075 33.875 155.075 33.875C155.075 33.875 170.822 63.8566 159.597 87.8737Z" fill="#FF8A00"/>
<path d="M146.515 10.3349C144.012 9.77818 137.229 7.63095 132.302 7.63095C122.45 7.63095 119.785 12.8797 118.736 21.8663C117.686 30.8528 98.143 33.8748 96.1242 36.4992C96.1242 36.4992 109.287 37.7716 111.306 50.814C111.306 51.0526 111.387 51.2117 111.387 51.4503C101.939 63.3793 89.1792 67.5942 68.2637 73.7178C48.6402 79.4437 38.142 85.6468 37.0115 86.4421C36.7692 84.5334 36.9307 82.6248 37.4152 80.7957C42.0183 63.5383 50.2553 39.7598 81.346 16.538C112.356 -6.68389 140.297 -1.19654 150.23 7.63095C151.199 8.42622 151.926 9.38054 152.653 10.3349C152.653 10.4144 152.653 11.7663 146.515 10.3349Z" fill="#89745E"/>
<path d="M163.555 26.797C163.555 26.797 156.206 29.2623 153.299 30.0576C150.391 30.8529 142.72 26.797 142.72 26.797C142.72 26.797 158.386 25.9222 163.555 26.797Z" fill="#50483F"/>
<path d="M130.445 23.3772C133.567 23.3772 136.098 20.8848 136.098 17.8103C136.098 14.7358 133.567 12.2434 130.445 12.2434C127.323 12.2434 124.792 14.7358 124.792 17.8103C124.792 20.8848 127.323 23.3772 130.445 23.3772Z" fill="#131313"/>
<path d="M128.83 16.9357C129.454 16.9357 129.96 16.4373 129.96 15.8224C129.96 15.2075 129.454 14.709 128.83 14.709C128.205 14.709 127.699 15.2075 127.699 15.8224C127.699 16.4373 128.205 16.9357 128.83 16.9357Z" fill="#E8DBCD"/>
<mask id="mask1_37_4304" style="mask-type:luminance" maskUnits="userSpaceOnUse" x="142" y="26" width="22" height="5">
<path d="M163.555 26.797C163.555 26.797 156.206 29.2623 153.299 30.0576C150.391 30.8529 142.72 26.797 142.72 26.797C142.72 26.797 158.386 25.9222 163.555 26.797Z" fill="white"/>
</mask>
<g mask="url(#mask1_37_4304)">
<g opacity="0.78">
<path d="M152.168 26.7971V26.7175C152.087 26.7175 152.087 26.7175 152.168 26.7971Z" fill="#060606"/>
<path d="M145.95 26.7971C145.95 26.8766 145.869 26.8766 145.95 26.7971Z" fill="#060606"/>
<path d="M153.299 26.638H153.38C153.299 26.5585 153.299 26.5585 153.299 26.638Z" fill="#060606"/>
<path d="M146.919 26.8767C146.919 27.1153 146.839 26.8767 146.839 27.1153C146.919 27.0358 146.919 27.0358 147 27.1153C146.919 27.2743 146.839 27.1153 146.839 27.2743L146.919 27.1948C147 27.2743 146.919 27.4334 146.919 27.4334C147 27.1948 147.162 27.5129 147.242 27.5129L147.404 27.672C147.404 27.672 147.404 27.672 147.404 27.5924C147.485 27.7515 147.565 27.831 147.646 27.7515C147.646 27.5924 147.969 27.672 148.05 27.5924C147.969 27.5924 147.969 27.672 147.888 27.5924V27.4334C147.969 27.4334 147.888 27.5924 147.969 27.5129C147.969 27.2743 147.808 27.5129 147.727 27.5129C147.727 27.4334 147.808 27.4334 147.808 27.3539C147.646 27.3539 147.565 27.2743 147.404 27.5129C147.323 27.4334 147.404 27.3539 147.404 27.3539C147.323 27.5129 147.323 27.1948 147.242 27.3539C147.242 27.1153 147.485 27.1948 147.565 27.1153C147.727 27.2743 147.888 27.1153 147.969 27.1153C147.969 27.2743 147.888 27.4334 147.969 27.5129C148.131 27.5924 148.131 27.4334 148.211 27.3539C148.292 27.4334 148.211 27.672 148.373 27.672L148.292 27.7515C148.373 27.9901 148.373 27.672 148.454 27.672C148.454 27.5924 148.454 27.5129 148.373 27.5924C148.373 27.5129 148.454 27.4334 148.454 27.4334C148.454 27.2743 148.454 27.1948 148.615 27.2743C148.534 27.4334 148.696 27.3539 148.696 27.4334C148.777 27.3539 148.858 27.4334 148.858 27.3539C148.938 27.2743 148.938 27.1153 149.019 27.1153C149.019 27.1948 148.938 27.3539 149.019 27.3539C149.019 27.4334 148.938 27.5129 148.858 27.4334C148.938 27.4334 149.019 27.672 148.858 27.672C148.858 27.831 148.938 27.5924 149.019 27.672C149.019 27.5924 149.019 27.5924 149.019 27.5129C149.019 27.672 149.181 27.5129 149.181 27.3539L149.1 27.4334C149.1 27.2743 149.181 27.1948 149.181 27.1153C149.261 27.3539 149.423 26.9562 149.504 27.1948L149.423 27.1153C149.665 27.1948 149.746 26.8767 149.988 26.7972C149.907 26.8767 149.907 27.1153 149.827 27.0358C149.988 27.0358 149.907 27.2743 149.988 27.4334C150.15 27.5129 150.069 27.1948 150.069 27.1153L149.988 27.1948C150.069 26.8767 150.392 27.2743 150.553 27.0358C150.553 27.1153 150.553 27.1153 150.473 27.1153C150.553 27.2743 150.553 27.1153 150.634 27.0358C150.715 27.0358 150.876 27.1153 150.796 27.2743C150.876 27.2743 150.796 27.1948 150.796 27.1153V27.1948L150.876 26.9562C150.957 27.0358 151.119 27.1153 151.119 27.2743C151.361 27.1948 151.119 26.8767 151.28 26.7972C151.361 26.8767 151.28 26.9562 151.28 27.0358H151.442C151.442 27.2743 151.28 27.1153 151.28 27.4334C151.361 27.1948 151.442 27.3539 151.603 27.1948C151.684 27.0358 151.845 27.1153 151.926 27.1153C151.926 27.1948 151.765 27.2743 151.765 27.2743C151.845 27.3539 152.088 27.2743 152.168 27.0358C152.249 27.0358 152.33 27.1153 152.249 27.2743C152.491 27.2743 152.33 26.9562 152.491 27.0358V27.1948C152.734 27.4334 152.814 26.9562 153.057 27.1153V26.8767C153.138 26.9562 153.218 26.9562 153.218 27.0358V26.9562C153.299 27.1153 153.299 26.7972 153.38 26.8767C153.38 26.7972 153.299 26.7177 153.299 26.6381C152.895 26.7972 152.491 26.5586 152.168 26.7972V26.8767C152.088 26.7972 152.007 26.8767 152.088 26.7972C152.007 26.8767 151.845 26.6381 151.845 26.6381C151.845 26.7972 151.603 26.6381 151.684 26.7972L151.603 26.6381C151.603 26.7177 151.603 26.8767 151.603 26.8767C151.522 26.8767 151.522 26.7972 151.603 26.7176C151.361 26.6381 151.038 26.7176 150.715 26.7972L150.796 26.7176C150.715 26.6381 150.553 26.9562 150.634 26.6381C150.473 26.7972 150.23 26.5586 150.311 26.8767C150.23 26.6381 149.988 26.7972 149.827 26.7972C149.907 27.0358 149.665 26.8767 149.665 26.9562C149.665 26.7972 149.827 26.7177 149.827 26.6381C149.665 26.9562 149.261 26.4791 149.261 26.9562C149.261 26.9562 149.261 26.9562 149.261 26.8767C149.261 26.8767 149.181 26.7972 149.1 26.7972C149.1 26.8767 149.181 26.9562 149.1 26.9562C149.019 26.9562 149.1 26.7972 149.019 26.7176C148.857 26.7972 148.696 26.8767 148.696 27.1153C148.615 27.0358 148.615 26.9562 148.615 26.8767C148.373 27.0358 148.373 26.8767 148.211 26.9562C148.292 26.9562 148.211 26.7176 148.373 26.7972C148.292 26.5586 148.05 26.8767 147.888 26.7176L147.808 26.8767C147.727 26.8767 147.727 26.7177 147.727 26.6381C147.565 26.5586 147.485 26.6381 147.323 26.6381V26.5586H147.162C147.162 26.6381 147.081 26.7176 147.081 26.7972C146.839 26.8767 146.839 26.7972 146.919 26.8767Z" fill="#060606"/>
<path d="M144.9 27.2743C144.9 27.5129 144.981 27.1947 145.143 27.2743C145.062 27.3538 145.062 27.5129 145.062 27.5924C145.143 27.2743 145.223 27.6719 145.385 27.5924C145.385 27.6719 145.304 27.7514 145.304 27.831C145.385 27.7514 145.546 27.6719 145.627 27.5129C145.789 27.5129 145.95 27.5924 146.031 27.5129C145.869 27.5924 146.031 27.6719 145.95 27.9105C146.112 27.6719 146.354 27.4333 146.515 27.1152C146.515 27.3538 146.515 27.3538 146.515 27.5129C146.758 27.6719 146.596 27.2743 146.758 27.3538H146.677C146.758 27.2743 146.758 27.1152 146.838 26.9562H146.596C146.596 26.7971 146.758 26.7971 146.758 26.7971C146.838 26.6381 146.596 26.6381 146.677 26.5585C146.677 26.6381 146.515 26.6381 146.515 26.7176V26.6381C146.435 26.5585 146.354 26.7971 146.273 26.7176C146.273 26.7176 146.273 26.7176 146.273 26.6381C146.273 26.7176 146.192 26.8766 146.112 26.8766H146.192C146.112 27.0357 145.869 27.1948 146.031 27.4333L145.789 27.3538C145.789 27.1152 145.869 26.7971 146.031 26.7971V26.7176C145.95 26.6381 145.708 26.8766 145.789 27.0357C145.708 27.5129 145.385 27.0357 145.223 27.2743C145.223 27.1152 145.304 27.1152 145.385 26.9562C145.466 26.9562 145.466 26.9562 145.466 27.0357C145.708 26.9562 145.385 26.6381 145.708 26.6381C145.869 26.7176 145.546 26.8766 145.708 26.8766L145.869 26.479C145.789 26.479 145.627 26.5585 145.546 26.6381C145.062 26.8766 144.658 26.6381 144.658 26.6381C143.931 26.7176 143.204 26.7176 142.397 26.7176C142.155 26.7971 142.074 26.7176 141.993 27.1152C142.074 27.1947 142.155 27.1947 142.155 27.2743C142.155 27.1152 142.316 27.0357 142.397 27.1152C142.397 27.2743 142.316 27.1948 142.316 27.1948C142.316 27.2743 142.316 27.2743 142.235 27.2743C142.397 27.5129 142.639 27.4333 142.72 27.1948C142.801 27.3538 142.639 27.4333 142.558 27.5129C142.962 27.5924 143.204 27.5924 143.608 27.6719C143.608 27.4333 143.689 27.5129 143.689 27.3538V27.4333C143.689 27.3538 143.77 27.1948 143.689 27.1948C143.931 27.3538 143.931 26.8766 144.093 26.7971V26.9562C144.254 26.9562 144.254 26.9562 144.335 26.8766C144.577 27.1152 144.174 26.8766 144.174 27.1948L144.254 27.1152C144.254 27.1947 144.174 27.4333 144.093 27.5129C144.254 27.2743 144.416 27.5924 144.577 27.4333C144.577 27.5924 144.335 27.6719 144.335 27.6719C144.416 27.6719 144.577 27.5924 144.577 27.7514V27.5924C144.739 27.5924 144.577 27.7514 144.577 27.831C144.9 27.9105 144.658 27.4333 144.9 27.2743Z" fill="#060606"/>
<path d="M147.323 27.9105C147.323 27.831 147.323 27.831 147.404 27.7515C147.323 27.831 147.242 27.831 147.323 27.9105Z" fill="#060606"/>
<path d="M157.175 26.8766C157.175 26.7971 157.256 26.7175 157.256 26.7175L157.175 26.8766Z" fill="#060606"/>
<path d="M156.933 26.7971L156.771 26.7175V26.9561C156.852 26.9561 156.771 26.7971 156.933 26.7971Z" fill="#060606"/>
<path d="M156.61 26.7175C156.61 26.6379 156.529 26.7175 156.61 26.7175Z" fill="#060606"/>
<path d="M156.61 26.7971V26.9561L156.771 26.7971H156.61C156.61 26.7175 156.61 26.7175 156.61 26.7175V26.7971Z" fill="#060606"/>
<path d="M156.125 26.5586C156.206 26.6381 156.125 26.7176 156.125 26.7972C156.287 26.8767 156.206 26.5586 156.287 26.6381C156.125 26.7972 156.368 26.7176 156.448 26.7972C156.368 26.6381 156.287 26.5586 156.206 26.5586V26.6381C156.125 26.7177 156.206 26.6381 156.125 26.5586Z" fill="#060606"/>
<path d="M155.56 26.9563L155.641 26.7972C155.641 26.8768 155.802 26.8768 155.802 27.0358C155.883 27.0358 155.883 26.9563 155.883 26.8768C155.964 26.9563 155.964 27.0358 156.044 26.8768C155.802 26.7972 155.883 26.7177 155.641 26.7177C155.641 26.7177 155.641 26.7177 155.721 26.7177L155.56 26.6382C155.56 26.7972 155.398 26.7972 155.56 26.9563Z" fill="#060606"/>
<path d="M155.399 26.8767C155.479 26.8767 155.56 26.7176 155.479 26.5586L155.318 26.7176C155.318 26.7176 155.399 26.7176 155.399 26.8767Z" fill="#060606"/>
<path d="M155.237 26.8766C155.156 26.7971 155.075 26.638 155.075 26.7971C155.156 26.7175 155.156 26.9561 155.237 26.8766Z" fill="#060606"/>
<path d="M154.51 26.7971L154.753 26.8767C154.833 27.1152 154.672 26.9562 154.591 27.0357C154.753 27.0357 154.672 26.9562 154.833 26.8767C154.914 26.8767 154.914 26.7971 154.995 26.7176C154.672 26.8767 154.591 26.3995 154.51 26.7971Z" fill="#060606"/>
<path d="M154.914 26.956V26.8765L154.833 26.956H154.914Z" fill="#060606"/>
<path d="M154.026 26.638C153.864 26.3994 153.783 26.797 153.703 26.7175C153.703 26.7175 153.703 26.7175 153.703 26.638H153.622V26.5585C153.622 26.7175 153.541 26.797 153.541 26.8766C153.703 27.0356 153.541 26.7175 153.703 26.8766C153.703 26.9561 153.703 27.0356 153.703 27.1152C153.783 27.0356 153.783 26.9561 153.783 26.8766C153.864 26.8766 153.864 26.9561 153.864 26.9561C153.945 26.8766 153.945 26.638 154.026 26.638C154.106 26.7971 154.026 26.8766 154.106 26.797C154.026 26.5585 154.268 26.7971 154.268 26.638C154.349 26.638 154.429 26.797 154.429 26.8766C154.429 26.7175 154.51 26.5585 154.51 26.4789L154.349 26.638L154.268 26.3994C154.187 26.7175 154.106 26.638 154.026 26.638Z" fill="#060606"/>
<path d="M154.429 27.0356L154.349 27.1152L154.429 27.1947V27.0356Z" fill="#060606"/>
<path d="M153.38 27.1948L153.299 27.1152L153.218 27.1948H153.38Z" fill="#060606"/>
<path d="M150.957 27.2743C151.038 27.3538 151.038 27.1948 151.038 27.1152C150.876 27.1152 151.038 27.2743 150.957 27.2743Z" fill="#060606"/>
<path d="M149.422 27.5922C149.503 27.6717 149.584 27.5127 149.665 27.5127C149.584 27.4331 149.503 27.5127 149.422 27.5922Z" fill="#060606"/>
<path d="M148.777 28.149C148.777 28.0695 148.857 28.0695 148.777 28.0695L148.857 27.8309C148.777 27.6719 148.777 27.99 148.777 28.149Z" fill="#060606"/>
<path d="M148.05 28.2285L148.131 28.149H148.05C148.05 28.0695 148.131 27.9899 148.131 27.9104C148.131 27.9104 148.05 27.9899 148.05 28.2285Z" fill="#060606"/>
<path d="M148.211 27.8309C148.292 27.7514 148.211 27.7514 148.211 27.8309Z" fill="#060606"/>
<path d="M147.969 28.0693H147.727L147.808 28.1489C147.888 27.9898 147.969 28.2284 147.969 28.0693Z" fill="#060606"/>
<path d="M146.839 27.9901V27.8311C146.677 27.8311 146.516 28.1492 146.435 27.9106C146.516 27.9901 146.354 28.0696 146.516 28.1492C146.596 27.9106 146.758 27.9106 146.839 27.9901Z" fill="#060606"/>
<path d="M146.354 27.7513C146.354 27.6718 146.354 27.6718 146.354 27.5923C146.273 27.5923 146.273 27.6718 146.273 27.7513C146.354 27.5128 146.354 27.8309 146.354 27.7513Z" fill="#060606"/>
<path d="M145.789 27.7514C145.708 27.6718 145.708 27.9104 145.708 27.9899C145.789 28.0695 145.869 27.8309 145.789 27.7514Z" fill="#060606"/>
<path d="M144.9 26.5586C144.9 26.7176 144.981 26.6381 145.062 26.6381C144.981 26.6381 144.9 26.6381 144.9 26.5586Z" fill="#060606"/>
<path d="M144.82 27.6717L144.9 27.7513V27.5127L144.82 27.6717Z" fill="#060606"/>
<path d="M144.174 27.8311L144.093 27.9901L144.174 27.9106V27.8311Z" fill="#060606"/>
</g>
</g>
<path d="M154.51 20.9121C154.51 20.9121 143.043 26.3995 142.72 26.7971C142.397 27.1152 162.666 26.5585 163.554 26.7971C164.524 26.9562 164.524 25.4451 154.51 20.9121Z" fill="#4D483E"/>
<path d="M96.2045 36.4993C96.2045 36.4993 68.344 39.6803 50.6587 58.3692C32.9733 77.058 57.9266 65.288 57.9266 65.288C57.9266 65.288 44.1982 72.2068 44.3598 78.0918C44.5213 83.5792 55.9885 77.7737 55.9885 77.7737" stroke="#1B1C1E" stroke-miterlimit="10"/>
<path d="M73.7548 33.0796C73.7548 33.0796 51.1434 45.6448 62.2069 48.985" stroke="#1B1C1E" stroke-miterlimit="10"/>
<path d="M25.8674 96.6214L32.1663 95.1899" stroke="#1B1C1E" stroke-miterlimit="10"/>
<path d="M89.26 120.4L95.8012 131.693C96.3664 132.647 97.3355 133.204 98.4661 133.204H120.431C122.612 133.204 121.401 130.818 118.413 130.659C115.425 130.5 98.3046 129.943 98.3046 129.943L93.6208 120.321C93.6208 120.4 90.7136 118.571 89.26 120.4Z" fill="#4D483E"/>
<path d="M119.381 133.204C119.381 133.204 121.966 130.58 105.653 131.057" stroke="#1B1C1E" stroke-miterlimit="10"/>
</svg>
