<svg width="139" height="198" viewBox="0 0 139 198" fill="none" xmlns="http://www.w3.org/2000/svg">
<path d="M1.06245 194.125C1.06245 194.125 -4.91342 196.192 11.4799 196.829C27.9539 197.465 114.846 197.783 123.81 196.829C132.774 195.874 150.136 196.431 127.04 194.125C103.944 191.818 80.2024 193.17 56.8642 191.818C33.6068 190.387 4.53492 191.659 1.06245 194.125Z" fill="#1B1C1E"/>
<path d="M109.678 115.552L121.307 185.774C121.307 185.774 101.925 182.116 101.279 178.538C100.633 174.959 93.5269 129.788 93.5269 129.788L109.678 115.552Z" fill="#8C7265"/>
<mask id="mask0_37_4162" style="mask-type:luminance" maskUnits="userSpaceOnUse" x="93" y="115" width="29" height="71">
<path d="M109.678 115.552L121.307 185.774C121.307 185.774 101.925 182.116 101.279 178.538C100.633 174.959 93.5269 129.788 93.5269 129.788L109.678 115.552Z" fill="white"/>
</mask>
<g mask="url(#mask0_37_4162)">
<g opacity="0.88">
<path d="M104.429 134.877L104.106 134.798C104.267 134.718 104.348 134.798 104.429 134.877Z" fill="#322015"/>
<path d="M109.194 130.424C109.274 130.424 109.274 130.503 109.355 130.503C109.194 130.503 109.194 130.424 109.194 130.424Z" fill="#322015"/>
<path d="M107.659 123.744V123.664H107.74C107.821 123.744 107.74 123.744 107.659 123.744Z" fill="#322015"/>
<path d="M107.982 124.062C108.063 124.062 108.063 123.982 107.982 124.062Z" fill="#322015"/>
<path d="M112.424 122.709L112.747 122.789C112.585 122.789 112.505 122.789 112.424 122.709Z" fill="#322015"/>
<path d="M106.69 123.902C106.771 123.902 106.852 123.902 107.013 123.902C106.852 123.982 106.771 123.982 106.69 123.902Z" fill="#322015"/>
<path d="M105.883 129.151C105.963 129.151 105.963 129.151 106.044 129.151C105.963 129.231 105.883 129.231 105.883 129.151Z" fill="#322015"/>
<path d="M103.46 136.786C103.379 136.786 103.379 136.865 103.298 136.865C103.298 136.786 103.379 136.786 103.46 136.786Z" fill="#322015"/>
<path d="M107.175 125.573C108.063 125.97 107.255 125.414 108.144 125.732C107.901 125.732 107.74 125.811 108.224 125.97C108.709 126.05 108.224 125.732 109.032 125.97L108.709 126.05C109.032 126.288 109.678 126.368 109.597 126.447C108.547 126.209 109.839 127.004 109.597 127.163H109.678L110.082 127.561C110.082 127.561 110.082 127.561 110.163 127.561C110.082 127.561 110.082 127.561 110.001 127.481C110.486 127.72 110.728 128.038 110.566 128.197C110.001 128.038 110.162 128.754 109.678 128.595C109.839 128.595 109.92 128.515 109.759 128.356L109.032 128.118C108.951 128.277 109.678 128.356 109.193 128.356C108.305 127.958 109.274 128.118 109.193 127.958C108.951 127.958 108.79 127.958 108.628 127.958C108.709 127.72 108.467 127.322 109.436 127.481C109.274 127.322 108.87 127.243 108.709 127.243C109.355 127.243 108.224 126.925 108.79 126.925C107.901 126.686 108.224 127.163 107.659 127.084C108.224 127.561 107.498 127.64 107.255 127.799C107.901 128.038 108.467 128.038 108.87 128.277C109.193 128.674 108.467 128.436 107.982 128.436C108.144 128.674 109.032 128.833 108.951 129.151H109.436C110.243 129.629 109.032 129.151 109.193 129.39C108.951 129.231 108.709 129.151 108.79 129.072C108.467 128.913 108.305 128.992 108.224 129.072V128.992C107.74 128.913 107.255 128.754 107.417 128.992C107.982 129.072 107.74 129.31 107.982 129.39H108.144C107.901 129.469 107.982 129.629 107.821 129.629L107.982 129.708C107.74 129.708 107.013 129.549 107.175 129.708C107.417 129.788 108.224 129.867 108.063 130.026C108.467 130.185 108.547 130.026 108.467 129.788C108.547 129.947 109.193 130.265 109.274 130.106C109.759 130.344 109.032 130.185 109.193 130.344C109.032 130.265 108.87 130.265 108.709 130.185C109.355 130.424 108.628 130.583 108.144 130.344H108.628C108.063 130.106 107.659 130.185 107.336 130.026C108.144 130.424 106.771 130.344 107.417 130.662L107.013 130.424C107.175 130.901 106.044 130.821 105.721 131.06C106.044 131.06 107.013 131.378 106.771 131.06C106.852 131.458 107.659 131.537 108.063 131.776C108.305 132.173 107.094 131.617 106.771 131.537L107.013 131.458C105.802 131.299 107.013 132.253 106.206 132.332C106.448 132.492 106.367 132.332 106.529 132.332C107.013 132.73 106.367 132.412 106.125 132.492C106.125 132.73 106.286 132.969 107.013 133.128C107.094 133.366 106.609 132.969 106.367 132.969L106.529 133.048L105.64 132.969C105.802 133.207 106.125 133.525 106.69 133.843C106.448 134.162 105.075 133.366 104.752 133.525C105.075 133.843 105.317 133.684 105.559 133.764L105.398 134.003C106.206 134.241 105.882 133.843 106.771 134.241C105.802 134.082 106.367 134.4 105.721 134.4L105.64 134.321C104.994 134.162 105.317 134.639 105.156 134.718C105.559 134.798 105.64 134.639 105.882 134.559C106.125 134.877 105.64 135.195 104.752 135.036C104.833 135.195 105.075 135.514 105.479 135.514C105.479 135.911 104.267 135.195 104.429 135.593L104.994 135.832C105.721 136.547 103.944 136.15 104.59 136.786L103.864 136.468C104.106 136.627 104.187 136.865 104.51 137.025L104.833 136.945C105.398 137.343 104.187 136.865 104.51 137.184C104.267 137.104 103.864 136.706 103.621 136.627C104.348 136.15 103.541 135.036 104.59 134.718C104.671 134.798 104.752 134.877 104.913 134.877C104.752 134.718 104.994 134.639 104.59 134.559H104.51C104.752 134.48 103.944 133.923 103.944 133.843C104.51 134.003 103.864 133.366 104.671 133.843L104.187 133.525C104.51 133.605 104.913 133.764 105.156 133.764C105.156 133.605 104.833 133.446 104.51 133.525C104.348 132.969 104.671 132.412 105.156 132.014H104.671C104.51 131.855 105.559 131.855 104.51 131.537C104.994 131.458 104.429 130.821 105.559 131.219C104.59 130.662 105.317 130.503 105.64 130.185C106.529 130.583 105.963 130.026 106.448 130.106C105.721 129.788 105.64 130.106 105.156 129.947C106.367 130.026 104.671 128.754 106.609 129.231C106.529 129.151 106.448 129.151 106.367 129.151C106.367 129.072 106.125 128.913 106.044 128.754C106.367 128.833 106.448 128.992 106.609 128.913C106.609 128.754 106.044 128.674 105.802 128.515C106.286 128.436 106.609 128.118 107.336 128.356C107.175 128.197 106.771 127.958 106.609 128.038C107.336 127.879 106.609 127.64 107.175 127.402C107.094 127.561 106.367 127.163 106.609 127.481C105.64 126.925 107.013 127.004 106.609 126.447L107.336 126.527C107.498 126.368 106.852 126.129 106.609 126.209C106.286 125.732 106.771 125.732 106.852 125.493C106.771 125.414 106.609 125.414 106.69 125.493L106.771 125.175C106.932 125.175 107.336 125.175 107.74 125.334C107.255 125.334 107.013 125.334 107.175 125.573Z" fill="#322015"/>
<path d="M109.436 129.628C109.274 129.549 109.194 129.469 109.194 129.469C109.274 129.469 109.355 129.549 109.436 129.628Z" fill="#322015"/>
<path d="M110.082 122.55C111.051 122.948 109.84 122.709 110.082 122.948C110.324 122.868 110.889 123.107 111.132 123.266C109.759 122.948 111.293 123.584 110.889 123.823C111.293 123.982 111.455 123.823 111.939 123.982C111.535 124.061 111.293 124.3 110.486 124.061C110.324 124.379 110.566 124.698 110.324 124.857C110.728 124.777 111.051 125.095 111.778 125.175C110.809 125.095 109.597 125.254 108.467 125.175C109.274 125.493 109.355 125.572 110.082 125.731C110.486 126.288 109.274 125.572 109.436 126.05L109.355 125.811C109.032 125.89 108.305 125.652 107.74 125.493L107.982 125.095C107.417 124.936 107.417 125.175 107.255 125.175C106.529 125.095 106.852 124.777 106.286 124.618C106.771 124.698 106.69 124.539 106.852 124.459L106.529 124.3C106.286 123.982 107.094 124.141 107.094 123.982C107.013 123.902 106.932 123.902 106.932 123.902C107.255 123.982 107.74 124.061 107.901 123.982L107.821 124.061C108.548 124.141 109.194 123.982 109.84 124.459L109.759 123.982C108.951 123.743 107.74 123.425 107.578 123.664L107.255 123.584C106.852 123.266 108.063 123.266 108.628 123.664C110.566 124.141 108.951 123.028 109.84 123.028C109.355 122.789 109.113 122.948 108.709 122.868C108.628 122.948 108.548 123.028 109.032 123.187C108.628 123.505 107.417 122.55 107.498 123.028C107.659 123.346 108.386 123.028 108.386 123.425L106.852 123.187C106.932 123.028 107.255 122.868 107.498 122.789C108.79 122.232 108.224 121.278 108.224 121.278C108.871 120.005 109.517 118.733 110.163 117.461C110.486 117.143 110.566 116.983 111.939 117.302C112.181 117.461 111.939 117.699 112.505 117.779C111.939 117.62 111.616 117.699 111.616 117.938C112.101 118.176 111.939 117.858 112.02 117.938V118.017C112.262 118.097 112.505 118.097 112.505 118.097C113.151 118.654 112.828 118.972 111.778 118.813C112.262 119.21 112.585 118.972 113.07 119.051C113.231 119.846 112.908 120.324 112.747 121.039C111.858 120.721 112.181 120.88 111.535 120.801L111.858 120.96C111.697 120.88 111.051 120.721 110.889 120.562C111.455 121.198 109.517 120.642 109.032 120.721L109.517 120.88C109.355 121.039 109.274 121.119 108.951 121.278C109.678 121.994 109.194 121.039 110.324 121.516H110.082C110.566 121.596 111.374 121.835 111.697 121.835C110.809 121.914 111.778 122.471 111.132 122.63C111.697 122.789 112.181 122.55 112.262 122.471C112.262 122.63 111.778 122.709 112.262 122.868L111.616 122.63C111.455 122.789 112.262 122.789 112.585 123.028C112.424 123.425 110.647 122.232 110.082 122.55Z" fill="#322015"/>
<path d="M108.467 128.118C108.467 128.038 108.467 127.958 108.547 127.958C108.547 128.038 108.547 128.038 108.467 128.118Z" fill="#322015"/>
<path d="M110.082 127.481C110.163 127.481 110.243 127.561 110.324 127.561C110.243 127.561 110.163 127.561 110.082 127.481Z" fill="#322015"/>
<path d="M111.051 127.72C110.728 127.561 110.728 127.64 110.324 127.561C110.566 127.561 110.647 127.402 111.051 127.72Z" fill="#322015"/>
<path d="M103.056 144.818C102.895 144.739 102.572 144.739 102.491 144.58L102.814 144.5L103.056 144.818Z" fill="#322015"/>
<path d="M102.733 143.943L102.652 143.625L103.541 144.023C103.298 144.182 102.895 143.784 102.733 143.943Z" fill="#322015"/>
<path d="M102.652 143.148L102.41 143.069C102.491 143.069 102.571 143.069 102.652 143.148Z" fill="#322015"/>
<path d="M102.975 143.307L103.621 143.625H103.056L102.975 143.466C102.814 143.307 102.733 143.228 102.652 143.148L103.137 143.307C103.056 143.307 102.895 143.307 102.975 143.307Z" fill="#322015"/>
<path d="M102.329 142.035C102.491 142.194 102.895 142.273 103.137 142.432C103.218 142.75 102.41 142.273 102.572 142.591C103.218 142.591 102.895 142.909 103.137 143.148C102.652 142.75 102.329 142.432 102.249 142.194L102.652 142.353C102.733 142.273 102.491 142.194 102.329 142.035Z" fill="#322015"/>
<path d="M103.864 141.557L103.218 141.398C103.46 141.557 103.379 141.796 103.944 142.114C103.783 142.194 103.541 142.035 103.379 142.035C103.621 142.273 103.783 142.432 103.379 142.273C103.218 141.716 103.056 141.716 102.975 141.319C102.814 141.239 102.814 141.319 102.814 141.398L102.652 141.001C103.298 141.319 103.541 141.08 103.864 141.557Z" fill="#322015"/>
<path d="M103.541 141.001C103.379 141.16 102.814 140.921 102.491 140.683L103.137 140.603C103.137 140.683 102.975 140.762 103.541 141.001Z" fill="#322015"/>
<path d="M103.702 140.762C103.46 140.524 102.814 140.126 103.541 140.285C103.298 140.444 104.187 140.762 103.702 140.762Z" fill="#322015"/>
<path d="M103.783 139.251L104.025 139.728C104.752 140.126 104.348 139.649 104.752 139.728C104.752 140.126 104.59 139.887 104.025 139.887C104.025 139.967 103.621 139.887 103.298 139.887C104.025 139.808 102.168 138.933 103.783 139.251Z" fill="#322015"/>
<path d="M104.187 140.285L103.864 140.206L104.187 140.126V140.285Z" fill="#322015"/>
<path d="M103.298 138.138C102.491 137.502 103.944 137.979 103.702 137.581C103.621 137.581 103.541 137.502 103.46 137.502L103.621 137.342L103.46 137.263C104.025 137.502 104.267 137.422 104.752 137.502C105.236 137.979 104.025 137.342 104.59 137.74C104.833 137.82 105.236 137.979 105.479 137.979C105.156 137.979 104.833 137.899 104.51 137.82C104.429 137.899 104.752 138.058 104.913 138.138C104.51 138.138 103.702 137.82 103.864 138.058C104.267 138.376 104.671 138.297 104.348 138.456C103.541 137.979 104.348 138.774 103.783 138.615C103.864 138.853 104.348 139.251 104.671 139.331C104.025 139.013 103.379 138.933 103.137 138.933H103.864L103.137 138.456C103.379 138.456 103.379 138.297 103.298 138.138Z" fill="#322015"/>
<path d="M104.752 139.49H104.913L105.156 139.649L104.752 139.49Z" fill="#322015"/>
<path d="M106.044 138.138C106.044 138.217 105.802 138.058 105.802 138.058L106.206 138.138H106.044Z" fill="#322015"/>
<path d="M105.64 137.74L105.237 137.422L105.64 137.502V137.74Z" fill="#322015"/>
<path d="M106.932 133.366C107.175 133.605 106.609 133.366 106.206 133.287C106.206 132.969 106.69 133.446 106.932 133.366Z" fill="#322015"/>
<path d="M108.628 130.98C108.951 131.299 108.305 131.219 108.305 131.378C108.063 131.14 108.305 130.98 108.628 130.98Z" fill="#322015"/>
<path d="M110.97 130.503C110.809 130.503 110.647 130.503 110.647 130.424L109.597 130.185C109.355 129.867 110.566 130.344 110.97 130.503Z" fill="#322015"/>
<path d="M111.616 129.31L111.132 129.39V129.31C110.728 129.231 110.486 129.231 110.163 129.151C110.405 128.992 110.889 128.992 111.616 129.31Z" fill="#322015"/>
<path d="M109.92 129.231C109.92 129.231 110.001 129.231 110.001 129.151C110.082 129.231 110.243 129.31 109.92 129.231Z" fill="#322015"/>
<path d="M110.082 129.072C110.163 129.072 110.163 129.072 110.243 129.072C110.082 129.072 110.082 129.151 110.082 129.072C109.92 129.072 109.84 129.072 110.082 129.072Z" fill="#322015"/>
<path d="M111.132 128.913L111.374 128.595L111.535 128.833C110.889 128.674 111.858 129.151 111.132 128.913Z" fill="#322015"/>
<path d="M111.293 126.845L110.728 126.606C110.647 126.368 112.101 126.527 111.132 126.05C111.455 126.288 111.858 126.129 111.939 126.447C111.374 126.368 111.212 126.686 111.293 126.845Z" fill="#322015"/>
<path d="M110.728 125.732C110.566 125.732 110.405 125.573 110.243 125.493C110.243 125.413 110.485 125.413 110.728 125.493C110.001 125.334 111.293 125.811 110.728 125.732Z" fill="#322015"/>
<path d="M111.212 124.698C111.212 124.777 111.051 124.857 110.97 124.698C111.051 124.539 111.697 124.777 112.182 124.857C112.424 125.095 111.455 124.936 111.212 124.698Z" fill="#322015"/>
<path d="M107.336 121.517C107.821 121.755 107.74 121.835 107.498 121.835C107.659 121.835 107.578 121.676 107.336 121.517Z" fill="#322015"/>
<path d="M111.616 123.028L111.697 123.107L110.889 122.869L111.616 123.028Z" fill="#322015"/>
<path d="M112.504 121.994H113.07L112.908 122.153L112.504 121.994Z" fill="#322015"/>
<path d="M112.424 121.676L112.505 121.517L112.666 121.676C112.828 121.835 112.505 121.596 112.424 121.676Z" fill="#322015"/>
<path d="M112.747 121.119C112.666 121.119 112.747 121.198 112.828 121.198L112.424 121.278L112.747 121.119Z" fill="#322015"/>
<path d="M110.808 116.745C110.243 116.586 110.647 116.507 110.566 116.427C110.728 116.507 111.293 116.825 110.808 116.745Z" fill="#322015"/>
</g>
</g>
<path d="M82.2214 1.19243C82.2214 1.19243 91.589 0.556215 98.6954 1.19243C105.802 1.82865 109.759 10.0994 109.759 10.0994C109.759 10.0994 135.843 11.9286 136.247 12.2467C136.65 12.4852 139.558 26.9591 126.798 33.878C116.462 39.4449 105.56 39.4449 105.56 39.4449C105.56 39.4449 103.864 44.6936 103.621 48.9881C103.379 53.203 105.237 56.7817 108.305 62.4281C111.374 68.0745 117.35 80.3217 116.219 94.9546C115.896 98.931 113.716 108.077 110.647 119.21C109.678 122.71 108.628 126.447 107.498 130.265C106.771 132.889 105.963 135.513 105.156 138.217C97.1611 165.336 87.7935 194.443 87.7935 194.443C87.7935 194.443 53.4726 194.443 39.6635 194.443C25.8543 194.443 14.9524 188.399 19.717 160.246C24.2392 133.207 37.4023 116.109 71.1579 36.2638C71.0772 36.1047 73.6614 3.33966 82.2214 1.19243Z" fill="#8C7265"/>
<path d="M110.486 119.131C109.517 122.63 108.467 126.368 107.336 130.185C106.609 132.809 105.802 135.434 104.994 138.138" stroke="#1B1C1E" stroke-width="1.2604" stroke-miterlimit="10" stroke-linecap="round" stroke-linejoin="round"/>
<path d="M26.1773 156.509C26.1773 156.509 25.0467 169.233 37.7252 174.004C50.4038 178.697 65.9895 178.537 65.828 194.363" stroke="#1B1C1E" stroke-width="1.2604" stroke-miterlimit="10" stroke-linecap="round" stroke-linejoin="round"/>
<path d="M90.7815 78.4926C90.7815 78.4926 95.7883 81.276 98.6147 99.5672C101.441 117.858 111.536 181.321 111.536 181.321C111.536 181.321 131.078 180.207 130.109 194.363H75.2765L72.2886 110.144C72.3693 110.065 81.4946 76.2658 90.7815 78.4926Z" fill="#8C7265"/>
<path d="M90.7815 78.4927C90.7815 78.4927 95.7883 81.2761 98.6147 99.5673C101.441 117.858 111.536 181.321 111.536 181.321C111.536 181.321 131.078 180.208 130.109 194.363" stroke="#1B1C1E" stroke-width="1.2604" stroke-miterlimit="10" stroke-linecap="round" stroke-linejoin="round"/>
<path d="M81.8175 0.874354C81.8175 0.874354 84.2401 2.70347 83.4326 6.75934C82.625 10.8152 77.7797 20.6765 77.699 25.2096C77.6182 29.7426 81.2522 43.5008 77.699 45.4889C75.7609 46.6023 70.8348 46.1252 63.5668 37.8544C56.2181 29.5836 53.5532 25.6867 57.4295 19.1655C61.3057 12.6443 75.1148 -3.97679 81.8175 0.874354Z" fill="#1B1C1E"/>
<path d="M131.886 29.8223C131.886 29.8223 128.655 32.9238 121.307 33.3214C113.958 33.6396 104.671 33.8781 101.845 36.2639" stroke="#1B1C1E" stroke-width="1.2604" stroke-miterlimit="10" stroke-linecap="round" stroke-linejoin="round"/>
<path d="M129.705 11.3721C129.705 11.3721 128.736 16.4618 131.32 18.3705C133.905 20.2791 136.65 18.8476 136.65 19.0067C136.65 19.0067 137.539 15.8256 136.57 12.406C136.489 12.1674 136.327 12.0083 136.085 12.0083C134.712 11.7698 130.19 11.2926 129.705 11.3721Z" fill="#1B1C1E" stroke="#1B1C1E" stroke-width="1.3664" stroke-miterlimit="10" stroke-linecap="round" stroke-linejoin="round"/>
<path d="M101.279 11.8492C101.279 13.2807 100.391 14.3941 99.2606 14.3941C98.13 14.3941 97.2417 13.2012 97.2417 11.8492C97.2417 10.4972 98.13 10.4177 99.2606 10.4177C100.391 10.4177 101.279 10.4177 101.279 11.8492Z" fill="#1B1C1E"/>
<path d="M78.0222 194.284H98.534C98.534 194.284 101.522 181.241 79.2335 181.639C79.2335 181.639 90.7815 164.223 88.2781 146.329C85.6939 127.799 64.8591 118.336 45.9624 133.048" fill="#8C7265"/>
<path d="M92.3966 194.284C92.3966 194.284 92.6389 189.83 90.7815 187.524" stroke="#1B1C1E" stroke-width="1.2604" stroke-miterlimit="10" stroke-linecap="round" stroke-linejoin="round"/>
<path d="M85.3707 194.284C85.3707 194.284 85.2092 189.671 82.7058 188.16" stroke="#1B1C1E" stroke-width="1.2604" stroke-miterlimit="10" stroke-linecap="round" stroke-linejoin="round"/>
<path d="M124.295 194.284C124.295 194.284 124.537 189.83 122.68 187.524" stroke="#1B1C1E" stroke-width="1.2604" stroke-miterlimit="10" stroke-linecap="round" stroke-linejoin="round"/>
<path d="M118.561 194.284C118.561 194.284 118.4 189.671 115.896 188.16" stroke="#1B1C1E" stroke-width="1.2604" stroke-miterlimit="10" stroke-linecap="round" stroke-linejoin="round"/>
<path d="M98.534 194.284C98.534 194.284 101.522 181.241 79.2335 181.639C79.2335 181.639 90.7815 164.223 88.2781 146.329C85.6939 127.799 64.8591 118.336 45.9624 133.048" stroke="#1B1C1E" stroke-width="1.2604" stroke-miterlimit="10" stroke-linecap="round" stroke-linejoin="round"/>
<mask id="mask1_37_4162" style="mask-type:luminance" maskUnits="userSpaceOnUse" x="91" y="39" width="16" height="11">
<path d="M105.56 39.2859C105.56 39.2859 99.0991 39.4449 91.9927 39.2859C91.9927 39.2859 100.876 49.3063 105.56 49.4653C107.336 49.5449 103.46 49.7834 103.621 48.0338C103.944 44.8528 105.56 39.2859 105.56 39.2859Z" fill="white"/>
</mask>
<g mask="url(#mask1_37_4162)">
<g opacity="0.88">
<path d="M99.8259 40.7969C99.8259 40.8764 99.9067 40.9559 99.9067 41.115L99.8259 40.7969Z" fill="#322015"/>
<path d="M103.783 39.4448C103.863 39.4448 103.863 39.4448 103.783 39.4448C103.863 39.6039 103.863 39.5244 103.783 39.4448Z" fill="#322015"/>
<path d="M102.41 39.5244C102.329 40.2401 102.571 39.6039 102.491 40.2401C102.41 40.0811 102.41 40.0015 102.329 40.3197C102.329 40.7173 102.491 40.3196 102.491 40.8763L102.41 40.6378C102.329 40.8763 102.41 41.3535 102.329 41.3535C102.329 40.5582 101.925 41.5921 101.845 41.5126V41.5921L101.602 41.9102C101.602 41.9102 101.602 41.9102 101.602 41.9897C101.602 41.9102 101.602 41.9102 101.602 41.8307C101.522 42.2283 101.36 42.4669 101.199 42.3873C101.199 41.9102 100.714 42.1488 100.714 41.8307C100.795 41.9102 100.795 41.9897 100.876 41.8307L100.956 41.274C100.795 41.274 100.876 41.7511 100.795 41.433C100.876 40.7173 100.956 41.433 101.118 41.3535C101.118 41.1944 101.037 41.0354 101.037 40.9559C101.199 40.9559 101.441 40.7173 101.522 41.433C101.602 41.274 101.602 40.9559 101.602 40.8763C101.683 41.274 101.764 40.4787 101.845 40.8763C101.845 40.2401 101.602 40.4787 101.522 40.0811C101.279 40.5582 101.118 40.0811 100.956 39.922C100.876 40.3992 100.956 40.8763 100.876 41.1149C100.633 41.433 100.714 40.7968 100.633 40.5582C100.472 40.7173 100.472 41.3535 100.31 41.3535L100.391 41.6716C100.149 42.3873 100.31 41.3535 100.149 41.5126C100.23 41.3535 100.23 41.1944 100.31 41.1944C100.391 40.9559 100.31 40.7968 100.23 40.7968C100.23 40.4787 100.23 40.0811 100.068 40.2401C100.068 40.6378 99.9065 40.5582 99.8258 40.7173V40.7968C99.745 40.6378 99.6642 40.7173 99.5835 40.6378V40.7173C99.5027 40.5582 99.5835 40.0015 99.422 40.1606C99.422 40.3992 99.422 40.9559 99.3412 40.7968C99.3412 41.1149 99.422 41.1944 99.5835 41.0354C99.422 41.1149 99.3412 41.5921 99.422 41.6716C99.3412 42.0692 99.3412 41.5126 99.1797 41.6716C99.1797 41.5921 99.1797 41.433 99.2605 41.274C99.1797 41.8307 99.0182 41.274 99.0182 40.8763L99.099 41.1944C99.1797 40.7968 99.0182 40.4787 99.1797 40.2401C99.0182 40.8763 98.8567 39.8425 98.6952 40.3992L98.7759 40.0811C98.4529 40.2401 98.3722 39.4449 98.1299 39.2063C98.2107 39.4449 98.0491 40.1606 98.2914 39.922C97.9684 40.0015 98.0491 40.6378 97.9684 40.9559C97.7261 41.1944 97.9684 40.2401 97.9684 40.0015L98.0491 40.1606C98.0491 39.2858 97.4839 40.2401 97.3224 39.6834C97.2416 39.922 97.3224 39.8425 97.4031 39.922C97.1608 40.3197 97.3223 39.8425 97.2416 39.6039C97.0801 39.6834 96.9186 39.8425 96.9186 40.3197C96.7571 40.3992 96.9993 40.0015 96.9186 39.8425L96.8378 39.922V39.2858C96.6763 39.4449 96.434 39.6834 96.2725 40.1606C96.0303 40.0015 96.434 38.9677 96.2725 38.7291C96.111 38.9677 96.1918 39.1267 96.1918 39.3653L96.0303 39.2858C95.9495 39.922 96.1918 39.6039 96.0303 40.3197C96.0303 39.6039 95.8688 40.0811 95.788 39.6039V39.5244C95.788 39.0472 95.5457 39.2858 95.3842 39.2063C95.3842 39.5244 95.465 39.5244 95.5457 39.6834C95.3842 39.922 95.0612 39.6039 95.0612 38.9677C94.9804 39.0472 94.7382 39.2858 94.8189 39.5244C94.4959 39.5244 94.8997 38.6496 94.6574 38.7291L94.5767 39.2063C94.1729 39.763 94.2536 38.4905 93.8499 39.0472L94.0114 38.4905C93.9306 38.7291 93.7691 38.8086 93.6884 38.9677L93.7691 39.2063C93.5269 39.6039 93.7691 38.7291 93.5269 39.0472C93.6076 38.8882 93.7691 38.5701 93.8499 38.3315C94.2536 38.8086 94.9805 38.0929 95.3842 38.8086C95.3842 38.8882 95.3035 38.9677 95.3035 39.0472C95.3842 38.8882 95.465 39.1267 95.5457 38.8086V38.7291C95.6265 38.8882 95.9495 38.252 96.0303 38.252C96.0303 38.6496 96.3533 38.1724 96.111 38.8086L96.2725 38.411C96.2725 38.6496 96.1918 38.9677 96.1918 39.1267C96.2725 39.1267 96.3533 38.8086 96.3533 38.6496C96.7571 38.4905 97.1608 38.6496 97.4838 38.8882V38.5701C97.5646 38.411 97.7261 39.2063 97.8069 38.411C97.8876 38.7291 98.3722 38.252 98.2107 39.1267C98.4529 38.3315 98.6952 38.8882 98.9375 39.0472C98.7759 39.763 99.099 39.2858 99.099 39.6039C99.2605 39.0472 99.0182 39.0472 99.0182 38.6496C99.1797 39.5244 99.8258 38.1724 99.745 39.5244C99.745 39.4449 99.8258 39.4449 99.8258 39.3653C99.9065 39.3653 99.9873 39.1267 100.068 39.0472C100.068 39.2858 99.9065 39.3653 100.068 39.5244C100.149 39.5244 100.149 39.1267 100.23 38.8882C100.391 39.2063 100.633 39.3653 100.553 40.0015C100.633 39.8425 100.714 39.5244 100.714 39.4449C100.956 39.922 101.037 39.3653 101.279 39.6834C101.199 39.6834 101.279 39.0472 101.118 39.2858C101.36 38.4905 101.522 39.4449 101.845 39.1267V39.6834C102.006 39.763 102.006 39.2858 101.925 39.1267C102.168 38.8086 102.329 39.1267 102.491 39.2063C102.491 39.1267 102.491 39.0472 102.491 39.0472H102.733C102.733 39.2063 102.814 39.4449 102.814 39.763C102.652 39.5244 102.571 39.2858 102.41 39.5244Z" fill="#322015"/>
<path d="M99.9065 41.7513C99.9872 41.5922 99.9873 41.5922 99.9873 41.5127C99.9873 41.5922 99.9872 41.6717 99.9065 41.7513Z" fill="#322015"/>
<path d="M105.156 40.7969C105.075 41.5922 104.994 40.6379 104.833 40.8765C104.913 41.0355 104.913 41.4332 104.913 41.6717C104.752 40.6379 104.752 41.9103 104.51 41.6717C104.51 41.9898 104.59 42.0694 104.59 42.3875C104.429 42.1489 104.187 41.9899 104.187 41.4332C103.944 41.4332 103.783 41.5922 103.621 41.5127C103.783 41.7513 103.621 42.0694 103.702 42.5465C103.541 41.9103 103.218 41.0355 102.975 40.2403C102.895 40.8765 102.895 40.956 102.895 41.5127C102.572 41.9103 102.814 40.956 102.572 41.1151L102.733 41.0355C102.652 40.8765 102.652 40.2403 102.652 39.8426L102.975 39.9222C102.975 39.5245 102.814 39.5245 102.733 39.445C102.652 38.8883 102.895 39.1269 102.895 38.7292C102.895 39.0474 103.056 38.9678 103.137 39.1269V38.8883C103.298 38.6497 103.298 39.2064 103.46 39.2064C103.46 39.1269 103.46 39.1269 103.46 39.0474C103.46 39.2859 103.541 39.604 103.621 39.6836H103.541C103.621 40.2403 103.864 40.5584 103.702 41.1946L104.025 41.0355C104.025 40.3993 104.025 39.5245 103.783 39.445V39.2064C103.944 38.8883 104.187 39.6836 104.025 40.1607C104.106 41.5922 104.51 40.2403 104.752 40.7969C104.752 40.3993 104.671 40.2403 104.59 40.0017C104.51 39.9222 104.51 39.9222 104.429 40.2403C104.106 40.0017 104.51 38.9678 104.187 39.1269C104.025 39.2859 104.348 39.7631 104.106 39.8426L103.944 38.7292C104.106 38.7292 104.187 38.9678 104.348 39.0474C104.994 39.7631 105.479 39.2064 105.479 39.2064C105.963 39.2859 106.448 39.2859 106.932 39.3655C107.417 39.3655 107.901 39.445 108.305 39.3655C108.628 39.445 108.709 39.3655 109.032 40.3993C109.032 40.6379 108.79 40.5584 108.951 40.956C108.87 40.5584 108.709 40.3993 108.547 40.4788C108.628 40.8765 108.709 40.6379 108.709 40.7174C108.79 40.8765 108.79 41.0355 108.87 41.0355C108.79 41.6717 108.386 41.5922 108.144 40.8765C108.063 41.2741 108.305 41.5127 108.467 41.7513C107.901 42.1489 107.498 42.0694 106.932 42.2284C106.852 41.5127 106.852 41.8308 106.771 41.3536V41.5922C106.771 41.4332 106.69 40.956 106.771 40.8765C106.448 41.4332 106.367 40.0017 106.125 39.6836V40.0812C105.963 40.0017 105.882 40.0017 105.721 39.8426C105.479 40.5584 105.963 39.9222 105.882 40.7969L105.802 40.6379C105.882 40.956 105.963 41.5922 106.044 41.8308C105.721 41.2741 105.64 42.0694 105.317 41.5922C105.317 41.9898 105.64 42.308 105.721 42.3875C105.64 42.467 105.398 42.1489 105.398 42.5465V42.0694C105.236 41.9898 105.398 42.5465 105.398 42.8646C105.156 42.7056 105.479 41.1151 105.156 40.7969Z" fill="#322015"/>
<path d="M100.876 40.8765C100.956 40.8765 100.956 40.8765 101.037 40.956C100.956 40.8765 100.876 40.8765 100.876 40.8765Z" fill="#322015"/>
<path d="M101.603 42.5464C101.683 42.3079 101.603 42.3079 101.603 41.9897C101.683 42.2283 101.764 42.2283 101.603 42.5464Z" fill="#322015"/>
<path d="M92.0734 38.8881L91.7504 39.1267C91.5081 39.6834 91.8311 39.3653 91.8311 39.6039C91.5889 39.6834 91.6696 39.4448 91.6696 39.0472C91.5889 39.0472 91.5889 38.7291 91.5889 38.57C91.6696 39.1267 92.2349 37.7747 92.0734 38.8881Z" fill="#322015"/>
<path d="M92.8808 38.4905C93.2846 37.8543 93.0423 38.9677 93.2846 38.7291C93.2846 38.6496 93.2846 38.6496 93.2846 38.5701L93.4461 38.6496L93.5268 38.4905C93.3653 38.8882 93.5268 39.1267 93.4461 39.4449C93.123 39.8425 93.5268 38.8882 93.2038 39.3653C93.2038 39.5244 93.123 39.8425 93.123 40.0015C93.123 39.763 93.1231 39.5244 93.2038 39.2858C93.1231 39.2063 93.0423 39.4449 93.0423 39.6039C92.9615 39.3653 93.2038 38.7291 92.9616 38.8086C92.7193 39.1267 92.8808 39.3653 92.7193 39.2063C93.0423 38.5701 92.477 39.2858 92.5578 38.8086C92.3963 38.8882 92.154 39.2858 92.0732 39.5244C92.2348 39.0472 92.2347 38.5701 92.2347 38.3315L92.3155 38.8086L92.5578 38.252C92.6385 38.5701 92.7193 38.5701 92.8808 38.4905Z" fill="#322015"/>
<path d="M93.2041 40.3995C93.2041 40.3995 93.2041 40.2404 93.2849 40.1609V40.479L93.2041 40.3995Z" fill="#322015"/>
<path d="M93.446 40.0813L93.6076 39.7632V40.0813H93.446Z" fill="#322015"/>
<path d="M96.8379 40.4788C96.6764 40.6379 96.7571 40.2402 96.8379 39.9221C96.9994 39.9221 96.7571 40.3198 96.8379 40.4788Z" fill="#322015"/>
<path d="M98.7761 41.4331C98.6146 41.6717 98.5339 41.274 98.4531 41.274C98.6146 41.0354 98.7761 41.1945 98.7761 41.4331Z" fill="#322015"/>
<path d="M99.5027 42.9441C99.5027 42.7851 99.4219 42.7055 99.5027 42.7055V41.9103C99.745 41.7512 99.5834 42.626 99.5027 42.9441Z" fill="#322015"/>
<path d="M100.553 43.1828L100.391 42.8647H100.472C100.472 42.5466 100.472 42.3875 100.391 42.1489C100.553 42.3875 100.633 42.7056 100.553 43.1828Z" fill="#322015"/>
<path d="M100.472 42.0694V42.1489C100.391 42.1489 100.391 42.1489 100.472 42.0694C100.391 41.9899 100.391 41.9899 100.472 42.0694Z" fill="#322015"/>
<path d="M100.714 42.8647L101.037 42.9443L100.876 43.1033C100.876 42.6262 100.714 43.3419 100.714 42.8647Z" fill="#322015"/>
<path d="M102.329 42.6261L102.41 42.1489C102.571 42.0694 102.733 43.1033 102.894 42.308C102.814 42.5466 102.975 42.8647 102.814 42.9442C102.733 42.5466 102.491 42.5466 102.329 42.6261Z" fill="#322015"/>
<path d="M103.056 41.9899C103.056 41.8309 103.056 41.7513 103.137 41.6718C103.218 41.5923 103.298 41.8309 103.218 41.9899C103.218 41.3537 103.137 42.3875 103.056 41.9899Z" fill="#322015"/>
<path d="M103.944 42.0695C103.864 42.0695 103.783 41.9899 103.864 41.9104C104.025 41.9104 103.944 42.4671 104.025 42.7852C103.864 43.0238 103.783 42.308 103.944 42.0695Z" fill="#322015"/>
<path d="M105.236 41.9899L105.156 42.0694V41.5127L105.236 41.9899Z" fill="#322015"/>
</g>
</g>
<path d="M79.2336 181.719H74.469" stroke="#1B1C1E" stroke-width="1.3664" stroke-miterlimit="10" stroke-linecap="round" stroke-linejoin="round"/>
</svg>
