<svg width="184" height="175" viewBox="0 0 184 175" fill="none" xmlns="http://www.w3.org/2000/svg">
<path d="M17.4668 170.921C17.4668 170.921 10.6026 172.989 29.3378 173.625C48.073 174.261 147.159 174.579 157.415 173.625C167.59 172.67 187.456 173.227 161.13 170.921C134.804 168.615 107.67 169.966 81.1826 168.615C54.6949 167.183 21.5046 168.535 17.4668 170.921Z" fill="#1B1C1E"/>
<path d="M39.271 107.14C39.271 107.14 55.2605 155.731 56.9564 162.65C56.9564 162.65 48.8001 163.684 48.8808 171.159C48.8808 171.159 59.6213 171.159 60.8326 171.159C62.0439 171.159 64.3051 164.956 64.3051 164.956C64.3051 164.956 62.69 118.035 64.3051 107.935C65.9202 97.8354 39.271 99.0283 39.271 107.14Z" fill="#637189"/>
<mask id="mask0_37_4446" style="mask-type:luminance" maskUnits="userSpaceOnUse" x="39" y="100" width="26" height="30">
<path d="M64.3051 107.855C63.7398 111.514 63.5783 120.103 63.5783 129.487C53.1609 118.671 42.8242 118.035 42.8242 118.035C40.7246 111.593 39.271 107.14 39.271 107.14C39.271 99.0279 65.9202 97.835 64.3051 107.855Z" fill="white"/>
</mask>
<g mask="url(#mask0_37_4446)">
<g opacity="0.88">
<path d="M47.0234 113.423L47.1042 113.025C47.1849 113.184 47.1042 113.263 47.0234 113.423Z" fill="#080809"/>
<path d="M54.4531 117.24C54.5339 117.32 54.5339 117.479 54.5339 117.717L54.4531 117.24Z" fill="#080809"/>
<path d="M53.4035 118.751C53.4035 118.831 53.3228 118.91 53.3228 118.91C53.3228 118.831 53.4035 118.831 53.4035 118.751Z" fill="#080809"/>
<path d="M61.3174 114.934C61.3981 114.934 61.3981 114.934 61.3981 114.934V115.013C61.3981 115.172 61.3981 115.013 61.3174 114.934Z" fill="#080809"/>
<path d="M61.0752 115.49L61.156 115.57C61.156 115.49 61.156 115.49 61.0752 115.49Z" fill="#080809"/>
<path d="M60.8328 113.741C60.8328 113.82 60.8328 113.979 60.9135 114.138C60.8328 113.979 60.752 113.979 60.8328 113.741Z" fill="#080809"/>
<path d="M44.5204 112.389C44.4396 112.309 44.4396 112.23 44.3589 112.15C44.6012 112.071 44.6011 112.23 44.5204 112.389Z" fill="#080809"/>
<path d="M58.9756 115.013C58.8141 116.206 59.2179 115.093 59.1371 116.286C59.0564 116.047 58.9756 115.808 58.8141 116.445C58.8949 117.081 59.1371 116.445 59.0564 117.399L58.8949 117.001C58.7334 117.478 58.8141 118.274 58.7334 118.194C58.7334 116.763 58.0873 118.671 57.8451 118.433L57.9258 118.592L57.522 119.228V119.308C57.522 119.228 57.522 119.149 57.522 119.069C57.2798 119.705 57.0375 120.182 56.7952 120.023C56.7952 119.228 55.9877 119.626 55.9877 118.989C56.0684 119.228 56.1492 119.228 56.3107 119.069L56.3915 118.115C56.1492 118.115 56.23 118.989 56.0685 118.353C56.3107 117.081 56.3915 118.433 56.553 118.274C56.553 117.956 56.4722 117.717 56.3915 117.558C56.7145 117.558 57.1183 117.16 57.199 118.433C57.3605 118.194 57.3605 117.638 57.2798 117.478C57.4413 118.274 57.522 116.763 57.6836 117.478C57.7643 116.286 57.2798 116.842 57.1183 116.127C56.7145 117.001 56.3915 116.127 56.0685 115.888C55.9069 116.763 56.0685 117.558 55.8262 118.035C55.4224 118.592 55.5839 117.558 55.4224 117.001C55.0994 117.24 55.1801 118.433 54.7764 118.433L54.9379 119.069C54.5341 120.262 54.7764 118.512 54.6149 118.751C54.6956 118.433 54.7764 118.115 54.9379 118.194C55.0186 117.717 54.9379 117.558 54.8571 117.478H54.9379C54.9379 116.842 55.0186 116.206 54.7764 116.524C54.7764 117.24 54.4533 117.001 54.3726 117.319V117.478C54.2111 117.24 54.0496 117.24 53.9688 117.16V117.319C53.8881 117.001 54.0496 116.127 53.8073 116.286C53.7266 116.683 53.8073 117.638 53.6458 117.478C53.565 118.035 53.8073 118.115 54.0496 117.956C53.8073 118.115 53.565 118.989 53.8073 119.069C53.6458 119.705 53.6458 118.751 53.4843 118.989C53.565 118.751 53.565 118.512 53.565 118.353C53.4035 119.308 53.0805 118.353 53.242 117.717L53.4035 118.274C53.565 117.558 53.4035 117.001 53.565 116.604C53.242 117.717 53.0805 115.888 52.7575 116.842L52.9998 116.286C52.4345 116.604 52.3537 115.093 51.9499 114.695C52.0307 115.093 51.7077 116.365 52.1114 115.967C51.6269 116.127 51.7077 117.16 51.3847 117.797C50.9001 118.194 51.4654 116.604 51.4654 116.127L51.6269 116.445C51.7077 114.934 50.6579 116.524 50.4156 115.49C50.2541 115.888 50.4156 115.729 50.4963 115.888C50.0926 116.604 50.3348 115.649 50.2541 115.331C50.0118 115.411 49.608 115.649 49.5273 116.604C49.2043 116.763 49.6888 116.047 49.6888 115.729L49.608 115.888L49.6888 114.775C49.3658 115.013 48.962 115.411 48.639 116.286C48.2352 115.967 49.1235 114.138 48.8812 113.741C48.5582 114.138 48.7197 114.456 48.639 114.775L48.3967 114.615C48.1545 115.649 48.5582 115.252 48.2352 116.445C48.316 115.172 47.9929 115.967 47.9122 115.093L47.9929 115.013C48.0737 114.138 47.5892 114.615 47.4277 114.377C47.3469 114.854 47.5892 115.013 47.6699 115.252C47.2661 115.57 46.8624 115.013 47.0239 113.9C46.8624 113.979 46.3778 114.297 46.4586 114.854C45.9741 114.854 46.7816 113.343 46.2971 113.502L45.9741 114.297C45.0858 115.252 45.4895 113.025 44.682 113.82L45.0858 112.866C44.8435 113.264 44.6012 113.343 44.359 113.661L44.4397 114.059C43.9552 114.775 44.5205 113.184 44.1167 113.661C44.2782 113.343 44.682 112.786 44.8435 112.468C45.4895 113.423 46.8624 112.309 47.3469 113.582C47.2661 113.661 47.1854 113.82 47.1046 113.979C47.2661 113.82 47.3469 114.138 47.5084 113.582V113.502C47.6699 113.82 48.2352 112.707 48.3967 112.707C48.2352 113.423 48.962 112.548 48.4775 113.661L48.8812 113.025C48.8005 113.423 48.5582 113.979 48.639 114.218C48.8005 114.138 48.962 113.741 48.962 113.423C49.6888 113.184 50.3348 113.502 50.9001 114.059V113.502C51.1424 113.264 51.2231 114.615 51.3847 113.184C51.5462 113.82 52.273 113.025 51.9499 114.456C52.5152 113.104 52.8382 114.059 53.1613 114.297C52.8382 115.49 53.4035 114.695 53.4035 115.331C53.6458 114.377 53.242 114.297 53.4035 113.661C53.565 115.252 54.7764 112.786 54.5341 115.331C54.6149 115.252 54.6149 115.172 54.6149 115.013C54.6956 115.013 54.8571 114.615 55.0186 114.536C55.0186 115.013 54.7764 115.172 54.9379 115.331C55.0994 115.252 55.1801 114.536 55.2609 114.297C55.5032 114.934 55.9069 115.252 55.8262 116.206C55.9877 115.967 56.1492 115.411 56.0685 115.172C56.4722 116.047 56.553 115.093 56.9568 115.649C56.7952 115.57 57.0375 114.615 56.7145 114.934C57.1183 113.582 57.4413 115.252 57.9258 114.615L58.0066 115.57C58.2488 115.729 58.3296 114.854 58.2488 114.536C58.7334 114.059 58.8949 114.615 59.2179 114.615C59.2179 114.536 59.2179 114.297 59.2179 114.377H59.7024C59.7024 114.615 59.8639 115.093 59.7832 115.649C59.2987 115.013 59.2179 114.695 58.9756 115.013Z" fill="#080809"/>
<path d="M54.5337 118.91C54.6144 118.672 54.6952 118.592 54.6952 118.513C54.6145 118.672 54.6144 118.831 54.5337 118.91Z" fill="#080809"/>
<path d="M63.6593 117.399C63.5785 118.83 63.3363 117.16 63.1748 117.558C63.3363 117.797 63.2555 118.592 63.2555 118.989C63.094 117.16 62.9325 119.387 62.5287 118.989C62.5287 119.546 62.6902 119.705 62.6902 120.341C62.448 119.864 62.0442 119.626 62.0442 118.592C61.6404 118.512 61.3174 118.91 61.0751 118.671C61.3982 119.069 61.0751 119.705 61.2367 120.58C60.9944 119.387 60.3483 117.956 60.0253 116.524C59.8638 117.637 59.8638 117.717 59.7831 118.751C59.2178 119.467 59.7023 117.717 59.2178 118.035L59.46 117.876C59.2985 117.558 59.3793 116.524 59.3793 115.729L59.9446 115.888C60.0253 115.093 59.6216 115.252 59.5408 115.013C59.46 114.059 59.8638 114.377 59.8638 113.661C59.8638 114.297 60.1061 114.059 60.2676 114.377L60.3484 113.979C60.5906 113.582 60.6714 114.615 60.9136 114.615C60.9136 114.536 60.9136 114.456 60.9136 114.377C60.9944 114.854 60.9944 115.411 61.1559 115.57L61.0751 115.49C61.2367 116.445 61.6404 117.081 61.2367 118.115L61.8019 117.876C61.8019 116.842 61.8019 115.172 61.4789 115.013V114.536C61.7212 113.979 62.125 115.411 61.8827 116.286C61.9634 118.83 62.771 116.445 63.094 117.478C63.1748 116.763 62.9325 116.524 62.8518 116.047C62.771 115.967 62.6095 115.967 62.6095 116.524C62.125 116.126 62.771 114.297 62.2057 114.536C61.8827 114.854 62.5287 115.649 62.0442 115.729L61.8827 113.82C62.125 113.9 62.3672 114.218 62.5287 114.456C63.094 115.172 63.5786 115.172 63.9823 115.093C64.3054 115.013 64.5476 114.695 64.5476 114.695C65.4359 114.775 66.2435 114.934 67.1318 115.013L69.7159 115.172C70.2812 115.411 70.4427 115.331 70.8465 117.24C70.7658 117.637 70.362 117.478 70.6042 118.115C70.5235 117.399 70.2812 117.001 69.9582 117.081C69.9582 117.797 70.2812 117.399 70.2005 117.558L70.1197 117.637C70.2005 117.956 70.2005 118.194 70.362 118.274C70.1197 119.308 69.4737 119.148 69.1507 117.797C68.9084 118.512 69.3929 118.91 69.5544 119.387C68.5854 119.944 67.9393 119.864 66.9703 120.023C66.8895 118.83 66.8895 119.228 66.728 118.433L66.6472 118.91C66.6472 118.671 66.5665 117.876 66.728 117.558C66.1627 118.512 66.082 115.888 65.6782 115.411V116.047C65.3552 115.967 65.2744 115.888 65.0321 115.57C64.5476 116.763 65.4359 115.729 65.3552 117.319L65.1129 117.081C65.1937 117.717 65.2744 118.751 65.4359 119.228C64.9514 118.194 64.7091 119.626 64.2246 118.83C64.3053 119.546 64.7091 120.103 64.8706 120.182C64.7091 120.262 64.3861 119.705 64.3053 120.421V119.546C63.9823 119.467 64.3053 120.341 64.2246 120.978C63.4978 120.659 64.2246 117.956 63.6593 117.399Z" fill="#080809"/>
<path d="M56.23 117.32C56.3107 117.24 56.3915 117.32 56.4722 117.399C56.3915 117.399 56.3107 117.399 56.23 117.32Z" fill="#080809"/>
<path d="M57.4414 120.421C57.5222 120.023 57.4414 120.023 57.4414 119.467C57.5222 119.785 57.7644 119.864 57.4414 120.421Z" fill="#080809"/>
<path d="M39.1097 112.468C38.9482 112.309 39.1904 111.593 39.5942 111.196L39.675 111.991C39.5942 111.912 39.4327 111.752 39.1097 112.468Z" fill="#080809"/>
<path d="M39.4327 112.627C39.7557 112.309 40.321 111.593 40.0787 112.389C39.9172 112.15 39.3519 113.263 39.4327 112.627Z" fill="#080809"/>
<path d="M41.3707 112.707L40.7247 112.946C40.1594 113.9 40.8054 113.343 40.6439 113.82C40.1594 113.82 40.4824 113.582 40.4824 112.866C40.3209 112.866 40.4824 112.309 40.4824 111.991C40.5632 113.105 41.8553 110.798 41.3707 112.707Z" fill="#080809"/>
<path d="M39.998 113.264L40.1596 112.866V113.264H39.998Z" fill="#080809"/>
<path d="M42.8246 112.151C43.6321 111.117 42.9861 113.025 43.5514 112.628C43.5514 112.548 43.6321 112.469 43.6321 112.31L43.7936 112.548L43.9552 112.31C43.6321 113.025 43.7936 113.423 43.6321 113.98C43.0668 114.616 43.8744 113.025 43.3091 113.741C43.2284 114.059 43.0668 114.616 42.9861 114.854C42.9861 114.457 43.1476 113.98 43.2283 113.582C43.0668 113.423 42.9861 113.821 42.8246 114.139C42.8246 113.662 43.3091 112.628 42.9053 112.787C42.4208 113.343 42.5823 113.821 42.3401 113.423C42.9861 112.389 41.9363 113.423 42.1785 112.707C41.8555 112.787 41.371 113.423 41.2095 113.821C41.6132 112.946 41.7748 112.151 41.7748 111.832V112.707L42.4208 111.753C42.4208 112.31 42.5823 112.31 42.8246 112.31V112.151Z" fill="#080809"/>
<path d="M42.9859 114.854C42.9859 114.934 42.9859 115.013 42.9859 115.093C42.9051 115.093 42.9051 115.013 42.9859 114.854Z" fill="#080809"/>
<path d="M41.0479 113.979V114.218L40.8057 114.457L41.0479 113.979Z" fill="#080809"/>
<path d="M42.8247 115.65C42.744 115.65 42.9055 115.332 42.9863 115.332L42.8247 115.809V115.65Z" fill="#080809"/>
<path d="M43.3896 115.092L43.7934 114.615L43.6319 115.092H43.3896Z" fill="#080809"/>
<path d="M49.2041 116.444C48.8811 116.762 49.1234 116.047 49.2849 115.49C49.5272 115.41 49.0426 116.126 49.2041 116.444Z" fill="#080809"/>
<path d="M52.596 118.274C52.273 118.751 52.273 117.956 52.0308 117.956C52.273 117.558 52.5153 117.876 52.596 118.274Z" fill="#080809"/>
<path d="M53.7262 121.057C53.7262 120.819 53.6455 120.66 53.807 120.58V119.228C54.2108 118.83 53.807 120.5 53.7262 121.057Z" fill="#080809"/>
<path d="M55.503 121.535L55.2607 120.978H55.4222C55.4222 120.421 55.4222 120.183 55.3415 119.706C55.5838 120.024 55.7453 120.58 55.503 121.535Z" fill="#080809"/>
<path d="M55.1802 119.467L55.2609 119.546C55.1802 119.705 55.1802 119.864 55.1802 119.467Z" fill="#080809"/>
<path d="M55.4222 119.546C55.4222 119.626 55.4222 119.626 55.4222 119.705C55.3415 119.626 55.3415 119.546 55.2607 119.546C55.3415 119.467 55.3415 119.308 55.4222 119.546Z" fill="#080809"/>
<path d="M55.8262 120.898L56.3107 121.137L56.0684 121.376C56.2299 120.58 55.8262 121.853 55.8262 120.898Z" fill="#080809"/>
<path d="M58.6523 120.58L58.8139 119.785C59.1369 119.626 59.3791 121.375 59.7022 120.103C59.5407 120.58 59.8637 121.057 59.4599 121.216C59.3791 120.5 58.8946 120.341 58.6523 120.58Z" fill="#080809"/>
<path d="M59.9443 119.466C59.9443 119.228 60.0251 119.069 60.0251 118.83C60.1058 118.751 60.2673 119.148 60.1866 119.466C60.1866 118.353 60.0251 120.103 59.9443 119.466Z" fill="#080809"/>
<path d="M61.479 119.626C61.3982 119.626 61.2367 119.546 61.3982 119.308C61.6405 119.387 61.5597 120.262 61.6405 120.819C61.3982 121.296 61.2367 120.023 61.479 119.626Z" fill="#080809"/>
<path d="M63.8211 113.661C63.7403 114.377 63.5788 114.297 63.498 113.979C63.5788 114.138 63.7403 113.979 63.8211 113.661Z" fill="#080809"/>
<path d="M63.7401 119.467L63.6594 119.626L63.5786 118.592L63.7401 119.467Z" fill="#080809"/>
</g>
</g>
<path d="M158.465 59.8215C158.465 59.8215 170.417 49.0854 174.051 32.2257C177.685 15.366 165.33 8.84476 155.477 12.4235C144.333 16.3998 143.849 29.7603 142.476 36.3611C141.588 40.6555 138.6 38.2697 138.277 37.4744C137.146 34.5319 138.519 -0.062247 165.653 4.86842C182.127 7.89044 185.276 22.3643 183.015 33.7367C180.754 45.109 173.97 57.1176 164.845 65.7065C158.385 71.7505 158.465 59.8215 158.465 59.8215Z" fill="#637189"/>
<mask id="mask1_37_4446" style="mask-type:luminance" maskUnits="userSpaceOnUse" x="158" y="51" width="19" height="17">
<path d="M176.151 51.3916C173.082 56.6404 169.206 61.571 164.845 65.7064C158.465 71.7505 158.546 59.8215 158.546 59.8215C158.546 59.8215 161.049 57.5947 164.118 53.5388C166.379 53.6979 170.094 53.3798 176.151 51.3916Z" fill="white"/>
</mask>
<g mask="url(#mask1_37_4446)">
<g opacity="0.88">
<path d="M159.596 59.9008C159.676 59.9008 159.676 59.8213 159.757 59.8213C159.757 59.8213 159.757 59.8213 159.596 59.9008Z" fill="#080809"/>
<path d="M161.049 58.9466C161.13 58.9466 161.211 58.8671 161.372 58.7876L161.049 58.9466Z" fill="#080809"/>
<path d="M161.292 57.8334L161.372 57.7539C161.292 57.7539 161.292 57.8334 161.292 57.8334Z" fill="#080809"/>
<path d="M162.503 63.4004C162.503 63.4004 162.422 63.4004 162.422 63.4799C162.422 63.4799 162.503 63.4799 162.503 63.4004Z" fill="#080809"/>
<path d="M162.987 63.4004C163.068 63.4799 163.068 63.4004 162.987 63.4004H163.068C163.149 63.4004 163.068 63.4004 162.987 63.4004Z" fill="#080809"/>
<path d="M166.944 63.0023L167.187 62.8433C167.106 62.9228 167.025 63.0023 166.944 63.0023Z" fill="#080809"/>
<path d="M162.18 63.559C162.26 63.559 162.341 63.4795 162.341 63.4795C162.341 63.4795 162.26 63.4795 162.18 63.559Z" fill="#080809"/>
<path d="M159.515 59.9804L159.596 59.9009C159.596 59.9804 159.596 59.9804 159.515 59.9804Z" fill="#080809"/>
<path d="M162.018 62.1277C162.503 61.571 162.18 62.2073 162.664 61.7301C162.503 61.8096 162.341 61.8096 162.583 61.4915C162.906 61.253 162.664 61.6506 163.149 61.2529L162.906 61.3325C163.068 61.0144 163.472 60.7758 163.391 60.7758C162.745 61.2529 163.31 60.2191 163.149 60.2191H163.229L163.31 59.8215L163.229 59.901C163.472 59.5829 163.552 59.1852 163.31 59.1852C162.906 59.5034 162.745 58.9467 162.422 59.1852C162.583 59.1852 162.583 59.1852 162.583 59.3443L162.18 59.7419C162.099 59.6624 162.503 59.3443 162.18 59.5034C161.695 60.1396 162.341 59.6624 162.341 59.8215C162.18 59.901 162.018 59.9805 161.937 59.9805C162.099 60.1396 162.099 60.5372 162.745 60.06C162.664 60.2191 162.422 60.4577 162.341 60.4577C162.745 60.2191 162.099 60.8553 162.503 60.6963C161.937 61.1734 162.018 60.7758 161.614 60.9348C161.857 60.3781 161.291 60.6167 161.049 60.5372C161.372 60.1396 161.857 59.901 161.937 59.5829C162.018 59.1852 161.534 59.6624 161.291 59.7419C161.291 59.5034 161.857 59.0262 161.695 58.8671L162.018 58.7081C162.422 57.9923 161.695 58.8671 161.695 58.6286C161.614 58.7876 161.453 58.9467 161.614 59.0262C161.453 59.2648 161.291 59.2648 161.211 59.2648C160.888 59.5034 160.645 59.8215 160.645 59.5829C161.049 59.3443 160.726 59.2648 160.888 59.0262L160.968 58.9467C160.807 58.9467 160.726 58.8671 160.565 58.8671L160.645 58.7876C160.484 58.8671 160.08 59.2648 160.08 59.1057C160.242 58.9467 160.726 58.549 160.565 58.549C160.807 58.3104 160.968 58.39 160.968 58.549C160.968 58.39 161.211 57.9128 161.372 57.9923C161.614 57.5947 161.13 58.0719 161.211 57.8333C161.13 57.9128 161.049 58.0719 160.968 58.1514C161.291 57.6742 160.726 57.9128 160.484 58.2309L160.807 58.0719C160.484 58.4695 160.161 58.549 160.08 58.7876C160.484 58.1514 159.515 58.7876 159.838 58.2309L159.676 58.549C159.595 58.1514 158.788 58.7081 158.465 58.6286C158.707 58.4695 159.192 57.9128 159.192 58.2309C159.03 57.9128 159.595 57.5152 159.757 57.1971C159.757 56.7994 159.192 57.7538 159.03 57.8333H159.272C158.546 58.4695 158.869 57.2766 158.223 57.5947C158.303 57.3561 158.384 57.5152 158.465 57.4357C158.626 56.9585 158.303 57.4357 158.142 57.5152C158.061 57.3561 158.061 57.1175 158.465 56.6404C158.384 56.4018 158.303 56.9585 158.061 57.038L158.142 56.879L157.657 57.2766C157.657 57.038 157.657 56.6404 157.9 56.1632C157.496 56.0837 157.092 57.1971 156.769 57.2766C156.85 56.9585 157.011 56.879 157.173 56.7199L156.931 56.6404C157.334 56.1632 157.334 56.4813 157.738 55.8451C157.173 56.4018 157.415 55.9246 156.931 56.1632V56.2428C156.527 56.6404 156.527 56.1632 156.365 56.1632C156.608 55.9246 156.769 56.0042 156.931 55.9247C156.931 55.6065 156.446 55.6065 155.961 56.0837C155.961 55.9246 155.881 55.6065 156.123 55.4475C155.881 55.2089 155.558 56.2428 155.396 55.9247L155.638 55.527C155.719 54.7317 154.75 55.8451 154.831 55.1294L154.508 55.6861C154.589 55.4475 154.508 55.2884 154.589 55.0499L154.831 54.9703C154.992 54.4136 154.427 55.368 154.508 54.9703C154.427 55.1294 154.346 55.6065 154.266 55.7656C154.992 55.7656 155.154 56.7994 155.961 56.5609C155.961 56.4813 155.961 56.4018 156.042 56.3223C156.042 56.4813 156.204 56.4018 156.042 56.7199H155.961C156.204 56.7199 155.881 57.4357 155.961 57.4357C156.204 57.1175 156.123 57.7538 156.446 57.1176L156.285 57.5947C156.446 57.3561 156.608 57.1175 156.769 57.038C156.85 57.1175 156.688 57.3561 156.527 57.5152C156.769 57.9923 157.254 58.1514 157.738 58.2309L157.415 58.4695C157.415 58.7081 158.061 58.2309 157.496 58.8671C157.9 58.7081 157.819 59.4238 158.384 58.7081C157.98 59.5034 158.546 59.3443 158.869 59.4238C159.272 58.7876 159.192 59.4238 159.515 59.1852C159.192 59.6624 158.949 59.5034 158.707 59.8215C159.515 59.2648 158.949 60.8553 159.999 59.7419C159.999 59.8215 159.918 59.8215 159.918 59.901C159.999 59.9805 159.838 60.2191 159.838 60.2986C159.999 60.1396 159.999 59.901 160.161 59.9805C160.242 60.06 159.918 60.3781 159.838 60.5372C160.241 60.3781 160.565 60.5372 161.049 60.06C160.968 60.2191 160.807 60.5372 160.645 60.6167C161.211 60.4577 160.807 60.9348 161.291 60.9348C161.211 60.8553 160.807 61.412 160.888 61.0939C160.403 61.8096 161.372 61.3325 161.291 61.8096L161.776 61.4915C161.937 61.5711 161.614 61.8892 161.372 61.9687C161.372 62.3663 161.695 62.2868 161.857 62.4459C161.857 62.5254 161.695 62.6049 161.695 62.5254L161.937 62.764C162.099 62.6844 162.341 62.6049 162.583 62.2868C162.18 62.3663 161.937 62.4458 162.018 62.1277Z" fill="#080809"/>
<path d="M161.857 58.3896C161.776 58.5487 161.776 58.5487 161.776 58.6282C161.857 58.5487 161.857 58.4692 161.857 58.3896Z" fill="#080809"/>
<path d="M165.249 63.7179C165.895 63.1612 165.006 63.6383 165.087 63.3998C165.249 63.3998 165.652 63.0817 165.814 62.9226C164.845 63.4793 165.895 62.6045 165.491 62.525C165.733 62.2864 165.895 62.3659 166.218 62.1273C165.895 62.2069 165.572 62.0478 165.087 62.4454C164.845 62.2069 164.926 61.9683 164.683 61.8888C165.006 61.8888 165.168 61.4911 165.652 61.2525C164.926 61.5707 164.037 61.8092 163.149 62.2069C163.633 61.7297 163.633 61.6502 164.118 61.2525C164.199 60.6959 163.553 61.6502 163.472 61.2525V61.4116C163.23 61.4116 162.745 61.8888 162.422 62.1273L162.745 62.3659C162.422 62.684 162.261 62.4454 162.18 62.525C161.695 62.8431 162.018 62.9226 161.695 63.2407C162.018 63.0021 162.018 63.2407 162.18 63.1612L162.018 63.3202C161.938 63.6383 162.503 63.2407 162.584 63.3998C162.503 63.4793 162.503 63.4793 162.503 63.5588C162.745 63.3998 163.068 63.2407 163.149 63.2407H163.068C163.633 62.9226 164.118 62.9226 164.441 62.3659L164.603 62.7636C164.118 63.1612 163.31 63.7974 163.068 63.6384L162.826 63.7974C162.664 64.195 163.472 63.7974 163.876 63.3202C165.168 62.4454 164.36 63.7179 165.006 63.4793C164.683 63.7974 164.441 63.7179 164.199 63.8769C164.118 63.8769 164.037 63.7974 164.36 63.5588C163.956 63.4793 163.391 64.5131 163.23 64.1155C163.23 63.7974 163.876 63.8769 163.795 63.5588L162.745 64.195C162.907 64.2746 163.149 64.2746 163.31 64.2746C163.876 64.2746 164.118 64.5927 164.199 64.8313C164.279 65.0698 164.279 65.3084 164.279 65.3084C165.087 66.1037 165.895 66.9785 166.621 67.9328C166.944 68.1714 166.944 68.2509 168.075 67.8533C168.236 67.6942 168.075 67.5352 168.479 67.3761C168.075 67.5352 167.833 67.5352 167.752 67.3761C168.075 67.1375 167.994 67.4556 168.075 67.3761V67.2966C168.236 67.2171 168.398 67.1375 168.479 67.2171C168.963 66.7399 168.559 66.3423 167.752 66.6604C167.994 66.2627 168.398 66.4218 168.721 66.3423C168.64 65.6265 168.317 65.2289 167.994 64.6722C167.348 65.0698 167.59 64.9108 167.106 65.0698L167.267 64.8313C167.187 64.9108 166.702 65.1494 166.621 65.3879C166.864 64.7517 165.572 65.6265 165.087 65.6265L165.41 65.3879C165.249 65.2289 165.168 65.2289 164.926 65.2289C165.329 64.5131 165.168 65.3879 165.895 64.7517H165.733C166.056 64.5927 166.621 64.195 166.944 64.195C166.218 64.2746 166.864 63.6384 166.218 63.6384C166.621 63.3998 167.106 63.4793 167.187 63.4793C167.106 63.3202 166.783 63.3998 167.025 63.0817L166.541 63.3998C166.379 63.2407 166.944 63.0817 167.187 62.8431C166.783 62.4454 165.733 63.7974 165.249 63.7179Z" fill="#080809"/>
<path d="M161.857 59.8213C161.857 59.9008 161.938 59.9008 162.018 59.9008C162.018 59.9008 161.938 59.8213 161.857 59.8213Z" fill="#080809"/>
<path d="M163.311 59.7416C163.391 59.662 163.391 59.662 163.472 59.5825C163.472 59.662 163.391 59.662 163.311 59.7416Z" fill="#080809"/>
<path d="M163.956 59.2646C163.795 59.4237 163.714 59.4237 163.472 59.5828C163.633 59.5828 163.795 59.6623 163.956 59.2646Z" fill="#080809"/>
<path d="M160.646 57.674C160.726 57.3559 160.323 57.5945 160.242 57.515C160.161 57.7536 160.403 57.7536 160.646 57.674Z" fill="#080809"/>
<path d="M162.503 57.1172C162.341 57.1967 162.261 57.1967 162.341 57.3558L161.695 57.9125C161.695 58.2306 162.341 57.3558 162.503 57.1172Z" fill="#080809"/>
<path d="M163.634 57.9126L163.23 57.9921L163.311 58.0716C163.068 58.3102 162.907 58.3897 162.665 58.5488C162.907 58.4693 163.23 58.3102 163.634 57.9126Z" fill="#080809"/>
<path d="M162.422 58.4698H162.503C162.583 58.3902 162.664 58.3107 162.422 58.4698Z" fill="#080809"/>
<path d="M162.583 58.5488C162.583 58.5488 162.664 58.5488 162.664 58.4692C162.583 58.5488 162.583 58.5488 162.583 58.5488C162.503 58.5488 162.422 58.6283 162.583 58.5488Z" fill="#080809"/>
<path d="M163.472 58.3103L163.795 58.4694V58.2308C163.391 58.6284 163.875 57.9127 163.472 58.3103Z" fill="#080809"/>
<path d="M164.522 59.9009L164.199 60.2985C164.279 60.5371 165.249 59.9804 164.764 60.6166C164.926 60.2985 165.329 60.378 165.249 60.0599C164.845 60.2985 164.522 60.0599 164.522 59.9009Z" fill="#080809"/>
<path d="M164.603 61.0145C164.441 61.094 164.441 61.1736 164.36 61.3326C164.36 61.4121 164.603 61.3326 164.683 61.1736C164.199 61.4917 164.926 60.7759 164.603 61.0145Z" fill="#080809"/>
<path d="M165.329 61.73C165.249 61.6505 165.168 61.6505 165.168 61.8095C165.329 61.9686 165.733 61.4914 166.056 61.4119C166.137 61.0143 165.41 61.4119 165.329 61.73Z" fill="#080809"/>
<path d="M163.472 65.1496C163.795 64.8315 163.633 64.8315 163.552 64.8315C163.633 64.9111 163.552 65.0701 163.472 65.1496Z" fill="#080809"/>
<path d="M166.298 63.0023V62.8433L165.733 63.2409L166.298 63.0023Z" fill="#080809"/>
<path d="M167.268 63.639L167.671 63.5594L167.51 63.4004L167.268 63.639Z" fill="#080809"/>
<path d="M167.348 63.9566L167.51 64.1157L167.59 63.9566C167.59 63.718 167.348 63.9566 167.348 63.9566Z" fill="#080809"/>
<path d="M167.752 64.3539C167.671 64.3539 167.752 64.2744 167.833 64.2744H167.51L167.752 64.3539Z" fill="#080809"/>
</g>
</g>
<path d="M109.366 116.922C109.366 116.922 113.727 130.282 126.406 141.336L118.492 162.013C118.492 162.013 105.248 161.616 105.652 171.079H120.188C120.188 171.079 125.921 165.672 126.406 164.956C126.89 164.161 139.73 138.076 139.73 138.076L130.363 108.651C130.363 108.73 107.347 112.15 109.366 116.922Z" fill="#637189"/>
<path d="M109.689 167.024C109.689 167.024 108.317 168.535 109.286 171.08" stroke="#1B1C1E" stroke-miterlimit="10"/>
<path d="M54.5333 166.785C54.5333 166.785 52.9989 168.614 53.7257 171.08" stroke="#1B1C1E" stroke-miterlimit="10"/>
<path d="M6.24186 24.6707C6.24186 24.6707 -4.41782 0.812593 2.12334 0.0173244C7.45318 -0.618891 22.4736 16.4794 22.4736 16.4794C22.4736 16.4794 8.09922 25.7045 6.24186 24.6707Z" fill="#637189"/>
<path d="M35.6367 17.1154C35.6367 17.1154 42.1779 8.92413 50.6572 3.75488C59.1365 -1.41436 58.1674 4.3911 56.3908 10.9918C54.2911 18.4674 49.5266 26.7381 49.5266 26.7381C49.5266 26.7381 37.2518 20.0579 35.6367 16.4792" fill="#637189"/>
<path d="M10.9258 50.7557C9.22999 78.3515 17.144 106.822 40.3207 112.31C63.4974 117.797 110.416 116.922 110.416 116.922C117.765 131.396 129.555 138.235 129.555 138.235L121.157 162.73C110.416 163.525 111.708 171.159 111.708 171.159H127.294C127.294 171.159 169.448 104.595 169.933 82.646C170.417 60.6966 157.496 50.6762 120.349 48.6085C83.2017 46.5408 50.8189 51.9486 50.8189 51.9486L47.9117 47.2565C47.9117 47.2565 53.8876 40.0991 53.5645 33.1803C53.403 30.3173 52.434 27.3748 50.5766 24.7504C49.123 22.6827 47.1041 20.8536 44.52 19.3426C42.5011 18.2292 40.2399 17.3544 37.575 16.7977C32.2452 15.6844 26.8346 15.4458 21.9893 15.9229C20.8587 16.0025 19.8089 16.1615 18.7591 16.4001C17.3055 16.6387 15.9327 16.9568 14.7213 17.3544C13.0255 17.9111 11.4104 18.5473 10.0376 19.3426C2.9311 23.3985 -0.62212 32.1464 1.96204 39.5424C4.62696 47.0179 10.9258 50.7557 10.9258 50.7557Z" fill="#637189"/>
<path d="M110.416 116.922C117.765 131.396 129.555 138.235 129.555 138.235L121.156 162.729" stroke="#1B1C1E" stroke-miterlimit="10"/>
<path d="M21.9086 15.9229C20.778 16.0024 19.7282 16.1614 18.6784 16.4C17.2248 16.6386 15.852 16.9567 14.6406 17.3543" stroke="#1B1C1E" stroke-miterlimit="10"/>
<path d="M10.9258 50.7554L12.3794 51.7097" stroke="#1B1C1E" stroke-miterlimit="10"/>
<path d="M27.8843 49.2445C27.8843 49.2445 29.0956 50.1193 31.1952 50.0398C33.2949 49.9602 34.0217 48.9264 34.0217 48.9264C34.0217 48.9264 32.8103 46.3815 30.8722 46.143C28.9341 45.8249 27.8843 49.2445 27.8843 49.2445Z" fill="#B8BDC4"/>
<path d="M22.393 37.1563C24.0889 36.7586 25.0579 35.0091 24.4926 33.4185C23.9274 31.7485 22.7968 29.8398 20.5356 29.0445C18.2745 28.3288 16.1749 28.6469 14.7213 29.1241C13.2677 29.6012 12.3794 31.1122 12.7832 32.6232C13.1869 34.0547 14.2368 35.7248 16.4979 36.7586C18.5168 37.6334 20.6972 37.4744 22.393 37.1563Z" fill="#B4D3CD"/>
<path d="M38.3016 36.2817C36.2827 36.1227 35.0714 33.9754 35.8789 32.2259C36.6865 30.4763 38.2208 28.5676 40.7242 28.0109C42.5816 27.6133 44.0352 27.6928 45.085 28.0109C46.8616 28.4881 47.7499 30.5558 46.8616 32.1463C46.2156 33.3392 45.085 34.6912 43.3084 35.4864C41.5318 36.2817 39.7552 36.4408 38.3016 36.2817Z" fill="#B4D3CD"/>
<path d="M110.416 116.922C110.416 116.922 108.72 113.9 108.235 112.071" stroke="#1B1C1E" stroke-miterlimit="10"/>
<path d="M115.988 171.079C115.988 171.079 115.827 168.773 117.361 167.183" stroke="#1B1C1E" stroke-miterlimit="10"/>
<path d="M122.933 167.024C122.933 167.024 121.237 168.376 121.399 171.08" stroke="#1B1C1E" stroke-miterlimit="10"/>
<path d="M19.7281 35.8838C20.4417 35.8838 21.0202 34.6376 21.0202 33.1003C21.0202 31.5631 20.4417 30.3169 19.7281 30.3169C19.0145 30.3169 18.436 31.5631 18.436 33.1003C18.436 34.6376 19.0145 35.8838 19.7281 35.8838Z" fill="#1B1C1E"/>
<path d="M40.482 35.0093C41.1956 35.0093 41.7741 33.7631 41.7741 32.2258C41.7741 30.6886 41.1956 29.4424 40.482 29.4424C39.7684 29.4424 39.1899 30.6886 39.1899 32.2258C39.1899 33.7631 39.7684 35.0093 40.482 35.0093Z" fill="#1B1C1E"/>
<path d="M30.953 44.8702V46.4608C30.953 46.4608 30.7915 47.256 28.7726 49.0852C27.4805 50.3576 23.4427 51.7095 21.8276 48.8466C20.2125 45.9836 23.6043 41.9277 28.0458 41.9277C32.4873 41.9277 30.953 44.8702 30.953 44.8702Z" fill="#B8BDC4"/>
<path d="M30.9529 46.4612C30.9529 46.4612 32.3257 48.1313 33.2948 48.7675C34.0216 49.2446 36.1212 50.9942 37.9785 50.1194C39.9167 49.3242 40.482 46.5407 39.5936 44.7116C38.7053 42.8825 36.0404 41.5305 33.6178 41.9282C31.1951 42.2463 30.7106 43.5187 30.9529 46.4612Z" fill="#B8BDC4"/>
<path d="M30.953 44.8707C30.953 44.8707 27.5613 43.2802 27.2383 41.6897C26.9153 40.0991 30.1455 39.622 32.2451 40.0196C34.91 40.4172 35.3946 42.4054 30.953 44.8707Z" fill="#1B1C1E"/>
<path d="M50.334 104.277C50.334 104.277 51.6261 108.492 53.3219 114.456C56.3099 124.874 60.5899 140.462 61.4782 147.221C62.9318 157.798 62.6088 162.729 62.6088 162.729C62.6088 162.729 51.5453 162.252 51.9491 171.079C51.9491 171.079 67.2926 171.079 68.1809 171.079C69.0692 171.079 72.7031 160.82 72.7031 160.82C72.7031 160.82 76.0949 132.27 77.8715 116.365C78.5175 110.878 78.9213 106.981 78.9213 106.106" fill="#637189"/>
<path d="M53.3221 114.457C56.31 124.875 60.5901 140.462 61.4784 147.222C62.932 157.799 62.6089 162.729 62.6089 162.729C62.6089 162.729 51.5455 162.252 51.9493 171.08" stroke="#1B1C1E" stroke-miterlimit="10"/>
<path d="M54.9372 170.523C54.9372 170.523 54.7756 168.137 56.7945 166.785" stroke="#1B1C1E" stroke-miterlimit="10"/>
<path d="M60.9939 167.978C60.9939 167.978 60.1056 168.455 60.1863 171.08" stroke="#1B1C1E" stroke-miterlimit="10"/>
<path d="M50.334 104.277C50.334 104.277 51.6261 108.492 53.3219 114.456" stroke="#1B1C1E" stroke-miterlimit="10"/>
<path d="M77.791 116.445C78.4371 110.958 78.8408 107.061 78.8408 106.186" stroke="#1B1C1E" stroke-miterlimit="10"/>
<mask id="mask2_37_4446" style="mask-type:luminance" maskUnits="userSpaceOnUse" x="42" y="47" width="9" height="7">
<path d="M50.8997 51.8688L42.4204 53.3798C43.3895 51.7893 47.9925 47.1768 47.9925 47.1768L50.8997 51.8688Z" fill="white"/>
</mask>
<g mask="url(#mask2_37_4446)">
<g opacity="0.88">
<path d="M46.2969 49.4038C46.3776 49.4038 46.4584 49.4833 46.4584 49.4833C46.4584 49.5629 46.3776 49.4833 46.2969 49.4038Z" fill="#080809"/>
<path d="M42.5009 52.8231L42.3394 52.6641C42.5009 52.6641 42.5009 52.7436 42.5009 52.8231Z" fill="#080809"/>
<path d="M47.7505 50.3579C47.8312 50.3579 47.912 50.4374 48.0735 50.517L47.7505 50.3579Z" fill="#080809"/>
<path d="M48.0732 51.3921L48.154 51.4716C48.0732 51.4716 48.0732 51.4716 48.0732 51.3921Z" fill="#080809"/>
<path d="M46.2158 49.3242L46.2966 49.4037C46.2158 49.4037 46.2158 49.4037 46.2158 49.3242Z" fill="#080809"/>
<path d="M47.9927 50.0396C47.9119 50.1191 47.9119 50.0396 47.9927 50.0396Z" fill="#080809"/>
<path d="M48.5578 47.0973C49.0423 47.654 48.7193 47.0178 49.2038 47.495C49.0423 47.495 48.8808 47.4155 49.1231 47.7336C49.4461 47.9721 49.2038 47.5745 49.6883 47.9721L49.4461 47.8926C49.6076 48.1312 50.0921 48.3698 49.9306 48.4493C49.2038 47.9721 49.8498 49.006 49.6883 49.006H49.7691L49.9306 49.4036L49.8499 49.3241C50.0921 49.6422 50.1729 49.9603 50.0114 50.0398C49.6076 49.7217 49.4461 50.3579 49.1231 50.1194C49.2846 50.1194 49.2846 50.1194 49.2846 49.9603L48.8808 49.5627C48.8 49.7217 49.2846 49.9603 48.8808 49.8013C48.3155 49.2446 49.0423 49.6422 49.0423 49.4831C48.8808 49.4036 48.7193 49.3241 48.6385 49.3241C48.8 49.165 48.7193 48.7674 49.4461 49.2446C49.3653 49.0855 49.1231 48.8469 49.0423 48.8469C49.5268 49.006 48.8 48.4493 49.2038 48.6083C48.6385 48.1312 48.7193 48.6084 48.3155 48.3698C48.5578 48.9265 47.9925 48.7674 47.7502 48.8469C48.154 49.2446 48.5578 49.4036 48.7193 49.7217C48.8 50.1194 48.3155 49.7217 48.0732 49.5627C48.0732 49.8013 48.7193 50.1989 48.477 50.4375L48.8 50.5965C49.2038 51.2327 48.477 50.517 48.477 50.6761C48.3963 50.517 48.2347 50.3579 48.3155 50.2784C48.154 50.0398 47.9925 50.0398 47.9117 50.0398C47.5887 49.8013 47.3464 49.5627 47.3464 49.8013C47.7502 50.0398 47.508 50.1194 47.5887 50.2784L47.6695 50.3579C47.5079 50.3579 47.4272 50.4375 47.3464 50.4375L47.4272 50.517C47.2657 50.4375 46.8619 50.0398 46.7812 50.1989C46.9427 50.3579 47.5079 50.6761 47.2657 50.7556C47.5079 50.9942 47.6695 50.9146 47.6695 50.7556C47.6695 50.9146 47.9925 51.3918 48.154 51.3123C48.3963 51.6304 47.9117 51.3123 47.9925 51.4713C47.9117 51.3918 47.831 51.3123 47.7502 51.1532C48.154 51.5509 47.5079 51.3918 47.2657 51.0737L47.5887 51.2327C47.2657 50.9146 46.9427 50.7556 46.7812 50.517C47.1849 51.0737 46.2159 50.517 46.5389 51.0737L46.3774 50.7556C46.2966 51.1532 45.4891 50.6761 45.1661 50.7556C45.4083 50.8351 45.8928 51.4713 45.8928 51.1532C45.7313 51.4713 46.2966 51.7894 46.4581 52.1871C46.4581 52.5847 45.8928 51.7099 45.6506 51.5509H45.8928C45.1661 50.9942 45.4891 52.1075 44.9238 51.869C45.0853 52.1075 45.0853 51.9485 45.1661 51.9485C45.3276 52.4256 45.0045 51.9485 44.843 51.869C44.7623 52.028 44.7623 52.3461 45.1661 52.7438C45.0853 52.9823 45.0045 52.4256 44.7623 52.3461L44.843 52.5052L44.2777 52.1075C44.2777 52.3461 44.2778 52.7437 44.6008 53.2209C44.2778 53.3004 43.7125 52.2666 43.3894 52.1871C43.4702 52.5052 43.6317 52.5052 43.7932 52.7438L43.551 52.8233C43.9547 53.3004 43.9547 52.9823 44.3585 53.539C43.7932 53.0619 44.0355 53.539 43.551 53.2209V53.1414C43.1472 52.7438 43.1472 53.2209 42.9857 53.2209C43.2279 53.4595 43.3894 53.38 43.551 53.38C43.551 53.6981 43.0664 53.6981 42.5819 53.2209C42.5819 53.38 42.5011 53.6981 42.8242 53.8571C42.5819 54.1752 42.1781 53.1414 42.0166 53.4595L42.3396 53.8571C42.4204 54.6524 41.4513 53.6186 41.5321 54.3343L41.2091 53.7776C41.2898 54.0162 41.2091 54.1752 41.3706 54.4138L41.6128 54.4933C41.7743 54.9705 41.2091 54.1752 41.2898 54.5729C41.2091 54.4138 41.1283 54.0162 40.9668 53.7776C41.6936 53.7776 41.7743 52.7438 42.6626 52.9028C42.6626 52.9823 42.7434 53.0619 42.8242 53.1414C42.8242 52.9823 42.9857 53.0619 42.8242 52.7438H42.7434C42.9857 52.7438 42.6627 52.028 42.7434 52.028C43.0664 52.3461 42.9049 51.7099 43.3087 52.3461L43.1472 51.9485C43.3087 52.1871 43.5509 52.4256 43.6317 52.5052C43.7125 52.4256 43.551 52.1871 43.3087 52.028C43.551 51.5508 43.9547 51.3123 44.4393 51.2327L44.1162 51.0737C44.1162 50.9146 44.7623 51.3123 44.197 50.6761C44.6008 50.8351 44.52 50.1194 45.0853 50.8351C44.6815 50.0398 45.2468 50.1989 45.5698 50.1194C46.0544 50.7556 45.8929 50.1194 46.2159 50.3579C45.8929 49.8808 45.6506 50.0398 45.3276 49.7217C46.1351 50.1989 45.4891 48.6879 46.6197 49.7217C46.6197 49.6422 46.5389 49.6422 46.5389 49.5627C46.6196 49.4832 46.4581 49.2446 46.4581 49.165C46.7004 49.3241 46.6196 49.4831 46.8619 49.4831C46.9427 49.4036 46.5389 49.0855 46.4581 48.9265C46.8619 49.006 47.1849 48.9265 47.6695 49.3241C47.5887 49.165 47.4272 48.8469 47.2657 48.8469C47.831 48.9265 47.4272 48.5288 47.9117 48.5288C47.831 48.6084 47.4272 48.1312 47.4272 48.4493C46.9427 47.7336 47.9117 48.2107 47.7502 47.654L48.2348 47.9721C48.3963 47.8926 48.0732 47.5745 47.831 47.495C47.7502 47.0973 48.154 47.1769 48.3155 47.0178C48.2347 46.9383 48.154 46.8588 48.154 46.9383L48.3155 46.6997C48.477 46.7792 48.7193 46.8588 48.9615 47.0973C48.7193 46.8588 48.477 46.7792 48.5578 47.0973Z" fill="#080809"/>
<path d="M48.5578 50.9144C48.4771 50.7553 48.4771 50.7553 48.4771 50.6758C48.5578 50.7553 48.5578 50.8348 48.5578 50.9144Z" fill="#080809"/>
<path d="M51.7071 45.427C52.3532 45.9837 51.4649 45.5065 51.5456 45.7451C51.7071 45.7451 52.1109 46.0632 52.2724 46.2222C51.3034 45.6655 52.3532 46.5403 51.9494 46.6199C52.1917 46.8585 52.3532 46.7789 52.6762 47.0175C52.3532 47.0175 52.0302 47.097 51.5456 46.7789C51.3841 47.0175 51.3841 47.3356 51.2226 47.3356C51.5456 47.3356 51.7072 47.7333 52.2724 47.8923C51.5456 47.5742 50.5766 47.4151 49.769 47.097C50.2536 47.5742 50.3343 47.6537 50.8188 47.9718C50.8996 48.5285 50.2536 47.6537 50.1728 48.0514V47.8923C49.9305 47.8923 49.446 47.4947 49.0422 47.1766L49.3652 46.938C49.0422 46.6199 48.8807 46.8585 48.8 46.8585C48.3154 46.5403 48.6385 46.4608 48.3154 46.2222C48.6385 46.4608 48.6385 46.2222 48.8 46.3018L48.6385 46.1427C48.5577 45.8246 49.123 46.2222 49.2037 46.0632C49.123 45.9837 49.123 45.9837 49.123 45.9837C49.3652 46.1427 49.6883 46.3018 49.769 46.3018H49.6883C50.2535 46.6199 50.7381 46.5404 51.0611 47.097L51.1419 46.6994C50.5766 46.3018 49.769 45.7451 49.6075 45.9041L49.3652 45.7451C49.2037 45.427 50.0113 45.7451 50.4151 46.1427C51.7879 47.0175 50.8188 45.7451 51.5456 45.9041C51.2226 45.6656 50.9803 45.6656 50.7381 45.5065C50.6573 45.5065 50.5766 45.586 50.8996 45.8246C50.4958 45.9837 49.8498 44.9498 49.769 45.3474C49.8498 45.6656 50.4958 45.586 50.3343 45.8246L49.2845 45.2679C49.446 45.1884 49.6883 45.1884 49.8498 45.1089C50.4151 45.0293 50.6573 44.7908 50.7381 44.5522C50.8188 44.3136 50.7381 44.075 50.7381 44.075C51.5456 43.2002 52.2724 42.3254 52.9185 41.3711C53.2415 41.1325 53.2415 40.9735 54.3721 41.3711C54.5336 41.5302 54.3721 41.6892 54.7758 41.8483C54.3721 41.6892 54.049 41.6892 54.049 41.9278C54.4528 42.1664 54.2913 41.8483 54.3721 41.9278V42.0073C54.6143 42.0869 54.6951 42.0868 54.7758 42.0868C55.2604 42.564 54.9373 42.9616 54.1298 42.6435C54.4528 43.0412 54.7758 42.8821 55.0989 42.9616C55.0181 43.6774 54.7758 44.075 54.4528 44.7112C53.8068 44.3136 54.049 44.5522 53.5645 44.3136L53.8068 44.4726C53.726 44.3931 53.2415 44.1545 53.1607 43.9955C53.403 44.6317 52.0302 43.8364 51.6264 43.8364L51.9494 44.075C51.7879 44.2341 51.7072 44.2341 51.4649 44.3136C51.8687 45.0293 51.7071 44.1545 52.4339 44.7908H52.2724C52.5955 44.9498 53.1607 45.2679 53.4838 45.3474C52.757 45.2679 53.403 45.9041 52.757 45.9041C53.1607 46.1427 53.6453 46.0632 53.726 45.9837C53.726 46.1427 53.3222 46.1427 53.6453 46.3813L53.1607 46.0632C52.9992 46.2222 53.5645 46.3018 53.8068 46.6199C53.3222 46.6199 52.1917 45.2679 51.7071 45.427Z" fill="#080809"/>
<path d="M48.5581 49.4037C48.5581 49.3242 48.6389 49.3242 48.7196 49.3242C48.6389 49.4037 48.6389 49.4037 48.5581 49.4037Z" fill="#080809"/>
<path d="M50.6574 49.8806C50.4959 49.7215 50.4151 49.7216 50.1729 49.5625C50.3344 49.642 50.4959 49.483 50.6574 49.8806Z" fill="#080809"/>
<path d="M45.0046 52.8234C45.0046 53.062 44.7623 52.7439 44.52 52.4258C44.6815 52.2667 44.843 52.7439 45.0046 52.8234Z" fill="#080809"/>
<path d="M47.4274 51.6301C47.5082 51.9482 47.1044 51.7096 47.0237 51.7891C46.9429 51.5506 47.1852 51.5506 47.4274 51.6301Z" fill="#080809"/>
<path d="M49.2847 52.1077C49.1232 52.0281 49.0424 52.0281 49.1232 51.8691L48.4772 51.3919C48.3964 51.0738 49.0424 51.8691 49.2847 52.1077Z" fill="#080809"/>
<path d="M50.3343 51.3121L49.9305 51.2325L50.0113 51.153C49.769 50.994 49.6075 50.8349 49.3652 50.7554C49.6075 50.7554 49.9305 50.8349 50.3343 51.3121Z" fill="#080809"/>
<path d="M49.123 50.7554H49.2038C49.2846 50.7554 49.3653 50.9144 49.123 50.7554Z" fill="#080809"/>
<path d="M49.2847 50.676C49.2039 50.676 49.2039 50.5964 49.2847 50.676Z" fill="#080809"/>
<path d="M50.1729 50.9144L50.4959 50.7554V50.9939C50.1728 50.5963 50.5766 51.2325 50.1729 50.9144Z" fill="#080809"/>
<path d="M51.1419 49.2445L50.8188 48.8469C50.8996 48.6083 51.8687 49.0854 51.3841 48.4492C51.5456 48.6878 51.9494 48.6878 51.8687 49.0059C51.4649 48.8469 51.2226 49.0059 51.1419 49.2445Z" fill="#080809"/>
<path d="M51.2227 48.1311C51.0612 48.0515 51.0612 47.972 50.9805 47.8129C50.9805 47.7334 51.2227 47.8129 51.3842 47.972C50.7382 47.6539 51.5458 48.3696 51.2227 48.1311Z" fill="#080809"/>
</g>
</g>
<mask id="mask3_37_4446" style="mask-type:luminance" maskUnits="userSpaceOnUse" x="77" y="106" width="20" height="11">
<path d="M96.2032 116.922C90.8733 116.842 84.4937 116.763 77.791 116.444C78.2755 111.832 78.6793 108.253 78.8408 106.742C81.9903 108.889 90.2273 114.218 96.2032 116.922Z" fill="white"/>
</mask>
<g mask="url(#mask3_37_4446)">
<g opacity="0.88">
<path d="M80.0522 112.627C80.133 112.627 80.2138 112.707 80.3753 112.707L80.0522 112.627Z" fill="#080809"/>
<path d="M80.9404 111.912C81.0212 111.912 81.0212 111.912 81.0212 111.832C81.0212 111.912 80.9404 111.912 80.9404 111.912Z" fill="#080809"/>
<path d="M79.0021 115.808C79.7289 115.569 79.0829 115.967 79.7289 115.808C79.5674 115.728 79.4059 115.728 79.8097 115.569C80.2134 115.569 79.8097 115.808 80.4557 115.649L80.2134 115.569C80.4557 115.41 81.021 115.41 80.9402 115.331C80.1327 115.41 81.1825 114.854 81.021 114.774H81.1018L81.4248 114.456C81.4248 114.456 81.4248 114.456 81.5055 114.456C81.4248 114.456 81.4248 114.456 81.344 114.456C81.7478 114.297 81.9901 114.058 81.8285 113.899C81.344 113.899 81.5863 113.422 81.1825 113.422C81.344 113.502 81.344 113.502 81.2633 113.661L80.698 113.74C80.698 113.581 81.1825 113.581 80.8595 113.502C80.1327 113.661 80.9402 113.74 80.8595 113.82C80.698 113.82 80.5365 113.82 80.4557 113.74C80.4557 113.979 80.2942 114.217 81.021 114.217C80.8595 114.297 80.5365 114.377 80.4557 114.297C80.9402 114.377 80.0519 114.536 80.4557 114.536C79.7289 114.615 80.0519 114.297 79.5674 114.217C80.0519 113.899 79.4867 113.74 79.3251 113.502C79.8097 113.343 80.2942 113.422 80.6172 113.263C80.9402 112.945 80.2942 113.104 79.9712 113.025C80.1327 112.866 80.8595 112.866 80.7787 112.547L81.1825 112.627C81.9093 112.309 80.8595 112.547 81.021 112.388C80.8595 112.468 80.6172 112.468 80.698 112.627C80.4557 112.706 80.2942 112.627 80.2942 112.547C79.8904 112.547 79.5674 112.627 79.7289 112.468C80.2134 112.468 80.0519 112.309 80.2134 112.229H80.2942C80.1327 112.15 80.1327 111.991 80.0519 111.911H80.1327C79.9712 111.832 79.4059 111.911 79.4867 111.752C79.7289 111.752 80.2942 111.752 80.2134 111.673C80.5365 111.593 80.6172 111.752 80.5365 111.911C80.6172 111.752 81.1825 111.593 81.1825 111.752C81.5863 111.593 80.9402 111.673 81.1825 111.514C81.021 111.593 80.9402 111.593 80.7787 111.593C81.344 111.514 80.7787 111.275 80.3749 111.355L80.698 111.434C80.2134 111.514 79.8904 111.434 79.6482 111.514C80.375 111.275 79.2444 111.195 79.8097 110.957L79.4867 111.116C79.6482 110.718 78.7599 110.639 78.5176 110.321C78.7599 110.4 79.5674 110.241 79.3251 110.48C79.4059 110.162 80.0519 110.241 80.4557 110.082C80.698 109.764 79.7289 110.082 79.4867 110.082L79.6482 110.241C78.6791 110.162 79.7289 109.605 79.0829 109.366C79.3251 109.287 79.2444 109.446 79.3251 109.446C79.7289 109.207 79.1636 109.287 79.0021 109.287C79.0829 109.128 79.2444 108.889 79.8097 108.889C79.8904 108.73 79.4866 108.969 79.2444 108.889L79.4059 108.81L78.7598 108.73C78.9214 108.571 79.1636 108.332 79.7289 108.173C79.5674 107.855 78.4368 108.253 78.1946 108.094C78.4368 107.935 78.5983 108.014 78.8406 108.014L78.7598 107.776C79.4059 107.776 79.0829 108.014 79.8904 107.855C79.0829 107.776 79.6482 107.617 79.0829 107.458H79.0021C78.5176 107.458 78.7599 107.14 78.6791 106.981C79.0021 106.981 79.0829 107.14 79.1636 107.219C79.4059 106.981 79.0829 106.662 78.3561 106.583C78.4368 106.503 78.6791 106.265 79.0021 106.344C79.0829 106.026 78.0331 106.344 78.1946 106.026L78.6791 105.947C79.3251 105.549 77.9523 105.47 78.5176 105.072L77.8715 105.151C78.1138 105.072 78.1946 104.913 78.4368 104.833L78.6791 104.913C79.1636 104.674 78.1946 104.833 78.5176 104.595C78.3561 104.595 77.9523 104.833 77.71 104.833C78.1946 105.39 77.387 106.185 78.1138 106.742C78.1946 106.742 78.2753 106.662 78.3561 106.662C78.1946 106.742 78.4368 106.821 78.1138 106.901H78.0331C78.1946 107.06 77.4678 107.299 77.4678 107.378C77.8715 107.378 77.387 107.776 78.0331 107.537L77.6293 107.696C77.8715 107.696 78.2753 107.617 78.3561 107.696C78.3561 107.855 78.0331 107.855 77.8715 107.776C77.71 108.253 77.8716 108.73 78.1138 109.207L77.7908 109.128C77.6293 109.287 78.4368 109.446 77.5485 109.446C77.9523 109.605 77.387 110.082 78.2753 109.923C77.4678 110.241 78.0331 110.559 78.1946 110.798C78.9214 110.639 78.4368 111.036 78.8406 111.036C78.2753 111.195 78.1946 110.877 77.7908 110.957C78.7598 111.116 77.3063 111.991 78.8406 111.752C78.7599 111.832 78.7599 111.832 78.6791 111.832C78.6791 111.911 78.4368 111.991 78.4368 112.07C78.6791 112.07 78.7599 111.911 78.9214 111.991C78.9214 112.15 78.4368 112.15 78.2753 112.229C78.6791 112.388 78.8406 112.706 79.4867 112.627C79.3251 112.706 79.0021 112.866 78.9214 112.786C79.4867 113.025 78.9214 113.104 79.2444 113.422C79.1636 113.343 78.5983 113.502 78.8406 113.263C78.0331 113.581 79.0829 113.74 78.7598 114.138H79.3251C79.4867 114.297 78.9214 114.377 78.7598 114.297C78.5176 114.695 78.8406 114.774 78.9214 114.933C78.8406 114.933 78.7598 115.013 78.7598 114.933L78.8406 115.251C79.0021 115.251 79.2444 115.331 79.6482 115.172C79.0021 116.047 78.8406 115.967 79.0021 115.808Z" fill="#080809"/>
<path d="M81.0211 112.627C80.8596 112.707 80.8596 112.707 80.7788 112.787C80.9403 112.707 81.0211 112.707 81.0211 112.627Z" fill="#080809"/>
<path d="M81.0213 118.671C81.8288 118.432 80.8597 118.512 81.0213 118.353C81.1828 118.432 81.6673 118.273 81.9096 118.194C80.779 118.273 82.0711 117.955 81.7481 117.717C82.0711 117.637 82.1518 117.717 82.5556 117.637C82.2326 117.558 82.0711 117.319 81.425 117.478C81.3443 117.24 81.5058 116.921 81.3443 116.842C81.6673 117.001 81.9096 116.762 82.4748 116.762C81.7481 116.762 80.779 116.444 79.8907 116.365C80.5367 116.206 80.6175 116.126 81.1828 116.047C81.5058 115.649 80.5367 116.126 80.6982 115.729L80.6175 115.888C80.3752 115.808 79.8099 115.888 79.3254 115.967L79.4869 116.285C79.0024 116.365 79.0831 116.126 78.9216 116.126C78.3563 116.126 78.5986 116.444 78.1948 116.444C78.5986 116.444 78.5178 116.603 78.6794 116.683L78.4371 116.762C78.1948 117.001 78.8409 116.921 78.9216 117.08C78.8409 117.08 78.8409 117.16 78.7601 117.16C79.0024 117.16 79.4062 117.16 79.4869 117.24L79.4062 117.16C79.9714 117.16 80.456 117.399 81.0213 117.001L80.9405 117.399C80.2945 117.478 79.3254 117.637 79.2446 117.478H79.0024C78.6794 117.717 79.5677 117.796 80.133 117.558C81.6673 117.319 80.3752 118.114 81.0213 118.273C80.6175 118.432 80.456 118.273 80.133 118.273C80.0522 118.194 80.0522 118.114 80.3752 118.035C80.0522 117.717 79.0831 118.432 79.1639 117.955C79.3254 117.717 79.8907 118.035 79.8907 117.717L78.6794 117.796C78.7601 117.955 79.0024 118.114 79.1639 118.194C80.1329 118.83 79.6484 119.546 79.6484 119.546C80.1329 120.739 80.5367 121.852 81.102 122.965C81.3443 123.284 81.3443 123.443 82.5556 123.204C82.7171 123.045 82.5556 122.886 82.9594 122.806C82.5556 122.886 82.2326 122.806 82.2326 122.647C82.6364 122.488 82.4749 122.727 82.5556 122.647V122.568C82.7979 122.488 82.8786 122.488 82.9594 122.568C83.5247 122.17 83.2016 121.852 82.3941 121.932C82.7171 121.614 83.0401 121.852 83.3632 121.852C83.4439 121.136 83.2824 120.739 83.1209 120.182C82.3941 120.341 82.6364 120.262 82.1518 120.341L82.3941 120.182C82.2326 120.262 81.7481 120.262 81.6673 120.5C82.1518 120.023 80.6175 120.341 80.2137 120.182L80.6175 120.102C80.456 119.943 80.456 119.864 80.2137 119.705C80.8597 119.228 80.3752 119.943 81.2635 119.625L81.102 119.546C81.5058 119.466 82.0711 119.387 82.3941 119.387C81.748 119.228 82.4748 118.91 81.9903 118.671C82.3941 118.591 82.7979 118.83 82.8786 118.91C82.8786 118.751 82.5556 118.671 82.8786 118.591L82.3133 118.671C82.2326 118.512 82.7979 118.591 83.1209 118.432C82.9594 118.194 81.5058 118.989 81.0213 118.671Z" fill="#080809"/>
<path d="M80.2134 113.741C80.2134 113.82 80.2134 113.82 80.2941 113.9C80.2134 113.9 80.2134 113.82 80.2134 113.741Z" fill="#080809"/>
<path d="M81.4248 114.536C81.5056 114.536 81.5863 114.536 81.5863 114.536C81.5056 114.457 81.5056 114.457 81.4248 114.536Z" fill="#080809"/>
<path d="M82.1517 114.456C81.9095 114.536 81.9094 114.456 81.5864 114.536C81.7479 114.536 81.8287 114.695 82.1517 114.456Z" fill="#080809"/>
<path d="M79.5675 109.128C79.8097 108.969 79.3252 109.048 79.0022 109.128C78.9214 109.287 79.4059 108.969 79.5675 109.128Z" fill="#080809"/>
<path d="M80.6173 111.355C80.8596 111.196 80.4558 111.116 80.3751 110.957C80.2136 111.196 80.3751 111.355 80.6173 111.355Z" fill="#080809"/>
<path d="M82.3134 112.07C82.1519 112.07 82.0711 112.07 82.0711 112.15H81.2635C81.0213 112.388 81.9903 112.15 82.3134 112.07Z" fill="#080809"/>
<path d="M82.7168 113.184L82.3938 113.104V113.184C82.0708 113.184 81.9093 113.184 81.667 113.184C81.7477 113.264 82.1515 113.343 82.7168 113.184Z" fill="#080809"/>
<path d="M81.4248 113.025C81.4248 113.104 81.4248 113.104 81.4248 113.025C81.6671 113.025 81.5863 113.104 81.4248 113.025Z" fill="#080809"/>
<path d="M81.5058 113.184H81.5866C81.5058 113.184 81.5058 113.105 81.5058 113.184C81.4251 113.105 81.3443 113.184 81.5058 113.184Z" fill="#080809"/>
<path d="M82.3135 113.423L82.475 113.741L82.6365 113.582C82.152 113.661 82.8788 113.343 82.3135 113.423Z" fill="#080809"/>
<path d="M82.3134 115.172L81.8289 115.331C81.7481 115.57 82.8787 115.57 82.1519 115.888C82.3942 115.729 82.7172 115.888 82.7979 115.65C82.3134 115.65 82.2326 115.331 82.3134 115.172Z" fill="#080809"/>
<path d="M81.7478 116.126C81.5863 116.126 81.5056 116.206 81.4248 116.285C81.4248 116.365 81.5863 116.365 81.8286 116.285C81.1825 116.365 82.1516 116.047 81.7478 116.126Z" fill="#080809"/>
<path d="M82.0712 117.001C82.0712 116.922 81.9904 116.842 81.9097 117.001C81.9904 117.16 82.475 117.001 82.8787 117.001C83.0402 116.763 82.2327 116.842 82.0712 117.001Z" fill="#080809"/>
</g>
</g>
<path d="M50.5764 24.7501C49.9303 23.8753 49.2035 23.0005 48.3152 22.2053C47.1846 21.1714 45.9733 20.2171 44.439 19.3423" stroke="#1B1C1E" stroke-miterlimit="10"/>
<path d="M121.237 162.729C110.497 163.524 111.789 171.159 111.789 171.159" stroke="#1B1C1E" stroke-miterlimit="10"/>
</svg>
