<svg width="155" height="90" viewBox="0 0 155 90" fill="none" xmlns="http://www.w3.org/2000/svg">
<path d="M10.0434 86.4382C10.0434 86.4382 3.8253 87.9492 20.8646 88.3468C37.9847 88.824 127.3 90.2555 136.587 89.5397C145.873 88.824 157.098 86.9153 139.655 86.0405C126.412 85.4043 107.03 85.4838 93.5442 85.2453C69.3177 84.9271 17.3922 85.0067 10.0434 86.4382Z" fill="#1B1C1E"/>
<path d="M42.1031 76.0205C42.1031 76.0205 40.811 77.6905 38.1461 80.1559C38.1461 80.1559 32.6547 83.5755 33.543 86.4385C33.543 86.4385 41.5378 86.4385 46.7061 86.4385C51.8744 86.4385 65.0375 78.8039 65.0375 78.8039C65.0375 78.8039 51.3899 75.6228 42.1031 76.0205Z" fill="#FFB192"/>
<path d="M37.2578 86.3589C37.2578 86.3589 37.5808 84.9274 38.9537 84.2117" stroke="#1B1C1E" stroke-miterlimit="10"/>
<path d="M40.8916 86.3588C40.8916 86.3588 41.9414 85.1659 42.6682 85.0068" stroke="#1B1C1E" stroke-miterlimit="10"/>
<path d="M69.156 35.7002C58.2541 48.1064 23.5294 54.9457 15.6154 38.4041C7.70139 21.8626 32.4124 3.6509 32.4124 3.6509C47.7559 -3.82463 55.8314 2.37847 74.1628 3.09421C74.1628 3.09421 84.984 17.8067 69.156 35.7002Z" fill="#EB8226"/>
<path d="M108.161 38.4041C103.961 63.0575 76.5855 77.6904 56.8813 82.9392C45.9793 81.5872 37.6616 79.6786 35.3197 76.1794C30.3936 68.9425 -1.10087 64.489 0.0296991 42.6986C0.918005 25.4413 19.8147 10.3311 30.6359 4.52569C31.2819 4.20758 31.8472 3.88947 32.4125 3.57137C32.4125 3.57137 7.62068 21.783 15.6154 38.3246C23.5294 54.8662 58.2541 48.0269 69.1561 35.6207C84.9841 17.7272 74.1629 3.01468 74.1629 3.01468C78.3621 3.17373 83.1267 3.01468 88.6988 2.37846C90.9599 2.13988 93.2211 1.9013 95.563 1.82178C95.6437 1.82178 95.6437 1.82178 95.7245 1.82178C98.2279 3.88948 112.037 15.8185 108.161 38.4041Z" fill="#F7EDE1"/>
<path d="M154.11 53.3552C152.011 92.9596 123.747 90.0171 97.0974 86.836C83.2883 85.2455 68.5908 84.3707 56.8813 82.9392C76.5856 77.6109 103.962 62.9779 108.161 38.4041C111.956 15.8185 98.2279 3.88948 95.6438 1.90131C99.1162 1.74225 102.669 1.82177 106.223 2.13988C108.726 3.49183 121.082 11.4445 125.846 33.8711C131.095 58.8425 121.889 76.2589 134.568 73.9527C147.246 71.5668 154.11 53.3552 154.11 53.3552Z" fill="#EB8226"/>
<path d="M154.11 53.3551C154.11 53.3551 147.246 71.5668 134.568 73.8731C121.889 76.1794 131.176 58.763 125.846 33.7915C121.082 11.3649 108.726 3.49179 106.223 2.0603C131.661 4.28706 155.968 18.5224 154.11 53.3551Z" fill="#3D3533"/>
<path d="M25.8712 24.646C23.6908 25.1232 21.0259 28.2247 21.0259 31.9625C21.0259 37.5293 25.1444 39.2789 28.6169 38.086C32.0893 36.8931 32.8969 32.9963 32.0893 30.1334C31.4433 27.5885 28.5361 24.0098 25.8712 24.646Z" fill="#1B1C1E"/>
<path d="M38.792 8.58134C38.792 8.58134 41.5377 1.18534 48.9671 3.80973C56.3159 6.43411 59.5461 20.8285 57.931 25.3615C56.9619 28.2245 51.2283 27.1906 45.4139 18.1246C41.1339 11.3648 38.792 8.58134 38.792 8.58134Z" fill="#3D3533"/>
<path d="M8.02439 53.4347C0.514162 54.7866 0.51416 46.6749 0.51416 46.6749C1.80624 46.4363 3.66361 45.8796 5.44023 44.2891" stroke="#1B1C1E" stroke-miterlimit="10"/>
<path d="M24.2563 30.849C24.8361 30.849 25.3062 30.3861 25.3062 29.8151C25.3062 29.2441 24.8361 28.7812 24.2563 28.7812C23.6766 28.7812 23.2065 29.2441 23.2065 29.8151C23.2065 30.3861 23.6766 30.849 24.2563 30.849Z" fill="#F7EDE1"/>
<mask id="mask0_37_2383" style="mask-type:luminance" maskUnits="userSpaceOnUse" x="56" y="1" width="99" height="88">
<path d="M154.11 53.3552C152.011 92.9596 123.747 90.0171 97.0974 86.836C83.2883 85.2455 68.5908 84.3707 56.8813 82.9392C76.5856 77.6109 103.962 62.9779 108.161 38.4041C111.956 15.8185 98.2279 3.88948 95.6438 1.90131C99.1162 1.74225 102.669 1.82177 106.223 2.13988C108.726 3.49183 121.082 11.4445 125.846 33.8711C131.095 58.8425 121.889 76.2589 134.568 73.9527C147.246 71.5668 154.11 53.3552 154.11 53.3552Z" fill="white"/>
</mask>
<g mask="url(#mask0_37_2383)">
<g opacity="0.78">
<path d="M111.149 87.2336C111.23 87.1541 111.31 87.0746 111.31 86.9155L111.149 87.2336Z" fill="#4B1804"/>
<path d="M110.422 86.1996C110.422 86.1201 110.422 86.1201 110.341 86.0405C110.341 86.1201 110.341 86.1996 110.422 86.1996Z" fill="#4B1804"/>
<path d="M118.013 88.6652C118.094 88.6652 118.094 88.6652 118.094 88.6652V88.5857C118.094 88.5062 118.013 88.5857 118.013 88.6652Z" fill="#4B1804"/>
<path d="M117.771 88.3468H117.852C117.771 88.2672 117.771 88.2672 117.771 88.3468Z" fill="#4B1804"/>
<path d="M115.51 88.7446C115.348 87.9493 115.752 88.665 115.671 87.9493C115.51 88.1083 115.429 88.2674 115.348 87.8698C115.429 87.4721 115.671 87.8698 115.671 87.2335L115.51 87.4721C115.348 87.154 115.51 86.6769 115.348 86.6769C115.267 87.5516 114.702 86.3587 114.541 86.5178L114.621 86.4383L114.298 86.0406C114.298 86.0406 114.298 86.0406 114.298 85.9611C114.298 86.0406 114.298 86.0406 114.298 86.1202C114.137 85.7225 113.895 85.4044 113.652 85.4839C113.572 85.9611 112.845 85.7225 112.764 86.1202C112.845 85.9611 112.926 85.9611 113.087 86.1202V86.7564C112.845 86.7564 113.006 86.1997 112.845 86.5973C112.926 87.3926 113.168 86.5973 113.329 86.6769C113.249 86.8359 113.249 87.0745 113.087 87.154C113.41 87.154 113.733 87.3926 113.895 86.5973C113.975 86.7564 113.975 87.0745 113.895 87.2335C114.056 86.7564 114.137 87.7107 114.298 87.2335C114.298 88.0288 113.814 87.6312 113.652 88.1083C113.329 87.5516 112.926 88.1083 112.603 88.2674C112.522 87.7107 112.764 87.2335 112.603 86.9154C112.28 86.5973 112.28 87.2335 112.118 87.5517C111.876 87.3926 112.037 86.5973 111.634 86.5973L111.795 86.1997C111.553 85.4044 111.633 86.5178 111.391 86.3587C111.472 86.5973 111.472 86.7564 111.634 86.7564C111.634 87.0745 111.553 87.154 111.472 87.2335H111.553C111.472 87.6312 111.472 88.0288 111.23 87.8698C111.31 87.3926 110.987 87.5516 110.907 87.3131L110.987 87.2335C110.826 87.3926 110.664 87.3131 110.503 87.4721V87.3926C110.422 87.6312 110.341 88.1879 110.18 88.0288C110.18 87.7902 110.341 87.154 110.18 87.2335C110.18 86.9154 110.422 86.8359 110.584 86.9154C110.422 86.8359 110.261 86.1997 110.503 86.1997C110.422 85.7225 110.261 86.4383 110.18 86.1997C110.18 86.3588 110.18 86.5178 110.18 86.5973C110.099 85.9611 109.695 86.5973 109.776 86.995L110.018 86.6769C110.099 87.154 109.776 87.4721 109.938 87.7902C109.776 87.0745 109.372 88.1879 109.211 87.5517L109.292 87.9493C108.807 87.7107 108.484 88.665 108 88.8241C108.161 88.5855 108.161 87.7107 108.403 88.0288C107.919 87.8698 108.242 87.2335 108.08 86.8359C107.677 86.5178 107.919 87.6312 107.838 87.8698L108.08 87.7107C107.838 88.665 107.192 87.5517 106.707 88.1879C106.627 87.9493 106.788 88.0288 106.869 87.9493C106.627 87.4721 106.627 88.0288 106.546 88.2674C106.304 88.1879 106.061 87.9493 106.142 87.3926C105.9 87.2335 106.142 87.7902 106.061 87.9493L105.981 87.7902L105.738 88.506C105.496 88.3469 105.254 87.9493 105.092 87.3926C104.608 87.5517 104.931 88.7446 104.608 88.9831C104.366 88.665 104.608 88.506 104.689 88.2674L104.366 88.3469C104.446 87.6312 104.769 88.0288 104.689 87.2335C104.446 88.0288 104.366 87.4721 103.962 88.0288V88.1083C103.8 88.665 103.396 88.2674 103.235 88.4264C103.316 88.1083 103.558 88.0288 103.719 87.9493C103.477 87.7107 102.912 87.9493 102.67 88.665C102.508 88.5855 102.266 88.2674 102.427 87.9493C101.943 87.8698 102.266 88.9831 101.781 88.7446V88.1879C101.297 87.3926 100.893 88.9036 100.409 88.1879V88.8241C100.328 88.5855 100.086 88.4264 100.086 88.1879L100.328 87.9493C100.166 87.3926 100.086 88.506 99.8433 88.1083C99.8433 88.2674 100.005 88.7446 100.005 88.9831C100.974 88.5855 101.862 89.5398 102.831 88.9036C102.831 88.8241 102.75 88.7446 102.75 88.5855C102.831 88.7446 103.073 88.5855 102.993 88.9036V88.9831C103.235 88.8241 103.477 89.6193 103.639 89.6193C103.72 89.1422 104.123 89.7784 104.043 89.0627L104.204 89.5398C104.285 89.2217 104.204 88.9036 104.285 88.7446C104.446 88.8241 104.446 89.1422 104.366 89.3012C105.012 89.5398 105.819 89.4603 106.465 89.2217L106.304 89.6193C106.465 89.7784 106.869 88.9831 106.788 89.8579C107.111 89.4603 107.677 90.0965 107.677 89.1422C107.919 90.017 108.484 89.5398 108.888 89.3808C108.807 88.5855 109.211 89.1422 109.372 88.7446C109.453 89.3808 109.049 89.3808 109.049 89.8579C109.453 88.9036 110.422 90.4941 110.503 88.9036C110.584 88.9831 110.584 89.0627 110.584 89.0627C110.664 89.0627 110.826 89.3012 110.907 89.3808C110.907 89.0627 110.745 88.9831 110.987 88.9036C111.149 88.9831 111.068 89.3808 111.149 89.6193C111.472 89.2217 111.957 89.0627 111.957 88.4264C112.037 88.5855 112.199 88.9831 112.118 89.0627C112.603 88.506 112.603 89.1422 113.087 88.7446C112.926 88.7446 113.087 89.4603 112.764 89.2217C113.006 90.0965 113.572 88.9831 113.975 89.4603L114.056 88.9036C114.298 88.7446 114.379 89.3012 114.218 89.5398C114.702 89.8579 114.864 89.4603 115.187 89.4603C115.187 89.5398 115.187 89.6193 115.187 89.6193H115.671C115.671 89.4603 115.833 89.1422 115.752 88.8241C115.914 88.7445 115.833 88.9036 115.51 88.7446Z" fill="#4B1804"/>
<path d="M111.472 86.1997C111.553 86.3588 111.553 86.4383 111.634 86.4383C111.553 86.3588 111.472 86.1997 111.472 86.1997Z" fill="#4B1804"/>
<path d="M120.274 86.8361C120.113 85.9613 120.032 86.9951 119.79 86.8361C119.951 86.677 119.87 86.1998 119.79 85.8817C119.709 87.0746 119.467 85.7227 119.063 85.9613C118.982 85.5636 119.224 85.4841 119.224 85.0865C118.982 85.4046 118.659 85.5636 118.659 86.2794C118.255 86.3589 117.932 86.1203 117.69 86.2794C117.932 85.9613 117.69 85.6432 117.851 85.0865C117.609 85.8817 117.044 86.8361 116.721 87.7904C116.559 87.0747 116.559 86.9951 116.559 86.3589C115.994 85.9613 116.479 86.9951 115.994 86.8361L116.236 86.9156C115.994 87.1542 116.075 87.7904 116.075 88.2675L116.64 88.1085C116.721 88.5857 116.317 88.5857 116.236 88.6652C116.156 89.2219 116.559 89.0628 116.559 89.54C116.64 89.1423 116.802 89.2219 116.963 89.0628L117.044 89.3014C117.367 89.54 117.448 88.9038 117.69 88.9038C117.69 88.9833 117.69 89.0628 117.69 89.0628C117.771 88.7447 117.771 88.4266 117.932 88.2675L117.851 88.3471C118.013 87.7109 118.417 87.2337 118.013 86.5975L118.578 86.7565C118.578 87.4723 118.578 88.5061 118.255 88.5857V88.9038C118.578 89.2219 118.901 88.2675 118.659 87.7109C118.74 86.0408 119.547 87.5518 119.87 86.8361C119.951 87.3132 119.709 87.4723 119.709 87.7904C119.628 87.8699 119.467 87.8699 119.467 87.4723C118.982 87.7904 119.709 88.8242 119.144 88.7447C118.821 88.5857 119.386 88.029 118.982 87.9494L118.821 89.2219C119.063 89.1423 119.305 88.9038 119.547 88.7447C120.678 87.7904 121.647 88.3471 121.647 88.3471C123.424 87.9494 125.2 87.5518 126.977 87.0746C127.542 86.7565 127.704 86.8361 127.704 85.5636C127.542 85.3251 127.219 85.5636 127.219 85.0865C127.219 85.5636 127.058 85.8022 126.815 85.8817C126.735 85.4841 127.058 85.6432 126.977 85.5636H126.896C126.896 85.3251 126.896 85.166 126.977 85.166C126.492 84.5298 125.927 84.8479 125.927 85.7227C125.604 85.3251 126.008 85.007 126.008 84.6093C125.039 84.4503 124.473 84.6093 123.504 84.6888C123.585 85.4841 123.504 85.166 123.424 85.7227L123.262 85.4841C123.343 85.6432 123.262 86.1998 123.504 86.2794C122.858 85.7227 123.02 87.3928 122.697 87.7904V87.3928C122.374 87.4723 122.293 87.5518 122.051 87.7904C121.485 87.0747 122.455 87.6313 122.212 86.677L122.132 86.8361C122.132 86.4384 122.132 85.7227 122.293 85.4841C121.889 86.1998 121.566 85.3251 121.162 85.8817C121.162 85.4046 121.566 85.0069 121.647 84.9274C121.485 84.9274 121.243 85.2455 121.162 84.8479L121.243 85.4046C120.92 85.4841 121.243 84.8479 121.082 84.5298C119.951 84.7684 120.839 86.4384 120.274 86.8361Z" fill="#4B1804"/>
<path d="M112.926 87.2333C113.007 87.3129 113.087 87.2333 113.168 87.1538C113.087 87.1538 113.007 87.1538 112.926 87.2333Z" fill="#4B1804"/>
<path d="M114.299 85.2454C114.379 85.4839 114.299 85.484 114.218 85.8021C114.379 85.643 114.541 85.643 114.299 85.2454Z" fill="#4B1804"/>
<path d="M91.2833 85.7227C91.2025 85.8817 91.041 86.0408 91.041 86.1998L91.364 86.0408L91.2833 85.7227Z" fill="#4B1804"/>
<path d="M91.8486 86.3587L92.0909 86.5973L92.3332 85.802C92.0101 85.8815 92.1717 86.3587 91.8486 86.3587Z" fill="#4B1804"/>
<path d="M92.5754 86.8359L92.4946 86.995C92.5754 86.995 92.5754 86.9155 92.5754 86.8359Z" fill="#4B1804"/>
<path d="M92.5758 86.5176L92.7373 85.9609L92.3335 86.3586L92.495 86.4381C92.495 86.5971 92.5758 86.6767 92.5758 86.8357L92.7373 86.4381C92.7373 86.5176 92.6565 86.5972 92.5758 86.5176Z" fill="#4B1804"/>
<path d="M93.5447 87.5517C93.4639 87.3131 93.6254 87.0745 93.6254 86.8359C93.3832 86.5973 93.3024 87.4721 93.0602 87.154C93.4639 86.7564 92.9794 86.8359 92.8179 86.5178C92.8986 87.0745 92.9794 87.3926 93.2216 87.5517L93.3024 87.2336C93.5447 87.2336 93.4639 87.3926 93.5447 87.5517Z" fill="#4B1804"/>
<path d="M94.998 86.7563L94.7558 87.2335C94.7558 86.9949 94.352 86.9949 94.4328 86.4382C94.2712 86.5178 94.2713 86.7563 94.1905 86.9154C94.1097 86.6768 94.029 86.4382 93.9482 86.8359C94.4328 87.2335 94.2713 87.313 94.7558 87.5516C94.7558 87.6311 94.675 87.6311 94.5943 87.6311L94.9173 87.9493C94.9173 87.2335 95.3211 87.2335 94.998 86.7563Z" fill="#4B1804"/>
<path d="M95.402 87.2334C95.1597 87.2334 94.9982 87.7901 95.1597 88.1082L95.6443 87.7106C95.5635 87.631 95.3212 87.7106 95.402 87.2334Z" fill="#4B1804"/>
<path d="M95.8057 87.2336C95.8864 87.4721 96.0479 88.1084 96.2094 87.5517C95.8864 87.6312 96.0479 86.8359 95.8057 87.2336Z" fill="#4B1804"/>
<path d="M97.5015 87.7107L97.017 87.3131C96.9362 86.5973 97.2592 87.0745 97.4207 86.7564C97.017 86.5973 97.1785 86.8359 96.8554 87.2335C96.7747 87.154 96.5324 87.5516 96.4517 87.7107C97.0169 87.3131 97.017 88.9831 97.5015 87.7107Z" fill="#4B1804"/>
<path d="M96.5327 86.9949V87.313L96.6942 87.0744L96.5327 86.9949Z" fill="#4B1804"/>
<path d="M98.5512 88.5059C98.7934 89.3012 99.1165 88.0288 99.4395 88.4264C99.4395 88.5059 99.4395 88.5059 99.3587 88.665L99.601 88.5855V88.7445C99.601 88.2674 99.8433 88.0288 100.005 87.7107C99.7625 87.154 99.8433 88.3469 99.601 87.7902C99.6818 87.5516 99.6817 87.2335 99.7625 87.0745C99.601 87.313 99.5202 87.6312 99.4395 87.8697C99.278 87.9493 99.278 87.6312 99.278 87.4721C99.1165 87.7902 99.0357 88.5059 98.7935 88.2674C98.6319 87.8697 98.9549 87.5516 98.5512 87.7902C98.7127 88.5855 98.2281 87.6312 98.0666 88.1878C97.8244 88.0288 97.6629 87.5516 97.7436 87.2335C97.7436 87.8697 97.5014 88.3469 97.3398 88.5059L97.7436 88.0288L97.9051 88.7445C98.2282 88.3469 98.3897 88.3469 98.5512 88.5059Z" fill="#4B1804"/>
<path d="M99.7627 86.995C99.7627 86.9155 99.8435 86.9155 99.8435 86.8359C99.8435 86.8359 99.8435 86.9155 99.7627 86.995Z" fill="#4B1804"/>
<path d="M97.7437 86.9153L97.9052 86.8357L97.8244 86.5972L97.7437 86.9153Z" fill="#4B1804"/>
<path d="M100.005 86.4382C99.9241 86.4382 99.9241 86.6767 100.005 86.6767L100.086 86.3586L100.005 86.4382Z" fill="#4B1804"/>
<path d="M100.247 86.9155L100.409 87.3132L100.489 86.9951L100.247 86.9155Z" fill="#4B1804"/>
<path d="M105.981 87.2334C105.819 86.9948 105.819 87.472 105.819 87.7901C106.062 87.9492 105.819 87.3925 105.981 87.2334Z" fill="#4B1804"/>
<path d="M109.534 86.5178C109.292 86.1997 109.13 86.6768 108.969 86.6768C109.13 86.9154 109.373 86.7564 109.534 86.5178Z" fill="#4B1804"/>
<path d="M110.988 84.7681C110.988 84.9271 110.907 85.0066 110.988 85.0862L110.826 85.961C111.149 86.1996 110.988 85.0862 110.988 84.7681Z" fill="#4B1804"/>
<path d="M112.684 84.5298L112.441 84.8479H112.603C112.522 85.166 112.522 85.4046 112.441 85.6432C112.603 85.4841 112.764 85.166 112.684 84.5298Z" fill="#4B1804"/>
<path d="M112.118 85.8817C112.118 85.8817 112.199 85.8817 112.199 85.8022C112.199 85.7227 112.199 85.5636 112.118 85.8817Z" fill="#4B1804"/>
<path d="M112.36 85.8022V85.7227C112.279 85.8022 112.279 85.8022 112.199 85.8022C112.279 85.8817 112.279 85.9612 112.36 85.8022Z" fill="#4B1804"/>
<path d="M112.926 84.9272L113.41 84.7682L113.249 84.6091C113.168 85.1658 112.926 84.3705 112.926 84.9272Z" fill="#4B1804"/>
<path d="M115.429 85.1659L115.51 85.643C115.833 85.7226 116.075 84.5297 116.398 85.4045C116.237 85.0864 116.56 84.7682 116.237 84.6887C116.075 85.1659 115.671 85.2454 115.429 85.1659Z" fill="#4B1804"/>
<path d="M116.641 85.8019C116.641 85.9609 116.721 86.0405 116.721 86.1995C116.802 86.279 116.964 86.0405 116.883 85.8019C116.883 86.5176 116.721 85.4042 116.641 85.8019Z" fill="#4B1804"/>
<path d="M118.013 85.6431C117.932 85.6431 117.771 85.7227 117.932 85.8817C118.175 85.8022 118.094 85.2455 118.175 84.8479C117.932 84.5297 117.852 85.4045 118.013 85.6431Z" fill="#4B1804"/>
<path d="M120.194 85.4838L120.113 85.4043V86.12L120.194 85.4838Z" fill="#4B1804"/>
<path d="M121.728 84.9274L121.889 84.4502L121.647 84.6093L121.728 84.9274Z" fill="#4B1804"/>
<path d="M122.051 85.0067L122.293 84.9272L122.212 84.7681C122.051 84.6886 122.132 85.0067 122.051 85.0067Z" fill="#4B1804"/>
<path d="M122.858 84.7683C122.858 84.8478 122.778 84.7682 122.778 84.6887L122.616 85.0068L122.858 84.7683Z" fill="#4B1804"/>
<path d="M127.623 86.8359C127.623 87.3131 127.865 86.995 127.946 87.0745C127.946 86.9155 127.704 86.3588 127.623 86.8359Z" fill="#4B1804"/>
</g>
</g>
<path d="M142.078 82.3028C139.736 85.5634 136.344 88.5854 132.307 88.5854H121.405C121.405 88.5854 120.759 85.0067 126.735 83.0186C129.48 82.1438 132.549 81.9847 136.344 82.0642C138.283 82.0642 142.078 82.3028 142.078 82.3028Z" fill="#FFB192"/>
<path d="M123.989 88.5857C123.989 88.5857 124.312 87.1542 124.958 86.7566" stroke="#1B1C1E" stroke-miterlimit="10"/>
<path d="M127.461 88.5854C127.461 88.5854 127.946 87.3129 128.43 87.2334" stroke="#1B1C1E" stroke-miterlimit="10"/>
<mask id="mask1_37_2383" style="mask-type:luminance" maskUnits="userSpaceOnUse" x="22" y="68" width="22" height="11">
<path d="M38.9537 78.9628C37.2578 78.1675 35.9657 77.2927 35.2389 76.1793C33.4623 73.6345 28.3747 71.4077 22.6411 68.6243C23.5294 69.0219 31.4434 72.203 40.165 71.4872C49.3711 70.7715 38.9537 78.9628 38.9537 78.9628Z" fill="white"/>
</mask>
<g mask="url(#mask1_37_2383)">
<g opacity="0.78">
<path d="M34.9157 77.6902C34.835 77.7697 34.835 77.7697 34.835 77.8492L34.9157 77.6902Z" fill="#4B1804"/>
<path d="M34.835 77.8494L34.5928 78.4061C34.835 78.1675 34.9158 78.0084 34.835 77.8494Z" fill="#4B1804"/>
<path d="M30.7163 76.895C30.5548 76.895 30.474 76.895 30.3125 76.9746C30.474 77.2131 30.6355 77.1336 30.7163 76.895Z" fill="#4B1804"/>
<path d="M41.053 81.9052C43.2333 81.9847 41.053 82.0642 43.0718 82.2233C42.6681 82.0642 42.4258 81.9847 43.5564 81.9847C44.6869 82.1438 43.3141 82.2233 44.9292 82.3824C44.7677 82.3028 44.6062 82.2233 44.4447 82.1438C44.9292 82.0642 45.4945 82.1438 45.8983 82.1438C46.302 82.1438 46.5443 82.2233 46.5443 82.1438C45.5752 81.9847 45.8983 81.8257 46.3828 81.6666C46.9481 81.5076 47.6749 81.1894 47.5941 81.1099L47.7556 81.1895C48.1594 81.0304 48.4824 80.8713 48.8862 80.6328C48.967 80.6328 48.967 80.6328 48.967 80.6328C48.8862 80.6328 48.7247 80.6328 48.5632 80.6328C49.6938 80.3147 50.4206 79.8375 50.259 79.3603C49.2092 79.4399 50.0168 78.0084 49.0477 78.1674C49.29 78.247 49.3707 78.406 49.0477 78.7241L47.7556 79.0422C47.8364 78.7241 48.967 78.6446 48.2402 78.5651C46.4636 79.2013 48.2402 79.0422 47.9171 79.3603C47.5134 79.3603 47.1904 79.3603 47.0288 79.2808C46.9481 79.5194 46.6251 79.758 46.7058 79.9965C46.7866 80.1556 46.9481 80.3147 47.8364 80.3147C47.5941 80.3942 47.2711 80.4737 47.0288 80.4737C46.7866 80.4737 46.5443 80.4737 46.3828 80.4737C46.5443 80.4737 46.6251 80.4737 46.7058 80.5532V80.6328C46.6251 80.7123 46.5443 80.7123 46.302 80.7918C45.8983 80.8713 45.4945 80.9509 46.1405 81.0304C45.01 81.1099 44.7677 81.0304 44.6869 80.9509C44.5254 80.8713 44.5254 80.7123 43.9601 80.7123C44.9292 80.3942 45.01 80.1556 44.7677 80.0761C44.5254 79.9965 44.0409 79.9965 43.8794 79.917C45.656 79.2013 47.3519 78.9627 47.8364 78.5651C48.2402 78.1674 48.0787 78.0879 47.7556 78.1674C47.5941 78.1674 47.3519 78.247 47.1904 78.247C46.8673 78.3265 46.5443 78.406 46.302 78.4855C46.4636 78.3265 46.7058 78.1674 47.0288 78.0084C47.2711 77.9288 47.4326 77.7698 47.6749 77.6107C48.0787 77.3722 48.4824 77.1336 48.4017 76.8155C48.6439 76.8155 48.967 76.8155 49.2092 76.8155C50.6628 75.7021 48.4824 76.7359 48.7247 76.3383C48.4017 76.6564 47.9979 76.8155 48.0787 77.1336C47.5134 77.4517 47.2711 77.3722 47.1904 77.2926V77.3722C46.6251 77.6107 45.979 77.8493 45.5753 78.0879C45.1715 78.247 45.01 78.247 45.2522 78.0084C45.979 77.6903 46.302 77.4517 46.3828 77.2926C46.5443 77.1336 46.5443 76.895 46.7866 76.7359L47.0288 76.6564C46.5443 76.6564 46.5443 76.4178 46.1405 76.4974L46.3828 76.3383C46.302 76.3383 46.0598 76.4974 45.7368 76.6564C45.4945 76.8155 45.2522 76.9745 44.9292 77.1336C44.4447 77.4517 44.0409 77.6107 44.1217 77.4517C44.4447 77.2131 45.0907 76.7359 45.656 76.4178C45.979 76.1793 46.0598 76.1793 46.1405 76.0997C46.2213 76.0202 46.2213 76.0202 46.1405 76.0202C46.7866 75.543 47.1904 75.6226 47.1904 75.9407C47.1904 75.6226 48.0787 74.7478 48.4824 74.9864C49.2092 74.3501 47.8364 74.9864 48.0787 74.6683C47.8364 74.9068 47.5134 75.0659 47.2711 75.2249C47.8364 74.8273 47.6749 74.6682 47.2711 74.8273C46.8673 74.9068 46.302 75.2249 45.8983 75.543C46.2213 75.384 46.5443 75.2249 46.7866 75.1454C46.3828 75.4635 45.8983 75.7816 45.4945 76.0202C45.4137 76.0997 45.333 76.1793 45.1715 76.1793C45.0907 76.2588 44.9292 76.3383 44.8484 76.4178C44.6062 76.5769 44.4447 76.7359 44.2832 76.895C45.1715 76.0997 44.6869 76.2588 44.2832 76.4974C43.7986 76.7359 43.3949 76.9745 43.9601 76.2588L43.2333 77.1336C43.2333 76.895 42.5873 77.2131 41.9413 77.6903C41.2952 78.1674 40.7299 78.7241 40.4069 78.9627C40.8914 78.4855 42.2643 76.6564 42.1028 77.2926C42.022 77.1336 42.2643 76.6564 42.6681 76.1793C43.0718 75.7021 43.5564 75.1454 43.7179 74.7478C43.5564 74.032 42.2643 76.3383 41.7798 76.895L42.345 76.5769C41.376 77.6107 41.2952 77.5312 41.053 77.2926C40.8915 77.054 40.6492 76.8155 40.0839 77.4517C40.2454 76.895 40.3262 77.1336 40.4877 76.9745C40.6492 75.9407 40.0839 77.2131 39.8416 77.6107C39.6801 77.4517 39.4379 76.9745 39.9224 75.7021C39.5994 75.384 39.7609 76.4974 39.4379 76.895V76.5769C39.1956 77.0541 39.0341 77.5312 38.8726 78.0084C38.7918 77.7698 38.7111 77.5312 38.6303 77.1336C38.5496 76.7359 38.388 76.2588 38.388 75.6226C37.6612 75.7816 37.9035 78.5651 37.2575 78.9627C37.0152 78.247 37.419 78.0084 37.4997 77.4517L37.0152 77.5312C37.3382 76.0997 37.6612 76.895 37.8228 75.1454C37.2575 76.8155 37.2575 75.543 36.6114 76.6564V76.8155C36.2077 77.9288 35.8039 77.0541 35.4809 77.2131C35.7231 76.5769 36.0461 76.4974 36.3692 76.2588C36.1269 75.6226 35.2386 76.0202 34.5926 77.4517C34.431 77.2131 34.1888 76.4974 34.5926 75.9407C33.9465 75.543 33.785 78.0084 33.3005 77.3722L33.6235 76.2588C33.5427 75.384 33.139 75.6226 32.6544 75.9407C32.2507 76.2588 31.7661 76.4974 31.7661 75.7021L31.2816 77.0541C31.3624 76.4178 31.1201 76.0997 31.2816 75.543L31.7661 75.2249C31.8469 74.032 31.1201 76.1793 31.0393 75.3045C30.8778 75.7021 30.8778 76.6564 30.7163 77.1336C31.5239 76.9745 32.0891 77.4517 32.7352 77.8493C33.3812 78.247 34.0273 78.5651 34.9156 78.0084C34.9156 77.8493 34.8348 77.6107 34.9963 77.3722C35.0771 77.7698 35.4001 77.4517 35.2386 78.1674L35.1578 78.247C35.5616 78.0084 35.6424 79.758 35.8846 79.758C36.2077 78.8036 36.6114 80.2351 36.6922 78.6446L36.8537 79.6784C37.0152 79.1217 37.096 78.3265 37.2575 78.0084C37.4997 78.1674 37.419 78.8036 37.1767 79.2013C37.419 79.3603 37.6613 79.5194 37.9035 79.5989C38.065 79.6784 38.1458 79.6784 38.3073 79.6784C38.4688 79.6784 38.6303 79.6784 38.6303 79.6784C38.7918 79.6784 39.0341 79.5194 39.3571 79.2808C39.1956 79.5194 39.1148 79.758 39.0341 79.9965C38.9533 80.3942 39.8416 78.6446 39.0341 80.5532C39.2764 80.1556 39.2764 80.3147 39.3571 80.3147C39.4379 80.3147 39.5994 80.1556 40.2454 79.1217C39.6801 80.0761 39.5994 80.3147 39.7609 80.2351C39.9224 80.1556 40.3262 79.8375 40.5684 79.6784C42.1028 77.9288 41.2952 79.2013 42.1835 78.406C40.8107 79.758 40.5684 79.758 39.6801 80.7123C40.7299 79.6784 40.6492 80.0761 40.4877 80.2351C40.4069 80.4737 40.3262 80.4737 42.6681 78.8832C42.5066 79.0422 42.3451 79.2013 42.1835 79.2808C42.2643 79.2808 41.5375 79.917 41.376 80.0761C42.2643 79.5194 42.5066 79.2013 42.9103 79.1217C42.8296 79.3603 41.4567 80.1556 40.8107 80.5532C42.022 79.917 42.5873 79.9965 44.6062 79.1217C44.0409 79.5194 42.9103 80.0761 42.5066 80.1556C43.3141 79.9965 43.2333 80.1556 43.0718 80.2351C42.9103 80.3942 42.6681 80.5532 43.1526 80.5532C43.0718 80.3942 40.9722 81.1894 41.8605 80.7123C40.4069 81.269 40.5684 81.269 40.8107 81.269C41.1337 81.269 41.5375 81.3485 40.7299 81.5076C41.2952 81.428 41.8605 81.3485 42.4258 81.3485C42.6681 81.5076 40.9722 81.6666 40.4069 81.6666C39.8416 81.8257 39.8416 81.8257 39.9224 81.8257C40.0032 81.8257 40.2454 81.9052 40.2454 81.9052C40.0839 81.9052 39.7609 81.9052 39.8416 81.9052L39.6801 81.9847C40.0839 81.9847 40.8107 82.1438 41.7798 82.3028C40.8915 81.9847 40.4069 81.9052 41.053 81.9052Z" fill="#4B1804"/>
<path d="M23.0448 70.6124C23.2063 70.2147 23.6908 69.7376 24.0139 69.3399C23.9331 68.7832 22.964 70.2147 22.964 69.5785C23.9331 69.0218 23.2063 68.8628 23.4486 68.2266C22.8833 69.1809 22.641 69.9762 22.8025 70.4533L23.2063 69.8171C23.4486 69.8966 23.0448 70.2147 23.0448 70.6124Z" fill="#4B1804"/>
<path d="M25.7095 70.0556L24.9019 70.8509C25.1442 70.3738 24.7404 70.1352 25.3057 69.1013C25.0634 69.1809 24.8211 69.5785 24.4981 69.7375C24.6596 69.1808 24.8211 68.7832 24.2559 69.3399C24.4174 70.3737 24.1751 70.5328 24.4981 71.0895C24.3366 71.3281 24.3366 71.2485 24.2559 71.169L24.3366 71.8848C25.0634 70.7714 25.6287 70.9304 25.7095 70.0556Z" fill="#4B1804"/>
<path d="M25.7904 71.0895C25.4674 71.01 24.8214 71.8052 24.5791 72.521L25.6289 72.0438C25.4674 71.9643 25.1444 71.9643 25.7904 71.0895Z" fill="#4B1804"/>
<path d="M26.1942 71.2487C26.0327 71.8054 25.6289 73.0778 26.3557 72.1235C25.9519 72.2031 26.921 70.7716 26.1942 71.2487Z" fill="#4B1804"/>
<path d="M27.8093 73.3162C27.7285 72.9981 27.6477 72.68 27.567 72.3619C28.1323 71.01 28.0515 72.0438 28.536 71.5666C28.213 71.0895 28.1323 71.5666 27.3247 72.2029C27.244 72.0438 26.6787 72.6005 26.2749 72.9186C27.567 72.2029 26.0326 75.4635 27.8093 73.3162Z" fill="#4B1804"/>
<path d="M27.325 71.4077L27.002 71.8849L27.4865 71.6463L27.325 71.4077Z" fill="#4B1804"/>
<path d="M28.6167 75.3841C28.3744 77.1337 29.7472 74.7479 29.9088 75.6227C29.828 75.7022 29.828 75.8612 29.6665 76.0203H30.0703L29.9895 76.4179C30.3125 75.4636 30.8778 75.1455 31.2816 74.4298C31.2816 73.2369 30.6355 75.6227 30.7163 74.3502C30.9586 73.9526 31.2816 73.2369 31.4431 72.9187C31.0393 73.3164 30.7971 73.8731 30.474 74.4298C30.2318 74.4298 30.474 73.9526 30.6356 73.555C30.151 74.0321 29.5857 75.4636 29.3435 74.9865C29.4242 74.0321 30.0703 73.714 29.4242 73.8731C29.0205 75.5431 29.1012 73.4754 28.5359 74.3502C28.3744 73.8731 28.5359 72.8392 28.8589 72.3621C28.3744 73.555 27.5669 74.4298 27.1631 74.6683L28.2129 73.9526L27.8091 75.4636C28.3744 74.9865 28.6167 75.1455 28.8589 75.4636L28.6167 75.3841Z" fill="#4B1804"/>
<path d="M31.4434 72.9187C31.5241 72.8391 31.6049 72.7596 31.6856 72.6801C31.6049 72.6006 31.5241 72.7596 31.4434 72.9187Z" fill="#4B1804"/>
<path d="M28.9399 71.8848L29.1822 71.6462L29.263 71.2485L28.9399 71.8848Z" fill="#4B1804"/>
<path d="M32.0893 71.9645C32.0085 71.8849 31.847 72.3621 31.9278 72.4416L32.2508 71.8054L32.0893 71.9645Z" fill="#4B1804"/>
<path d="M32.0891 72.9983L32.0083 73.8731L32.3313 73.2369L32.0891 72.9983Z" fill="#4B1804"/>
<path d="M39.5998 75.2249C39.4382 74.6683 39.2767 75.7021 39.1152 76.4974C39.4383 76.6564 39.2767 75.5431 39.5998 75.2249Z" fill="#4B1804"/>
</g>
</g>
</svg>
