<svg width="101" height="125" viewBox="0 0 101 125" fill="none" xmlns="http://www.w3.org/2000/svg">
<path d="M6.15308 122.153C6.15308 122.153 2.19608 123.823 13.0173 124.301C23.9192 124.778 81.3361 125.016 87.2312 124.301C93.1263 123.585 99.7482 122.71 88.604 121.756C80.2055 121.04 67.85 121.12 59.2899 120.881C43.8657 120.483 10.8369 120.642 6.15308 122.153Z" fill="#1B1C1E"/>
<path d="M26.4228 10.8158C26.4228 10.8158 22.1428 2.78361 14.6325 3.81746C7.12231 4.85131 3.64984 16.6213 11.9676 23.4606C20.3661 30.2204 26.4228 10.8158 26.4228 10.8158Z" fill="#1B1C1E"/>
<path d="M76.2484 10.8158C76.2484 10.8158 80.5284 2.78361 88.0387 3.81746C95.5489 4.85131 99.0214 16.6213 90.7036 23.4606C82.3051 30.2204 76.2484 10.8158 76.2484 10.8158Z" fill="#1B1C1E"/>
<path d="M42.7353 122.869C34.8213 123.425 24.3231 124.38 15.0363 121.676C17.7012 119.688 31.0258 110.383 36.1941 112.451C43.0583 115.234 42.8968 121.596 42.7353 122.869Z" fill="#F9C8A7"/>
<path d="M84.8897 121.676C75.6029 124.46 65.1855 123.426 57.1907 122.869C57.11 121.597 56.8677 115.314 63.7319 112.451C68.9809 110.304 82.2248 119.688 84.8897 121.676Z" fill="#F9C8A7"/>
<path d="M84.9703 121.676C82.3053 119.688 68.9807 110.383 63.8932 112.451C57.029 115.314 57.1905 121.597 57.352 122.869C55.2524 122.71 53.3143 122.631 51.6184 122.631C51.1339 122.631 50.6493 122.631 50.084 122.631C49.5995 122.631 49.115 122.631 48.5497 122.631C46.8538 122.631 44.9157 122.71 42.8161 122.869C42.8968 121.597 43.1391 115.314 36.2749 112.451C31.1066 110.304 17.8628 119.688 15.1171 121.676C-0.145607 117.143 -3.45657 102.669 3.40762 59.6452C3.73064 57.7366 4.05365 55.8279 4.37667 53.8398C4.78045 51.3744 5.26498 49.0681 5.74951 46.8414C6.07253 45.4894 6.39555 44.217 6.63782 42.9446C7.60688 39.0478 8.73744 35.4691 9.94877 32.2085C19.0741 7.55512 34.4983 0.238644 50.084 0.0795898C65.6698 0.238644 81.0133 7.55512 90.2193 32.2085C91.4307 35.4691 92.5612 39.0478 93.5303 42.9446C93.8533 44.217 94.1763 45.4894 94.4186 46.8414C94.9031 49.0681 95.3877 51.3744 95.7914 53.8398C96.1145 55.8279 96.4375 57.7366 96.7605 59.6452C103.463 102.59 100.152 117.143 84.9703 121.676Z" fill="white"/>
<path d="M47.4999 40.0817C46.1271 40.1613 45.3196 41.6723 46.2079 42.7857C47.0962 43.899 48.469 44.9329 50.6494 45.0919C52.9913 45.251 54.6064 44.1376 55.5755 42.8652C56.383 41.8313 55.6562 40.3203 54.3641 40.2408C52.426 40.1613 49.8418 40.0022 47.4999 40.0817Z" fill="#1B1C1E" stroke="#1B1C1E" stroke-width="1.3738" stroke-miterlimit="10"/>
<path d="M51.1338 45.0918C51.1338 45.0918 51.2954 48.5115 51.2146 48.75C51.1338 48.9886 47.3384 51.2154 42.3315 50.7382" stroke="#1B1C1E" stroke-width="1.3" stroke-miterlimit="10"/>
<path d="M51.2146 48.8296C51.2146 48.8296 54.1218 51.2154 59.4516 51.454" stroke="#1B1C1E" stroke-width="1.3" stroke-miterlimit="10"/>
<path d="M32.3987 41.4336C35.5207 41.4336 38.0516 38.9412 38.0516 35.8667C38.0516 32.7922 35.5207 30.2998 32.3987 30.2998C29.2767 30.2998 26.7458 32.7922 26.7458 35.8667C26.7458 38.9412 29.2767 41.4336 32.3987 41.4336Z" fill="#1B1C1E"/>
<path d="M69.3843 41.4336C72.5063 41.4336 75.0372 38.9412 75.0372 35.8667C75.0372 32.7922 72.5063 30.2998 69.3843 30.2998C66.2623 30.2998 63.7314 32.7922 63.7314 35.8667C63.7314 38.9412 66.2623 41.4336 69.3843 41.4336Z" fill="#1B1C1E"/>
<path d="M46.6116 50.5791C46.6116 50.5791 46.9346 54.1578 50.8916 54.3169C55.3331 54.4759 55.5754 50.7382 55.5754 50.7382" stroke="#1B1C1E" stroke-width="1.3" stroke-miterlimit="10"/>
<path d="M51.5375 71.9715C50.73 71.0967 49.3571 71.0967 48.5496 71.9715C46.2884 74.2778 42.1699 79.3675 41.4431 86.2068C40.5548 95.1138 45.4809 98.613 49.5186 98.7721C53.5564 98.8516 59.3708 95.5115 58.2402 86.2068C57.2711 78.8904 53.6371 74.1983 51.5375 71.9715Z" fill="#FFCB6E"/>
<path d="M60.9054 1.27242C60.9054 10.6566 56.1409 19.6431 50.8918 19.4841C40.4744 19.2455 39.1016 1.27242 39.1016 1.27242C42.8163 0.397627 46.531 0 50.0035 0C53.476 0 57.1907 0.397627 60.9054 1.27242Z" fill="#CECECE"/>
<path d="M42.7354 122.869C42.7354 123.028 42.7354 123.108 42.7354 123.108" stroke="#1B1C1E" stroke-width="1.3037" stroke-miterlimit="10"/>
<path d="M36.194 123.346C36.194 123.346 36.1132 120.642 35.7095 119.768" stroke="#1B1C1E" stroke-width="1.3" stroke-miterlimit="10"/>
<path d="M30.3797 123.506C30.3797 123.506 29.8145 121.199 28.9261 120.643" stroke="#1B1C1E" stroke-width="1.3" stroke-miterlimit="10"/>
<path d="M36.1942 112.451C36.1942 112.451 36.8403 111.099 37.0018 108.157" stroke="#1B1C1E" stroke-width="1.3" stroke-miterlimit="10"/>
<path d="M57.2719 123.108C57.2719 123.108 57.2719 123.028 57.2719 122.869" stroke="#1B1C1E" stroke-width="1.3037" stroke-miterlimit="10"/>
<path d="M63.8131 123.346C63.8131 123.346 63.8939 120.642 64.2976 119.768" stroke="#1B1C1E" stroke-width="1.3" stroke-miterlimit="10"/>
<path d="M69.6272 123.506C69.6272 123.506 70.1925 121.199 71.0808 120.643" stroke="#1B1C1E" stroke-width="1.3" stroke-miterlimit="10"/>
<path d="M63.8128 112.451C63.8128 112.451 63.1668 111.099 63.0052 108.157" stroke="#1B1C1E" stroke-width="1.3" stroke-miterlimit="10"/>
<path d="M31.8333 66.3252C31.8333 66.3252 38.0514 74.4369 45.3194 80.0038C49.1149 82.8668 51.4568 88.6723 47.1767 92.0124C42.3314 95.7501 15.8438 89.3085 6.07239 71.3354" fill="white"/>
<path d="M31.8333 66.3252C31.8333 66.3252 38.0514 74.4369 45.3194 80.0038C49.1149 82.8668 51.4568 88.6723 47.1767 92.0124C42.3314 95.7501 15.8438 89.3085 6.07239 71.3354" stroke="#1B1C1E" stroke-width="1.3" stroke-miterlimit="10"/>
<path d="M49.5185 87.0817C49.5185 87.0817 46.6113 86.525 45.1577 85.4116" stroke="#1B1C1E" stroke-width="1.3" stroke-miterlimit="10"/>
<path d="M47.6612 91.6147C47.6612 91.6147 44.1887 91.4557 43.3004 90.9785" stroke="#1B1C1E" stroke-width="1.3" stroke-miterlimit="10"/>
<path d="M68.4958 66.3252C68.4958 66.3252 62.2777 74.4369 55.0097 80.0038C51.2142 82.8668 48.8723 88.6723 53.1524 92.0124C57.9977 95.7501 84.4853 89.3085 94.2567 71.3354" fill="white"/>
<path d="M68.4958 66.3252C68.4958 66.3252 62.2777 74.4369 55.0097 80.0038C51.2142 82.8668 48.8723 88.6723 53.1524 92.0124C57.9977 95.7501 84.4853 89.3085 94.2567 71.3354" stroke="#1B1C1E" stroke-width="1.3" stroke-miterlimit="10"/>
<path d="M50.8104 87.0817C50.8104 87.0817 53.7176 86.525 55.1712 85.4116" stroke="#1B1C1E" stroke-width="1.3" stroke-miterlimit="10"/>
<path d="M52.6676 91.6147C52.6676 91.6147 56.1401 91.4557 57.0284 90.9785" stroke="#1B1C1E" stroke-width="1.3" stroke-miterlimit="10"/>
<path d="M18.2664 40.0021C17.8626 43.8194 10.1909 43.3422 6.55688 42.865C7.52595 38.9682 8.65652 35.3895 9.86785 32.1289C12.2905 33.0832 18.6701 35.9462 18.2664 40.0021Z" fill="#CECECE"/>
<path d="M10.4331 53.2034C9.86782 56.8616 5.99158 58.7703 3.32666 59.5655C3.64968 57.6569 3.9727 55.7482 4.29572 53.7601C4.69949 51.2947 5.18402 48.9885 5.66855 46.7617C7.84894 47.557 10.9984 49.3861 10.4331 53.2034Z" fill="#CECECE"/>
<path d="M93.4492 42.865C89.8153 43.3422 82.1435 43.8194 81.7398 40.0021C81.336 35.9462 87.7156 33.0832 90.1383 32.1289C91.3496 35.3895 92.4802 38.9682 93.4492 42.865Z" fill="#CECECE"/>
<path d="M96.6797 59.5655C94.0148 58.6907 90.1385 56.8616 89.5732 53.2034C89.0079 49.3861 92.1574 47.557 94.3378 46.7617C94.8223 48.9885 95.3068 51.2947 95.7106 53.7601C96.0336 55.7482 96.3567 57.7364 96.6797 59.5655Z" fill="#CECECE"/>
<mask id="mask0_37_2525" style="mask-type:luminance" maskUnits="userSpaceOnUse" x="28" y="90" width="44" height="33">
<path d="M63.1663 97.2613C54.2832 91.6945 44.5926 87.7181 35.7095 94.0803C28.8453 98.7723 27.4725 106.168 29.0069 113.405C31.8333 112.292 34.4982 111.656 36.194 112.371C43.0582 115.234 42.8967 121.517 42.7352 122.789C44.8348 122.63 46.773 122.551 48.4688 122.551C48.9534 122.551 49.4379 122.551 50.0032 122.551C50.4877 122.551 50.9722 122.551 51.5375 122.551C53.2334 122.551 55.1715 122.63 57.2711 122.789C57.1904 121.517 56.9481 115.234 63.8123 112.371C65.5889 111.656 68.3346 112.292 71.3225 113.485C71.8071 107.202 69.1421 101.158 63.1663 97.2613Z" fill="white"/>
</mask>
<g mask="url(#mask0_37_2525)">
<g opacity="0.78">
<path d="M46.8535 122.073C46.9343 121.994 47.015 121.835 47.0958 121.676L46.8535 122.073Z" fill="#080809"/>
<path d="M46.0458 120.642C46.0458 120.562 46.0458 120.483 45.9651 120.483C45.9651 120.562 46.0458 120.562 46.0458 120.642Z" fill="#080809"/>
<path d="M51.5373 124.141C51.3758 123.187 51.8603 124.062 51.7796 123.107C51.6181 123.346 51.5373 123.505 51.4565 123.028C51.5373 122.471 51.7796 123.028 51.7796 122.232L51.5373 122.55C51.3758 122.153 51.5373 121.517 51.3758 121.596C51.295 122.71 50.649 121.199 50.4875 121.358L50.5682 121.278L50.2452 120.721V120.642C50.2452 120.721 50.2452 120.801 50.2452 120.88C50.0837 120.324 49.8414 119.926 49.5184 120.085C49.4377 120.721 48.7109 120.324 48.5494 120.88C48.6301 120.721 48.7916 120.721 48.8724 120.88V121.676C48.6301 121.676 48.7916 120.96 48.6301 121.437C48.7109 122.55 48.9531 121.437 49.1954 121.517C49.1146 121.755 49.0339 121.994 48.9531 122.073C49.2762 122.073 49.6799 122.471 49.8414 121.358C49.9222 121.596 49.9222 121.994 49.8414 122.153C50.0837 121.517 50.0837 122.71 50.2452 122.153C50.2452 123.107 49.7607 122.71 49.5184 123.266C49.1146 122.471 48.7109 123.266 48.3879 123.425C48.3071 122.71 48.5494 121.994 48.3879 121.596C47.9841 121.119 48.0648 121.994 47.8226 122.471C47.5803 122.232 47.7418 121.199 47.338 121.199L47.5803 120.721C47.338 119.688 47.338 121.119 47.1765 120.96C47.2573 121.199 47.2573 121.517 47.4995 121.437C47.4995 121.835 47.4188 121.994 47.338 122.073H47.4188C47.338 122.63 47.338 123.187 47.0958 122.869C47.2573 122.232 46.8535 122.391 46.7727 122.073L46.8535 121.914C46.692 122.153 46.4497 122.073 46.369 122.153V121.994C46.2075 122.232 46.2075 123.028 45.9652 122.869C45.9652 122.55 46.2075 121.676 45.9652 121.835C45.9652 121.358 46.2075 121.278 46.4497 121.437C46.2075 121.278 46.1267 120.483 46.369 120.403C46.2882 119.767 46.1267 120.642 45.9652 120.403C45.9652 120.562 45.9652 120.801 45.9652 120.96C45.9652 120.165 45.4807 120.88 45.4807 121.517L45.7229 121.039C45.7229 121.676 45.4807 122.153 45.5614 122.55C45.3999 121.517 44.9154 123.107 44.7539 122.153L44.8346 122.71C44.3501 122.391 43.8656 123.584 43.381 123.823C43.5425 123.505 43.5425 122.312 43.9463 122.71C43.4618 122.471 43.7848 121.596 43.6233 121.039C43.2195 120.642 43.4618 122.073 43.3003 122.471L43.5425 122.232C43.2195 123.584 42.5735 121.914 42.0082 122.71C42.0082 122.391 42.089 122.55 42.1697 122.391C41.9274 121.676 41.9274 122.55 41.7659 122.789C41.5237 122.71 41.2006 122.391 41.4429 121.517C41.2006 121.278 41.4429 121.994 41.2814 122.232L41.2006 122.073L40.8776 122.948C40.6354 122.71 40.3931 122.232 40.3123 121.437C39.7471 121.596 40.0701 123.266 39.5855 123.505C39.3433 123.107 39.6663 122.869 39.6663 122.63L39.3433 122.71C39.5048 121.835 39.7471 122.312 39.8278 121.278C39.5048 122.312 39.424 121.596 39.0203 122.232V122.312C38.778 123.028 38.455 122.471 38.2127 122.55C38.3742 122.153 38.6165 122.153 38.778 121.994C38.5357 121.676 37.8897 121.914 37.5667 122.789C37.4052 122.63 37.1629 122.232 37.4052 121.914C36.9206 121.755 37.0821 123.107 36.6784 122.789L36.7591 122.153C36.3553 121.199 35.7093 122.869 35.3055 121.994L35.2248 122.71C35.144 122.391 34.9825 122.232 34.9825 121.914L35.2248 121.676C35.0633 121.039 34.9017 122.232 34.7402 121.755C34.7402 121.994 34.821 122.471 34.821 122.71C35.3863 122.63 35.8708 122.869 36.3553 123.028C36.8399 123.187 37.4052 123.425 37.8897 123.028C37.8897 122.948 37.8089 122.789 37.8897 122.63C37.9704 122.869 38.2127 122.63 38.132 123.107L38.0512 123.187C38.3742 123.028 38.5357 124.061 38.6972 124.061C38.8588 123.505 39.2625 124.38 39.1818 123.346L39.3433 123.982C39.424 123.664 39.424 123.107 39.5048 122.948C39.6663 123.028 39.6663 123.425 39.5048 123.664C40.2316 124.141 41.0391 124.061 41.8467 123.823L41.6044 124.3C41.7659 124.539 42.2505 123.505 42.089 124.698C42.4927 124.221 43.058 125.095 43.1388 123.823C43.381 125.095 44.0271 124.38 44.5116 124.221C44.4308 123.107 44.9154 123.902 45.0769 123.425C45.1576 124.3 44.6731 124.3 44.6731 124.857C45.1576 123.505 46.1267 125.811 46.2882 123.584C46.369 123.664 46.369 123.743 46.369 123.823C46.4497 123.823 46.6112 124.221 46.692 124.3C46.7727 123.902 46.5305 123.743 46.7727 123.584C46.9343 123.664 46.8535 124.3 46.9343 124.539C47.2573 124.061 47.8226 123.823 47.9033 122.948C47.9841 123.187 48.1456 123.664 48.0648 123.823C48.6301 123.107 48.6301 123.902 49.1954 123.425C49.0339 123.505 49.1146 124.38 48.8724 123.982C49.1954 125.175 49.7607 123.664 50.2452 124.3L50.4067 123.505C50.649 123.346 50.7297 124.062 50.5682 124.38C51.0528 124.777 51.295 124.3 51.6181 124.221C51.6181 124.3 51.618 124.459 51.5373 124.459L52.0218 124.38C52.0218 124.221 52.1833 123.823 52.1833 123.346C51.9411 124.141 51.8603 124.38 51.5373 124.141Z" fill="#080809"/>
<path d="M47.1764 120.642C47.2571 120.801 47.2571 120.96 47.3379 120.96C47.2571 120.881 47.2571 120.801 47.1764 120.642Z" fill="#080809"/>
<path d="M56.7055 121.914C56.544 121.04 56.3824 122.073 56.1402 121.914C56.3017 121.755 56.2209 121.278 56.2209 121.04C56.0594 122.153 55.8979 120.801 55.4134 121.119C55.3326 120.721 55.5749 120.642 55.5749 120.244C55.3326 120.562 54.9289 120.721 54.9289 121.358C54.4443 121.358 54.1213 121.119 53.879 121.278C54.2021 120.96 53.879 120.562 54.0405 119.926C53.7983 120.721 53.1522 121.835 52.7485 122.948C52.587 122.073 52.587 121.994 52.587 121.278C52.0217 120.721 52.5062 122.073 51.9409 121.835L52.1832 121.994C51.9409 122.232 52.0217 123.107 51.9409 123.664L52.5062 123.505C52.5062 124.062 52.1832 124.062 52.0217 124.221C51.8602 124.936 52.4254 124.698 52.3447 125.254C52.4254 124.777 52.6677 124.857 52.8292 124.618L52.91 124.936C53.233 125.175 53.3138 124.38 53.556 124.38C53.556 124.459 53.556 124.539 53.556 124.539C53.6368 124.221 53.7175 123.743 53.7983 123.584L53.7175 123.664C53.879 122.948 54.3636 122.391 53.9598 121.676L54.6058 121.835C54.6058 122.551 54.6058 123.743 54.2021 123.902V124.221C54.5251 124.618 54.9289 123.505 54.6866 122.869C54.7674 121.119 55.6557 122.71 55.9787 121.914C56.0594 122.312 55.8172 122.551 55.7364 122.869C55.5749 122.948 55.4941 122.948 55.4941 122.551C54.9289 122.869 55.7364 123.982 55.0904 123.982C54.7674 123.823 55.4134 123.187 54.9289 123.187L54.6866 124.618C55.0096 124.539 55.2519 124.221 55.4134 123.982C56.0594 123.425 56.6247 123.266 56.9477 123.187C57.3515 123.187 57.5938 123.266 57.5938 123.266C59.5319 122.63 61.3893 121.914 63.2466 121.119C63.8119 120.88 64.0542 120.721 64.2157 120.562C64.0542 120.562 63.7312 120.642 63.8119 120.562C63.7312 120.642 63.5697 120.721 63.2466 120.801C63.1659 120.721 63.4889 120.721 63.4081 120.721H63.3274C63.3274 120.642 63.4081 120.642 63.4889 120.642C63.0851 120.562 62.4391 120.562 62.1968 120.88C61.8738 120.721 62.3583 120.642 62.5198 120.562C61.47 120.403 60.7432 120.403 59.7742 120.403C59.8549 120.88 59.6934 120.721 59.6127 121.04L59.5319 120.88C59.6127 120.96 59.4511 121.358 59.6934 121.437C59.0474 121.119 59.0474 122.232 58.7244 122.63V122.312C58.4013 122.471 58.3206 122.471 58.0783 122.71C57.513 122.153 58.5628 122.471 58.3206 121.755L58.1591 121.914C58.2398 121.596 58.2398 121.04 58.4013 120.801C57.9168 121.358 57.6745 120.642 57.1093 121.04C57.1093 120.642 57.5938 120.324 57.7553 120.244C57.5938 120.165 57.2708 120.483 57.19 120.085V120.562C56.867 120.642 57.19 120.085 57.0285 119.767C56.4632 119.926 57.3515 121.517 56.7055 121.914Z" fill="#080809"/>
<path d="M48.7107 122.153C48.7914 122.232 48.8722 122.153 48.953 122.073C48.8722 122.153 48.7914 122.153 48.7107 122.153Z" fill="#080809"/>
<path d="M50.3261 119.688C50.4069 120.006 50.2454 120.006 50.2454 120.403C50.3261 120.244 50.5684 120.244 50.3261 119.688Z" fill="#080809"/>
<path d="M29.5721 120.165L29.2491 120.403C29.2491 120.244 28.9261 120.165 29.0068 119.926C28.8453 119.926 28.8453 120.006 28.6838 120.085C28.603 119.926 28.603 119.847 28.4415 119.926C28.9261 120.244 28.7645 120.244 29.1683 120.483C29.1683 120.562 29.0876 120.483 29.0068 120.483L29.2491 120.721C29.3298 120.403 29.7336 120.483 29.5721 120.165Z" fill="#080809"/>
<path d="M29.895 120.562C29.6527 120.562 29.4104 120.801 29.4912 121.04C29.6527 121.04 29.895 120.96 30.0565 120.96C29.9757 120.881 29.7334 120.801 29.895 120.562Z" fill="#080809"/>
<path d="M30.2987 120.642C30.3795 120.801 30.3795 121.278 30.7025 120.96C30.3795 120.96 30.6217 120.403 30.2987 120.642Z" fill="#080809"/>
<path d="M31.9947 121.358L31.5909 120.96C31.5909 120.403 31.8331 120.801 32.0754 120.562C31.6716 120.403 31.7524 120.642 31.3486 120.88C31.2679 120.801 31.0256 121.039 30.7833 121.119C31.5101 120.96 31.2679 122.312 31.9947 121.358Z" fill="#080809"/>
<path d="M31.1061 120.642L31.0254 120.881L31.2677 120.722L31.1061 120.642Z" fill="#080809"/>
<path d="M33.0444 122.312C33.2059 123.187 33.6904 121.994 34.0135 122.391C33.9327 122.471 34.0135 122.471 33.9327 122.55H34.2557V122.709C34.3365 122.232 34.6595 122.073 34.821 121.676C34.5787 121.119 34.5787 122.312 34.4172 121.676C34.498 121.437 34.5787 121.119 34.6595 120.96C34.4172 121.198 34.3365 121.517 34.2557 121.755C34.0942 121.755 34.175 121.517 34.175 121.278C33.9327 121.517 33.7712 122.232 33.5289 121.994C33.3674 121.517 33.7712 121.357 33.3674 121.437C33.4482 122.232 33.0444 121.278 32.8021 121.676C32.5599 121.437 32.4791 121.039 32.5599 120.801C32.4791 121.357 32.1561 121.755 31.9138 121.835C32.0753 121.755 32.2368 121.596 32.4791 121.517V122.153C32.7214 122.073 32.8829 122.153 33.0444 122.312Z" fill="#080809"/>
<path d="M34.5786 121.039C34.5786 120.96 34.6594 120.96 34.6594 120.88C34.6594 120.88 34.6594 120.88 34.5786 121.039Z" fill="#080809"/>
<path d="M32.3984 120.722L32.5599 120.642L32.4792 120.483L32.3984 120.722Z" fill="#080809"/>
<path d="M34.9018 120.483C34.821 120.483 34.821 120.721 34.821 120.721L34.9826 120.403L34.9018 120.483Z" fill="#080809"/>
<path d="M35.0631 120.96L35.2246 121.437L35.3054 121.119L35.0631 120.96Z" fill="#080809"/>
<path d="M41.2008 121.755C41.0392 121.437 41.0393 122.073 40.9585 122.55C41.2815 122.709 41.0392 121.994 41.2008 121.755Z" fill="#080809"/>
<path d="M45.0768 120.96C44.8346 120.562 44.6731 121.198 44.4308 121.198C44.6731 121.517 44.9153 121.278 45.0768 120.96Z" fill="#080809"/>
<path d="M46.692 118.654C46.6113 118.892 46.6113 118.972 46.692 119.051L46.5305 120.244C46.8535 120.642 46.692 119.21 46.692 118.654Z" fill="#080809"/>
<path d="M48.5492 118.574L48.3069 118.972H48.4684C48.3876 119.449 48.3876 119.688 48.3069 120.006C48.3876 119.847 48.6299 119.369 48.5492 118.574Z" fill="#080809"/>
<path d="M47.9032 120.324L47.984 120.244C47.984 120.085 47.984 119.926 47.9032 120.324Z" fill="#080809"/>
<path d="M48.1455 120.244C48.1455 120.164 48.1455 120.164 48.1455 120.085C48.0648 120.164 48.0648 120.164 47.984 120.244C48.0648 120.324 48.1455 120.403 48.1455 120.244Z" fill="#080809"/>
<path d="M48.7915 119.131L49.276 119.051L49.0338 118.812C49.0338 119.449 48.7915 118.335 48.7915 119.131Z" fill="#080809"/>
<path d="M51.5371 119.767L51.6179 120.403C51.9409 120.562 52.2639 119.211 52.5869 120.165C52.4254 119.767 52.8292 119.449 52.4254 119.29C52.2639 119.847 51.7794 119.926 51.5371 119.767Z" fill="#080809"/>
<path d="M52.8294 120.642C52.7486 120.801 52.9101 120.96 52.9101 121.119C53.0716 121.198 53.1524 120.88 53.0716 120.642C53.0716 121.517 52.9101 120.165 52.8294 120.642Z" fill="#080809"/>
<path d="M54.3636 120.563C54.2829 120.563 54.1213 120.642 54.2829 120.801C54.6059 120.722 54.4444 120.085 54.5251 119.767C54.2828 119.37 54.2021 120.244 54.3636 120.563Z" fill="#080809"/>
<path d="M56.7864 120.642L56.6249 120.562V121.199L56.7864 120.642Z" fill="#080809"/>
<path d="M58.4824 120.323L58.6439 120.005H58.3209L58.4824 120.323Z" fill="#080809"/>
<path d="M58.8051 120.403H59.1281L59.0473 120.244C58.8858 120.165 58.9666 120.403 58.8051 120.403Z" fill="#080809"/>
<path d="M59.6935 120.403C59.6935 120.403 59.6128 120.403 59.6128 120.324L59.3705 120.483L59.6935 120.403Z" fill="#080809"/>
<path d="M64.5388 120.722C64.4581 120.801 64.7004 120.642 64.7811 120.562C64.7811 120.562 64.6196 120.642 64.5388 120.722Z" fill="#080809"/>
</g>
</g>
</svg>
