<svg width="193" height="144" viewBox="0 0 193 144" fill="none" xmlns="http://www.w3.org/2000/svg">
<path d="M16.8289 139.708C16.8289 139.708 9.96467 141.776 28.6999 142.412C47.435 143.049 146.279 143.367 156.454 142.412C166.63 141.458 186.415 142.015 160.169 139.708C133.924 137.402 106.871 138.754 80.3831 137.402C53.8147 135.971 20.7859 137.323 16.8289 139.708Z" fill="#1B1C1E"/>
<path d="M69.8044 108.454C69.8044 108.454 64.7976 110.681 62.3749 109.408C59.9523 108.136 56.1568 108.772 54.0572 109.806C51.9575 110.84 46.5469 106.148 45.4164 106.864C44.2858 107.5 45.4164 110.442 45.4164 110.442C45.4164 110.442 45.0933 110.919 41.5401 108.057C37.9869 105.194 34.1914 105.035 34.7567 107.341C34.7567 107.341 34.1107 107.42 31.2842 104.16C28.4578 100.82 25.7929 102.331 26.3582 103.683C26.3582 103.683 20.7861 98.9109 18.2827 98.9905C15.7793 99.07 14.8909 100.422 14.8909 100.422C14.8909 100.422 10.934 98.1952 8.67281 98.9905C6.41167 99.7857 8.26903 101.615 6.97695 101.694C5.68487 101.774 1.80863 102.012 2.9392 104.16C4.06977 106.307 5.20034 106.307 2.77769 107.341C0.355037 108.375 -1.17931 110.681 1.16259 111.715C3.50449 112.749 2.9392 113.782 2.2124 115.93C1.4856 118.077 1.97014 119.031 4.63505 119.747C7.29997 120.383 7.29998 121.099 6.33091 121.894C5.36185 122.689 5.52336 124.2 7.7845 124.916C10.0456 125.632 7.13846 128.415 10.6109 130.404C14.0834 132.392 17.7174 131.994 16.9098 133.028C16.1023 134.062 16.9098 135.97 19.4132 135.891C21.9166 135.811 23.451 135.811 23.9355 137.243C24.3393 138.674 27.731 139.47 29.5884 138.913C31.365 138.356 30.7997 139.867 33.9492 140.185C37.0986 140.503 39.1175 138.754 40.4903 140.185C41.8632 141.617 46.2239 139.947 47.9198 140.663C49.6156 141.378 50.9885 142.73 54.4609 141.696C58.0142 140.663 58.4987 142.651 61.9712 142.492C65.4436 142.333 67.4625 140.663 69.7237 141.378C72.0656 142.094 72.7923 141.06 74.7305 140.026C76.7493 138.992 81.5946 140.185 84.5826 137.402C87.6513 134.539 82.6445 108.057 69.8044 108.454Z" fill="#F6EBEF"/>
<path d="M31.4459 139.39C30.8806 138.993 30.6384 138.595 29.5885 138.913C27.8119 139.47 24.4202 138.674 23.9357 137.243C23.5319 135.812 21.9168 135.812 19.4134 135.891C16.91 135.971 16.1024 134.062 16.91 133.028C17.7175 131.994 14.0836 132.392 10.6111 130.404C9.07674 129.529 8.75372 128.416 8.75372 127.461C8.75372 127.461 9.72279 126.586 13.0337 123.803C16.2639 121.02 19.2519 122.69 23.5319 122.928C27.8119 123.167 30.3153 122.053 34.2723 125.553C38.3101 129.052 41.4595 137.561 31.4459 139.39Z" fill="#D4DADD"/>
<mask id="mask0_37_3153" style="mask-type:luminance" maskUnits="userSpaceOnUse" x="0" y="98" width="86" height="45">
<path d="M69.8044 108.454C69.8044 108.454 64.7976 110.681 62.3749 109.408C59.9523 108.136 56.1568 108.772 54.0572 109.806C51.9575 110.84 46.5469 106.148 45.4164 106.864C44.2858 107.5 45.4164 110.442 45.4164 110.442C45.4164 110.442 45.0933 110.919 41.5401 108.057C37.9869 105.194 34.1914 105.035 34.7567 107.341C34.7567 107.341 34.1107 107.42 31.2842 104.16C28.4578 100.82 25.7929 102.331 26.3582 103.683C26.3582 103.683 20.7861 98.9109 18.2827 98.9905C15.7793 99.07 14.8909 100.422 14.8909 100.422C14.8909 100.422 10.934 98.1952 8.67281 98.9905C6.41167 99.7857 8.26903 101.615 6.97695 101.694C5.68487 101.774 1.80863 102.012 2.9392 104.16C4.06977 106.307 5.20034 106.307 2.77769 107.341C0.355037 108.375 -1.17931 110.681 1.16259 111.715C3.50449 112.749 2.9392 113.782 2.2124 115.93C1.4856 118.077 1.97014 119.031 4.63505 119.747C7.29997 120.383 7.29998 121.099 6.33091 121.894C5.36185 122.689 5.52336 124.2 7.7845 124.916C10.0456 125.632 7.13846 128.415 10.6109 130.404C14.0834 132.392 17.7174 131.994 16.9098 133.028C16.1023 134.062 16.9098 135.97 19.4132 135.891C21.9166 135.811 23.451 135.811 23.9355 137.243C24.3393 138.674 27.731 139.47 29.5884 138.913C31.365 138.356 30.7997 139.867 33.9492 140.185C37.0986 140.503 39.1175 138.754 40.4903 140.185C41.8632 141.617 46.2239 139.947 47.9198 140.663C49.6156 141.378 50.9885 142.73 54.4609 141.696C58.0142 140.663 58.4987 142.651 61.9712 142.492C65.4436 142.333 67.4625 140.663 69.7237 141.378C72.0656 142.094 72.7923 141.06 74.7305 140.026C76.7493 138.992 81.5946 140.185 84.5826 137.402C87.6513 134.539 82.6445 108.057 69.8044 108.454Z" fill="white"/>
</mask>
<g mask="url(#mask0_37_3153)">
<g opacity="0.61">
<path d="M76.588 129.37C76.5072 129.37 76.4265 129.37 76.3457 129.449C76.3457 129.449 76.4265 129.449 76.588 129.37Z" fill="#353737"/>
<path d="M81.1102 135.732L81.3525 135.573C81.2717 135.573 81.191 135.653 81.1102 135.732Z" fill="#353737"/>
<path d="M73.5192 131.279C73.4385 131.279 73.4385 131.358 73.4385 131.438C73.4385 131.358 73.5192 131.279 73.5192 131.279Z" fill="#353737"/>
<path d="M74.0847 122.451C74.0847 122.371 74.0847 122.371 74.0847 122.371H74.0039C73.9232 122.371 74.0039 122.451 74.0847 122.451Z" fill="#353737"/>
<path d="M73.6808 122.769L73.6001 122.69C73.6809 122.69 73.6808 122.769 73.6808 122.769Z" fill="#353737"/>
<path d="M75.2154 122.849C75.1346 122.849 75.0538 122.849 74.8923 122.849C74.9731 122.849 75.0539 122.928 75.2154 122.849Z" fill="#353737"/>
<path d="M76.7498 129.29C76.669 129.29 76.669 129.37 76.5883 129.37C76.669 129.37 76.669 129.37 76.7498 129.29Z" fill="#353737"/>
<path d="M83.4524 137.641C83.5331 137.641 83.6139 137.72 83.6947 137.72C83.6139 137.482 83.5331 137.482 83.4524 137.641Z" fill="#353737"/>
<path d="M74.5693 124.837C73.6002 125.234 74.4078 124.598 73.5195 124.916C73.7617 124.996 74.004 125.075 73.5195 125.234C72.9542 125.314 73.4387 124.916 72.6311 125.155L73.0349 125.234C72.7119 125.473 71.9851 125.552 72.0659 125.632C73.1964 125.473 71.9044 126.427 72.1466 126.586H71.9851L71.5813 127.143C71.5813 127.143 71.5813 127.143 71.5006 127.143C71.5813 127.143 71.6621 127.143 71.6621 127.063C71.1776 127.382 70.9353 127.779 71.1776 128.018C71.8236 127.859 71.7428 128.813 72.3081 128.654C72.1466 128.575 72.0659 128.495 72.1466 128.336L72.8734 128.018C72.9542 128.256 72.2274 128.336 72.7927 128.336C73.7617 127.859 72.6311 128.018 72.7119 127.779C72.9542 127.779 73.1964 127.779 73.3579 127.779C73.2772 127.461 73.4387 126.984 72.3889 127.143C72.5504 126.984 72.9542 126.825 73.1157 126.904C72.4696 126.904 73.6002 126.507 72.9542 126.507C73.9232 126.189 73.681 126.825 74.2462 126.825C73.681 127.461 74.4885 127.541 74.8115 127.779C74.1655 128.097 73.5195 128.177 73.1964 128.495C72.9542 129.052 73.7617 128.654 74.1655 128.654C74.0847 128.972 73.1157 129.211 73.2772 129.608H72.7119C71.9044 130.324 73.1964 129.608 73.1157 129.926C73.3579 129.767 73.5195 129.608 73.4387 129.449C73.7617 129.29 74.004 129.29 74.0847 129.37V129.29C74.5693 129.131 75.0538 128.893 74.973 129.29C74.327 129.449 74.65 129.688 74.4885 129.847H74.327C74.5693 129.926 74.65 130.165 74.8115 130.165L74.65 130.245C74.973 130.245 75.6191 129.926 75.6191 130.165C75.3768 130.324 74.4885 130.483 74.7308 130.642C74.327 130.881 74.1655 130.642 74.1655 130.404C74.1655 130.642 73.5195 131.119 73.3579 130.96C72.8734 131.358 73.681 131.04 73.5195 131.278C73.681 131.199 73.8425 131.119 74.004 131.04C73.358 131.437 74.2462 131.517 74.65 131.278H74.1655C74.7308 130.96 75.2153 130.96 75.4576 130.722C74.65 131.358 76.2651 131.04 75.6191 131.597L76.0229 131.278C76.1036 131.915 77.2342 131.597 77.7187 131.835C77.3957 131.915 76.5074 132.471 76.5882 132.074C76.7497 132.551 75.7806 132.789 75.4576 133.267C75.3768 133.823 76.4266 132.869 76.7497 132.71L76.4266 132.63C77.638 132.153 76.8304 133.585 77.7995 133.505C77.5572 133.744 77.5572 133.505 77.4764 133.585C77.1534 134.141 77.7187 133.664 78.0417 133.664C78.1225 133.903 78.1225 134.3 77.3957 134.698C77.3957 135.016 77.7187 134.38 78.0417 134.3L77.961 134.46L78.8493 134.062C78.8493 134.38 78.6878 134.937 78.2033 135.493C78.6878 135.811 79.6568 134.46 80.1414 134.539C79.9799 135.016 79.6568 134.937 79.4146 135.096C79.4953 135.175 79.6568 135.255 79.7376 135.255C79.0108 135.811 79.0916 135.255 78.3648 135.971C79.3338 135.493 78.8493 136.05 79.6568 135.891L79.7376 135.811C80.3836 135.414 80.3029 136.05 80.5451 136.13C80.1414 136.368 79.9799 136.209 79.7376 136.209C79.6568 136.607 80.3836 136.845 81.1912 136.368C81.1912 136.607 81.1912 137.084 80.7874 137.163C81.1104 137.641 81.8372 136.368 81.9987 136.845L81.5142 137.322C81.2719 138.356 82.8063 137.322 82.6448 138.277L83.2101 137.641C83.0486 137.959 83.1293 138.197 82.9678 138.515L82.564 138.595C82.3218 139.311 83.2101 138.197 83.0486 138.754C83.2101 138.515 83.3716 137.959 83.6138 137.72C82.4833 137.482 82.564 135.971 81.2719 135.891C81.1912 135.971 81.1912 136.13 81.0297 136.209C81.1104 135.971 80.7874 136.05 81.1104 135.732H81.1912C80.8682 135.732 81.4335 134.778 81.2719 134.698C80.7874 135.016 81.0297 134.141 80.4644 134.937L80.7874 134.38C80.4644 134.619 80.1414 134.937 79.9799 135.016C79.8991 134.857 80.2221 134.539 80.4644 134.46C80.3029 133.744 79.6568 133.187 79.0108 132.869L79.4953 132.71C79.5761 132.471 78.4455 132.789 79.4953 132.153C78.93 132.233 79.1723 131.278 78.2033 131.994C79.0108 131.119 78.1225 131.04 77.7187 130.801C76.9112 131.437 77.2342 130.642 76.7497 130.801C77.3957 130.324 77.638 130.642 78.1225 130.324C77.4765 130.483 77.4765 130.086 77.3957 129.767C77.3149 129.449 77.2342 129.211 76.2651 129.688C76.2651 129.608 76.3459 129.529 76.4266 129.529C76.3459 129.449 76.6689 129.131 76.6689 129.052C76.3459 129.211 76.2651 129.449 76.0229 129.29C76.0229 129.131 76.5881 128.893 76.7497 128.734C76.1844 128.734 75.7806 128.336 74.973 128.654C75.1346 128.495 75.5383 128.177 75.6998 128.177C74.8923 128.018 75.5383 127.7 74.973 127.382C75.0538 127.541 75.7806 127.063 75.6191 127.461C76.5882 126.745 75.1346 126.825 75.4576 126.189L74.65 126.348C74.4078 126.189 75.1346 125.871 75.3768 125.95C75.6998 125.393 75.1346 125.314 75.0538 125.075C75.1346 124.996 75.2961 124.996 75.2961 125.075L75.1346 124.598C74.973 124.598 74.4885 124.598 74.0847 124.757C74.4885 124.519 74.8115 124.519 74.5693 124.837Z" fill="#353737"/>
<path d="M72.9542 130.165C73.1157 130.006 73.1157 129.927 73.1965 129.927C73.035 130.006 72.9542 130.086 72.9542 130.165Z" fill="#353737"/>
<path d="M71.7426 120.304C70.612 120.542 71.9848 120.622 71.6618 120.86C71.4195 120.701 70.7735 120.781 70.4505 120.86C71.9848 120.94 70.2082 121.258 70.612 121.735C70.1275 121.815 70.0467 121.576 69.4814 121.656C69.8852 121.894 70.1275 122.292 71.0158 122.212C71.0965 122.689 70.935 123.087 71.0965 123.326C70.6928 123.087 70.289 123.485 69.4814 123.326C69.966 123.405 70.612 123.564 71.1773 123.723C71.8233 123.882 72.4694 124.041 73.1154 124.121C72.2271 124.439 72.1463 124.519 71.3388 124.678C70.935 125.393 72.2271 124.598 72.0656 125.155L72.1463 124.837C72.4694 124.996 73.2769 124.757 73.923 124.598L73.5999 124.121C74.246 123.962 74.246 124.28 74.4075 124.36C75.215 124.28 74.8113 123.882 75.4573 123.803C74.9728 123.882 75.0535 123.644 74.8113 123.564L75.1343 123.485C75.3766 123.167 74.569 123.246 74.4882 123.008C74.569 122.928 74.6498 122.928 74.7305 122.928C74.3267 122.928 73.8422 123.008 73.6807 122.849L73.7615 122.928C72.9539 122.928 72.3079 122.53 71.5003 123.008L71.5811 122.371C72.4694 122.292 73.8422 122.133 74.0037 122.371L74.4075 122.292C74.8113 121.974 73.5999 121.735 72.8731 122.053C70.6928 122.212 72.6309 121.178 71.6618 120.86C72.2271 120.781 72.4694 120.94 72.8731 121.019C72.9539 121.099 72.9539 121.258 72.4694 121.337C72.8731 121.815 74.246 120.94 74.1652 121.576C73.923 121.894 73.1962 121.417 73.1962 121.815H74.8113C74.7305 121.576 74.4075 121.417 74.1652 121.178C73.5192 120.701 73.4384 120.145 73.4384 119.826C73.5192 119.429 73.6807 119.19 73.6807 119.19C73.3577 117.441 73.1962 115.612 73.2769 113.782C73.1154 113.146 73.1962 112.987 71.6618 112.51C71.3388 112.59 71.4195 112.987 70.8543 112.749C71.4195 112.908 71.7426 113.146 71.6618 113.464C71.0965 113.464 71.4195 113.146 71.258 113.226L71.5003 113.305C71.1773 113.226 71.0158 113.146 71.0158 113.067C70.1275 113.305 70.2082 114.021 71.258 114.419C70.612 114.657 70.3697 114.101 69.966 113.941C69.6429 114.419 69.5622 114.896 69.4814 115.373C69.4007 115.85 69.4007 116.248 69.4007 116.804C70.4505 116.804 70.0467 116.884 70.7735 117.043L70.3697 117.123C70.5313 117.043 71.258 117.202 71.5003 117.043C70.6928 117.679 72.8731 117.759 73.2769 118.077H72.7116C72.7924 118.395 72.8731 118.475 73.1154 118.713C72.1463 119.27 72.9539 118.315 71.6618 118.475L71.9041 118.634C71.4196 118.554 70.5312 118.554 70.1275 118.395C71.0158 118.872 69.8852 119.19 70.5312 119.747C69.966 119.747 69.4007 119.27 69.3199 119.111C69.2392 119.349 69.7237 119.667 69.1584 119.747H69.8852C69.966 120.065 69.1584 119.747 68.7546 119.906C68.9969 120.622 71.1773 119.667 71.7426 120.304Z" fill="#353737"/>
<path d="M73.5195 128.097C73.5195 128.018 73.4388 127.938 73.358 127.859C73.4388 127.938 73.4388 128.018 73.5195 128.097Z" fill="#353737"/>
<path d="M71.5814 127.143C71.5006 127.143 71.4199 127.223 71.3391 127.223C71.4199 127.223 71.5006 127.223 71.5814 127.143Z" fill="#353737"/>
<path d="M70.6121 127.382C70.9351 127.223 70.9351 127.302 71.3389 127.223C71.0966 127.223 70.9351 126.904 70.6121 127.382Z" fill="#353737"/>
<path d="M85.0674 140.504L85.2289 141.14C84.8251 141.935 84.8251 141.219 84.5021 141.458C84.7443 141.856 84.8251 141.538 85.3904 141.219C85.4711 141.299 85.8749 141.06 86.1172 140.901C85.2289 141.219 86.4402 139.39 85.0674 140.504Z" fill="#353737"/>
<path d="M85.4711 141.776L85.7133 141.537L85.3096 141.617L85.4711 141.776Z" fill="#353737"/>
<path d="M84.6635 138.993C85.0673 137.959 83.8559 139.152 83.8559 138.595C83.9367 138.595 83.9367 138.515 84.0982 138.436L83.7752 138.356L83.9367 138.197C83.5329 138.674 83.1291 138.754 82.7254 138.993C82.5638 139.708 83.2906 138.436 83.1291 139.231C82.8869 139.39 82.5639 139.708 82.4023 139.867C82.7254 139.708 83.0484 139.47 83.2907 139.231C83.5329 139.311 83.2099 139.549 83.1291 139.708C83.5329 139.549 84.0982 138.833 84.2597 139.152C84.0982 139.708 83.6137 139.788 84.0982 139.788C84.502 138.833 84.3405 140.106 84.825 139.708C84.9058 140.026 84.7442 140.663 84.502 140.901C84.9058 140.265 85.5518 139.867 85.7941 139.788L85.0673 140.106L85.471 139.231C84.825 139.39 84.7442 139.231 84.6635 138.993Z" fill="#353737"/>
<path d="M82.3218 139.788C82.241 139.788 82.241 139.867 82.1603 139.867C82.1603 139.867 82.241 139.867 82.3218 139.788Z" fill="#353737"/>
<path d="M84.2597 141.14L84.0174 141.219L83.9366 141.538L84.2597 141.14Z" fill="#353737"/>
<path d="M81.7564 140.185C81.7564 140.265 81.9987 140.026 81.9987 139.947L81.6757 140.185H81.7564Z" fill="#353737"/>
<path d="M81.918 139.549L82.0795 138.993L81.7565 139.311L81.918 139.549Z" fill="#353737"/>
<path d="M77.4763 134.777C77.3956 135.175 77.7994 134.698 78.2031 134.459C78.1224 134.062 77.7994 134.777 77.4763 134.777Z" fill="#353737"/>
<path d="M74.3269 131.994C74.0847 132.392 74.7307 132.233 74.8922 132.471C75.0537 132.074 74.7307 131.994 74.3269 131.994Z" fill="#353737"/>
<path d="M71.5005 131.517C71.7428 131.437 71.8235 131.517 71.8235 131.358L72.9541 131.04C73.1156 130.483 71.9043 131.278 71.5005 131.517Z" fill="#353737"/>
<path d="M70.37 129.688L70.9353 129.847L70.8545 129.688C71.2583 129.608 71.5006 129.529 71.9043 129.449C71.5813 129.29 71.0968 129.29 70.37 129.688Z" fill="#353737"/>
<path d="M72.2272 129.608L72.1465 129.529C71.9849 129.608 71.9042 129.688 72.2272 129.608Z" fill="#353737"/>
<path d="M72.0657 129.37C71.9849 129.37 71.9849 129.37 71.9042 129.37C71.9849 129.37 72.0657 129.449 72.1464 129.449C72.2272 129.449 72.2272 129.37 72.0657 129.37Z" fill="#353737"/>
<path d="M70.7738 129.211L70.4507 128.733L70.37 129.052C70.9353 128.733 70.047 129.449 70.7738 129.211Z" fill="#353737"/>
<path d="M70.1276 126.109L70.7736 125.871C70.7736 125.473 69.2393 125.473 70.2891 124.916C69.966 125.155 69.4815 124.837 69.4008 125.314C69.966 125.314 70.2083 125.791 70.1276 126.109Z" fill="#353737"/>
<path d="M70.6931 124.519C70.9354 124.519 71.0162 124.439 71.1777 124.28C71.2584 124.121 70.8546 124.121 70.6124 124.2C71.5007 124.121 70.1278 124.519 70.6931 124.519Z" fill="#353737"/>
<path d="M70.2083 122.848C70.2083 122.928 70.3698 123.087 70.4506 122.928C70.3698 122.61 69.6431 122.848 69.1585 122.769C68.8355 123.167 69.8853 123.167 70.2083 122.848Z" fill="#353737"/>
<path d="M74.8115 119.826C74.2462 119.906 74.3269 120.145 74.5692 120.145C74.4077 120.145 74.5692 119.985 74.8115 119.826Z" fill="#353737"/>
<path d="M69.9661 120.383L69.8854 120.463H70.7737L69.9661 120.383Z" fill="#353737"/>
<path d="M69.3202 118.475L68.7549 118.316L68.8356 118.634L69.3202 118.475Z" fill="#353737"/>
<path d="M69.4815 118.156L69.4007 117.838L69.1584 117.918C68.9969 118.077 69.4815 117.997 69.4815 118.156Z" fill="#353737"/>
<path d="M69.3201 117.202C69.4008 117.282 69.3201 117.282 69.1586 117.282L69.5623 117.6L69.3201 117.202Z" fill="#353737"/>
<path d="M73.3577 112.749C73.923 112.908 73.6 112.59 73.7615 112.51C73.6 112.51 72.8732 112.51 73.3577 112.749Z" fill="#353737"/>
</g>
</g>
<path d="M151.932 136.607C151.932 136.607 154.355 135.812 156.374 131.04C158.393 126.268 159.442 125.473 160.331 121.815C161.219 118.157 162.673 114.658 163.238 109.568C163.803 104.478 166.387 97.5593 166.71 95.253C167.033 92.9467 142.888 81.8925 136.831 91.7538C130.855 101.615 146.602 130.801 151.932 136.607Z" fill="#F6EBEF"/>
<path d="M162.996 111.635C162.35 115.612 161.219 118.634 160.331 121.815C159.604 124.678 158.796 125.711 157.585 128.256C157.585 128.256 153.79 125.473 154.92 121.656C156.051 117.918 155.001 120.224 156.212 115.691C157.424 111.397 162.753 111.635 162.996 111.635Z" fill="#B3B9BC"/>
<mask id="mask1_37_3153" style="mask-type:luminance" maskUnits="userSpaceOnUse" x="135" y="87" width="32" height="50">
<path d="M151.932 136.607C151.932 136.607 154.355 135.812 156.374 131.04C158.393 126.268 159.442 125.473 160.331 121.815C161.219 118.157 162.673 114.658 163.238 109.568C163.803 104.478 166.387 97.5593 166.71 95.253C167.033 92.9467 142.888 81.8925 136.831 91.7538C130.855 101.615 146.602 130.801 151.932 136.607Z" fill="white"/>
</mask>
<g mask="url(#mask1_37_3153)">
<g opacity="0.61">
<path d="M150.963 109.409C150.963 109.488 150.963 109.568 151.044 109.647C151.044 109.647 151.044 109.568 150.963 109.409Z" fill="#353737"/>
<path d="M157.262 105.432L157.101 105.194C157.101 105.273 157.181 105.353 157.262 105.432Z" fill="#353737"/>
<path d="M144.745 111.715C144.745 111.636 144.745 111.635 144.745 111.635C144.664 111.635 144.664 111.715 144.745 111.715Z" fill="#353737"/>
<path d="M144.422 112.431C144.341 112.431 144.341 112.431 144.341 112.51V112.59C144.422 112.59 144.422 112.431 144.422 112.431Z" fill="#353737"/>
<path d="M144.826 112.669L144.745 112.749C144.745 112.749 144.745 112.749 144.826 112.669Z" fill="#353737"/>
<path d="M142.888 117.282L142.968 117.6C142.968 117.441 142.968 117.362 142.888 117.282Z" fill="#353737"/>
<path d="M144.664 111.317C144.664 111.397 144.664 111.476 144.664 111.635C144.664 111.556 144.745 111.476 144.664 111.317Z" fill="#353737"/>
<path d="M150.883 109.25C150.883 109.329 150.963 109.329 150.963 109.409C150.963 109.329 150.963 109.25 150.883 109.25Z" fill="#353737"/>
<path d="M150.963 111.715C151.044 111.635 151.044 111.635 150.963 111.715Z" fill="#353737"/>
<path d="M159.201 103.444C159.201 103.365 159.281 103.285 159.281 103.206C159.12 103.285 159.12 103.365 159.201 103.444Z" fill="#353737"/>
<path d="M146.683 111.556C147.168 112.351 146.441 111.715 146.845 112.51C146.925 112.272 146.925 112.113 147.168 112.51C147.248 112.987 146.845 112.59 147.168 113.305L147.248 112.987C147.571 113.305 147.652 113.862 147.733 113.783C147.41 112.749 148.46 113.862 148.621 113.624V113.783L149.106 114.101C149.106 114.101 149.106 114.101 149.106 114.18C149.106 114.101 149.025 114.101 149.025 114.021C149.348 114.419 149.752 114.657 149.913 114.419C149.752 113.862 150.559 113.862 150.398 113.385C150.398 113.544 150.317 113.624 150.075 113.544L149.752 112.908C149.994 112.828 150.075 113.465 150.075 112.987C149.59 112.192 149.752 113.146 149.59 113.146C149.509 112.908 149.509 112.749 149.59 112.59C149.267 112.749 148.863 112.59 149.106 113.544C148.944 113.385 148.783 112.987 148.783 112.908C148.863 113.544 148.379 112.51 148.379 113.067C148.056 112.272 148.621 112.431 148.54 111.874C149.186 112.351 149.186 111.556 149.429 111.317C149.752 111.874 149.832 112.51 150.156 112.749C150.64 112.987 150.317 112.272 150.236 111.874C150.559 111.954 150.802 112.828 151.205 112.669V113.146C151.851 113.862 151.205 112.749 151.448 112.828C151.286 112.669 151.125 112.431 150.963 112.59C150.802 112.272 150.802 112.113 150.882 112.033H150.802C150.64 111.635 150.398 111.158 150.721 111.238C150.882 111.794 151.125 111.476 151.286 111.715V111.874C151.367 111.635 151.528 111.556 151.609 111.476L151.69 111.635C151.69 111.397 151.367 110.761 151.609 110.761C151.771 110.999 151.932 111.794 152.094 111.556C152.255 111.954 152.094 112.113 151.851 112.033C152.094 112.033 152.578 112.59 152.336 112.749C152.659 113.146 152.417 112.431 152.659 112.59C152.578 112.431 152.497 112.272 152.417 112.192C152.82 112.828 152.901 111.954 152.578 111.556V112.033C152.255 111.556 152.336 111.079 152.013 110.84C152.578 111.556 152.255 110.124 152.82 110.681L152.497 110.363C153.063 110.283 152.82 109.25 153.063 108.772C153.063 109.091 153.628 109.886 153.224 109.806C153.709 109.727 153.87 110.522 154.274 110.84C154.759 110.92 153.87 109.965 153.789 109.647L153.709 109.965C153.305 108.852 154.597 109.647 154.597 108.772C154.839 109.011 154.597 109.011 154.597 109.091C155.162 109.409 154.678 108.852 154.678 108.613C154.92 108.534 155.324 108.613 155.647 109.25C155.97 109.25 155.324 108.932 155.324 108.693L155.485 108.772L155.162 107.977C155.485 108.057 155.97 108.136 156.454 108.613C156.777 108.216 155.566 107.261 155.647 106.784C156.051 106.943 155.97 107.261 156.131 107.421L156.374 107.182C156.777 107.898 156.374 107.739 156.939 108.454C156.535 107.58 157.02 107.977 156.939 107.261L156.858 107.182C156.535 106.625 157.181 106.705 157.262 106.466C157.423 106.784 157.262 107.023 157.262 107.182C157.666 107.261 157.908 106.625 157.504 105.83C157.666 105.83 158.15 105.909 158.231 106.307C158.716 106.069 157.585 105.273 158.07 105.194L158.473 105.671C159.442 105.989 158.554 104.478 159.442 104.717L158.877 104.16C159.2 104.319 159.442 104.319 159.685 104.478V104.796C160.25 105.114 159.362 104.239 159.927 104.398C159.765 104.239 159.281 104.001 159.039 103.842C158.877 104.319 158.393 104.558 157.989 104.796C157.585 105.035 157.181 105.273 157.1 105.83C157.181 105.909 157.262 105.909 157.343 106.069C157.1 105.989 157.1 106.307 156.858 105.909V105.83C156.777 106.148 155.97 105.591 155.889 105.671C156.131 106.148 155.324 105.83 156.051 106.466L155.566 106.148C155.728 106.466 156.051 106.784 156.051 106.943C155.889 107.023 155.647 106.705 155.566 106.466C154.839 106.625 154.355 107.102 153.951 107.739L153.789 107.261C153.547 107.182 153.79 108.216 153.224 107.261C153.224 107.818 152.336 107.5 152.982 108.454C152.174 107.659 152.094 108.534 151.771 108.852C152.417 109.568 151.609 109.25 151.771 109.727C151.286 109.17 151.69 108.852 151.367 108.454C151.609 109.647 149.913 108.454 150.721 110.124C150.64 110.124 150.559 110.045 150.559 109.965C150.479 110.045 150.236 109.806 150.075 109.727C150.236 110.045 150.479 110.045 150.317 110.283C150.156 110.283 149.913 109.806 149.752 109.647C149.752 110.204 149.348 110.602 149.671 111.238C149.509 111.079 149.186 110.761 149.186 110.602C149.025 111.397 148.702 110.761 148.46 111.317C148.621 111.238 148.137 110.602 148.54 110.761C147.814 109.886 147.975 111.317 147.329 110.999L147.491 111.715C147.329 111.954 147.006 111.317 147.006 111.079C146.441 110.92 146.441 111.397 146.118 111.476C146.037 111.397 146.037 111.317 146.118 111.317L145.714 111.476C145.714 111.635 145.714 112.033 145.956 112.431C146.36 111.715 146.36 111.397 146.683 111.556Z" fill="#353737"/>
<path d="M151.771 112.669C151.609 112.51 151.529 112.51 151.529 112.51C151.609 112.59 151.69 112.669 151.771 112.669Z" fill="#353737"/>
<path d="M142.807 114.976C143.292 115.93 143.049 114.737 143.292 114.896C143.13 115.135 143.453 115.691 143.615 115.93C143.292 114.578 144.018 116.089 144.341 115.612C144.503 116.009 144.341 116.169 144.503 116.646C144.584 116.248 144.907 115.93 144.664 115.214C145.068 115.055 145.472 115.135 145.633 114.976C145.472 115.373 145.876 115.691 145.957 116.407C145.876 115.453 146.118 114.18 146.118 113.067C146.522 113.783 146.603 113.862 146.845 114.578C147.572 114.896 146.683 113.783 147.168 113.862H146.926C147.006 113.544 146.683 112.828 146.522 112.272L146.037 112.59C145.795 112.033 146.118 112.033 146.199 111.795C146.037 111.079 145.714 111.476 145.553 110.999C145.714 111.476 145.391 111.397 145.391 111.635L145.23 111.397C144.826 111.238 145.068 111.954 144.826 112.033C144.745 111.954 144.745 111.874 144.745 111.874C144.826 112.192 144.907 112.669 144.826 112.828L144.907 112.749C144.987 113.465 144.745 114.101 145.391 114.737H144.745C144.503 113.942 144.099 112.828 144.341 112.59L144.261 112.272C143.857 111.954 143.857 113.146 144.261 113.703C144.826 115.612 143.453 114.101 143.372 114.976C143.13 114.498 143.292 114.18 143.211 113.862C143.292 113.783 143.372 113.703 143.534 114.101C143.938 113.624 142.807 112.59 143.453 112.51C143.857 112.669 143.453 113.465 143.857 113.306L143.534 111.874C143.292 112.033 143.211 112.351 143.049 112.59C142.323 113.942 141.111 113.465 141.111 113.465C140.304 113.862 139.415 114.26 138.446 114.896C137.962 115.214 137.396 115.612 136.831 116.248C136.67 116.487 136.508 116.646 136.427 116.884C136.266 117.123 136.185 117.361 136.104 117.68C135.943 118.236 135.943 118.872 136.024 119.27C136.104 119.429 136.104 119.509 136.185 119.668C136.266 119.747 136.266 119.827 136.347 119.906C136.427 120.065 136.589 120.145 136.67 120.224C136.912 120.383 137.316 120.304 138.043 120.065C138.204 119.827 137.962 119.588 138.446 119.429C137.962 119.588 137.558 119.509 137.477 119.111C137.962 118.952 137.8 119.35 137.881 119.27V119.191C138.123 119.111 138.366 119.111 138.366 119.191C138.689 118.872 138.85 118.793 138.769 118.713C138.769 118.634 138.689 118.634 138.527 118.554C138.366 118.475 138.204 118.316 138.043 118.157C138.366 118.157 138.527 118.316 138.689 118.395C138.85 118.554 139.012 118.634 139.254 118.634C139.496 118.634 139.496 118.713 139.738 118.554C139.819 118.475 139.981 118.395 140.061 118.316C140.223 118.236 140.384 118.157 140.546 118.077C140.142 117.202 140.384 117.52 140.223 116.884L140.465 117.123C140.384 116.964 140.223 116.328 139.9 116.248C140.707 116.646 139.981 114.817 140.223 114.339L140.384 114.817C140.627 114.578 140.707 114.578 140.869 114.26C141.676 114.896 140.465 114.578 141.111 115.612L141.192 115.373C141.273 115.85 141.515 116.646 141.515 116.964C141.676 116.089 142.242 116.964 142.565 116.248C142.726 116.805 142.403 117.361 142.323 117.441C142.484 117.441 142.646 116.964 142.888 117.441L142.646 116.805C142.888 116.646 142.807 117.361 143.13 117.759C143.776 117.282 142.403 115.532 142.807 114.976Z" fill="#353737"/>
<path d="M149.833 112.192C149.752 112.192 149.671 112.272 149.671 112.351C149.752 112.351 149.833 112.272 149.833 112.192Z" fill="#353737"/>
<path d="M149.106 114.021C149.106 114.101 149.187 114.18 149.187 114.26C149.187 114.18 149.187 114.101 149.106 114.021Z" fill="#353737"/>
<path d="M149.429 114.976C149.267 114.737 149.348 114.657 149.187 114.339C149.187 114.498 149.025 114.578 149.429 114.976Z" fill="#353737"/>
<path d="M166.872 98.6726L166.468 98.7521L167.114 99.4679C167.276 99.1498 166.711 98.9112 166.872 98.6726Z" fill="#353737"/>
<path d="M165.984 98.9906L165.822 98.8315C165.903 98.9111 165.903 98.9906 165.984 98.9906Z" fill="#353737"/>
<path d="M166.307 99.2293L166.791 99.7065L166.63 99.1498H166.468C166.307 98.9907 166.145 99.0702 166.064 98.9907L166.387 99.3884C166.226 99.3088 166.226 99.2293 166.307 99.2293Z" fill="#353737"/>
<path d="M166.145 99.4678C166.226 99.4678 166.226 99.5473 166.307 99.5473C166.226 99.5473 166.145 99.5473 166.145 99.4678Z" fill="#353737"/>
<path d="M164.692 99.3086C164.934 99.3881 165.095 99.7062 165.338 99.9448C165.741 99.8653 164.934 99.3086 165.338 99.2291C165.499 99.8653 165.741 99.3881 166.145 99.4677C165.58 99.1496 165.176 98.9905 164.853 99.1496L165.176 99.3881C165.095 99.5472 164.934 99.3086 164.692 99.3086Z" fill="#353737"/>
<path d="M164.53 101.058L164.207 100.502C164.449 100.661 164.692 100.422 165.176 100.82C165.176 100.661 165.015 100.502 164.934 100.263C165.257 100.422 165.499 100.502 165.176 100.104C164.449 100.263 164.449 100.024 164.046 100.263C163.965 100.184 163.965 100.104 164.046 100.104H163.561C164.207 100.661 164.046 100.979 164.53 101.058Z" fill="#353737"/>
<path d="M163.884 101.138C164.046 100.899 163.642 100.422 163.238 100.263L163.319 100.979C163.4 100.899 163.48 100.661 163.884 101.138Z" fill="#353737"/>
<path d="M163.642 101.376C163.319 101.217 162.673 100.899 163.077 101.456C163.238 101.217 163.884 101.933 163.642 101.376Z" fill="#353737"/>
<path d="M162.107 102.331L162.753 102.251C163.4 102.728 162.834 102.569 162.996 102.967C163.399 102.808 163.076 102.728 162.915 102.092C162.996 102.013 162.834 101.615 162.753 101.376C162.753 102.251 161.219 100.979 162.107 102.331Z" fill="#353737"/>
<path d="M163.319 102.172L163.076 101.933L163.157 102.251L163.319 102.172Z" fill="#353737"/>
<path d="M160.654 102.569C159.766 102.092 160.654 103.365 160.17 103.285C160.17 103.206 160.089 103.206 160.008 103.047L159.927 103.285L159.766 103.126C160.17 103.524 160.17 103.842 160.412 104.239C161.058 104.478 160.008 103.603 160.654 103.921C160.816 104.16 161.058 104.478 161.139 104.637C161.058 104.319 160.816 104.08 160.654 103.762C160.735 103.603 160.977 103.842 161.139 104.001C161.058 103.603 160.412 103.047 160.735 102.967C161.219 103.206 161.219 103.603 161.3 103.206C160.493 102.728 161.623 103.047 161.3 102.569C161.623 102.49 162.188 102.728 162.35 103.047C161.785 102.569 161.462 102.013 161.462 101.695L161.623 102.41L160.896 101.933C161.058 102.41 160.896 102.49 160.654 102.569Z" fill="#353737"/>
<path d="M161.138 104.717C161.138 104.796 161.138 104.796 161.219 104.876C161.219 104.876 161.219 104.796 161.138 104.717Z" fill="#353737"/>
<path d="M162.592 103.206L162.673 103.365L162.915 103.444L162.592 103.206Z" fill="#353737"/>
<path d="M161.381 105.273C161.461 105.273 161.219 105.035 161.219 105.035L161.461 105.353L161.381 105.273Z" fill="#353737"/>
<path d="M160.815 105.114L160.412 104.876L160.573 105.194L160.815 105.114Z" fill="#353737"/>
<path d="M156.051 108.693C156.374 108.772 155.97 108.375 155.809 108.057C155.486 108.057 156.051 108.375 156.051 108.693Z" fill="#353737"/>
<path d="M153.386 111.397C153.79 111.556 153.628 110.999 153.79 110.92C153.547 110.761 153.386 111.079 153.386 111.397Z" fill="#353737"/>
<path d="M153.063 113.942C152.982 113.783 153.063 113.624 152.901 113.624L152.578 112.669C152.094 112.51 152.821 113.544 153.063 113.942Z" fill="#353737"/>
<path d="M151.529 114.976L151.609 114.498L151.448 114.578C151.286 114.18 151.286 114.021 151.206 113.624C151.044 113.942 151.125 114.419 151.529 114.976Z" fill="#353737"/>
<path d="M151.286 113.306L151.206 113.385C151.367 113.544 151.448 113.624 151.286 113.306Z" fill="#353737"/>
<path d="M151.125 113.544C151.125 113.624 151.125 113.624 151.125 113.703C151.125 113.624 151.206 113.544 151.206 113.544C151.206 113.385 151.125 113.306 151.125 113.544Z" fill="#353737"/>
<path d="M151.044 114.657L150.64 114.976L150.882 115.055C150.64 114.498 151.286 115.294 151.044 114.657Z" fill="#353737"/>
<path d="M148.298 115.453L147.975 114.896C147.652 114.896 147.814 116.327 147.249 115.453C147.572 115.771 147.329 116.168 147.733 116.168C147.652 115.691 148.056 115.373 148.298 115.453Z" fill="#353737"/>
<path d="M146.845 115.134C146.845 114.975 146.683 114.896 146.602 114.737C146.441 114.737 146.441 115.055 146.602 115.214C146.36 114.419 146.925 115.612 146.845 115.134Z" fill="#353737"/>
<path d="M145.472 115.771C145.553 115.691 145.634 115.612 145.472 115.532C145.23 115.691 145.553 116.327 145.634 116.725C145.957 116.964 145.795 116.009 145.472 115.771Z" fill="#353737"/>
<path d="M141.676 112.351C141.919 112.828 142.08 112.669 142.08 112.51C142.08 112.669 141.838 112.51 141.676 112.351Z" fill="#353737"/>
<path d="M143.292 116.486L143.453 116.566L143.211 115.771L143.292 116.486Z" fill="#353737"/>
<path d="M141.919 117.52V118.077L142.161 117.838L141.919 117.52Z" fill="#353737"/>
<path d="M141.596 117.52L141.353 117.679L141.515 117.838C141.676 117.838 141.515 117.52 141.596 117.52Z" fill="#353737"/>
<path d="M140.95 117.918C140.95 117.838 141.03 117.918 141.03 117.997C141.03 117.838 141.111 117.759 141.111 117.6C141.03 117.679 140.95 117.759 140.95 117.918Z" fill="#353737"/>
<path d="M136.993 120.622C136.508 120.781 136.912 120.94 136.912 121.099C136.993 121.02 137.477 120.463 136.993 120.622Z" fill="#353737"/>
</g>
</g>
<path d="M126.898 21.3724C126.898 21.3724 122.457 21.3724 118.5 19.2251C114.543 17.0779 107.275 17.237 105.579 18.3503C103.964 19.4637 105.579 20.5771 105.579 20.5771C105.579 20.5771 97.0996 19.9409 94.9192 21.9291C92.7389 23.9172 94.0309 24.9511 94.0309 24.9511C94.0309 24.9511 85.0671 26.303 84.6633 28.3707C84.2596 30.4384 87.0052 29.325 82.6445 31.7108C78.2837 34.0967 70.1274 40.4588 71.581 42.0493C73.0346 43.6399 72.5501 44.7533 68.5123 48.0139C64.5553 51.2745 65.7667 53.2626 67.0587 53.5012C67.0587 53.5012 62.4557 56.6823 62.3749 60.1815C62.2942 63.6807 63.8285 63.0444 62.3749 65.5893C60.9213 68.1342 57.4489 72.9058 58.5795 75.7687C59.71 78.5522 62.3749 77.9955 60.5983 80.7789C58.8217 83.5624 57.4489 87.4592 59.387 89.4474C61.3251 91.5151 62.2134 91.9127 61.4866 93.9804C60.6791 96.0481 60.3561 98.9111 62.5364 101.138C64.7168 103.365 62.8595 108.375 65.6859 110.522C68.4316 112.669 68.3508 112.113 68.5931 115.373C68.8353 118.634 71.4195 117.998 72.7924 121.576C74.1652 125.155 75.6188 131.915 77.4761 131.756C79.2527 131.597 82.7252 139.231 84.6633 140.822C86.6015 142.333 151.125 140.822 152.013 140.822C152.901 140.822 153.547 136.13 152.013 133.028C150.479 129.927 150.317 126.666 148.218 123.962C146.118 121.258 147.168 114.976 146.279 112.987C145.795 111.794 145.876 111.238 145.876 111.238C145.876 111.238 149.267 110.92 151.609 108.772C153.951 106.625 159.443 104.717 161.865 102.331C164.288 99.9449 167.599 99.8654 168.649 97.4001C169.779 94.9347 169.941 93.2647 171.717 93.3442C173.494 93.4237 175.271 93.4237 176.643 88.334C178.016 83.2443 178.824 86.3458 179.47 81.4152C180.116 76.4845 183.023 76.6435 182.7 72.2696C182.377 67.8956 180.923 65.0326 181.731 65.1917C182.539 65.3507 183.669 63.0444 181.731 58.5114C179.793 54.0579 179.389 54.1374 178.985 50.9564C178.582 47.7753 175.028 25.5078 158.958 25.4282C143.049 24.9511 126.898 21.3724 126.898 21.3724Z" fill="#F6EBEF"/>
<mask id="mask2_37_3153" style="mask-type:luminance" maskUnits="userSpaceOnUse" x="145" y="32" width="38" height="55">
<path d="M182.861 71.8718C182.538 67.4978 181.085 64.6348 181.892 64.7939C182.7 64.9529 183.831 62.6467 181.892 58.1136C179.954 53.6601 179.551 53.7397 179.147 50.5586C178.904 48.5704 177.451 39.1862 172.444 32.3469C165.58 32.3469 158.958 33.9375 153.144 37.6752C141.03 45.6279 143.453 63.9191 153.951 75.0529C160.735 81.3355 168.729 84.6756 177.128 86.4252C178.258 83.4032 178.985 85.3118 179.551 80.9379C180.277 76.0867 183.185 76.2458 182.861 71.8718Z" fill="white"/>
</mask>
<g mask="url(#mask2_37_3153)">
<g opacity="0.61">
<path d="M176.4 59.6246C176.4 59.545 176.4 59.4655 176.4 59.386C176.32 59.386 176.32 59.4655 176.4 59.6246Z" fill="#353737"/>
<path d="M168.89 61.0562C168.81 61.1357 168.81 61.1357 168.89 61.0562Z" fill="#353737"/>
<path d="M176.239 57.5571C176.239 57.4775 176.32 57.3185 176.32 57.1594L176.239 57.5571Z" fill="#353737"/>
<path d="M175.108 56.7619C175.108 56.6824 175.027 56.6824 175.027 56.6824C175.108 56.6824 175.108 56.7619 175.108 56.7619Z" fill="#353737"/>
<path d="M182.78 56.2846L182.861 56.2051C182.861 56.2051 182.78 56.2051 182.78 56.2846Z" fill="#353737"/>
<path d="M183.103 57.5572C183.103 57.4776 183.103 57.3981 183.022 57.3186C183.022 57.3981 182.942 57.4776 183.103 57.5572Z" fill="#353737"/>
<path d="M166.064 61.6128C165.983 61.6128 165.902 61.6923 165.822 61.7718C165.983 61.7718 166.064 61.7718 166.064 61.6128Z" fill="#353737"/>
<path d="M180.923 57.6366C180.438 56.9209 181.165 57.4776 180.681 56.7618C180.681 57.0004 180.6 57.1595 180.358 56.7618C180.196 56.2847 180.6 56.6823 180.358 56.0461L180.277 56.3642C179.954 56.1256 179.873 55.4894 179.792 55.6485C180.115 56.6028 179.065 55.5689 178.985 55.8075V55.728L178.5 55.4894C178.5 55.4894 178.5 55.4894 178.5 55.4099C178.5 55.4894 178.581 55.4894 178.581 55.5689C178.258 55.1713 177.935 55.0122 177.773 55.1713C177.935 55.728 177.208 55.6485 177.289 56.1256C177.289 55.9666 177.37 55.887 177.612 55.9666L177.854 56.6028C177.612 56.6823 177.531 56.0461 177.531 56.5233C177.935 57.3185 177.854 56.3642 178.016 56.4437C178.096 56.6823 178.096 56.8414 178.016 57.0004C178.339 56.9209 178.742 57.0004 178.5 56.1256C178.662 56.2847 178.823 56.6028 178.823 56.7618C178.742 56.2052 179.227 57.1595 179.146 56.6028C179.469 57.3981 178.904 57.239 178.985 57.7957C178.419 57.3185 178.339 58.0343 178.096 58.3524C177.854 57.7957 177.773 57.239 177.531 56.9209C177.047 56.6823 177.37 57.3185 177.37 57.7957C177.047 57.7162 176.885 56.8414 176.562 56.9209V56.4437C175.997 55.728 176.562 56.8414 176.32 56.7618C176.481 56.9209 176.562 57.1595 176.724 57.08C176.885 57.3981 176.804 57.5571 176.724 57.6366H176.804C176.885 58.0343 177.047 58.5114 176.724 58.4319C176.643 57.8752 176.401 58.1138 176.239 57.9547V57.7957C176.158 58.0343 175.916 58.0343 175.916 58.1933L175.835 58.0343C175.835 58.2729 175.997 58.9091 175.754 58.8295C175.674 58.591 175.593 57.7957 175.431 58.0343C175.351 57.6366 175.512 57.5571 175.754 57.5571C175.512 57.4776 175.189 56.9209 175.351 56.8414C175.108 56.3642 175.27 57.1595 175.028 56.9209C175.108 57.08 175.108 57.239 175.189 57.3981C174.947 56.7618 174.785 57.4776 174.947 57.9547L175.028 57.5571C175.27 58.0343 175.108 58.5114 175.27 58.75C174.866 57.9547 174.866 59.3067 174.462 58.6705L174.705 59.0681C174.139 58.9886 174.139 60.0224 173.736 60.4201C173.816 60.102 173.493 59.2272 173.897 59.3862C173.413 59.3862 173.493 58.5114 173.17 58.1138C172.767 57.8752 173.251 58.9886 173.251 59.3067L173.413 59.0681C173.413 60.1815 172.524 59.1477 172.201 59.8634C172.121 59.6248 172.282 59.7043 172.282 59.5453C171.878 59.0681 172.121 59.7043 172.04 59.9429C171.797 59.9429 171.474 59.7043 171.394 59.0681C171.151 58.9886 171.555 59.4658 171.474 59.7043L171.394 59.5453L171.313 60.3405C171.071 60.1815 170.667 59.8634 170.425 59.3067C169.94 59.5453 170.586 60.8972 170.344 61.2153C170.021 60.8972 170.263 60.7382 170.263 60.4201C170.182 60.4996 170.021 60.4996 169.94 60.5791C169.859 59.7839 170.263 60.102 170.021 59.3067C169.94 60.261 169.698 59.6248 169.536 60.261V60.3405C169.536 60.9768 169.052 60.5791 168.89 60.7382C168.89 60.3405 169.133 60.261 169.213 60.102C168.89 59.8634 168.406 60.261 168.325 61.0563C168.164 60.9768 167.84 60.6587 168.002 60.3405C167.517 60.261 168.002 61.5335 167.517 61.2949L167.437 60.6587C166.871 59.8634 166.629 61.5335 166.145 60.8177L166.225 61.5335C166.064 61.2153 165.902 61.1358 165.822 60.8177L165.983 60.5791C165.741 60.0224 165.822 61.2153 165.579 60.8177C165.579 61.0563 165.822 61.5335 165.822 61.772C166.71 61.2153 167.76 62.2492 168.648 61.2949C168.567 61.2154 168.567 61.1358 168.567 60.9768C168.729 61.1358 168.89 60.8972 168.89 61.2949V61.3744C169.133 61.1358 169.536 62.0106 169.617 62.0106C169.617 61.5335 170.182 62.0901 169.859 61.2949L170.102 61.772C170.102 61.4539 169.94 61.0563 170.021 60.8972C170.182 60.8972 170.263 61.2949 170.182 61.5335C170.909 61.6925 171.636 61.3744 172.201 60.9768L172.121 61.3744C172.363 61.5335 172.524 60.5791 172.686 61.5335C172.928 61.0563 173.655 61.5335 173.332 60.4996C173.816 61.4539 174.22 60.6587 174.624 60.3405C174.22 59.5453 174.866 59.9429 174.866 59.5453C175.189 60.1815 174.785 60.3406 174.866 60.8177C174.947 59.6248 176.401 61.1358 175.916 59.3862C175.997 59.4658 175.997 59.4658 175.997 59.5453C176.078 59.5453 176.32 59.7839 176.401 59.7839C176.32 59.4658 176.078 59.3862 176.239 59.2272C176.401 59.2272 176.562 59.7043 176.724 59.9429C176.885 59.4658 177.289 59.0681 177.047 58.3524C177.208 58.5114 177.45 58.8295 177.45 58.9886C177.693 58.2729 177.935 58.9091 178.258 58.3524C178.096 58.4319 178.5 59.0681 178.096 58.9091C178.419 59.3067 178.581 59.2272 178.742 58.9886C178.904 58.75 179.065 58.5114 179.388 58.6705L179.227 58.0343C179.388 57.7957 179.711 58.3524 179.631 58.6705C180.196 58.8295 180.196 58.3524 180.519 58.1933C180.6 58.2729 180.6 58.3524 180.6 58.3524L181.084 58.1138C181.084 57.9548 181.004 57.5571 180.761 57.239C181.327 57.4776 181.327 57.7162 180.923 57.6366Z" fill="#353737"/>
<path d="M176.078 56.3643C176.158 56.5233 176.239 56.5233 176.32 56.6028C176.239 56.5233 176.158 56.4438 176.078 56.3643Z" fill="#353737"/>
<path d="M184.234 53.7398C183.588 52.9445 184.072 54.0579 183.749 53.8989C183.83 53.6603 183.426 53.2626 183.265 53.0241C183.83 54.217 182.861 52.9445 182.699 53.4217C182.457 53.1036 182.619 52.9445 182.296 52.5469C182.296 52.9445 182.134 53.2627 182.457 53.8989C182.134 54.1375 181.73 54.0579 181.569 54.2965C181.649 53.8989 181.246 53.6603 181.084 53.0241C181.326 53.8989 181.326 55.0918 181.488 56.2051C181.003 55.5689 181.003 55.4894 180.6 54.8532C179.873 54.6146 180.842 55.5689 180.357 55.5689H180.6C180.519 55.887 180.923 56.5233 181.084 57.0004L181.569 56.6028C181.811 57.0799 181.488 57.1595 181.488 57.3185C181.65 57.9547 181.973 57.5571 182.215 58.0343C182.053 57.6366 182.376 57.6366 182.376 57.398L182.538 57.6366C182.942 57.7162 182.699 57.0004 182.861 56.9209C182.942 57.0004 182.942 57.0004 183.022 57.0799C182.942 56.7618 182.78 56.3642 182.861 56.2051L182.78 56.2847C182.538 55.5689 182.78 54.9327 182.053 54.4556L182.619 54.376C183.022 55.0122 183.588 56.0461 183.345 56.3642L183.507 56.6823C183.991 56.9209 183.749 55.8075 183.265 55.3304C182.457 53.6603 183.991 54.7737 183.83 53.9784C184.153 54.376 184.072 54.6941 184.234 55.0122C184.153 55.0918 184.072 55.1713 183.83 54.8532C183.507 55.4099 184.88 56.1256 184.234 56.2847C183.83 56.2051 184.072 55.4099 183.668 55.5689L184.153 56.9209C184.395 56.7618 184.476 56.3642 184.557 56.1256C184.799 55.4099 185.203 55.0918 185.606 54.9327C185.93 54.7737 186.253 54.7737 186.253 54.7737L188.271 52.865L190.129 50.7973C190.371 50.2406 190.613 50.1611 189.725 49.0477C189.402 48.9682 189.321 49.2863 188.998 48.8091C189.321 49.2068 189.402 49.5249 189.16 49.6839C188.756 49.3658 189.16 49.3658 188.998 49.2863H188.917C188.756 49.0477 188.675 48.8887 188.756 48.8887C187.948 48.5706 187.706 49.0477 188.191 49.9225C187.625 49.7635 187.787 49.2068 187.545 48.8887C186.656 49.2068 186.253 49.6839 185.526 50.2406C186.091 50.9564 185.849 50.7178 186.091 51.2745L185.849 51.0359C186.01 51.1154 186.253 51.6721 186.576 51.6721C185.687 51.4335 186.818 52.9445 186.818 53.5012L186.576 53.1036C186.414 53.3422 186.333 53.4217 186.253 53.8193C185.283 53.4217 186.495 53.4217 185.687 52.6264V52.865C185.445 52.4674 185.041 51.8312 184.96 51.5131C185.041 52.3879 184.234 51.6721 184.234 52.4674C183.991 51.9902 184.072 51.4335 184.153 51.354C183.991 51.4335 183.991 51.9107 183.668 51.5131L184.072 52.0697C183.911 52.3083 183.749 51.5926 183.426 51.2745C182.78 51.8312 184.476 53.0241 184.234 53.7398Z" fill="#353737"/>
<path d="M177.854 57.0799C177.935 57.0799 178.015 57.08 178.015 56.9209C177.935 56.9209 177.935 57.0004 177.854 57.0799Z" fill="#353737"/>
<path d="M178.581 55.3304C178.581 55.2509 178.5 55.1713 178.5 55.0918C178.5 55.1713 178.5 55.2509 178.581 55.3304Z" fill="#353737"/>
<path d="M178.258 54.5352C178.419 54.7737 178.338 54.8533 178.5 55.1714C178.419 54.9328 178.661 54.7737 178.258 54.5352Z" fill="#353737"/>
<path d="M157.261 58.1138C157.1 58.2728 156.777 58.4319 156.858 58.5909C157.019 58.5114 157.181 58.4319 157.423 58.4319C157.342 58.3523 157.261 58.2728 157.261 58.1138Z" fill="#353737"/>
<path d="M157.827 58.909L158.069 59.2271L158.392 58.3523C158.069 58.3523 158.069 58.9885 157.827 58.909Z" fill="#353737"/>
<path d="M158.473 59.4658L158.392 59.7044C158.473 59.6249 158.473 59.5453 158.473 59.4658Z" fill="#353737"/>
<path d="M158.554 59.1477L158.715 58.5115L158.311 58.9091L158.392 59.0682C158.392 59.3067 158.473 59.3863 158.473 59.4658L158.634 59.0682C158.634 59.1477 158.554 59.2272 158.554 59.1477Z" fill="#353737"/>
<path d="M159.361 60.3405C159.281 60.102 159.523 59.7838 159.523 59.5453C159.281 59.3067 159.2 60.1815 158.958 59.8634C159.361 59.3862 158.877 59.4657 158.796 59.0681C158.796 59.6248 158.877 60.102 159.119 60.261L159.2 59.8634C159.361 59.9429 159.281 60.1815 159.361 60.3405Z" fill="#353737"/>
<path d="M160.815 59.5452L160.572 60.1019C160.572 59.7837 160.249 59.7837 160.249 59.2271C160.088 59.3066 160.088 59.5452 160.007 59.7042C159.926 59.3861 159.926 59.1475 159.765 59.5452C160.249 60.0223 160.088 60.1018 160.492 60.3404C160.492 60.4995 160.411 60.42 160.33 60.42L160.572 60.7381C160.734 60.0223 161.057 59.9428 160.815 59.5452Z" fill="#353737"/>
<path d="M161.218 59.9429C160.976 59.9429 160.815 60.4996 160.895 60.8972L161.38 60.42C161.299 60.4996 161.138 60.5791 161.218 59.9429Z" fill="#353737"/>
<path d="M161.542 60.0224C161.622 60.3405 161.784 60.9768 161.945 60.4201C161.703 60.4996 161.865 59.5453 161.542 60.0224Z" fill="#353737"/>
<path d="M163.237 60.5791L162.753 60.1814C162.672 59.3862 162.995 59.9429 163.076 59.6248C162.672 59.4657 162.833 59.7043 162.51 60.1814C162.43 60.1019 162.268 60.4995 162.107 60.7381C162.753 60.1019 162.753 62.0106 163.237 60.5791Z" fill="#353737"/>
<path d="M162.349 59.7837L162.268 60.1018L162.511 59.8632L162.349 59.7837Z" fill="#353737"/>
<path d="M164.368 61.3743C164.691 62.2491 164.853 60.8177 165.256 61.2153C165.256 61.2948 165.256 61.3743 165.176 61.4539L165.418 61.3743V61.6129C165.337 61.0562 165.579 60.8177 165.66 60.42C165.337 59.8633 165.579 61.1358 165.256 60.4996C165.256 60.261 165.337 59.8633 165.337 59.6248C165.176 59.9429 165.176 60.261 165.176 60.5791C165.014 60.6586 165.014 60.3405 165.014 60.1019C164.853 60.42 164.933 61.2153 164.61 61.0562C164.368 60.5791 164.691 60.261 164.368 60.4996C164.61 61.3744 164.045 60.3405 163.964 60.9767C163.722 60.8177 163.561 60.261 163.561 59.9429C163.561 60.6586 163.399 61.2153 163.238 61.3743L163.641 60.8177L163.803 61.6129C163.964 61.2153 164.126 61.2153 164.368 61.3743Z" fill="#353737"/>
<path d="M165.418 59.545C165.418 59.4655 165.498 59.4655 165.498 59.386C165.498 59.386 165.418 59.4655 165.418 59.545Z" fill="#353737"/>
<path d="M163.48 59.6247L163.56 59.4657L163.48 59.3066V59.6247Z" fill="#353737"/>
<path d="M165.579 58.9884C165.498 58.9884 165.498 59.227 165.579 59.227L165.66 58.8293L165.579 58.9884Z" fill="#353737"/>
<path d="M165.902 59.4658L166.064 59.8635V59.5453L165.902 59.4658Z" fill="#353737"/>
<path d="M171.394 58.909C171.151 58.6704 171.313 59.2271 171.394 59.6247C171.636 59.7043 171.232 59.1476 171.394 58.909Z" fill="#353737"/>
<path d="M174.462 57.2389C174.139 57.0003 174.139 57.557 173.978 57.557C174.22 57.7956 174.382 57.557 174.462 57.2389Z" fill="#353737"/>
<path d="M175.108 55.0122C175.108 55.1713 175.108 55.3303 175.27 55.3303L175.512 56.2846C175.835 56.5232 175.27 55.4098 175.108 55.0122Z" fill="#353737"/>
<path d="M176.481 54.2964L176.401 54.694H176.562C176.643 55.0917 176.724 55.2507 176.724 55.5688C176.804 55.3302 176.804 54.9326 176.481 54.2964Z" fill="#353737"/>
<path d="M176.562 55.8872L176.643 55.8076C176.562 55.6486 176.481 55.5691 176.562 55.8872Z" fill="#353737"/>
<path d="M176.723 55.728C176.723 55.6484 176.723 55.6484 176.723 55.6484C176.723 55.728 176.643 55.8075 176.643 55.8075C176.723 55.8075 176.723 55.887 176.723 55.728Z" fill="#353737"/>
<path d="M176.885 54.694C177.047 54.6145 177.127 54.535 177.208 54.3759L176.966 54.2964C177.208 54.8531 176.643 54.0578 176.885 54.694Z" fill="#353737"/>
<path d="M179.146 54.0578L179.469 54.535C179.792 54.535 179.469 53.2626 180.115 53.9783C179.792 53.7397 179.954 53.2626 179.631 53.3421C179.792 53.8192 179.388 54.0578 179.146 54.0578Z" fill="#353737"/>
<path d="M180.519 54.2965C180.6 54.4556 180.68 54.5351 180.842 54.6146C181.003 54.6146 180.923 54.2965 180.761 54.1375C181.084 54.8532 180.357 53.8193 180.519 54.2965Z" fill="#353737"/>
<path d="M181.65 53.5011C181.569 53.5807 181.488 53.6602 181.73 53.7397C181.892 53.5807 181.488 53.024 181.407 52.6263C181.004 52.4673 181.327 53.2625 181.65 53.5011Z" fill="#353737"/>
</g>
</g>
<path d="M125.929 37.8344C118.015 44.7532 115.915 47.0595 105.256 44.4351C94.596 41.8902 93.8692 45.2304 85.5514 41.9698C77.2337 38.7887 79.1718 33.9375 79.1718 33.9375C80.4639 33.0627 81.756 32.2675 82.725 31.6313C87.0858 29.2455 84.3401 30.3588 84.7439 28.2911C85.0669 26.2234 94.1115 24.8715 94.1115 24.8715C94.1115 24.8715 92.8194 23.8376 94.9998 21.8495C97.1802 19.8613 105.659 20.4975 105.659 20.4975C105.659 20.4975 104.044 19.3841 105.659 18.2707C107.275 17.1574 114.543 16.9983 118.58 19.1455C122.537 21.2928 126.979 21.2928 126.979 21.2928C126.979 21.2928 128.029 21.5313 129.886 21.8495C132.712 27.3368 130.613 33.699 125.929 37.8344Z" fill="#D4DADD"/>
<path d="M128.594 141.06C128.594 141.06 130.371 140.106 129.886 136.925C129.402 133.744 125.202 131.517 119.227 129.927C113.251 128.256 106.79 129.529 105.175 131.358" stroke="#1B1C1E" stroke-miterlimit="10"/>
<path d="M125.202 141.06C125.202 141.06 126.494 137.879 124.314 136.13" stroke="#1B1C1E" stroke-miterlimit="10"/>
<path d="M119.63 141.06C119.63 141.06 120.438 138.277 118.338 137.004" stroke="#1B1C1E" stroke-miterlimit="10"/>
<path d="M147.975 140.663C147.975 140.663 148.864 136.686 146.037 134.539" stroke="#1B1C1E" stroke-miterlimit="10"/>
<path d="M141.838 140.822C141.838 140.822 141.757 138.515 139.254 137.004" stroke="#1B1C1E" stroke-miterlimit="10"/>
<path d="M146.037 110.92C146.037 110.92 145.957 109.17 146.037 107.898C146.118 106.625 146.118 105.83 145.23 103.524C144.341 101.217 144.341 99.4678 144.341 99.4678" stroke="#1B1C1E" stroke-miterlimit="10"/>
<path d="M113.331 79.4269C112.281 80.3017 111.716 81.1765 111.07 84.3576C110.424 87.5386 110.989 89.3678 114.623 90.7197C118.257 92.0717 121.326 87.6977 120.68 85.0733C120.034 82.4489 117.369 76.0072 113.331 79.4269Z" fill="#D4DADD"/>
<path d="M83.5326 62.2492C81.756 63.2831 79.2526 65.3508 79.2526 69.4066C79.2526 73.4625 78.2028 77.8365 82.2406 81.1766C86.2783 84.5167 92.0927 86.1868 97.0187 84.7553C101.945 83.3238 102.591 79.6656 105.579 76.564C108.567 73.4625 109.213 67.9751 105.579 63.7602C101.945 59.5453 98.0686 59.0681 93.627 59.3067C89.1855 59.5453 85.7938 60.8972 83.5326 62.2492Z" fill="#B3B9BC"/>
<path d="M142.484 7.29612C142.484 7.29612 134.57 0.933973 127.544 1.41113C120.519 1.8883 128.352 14.9307 128.352 14.9307C128.352 14.9307 122.699 17.9527 122.538 20.259C122.376 22.5653 125.364 21.3724 125.768 22.3267C126.091 23.281 122.699 25.4282 121.73 27.9731C120.68 30.518 123.184 31.2337 123.184 31.7109C123.184 32.188 119.792 36.9596 120.923 40.2998C122.053 43.6399 124.718 40.936 125.041 42.0494C125.364 43.1627 124.799 47.4572 126.656 48.5706C128.594 49.684 129.725 47.6958 130.048 48.5706C130.371 49.4454 131.582 53.4217 133.44 54.217C135.216 55.0123 135.862 53.0241 135.943 53.4217C136.024 53.8193 137.558 56.9209 139.173 57.239C140.788 57.5571 142 56.1256 142.484 56.5233C142.969 56.9209 150.64 60.0224 156.697 60.5791C162.754 61.1358 169.618 56.0461 171.475 56.2052C173.413 56.3642 173.656 57.5571 175.594 57.5571C177.613 57.5571 178.743 53.9784 179.793 54.2965C180.843 54.6146 182.7 54.4556 184.234 51.4335C185.688 48.332 185.688 46.7415 186.819 47.2981C187.949 47.7753 189.08 46.1848 189.403 43.799C189.726 41.4132 189.403 39.7431 189.403 39.7431C189.403 39.7431 191.179 40.1407 191.906 38.5502C192.633 36.9596 191.099 31.4723 191.099 31.4723C191.099 31.4723 192.956 31.0747 192.068 27.7345C191.179 24.3944 189.564 20.9747 189.564 20.9747C189.564 20.9747 191.26 20.4976 190.533 17.8732C189.807 15.2488 185.204 11.8291 185.204 11.8291C185.204 11.8291 189.161 5.14889 186.657 1.25208C184.154 -2.56521 174.14 3.31978 170.829 5.94416C170.829 5.94416 170.102 3.63789 168.568 3.79694C167.034 3.95599 166.226 5.22842 166.065 4.59221C165.903 3.87647 165.096 2.60404 163.642 2.60404C162.35 2.60404 161.381 3.79694 161.381 3.79694C161.381 3.79694 160.492 1.25208 158.797 1.09303C156.212 0.854445 154.92 3.55836 154.92 3.55836C154.92 3.55836 152.336 1.41113 150.398 2.12687C148.46 2.84261 148.137 4.83079 148.137 4.83079C148.137 4.83079 146.845 2.28593 144.988 2.76309C143.292 3.3993 142.888 5.78511 142.484 7.29612Z" fill="#F6EBEF"/>
<path d="M156.858 32.9037C156.858 32.9037 153.79 31.2337 153.79 29.4841C153.79 27.7345 155.162 27.814 157.181 27.814C159.2 27.814 160.331 28.2117 159.927 30.1203C159.604 31.3927 156.858 32.9037 156.858 32.9037Z" fill="#1B1C1E" stroke="#1B1C1E" stroke-miterlimit="10"/>
<path d="M159.846 40.936C156.293 42.2085 154.436 40.936 154.436 40.936C156.697 38.2321 156.858 34.3353 156.858 33.2219C156.939 34.3353 157.262 37.914 159.846 40.936Z" fill="#B3B9BC" stroke="#1B1C1E" stroke-miterlimit="10"/>
<path d="M159.846 40.9358C160.25 41.413 160.735 41.9696 161.3 42.3673C165.903 46.1846 170.829 45.2302 172.686 42.7649" stroke="#1B1C1E" stroke-miterlimit="10"/>
<path d="M156.859 32.9038C156.859 32.9038 156.859 32.9833 156.859 33.2219" stroke="#1B1C1E" stroke-miterlimit="10"/>
<path d="M141.838 42.0495C143.291 44.8329 149.59 45.151 153.386 42.0495C153.79 41.7314 154.113 41.4133 154.436 41.0156" stroke="#1B1C1E" stroke-miterlimit="10"/>
<path d="M138.689 26.4621C138.689 26.4621 139.9 21.77 144.584 21.77C149.591 21.77 150.64 25.2692 150.64 25.2692C150.64 25.2692 149.671 29.4046 145.391 29.8818C141.03 30.3589 138.689 26.4621 138.689 26.4621Z" fill="#CCE2CF" stroke="#1B1C1E" stroke-miterlimit="10"/>
<path d="M145 29.007C146.292 28.9465 147.265 27.368 147.174 25.4815C147.083 23.5949 145.962 22.1147 144.67 22.1752C143.378 22.2358 142.404 23.8143 142.496 25.7008C142.587 27.5874 143.708 29.0676 145 29.007Z" fill="#1B1C1E"/>
<path d="M174.624 25.5078C174.624 25.5078 173.413 20.8157 168.729 20.8157C163.722 20.8157 162.673 24.3149 162.673 24.3149C162.673 24.3149 163.642 28.4503 167.922 28.9274C172.202 29.4046 174.624 25.5078 174.624 25.5078Z" fill="#CCE2CF" stroke="#1B1C1E" stroke-miterlimit="10"/>
<path d="M170.765 24.6589C170.856 22.7723 169.882 21.1939 168.59 21.1333C167.298 21.0728 166.177 22.553 166.086 24.4396C165.995 26.3261 166.968 27.9046 168.26 27.9651C169.552 28.0257 170.673 26.5454 170.765 24.6589Z" fill="#1B1C1E"/>
<path d="M167.276 14.9305C162.35 18.3502 154.194 18.9864 148.218 15.8053C142.242 12.6242 142.484 7.21642 142.484 7.21642C142.888 5.70541 143.292 3.3196 145.149 2.84244C146.926 2.36528 148.298 4.91014 148.298 4.91014C148.298 4.91014 148.621 2.84245 150.56 2.20623C152.498 1.49049 155.082 3.63771 155.082 3.63771C155.082 3.63771 156.374 0.933798 158.958 1.17238C160.654 1.33143 161.542 3.87629 161.542 3.87629C161.542 3.87629 162.511 2.68339 163.803 2.68339C165.257 2.68339 166.065 3.95582 166.226 4.67156C166.388 5.38731 167.195 4.03535 168.729 3.87629C170.264 3.71724 170.991 6.02352 170.991 6.02352C170.991 6.02352 172.202 11.5109 167.276 14.9305Z" fill="#D4DADD"/>
<path d="M118.338 126.904C118.338 125.632 117.127 124.757 116.481 122.212C115.835 119.667 112.039 117.6 111.716 115.691C111.312 113.782 113.493 111.874 111.716 111.317C111.07 111.158 110.424 110.999 109.859 110.601C109.859 110.601 112.605 107.818 117.611 109.568C122.618 111.238 125.445 117.202 125.848 119.986C126.252 122.769 125.041 128.415 118.338 126.904Z" fill="#B3B9BC"/>
<path d="M120.68 130.244C120.68 130.244 118.338 128.177 118.338 126.904C118.338 125.632 117.208 124.757 116.562 122.212C115.916 119.667 112.12 117.6 111.797 115.691C111.393 113.782 113.574 111.874 111.797 111.317C110.02 110.76 108.163 110.442 108.648 106.307" stroke="#1B1C1E" stroke-miterlimit="10"/>
<path d="M185.284 11.9087C182.215 9.84097 178.905 9.20475 177.693 9.04569C176.482 8.88664 175.513 8.80712 178.743 4.83077C181.973 0.854428 186.253 0.774902 186.253 0.774902C186.415 0.933956 186.576 1.09301 186.738 1.33159C189.241 5.22841 185.284 11.9087 185.284 11.9087Z" fill="#D4DADD"/>
<path d="M137.316 11.1133C137.477 12.5448 133.843 10.7157 131.905 12.7039C129.967 14.692 128.352 14.9306 128.352 14.9306C128.352 14.9306 124.476 8.4094 124.637 4.43306C124.637 4.43306 124.799 2.60394 128.836 4.43306C132.874 6.26218 137.154 9.60231 137.316 11.1133Z" fill="#D4DADD"/>
<path d="M152.094 140.583C152.982 140.583 153.628 135.891 152.094 132.79C150.559 129.688 150.398 126.427 148.298 123.724C146.199 121.02 147.249 114.737 146.36 112.749C145.876 111.556 145.956 110.999 145.956 110.999" stroke="#1B1C1E" stroke-miterlimit="10"/>
</svg>
