<svg width="169" height="187" viewBox="0 0 169 187" fill="none" xmlns="http://www.w3.org/2000/svg">
<path d="M167.332 183.389C167.332 183.389 174.681 185.457 154.654 186.093C134.627 186.729 28.8375 187.047 17.9356 186.093C7.03363 185.139 -14.1242 185.695 13.9786 183.389C42.0813 181.083 70.9917 182.435 99.3367 181.083C127.682 179.651 163.052 181.003 167.332 183.389Z" fill="#1B1C1E"/>
<path d="M32.2292 23.0628C27.2224 26.4825 20.116 30.6974 20.116 30.6974C14.4631 17.1778 21.1658 0.0795269 22.7809 0C22.7809 0 31.8255 6.44168 32.2292 23.0628Z" fill="#1B1C1E"/>
<path d="M36.9936 19.4046C36.5091 20.1203 34.571 21.4723 32.2291 23.0628C31.7446 6.5212 22.7808 0.0795279 22.7808 0.0795279C24.3959 1.04398e-06 26.4955 1.90864 30.5332 6.60073C34.571 11.3723 36.9936 19.4046 36.9936 19.4046Z" fill="#8B2403"/>
<path d="M32.229 24.812C32.229 24.1758 32.229 23.6191 32.229 22.9829" stroke="#1B1C1E" stroke-miterlimit="10"/>
<path d="M64.2085 38.4113C64.2085 38.4113 59.6862 31.4925 56.6982 26.3233C64.4507 11.6108 75.3527 9.70215 75.3527 9.70215C76.8063 10.4179 75.2719 28.6295 64.2085 38.4113Z" fill="#1B1C1E"/>
<path d="M75.3525 9.70243C75.3525 9.70243 64.3699 11.6111 56.6981 26.3236C55.3253 23.9377 54.1947 21.87 54.0332 20.9952C54.0332 20.9952 59.7668 14.7922 65.5004 12.2473C71.234 9.70243 73.9797 8.98669 75.3525 9.70243Z" fill="#8B2403"/>
<path d="M56.6982 26.3232C56.4559 26.8799 56.1329 27.3571 55.8906 27.9138" stroke="#1B1C1E" stroke-miterlimit="10"/>
<path d="M28.9181 20.2791C28.9181 20.2791 21.3272 24.0169 19.066 33.242C16.8049 42.4671 18.743 52.1694 19.066 55.7481C19.389 59.3268 19.5505 64.2575 18.9045 71.0968C18.2585 77.9361 20.6004 92.8871 33.4404 110.304C46.2805 127.72 73.4142 148.954 76.5636 166.37C79.7131 183.786 155.138 170.426 155.138 170.426C155.138 170.426 158.934 153.805 151.666 121.358C148.193 105.85 138.341 93.5233 133.981 89.6265C126.067 82.6282 113.226 73.9597 99.1751 70.222C74.6255 63.7803 72.6874 59.5654 65.7425 50.8969C65.7425 50.8969 69.3764 44.2167 67.0345 33.8782C64.4504 22.5854 56.2134 19.2452 54.1137 18.6886C50.9643 17.8138 35.9438 16.4618 28.9181 20.2791Z" fill="#8B2403"/>
<path d="M67.1959 52.7259C67.1959 52.7259 60.0087 79.924 41.1928 81.276C26.8183 82.3099 19.3889 61.8714 19.3889 61.8714C19.3889 59.4856 19.2274 57.4179 19.0659 55.7479C18.9043 54.3164 18.5006 51.7715 18.2583 48.7495C20.4387 53.203 24.3957 57.577 28.9987 59.5652C33.3595 61.4738 38.8508 62.2691 45.4728 61.7919C49.995 61.4738 53.5483 60.3604 56.4555 58.929C63.1581 55.6684 65.7423 50.8967 65.7423 50.8967C66.2268 51.533 66.7114 52.1692 67.1959 52.7259Z" fill="#EBDAD2"/>
<path d="M56.4555 58.8499C53.629 60.2814 49.9951 61.3948 45.4728 61.7129C38.8509 62.19 33.3595 61.3948 28.9987 59.4861C26.8184 57.4184 25.4455 54.794 26.0916 52.0106C27.6259 45.4894 33.8441 43.8193 33.8441 43.8193L53.629 45.0122C59.2819 49.3862 59.6049 55.0326 56.4555 58.8499Z" fill="#EBDAD2"/>
<path d="M55.1636 121.914C55.1636 121.914 54.9214 124.062 54.3561 127.72C54.1138 129.231 53.7908 130.901 53.4678 132.81C51.3682 143.784 47.0074 160.803 38.7704 173.289C38.7704 173.289 33.602 173.13 30.7756 176.867C28.0299 180.605 29.2413 184.741 29.2413 184.741C29.2413 184.741 47.1689 184.741 50.2376 184.741C52.9833 184.741 58.7169 169.312 70.3456 152.93C71.7992 150.942 73.2528 148.953 74.8679 146.965C89.6461 128.595 90.6959 111.178 90.6959 111.178L55.1636 121.914Z" fill="#8B2403"/>
<path d="M66.6309 158.497C57.4248 172.653 52.741 184.741 50.2376 184.741C47.0881 184.741 29.2413 184.741 29.2413 184.741C29.2413 184.741 28.0299 180.685 30.7756 176.868C33.5213 173.13 38.7704 173.289 38.7704 173.289C42.4851 167.722 45.3923 161.201 47.6534 154.759C47.6534 154.839 61.1395 153.646 66.6309 158.497Z" fill="#A84E39"/>
<path d="M159.499 157.781C159.499 157.781 155.784 164.78 136.645 164.462C117.506 164.144 77.1288 159.531 60.4932 165.177C43.8577 170.824 45.7958 184.741 48.8645 184.741C52.014 184.741 48.8645 184.741 59.7664 184.741C70.6684 184.741 111.692 184.741 142.056 184.741C172.42 184.741 167.978 160.247 162.083 153.646C156.188 147.045 154.977 140.047 154.977 140.047C154.977 140.047 156.188 154.044 155.946 162.394L159.499 157.781Z" fill="#8B2403"/>
<path d="M124.936 168.517C100.548 171.937 87.5464 177.186 66.4693 177.743C45.3923 178.22 51.7719 170.108 51.7719 170.108C53.8715 168.199 56.698 166.45 60.5742 165.098C77.2098 159.451 117.587 164.064 136.726 164.382C137.857 164.382 138.987 164.382 140.037 164.382C140.522 164.541 148.597 165.257 124.936 168.517Z" fill="#751A01"/>
<path d="M35.2978 184.741C35.2978 184.741 33.925 181.242 36.6706 178.617" stroke="#1B1C1E" stroke-miterlimit="10"/>
<path d="M42.9694 179.174C42.9694 179.174 41.4351 181.56 42.6464 184.741" stroke="#1B1C1E" stroke-miterlimit="10"/>
<path d="M40.1429 43.5014C40.1429 43.5014 37.9625 43.3423 35.5399 43.5014C33.1172 43.6604 29.241 46.0462 30.1293 50.4202C31.0176 54.7942 34.0863 56.0666 36.2667 55.828C38.4471 55.5099 42.7271 51.2155 42.7271 51.2155L42.8078 47.3982C42.8078 47.2391 42.7271 43.899 40.1429 43.5014Z" fill="#EBDAD2" stroke="#1B1C1E" stroke-miterlimit="10"/>
<path d="M45.3114 43.5014C45.3114 43.5014 47.4918 43.3423 49.9144 43.5014C52.3371 43.6604 56.2133 46.0462 55.325 50.4202C54.4367 54.7942 51.368 56.0666 49.1877 55.828C47.0073 55.5099 42.7272 51.2155 42.7272 51.2155L42.6465 47.3982C42.6465 47.2391 42.7272 43.899 45.3114 43.5014Z" fill="#EBDAD2" stroke="#1B1C1E" stroke-miterlimit="10"/>
<path d="M37.2357 38.1728C37.2357 38.1728 35.0554 40.6381 30.7753 40.0814C26.5761 39.5247 25.3647 36.1051 25.3647 36.1051C25.607 35.3098 27.0606 32.6059 30.8561 32.5264C31.2599 32.5264 31.6636 32.5264 32.1482 32.6059C32.3904 32.6059 32.6327 32.6854 32.7942 32.6854C36.9127 33.5602 37.2357 38.1728 37.2357 38.1728Z" fill="#FBAF5E"/>
<path d="M33.1982 35.3098C33.1982 37.3775 32.5521 39.0476 31.7446 39.0476C30.937 39.0476 30.291 37.3775 30.291 35.3098C30.291 34.1964 30.5333 33.1626 30.7755 32.5264C31.1793 32.5264 31.5831 32.5264 32.0676 32.6059C32.3099 32.6059 32.5522 32.6854 32.7137 32.6854C33.0367 33.3216 33.1982 34.276 33.1982 35.3098Z" fill="#1B1C1E" stroke="#1B1C1E" stroke-miterlimit="10"/>
<path d="M48.0571 38.2524C48.0571 38.2524 50.2375 40.7178 54.4368 40.2406C58.636 39.6839 59.9281 36.3438 59.9281 36.3438C59.6859 35.5485 58.313 32.8446 54.5175 32.6855C54.1138 32.6855 53.71 32.6855 53.2254 32.7651C52.9832 32.7651 52.7409 32.8446 52.5794 32.8446C48.3801 33.6399 48.0571 38.2524 48.0571 38.2524Z" fill="#FBAF5E"/>
<path d="M52.0947 35.3893C52.0947 37.457 52.7408 39.1271 53.5483 39.1271C54.3559 39.1271 55.0019 37.457 55.0019 35.3893C55.0019 34.276 54.8404 33.2421 54.5174 32.5264C54.1136 32.5264 53.7098 32.5264 53.2253 32.6059C52.983 32.6059 52.7408 32.6854 52.5792 32.6854C52.337 33.4807 52.0947 34.3555 52.0947 35.3893Z" fill="#1B1C1E" stroke="#1B1C1E" stroke-miterlimit="10"/>
<path d="M42.8079 47.2388C42.8079 47.2388 40.3045 45.9664 39.0124 44.0578C37.7203 42.0696 40.9505 41.7515 43.0501 41.7515C45.1498 41.831 47.0879 42.3877 45.9573 44.2168C44.746 46.0459 42.8079 47.2388 42.8079 47.2388Z" fill="#1B1C1E" stroke="#1B1C1E" stroke-miterlimit="10"/>
<path d="M72.4453 58.7702C72.4453 58.7702 65.9848 92.4896 54.8406 104.498C40.9508 119.449 30.5334 106.168 30.5334 106.168C20.1967 90.5809 18.2586 77.3795 18.9046 71.0968C19.3084 67.5181 19.3892 64.4961 19.3892 61.9513C19.3892 61.9513 26.8994 82.3897 41.193 81.3558C60.009 80.0039 67.1962 52.8057 67.1962 52.8057C68.9728 55.0324 70.5071 57.0206 72.4453 58.7702Z" fill="#A84E39"/>
<path d="M51.6912 18.2116C51.1259 19.2454 49.107 22.7446 46.5228 27.5958C44.504 31.413 40.1432 31.413 37.9628 27.1186C36.1862 23.5399 33.925 19.8816 33.1982 18.7683C39.3356 17.2573 47.4111 17.6549 51.6912 18.2116Z" fill="#751A01"/>
<path d="M159.499 157.781C159.499 157.781 155.784 164.78 136.645 164.462C117.506 164.143 77.1287 159.531 60.4932 165.177" stroke="#1B1C1E" stroke-miterlimit="10"/>
<path d="M70.4263 152.93C71.8799 150.942 73.3334 148.953 74.9485 146.965C89.7267 128.595 90.7765 111.178 90.7765 111.178" stroke="#1B1C1E" stroke-miterlimit="10"/>
<path d="M55.1636 121.915C55.1636 121.915 54.9214 124.062 54.3561 127.72C54.1138 129.231 53.7908 130.901 53.4678 132.81" stroke="#1B1C1E" stroke-miterlimit="10"/>
<mask id="mask0_37_5670" style="mask-type:luminance" maskUnits="userSpaceOnUse" x="18" y="48" width="50" height="34">
<path d="M67.1959 52.7259C67.1959 52.7259 60.0087 79.924 41.1928 81.276C26.8183 82.3099 19.3889 61.8714 19.3889 61.8714C19.3889 59.4856 19.2274 57.4179 19.0659 55.7479C18.9043 54.3164 18.5006 51.7715 18.2583 48.7495C20.4387 53.203 24.3957 57.577 28.9987 59.5652C33.3595 61.4738 38.8508 62.2691 45.4728 61.7919C49.995 61.4738 53.5483 60.3604 56.4555 58.929C63.1581 55.6684 65.7423 50.8967 65.7423 50.8967C66.2268 51.533 66.7114 52.1692 67.1959 52.7259Z" fill="white"/>
</mask>
<g mask="url(#mask0_37_5670)">
<g opacity="0.78">
<path d="M62.6733 56.0663C62.6733 55.9868 62.5925 55.9072 62.5925 55.9072C62.5118 55.9072 62.5925 55.9072 62.6733 56.0663Z" fill="#290B01"/>
<path d="M58.1509 58.9292L58.2316 59.1678C58.2316 59.0883 58.1509 59.0087 58.1509 58.9292Z" fill="#290B01"/>
<path d="M61.8659 54.5554C61.8659 54.4759 61.8659 54.3964 61.7852 54.2373L61.8659 54.5554Z" fill="#290B01"/>
<path d="M60.8161 54.1577L60.7354 54.0781C60.7354 54.0781 60.8161 54.0781 60.8161 54.1577Z" fill="#290B01"/>
<path d="M66.5493 52.9648C66.5493 53.0444 66.5493 53.0444 66.5493 52.9648C66.6301 53.0444 66.5493 53.0444 66.5493 52.9648Z" fill="#290B01"/>
<path d="M66.4688 52.4875C66.5495 52.4079 66.5495 52.4079 66.4688 52.4875V52.4079C66.4688 52.3284 66.4688 52.4079 66.4688 52.4875Z" fill="#290B01"/>
<path d="M65.4193 48.7499L65.2578 48.5908C65.2578 48.6703 65.3386 48.7499 65.4193 48.7499Z" fill="#290B01"/>
<path d="M66.7108 53.2826C66.7108 53.2031 66.6301 53.2031 66.5493 53.1235C66.6301 53.1235 66.6301 53.2031 66.7108 53.2826Z" fill="#290B01"/>
<path d="M62.6735 56.1459L62.5928 56.0664C62.6735 56.0664 62.6735 56.1459 62.6735 56.1459Z" fill="#290B01"/>
<path d="M56.4553 60.0425C56.4553 60.122 56.3745 60.122 56.3745 60.2015C56.536 60.2015 56.536 60.122 56.4553 60.0425Z" fill="#290B01"/>
<path d="M65.2576 53.6807C64.6924 53.2036 65.3384 53.5217 64.8539 53.0445C64.9346 53.2036 64.9346 53.3626 64.6116 53.1241C64.3693 52.8059 64.7731 52.965 64.3693 52.5674L64.4501 52.8059C64.1271 52.6469 63.8848 52.2493 63.8848 52.3288C64.4501 52.965 63.3195 52.4083 63.4003 52.5674V52.4878L62.9965 52.3288L63.0773 52.4083C62.7542 52.1697 62.4312 52.0902 62.3505 52.2493C62.6735 52.6469 62.1082 52.7264 62.2697 53.0445C62.2697 52.8855 62.2697 52.8855 62.4312 52.8855L62.835 53.2831C62.6735 53.3626 62.4312 52.8855 62.5927 53.2831C63.158 53.8398 62.7542 53.1241 62.9157 53.1241C62.9965 53.2831 63.0773 53.4422 63.0773 53.5217C63.2388 53.3626 63.6425 53.4422 63.158 52.8059C63.3195 52.8855 63.5618 53.1241 63.5618 53.2036C63.3195 52.8059 63.9656 53.4422 63.8041 53.0445C64.2886 53.6012 63.804 53.5217 64.0463 53.9193C63.481 53.6807 63.6425 54.2374 63.5618 54.476C63.158 54.0784 62.9965 53.6807 62.6735 53.5217C62.2697 53.4422 62.6735 53.9193 62.835 54.1579C62.5927 54.1579 62.1889 53.5217 62.0274 53.6807L61.8659 53.3626C61.2199 52.965 61.9467 53.6807 61.7852 53.6807C61.9467 53.7603 62.1082 53.9193 62.189 53.8398C62.3505 53.9988 62.4312 54.1579 62.3505 54.2374C62.5927 54.5555 62.835 54.7941 62.5927 54.7941C62.3505 54.3965 62.2697 54.6351 62.1082 54.5555V54.476C62.1082 54.6351 61.9467 54.7146 61.9467 54.7941L61.8659 54.7146C61.9467 54.8736 62.2697 55.3508 62.1082 55.3508C61.9467 55.1918 61.7044 54.6351 61.6237 54.7941C61.3814 54.5555 61.5429 54.3965 61.7044 54.3965C61.5429 54.3965 61.1391 53.9988 61.2199 53.9193C60.8969 53.6012 61.2199 54.1579 61.0584 54.0784C61.1391 54.1579 61.2199 54.317 61.3006 54.3965C60.8969 53.9989 61.0584 54.5555 61.3006 54.8736L61.2199 54.5555C61.5429 54.8736 61.6237 55.2713 61.7852 55.3508C61.2199 54.8736 61.7044 55.9075 61.2199 55.5099L61.5429 55.7484C61.1391 55.828 61.4622 56.6232 61.3006 56.9413C61.2199 56.7028 60.7354 56.0665 61.0584 56.1461C60.7354 56.2256 60.4931 55.5894 60.1701 55.3508C59.7663 55.2713 60.5738 55.987 60.6546 56.2256L60.7354 55.987C61.1391 56.7823 60.0893 56.2256 60.1701 56.8618C60.0086 56.7028 60.1701 56.7028 60.0893 56.6232C59.6855 56.3846 60.0086 56.7823 60.0893 57.0209C59.9278 57.0209 59.6048 57.0209 59.3625 56.4642C59.1203 56.4642 59.6048 56.7028 59.6048 56.9413L59.524 56.8618L59.7663 57.498C59.524 57.4185 59.201 57.339 58.7972 56.9413C58.555 57.2595 59.4433 58.0547 59.3625 58.3728C59.0395 58.2138 59.1203 57.9752 59.0395 57.8161L58.878 57.9752C58.555 57.4185 58.878 57.5776 58.4742 56.9413C58.7972 57.6571 58.3935 57.2594 58.4742 57.8161L58.555 57.8957C58.7972 58.3728 58.3127 58.2138 58.2319 58.3728C58.0704 58.0547 58.2319 57.9752 58.2319 57.8161C57.9897 57.7366 57.7474 58.1342 57.9897 58.7705C57.8282 58.7705 57.5052 58.6114 57.5052 58.2933C57.1821 58.3728 57.9089 59.1681 57.5859 59.1681L57.3437 58.7705C56.6976 58.3728 57.1821 59.6453 56.5361 59.2476L56.8591 59.8043C56.6976 59.6453 56.4553 59.5657 56.3746 59.4067V59.1681C55.9708 58.7705 56.5361 59.6453 56.1323 59.4067C56.2131 59.5657 56.5361 59.8838 56.6976 60.0429C57.1014 59.4067 58.1512 59.8043 58.3127 58.9295C58.232 58.85 58.1512 58.85 58.1512 58.6909C58.3127 58.7705 58.3127 58.5319 58.4742 58.85V58.9295C58.555 58.6909 59.1203 59.2476 59.201 59.1681C59.0395 58.7705 59.6048 59.0886 59.1203 58.5319L59.4433 58.85C59.2818 58.6114 59.1203 58.3728 59.0395 58.2138C59.201 58.2138 59.3625 58.4523 59.3625 58.6114C59.9278 58.6114 60.3316 58.1342 60.5739 57.7366L60.6546 58.0547C60.8161 58.1342 60.5738 57.339 61.0584 58.0547C61.0584 57.6571 61.7044 57.8161 61.1391 57.1799C61.7852 57.7366 61.8659 57.1004 61.9467 56.7823C61.3814 56.2256 62.0274 56.4642 61.8659 56.1461C62.2697 56.5437 62.0274 56.7823 62.3505 57.1004C62.0274 56.2256 63.481 57.0209 62.5927 55.7484C62.6735 55.7484 62.6735 55.828 62.7542 55.828C62.835 55.828 63.0773 55.9075 63.158 55.9075C62.9965 55.6689 62.835 55.6689 62.835 55.5099C62.9965 55.5099 63.2388 55.828 63.4003 55.9075C63.3195 55.5099 63.481 55.1122 63.0773 54.7146C63.2388 54.7941 63.5618 54.9532 63.5618 55.1122C63.481 54.5555 63.8848 54.9532 63.9656 54.476C63.8848 54.5555 64.3693 54.9532 64.0463 54.9532C64.7731 55.4303 64.3693 54.476 64.8539 54.5555L64.5308 54.0784C64.6116 53.9193 65.0154 54.2374 65.0154 54.476C65.4999 54.476 65.3384 54.1579 65.4999 53.9989C65.5807 53.9989 65.6614 54.0784 65.5807 54.1579L65.8229 53.9193C65.7422 53.8398 65.6614 53.5217 65.3384 53.2831C65.4192 53.5217 65.4999 53.6807 65.2576 53.6807Z" fill="#290B01"/>
<path d="M61.3813 53.6807C61.4621 53.7602 61.5428 53.7602 61.6236 53.7602C61.5428 53.7602 61.4621 53.6807 61.3813 53.6807Z" fill="#290B01"/>
<path d="M66.469 50.2609C65.7422 49.7837 66.469 50.4995 66.146 50.4995C66.146 50.3404 65.7422 50.0223 65.4999 49.9428C66.2267 50.738 65.1769 49.9428 65.1769 50.3404C64.9346 50.1018 64.9346 49.9428 64.6116 49.7042C64.6924 50.0223 64.6924 50.2609 65.0961 50.6585C64.9346 50.8971 64.6116 50.8971 64.6116 51.0562C64.5309 50.738 64.2078 50.6585 63.8848 50.1814C64.2886 50.8176 64.6116 51.6924 65.0961 52.4876C64.5309 52.09 64.5309 52.0105 64.0463 51.6129C63.481 51.5333 64.4501 52.09 64.0463 52.1695H64.2078C64.2886 52.4081 64.6924 52.8058 65.0154 53.2034L65.2577 52.8853C65.5807 53.2034 65.3384 53.3624 65.4192 53.442C65.7422 53.9191 65.8229 53.5215 66.146 53.8396C65.9037 53.5215 66.146 53.5215 66.0652 53.3624L66.2267 53.5215C66.5497 53.5215 66.146 53.0443 66.3075 52.9648C66.3882 52.9648 66.3882 53.0443 66.469 53.0443C66.3075 52.8057 66.0652 52.5672 66.0652 52.4081V52.4876C65.7422 52.0105 65.6614 51.5333 65.0154 51.2947L65.4192 51.1357C65.9037 51.6128 66.6305 52.2491 66.469 52.4876L66.6305 52.6467C67.0343 52.7262 66.5497 51.931 66.0652 51.6924C65.0154 50.579 66.3882 51.2152 66.0652 50.579C66.3882 50.8176 66.469 51.0562 66.6305 51.2947C66.6305 51.3743 66.5497 51.4538 66.3075 51.2152C66.2267 51.6924 67.4381 52.0105 67.0343 52.2491C66.7113 52.2491 66.7113 51.6128 66.3882 51.8514L67.115 52.7262C67.1958 52.5672 67.1958 52.3286 67.1958 52.09C67.115 50.8971 68.0033 50.8176 68.0033 50.8176C68.6494 49.7042 69.2954 48.5908 69.8607 47.3979C69.9415 47.0003 70.0222 46.8412 69.1339 46.205C68.8916 46.205 68.8916 46.4436 68.5686 46.1255C68.8916 46.3641 69.0531 46.6027 68.8916 46.7617C68.4879 46.6027 68.8109 46.5231 68.7301 46.5231H68.6494C68.4879 46.3641 68.3264 46.2845 68.4071 46.205C67.7611 46.046 67.6803 46.5231 68.2456 47.0798C67.7611 47.0003 67.7611 46.6027 67.5188 46.3641C66.8728 46.7617 66.7113 47.0798 66.3882 47.6365C67.0343 48.0341 66.7113 47.9546 67.115 48.2727L66.8728 48.1932C67.0343 48.2727 67.3573 48.5908 67.5996 48.5908C66.8728 48.5908 68.1648 49.5451 68.2456 49.9428L67.9226 49.7042C67.8418 49.9428 67.8418 49.9428 67.8418 50.2609C67.0343 50.1018 67.9226 49.9428 67.115 49.4656L67.1958 49.6247C66.9535 49.3861 66.469 48.9089 66.3075 48.6703C66.6305 49.3066 65.8229 48.9089 65.9845 49.4656C65.6614 49.1475 65.5807 48.7499 65.5807 48.6703C65.4999 48.7499 65.5807 49.068 65.2577 48.8294L65.6614 49.1475C65.5807 49.3861 65.2577 48.8294 64.9346 48.6703C64.8539 49.068 66.469 49.7042 66.469 50.2609Z" fill="#290B01"/>
<path d="M62.835 53.8397C62.9157 53.8397 62.9157 53.7602 62.9157 53.6807C62.9157 53.6807 62.835 53.7602 62.835 53.8397Z" fill="#290B01"/>
<path d="M62.8348 52.4081C62.7541 52.3286 62.7541 52.3286 62.6733 52.249C62.6733 52.3286 62.7541 52.3286 62.8348 52.4081Z" fill="#290B01"/>
<path d="M62.3501 51.8516C62.5116 52.0106 62.5116 52.0106 62.6731 52.2492C62.5924 52.0901 62.6731 52.0106 62.3501 51.8516Z" fill="#290B01"/>
<path d="M49.6719 60.3608C49.6719 60.5199 49.6719 60.6789 49.7526 60.838L49.8334 60.5994L49.6719 60.3608Z" fill="#290B01"/>
<path d="M50.2373 60.7584L50.4796 60.9174L50.3181 60.2017C50.1565 60.2812 50.3988 60.6788 50.2373 60.7584Z" fill="#290B01"/>
<path d="M50.8023 60.6788L50.6408 60.2017L50.5601 60.6788L50.7216 60.7584C50.8023 60.9174 50.8831 60.9969 50.8831 61.0765L50.8023 60.6788Z" fill="#290B01"/>
<path d="M50.964 60.5199C50.964 60.4404 50.8833 60.4404 50.8833 60.3608C50.8833 60.4404 50.964 60.5199 50.964 60.5199Z" fill="#290B01"/>
<path d="M51.7714 61.2357C51.6099 61.0766 51.6099 60.7585 51.5292 60.5995C51.2869 60.5199 51.6099 61.2357 51.3676 61.0766C51.4484 60.5995 51.1254 60.838 50.9639 60.5995C51.2061 60.9971 51.4484 61.3152 51.6907 61.3947L51.6099 61.0766C51.6099 60.9176 51.6907 61.1561 51.7714 61.2357Z" fill="#290B01"/>
<path d="M52.3366 60.122L52.4174 60.5992C52.2559 60.3606 52.0944 60.4401 51.8521 60.0425C51.7714 60.122 51.8521 60.3606 51.8521 60.5196C51.6906 60.2811 51.5291 60.122 51.6099 60.5196C52.0944 60.6787 52.0136 60.8377 52.4174 60.8377C52.4174 60.9173 52.4174 60.9173 52.3366 60.9173L52.6597 61.0763C52.4982 60.5196 52.6597 60.4401 52.3366 60.122Z" fill="#290B01"/>
<path d="M52.8213 60.3608C52.6598 60.4404 52.8213 60.9175 52.9828 61.1561L53.1443 60.6789C53.0636 60.6789 52.9828 60.838 52.8213 60.3608Z" fill="#290B01"/>
<path d="M52.9829 60.2813C53.1444 60.5198 53.4674 60.9175 53.3867 60.4403C53.2252 60.5198 52.9829 59.8836 52.9829 60.2813Z" fill="#290B01"/>
<path d="M54.2748 60.1225L53.871 59.9634C53.548 59.4067 53.871 59.7248 53.871 59.4067C53.548 59.4067 53.7095 59.5658 53.7902 60.043C53.7095 60.043 53.7095 60.3611 53.7095 60.5996C53.7902 59.9634 54.517 61.3154 54.2748 60.1225Z" fill="#290B01"/>
<path d="M53.3867 59.8833L53.4675 60.1219L53.5482 59.8833H53.3867Z" fill="#290B01"/>
<path d="M55.3247 60.4401C55.89 60.9968 55.4055 59.8835 55.8092 60.0425C55.8092 60.122 55.89 60.122 55.89 60.2811L56.0515 60.122L56.1323 60.2811C55.89 59.8835 55.9708 59.6449 55.8092 59.3268C55.4055 59.0087 56.0515 59.8835 55.567 59.4858C55.4862 59.2472 55.3247 59.0087 55.3247 58.8496C55.3247 59.0882 55.4862 59.3268 55.567 59.6449C55.4862 59.7244 55.4055 59.4858 55.3247 59.3268C55.3247 59.6449 55.6477 60.2016 55.4055 60.2016C55.0824 59.8835 55.1632 59.6449 55.0017 59.8835C55.4862 60.4401 54.7594 59.8835 54.9209 60.3606C54.6787 60.2811 54.3557 59.963 54.2749 59.7244C54.5172 60.2016 54.6787 60.6787 54.5979 60.9173V60.3606L55.0017 60.9173C55.0017 60.3606 55.0825 60.3606 55.3247 60.4401Z" fill="#290B01"/>
<path d="M55.3247 58.6908C55.3247 58.6113 55.3247 58.6113 55.3247 58.5317C55.244 58.6113 55.244 58.6113 55.3247 58.6908Z" fill="#290B01"/>
<path d="M54.1132 59.4065L54.0324 59.2474L53.9517 59.0884L54.1132 59.4065Z" fill="#290B01"/>
<path d="M55.1632 58.2137C55.0825 58.2137 55.244 58.3728 55.244 58.3728L55.1632 58.0547V58.2137Z" fill="#290B01"/>
<path d="M55.5669 58.5317L55.8092 58.7703L55.7284 58.5317H55.5669Z" fill="#290B01"/>
<path d="M59.0393 56.6232C58.797 56.5437 59.12 56.8618 59.2815 57.1799C59.443 57.1004 58.9585 56.8618 59.0393 56.6232Z" fill="#290B01"/>
<path d="M60.5738 54.7144C60.2508 54.5553 60.4931 55.0325 60.3315 55.112C60.5738 55.112 60.5738 54.9529 60.5738 54.7144Z" fill="#290B01"/>
<path d="M60.251 52.8853C60.3317 53.0443 60.3317 53.1238 60.4125 53.1238L60.897 53.8396C61.22 53.8396 60.4932 53.1238 60.251 52.8853Z" fill="#290B01"/>
<path d="M60.9775 52.0103L61.0583 52.3284L61.139 52.2488C61.3006 52.4874 61.3813 52.6465 61.5428 52.885C61.5428 52.726 61.4621 52.4079 60.9775 52.0103Z" fill="#290B01"/>
<path d="M61.543 53.2035V53.124C61.4622 53.0444 61.3814 52.9649 61.543 53.2035Z" fill="#290B01"/>
<path d="M61.6237 53.0444C61.6237 53.0444 61.6237 52.9648 61.543 52.9648C61.543 52.9648 61.543 53.0444 61.6237 53.0444C61.7045 53.1239 61.6237 53.1239 61.6237 53.0444Z" fill="#290B01"/>
<path d="M61.3813 52.1697L61.5428 51.8516H61.3813C61.7044 52.2492 61.0583 51.772 61.3813 52.1697Z" fill="#290B01"/>
<path d="M62.835 51.2948L63.2387 51.6129C63.481 51.5334 62.835 50.6586 63.481 51.0562C63.158 50.8971 63.158 50.579 62.9157 50.6586C63.2387 51.0562 63.0772 51.2948 62.835 51.2948Z" fill="#290B01"/>
<path d="M63.8849 51.215C63.9656 51.3741 64.0464 51.3741 64.2079 51.4536C64.2886 51.4536 64.2079 51.215 63.9656 51.1355C64.4502 51.6127 63.6426 50.8969 63.8849 51.215Z" fill="#290B01"/>
<path d="M64.5305 50.4996C64.5305 50.5791 64.4498 50.6586 64.6113 50.6586C64.692 50.4996 64.2075 50.1815 64.046 49.9429C63.723 49.7838 64.2075 50.4201 64.5305 50.4996Z" fill="#290B01"/>
<path d="M65.4997 49.3862H65.4189L65.9035 49.8634L65.4997 49.3862Z" fill="#290B01"/>
</g>
</g>
<mask id="mask1_37_5670" style="mask-type:luminance" maskUnits="userSpaceOnUse" x="46" y="140" width="121" height="45">
<path d="M162.164 153.646C156.188 146.966 155.057 140.047 155.057 140.047C155.057 140.047 155.057 140.047 155.057 140.126V140.206C155.219 141.16 155.3 142.194 155.38 143.148C156.188 150.544 156.269 156.429 156.107 160.883C156.915 160.406 157.561 160.008 157.965 159.531C158.288 159.213 158.611 158.974 158.772 158.736L157.884 159.849L155.946 162.394C155.623 167.722 154.977 170.426 154.977 170.426C154.977 170.426 79.5514 183.707 76.402 166.37C76.1597 165.177 75.8367 163.984 75.4329 162.712C69.5378 163.11 64.3695 163.825 60.4932 165.177C43.8577 170.824 45.7958 184.741 48.8645 184.741C52.014 184.741 48.8645 184.741 59.7664 184.741H142.056C172.501 184.741 168.14 160.326 162.164 153.646ZM158.853 158.736L159.499 157.861C159.418 157.94 159.257 158.259 158.853 158.736Z" fill="white"/>
</mask>
<g mask="url(#mask1_37_5670)">
<g opacity="0.78">
<path d="M157.319 151.817C157.238 151.817 157.157 151.737 157.157 151.737C157.157 151.817 157.238 151.817 157.319 151.817Z" fill="#290B01"/>
<path d="M156.834 156.986L157.076 157.065C156.996 156.906 156.915 156.906 156.834 156.986Z" fill="#290B01"/>
<path d="M155.703 151.34C155.623 151.26 155.542 151.26 155.38 151.181L155.703 151.34Z" fill="#290B01"/>
<path d="M154.734 151.817C154.654 151.817 154.654 151.817 154.573 151.817C154.654 151.896 154.654 151.896 154.734 151.817Z" fill="#290B01"/>
<path d="M157.722 146.886V146.807H157.641C157.561 146.807 157.641 146.886 157.722 146.886Z" fill="#290B01"/>
<path d="M157.399 147.045C157.319 146.965 157.319 146.965 157.399 147.045Z" fill="#290B01"/>
<path d="M158.368 147.363C158.288 147.363 158.207 147.284 158.126 147.284C158.287 147.284 158.288 147.363 158.368 147.363Z" fill="#290B01"/>
<path d="M156.834 158.895C156.834 158.975 156.915 158.975 156.915 159.054C156.995 158.895 156.995 158.895 156.834 158.895Z" fill="#290B01"/>
<path d="M157.561 148.556C156.834 148.556 157.561 148.397 156.834 148.397C156.996 148.477 157.076 148.556 156.753 148.636C156.35 148.556 156.834 148.477 156.188 148.397L156.43 148.556C156.107 148.636 155.623 148.477 155.703 148.556C156.511 148.715 155.38 148.954 155.461 149.113L155.38 149.033L154.977 149.192C154.977 149.192 154.977 149.192 154.896 149.192C154.977 149.192 154.977 149.192 155.057 149.192C154.654 149.272 154.331 149.431 154.411 149.59C154.896 149.67 154.573 150.147 154.977 150.226C154.896 150.147 154.815 150.067 154.977 149.988H155.542C155.542 150.147 154.977 149.988 155.38 150.147C156.188 150.147 155.38 149.908 155.461 149.829C155.623 149.908 155.784 149.908 155.865 149.988C155.865 149.749 156.188 149.511 155.38 149.351C155.542 149.272 155.865 149.351 155.946 149.351C155.461 149.192 156.43 149.272 155.946 149.113C156.673 149.192 156.35 149.431 156.753 149.59C156.188 149.749 156.673 150.067 156.834 150.306C156.269 150.306 155.865 150.147 155.542 150.226C155.219 150.465 155.784 150.465 156.107 150.624C155.946 150.783 155.219 150.624 155.219 150.862L154.896 150.703C154.169 150.862 155.219 150.862 155.057 150.942C155.219 150.942 155.461 150.942 155.461 150.783C155.703 150.783 155.865 150.862 155.865 150.942C156.269 151.022 156.592 151.022 156.43 151.181C156.026 151.101 156.107 151.34 155.865 151.34L155.784 151.26C155.946 151.419 155.865 151.499 155.946 151.578H155.865C156.026 151.658 156.592 151.737 156.511 151.817C156.269 151.817 155.703 151.658 155.784 151.817C155.461 151.817 155.461 151.658 155.542 151.499C155.38 151.658 154.896 151.658 154.815 151.499C154.411 151.499 154.977 151.658 154.815 151.737C154.977 151.737 155.057 151.737 155.219 151.737C154.654 151.737 155.138 152.055 155.542 152.055L155.219 151.896C155.703 151.896 155.946 152.055 156.269 152.055C155.542 152.135 156.592 152.453 156.026 152.533L156.43 152.453C156.188 152.771 156.996 153.089 157.238 153.407C156.996 153.328 156.188 153.248 156.511 153.089C156.35 153.407 155.703 153.169 155.3 153.248C154.977 153.487 156.026 153.407 156.269 153.487L156.107 153.328C156.996 153.566 155.865 153.964 156.43 154.282C156.188 154.282 156.269 154.203 156.188 154.203C155.703 154.362 156.269 154.362 156.43 154.441C156.35 154.6 156.107 154.759 155.542 154.68C155.38 154.839 155.865 154.68 156.107 154.759H155.946L156.592 154.918C156.43 155.077 156.107 155.236 155.542 155.316C155.623 155.634 156.834 155.475 157.076 155.714C156.753 155.873 156.673 155.714 156.43 155.634L156.511 155.873C155.865 155.793 156.188 155.634 155.461 155.634C156.188 155.793 155.703 155.873 156.188 156.111H156.269C156.753 156.191 156.43 156.509 156.511 156.588C156.188 156.509 156.188 156.35 156.026 156.27C155.784 156.429 156.026 156.827 156.673 156.986C156.592 157.066 156.269 157.304 156.026 157.145C155.946 157.463 156.996 157.304 156.753 157.543H156.269C155.542 157.861 156.915 158.179 156.269 158.418H156.915C156.673 158.497 156.511 158.577 156.269 158.656L156.026 158.497C155.542 158.656 156.511 158.656 156.188 158.815C156.35 158.815 156.834 158.656 156.996 158.656C156.673 158.02 157.561 157.384 156.915 156.747C156.834 156.747 156.753 156.827 156.673 156.747C156.834 156.668 156.673 156.509 156.996 156.588H157.076C156.915 156.429 157.722 156.27 157.722 156.191C157.319 156.111 157.884 155.873 157.157 155.952L157.642 155.873C157.399 155.873 156.996 155.873 156.915 155.793C156.996 155.714 157.238 155.714 157.48 155.793C157.803 155.396 157.722 154.839 157.48 154.362L157.803 154.521C157.965 154.441 157.238 154.123 158.045 154.203C157.722 153.964 158.288 153.646 157.399 153.566C158.288 153.407 157.803 153.01 157.642 152.771C156.834 152.851 157.399 152.533 157.076 152.453C157.642 152.453 157.722 152.692 158.045 152.692C157.157 152.374 158.691 151.817 157.238 151.658C157.319 151.658 157.399 151.658 157.399 151.658C157.399 151.578 157.642 151.499 157.722 151.499C157.48 151.419 157.319 151.578 157.238 151.419C157.319 151.34 157.722 151.34 157.884 151.34C157.561 151.101 157.399 150.783 156.834 150.703C156.996 150.624 157.319 150.544 157.48 150.624C156.996 150.226 157.561 150.306 157.319 149.908C157.319 150.067 157.965 149.988 157.722 150.147C158.611 149.988 157.561 149.59 158.045 149.351L157.48 149.192C157.399 149.033 157.884 149.033 158.126 149.113C158.449 148.795 158.126 148.636 158.126 148.477C158.207 148.477 158.288 148.477 158.288 148.477V148.159C158.126 148.159 157.884 148 157.48 148C157.561 148.318 157.722 148.397 157.561 148.556Z" fill="#290B01"/>
<path d="M154.734 151.101C154.896 151.101 154.977 151.021 154.977 151.021C154.896 151.101 154.815 151.101 154.734 151.101Z" fill="#290B01"/>
<path d="M156.349 145.216C155.542 145.216 156.511 145.455 156.269 145.534C156.107 145.375 155.623 145.455 155.38 145.455C156.43 145.614 155.138 145.614 155.38 145.932C155.057 145.932 154.977 145.773 154.573 145.773C154.815 145.932 154.977 146.25 155.623 146.25C155.623 146.568 155.38 146.727 155.461 146.886C155.219 146.648 154.815 146.807 154.331 146.648C155.057 146.886 155.865 147.363 156.753 147.682C156.107 147.682 156.026 147.682 155.38 147.682C154.896 148 156.026 147.761 155.784 148.079L155.946 147.92C156.107 148.079 156.753 148.079 157.238 148.159L157.157 147.761C157.642 147.761 157.561 148 157.642 148.079C158.207 148.238 158.045 147.92 158.449 147.92C158.126 147.841 158.207 147.682 158.045 147.602H158.288C158.53 147.443 157.965 147.284 157.965 147.125C158.045 147.125 158.126 147.125 158.126 147.125C157.884 147.045 157.48 146.966 157.399 146.886V146.966C156.834 146.807 156.43 146.489 155.784 146.648L155.946 146.25C156.592 146.33 157.561 146.409 157.642 146.648H157.884C158.288 146.489 157.399 146.171 156.834 146.25C155.3 146.011 156.834 145.693 156.188 145.375C156.592 145.375 156.753 145.534 157.076 145.614C157.157 145.693 157.157 145.773 156.753 145.773C156.995 146.171 158.126 145.773 157.965 146.171C157.722 146.33 157.318 145.932 157.238 146.171L158.368 146.409C158.368 146.25 158.126 146.091 158.045 145.932C157.318 145.057 157.965 144.5 157.965 144.5L157.722 140.842C157.561 140.445 157.642 140.286 156.511 140.126C156.269 140.206 156.349 140.445 155.946 140.365C156.349 140.445 156.592 140.604 156.592 140.763C156.188 140.763 156.43 140.604 156.269 140.604C156.026 140.604 155.946 140.524 155.865 140.445C155.219 140.604 155.3 141.081 156.107 141.24C155.703 141.399 155.461 141.081 155.138 141.001C154.815 141.637 154.815 142.035 154.815 142.751C155.542 142.751 155.3 142.83 155.784 142.91L155.542 142.989C155.703 142.989 156.188 143.069 156.349 142.989C155.784 143.308 157.318 143.467 157.642 143.705H157.238C157.318 143.944 157.318 143.944 157.48 144.182C156.753 144.5 157.399 143.864 156.43 143.944L156.592 144.023C156.269 143.944 155.623 143.864 155.3 143.785C155.946 144.103 155.057 144.262 155.542 144.58C155.138 144.5 154.815 144.182 154.734 144.103C154.654 144.182 154.977 144.421 154.573 144.421L155.138 144.5C155.219 144.739 154.654 144.421 154.331 144.5C154.331 145.137 156.026 144.739 156.349 145.216Z" fill="#290B01"/>
<path d="M155.865 150.226C155.946 150.147 155.865 150.147 155.865 150.067C155.865 150.067 155.865 150.147 155.865 150.226Z" fill="#290B01"/>
<path d="M154.088 149.033C154.331 149.033 154.331 149.113 154.654 149.113C154.492 149.113 154.492 148.954 154.088 149.033Z" fill="#290B01"/>
<path d="M154.169 165.018C154.33 165.018 154.492 165.177 154.653 165.177L154.492 165.018H154.169Z" fill="#290B01"/>
<path d="M154.815 164.62L155.057 164.461L154.33 164.382C154.25 164.541 154.734 164.461 154.815 164.62Z" fill="#290B01"/>
<path d="M155.219 164.144L155.38 164.223C155.3 164.144 155.219 164.144 155.219 164.144Z" fill="#290B01"/>
<path d="M154.896 164.143L154.331 164.064L154.734 164.303L154.896 164.143C155.057 164.223 155.138 164.143 155.219 164.143L154.815 164.064C154.815 164.064 154.896 164.064 154.896 164.143Z" fill="#290B01"/>
<path d="M155.865 163.428C155.703 163.507 155.38 163.348 155.138 163.348C154.896 163.507 155.703 163.507 155.461 163.666C155.057 163.428 155.138 163.746 154.815 163.825C155.299 163.746 155.623 163.666 155.784 163.507H155.461C155.461 163.428 155.703 163.507 155.865 163.428Z" fill="#290B01"/>
<path d="M154.977 162.474L155.461 162.633C155.219 162.633 155.219 162.871 154.734 162.871C154.815 162.951 155.057 162.951 155.138 163.03C154.896 163.11 154.654 163.11 155.057 163.189C155.38 162.792 155.542 162.951 155.703 162.633C155.784 162.633 155.784 162.712 155.784 162.712L156.026 162.474C155.461 162.474 155.38 162.235 154.977 162.474Z" fill="#290B01"/>
<path d="M155.38 162.155C155.38 162.314 155.865 162.394 156.188 162.314L155.784 161.996C155.784 162.076 155.865 162.235 155.38 162.155Z" fill="#290B01"/>
<path d="M155.381 161.917C155.623 161.837 156.188 161.758 155.704 161.599C155.784 161.837 155.058 161.758 155.381 161.917Z" fill="#290B01"/>
<path d="M155.865 160.724L155.542 161.042C154.896 161.121 155.3 160.883 155.057 160.803C154.896 161.042 155.138 160.962 155.542 161.201C155.542 161.28 155.865 161.36 156.026 161.519C155.461 161.042 157.076 161.042 155.865 160.724Z" fill="#290B01"/>
<path d="M155.219 161.36L155.461 161.44L155.219 161.281V161.36Z" fill="#290B01"/>
<path d="M156.592 160.008C157.4 159.849 156.188 159.61 156.511 159.451C156.592 159.451 156.592 159.451 156.673 159.531L156.592 159.372H156.753C156.269 159.372 156.107 159.213 155.784 159.133C155.3 159.292 156.35 159.213 155.784 159.372C155.542 159.292 155.219 159.292 155.058 159.292C155.3 159.372 155.542 159.451 155.865 159.451C155.946 159.61 155.623 159.531 155.461 159.531C155.704 159.69 156.43 159.69 156.269 159.849C155.865 160.008 155.623 159.77 155.784 160.008C156.511 159.929 155.704 160.247 156.107 160.326C155.946 160.485 155.542 160.644 155.219 160.565C155.784 160.565 156.269 160.724 156.43 160.803L155.946 160.485L156.592 160.406C156.43 160.247 156.43 160.088 156.592 160.008Z" fill="#290B01"/>
<path d="M155.138 159.133C155.057 159.133 155.057 159.133 154.977 159.054C154.977 159.133 155.057 159.133 155.138 159.133Z" fill="#290B01"/>
<path d="M155.138 160.565L154.977 160.485L154.734 160.565H155.138Z" fill="#290B01"/>
<path d="M154.654 158.975C154.654 158.975 154.896 159.054 154.896 158.975L154.573 158.895L154.654 158.975Z" fill="#290B01"/>
<path d="M155.058 158.815L155.461 158.735L155.138 158.656L155.058 158.815Z" fill="#290B01"/>
<path d="M155.461 154.918C155.219 155.078 155.703 154.998 156.026 155.078C156.107 154.839 155.622 155.078 155.461 154.918Z" fill="#290B01"/>
<path d="M154.896 152.453C154.573 152.612 155.057 152.692 155.057 152.851C155.299 152.771 155.138 152.533 154.896 152.453Z" fill="#290B01"/>
<path d="M153.361 151.34C153.523 151.34 153.604 151.419 153.684 151.34L154.492 151.499C154.734 151.34 153.765 151.34 153.361 151.34Z" fill="#290B01"/>
<path d="M153.281 150.147L153.604 150.386V150.306C153.927 150.386 154.088 150.386 154.331 150.465C154.169 150.306 153.846 150.147 153.281 150.147Z" fill="#290B01"/>
<path d="M154.492 150.624C154.331 150.545 154.25 150.624 154.492 150.624Z" fill="#290B01"/>
<path d="M154.492 150.465H154.411C154.411 150.465 154.411 150.544 154.492 150.465C154.573 150.544 154.573 150.544 154.492 150.465Z" fill="#290B01"/>
<path d="M153.685 150.067L153.604 149.749L153.442 149.908C153.927 149.829 153.119 149.988 153.685 150.067Z" fill="#290B01"/>
<path d="M154.169 148.317H154.653C154.734 148.079 153.684 147.84 154.492 147.681C154.169 147.761 153.927 147.522 153.765 147.761C154.25 147.84 154.25 148.158 154.169 148.317Z" fill="#290B01"/>
<path d="M154.896 147.522C155.057 147.522 155.138 147.522 155.299 147.522C155.38 147.443 155.138 147.363 154.896 147.363C155.542 147.443 154.492 147.443 154.896 147.522Z" fill="#290B01"/>
<path d="M154.896 146.568C154.896 146.647 154.976 146.727 155.057 146.647C155.057 146.488 154.492 146.488 154.169 146.409C153.846 146.488 154.653 146.647 154.896 146.568Z" fill="#290B01"/>
<path d="M158.611 145.216C158.207 145.216 158.207 145.375 158.368 145.375C158.288 145.375 158.368 145.216 158.611 145.216Z" fill="#290B01"/>
<path d="M155.057 145.057L154.977 145.137L155.623 145.216L155.057 145.057Z" fill="#290B01"/>
<path d="M154.734 143.944L154.331 143.785L154.411 144.023L154.734 143.944Z" fill="#290B01"/>
<path d="M154.896 143.705V143.546L154.735 143.625C154.573 143.705 154.815 143.625 154.896 143.705Z" fill="#290B01"/>
<path d="M154.815 143.148C154.815 143.148 154.815 143.148 154.734 143.228L154.977 143.387L154.815 143.148Z" fill="#290B01"/>
<path d="M157.561 140.286C157.965 140.365 157.722 140.206 157.803 140.126C157.722 140.126 157.157 140.206 157.561 140.286Z" fill="#290B01"/>
</g>
</g>
<mask id="mask2_37_5670" style="mask-type:luminance" maskUnits="userSpaceOnUse" x="70" y="114" width="36" height="49">
<path d="M104.263 162.791C94.3298 162.314 84.1546 162.076 75.5138 162.632C74.3833 159.451 72.6067 156.191 70.4263 152.93C71.8799 150.942 73.3334 148.954 74.9485 146.965C85.8505 133.366 89.323 120.324 90.292 114.439C95.6219 122.63 108.22 144.5 104.263 162.791Z" fill="white"/>
</mask>
<g mask="url(#mask2_37_5670)">
<g opacity="0.78">
<path d="M76.4019 142.591C76.4826 142.671 76.5634 142.75 76.7249 142.909C76.7249 142.83 76.6441 142.75 76.4019 142.591Z" fill="#290B01"/>
<path d="M80.6821 136.309L80.2783 136.07C80.3591 136.229 80.5206 136.309 80.6821 136.309Z" fill="#290B01"/>
<path d="M78.9863 144.898C79.0671 145.057 79.1478 145.137 79.3901 145.375L78.9863 144.898Z" fill="#290B01"/>
<path d="M71.6376 147.601C71.5568 147.522 71.5568 147.522 71.4761 147.442C71.4761 147.522 71.5568 147.522 71.6376 147.601Z" fill="#290B01"/>
<path d="M72.0412 148.477C71.9605 148.477 71.9604 148.556 71.9604 148.556L72.0412 148.636C72.122 148.715 72.0412 148.556 72.0412 148.477Z" fill="#290B01"/>
<path d="M75.4331 154.998L75.8369 155.316C75.6754 155.157 75.5946 155.077 75.4331 154.998Z" fill="#290B01"/>
<path d="M71.1528 147.125C71.2336 147.204 71.3143 147.284 71.4759 147.443C71.3951 147.363 71.3951 147.284 71.1528 147.125Z" fill="#290B01"/>
<path d="M76.2402 142.433C76.321 142.512 76.4017 142.512 76.4017 142.592C76.321 142.512 76.2402 142.512 76.2402 142.433Z" fill="#290B01"/>
<path d="M81.6512 133.684C81.6512 133.605 81.6512 133.525 81.5705 133.446C81.409 133.525 81.4897 133.605 81.6512 133.684Z" fill="#290B01"/>
<path d="M73.6565 146.647C75.0293 147.442 73.5757 146.886 74.787 147.681C74.6255 147.363 74.464 147.204 75.1908 147.522C75.8368 148.079 74.9485 147.761 75.9984 148.476L75.6753 147.999C76.3214 148.238 77.0482 148.953 77.0482 148.794C75.6753 147.681 77.9365 148.635 77.8557 148.317L77.9365 148.476L78.8248 148.635C78.8248 148.635 78.9055 148.635 78.9055 148.715C78.8248 148.635 78.744 148.635 78.6633 148.556C79.4708 148.874 80.1169 149.033 80.1169 148.715C79.3093 148.079 80.2784 147.84 79.6323 147.283C79.7938 147.522 79.7131 147.601 79.4708 147.601L78.5018 146.965C78.6633 146.727 79.4708 147.522 78.9863 146.965C77.6134 146.17 78.8248 147.283 78.5825 147.283C78.2595 147.045 78.098 146.806 78.0172 146.647C77.775 146.886 77.1289 146.886 78.3403 147.92C78.0172 147.84 77.4519 147.442 77.3712 147.283C78.0172 147.999 76.4829 146.965 77.1289 147.601C75.9176 146.727 76.7251 146.727 76.1599 146.09C77.3712 146.409 76.6444 145.534 76.5636 145.136C77.5327 145.693 78.1787 146.409 78.8248 146.568C79.6323 146.647 78.5018 145.931 78.098 145.454C78.5825 145.454 79.7131 146.409 79.9554 146.09L80.4399 146.647C81.8935 147.204 80.0361 146.17 80.3591 146.17C79.9554 146.011 79.6323 145.852 79.5516 146.011C79.0671 145.772 78.9055 145.454 78.9055 145.375H78.8248C78.1787 144.898 77.5327 144.5 78.0172 144.5C78.744 145.136 78.744 144.659 79.1478 144.818L79.3093 144.977C79.1478 144.659 79.3093 144.579 79.2286 144.341L79.3901 144.5C79.1478 144.182 78.1787 143.546 78.5018 143.546C78.9055 143.784 79.8746 144.579 79.7938 144.341C80.3591 144.739 80.2784 144.977 79.9554 144.977C80.2784 144.898 81.3282 145.375 81.2474 145.613C82.055 146.011 81.0052 145.216 81.4897 145.295C81.2474 145.216 81.0052 144.977 80.7629 144.898C81.8127 145.454 81.0859 144.5 80.3591 144.102L80.8437 144.659C80.0361 144.182 79.6323 143.625 79.067 143.466C80.4399 144.102 78.744 142.591 79.8746 143.068L79.1478 142.75C79.7938 142.512 78.5018 141.398 78.3403 140.762C78.6633 141.16 80.1169 141.876 79.4708 141.876C79.9554 141.637 81.0052 142.512 81.8127 142.75C82.5395 142.671 80.5206 141.876 80.1169 141.557L80.2784 141.955C78.744 140.762 81.0859 141.319 80.2784 140.285C80.7629 140.444 80.5206 140.524 80.6014 140.683C81.5704 140.921 80.5206 140.365 80.2784 140.126C80.5206 139.967 81.0859 139.967 82.055 140.603C82.4588 140.524 81.4089 140.285 81.0859 140.046L81.3282 140.126L80.1976 139.331C80.6821 139.331 81.4089 139.331 82.4588 139.728C82.4588 139.172 80.0361 138.376 79.7938 137.899C80.4399 137.979 80.6014 138.297 81.0052 138.535V138.217C82.2165 138.854 81.4897 138.854 82.8625 139.49C81.5705 138.535 82.6203 138.933 81.8127 138.138H81.6512C80.7629 137.581 81.5705 137.502 81.4897 137.263C82.055 137.581 81.9742 137.82 82.1357 138.058C82.701 138.058 82.5395 137.263 81.3282 136.547C81.5705 136.547 82.2165 136.468 82.701 136.865C83.1048 136.468 80.9244 135.911 81.4897 135.672L82.4588 136.07C84.0739 136.15 81.5704 134.718 83.024 134.798L81.8127 134.32C82.378 134.4 82.701 134.32 83.1856 134.48L83.5086 134.877C84.5584 135.036 82.6203 134.32 83.4278 134.32C83.024 134.161 82.1357 134.082 81.732 133.923C82.055 135.036 80.0361 135.195 80.8437 136.547C81.0052 136.547 81.1667 136.627 81.4089 136.706C81.0859 136.706 81.3282 137.024 80.6821 136.706L80.6014 136.627C80.7629 136.945 79.2286 136.547 79.1478 136.706C79.8746 137.183 78.5825 137.024 80.0361 137.502L79.067 137.263C79.5516 137.502 80.1976 137.82 80.4399 138.058C80.2784 138.138 79.7131 137.899 79.3901 137.661C78.5825 137.979 78.421 138.774 78.5018 139.569L77.9365 139.092C77.5327 139.092 78.8248 140.126 77.2097 139.251C77.6942 139.887 76.3214 139.808 78.0172 140.683C76.3214 140.046 76.9674 141.001 76.9674 141.478C78.421 142.194 77.2097 142.035 77.775 142.512C76.6444 141.955 76.8059 141.557 76.1599 141.16C77.6134 142.512 74.3025 141.557 76.9674 143.307C76.8059 143.307 76.7251 143.228 76.6444 143.148C76.5636 143.228 76.0791 143.068 75.9176 143.068C76.4021 143.387 76.7252 143.387 76.7252 143.625C76.5636 143.705 75.8368 143.227 75.4331 143.068C75.9176 143.705 75.9176 144.261 76.9674 144.977C76.6444 144.898 75.9176 144.579 75.7561 144.42C76.3214 145.375 75.3523 144.739 75.5946 145.534C75.6753 145.375 74.464 144.738 75.1101 144.818C73.4949 144.023 74.9485 145.693 73.8987 145.534L74.787 146.25C74.787 146.568 73.8987 146.011 73.6565 145.613C72.8489 145.613 73.3334 146.17 73.0912 146.409C72.9297 146.329 72.7682 146.25 72.8489 146.17L72.5259 146.568C72.7681 146.727 73.0912 147.204 73.7372 147.601C73.4142 146.886 73.0912 146.568 73.6565 146.647Z" fill="#290B01"/>
<path d="M73.8984 147.284L73.9792 147.363C73.9792 147.363 73.9792 147.363 73.8984 147.284Z" fill="#290B01"/>
<path d="M80.6012 146.17C80.359 146.091 80.1975 146.011 80.1167 146.011C80.2782 146.091 80.4397 146.17 80.6012 146.17Z" fill="#290B01"/>
<path d="M73.0104 152.214C74.464 153.168 72.9296 151.816 73.4949 151.896C73.5757 152.214 74.464 152.771 74.8678 153.009C73.1719 151.498 75.433 153.009 75.3523 152.373C75.9983 152.771 75.9176 153.009 76.5636 153.566C76.2406 153.009 76.2406 152.532 75.2715 151.737C75.5138 151.339 76.0791 151.339 76.0791 151.021C76.3214 151.578 77.1289 151.816 77.8557 152.612C76.8059 151.498 75.7561 149.908 74.5447 148.556C75.7561 149.272 75.8368 149.351 76.8866 150.067C77.9365 150.146 75.9176 149.192 76.5636 149.033L76.2406 149.112C75.9983 148.715 74.9485 147.999 74.2217 147.363L74.0602 147.92C73.2527 147.363 73.5757 147.204 73.4142 146.965C72.5259 146.17 72.5259 146.727 71.7991 146.25C72.3644 146.727 72.0413 146.806 72.2836 147.045L71.8798 146.806C71.3145 146.727 72.2836 147.522 72.1221 147.761C71.9606 147.681 71.8798 147.601 71.7991 147.601C72.2028 147.999 72.7681 148.476 72.8489 148.715V148.556C73.7372 149.431 74.0602 150.305 75.3523 150.783L74.7063 151.021C73.6564 150.226 72.0413 148.953 72.0413 148.556L71.5568 148.238C70.83 147.999 72.0413 149.431 73.0912 149.908C75.5946 151.975 72.6874 150.703 73.4949 151.816C72.7681 151.339 72.6066 150.942 72.2028 150.464C72.2028 150.305 72.2028 150.226 72.8489 150.623C72.7681 149.908 70.507 149.112 71.153 148.794C71.7183 148.794 72.1221 149.908 72.4451 149.59L70.5877 147.92C70.507 148.158 70.6685 148.635 70.83 148.953C71.3953 150.862 69.7802 150.783 69.7802 150.783C68.9726 152.373 68.0036 153.964 67.0345 155.475C66.9538 156.111 66.7115 156.19 68.4881 157.94C68.9726 158.179 68.9726 157.781 69.5379 158.338C68.8919 157.701 68.6496 157.224 68.8919 157.065C69.6187 157.622 69.0534 157.542 69.2957 157.622H69.3764C69.6994 157.94 69.9417 158.179 69.861 158.258C71.0723 158.815 71.3145 158.179 70.184 156.906C71.0723 157.224 71.153 157.94 71.5568 158.417C72.6874 158.099 73.0104 157.463 73.7372 156.747C72.5259 155.793 73.0104 156.031 72.2836 155.316L72.7681 155.634C72.5259 155.475 71.7183 154.759 71.3953 154.679C72.6874 154.997 70.184 152.93 69.861 152.214L70.507 152.691C70.5877 152.373 70.5877 152.294 70.4262 151.816C71.9606 152.294 70.3455 152.294 72.0413 153.407L71.8798 153.089C72.4451 153.566 73.4949 154.52 73.8179 154.918C73.0911 153.725 74.6255 154.679 74.2217 153.646C74.9485 154.202 75.1908 154.997 75.1908 155.236C75.3523 155.157 75.0293 154.52 75.7561 154.997L74.8678 154.282C74.9485 153.964 75.6753 154.918 76.3214 155.236C76.4021 154.6 73.1719 153.089 73.0104 152.214Z" fill="#290B01"/>
<path d="M77.8555 146.25C77.694 146.25 77.694 146.329 77.7747 146.488C77.8555 146.409 77.8555 146.409 77.8555 146.25Z" fill="#290B01"/>
<path d="M80.1168 149.669C79.6323 149.431 79.713 149.351 79.2285 148.954C79.39 149.192 79.3093 149.431 80.1168 149.669Z" fill="#290B01"/>
<path d="M89.4845 125.652C89.1615 125.573 88.8385 125.175 88.5962 125.334C88.7577 125.493 88.8385 125.652 89 125.811L89.4845 125.652Z" fill="#290B01"/>
<path d="M88.192 126.289L87.7075 126.527L89.1611 126.925C89.2419 126.607 88.192 126.607 88.192 126.289Z" fill="#290B01"/>
<path d="M87.2234 127.004L86.9004 126.845C87.0619 127.004 87.1427 127.004 87.2234 127.004Z" fill="#290B01"/>
<path d="M87.8692 127.163L88.919 127.481L88.1922 126.925L87.9499 127.084C87.5462 127.004 87.3847 127.084 87.2231 127.084L87.9499 127.322C87.9499 127.243 87.7884 127.163 87.8692 127.163Z" fill="#290B01"/>
<path d="M85.689 127.8C86.0927 127.8 86.658 128.038 87.1425 128.197C87.6271 127.959 86.012 127.641 86.5773 127.482C87.3848 128.038 87.2233 127.482 87.8693 127.402C86.8195 127.323 86.0927 127.323 85.7697 127.561L86.4158 127.72C86.4158 127.959 86.012 127.8 85.689 127.8Z" fill="#290B01"/>
<path d="M87.0616 129.708L86.0925 129.231C86.577 129.31 86.6578 128.913 87.7076 129.151C87.6269 128.992 87.1423 128.833 86.9001 128.674C87.4653 128.674 87.8691 128.674 87.1423 128.436C86.3348 128.833 86.0925 128.595 85.6887 128.992C85.4465 128.913 85.5272 128.913 85.608 128.833L84.9619 128.992C86.1732 129.39 86.1732 129.788 87.0616 129.708Z" fill="#290B01"/>
<path d="M86.1732 129.947C86.1732 129.708 85.2849 129.311 84.5581 129.311L85.2042 130.026C85.2042 129.867 85.2041 129.629 86.1732 129.947Z" fill="#290B01"/>
<path d="M86.0117 130.265C85.4464 130.265 84.3159 130.106 85.2849 130.503C85.2042 130.265 86.7385 130.742 86.0117 130.265Z" fill="#290B01"/>
<path d="M84.558 131.776L85.3656 131.537C86.7384 131.855 85.6886 131.855 86.2539 132.174C86.6576 131.855 86.1731 131.855 85.4463 131.299C85.5271 131.219 84.9618 130.822 84.6388 130.583C85.5271 131.458 82.2969 130.583 84.558 131.776Z" fill="#290B01"/>
<path d="M86.1735 131.22L85.689 130.981L86.012 131.299L86.1735 131.22Z" fill="#290B01"/>
<path d="M82.7815 132.333C81.1664 132.094 83.5083 133.128 82.7007 133.207C82.62 133.128 82.4585 133.128 82.297 132.969L82.3777 133.287L82.0547 133.207C82.943 133.526 83.266 133.923 83.9121 134.321C84.9619 134.4 82.8622 133.764 83.9928 133.923C84.3966 134.162 84.9619 134.4 85.2849 134.559C84.8811 134.241 84.3966 134.003 83.8313 133.764C83.8313 133.526 84.3158 133.764 84.6388 133.923C84.1543 133.526 82.8622 133.048 83.266 132.889C84.1543 132.969 84.4773 133.446 84.3158 132.969C82.7815 132.651 84.6389 132.73 83.7505 132.253C84.1543 132.094 85.0426 132.253 85.6079 132.412C84.4773 132.094 83.589 131.537 83.266 131.219L84.0736 131.935L82.7007 131.617C83.266 132.094 83.1045 132.253 82.7815 132.333Z" fill="#290B01"/>
<path d="M85.2852 134.56C85.3659 134.639 85.4467 134.639 85.5274 134.719C85.5274 134.719 85.4467 134.639 85.2852 134.56Z" fill="#290B01"/>
<path d="M86.0117 132.492L86.254 132.651L86.6577 132.73L86.0117 132.492Z" fill="#290B01"/>
<path d="M86.1733 135.116C86.2541 135.037 85.7695 134.878 85.7695 134.957L86.3348 135.275L86.1733 135.116Z" fill="#290B01"/>
<path d="M85.204 135.036L84.3965 134.877L84.9618 135.196L85.204 135.036Z" fill="#290B01"/>
<path d="M82.0546 140.285C82.6199 140.365 81.7316 139.887 81.0856 139.569C80.7626 139.728 81.8124 139.967 82.0546 140.285Z" fill="#290B01"/>
<path d="M81.3279 144.182C81.9739 144.262 81.2471 143.705 81.4087 143.466C80.8434 143.466 80.9241 143.784 81.3279 144.182Z" fill="#290B01"/>
<path d="M83.2662 147.204C83.024 146.965 82.9432 146.886 82.7817 146.886L81.4089 145.852C80.7628 145.932 82.6202 146.886 83.2662 147.204Z" fill="#290B01"/>
<path d="M82.4587 149.033L82.055 148.397L81.8935 148.476C81.3282 148.079 81.0859 147.84 80.6821 147.442C80.9244 147.84 81.4089 148.397 82.4587 149.033Z" fill="#290B01"/>
<path d="M80.6821 147.125C80.6821 147.204 80.6821 147.204 80.6821 147.284C80.8436 147.363 81.0859 147.443 80.6821 147.125Z" fill="#290B01"/>
<path d="M80.6011 147.363C80.6818 147.443 80.6818 147.443 80.7626 147.522C80.6818 147.443 80.6818 147.363 80.6818 147.284C80.5203 147.204 80.3588 147.125 80.6011 147.363Z" fill="#290B01"/>
<path d="M81.6513 148.795L81.4897 149.352H81.8935C81.0052 148.715 82.5396 149.431 81.6513 148.795Z" fill="#290B01"/>
<path d="M79.3898 150.624L78.5015 150.146C78.0978 150.306 79.7129 151.896 78.2593 151.101C78.9053 151.339 79.0668 151.976 79.5514 151.817C78.8246 151.18 79.0668 150.703 79.3898 150.624Z" fill="#290B01"/>
<path d="M77.3708 150.783C77.1286 150.544 76.9671 150.544 76.644 150.385C76.4825 150.385 76.8055 150.783 77.2093 150.942C76.1595 150.147 78.0169 151.34 77.3708 150.783Z" fill="#290B01"/>
<path d="M76.6445 152.135C76.6445 152.055 76.6445 151.896 76.4022 151.816C76.3215 152.055 77.2905 152.691 77.775 153.168C78.3403 153.327 77.2098 152.294 76.6445 152.135Z" fill="#290B01"/>
<path d="M75.0292 153.884H75.2715L74.2217 153.009L75.0292 153.884Z" fill="#290B01"/>
<path d="M74.5444 155.634L75.1097 156.35L75.1905 156.032L74.5444 155.634Z" fill="#290B01"/>
<path d="M74.2216 155.793L74.0601 156.032L74.3831 156.191C74.7061 156.27 74.1408 155.872 74.2216 155.793Z" fill="#290B01"/>
<path d="M73.8181 156.588C73.7373 156.508 73.8988 156.588 74.0603 156.668L73.7373 156.111L73.8181 156.588Z" fill="#290B01"/>
</g>
</g>
</svg>
