<svg width="230" height="191" viewBox="0 0 230 191" fill="none" xmlns="http://www.w3.org/2000/svg">
<path d="M24.5547 186.208C22.6166 185.174 217.075 183.345 228.381 186.208C236.537 188.276 206.98 190.344 172.175 190.264C135.189 190.264 92.2274 188.037 80.1949 189.23C56.6952 191.536 31.0958 189.787 24.5547 186.208Z" fill="#1B1C1E"/>
<path d="M46.1968 187.48C46.1968 187.48 60.4904 187.48 61.2172 187.48C61.944 187.48 70.181 167.122 70.181 167.122C70.181 167.122 71.7154 142.071 78.4988 121.871C85.2822 101.671 86.8166 86.5609 86.009 76.62L51.9304 62.3052C51.9304 62.3052 51.9304 67.3949 51.9304 75.3476C51.9304 83.3003 54.5953 92.2073 60.5712 108.828L61.8633 167.599L56.8565 181.277C56.9372 181.357 46.6813 180.641 46.1968 187.48Z" fill="#AA8C7D"/>
<mask id="mask0_37_2180" style="mask-type:luminance" maskUnits="userSpaceOnUse" x="46" y="62" width="41" height="126">
<path d="M46.1968 187.48C46.1968 187.48 60.4904 187.48 61.2172 187.48C61.944 187.48 70.181 167.122 70.181 167.122C70.181 167.122 71.7154 142.071 78.4988 121.871C85.2822 101.671 86.8166 86.5609 86.009 76.62L51.9304 62.3052C51.9304 62.3052 51.9304 67.3949 51.9304 75.3476C51.9304 83.3003 54.5953 92.2073 60.5712 108.828L61.8633 167.599L56.8565 181.277C56.9372 181.357 46.6813 180.641 46.1968 187.48Z" fill="white"/>
</mask>
<g mask="url(#mask0_37_2180)">
<g opacity="0.88">
<path d="M76.3184 114.952C76.3184 115.031 76.3184 115.19 76.3991 115.27C76.4799 115.27 76.3991 115.111 76.3184 114.952Z" fill="#322015"/>
<path d="M86.0898 113.679L86.2514 113.282C86.0898 113.441 86.0898 113.52 86.0898 113.679Z" fill="#322015"/>
<path d="M77.2068 117.576C77.2068 117.656 77.2068 117.815 77.3683 118.053L77.2068 117.576Z" fill="#322015"/>
<path d="M69.7773 120.837L69.6965 120.757C69.6965 120.837 69.6965 120.837 69.7773 120.837Z" fill="#322015"/>
<path d="M70.0195 121.712C69.9387 121.712 69.9387 121.791 69.9387 121.871L70.0195 121.95C70.1002 121.95 70.0195 121.791 70.0195 121.712Z" fill="#322015"/>
<path d="M73.0881 127.199L73.4112 127.358C73.3304 127.358 73.1689 127.279 73.0881 127.199Z" fill="#322015"/>
<path d="M69.4541 120.519C69.5349 120.598 69.6156 120.678 69.6964 120.757C69.6156 120.678 69.6156 120.519 69.4541 120.519Z" fill="#322015"/>
<path d="M76.2378 114.793C76.2378 114.872 76.3185 114.872 76.3185 114.952C76.3185 114.872 76.3185 114.793 76.2378 114.793Z" fill="#322015"/>
<path d="M71.7961 119.326C72.846 119.962 71.6346 119.644 72.6037 120.28C72.5229 120.042 72.4422 119.803 72.9267 120.042C73.4112 120.519 72.6844 120.28 73.492 120.916L73.3305 120.519C73.815 120.678 74.3803 121.314 74.3803 121.155C73.4112 120.201 75.1879 120.916 75.1879 120.678L75.2686 120.837L75.9954 120.996C75.9954 120.996 75.9954 120.996 76.0761 121.075C75.9954 120.996 75.9954 120.996 75.9146 120.916C76.5607 121.234 77.0452 121.394 77.0452 121.075C76.803 120.757 76.8837 120.598 76.9645 120.439C77.0452 120.28 77.2067 120.121 76.9645 119.803C77.0452 120.042 76.9645 120.042 76.7222 120.042L76.0761 119.405C76.2377 119.246 76.7222 119.962 76.4799 119.405C75.5109 118.61 76.2377 119.644 75.9954 119.644C75.8339 119.405 75.6724 119.167 75.6724 119.008C75.3494 119.246 74.8648 119.246 75.6724 120.201C75.4301 120.121 75.0263 119.723 74.9456 119.564C75.3494 120.201 74.2188 119.246 74.6226 119.883C73.7343 119.087 74.5418 119.087 74.138 118.451C75.0263 118.769 74.7033 117.894 74.9456 117.417C75.5916 117.974 75.9146 118.69 76.3992 118.928C77.0452 119.087 76.3184 118.371 76.1569 117.815C76.5607 117.815 77.126 118.849 77.5297 118.61L77.772 119.167C78.7411 119.882 77.6105 118.69 77.9335 118.769C77.6913 118.531 77.449 118.371 77.3682 118.451C77.0452 118.133 77.0452 117.894 77.0452 117.815H76.9645C76.6414 117.338 76.2377 116.781 76.6414 116.86C76.9645 117.497 77.126 117.099 77.449 117.338V117.497C77.449 117.179 77.6913 117.179 77.6913 116.94L77.772 117.099C77.6913 116.781 77.2875 115.986 77.5297 116.065C77.6913 116.383 78.0143 117.338 78.1758 117.02C78.4181 117.497 78.2565 117.656 78.0143 117.576C78.3373 117.576 78.9026 118.292 78.7411 118.451C79.2256 118.928 78.7411 118.053 79.0641 118.292C78.9026 118.133 78.8218 117.894 78.6603 117.735C79.2256 118.531 79.0641 117.576 78.7411 117.02L78.8218 117.576C78.4181 116.94 78.418 116.383 78.095 116.065C78.8218 117.02 78.4181 115.19 79.0641 115.986L78.6603 115.509C79.3064 115.588 79.1448 114.157 79.7101 113.679C79.6294 114.077 80.0332 115.27 79.5486 115.031C80.1139 115.111 80.1947 116.145 80.5177 116.701C81.0022 117.02 80.2754 115.509 80.2754 115.111L80.1139 115.429C80.0331 114.713 80.3562 114.634 80.6792 114.713C81.0022 114.713 81.406 114.952 81.5675 114.395C81.6483 114.793 81.4868 114.634 81.4868 114.793C81.8905 115.509 81.729 114.554 81.8098 114.236C82.1328 114.316 82.4558 114.634 82.4558 115.509C82.7788 115.747 82.3751 114.952 82.4558 114.634L82.5366 114.872C82.6173 114.554 82.6981 114.157 82.7788 113.838C83.1018 114.157 83.4249 114.554 83.5056 115.509C84.0709 115.349 83.6671 113.441 84.1517 113.043C84.3939 113.52 84.0709 113.759 84.0709 114.077L84.4747 113.998C84.3132 115.031 83.9902 114.475 83.9902 115.747C84.3132 114.554 84.3939 115.429 84.8785 114.634V114.554C85.1207 113.759 85.5245 114.395 85.8475 114.236C85.686 114.713 85.363 114.713 85.2015 114.872C85.4437 115.27 86.0898 115.031 86.5743 113.998C86.7358 114.157 86.9781 114.713 86.6551 115.111C87.1396 115.429 87.2204 113.679 87.6241 114.077L87.3819 114.872C87.5434 116.145 88.6739 114.157 88.8355 115.349L89.2392 114.395C89.2392 114.793 89.32 115.111 89.2392 115.429L88.9162 115.668C88.8355 116.542 89.4007 115.031 89.4815 115.668C89.5623 115.349 89.643 114.713 89.7238 114.395C89.0777 114.475 88.674 114.077 88.1087 113.759C87.6241 113.441 87.0589 113.202 86.3321 113.6C86.3321 113.759 86.4128 113.838 86.3321 114.077C86.2513 113.838 86.009 113.998 86.0898 113.52L86.1705 113.441C85.8475 113.6 85.686 112.407 85.5245 112.327C85.2822 112.964 84.8785 112.009 84.8785 113.123L84.717 112.407C84.6362 112.805 84.6362 113.361 84.4747 113.6C84.2324 113.52 84.3132 113.043 84.4747 112.725C83.6671 112.248 82.4558 112.407 81.6483 112.964L81.8098 112.407C81.4867 112.168 81.1637 113.52 81.083 112.089C80.9215 112.407 80.5984 112.407 80.2754 112.487C80.0332 112.566 79.8716 112.805 80.0332 113.441C79.7101 112.805 79.3871 112.805 79.0641 112.884C78.7411 113.043 78.5796 113.441 78.3373 113.679C78.9833 114.713 78.0143 114.236 78.1758 114.793C77.6105 113.998 78.1758 113.679 77.9335 113.123C77.9335 113.918 77.449 113.918 77.0452 113.998C76.6414 114.077 76.3184 114.236 76.8837 115.349C76.8029 115.349 76.7222 115.27 76.6414 115.111C76.5607 115.19 76.1569 114.952 75.9954 114.952C76.2377 115.349 76.4799 115.349 76.3992 115.668C76.1569 115.747 75.8339 115.111 75.5916 114.952C75.5916 115.668 75.1879 116.224 75.8339 117.02C75.5916 116.94 75.1071 116.622 75.0263 116.383C75.1071 117.417 74.4611 116.701 74.3803 117.497C74.5418 117.338 73.6535 116.701 74.2188 116.781C73.6535 116.383 73.492 116.622 73.3305 116.94C73.2497 117.258 73.2497 117.656 72.7652 117.656L73.3305 118.371C73.2497 118.69 72.5229 118.212 72.4422 117.815C71.6346 117.894 71.8769 118.451 71.6346 118.849C71.5539 118.769 71.3924 118.69 71.4731 118.69L71.0693 119.167C71.2308 119.326 71.4731 119.803 71.9576 120.042C71.4731 119.644 71.3116 119.405 71.7961 119.326Z" fill="#322015"/>
<path d="M71.877 120.042L71.9577 120.121C71.9577 120.041 71.9577 120.042 71.877 120.042Z" fill="#322015"/>
<path d="M78.0144 119.008C77.8529 118.849 77.7722 118.769 77.6914 118.769C77.7722 118.849 77.8529 118.928 78.0144 119.008Z" fill="#322015"/>
<path d="M70.8272 125.29C72.1193 125.768 70.7465 124.893 71.231 124.893C71.3117 125.211 72.0385 125.45 72.4423 125.609C70.908 124.654 72.9268 125.449 72.7653 124.893C73.2499 125.131 73.2499 125.37 73.8152 125.688C73.4921 125.29 73.4921 124.813 72.6038 124.336C72.7653 123.938 73.2499 123.779 73.2499 123.461C73.4114 123.938 74.0574 124.018 74.7035 124.575C73.8152 123.779 73.0076 122.427 72.0385 121.235C73.0076 121.712 73.0884 121.791 73.8959 122.348C74.7842 122.268 73.0884 121.712 73.7344 121.394L73.4114 121.473C73.2499 121.076 72.4423 120.519 71.877 120.042L71.6348 120.678C70.9887 120.28 71.3117 119.962 71.231 119.803C70.5849 119.167 70.5042 119.803 69.9389 119.326C70.4234 119.724 70.0197 119.883 70.1812 120.121L69.8582 119.962C69.2929 120.042 70.1004 120.678 69.9389 120.916C69.8582 120.916 69.7774 120.837 69.6966 120.837C70.0197 121.155 70.5042 121.473 70.5042 121.712V121.553C71.231 122.268 71.4733 122.984 72.6038 123.143C72.4423 123.302 72.2 123.382 72.0385 123.541C71.1502 122.984 69.7774 122.109 69.8582 121.712L69.4544 121.473C68.7276 121.473 69.7774 122.587 70.6657 122.825C72.7653 124.257 70.3427 123.779 71.0695 124.654C70.4234 124.416 70.2619 124.018 69.9389 123.7C69.9389 123.541 69.9389 123.461 70.5042 123.7C70.4234 122.984 68.4853 122.825 69.0506 122.348C69.5351 122.189 69.8582 123.223 70.1812 122.825L68.6468 121.632C68.5661 121.95 68.7276 122.348 68.8083 122.746C69.0506 123.7 68.8083 124.257 68.5661 124.575C68.3238 124.893 67.92 125.052 67.92 125.052L67.4355 126.563C67.274 127.04 67.1932 127.597 67.0317 128.074L66.6279 129.585L66.3049 131.096C66.3857 131.812 66.2242 131.971 68.0008 132.766C68.4046 132.766 68.3238 132.368 68.9699 132.607C68.3238 132.368 68.0008 132.05 68.1623 131.732C68.8083 131.891 68.4046 132.13 68.5661 132.05L68.6468 131.971C68.9698 132.13 69.2121 132.209 69.2121 132.289C70.3427 132.209 70.2619 131.573 69.1314 130.937C69.8582 130.857 70.1004 131.414 70.585 131.732C71.3925 130.937 71.554 130.221 71.9578 129.346C70.8272 128.949 71.231 129.028 70.5042 128.551L70.9887 128.631C70.7465 128.631 70.0197 128.153 69.6966 128.312C70.8272 128.074 68.4046 127.04 68.0815 126.483L68.6468 126.722C68.6468 126.324 68.7276 126.245 68.4853 125.847C69.7774 125.768 68.4853 126.404 69.9389 126.801L69.7774 126.563C70.2619 126.881 71.231 127.358 71.554 127.676C70.8272 126.801 72.2001 127.12 71.7155 126.324C72.3616 126.642 72.6846 127.358 72.6846 127.438C72.8461 127.279 72.4423 126.801 73.0884 127.04L72.2808 126.642C72.2808 126.324 73.0076 127.04 73.5729 127.12C73.8152 126.563 70.9887 126.086 70.8272 125.29Z" fill="#322015"/>
<path d="M75.6722 118.69C75.5107 118.69 75.5107 118.769 75.5107 118.928C75.5915 118.849 75.6722 118.769 75.6722 118.69Z" fill="#322015"/>
<path d="M75.9146 120.917C75.9953 120.996 76.0761 121.076 76.1568 121.155C76.1568 121.076 76.0761 120.996 75.9146 120.917Z" fill="#322015"/>
<path d="M76.803 121.791C76.48 121.552 76.48 121.473 76.157 121.155C76.3185 121.393 76.2377 121.552 76.803 121.791Z" fill="#322015"/>
<path d="M82.5366 115.747C82.7789 116.145 82.6981 115.349 82.6981 114.793C82.2943 114.713 82.6981 115.429 82.5366 115.747Z" fill="#322015"/>
<path d="M79.3064 117.656C79.7102 117.974 79.5487 117.258 79.7102 117.179C79.4679 116.94 79.3064 117.258 79.3064 117.656Z" fill="#322015"/>
<path d="M79.71 120.439C79.6293 120.201 79.5485 120.121 79.4678 120.042C79.2255 119.644 78.9832 119.246 78.741 118.849C78.2564 118.769 79.3062 120.042 79.71 120.439Z" fill="#322015"/>
<path d="M78.8218 121.553L78.6603 121.075L78.5796 121.155C78.2566 120.757 78.095 120.519 77.8528 120.121C77.8528 120.439 78.095 120.916 78.8218 121.553Z" fill="#322015"/>
<path d="M77.772 119.724C77.772 119.724 77.772 119.803 77.772 119.883C77.8527 119.962 78.0142 120.042 77.772 119.724Z" fill="#322015"/>
<path d="M77.6913 119.962C77.6913 120.042 77.7721 120.042 77.7721 120.121C77.7721 120.042 77.7721 119.962 77.7721 119.883C77.6106 119.803 77.5298 119.723 77.6913 119.962Z" fill="#322015"/>
<path d="M78.1759 121.234C78.0952 121.393 78.0144 121.473 78.0144 121.632L78.3374 121.712C77.6914 121.075 78.822 121.871 78.1759 121.234Z" fill="#322015"/>
<path d="M76.157 122.586L75.4303 122.189C75.1072 122.348 76.3186 123.62 75.188 123.064C75.6725 123.223 75.834 123.779 76.2378 123.541C75.6725 123.064 75.9148 122.666 76.157 122.586Z" fill="#322015"/>
<path d="M74.5417 122.984C74.3802 122.825 74.2187 122.825 73.9765 122.745C73.8149 122.825 74.0572 123.063 74.3802 123.223C73.4919 122.507 75.0263 123.382 74.5417 122.984Z" fill="#322015"/>
<path d="M73.815 124.256C73.815 124.177 73.815 124.018 73.5728 124.018C73.492 124.256 74.2996 124.654 74.7033 125.052C75.2686 125.052 74.2996 124.336 73.815 124.256Z" fill="#322015"/>
<path d="M67.4353 123.938C68.0813 124.177 68.0813 123.938 67.9198 123.779C68.0006 123.859 67.6776 123.938 67.4353 123.938Z" fill="#322015"/>
<path d="M72.6038 126.245H72.846L71.877 125.768L72.6038 126.245Z" fill="#322015"/>
<path d="M72.5229 128.074L73.0075 128.551L73.0882 128.233L72.5229 128.074Z" fill="#322015"/>
<path d="M72.1999 128.312L72.1191 128.63H72.4422C72.6844 128.551 72.1999 128.392 72.1999 128.312Z" fill="#322015"/>
<path d="M72.0385 129.187C71.9577 129.108 72.1192 129.187 72.2 129.187L71.877 128.79L72.0385 129.187Z" fill="#322015"/>
<path d="M66.3856 132.448C65.7396 132.209 66.0626 132.607 65.9011 132.607C66.0626 132.686 66.9509 132.686 66.3856 132.448Z" fill="#322015"/>
</g>
</g>
<path d="M149.725 90.1395C149.725 90.1395 154.247 89.9009 156.832 97.7741C159.416 105.727 160.223 118.928 163.211 125.37C166.199 131.732 179.443 139.446 198.743 154.477L207.303 182.868H211.422C211.422 182.868 209.161 149.228 206.577 147.081C203.993 144.934 179.604 115.27 174.678 103.341C169.752 91.412 151.179 83.0616 149.725 90.1395Z" fill="#AA8C7D"/>
<mask id="mask1_37_2180" style="mask-type:luminance" maskUnits="userSpaceOnUse" x="149" y="87" width="63" height="96">
<path d="M149.725 90.1395C149.725 90.1395 154.247 89.9009 156.832 97.7741C159.416 105.727 160.223 118.928 163.211 125.37C166.199 131.732 179.443 139.446 198.743 154.477L207.303 182.868H211.422C211.422 182.868 209.161 149.228 206.577 147.081C203.993 144.934 179.604 115.27 174.678 103.341C169.752 91.412 151.179 83.0616 149.725 90.1395Z" fill="white"/>
</mask>
<g mask="url(#mask1_37_2180)">
<g opacity="0.88">
<path d="M162.404 104.454C162.323 104.454 162.161 104.454 162.081 104.454C162.081 104.534 162.161 104.534 162.404 104.454Z" fill="#322015"/>
<path d="M165.069 112.248L165.472 112.168C165.311 112.168 165.149 112.168 165.069 112.248Z" fill="#322015"/>
<path d="M158.608 106.284C158.527 106.284 158.527 106.363 158.447 106.443C158.527 106.363 158.608 106.363 158.608 106.284Z" fill="#322015"/>
<path d="M159.658 97.297C159.739 97.297 159.739 97.2971 159.819 97.2175C159.739 97.2175 159.739 97.2175 159.658 97.297Z" fill="#322015"/>
<path d="M158.77 97.1379C158.77 97.0584 158.77 97.0583 158.689 97.0583H158.608C158.608 97.1379 158.689 97.1379 158.77 97.1379Z" fill="#322015"/>
<path d="M158.527 97.5356L158.447 97.4561C158.447 97.5356 158.447 97.5356 158.527 97.5356Z" fill="#322015"/>
<path d="M152.632 96.8994L152.309 97.138C152.39 97.0585 152.551 96.9789 152.632 96.8994Z" fill="#322015"/>
<path d="M160.142 97.1379C160.062 97.1379 159.9 97.2175 159.819 97.2175C159.9 97.2175 159.981 97.297 160.142 97.1379Z" fill="#322015"/>
<path d="M162.565 104.375C162.484 104.375 162.484 104.454 162.404 104.454C162.484 104.454 162.484 104.454 162.565 104.375Z" fill="#322015"/>
<path d="M166.28 115.111C166.361 115.191 166.441 115.27 166.522 115.27C166.522 115.032 166.441 115.032 166.28 115.111Z" fill="#322015"/>
<path d="M159.981 99.5237C159.012 100.16 159.819 99.2851 158.85 99.8418C159.173 99.8418 159.335 99.8418 158.85 100.239C158.204 100.478 158.77 99.9214 157.881 100.319H158.285C157.962 100.717 157.154 100.876 157.316 100.955C158.608 100.478 157.154 101.75 157.477 101.83H157.316L156.912 102.387H156.831C156.912 102.387 156.993 102.307 157.074 102.307C156.589 102.705 156.266 103.182 156.508 103.341C157.235 103.102 157.154 103.977 157.72 103.818C157.477 103.818 157.477 103.739 157.558 103.5L158.366 103.102C158.447 103.341 157.639 103.5 158.204 103.5C159.254 102.864 158.043 103.182 158.043 102.943C158.285 102.864 158.608 102.864 158.77 102.864C158.608 102.546 158.85 101.989 157.639 102.387C157.8 102.148 158.285 101.989 158.447 101.989C157.72 102.069 159.012 101.512 158.285 101.591C159.335 101.114 159.093 101.83 159.739 101.671C159.093 102.387 160.062 102.387 160.385 102.625C159.658 103.023 158.85 103.102 158.527 103.421C158.204 103.977 159.093 103.5 159.658 103.5C159.496 103.898 158.447 104.136 158.527 104.534H157.962C156.993 105.25 158.447 104.534 158.366 104.773C158.608 104.613 158.931 104.454 158.77 104.295C159.173 104.057 159.416 104.136 159.496 104.216V104.136C160.062 103.977 160.627 103.739 160.465 104.057C159.739 104.216 160.062 104.454 159.819 104.693H159.658C159.981 104.773 159.981 105.011 160.142 105.011L159.981 105.091C160.304 105.091 161.111 104.772 161.031 105.011C160.708 105.17 159.739 105.329 159.981 105.488C159.496 105.647 159.335 105.488 159.416 105.17C159.335 105.409 158.608 105.886 158.447 105.727C157.881 106.045 158.85 105.806 158.608 106.045C158.77 105.965 159.012 105.886 159.173 105.806C158.366 106.204 159.335 106.284 159.9 106.045H159.335C159.981 105.727 160.546 105.806 160.869 105.568C159.9 106.124 161.677 105.965 160.869 106.443L161.354 106.124C161.273 106.761 162.646 106.602 163.13 106.92C162.727 106.92 161.596 107.397 161.838 106.92C161.838 107.476 160.788 107.556 160.223 107.954C159.981 108.51 161.354 107.635 161.757 107.635L161.434 107.476C162.888 107.238 161.596 108.51 162.565 108.59C162.242 108.749 162.323 108.59 162.161 108.59C161.596 109.067 162.404 108.749 162.727 108.749C162.727 108.987 162.565 109.385 161.596 109.624C161.515 109.942 162.081 109.385 162.404 109.385L162.242 109.544L163.292 109.385C163.13 109.703 162.727 110.18 162 110.578C162.404 110.976 164.019 109.942 164.503 110.18C164.18 110.578 163.857 110.419 163.534 110.498L163.776 110.817C162.807 111.055 163.13 110.657 162.081 111.135C163.292 110.976 162.565 111.373 163.453 111.453L163.534 111.373C164.342 111.214 164.019 111.85 164.18 112.009C163.696 112.089 163.534 111.93 163.292 111.771C163.05 112.168 163.615 112.646 164.745 112.407C164.665 112.646 164.342 113.043 163.857 113.043C163.857 113.6 165.391 112.725 165.23 113.202L164.503 113.441C163.615 114.316 165.876 113.998 165.068 114.793L165.957 114.475C165.634 114.713 165.472 114.952 165.149 115.191L164.745 115.111C164.019 115.588 165.553 115.031 165.149 115.509C165.391 115.429 165.957 114.952 166.28 114.872C165.391 114.157 166.361 112.725 164.988 112.089C164.907 112.169 164.745 112.248 164.584 112.328C164.745 112.169 164.422 112.009 164.907 111.85H164.988C164.665 111.691 165.714 110.976 165.634 110.896C164.988 111.055 165.714 110.26 164.665 110.817L165.23 110.339C164.826 110.419 164.342 110.657 164.099 110.657C164.099 110.419 164.503 110.26 164.826 110.339C164.988 109.544 164.503 108.828 163.857 108.272H164.422C164.584 108.033 163.292 108.033 164.584 107.635C163.938 107.556 164.503 106.602 163.211 107.158C164.342 106.363 163.373 106.124 163.05 105.727C162 106.284 162.565 105.488 162 105.647C162.807 105.17 163.05 105.647 163.615 105.329C162.081 105.488 163.938 103.58 161.677 104.454C161.757 104.375 161.838 104.295 161.919 104.295C161.919 104.216 162.161 103.898 162.242 103.739C161.838 103.898 161.757 104.136 161.515 103.977C161.515 103.739 162.161 103.58 162.404 103.341C161.757 103.261 161.273 102.864 160.385 103.261C160.546 103.023 161.031 102.705 161.273 102.705C160.304 102.546 161.111 102.148 160.465 101.83C160.627 101.989 161.434 101.432 161.192 101.91C162.323 101.114 160.546 101.273 160.95 100.478L160.062 100.717C159.819 100.558 160.546 100.16 160.869 100.16C161.111 99.4442 160.546 99.5237 160.304 99.2056C160.385 99.1261 160.546 99.0466 160.546 99.1261L160.304 98.6489C160.062 98.7285 159.577 98.7285 159.093 99.0466C159.819 99.2056 160.142 99.1261 159.981 99.5237Z" fill="#322015"/>
<path d="M159.335 99.3647L159.254 99.4443C159.335 99.4443 159.335 99.4443 159.335 99.3647Z" fill="#322015"/>
<path d="M158.124 105.25C158.285 105.091 158.366 105.011 158.366 105.011C158.366 105.091 158.204 105.17 158.124 105.25Z" fill="#322015"/>
<path d="M155.378 96.0248C154.328 96.82 155.701 96.1838 155.539 96.5814C155.216 96.5019 154.651 96.9791 154.328 97.2177C155.943 96.5019 154.247 97.6948 154.732 97.8539C154.247 98.172 154.086 98.0129 153.52 98.331C154.005 98.331 154.409 98.4901 155.297 98.0924C155.539 98.4901 155.459 98.8877 155.701 99.0468C155.216 98.9672 154.812 99.5239 154.005 99.7625C155.136 99.4444 156.67 99.3649 158.123 99.1263C157.235 99.683 157.154 99.7625 156.266 100.24C155.943 101.035 157.235 99.9216 157.154 100.478L157.235 100.16C157.639 100.24 158.527 99.7625 159.173 99.4444L158.689 98.9672C159.335 98.5696 159.416 98.9672 159.658 99.0468C160.546 98.8082 160.062 98.4106 160.627 98.172C160.062 98.4106 160.142 98.0925 159.819 98.0129L160.142 97.7743C160.304 97.2972 159.416 97.6948 159.254 97.4562C159.335 97.3767 159.416 97.2972 159.496 97.2972C159.093 97.4562 158.527 97.6153 158.366 97.5358L158.446 97.6153C157.558 97.8539 156.751 97.7743 156.024 98.5696L155.943 97.9334C156.831 97.4562 158.285 96.7405 158.527 96.9791L158.931 96.82C159.254 96.2633 157.8 96.5814 157.154 97.2177C154.893 98.331 156.589 96.4224 155.459 96.661C156.024 96.2633 156.347 96.3429 156.831 96.1838C156.993 96.2633 157.074 96.3429 156.589 96.661C157.235 96.9791 158.285 95.3885 158.527 96.1043C158.446 96.5814 157.397 96.3429 157.558 96.82L159.335 96.1043C159.093 95.8657 158.689 95.7862 158.366 95.7066C157.477 95.4681 157.154 94.9909 156.993 94.5933C156.831 94.1956 156.912 93.8775 156.912 93.8775C156.185 93.0823 155.539 92.287 154.732 91.5712L153.601 90.4579C153.197 90.0602 152.794 89.7421 152.39 89.424C151.744 89.1059 151.582 88.9469 150.209 90.0602C150.048 90.4579 150.452 90.5374 149.886 90.935C150.371 90.4579 150.855 90.3783 151.017 90.6964C150.532 91.1736 150.613 90.6965 150.532 90.8555V90.935C150.29 91.1736 150.048 91.2531 149.967 91.2531C149.483 92.2075 150.048 92.5256 151.179 91.8098C150.855 92.446 150.29 92.3665 149.806 92.6051C149.886 92.8437 149.967 93.0823 150.048 93.2413C150.129 93.4799 150.209 93.6389 150.371 93.798C150.613 94.1161 150.855 94.4342 151.179 94.8319C152.148 94.1161 151.825 94.4342 152.551 94.0366L152.228 94.3547C152.39 94.1956 153.117 93.798 153.197 93.4799C152.874 94.5137 154.893 93.0823 155.539 93.0823L155.055 93.4004C155.378 93.6389 155.459 93.7185 155.862 93.7185C155.216 94.8318 155.459 93.4004 154.328 94.4342H154.651C154.166 94.6728 153.278 95.2295 152.794 95.309C153.924 95.15 152.874 96.1043 153.843 96.1043C153.278 96.4224 152.551 96.3429 152.39 96.2633C152.471 96.4224 153.036 96.4224 152.551 96.82L153.278 96.3429C153.52 96.5019 152.632 96.7405 152.228 97.1381C152.794 97.8539 154.57 95.7862 155.378 96.0248Z" fill="#322015"/>
<path d="M159.012 103.182C159.012 103.102 158.931 103.023 158.85 102.943C158.931 103.023 158.931 103.102 159.012 103.182Z" fill="#322015"/>
<path d="M156.912 102.546C156.832 102.625 156.67 102.625 156.589 102.705C156.67 102.625 156.751 102.625 156.912 102.546Z" fill="#322015"/>
<path d="M155.782 102.943C156.105 102.705 156.186 102.784 156.589 102.625C156.266 102.705 156.186 102.466 155.782 102.943Z" fill="#322015"/>
<path d="M165.957 125.847C166.199 125.767 166.522 125.847 166.684 125.767L166.28 125.608L165.957 125.847Z" fill="#322015"/>
<path d="M166.603 124.893L166.764 124.495L165.634 124.734C165.715 125.052 166.441 124.575 166.603 124.893Z" fill="#322015"/>
<path d="M166.845 123.779L167.168 123.7C166.926 123.779 166.845 123.779 166.845 123.779Z" fill="#322015"/>
<path d="M166.361 124.018L165.553 124.257L166.28 124.416L166.361 124.177C166.603 124.097 166.684 123.938 166.845 123.859L166.199 123.938C166.28 123.938 166.442 123.938 166.361 124.018Z" fill="#322015"/>
<path d="M167.33 122.427C167.087 122.587 166.603 122.666 166.28 122.746C166.118 123.143 167.249 122.666 167.007 123.064C166.199 122.905 166.603 123.382 166.199 123.7C166.926 123.302 167.33 122.984 167.41 122.587L166.926 122.746C166.845 122.666 167.168 122.587 167.33 122.427Z" fill="#322015"/>
<path d="M165.553 121.394L166.36 121.314C166.037 121.473 166.118 121.871 165.391 122.109C165.553 122.189 165.876 122.109 166.118 122.109C165.795 122.348 165.472 122.507 166.118 122.427C166.441 121.712 166.683 121.791 166.683 121.235C166.845 121.155 166.845 121.235 166.845 121.314L167.168 120.837C166.28 121.314 166.037 120.916 165.553 121.394Z" fill="#322015"/>
<path d="M165.957 120.758C166.119 120.996 166.845 120.837 167.249 120.519L166.442 120.201C166.603 120.44 166.684 120.599 165.957 120.758Z" fill="#322015"/>
<path d="M165.795 120.439C166.118 120.201 166.926 119.724 166.118 119.883C166.361 120.042 165.149 120.36 165.795 120.439Z" fill="#322015"/>
<path d="M165.876 118.451L165.553 119.087C164.584 119.565 165.149 119.008 164.665 119.008C164.584 119.485 164.907 119.246 165.634 119.326C165.634 119.485 166.199 119.485 166.522 119.485C165.472 119.167 167.814 118.213 165.876 118.451Z" fill="#322015"/>
<path d="M165.23 119.724L165.634 119.644L165.23 119.564V119.724Z" fill="#322015"/>
<path d="M166.522 116.94C167.572 116.225 165.634 116.622 166.038 116.145C166.118 116.145 166.199 116.065 166.361 116.145L166.118 115.906L166.361 115.827C165.715 116.065 165.311 115.906 164.745 115.986C164.099 116.543 165.634 115.827 164.988 116.384C164.665 116.463 164.18 116.622 163.857 116.622C164.261 116.622 164.665 116.543 165.149 116.463C165.311 116.622 164.907 116.702 164.665 116.861C165.149 116.94 166.199 116.543 166.038 116.94C165.472 117.338 165.068 117.179 165.392 117.417C166.441 116.861 165.311 117.815 166.118 117.656C166.038 117.974 165.392 118.372 164.988 118.531C165.876 118.213 166.684 118.133 167.007 118.213L166.118 118.054L167.087 117.497C166.522 117.417 166.522 117.258 166.603 116.94H166.522Z" fill="#322015"/>
<path d="M164.665 118.61L164.423 118.531L164.1 118.769L164.665 118.61Z" fill="#322015"/>
<path d="M163.05 116.622C163.05 116.702 163.373 116.622 163.373 116.542L162.888 116.622H163.05Z" fill="#322015"/>
<path d="M163.534 116.065L164.099 115.747L163.615 115.827L163.534 116.065Z" fill="#322015"/>
<path d="M161.758 110.18C161.515 110.498 162.161 110.18 162.646 110.021C162.727 109.624 162.081 110.26 161.758 110.18Z" fill="#322015"/>
<path d="M159.335 106.999C159.012 107.397 159.739 107.317 159.819 107.476C160.062 107.158 159.739 106.999 159.335 106.999Z" fill="#322015"/>
<path d="M156.347 106.602C156.589 106.522 156.751 106.522 156.751 106.443L158.043 106.045C158.285 105.568 156.912 106.363 156.347 106.602Z" fill="#322015"/>
<path d="M155.378 105.091H155.943L155.862 104.932C156.347 104.773 156.589 104.693 157.074 104.614C156.751 104.534 156.185 104.614 155.378 105.091Z" fill="#322015"/>
<path d="M157.478 104.773L157.397 104.693C157.235 104.773 157.074 104.932 157.478 104.773Z" fill="#322015"/>
<path d="M157.235 104.614C157.155 104.614 157.155 104.614 157.074 104.614C157.155 104.614 157.235 104.614 157.316 104.693C157.478 104.614 157.478 104.534 157.235 104.614Z" fill="#322015"/>
<path d="M155.862 104.613L155.539 104.216L155.378 104.534C156.105 104.136 155.055 104.932 155.862 104.613Z" fill="#322015"/>
<path d="M155.216 101.91L155.862 101.512C155.862 101.114 154.167 101.671 155.136 100.876C154.813 101.273 154.247 101.114 154.247 101.512C154.974 101.273 155.297 101.671 155.216 101.91Z" fill="#322015"/>
<path d="M155.62 100.319C155.862 100.239 155.943 100.08 156.104 99.9214C156.104 99.7623 155.781 99.8418 155.458 100.08C156.428 99.6828 154.974 100.558 155.62 100.319Z" fill="#322015"/>
<path d="M154.732 99.0466C154.813 99.1261 154.974 99.2056 155.055 98.967C154.893 98.7285 154.166 99.2851 153.601 99.4442C153.359 99.9214 154.49 99.4442 154.732 99.0466Z" fill="#322015"/>
<path d="M158.285 93.957C157.72 94.3547 157.962 94.5137 158.204 94.4342C158.043 94.4342 158.204 94.1956 158.285 93.957Z" fill="#322015"/>
<path d="M153.682 97.0585L153.601 97.2176L154.49 96.6609L153.682 97.0585Z" fill="#322015"/>
<path d="M152.229 96.0244L151.502 96.1835L151.825 96.422L152.229 96.0244Z" fill="#322015"/>
<path d="M152.148 95.6268L151.906 95.3882L151.744 95.6268C151.663 95.8653 152.067 95.5472 152.148 95.6268Z" fill="#322015"/>
<path d="M151.502 95.0703C151.582 95.0703 151.502 95.1498 151.421 95.2294L151.905 95.1498L151.502 95.0703Z" fill="#322015"/>
<path d="M151.421 88.7877C151.906 88.3106 151.421 88.4696 151.502 88.3105C151.34 88.3901 150.936 89.1058 151.421 88.7877Z" fill="#322015"/>
</g>
</g>
<path d="M173.063 65.7247C173.063 65.7247 190.668 73.7569 198.824 93.3205C206.98 112.884 195.594 124.734 179.766 135.231C167.087 143.582 159.496 150.659 156.266 161.157C156.266 161.157 156.589 150.341 171.852 136.663C187.115 122.984 199.874 107.158 182.269 89.2647C164.665 71.3711 172.013 65.168 173.063 65.7247Z" fill="#AA8C7D"/>
<path d="M36.3449 24.848C36.3449 24.848 45.3087 61.5099 47.5698 69.1445C49.831 76.7791 56.2914 98.0923 69.7775 108.351C83.2636 118.61 104.341 114.236 120.653 102.466C134.22 92.764 144.718 87.1971 152.471 91.0939C154.086 91.8892 155.62 93.1616 156.993 94.8317C165.068 104.534 165.068 122.189 171.044 129.823C177.02 137.458 195.352 145.013 203.75 151.534C203.75 151.534 209.161 180.562 208.838 181.277C208.515 182.073 204.235 181.118 201.651 182.073C199.066 182.947 198.986 187.48 198.986 187.48C198.986 187.48 209.403 187.48 210.695 187.48C211.906 187.48 214.006 184.379 214.571 182.947C215.137 181.516 214.006 148.989 213.764 147.876C213.522 146.763 193.898 127.04 193.656 126.404C193.575 126.086 195.029 117.497 194.786 106.999C194.544 98.5694 193.252 88.8671 189.214 81.2326C180.008 64.2138 160.465 58.8855 138.823 58.2493C117.181 57.5336 86.413 52.2848 74.9458 47.8313C74.9458 47.8313 58.8755 20.3945 56.4529 15.1457C54.0302 9.89695 32.0648 7.51114 36.3449 24.848Z" fill="#AA8C7D"/>
<path d="M202.539 187.481C202.539 187.481 202.7 185.174 203.912 184.22" stroke="#1B1C1E" stroke-width="1.2604" stroke-miterlimit="10" stroke-linecap="round" stroke-linejoin="round"/>
<path d="M205.93 187.481C205.93 187.481 206.092 185.174 207.303 184.22" stroke="#1B1C1E" stroke-width="1.2604" stroke-miterlimit="10" stroke-linecap="round" stroke-linejoin="round"/>
<path d="M48.4582 62.3845C48.4582 62.3845 48.4582 67.4742 48.4582 75.4269C48.4582 83.3796 51.1232 92.2866 57.099 108.908L58.3911 167.678L53.3843 181.357C53.3843 181.357 47.6507 181.357 45.7933 182.152C43.6937 183.106 43.2899 184.617 43.1284 187.48C43.1284 187.48 57.0183 187.48 57.6643 187.48C58.3104 187.48 66.6281 167.121 66.6281 167.121C66.6281 167.121 67.1127 143.104 73.8961 122.904C75.1882 119.167 76.238 115.588 77.1263 112.168C81.1641 97.2968 82.0524 85.7654 81.4063 77.6537L48.4582 62.3845Z" fill="#AA8C7D"/>
<path d="M46.0356 25.7228C46.0356 25.7228 43.6937 27.2339 36.8296 26.7567C29.9654 26.2795 17.3676 25.4047 13.3298 25.4047C9.37283 25.4047 8.56528 24.6095 5.25432 21.7465C1.94337 18.8835 1.05506 15.782 3.55847 14.9072C6.06188 14.0324 20.1133 11.408 20.6786 11.2489C21.2438 11.0899 23.7472 7.11355 25.8469 5.84112C27.9465 4.56869 39.1715 1.46714 43.7745 2.26241C50.7194 3.53484 55.4032 13.3962 57.5029 17.293C59.6025 21.2693 46.0356 25.7228 46.0356 25.7228Z" fill="#AA8C7D"/>
<path d="M1.05485 17.3725C1.05485 17.3725 2.26618 20.3945 3.88128 20.7126C5.49638 21.0308 7.19224 19.2812 7.67677 17.3725C8.1613 15.4639 7.273 13.8733 5.90016 14.1119C4.9311 14.271 0.00503885 14.8277 1.05485 17.3725Z" fill="#1B1C1E" stroke="#1B1C1E" stroke-width="1.818" stroke-miterlimit="10" stroke-linecap="round" stroke-linejoin="round"/>
<path d="M6.70776 22.9395C6.70776 22.9395 7.19229 23.8142 11.7146 23.6552C16.2369 23.4166 19.3863 23.3371 21.5667 23.3371C23.7471 23.3371 24.7162 23.3371 25.9275 23.7347" fill="#1B1C1E"/>
<path d="M6.70776 22.9395C6.70776 22.9395 7.19229 23.8142 11.7146 23.6552C16.2369 23.4166 19.3863 23.3371 21.5667 23.3371C23.7471 23.3371 24.7162 23.3371 25.9275 23.7347" stroke="#1B1C1E" stroke-width="1.2604" stroke-miterlimit="10" stroke-linecap="round" stroke-linejoin="round"/>
<path d="M45.5511 1.7057C44.8243 1.86475 44.0975 2.81907 45.7933 3.85292C47.4892 4.88677 48.7813 7.82927 50.3964 12.6804C52.0115 17.5316 52.8998 18.963 55.3224 18.7245C57.7451 18.5654 58.1488 12.2032 58.4719 8.06785C58.7949 3.93245 57.6643 0.830904 52.8998 0.910431C47.8929 1.06948 46.3586 1.54665 45.5511 1.7057Z" fill="#1B1C1E" stroke="#1B1C1E" stroke-width="1.818" stroke-miterlimit="10" stroke-linecap="round" stroke-linejoin="round"/>
<path d="M46.1968 187.481C46.1968 187.481 46.3583 185.174 47.5696 184.22" stroke="#1B1C1E" stroke-width="1.2604" stroke-miterlimit="10" stroke-linecap="round" stroke-linejoin="round"/>
<path d="M49.6694 187.481C49.6694 187.481 49.8309 185.174 51.0423 184.22" stroke="#1B1C1E" stroke-width="1.2604" stroke-miterlimit="10" stroke-linecap="round" stroke-linejoin="round"/>
<path d="M28.0983 11.8688C28.8436 11.7312 29.3478 11.0947 29.2245 10.4471C29.1012 9.79957 28.3971 9.38617 27.6518 9.52378C26.9066 9.66139 26.4024 10.2979 26.5257 10.9455C26.649 11.593 27.3531 12.0064 28.0983 11.8688Z" fill="#1B1C1E"/>
<mask id="mask2_37_2180" style="mask-type:luminance" maskUnits="userSpaceOnUse" x="36" y="26" width="10" height="6">
<path d="M45.2278 26.1206C42.0784 29.8584 38.0406 31.9261 38.0406 31.9261C37.4753 29.7788 37.0716 28.0293 36.7485 26.7568C41.5131 27.0749 44.0972 26.5182 45.2278 26.1206Z" fill="white"/>
</mask>
<g mask="url(#mask2_37_2180)">
<g opacity="0.88">
<path d="M42.3206 26.9161V26.7571C42.2398 26.8366 42.2398 26.9161 42.3206 26.9161Z" fill="#322015"/>
<path d="M38.8483 28.3474C38.8483 28.4269 38.7676 28.4269 38.7676 28.586L38.8483 28.3474Z" fill="#322015"/>
<path d="M43.4512 26.5182L43.5319 26.4387C43.4512 26.3592 43.4512 26.4387 43.4512 26.5182Z" fill="#322015"/>
<path d="M37.0717 27.0752C37.0717 27.6319 36.9909 27.0752 36.9102 27.6319C36.9909 27.5523 37.0717 27.4728 37.0717 27.7114C36.9909 28.0295 36.9102 27.6319 36.9102 28.109L36.9909 27.95C36.9909 28.1886 36.9102 28.5067 36.9909 28.5067C37.1524 27.95 37.2332 28.7453 37.3139 28.6657V28.7453L37.4755 29.0634V28.9838C37.4755 29.3019 37.637 29.5405 37.7177 29.461C37.7985 29.1429 38.1215 29.3815 38.2023 29.0634C38.1215 29.1429 38.1215 29.1429 38.0408 29.0634V28.6657C38.1215 28.6657 38.0407 29.0634 38.1215 28.8248C38.1215 28.2681 37.96 28.8248 37.8792 28.7453C37.8792 28.5862 37.96 28.5067 37.96 28.4271C37.7985 28.4271 37.637 28.1886 37.5562 28.7453C37.5562 28.5862 37.5562 28.4271 37.5562 28.3476C37.3947 28.6657 37.4755 28.0295 37.3947 28.3476C37.4755 27.7909 37.637 28.109 37.7177 27.7909C37.7985 28.1886 38.0407 27.7909 38.2023 27.7909C38.2023 28.1886 38.1215 28.5067 38.1215 28.7453C38.283 28.9838 38.283 28.5862 38.3638 28.3476C38.4445 28.5067 38.3638 28.9838 38.5253 28.9838L38.4445 29.2224C38.5253 29.7791 38.5253 28.9838 38.606 29.1429C38.606 28.9838 38.606 28.8248 38.4445 28.9043C38.4445 28.6657 38.5253 28.5862 38.5253 28.5862C38.5253 28.3476 38.5253 28.0295 38.6868 28.1886C38.606 28.5067 38.7675 28.4271 38.8483 28.5862V28.6657C38.9291 28.5862 39.0098 28.5862 39.0906 28.5067V28.5862C39.1713 28.4271 39.1713 28.0295 39.2521 28.109C39.2521 28.2681 39.1713 28.7453 39.2521 28.6657C39.2521 28.9043 39.1713 28.9043 39.0906 28.8248C39.1713 28.9043 39.2521 29.3019 39.1713 29.3019C39.2521 29.62 39.2521 29.1429 39.3328 29.3019C39.3328 29.2224 39.3328 29.1429 39.3328 28.9838C39.3328 29.3815 39.5751 28.9838 39.4943 28.7453L39.4136 28.9838C39.4136 28.6657 39.4943 28.4271 39.4136 28.2681C39.4943 28.7453 39.6558 28.0295 39.7366 28.4271L39.6559 28.1886C39.8981 28.3476 39.9789 27.7114 40.1404 27.5523C40.0596 27.7114 40.1404 28.2681 39.9789 28.109C40.2211 28.1886 40.1404 28.6657 40.2211 28.9043C40.3826 29.0634 40.2211 28.3476 40.2211 28.1886L40.1404 28.2681C40.1404 27.6319 40.5442 28.3476 40.7057 27.95C40.7864 28.109 40.7057 28.0295 40.6249 28.109C40.7864 28.4271 40.7057 28.0295 40.7057 27.8705C40.7864 27.95 40.9479 28.0295 41.0287 28.4271C41.1902 28.5067 40.9479 28.1886 41.0287 28.0295V28.109V27.6319C41.1094 27.7114 41.3517 27.95 41.4325 28.3476C41.6747 28.1886 41.271 27.3933 41.4325 27.2342C41.594 27.3933 41.5132 27.5523 41.5132 27.7114L41.6747 27.6319C41.7555 28.109 41.594 27.8705 41.6747 28.4271C41.6747 27.8705 41.8362 28.2681 41.8362 27.8705V27.7909C41.8362 27.3933 41.9978 27.6319 42.0785 27.5523C42.0785 27.7909 41.9977 27.7909 41.9977 27.95C42.1593 28.109 42.4015 27.8705 42.3208 27.3933C42.4015 27.4728 42.563 27.5524 42.563 27.7909C42.8053 27.7909 42.4015 27.0752 42.6438 27.1547L42.7245 27.4728C43.1283 27.8705 42.9668 26.9161 43.2898 27.3138L43.1283 26.9161C43.2091 27.0752 43.3706 27.1547 43.4513 27.3138V27.4728C43.6936 27.7909 43.4513 27.0752 43.6128 27.3138C43.5321 27.1547 43.3706 26.9161 43.2898 26.7571C42.9668 27.1547 42.4015 26.6776 42.1593 27.2342C42.1593 27.3138 42.24 27.3138 42.24 27.3933C42.1593 27.3138 42.0785 27.4728 42.0785 27.2342C41.9978 27.3933 41.7555 26.8366 41.6747 26.8366C41.7555 27.1547 41.4325 26.7571 41.594 27.2342L41.4325 26.9161C41.4325 27.0752 41.5132 27.3138 41.5132 27.4728C41.4325 27.4728 41.3517 27.2342 41.4325 27.0752C41.1094 26.9161 40.7864 27.0752 40.5442 27.3138V27.0752C40.4634 26.9957 40.3827 27.5523 40.3019 26.9161C40.2211 27.1547 39.8981 26.7571 39.9789 27.4728C39.8174 26.8366 39.6559 27.2342 39.4136 27.3933C39.4943 27.95 39.2521 27.5524 39.2521 27.8705C39.1713 27.4728 39.3328 27.3933 39.3328 27.1547C39.1713 27.8705 38.7675 26.6776 38.7675 27.7909C38.7675 27.7114 38.7675 27.7114 38.7675 27.6319C38.7675 27.6319 38.6868 27.4728 38.606 27.3933C38.606 27.5524 38.6868 27.6319 38.606 27.7114C38.5253 27.7114 38.5253 27.3933 38.5253 27.2342C38.4445 27.4728 38.2023 27.6319 38.2023 28.0295C38.1215 27.95 38.1215 27.6319 38.1215 27.5523C37.8792 27.8705 37.8792 27.4728 37.7177 27.7114C37.7985 27.7114 37.7985 27.2342 37.8792 27.3933C37.7985 26.7571 37.5562 27.4728 37.3947 27.1547L37.3139 27.5523C37.2332 27.6319 37.2332 27.2342 37.3139 27.0752C37.1524 26.8366 37.0717 27.0752 36.9102 27.0752C36.9102 26.9957 36.9102 26.9161 36.9102 26.9957H36.7487C36.7487 27.0752 36.6679 27.3138 36.5872 27.5523C36.9102 27.0752 36.9909 26.9161 37.0717 27.0752Z" fill="#322015"/>
<path d="M38.7675 29.0631C38.7675 28.9836 38.6868 28.9041 38.6868 28.9041C38.6868 28.9836 38.6868 29.0631 38.7675 29.0631Z" fill="#322015"/>
<path d="M38.1215 28.2678H38.0408C38.0408 28.3473 38.0408 28.3473 38.1215 28.2678Z" fill="#322015"/>
<path d="M37.314 29.5405C37.314 29.3814 37.314 29.3814 37.3947 29.1428C37.314 29.3019 37.1525 29.3019 37.314 29.5405Z" fill="#322015"/>
<path d="M44.824 26.6774L45.147 26.8364C45.3893 27.2341 45.147 26.9955 45.147 27.2341C45.3893 27.2341 45.2278 27.1545 45.2278 26.8364C45.3085 26.8364 45.2278 26.5979 45.2278 26.4388C45.147 26.8364 44.6625 25.8026 44.824 26.6774Z" fill="#322015"/>
<path d="M44.1781 26.4388C43.8551 25.9616 44.0974 26.8364 43.8551 26.6774C43.8551 26.6774 43.8551 26.5978 43.8551 26.5183L43.7744 26.5978L43.6936 26.5183C43.8551 26.8364 43.7744 26.9955 43.7744 27.234C44.0166 27.5521 43.6936 26.8364 43.9359 27.1545C43.9359 27.3136 44.0166 27.5521 44.0974 27.6317C44.0974 27.4726 44.0166 27.234 44.0166 27.075C44.0974 26.9955 44.0974 27.234 44.1781 27.3136C44.1781 27.075 44.0166 26.5978 44.1781 26.6774C44.3396 26.9159 44.3396 27.1545 44.4204 26.9159C44.0974 26.4388 44.5819 26.9159 44.5012 26.5978C44.6627 26.6774 44.8242 26.9159 44.9049 27.075C44.7434 26.6774 44.6627 26.3592 44.6627 26.2002V26.5978L44.4204 26.2002C44.4204 26.5183 44.3396 26.5183 44.1781 26.4388Z" fill="#322015"/>
<path d="M44.9856 27.2341V27.3932L45.0664 27.4727L44.9856 27.2341Z" fill="#322015"/>
<path d="M44.0974 27.9498C44.0974 27.9498 44.0974 27.7908 44.0166 27.7908L44.0974 27.9498Z" fill="#322015"/>
<path d="M43.9357 27.7112L43.7742 27.4727V27.7112H43.9357Z" fill="#322015"/>
<path d="M41.2707 28.2679C41.3515 28.4269 41.2707 28.1088 41.2707 27.8702C41.1092 27.7907 41.3515 28.1088 41.2707 28.2679Z" fill="#322015"/>
<path d="M39.6558 28.9041C39.8173 29.1427 39.8173 28.7451 39.898 28.7451C39.8173 28.586 39.7365 28.7451 39.6558 28.9041Z" fill="#322015"/>
<path d="M39.0099 30.0971C39.0099 30.0175 39.0907 29.938 39.0099 29.8585L39.0907 29.2223C38.9292 29.0632 39.0099 29.8585 39.0099 30.0971Z" fill="#322015"/>
<path d="M38.1216 30.1764L38.2831 29.9378H38.2024C38.2024 29.6992 38.2831 29.6197 38.2831 29.3811C38.2024 29.5402 38.0409 29.7787 38.1216 30.1764Z" fill="#322015"/>
<path d="M38.283 29.3017C38.283 29.3812 38.283 29.3812 38.283 29.3017C38.3637 29.3812 38.283 29.3812 38.283 29.3017C38.3637 29.3017 38.3637 29.2222 38.283 29.3017Z" fill="#322015"/>
<path d="M37.9598 29.8584L37.7175 29.9379L37.7983 30.0174C37.879 29.6993 37.9598 30.256 37.9598 29.8584Z" fill="#322015"/>
<path d="M36.7487 29.4608V29.1427C36.5872 29.0632 36.3449 29.7789 36.2642 29.2223C36.2642 29.4608 36.1027 29.6199 36.2642 29.6994C36.4257 29.3813 36.5872 29.3813 36.7487 29.4608Z" fill="#322015"/>
</g>
</g>
<path d="M193.656 126.483C193.575 126.165 195.028 117.576 194.786 107.079C194.544 98.6489 193.252 88.9466 189.214 81.312" stroke="#1B1C1E" stroke-width="1.2604" stroke-miterlimit="10" stroke-linecap="round" stroke-linejoin="round"/>
<path d="M57.7449 187.48C58.4717 187.48 66.7087 167.122 66.7087 167.122C66.7087 167.122 67.1932 143.104 73.9767 122.905C75.2687 119.167 76.3185 115.588 77.2069 112.168" stroke="#1B1C1E" stroke-width="1.2604" stroke-miterlimit="10" stroke-linecap="round" stroke-linejoin="round"/>
<path d="M77.207 112.248C81.2448 97.3765 82.1331 85.8451 81.4871 77.7334" stroke="#1B1C1E" stroke-width="1.2604" stroke-miterlimit="10" stroke-linecap="round" stroke-linejoin="round"/>
<path d="M152.552 91.094C154.167 91.8893 155.701 93.1617 157.074 94.8318C165.149 104.534 165.149 122.189 171.125 129.824C177.101 137.458 195.432 145.013 203.831 151.534C203.831 151.534 209.242 180.562 208.919 181.277" stroke="#1B1C1E" stroke-width="1.2604" stroke-miterlimit="10" stroke-linecap="round" stroke-linejoin="round"/>
</svg>
