<svg width="191" height="144" viewBox="0 0 191 144" fill="none" xmlns="http://www.w3.org/2000/svg">
<path d="M135 38.7127C135 38.7127 113.357 2.92563 108.431 0.14219C103.505 -2.64125 65.6311 36.4064 65.0658 38.7127C64.5813 41.019 77.0176 51.7551 77.0176 51.7551C77.0176 51.7551 110.692 39.7466 135 38.7127Z" fill="#FF510C"/>
<path d="M120.464 32.6688C120.464 32.6688 113.034 16.1272 109.077 13.1052" stroke="#1B1C1E" stroke-miterlimit="10"/>
<path d="M111.984 34.8957C111.984 34.8957 104.959 22.8871 100.033 17.877" stroke="#1B1C1E" stroke-miterlimit="10"/>
<path d="M102.778 37.4405C102.778 37.4405 94.7836 26.8634 91.3918 25.1934" stroke="#1B1C1E" stroke-miterlimit="10"/>
<path d="M92.7647 40.7012C92.7647 40.7012 86.385 34.0209 83.5586 32.6689" stroke="#1B1C1E" stroke-miterlimit="10"/>
<path d="M83.5586 44.1207C83.5586 44.1207 79.0363 39.6672 76.4521 39.031" stroke="#1B1C1E" stroke-miterlimit="10"/>
<mask id="mask0_37_1969" style="mask-type:luminance" maskUnits="userSpaceOnUse" x="65" y="0" width="70" height="52">
<path d="M135 38.7127C135 38.7127 113.357 2.92563 108.431 0.14219C103.505 -2.64125 65.6311 36.4064 65.0658 38.7127C64.5813 41.019 77.0176 51.7551 77.0176 51.7551C77.0176 51.7551 110.692 39.7466 135 38.7127Z" fill="white"/>
</mask>
<g mask="url(#mask0_37_1969)">
<g opacity="0.78">
<path d="M101.244 46.3476C101.163 46.1885 101.002 46.109 100.921 45.95C101.002 45.8704 101.083 46.0295 101.244 46.3476Z" fill="#4B1804"/>
<path d="M114.407 41.9739C114.488 42.0534 114.488 42.0534 114.488 42.1329L114.407 41.9739Z" fill="#4B1804"/>
<path d="M114.488 42.1328L114.73 42.6895C114.488 42.4509 114.488 42.2919 114.488 42.1328Z" fill="#4B1804"/>
<path d="M98.9828 43.0872C98.8213 43.0077 98.6597 42.8486 98.4175 42.5305L98.9828 43.0872Z" fill="#4B1804"/>
<path d="M88.4846 50.7217C88.4039 50.8012 88.3231 50.8012 88.2424 50.8012L88.1616 50.7217C88.2424 50.5627 88.4039 50.6422 88.4846 50.7217Z" fill="#4B1804"/>
<path d="M80.3284 45.7908L80.0862 45.2341C80.2477 45.4727 80.2477 45.6318 80.3284 45.7908Z" fill="#4B1804"/>
<path d="M90.0999 51.9147C90.0191 51.8352 89.9384 51.6761 89.7769 51.5171C89.9384 51.5966 90.0999 51.5966 90.0999 51.9147Z" fill="#4B1804"/>
<path d="M101.325 46.5862C101.325 46.5067 101.244 46.4272 101.244 46.3477C101.325 46.4272 101.325 46.5067 101.325 46.5862Z" fill="#4B1804"/>
<path d="M119.575 41.3374C119.737 41.3374 119.818 41.4169 119.979 41.4965C119.737 41.735 119.656 41.576 119.575 41.3374Z" fill="#4B1804"/>
<path d="M92.684 49.0516C92.2802 47.3815 92.1995 49.1311 91.7149 47.6201C92.038 47.8587 92.361 48.0972 92.1995 47.2224C91.7149 46.4272 91.7149 47.461 91.1497 46.1886L91.7149 46.5862C91.7149 45.8705 91.0689 44.9162 91.3112 44.9162C92.1995 46.6658 92.1995 43.8823 92.6033 44.0414L92.4417 43.8823L92.684 42.8485V42.769C92.7648 42.8485 92.7648 43.0075 92.8455 43.0871C92.7648 42.1327 93.007 41.3375 93.4916 41.417C93.9761 42.3713 95.0259 41.3375 95.5104 42.1327C95.2682 41.8942 95.1067 41.9737 94.9451 42.2918L95.3489 43.5642C95.7527 43.4052 95.0259 42.3713 95.6719 43.0075C96.0757 44.7571 95.1067 43.1666 94.8644 43.4847C95.1067 43.8823 95.3489 44.1209 95.5912 44.28C95.0259 44.5185 94.6221 45.3138 93.6531 43.7233C93.5723 44.1209 93.8953 44.8367 94.0568 44.9957C93.3301 44.1209 94.0568 46.0295 93.4108 45.2343C94.0568 46.7453 94.5414 45.791 95.1874 46.5862C95.3489 45.1548 96.3987 46.1091 97.1255 46.1886C96.8025 44.9957 96.0757 44.1209 96.0757 43.4052C96.4795 42.4508 96.8833 43.8823 97.4486 44.439C97.7716 43.8823 96.8833 42.4508 97.6101 42.2123L96.964 41.576C96.8833 39.8265 97.5293 42.1327 97.7716 41.7351C97.7716 42.2123 97.9331 42.6099 97.5293 42.6894C97.6908 43.3256 98.0138 43.4847 98.1753 43.4847L98.0946 43.5642C98.4984 44.3595 98.7406 45.1548 99.0637 44.6776C98.4984 43.8028 99.2252 43.8028 99.1444 43.3256L98.9829 43.1666C99.3867 43.4052 99.7097 43.1666 99.952 43.3256L99.8712 43.0871C100.194 43.4052 100.679 44.5981 100.921 44.28C100.76 43.8028 99.952 42.6099 100.436 42.6894C100.194 41.9737 99.7097 42.0532 99.4674 42.3713C99.7097 41.9737 99.5482 40.7808 99.1444 40.7808C98.9829 39.8265 99.6289 41.0989 99.7904 40.5422C99.7904 40.8603 99.952 41.1784 100.033 41.417C99.7097 40.1446 100.84 41.0989 101.083 41.9737L100.436 41.417C100.679 42.4508 101.406 42.928 101.406 43.5642C101.163 41.8942 102.698 44.0414 102.617 42.6099L102.698 43.4847C103.424 42.7689 104.636 44.439 105.605 44.5981C105.201 44.2004 104.717 42.3713 104.313 43.1666C105.04 42.6099 104.07 41.3375 104.151 40.4627C104.636 39.6674 104.878 42.0532 105.282 42.5304L104.717 42.2918C105.766 44.2004 106.251 41.417 107.462 42.5304C107.381 41.9737 107.22 42.2918 107.058 42.1327C107.22 40.9398 107.462 42.2918 107.866 42.6099C108.27 42.3713 108.593 41.7351 108.027 40.5422C108.431 40.1446 108.189 41.3375 108.512 41.6556V41.3375L109.32 42.6894C109.643 42.2123 109.966 41.3375 109.804 40.1446C110.773 40.2241 110.773 43.0075 111.581 43.3256C111.823 42.6099 111.258 42.3713 111.177 41.8942H111.823C111.338 40.4627 110.935 41.3375 110.612 39.5879C111.5 41.1784 111.419 39.906 112.307 40.9398V41.0989C112.873 42.2123 113.357 41.2579 113.761 41.417C113.438 40.7808 113.034 40.7808 112.711 40.5422C113.034 39.906 114.246 40.2241 114.892 41.6556C115.134 41.417 115.538 40.7013 115.053 40.1446C115.941 39.7469 115.861 42.2123 116.507 41.6556L116.264 40.5422C116.83 38.7131 118.203 41.7351 118.687 40.065L118.929 41.417C119.01 40.7808 119.333 40.4627 119.252 39.906L118.768 39.5083C118.929 38.2359 119.333 40.5422 119.656 39.6674C119.737 40.065 119.495 41.0989 119.575 41.576C117.718 41.0989 116.426 43.3256 114.488 42.2123C114.488 42.0532 114.569 41.8146 114.488 41.576C114.326 41.9737 113.923 41.6556 114.165 42.3713L114.246 42.4508C113.761 42.2123 113.68 44.0414 113.438 44.0414C113.034 43.1666 112.631 44.5981 112.469 42.928L112.388 44.0414C112.146 43.4847 112.065 42.6894 111.823 42.3713C111.581 42.5304 111.661 43.2461 111.984 43.5642C110.935 44.439 109.562 44.5185 108.27 44.28L108.754 44.9957C108.593 45.4729 107.381 43.8823 108.108 45.791C107.381 45.1548 106.655 46.7453 106.17 44.7571C106.251 46.8248 104.959 45.95 104.151 45.8705C103.828 44.1209 103.344 45.5524 102.94 44.8366C103.182 46.1886 103.99 46.0296 104.232 46.9043C102.859 45.0752 102.375 48.972 101.083 45.7114C101.002 45.8705 101.083 46.0296 101.163 46.1091C101.002 46.1886 100.921 46.8248 100.84 46.9839C100.598 46.4272 100.84 46.0296 100.436 45.95C100.194 46.1886 100.598 47.0634 100.598 47.5406C99.7904 46.9043 98.8214 46.8248 98.3369 45.5524C98.2561 45.95 98.3369 46.7453 98.5791 46.9839C97.3678 46.1886 97.7716 47.461 96.641 47.0634C96.964 46.9839 97.2063 48.4154 97.5293 47.7791C97.7716 49.7673 95.995 47.8587 95.5912 49.0516L94.9451 47.9382C94.4606 47.8587 94.7836 49.0516 95.1874 49.3697C94.7029 50.324 94.0568 49.6878 93.4916 49.9264C93.4916 50.0854 93.5723 50.324 93.6531 50.2445L92.8455 50.5626C92.684 50.324 92.1995 49.7673 91.9572 48.9721C92.038 49.2902 92.361 49.6878 92.684 49.0516Z" fill="#4B1804"/>
<path d="M91.715 48.6539L91.6343 48.4949C91.715 48.5744 91.715 48.5744 91.715 48.6539Z" fill="#4B1804"/>
<path d="M97.7717 41.0195C97.7717 41.3376 97.7717 41.4967 97.6909 41.5762C97.6909 41.4172 97.6909 41.2581 97.7717 41.0195Z" fill="#4B1804"/>
<path d="M83.1548 49.1311C82.5896 47.302 83.8009 49.2106 83.9624 48.6539C83.4779 48.4949 83.2356 47.3815 83.0741 46.8248C84.3662 49.0516 83.3971 46.1886 84.4469 46.4272C84.2047 45.6319 83.8009 45.6319 83.3971 44.8366C84.0432 45.3138 84.8507 45.3933 85.416 46.6658C86.1428 46.4272 86.5466 45.791 87.0311 45.8705C86.3043 45.5524 86.4658 44.5981 85.6582 43.5642C86.7081 44.9162 88.5654 46.3476 90.019 48.0177C89.6153 46.5067 89.6153 46.3476 89.05 45.0752C89.6153 43.8028 89.7768 46.3476 90.5036 45.6319L90.1805 46.0295C90.7458 46.3476 91.2304 47.6996 91.6341 48.6539L90.5843 48.7335C90.9073 49.7673 91.4726 49.3697 91.7956 49.6082C92.5224 50.7216 91.5534 50.6421 91.9571 51.5169C91.5534 50.8012 91.2303 51.1193 90.9073 50.8807L91.0688 51.4374C90.8266 52.1531 90.0998 50.8807 89.696 51.0397C89.696 51.1988 89.7768 51.3578 89.7768 51.4374C89.4537 50.8807 89.05 50.1649 88.7269 50.0854H88.9692C88.1617 48.8925 87.0311 48.4153 87.1118 46.8248L86.2235 47.5406C86.7888 48.8925 87.7579 50.9602 88.4039 50.9602L88.6462 51.5169C88.4847 52.4712 87.0311 50.8807 86.9503 49.5287C85.3352 46.2681 85.3352 49.9264 84.1239 48.813C84.3662 49.7673 84.9315 50.0059 85.3352 50.5626C85.5775 50.5626 85.739 50.5626 85.4967 49.7673C86.6273 49.9264 86.3043 52.7098 87.2733 52.0736C87.5964 51.4374 86.1428 50.8011 86.8696 50.4035L88.3232 52.7893C87.8386 52.8688 87.2734 52.6303 86.7888 52.4712C85.416 51.9941 84.5277 52.2326 83.9624 52.6303C83.3971 53.0279 83.1548 53.5051 83.1548 53.5051C79.9246 54.3003 76.7752 55.2547 73.6257 56.209C72.4952 56.209 72.2529 56.5271 70.7993 54.2208C70.7993 53.6641 71.4454 53.5846 70.8801 52.8689C71.3646 53.7436 71.9299 54.0618 72.4144 53.8232C72.0914 52.8688 71.7684 53.5846 71.8491 53.346L71.9299 53.2665C71.6876 52.8689 71.4454 52.5507 71.2839 52.6303C71.2839 51.0397 72.4952 50.8807 73.6257 52.4712C73.7065 51.3578 72.7374 51.1988 72.1722 50.5626C73.545 49.2106 74.7563 48.8925 76.3714 48.1768C77.0175 49.7673 76.9367 49.1311 77.5827 50.1649L77.502 49.5287C77.5827 49.8468 78.2288 50.8807 77.9865 51.3578C78.471 49.7673 79.9246 53.0279 80.8129 53.5051L80.4092 52.7098C80.9745 52.6303 81.136 52.6303 81.782 52.8689C82.0243 50.9602 80.8937 52.8688 80.4092 50.8011L80.8129 51.0397C80.4092 50.324 79.6824 48.972 79.1978 48.4949C80.5707 49.5287 80.1669 47.5405 81.5397 48.2563C81.0552 47.3815 80.0054 46.9043 79.7631 46.9043C80.0054 46.6658 80.813 47.1429 80.5707 46.2681L81.0552 47.3815C81.6205 47.302 80.5707 46.3476 80.4899 45.5524C81.6205 44.7571 81.782 48.813 83.1548 49.1311Z" fill="#4B1804"/>
<path d="M95.9948 44.2004C95.8333 44.3595 95.7526 44.3595 95.5911 44.2799C95.6718 44.2004 95.8333 44.1209 95.9948 44.2004Z" fill="#4B1804"/>
<path d="M92.684 42.769C92.6032 42.6099 92.5225 42.4509 92.5225 42.3713C92.6032 42.3713 92.6032 42.5304 92.684 42.769Z" fill="#4B1804"/>
<path d="M91.8765 41.1785C91.9572 41.7352 92.1187 41.6556 92.4418 42.3714C92.1995 41.9737 91.7957 42.1328 91.8765 41.1785Z" fill="#4B1804"/>
<path d="M135 35.2139L134.515 35.6911L134.111 34.021C134.677 34.021 134.434 35.2139 135 35.2139Z" fill="#4B1804"/>
<path d="M133.546 36.1682L133.708 36.5658C133.546 36.4068 133.465 36.2477 133.546 36.1682Z" fill="#4B1804"/>
<path d="M133.465 35.4527L133.223 34.2598L133.95 35.1346L133.708 35.3731C133.708 35.7708 133.546 36.0094 133.546 36.1684L133.304 35.2936C133.304 35.3731 133.465 35.6117 133.465 35.4527Z" fill="#4B1804"/>
<path d="M131.689 37.6793C131.77 37.2022 131.527 36.5659 131.447 36.0888C131.931 35.6116 132.012 37.4407 132.496 36.8045C131.77 35.8502 132.739 36.0888 132.981 35.373C132.9 36.4864 132.658 37.2817 132.093 37.6793L132.012 36.8841C131.689 36.8841 131.85 37.3612 131.689 37.6793Z" fill="#4B1804"/>
<path d="M128.862 36.0093L129.347 37.1226C129.347 36.5659 130.074 36.4864 129.912 35.373C130.154 35.5321 130.235 36.0093 130.397 36.3274C130.558 35.6912 130.639 35.214 130.962 36.0888C129.993 36.9636 130.316 37.2022 129.508 37.5998C129.508 37.8384 129.67 37.8384 129.751 37.7589L129.266 38.3951C129.105 36.9636 128.378 36.9636 128.862 36.0093Z" fill="#4B1804"/>
<path d="M128.055 36.9636C128.539 36.9636 128.862 38.077 128.701 38.7927L127.732 37.9975C127.974 37.9179 128.297 38.077 128.055 36.9636Z" fill="#4B1804"/>
<path d="M127.409 36.9634C127.247 37.5996 127.086 38.8721 126.682 37.7587C127.247 37.9177 126.843 36.1682 127.409 36.9634Z" fill="#4B1804"/>
<path d="M124.34 38.3949L125.148 37.5201C125.148 36.0091 124.663 37.1225 124.34 36.4862C125.067 36.0886 124.905 36.5658 125.551 37.4406C125.794 37.361 126.197 38.0768 126.44 38.4744C125.148 37.361 125.471 41.0193 124.34 38.3949Z" fill="#4B1804"/>
<path d="M125.874 36.6455L126.036 37.2817L125.632 36.8841L125.874 36.6455Z" fill="#4B1804"/>
<path d="M122.483 40.3037C122.24 42.1328 121.352 39.4289 120.868 40.3037C120.948 40.3832 120.948 40.5423 121.11 40.7809L120.625 40.7013V41.099C120.464 40.0651 119.898 39.6675 119.575 38.8722C119.898 37.6793 120.06 40.1446 120.302 38.8722C120.141 38.395 119.898 37.6793 119.737 37.2817C120.141 37.7588 120.302 38.395 120.545 38.9517C120.868 39.0313 120.706 38.3951 120.706 37.9974C121.191 38.5541 121.433 40.1446 121.917 39.6675C122.16 38.7132 121.514 38.236 122.16 38.5541C122.079 40.3037 122.725 38.236 123.129 39.2698C123.532 38.8722 123.694 37.8384 123.532 37.2021C123.694 38.4746 124.259 39.5879 124.582 39.9061L123.694 38.9517L123.613 40.5423C123.129 39.9061 122.806 40.0651 122.402 40.3037H122.483Z" fill="#4B1804"/>
<path d="M119.737 37.2022C119.656 37.1227 119.575 37.0431 119.495 36.9636C119.575 36.9636 119.656 37.0432 119.737 37.2022Z" fill="#4B1804"/>
<path d="M123.613 36.725L123.371 36.4069L123.452 36.0093L123.613 36.725Z" fill="#4B1804"/>
<path d="M119.172 36.1683C119.253 36.0887 119.414 36.6454 119.253 36.6454L119.01 35.9297L119.172 36.1683Z" fill="#4B1804"/>
<path d="M118.849 37.2815L118.768 38.1563L118.445 37.5201L118.849 37.2815Z" fill="#4B1804"/>
<path d="M108.351 40.1446C108.593 39.5083 108.754 40.6217 108.997 41.3375C108.593 41.6556 108.835 40.4627 108.351 40.1446Z" fill="#4B1804"/>
<path d="M101.406 40.4628C101.567 39.6675 102.213 40.6218 102.536 40.4628C102.375 41.099 101.89 40.9399 101.406 40.4628Z" fill="#4B1804"/>
<path d="M97.6909 37.8384C97.8524 38.1565 98.0947 38.236 97.8524 38.4746L98.7407 40.2242C98.337 40.8604 97.8524 38.5541 97.6909 37.8384Z" fill="#4B1804"/>
<path d="M94.3799 38.4744L95.1067 39.0311L94.8644 39.1901C95.1874 39.9059 95.4297 40.224 95.7527 40.7011C95.2682 40.383 94.7029 39.8263 94.3799 38.4744Z" fill="#4B1804"/>
<path d="M96.3179 40.8604C96.2371 40.8604 96.1564 40.8604 96.0756 40.7809C96.0756 40.5423 95.9949 40.3037 96.3179 40.8604Z" fill="#4B1804"/>
<path d="M95.8334 40.8602C95.7526 40.7807 95.7526 40.7012 95.6719 40.7012C95.7526 40.7807 95.9141 40.7807 95.9949 40.8602C96.0756 40.9398 96.0756 41.0988 95.8334 40.8602Z" fill="#4B1804"/>
<path d="M94.2183 39.4289L93.2493 39.5084L93.4915 39.0312C93.8953 40.1446 93.7338 38.3155 94.2183 39.4289Z" fill="#4B1804"/>
<path d="M89.8576 41.8147L90.0999 42.9281C89.6154 43.3257 88.1618 41.258 88.4041 43.0871C88.4041 42.3714 87.5157 42.0533 88.081 41.4966C88.7271 42.3714 89.5346 42.2123 89.8576 41.8147Z" fill="#4B1804"/>
<path d="M88.3232 44.1209C88.4847 44.439 88.4847 44.6776 88.4847 44.9957C88.3232 45.1548 87.9194 44.7571 87.9194 44.2799C88.5655 45.6319 87.8387 43.3256 88.3232 44.1209Z" fill="#4B1804"/>
<path d="M85.7391 44.8367C85.9006 44.8367 86.1428 44.8367 86.0621 45.1548C85.5776 45.2343 85.2546 43.9619 84.77 43.3257C84.8508 42.6099 85.8198 44.2005 85.7391 44.8367Z" fill="#4B1804"/>
<path d="M81.8628 46.4273L81.9436 46.1887L82.5896 47.5407L81.8628 46.4273Z" fill="#4B1804"/>
<path d="M78.7134 46.7455L77.9866 46.0297L78.6326 45.9502L78.7134 46.7455Z" fill="#4B1804"/>
<path d="M78.2289 47.2226L77.7444 47.3021V46.9044C77.9059 46.5068 78.0674 47.2226 78.2289 47.2226Z" fill="#4B1804"/>
<path d="M76.6946 47.5406C76.7753 47.6201 76.7753 47.4611 76.7753 47.302L77.4214 47.6996L76.6946 47.5406Z" fill="#4B1804"/>
</g>
</g>
<path d="M177.396 100.664C166.575 108.458 153.896 110.605 147.92 110.843C147.92 110.843 139.764 107.662 136.453 97.0852C136.049 97.2443 122.886 102.891 99.2251 99.7096C82.9126 97.4828 73.3835 86.4286 72.7374 85.7129C69.911 81.5775 64.3389 80.9413 64.3389 80.9413C53.9215 117.762 26.707 118.001 25.4149 117.683C24.1229 117.285 25.1727 110.605 30.341 96.8466C35.5093 83.009 30.0987 79.1917 21.781 53.425C13.4632 27.5787 -4.46444 12.7867 1.02691 13.2639C6.51825 13.741 35.5093 19.9441 49.5607 40.144C61.0279 56.6856 57.2324 57.3218 75.4831 50.4825C79.5208 48.9715 84.6084 47.1423 91.1496 44.9951C106.574 39.9849 121.271 37.5196 134.515 37.5991C152.443 37.6786 167.705 42.3707 178.93 51.6754C198.231 67.6603 189.509 91.8364 177.396 100.664Z" fill="#FF510C"/>
<path d="M147.84 110.843C141.864 111.082 124.421 120.148 100.113 116.251C80.9745 113.15 76.3715 97.5625 73.8681 88.4169C73.6258 87.383 73.222 86.5082 72.6567 85.7925C73.222 86.5082 82.8319 97.5625 99.1444 99.7892C122.806 102.97 135.888 97.4034 136.373 97.1648C139.683 107.662 147.84 110.843 147.84 110.843Z" fill="white"/>
<path d="M173.197 82.9296C175.471 82.9296 177.315 80.6864 177.315 77.9194C177.315 75.1523 175.471 72.9092 173.197 72.9092C170.922 72.9092 169.078 75.1523 169.078 77.9194C169.078 80.6864 170.922 82.9296 173.197 82.9296Z" fill="#000A0E"/>
<path d="M85.8198 108.855C80.813 107.265 71.2839 105.992 64.9042 107.344C58.5246 108.696 46.7344 136.292 50.6914 139.394C54.6484 142.495 92.038 113.309 92.361 112.673C92.7647 111.957 87.6772 109.412 85.8198 108.855Z" fill="#FF510C"/>
<path d="M72.7376 85.7132C72.6568 85.6337 72.6568 85.6337 72.7376 85.7132Z" stroke="#1B1C1E" stroke-miterlimit="10"/>
<path d="M121.675 56.6062C121.675 56.6062 115.699 57.4015 114.165 63.366C112.227 70.762 119.737 74.2612 119.737 74.2612C119.737 74.2612 113.519 75.6131 112.873 81.2595C112.227 86.9059 117.314 89.0532 117.314 89.0532C117.314 89.0532 111.177 92.4728 117.314 97.0854" stroke="#1B1C1E" stroke-miterlimit="10"/>
<path d="M101.729 66.6267C101.729 66.6267 97.0449 68.1377 96.4796 72.2731C95.6721 77.999 100.033 80.0667 100.033 80.0667C100.033 80.0667 95.7528 81.8163 96.4796 86.3494C97.1257 90.8824 101.729 91.6777 101.729 91.6777" stroke="#1B1C1E" stroke-miterlimit="10"/>
<path d="M57.7977 61.8549C57.7977 61.8549 51.5795 58.9919 43.2618 50.244C34.944 41.5756 25.8994 36.1677 25.8994 36.1677" stroke="#1B1C1E" stroke-miterlimit="10"/>
<path d="M57.7979 69.8871C57.7979 69.8871 48.7533 66.3084 43.0197 63.5249C37.2861 60.7415 33.6521 60.1848 33.6521 60.1848" stroke="#1B1C1E" stroke-miterlimit="10"/>
<path d="M58.8476 74.3406C58.8476 74.3406 46.8959 82.2137 39.6279 80.3846" stroke="#1B1C1E" stroke-miterlimit="10"/>
<path d="M55.6982 82.9297C55.6982 82.9297 52.468 94.2225 39.6279 100.585" stroke="#1B1C1E" stroke-miterlimit="10"/>
<path d="M120.464 42.2913C117.072 41.6551 110.127 41.2575 107.947 47.7787C105.766 54.2999 118.364 56.6061 123.533 50.5621C128.701 44.5976 122.644 42.7685 120.464 42.2913Z" fill="white"/>
<path d="M162.053 52.3911C152.362 55.4927 148.97 51.5164 140.41 45.3928C133.465 40.3826 127.732 40.7802 128.862 37.5992C146.628 36.7244 162.133 40.2235 174.004 47.9376C176.104 51.9935 170.37 49.6872 162.053 52.3911Z" fill="white"/>
<mask id="mask1_37_1969" style="mask-type:luminance" maskUnits="userSpaceOnUse" x="72" y="85" width="76" height="33">
<path d="M147.84 110.843C141.864 111.082 124.421 120.148 100.113 116.251C80.9745 113.15 76.3715 97.5625 73.8681 88.4169C73.6258 87.383 73.222 86.5082 72.6567 85.7925C73.222 86.5082 82.8319 97.5625 99.1444 99.7892C122.806 102.97 135.888 97.4034 136.373 97.1648C139.683 107.662 147.84 110.843 147.84 110.843Z" fill="white"/>
</mask>
<g mask="url(#mask1_37_1969)">
<g opacity="0.78">
<path d="M131.043 116.331C131.043 116.251 131.043 116.172 131.043 116.092C130.962 116.092 130.962 116.172 131.043 116.331Z" fill="#4B1804"/>
<path d="M130.801 114.184C130.801 114.104 130.881 113.945 130.801 113.786V114.184Z" fill="#4B1804"/>
<path d="M129.589 113.309C129.589 113.229 129.508 113.229 129.508 113.15C129.508 113.229 129.508 113.309 129.589 113.309Z" fill="#4B1804"/>
<path d="M138.391 113.07C138.472 113.07 138.472 113.07 138.472 112.991V112.911C138.391 112.832 138.391 112.991 138.391 113.07Z" fill="#4B1804"/>
<path d="M137.988 112.831L138.068 112.752C138.068 112.752 137.988 112.752 137.988 112.831Z" fill="#4B1804"/>
<path d="M139.441 107.822L139.28 107.503C139.361 107.662 139.441 107.742 139.441 107.822Z" fill="#4B1804"/>
<path d="M138.23 114.184C138.23 114.104 138.23 114.025 138.149 113.865C138.149 114.025 138.068 114.025 138.23 114.184Z" fill="#4B1804"/>
<path d="M131.123 116.49C131.123 116.41 131.123 116.41 131.043 116.331C131.043 116.41 131.043 116.41 131.123 116.49Z" fill="#4B1804"/>
<path d="M131.366 113.945C131.285 114.024 131.285 114.024 131.366 113.945Z" fill="#4B1804"/>
<path d="M135.969 114.104C135.484 113.309 136.211 113.945 135.807 113.15C135.727 113.388 135.727 113.547 135.404 113.15C135.242 112.672 135.727 113.07 135.404 112.354L135.323 112.752C135 112.513 134.919 111.877 134.838 111.957C135.161 112.991 134.031 111.877 133.95 112.116V111.957L133.465 111.639C133.465 111.639 133.465 111.639 133.465 111.559C133.465 111.639 133.546 111.639 133.546 111.718C133.223 111.321 132.819 111.082 132.577 111.321C132.739 111.877 131.931 111.877 132.012 112.354C132.012 112.195 132.093 112.116 132.335 112.195L132.658 112.832C132.416 112.911 132.335 112.275 132.335 112.752C132.819 113.627 132.658 112.593 132.9 112.593C132.981 112.832 132.981 113.07 132.9 113.15C133.223 112.991 133.708 113.15 133.465 112.195C133.627 112.354 133.788 112.752 133.788 112.832C133.788 112.195 134.192 113.229 134.192 112.672C134.515 113.547 133.95 113.309 133.95 113.865C133.304 113.388 133.223 114.183 132.981 114.422C132.658 113.786 132.658 113.229 132.335 112.911C131.77 112.672 132.173 113.388 132.173 113.865C131.85 113.786 131.689 112.832 131.285 112.991V112.513C130.639 111.718 131.285 112.991 130.962 112.832C131.124 112.991 131.204 113.229 131.366 113.15C131.527 113.468 131.447 113.627 131.447 113.706H131.527C131.689 114.183 131.85 114.661 131.527 114.502C131.447 113.945 131.124 114.183 130.962 114.024V113.865C130.881 114.104 130.639 114.104 130.558 114.263L130.478 114.104C130.478 114.343 130.72 115.058 130.478 114.979C130.397 114.74 130.316 113.945 130.154 114.104C129.993 113.706 130.235 113.547 130.478 113.627C130.235 113.547 129.831 112.991 130.074 112.832C129.751 112.354 129.993 113.15 129.751 112.991C129.831 113.15 129.912 113.309 129.993 113.468C129.67 112.832 129.508 113.627 129.751 114.104L129.831 113.627C130.074 114.183 129.993 114.661 130.235 114.899C129.751 114.104 129.831 115.615 129.347 114.899L129.589 115.297C129.024 115.217 129.024 116.41 128.62 116.808C128.701 116.49 128.297 115.535 128.701 115.774C128.136 115.774 128.136 114.899 127.813 114.502C127.328 114.343 127.974 115.456 128.055 115.774L128.216 115.535C128.378 116.728 127.167 115.695 127.005 116.569C126.844 116.331 127.005 116.331 127.086 116.251C126.601 115.774 126.924 116.49 126.844 116.728C126.601 116.728 126.197 116.569 126.036 115.854C125.713 115.774 126.198 116.251 126.198 116.49L126.117 116.331L126.198 117.206C125.874 117.046 125.471 116.808 125.148 116.172C124.663 116.49 125.551 117.762 125.309 118.16C124.986 117.921 125.148 117.603 125.067 117.365L124.744 117.524C124.582 116.728 124.986 116.967 124.582 116.092C124.663 117.126 124.34 116.49 124.179 117.206L124.259 117.285C124.34 117.921 123.775 117.683 123.613 117.842C123.533 117.444 123.775 117.285 123.936 117.126C123.613 116.887 123.048 117.444 123.129 118.319C122.967 118.239 122.483 118.001 122.644 117.603C122.079 117.603 122.806 118.796 122.321 118.717L122.16 118.08C121.433 117.365 121.433 119.194 120.787 118.478L120.948 119.273C120.787 118.955 120.464 118.876 120.383 118.637L120.545 118.319C120.141 117.762 120.464 118.955 120.141 118.637C120.222 118.876 120.545 119.353 120.625 119.591C121.514 118.876 122.806 119.671 123.533 118.557C123.452 118.478 123.371 118.398 123.371 118.239C123.533 118.398 123.694 118.08 123.775 118.557V118.637C123.936 118.398 124.502 119.194 124.663 119.114C124.582 118.557 125.309 119.114 124.825 118.319L125.228 118.796C125.148 118.478 124.986 118.08 124.986 117.842C125.148 117.842 125.309 118.16 125.228 118.478C126.036 118.557 126.763 118.16 127.328 117.603V118.08C127.57 118.239 127.651 117.126 127.893 118.239C128.055 117.683 128.943 118.16 128.459 117.126C129.105 118.08 129.428 117.206 129.831 116.887C129.347 116.013 130.074 116.49 129.993 116.013C130.397 116.649 129.912 116.887 130.154 117.365C130.154 116.092 131.85 117.524 131.204 115.695C131.285 115.774 131.366 115.774 131.366 115.854C131.447 115.854 131.689 116.092 131.85 116.092C131.77 115.774 131.527 115.695 131.689 115.535C131.85 115.535 132.012 116.092 132.173 116.251C132.335 115.695 132.739 115.297 132.416 114.581C132.577 114.74 132.9 115.058 132.819 115.297C133.062 114.502 133.385 115.138 133.708 114.581C133.546 114.661 133.95 115.376 133.546 115.217C134.273 116.092 134.273 114.661 134.919 114.979L134.758 114.263C134.919 114.024 135.242 114.661 135.242 114.899C135.888 115.058 135.888 114.581 136.211 114.422C136.292 114.502 136.292 114.581 136.211 114.581L136.696 114.343C136.696 114.184 136.696 113.786 136.453 113.388C136.292 113.945 136.292 114.263 135.969 114.104Z" fill="#4B1804"/>
<path d="M130.639 112.911C130.72 113.07 130.8 113.07 130.881 113.15C130.8 112.991 130.72 112.911 130.639 112.911Z" fill="#4B1804"/>
<path d="M139.845 110.207C139.28 109.332 139.684 110.525 139.28 110.366C139.361 110.128 139.038 109.571 138.876 109.332C139.361 110.684 138.472 109.253 138.149 109.73C137.907 109.332 138.068 109.173 137.826 108.696C137.745 109.094 137.503 109.491 137.826 110.207C137.422 110.446 137.019 110.366 136.857 110.605C137.019 110.207 136.534 109.889 136.453 109.173C136.615 110.128 136.453 111.4 136.534 112.593C136.05 111.877 136.05 111.798 135.727 111.082C135 110.843 135.969 111.877 135.404 111.877H135.727C135.646 112.195 135.969 112.911 136.211 113.468L136.696 113.07C136.938 113.627 136.615 113.706 136.534 113.865C136.696 114.581 137.099 114.183 137.261 114.661C137.099 114.183 137.422 114.263 137.422 113.945L137.584 114.184C137.988 114.343 137.745 113.547 137.988 113.468C138.068 113.547 138.068 113.627 138.068 113.627C137.988 113.309 137.826 112.832 137.907 112.672L137.826 112.752C137.665 111.957 137.907 111.321 137.18 110.764L137.826 110.684C138.149 111.4 138.634 112.593 138.392 112.832L138.553 113.15C139.038 113.468 138.957 112.195 138.392 111.718C137.665 109.889 139.199 111.241 139.199 110.287C139.522 110.764 139.361 111.082 139.441 111.4C139.361 111.559 139.28 111.559 139.038 111.161C138.634 111.718 140.007 112.593 139.28 112.752C138.876 112.672 139.199 111.798 138.715 111.957L139.118 113.388C139.361 113.229 139.522 112.832 139.603 112.593C140.33 111.082 141.541 111.4 141.541 111.4C143.156 110.287 144.771 109.173 146.386 107.98C146.79 107.503 147.032 107.424 146.467 106.072C146.225 105.913 145.982 106.231 145.821 105.674C146.063 106.151 146.063 106.549 145.74 106.708C145.417 106.231 145.821 106.31 145.74 106.231H145.659C145.579 105.992 145.498 105.833 145.579 105.754C144.852 105.276 144.367 105.754 144.69 106.708C144.125 106.39 144.448 105.913 144.287 105.436C143.237 105.595 142.672 105.992 141.783 106.469C142.268 107.265 142.025 107.026 142.187 107.662L141.945 107.424C142.106 107.583 142.268 108.219 142.591 108.219C141.702 107.901 142.591 109.65 142.51 110.207L142.268 109.73C142.025 109.969 141.945 110.048 141.783 110.366C140.814 109.81 142.106 109.969 141.379 109.014V109.253C141.218 108.776 140.895 108.06 140.895 107.662C140.814 108.617 140.087 107.742 139.926 108.537C139.684 108.06 139.926 107.424 140.007 107.265C139.845 107.344 139.764 107.821 139.441 107.424L139.764 108.06C139.522 108.299 139.522 107.503 139.199 107.185C138.553 107.98 140.249 109.491 139.845 110.207Z" fill="#4B1804"/>
<path d="M132.577 113.468C132.658 113.468 132.739 113.388 132.819 113.309C132.739 113.388 132.658 113.388 132.577 113.468Z" fill="#4B1804"/>
<path d="M133.385 111.639C133.385 111.559 133.304 111.48 133.304 111.4C133.304 111.48 133.304 111.559 133.385 111.639Z" fill="#4B1804"/>
<path d="M133.062 110.764C133.223 111.002 133.142 111.082 133.304 111.48C133.304 111.162 133.546 111.082 133.062 110.764Z" fill="#4B1804"/>
<path d="M119.172 117.206C119.091 117.206 119.172 117.444 119.252 117.444V117.047L119.172 117.206Z" fill="#4B1804"/>
<path d="M125.551 116.172C125.228 115.933 125.471 116.49 125.632 116.887C125.955 116.887 125.39 116.41 125.551 116.172Z" fill="#4B1804"/>
<path d="M128.862 113.945C128.539 113.706 128.539 114.263 128.378 114.343C128.62 114.581 128.781 114.263 128.862 113.945Z" fill="#4B1804"/>
<path d="M129.428 111.48C129.428 111.639 129.428 111.798 129.589 111.798L129.832 112.832C130.316 113.07 129.67 111.877 129.428 111.48Z" fill="#4B1804"/>
<path d="M131.043 110.605L130.962 111.082L131.123 111.002C131.204 111.4 131.285 111.639 131.366 111.957C131.446 111.718 131.446 111.241 131.043 110.605Z" fill="#4B1804"/>
<path d="M131.124 112.275L131.204 112.195C131.124 112.036 131.043 111.957 131.124 112.275Z" fill="#4B1804"/>
<path d="M131.366 112.116C131.366 112.036 131.366 112.036 131.366 111.957C131.366 112.036 131.285 112.116 131.285 112.116C131.285 112.275 131.366 112.275 131.366 112.116Z" fill="#4B1804"/>
<path d="M131.527 110.923L131.931 110.605L131.689 110.525C131.85 111.082 131.285 110.287 131.527 110.923Z" fill="#4B1804"/>
<path d="M134.192 110.207L134.515 110.764C134.919 110.764 134.596 109.332 135.242 110.128C134.919 109.889 135.161 109.412 134.757 109.412C134.838 109.969 134.434 110.287 134.192 110.207Z" fill="#4B1804"/>
<path d="M135.726 110.446C135.807 110.605 135.888 110.684 136.049 110.843C136.211 110.843 136.13 110.525 135.969 110.366C136.211 111.162 135.565 109.969 135.726 110.446Z" fill="#4B1804"/>
<path d="M137.019 109.73C136.938 109.81 136.857 109.889 137.019 109.969C137.261 109.81 136.857 109.173 136.776 108.776C136.453 108.537 136.696 109.492 137.019 109.73Z" fill="#4B1804"/>
<path d="M141.379 112.673C141.056 112.195 140.895 112.434 140.976 112.593C140.976 112.434 141.137 112.513 141.379 112.673Z" fill="#4B1804"/>
<path d="M139.199 108.696L139.037 108.617L139.36 109.412L139.199 108.696Z" fill="#4B1804"/>
<path d="M140.491 107.503L140.41 106.947L140.168 107.185L140.491 107.503Z" fill="#4B1804"/>
<path d="M140.814 107.424L141.056 107.265L140.895 107.106C140.653 107.026 140.895 107.344 140.814 107.424Z" fill="#4B1804"/>
<path d="M141.541 106.947C141.541 107.026 141.46 106.947 141.379 106.867L141.299 107.265L141.541 106.947Z" fill="#4B1804"/>
<path d="M147.355 107.424C147.597 107.901 147.597 107.503 147.759 107.503C147.759 107.344 147.194 106.867 147.355 107.424Z" fill="#4B1804"/>
</g>
</g>
<mask id="mask2_37_1969" style="mask-type:luminance" maskUnits="userSpaceOnUse" x="129" y="62" width="19" height="52">
<path d="M147.84 110.844C145.579 110.923 141.702 112.275 136.453 113.707C132.819 108.855 130.962 103.845 130.235 98.9145C127.974 82.2139 139.684 66.7061 142.994 62.8093C140.814 65.5928 135 74.1021 135 87.4627C135 91.2004 135.565 94.3815 136.373 97.0854C139.684 107.662 147.84 110.844 147.84 110.844Z" fill="white"/>
</mask>
<g mask="url(#mask2_37_1969)">
<g opacity="0.78">
<path d="M135.161 94.302C135.242 94.302 135.242 94.3815 135.323 94.3815C135.323 94.302 135.242 94.302 135.161 94.302Z" fill="#4B1804"/>
<path d="M134.838 85.6337L134.677 85.5542C134.758 85.6337 134.757 85.6337 134.838 85.6337Z" fill="#4B1804"/>
<path d="M136.615 94.7793C136.696 94.8588 136.776 94.9383 136.857 94.9383L136.615 94.7793Z" fill="#4B1804"/>
<path d="M137.18 93.8249C137.18 93.8249 137.261 93.8249 137.261 93.7454C137.261 93.7454 137.261 93.7454 137.18 93.8249Z" fill="#4B1804"/>
<path d="M137.826 102.414C137.826 102.494 137.826 102.494 137.907 102.573H137.988C137.988 102.494 137.826 102.414 137.826 102.414Z" fill="#4B1804"/>
<path d="M137.907 102.096L137.988 102.175C137.988 102.096 137.988 102.096 137.907 102.096Z" fill="#4B1804"/>
<path d="M141.864 104.322L142.025 104.243C141.945 104.243 141.864 104.322 141.864 104.322Z" fill="#4B1804"/>
<path d="M137.019 101.937C137.099 101.937 137.18 101.937 137.18 101.937C137.099 101.937 137.019 101.857 137.019 101.937Z" fill="#4B1804"/>
<path d="M135.08 82.3731C135.08 82.2936 135.08 82.214 135.08 82.1345C135 82.2936 135 82.3731 135.08 82.3731Z" fill="#4B1804"/>
<path d="M136.776 99.7896C137.261 99.4714 136.938 100.108 137.422 99.8691C137.261 99.7896 137.099 99.71 137.342 99.4715C137.665 99.4715 137.422 99.7896 137.907 99.71L137.665 99.551C137.826 99.3124 138.23 99.3919 138.149 99.2329C137.422 99.3124 138.149 98.5171 137.988 98.3581L138.068 98.4376L138.23 98.04H138.149C138.391 97.8014 138.553 97.4833 138.391 97.2447C137.988 97.2447 137.988 96.4494 137.665 96.4494C137.745 96.529 137.826 96.6085 137.745 96.7675L137.342 96.8471C137.261 96.6085 137.745 96.688 137.422 96.5289C136.857 96.7675 137.503 96.8471 137.503 97.0856C137.342 97.0856 137.18 97.0061 137.099 96.9266C137.18 97.3242 137.099 97.7219 137.745 97.7219C137.665 97.8809 137.422 97.8809 137.342 97.8809C137.745 98.04 137.099 98.199 137.422 98.2786C136.857 98.3581 136.938 97.8809 136.534 97.7219C136.857 97.2447 136.292 96.9266 136.13 96.6085C136.534 96.4494 136.938 96.6085 137.18 96.4494C137.342 95.9723 136.857 96.1313 136.534 95.9723C136.615 95.6542 137.18 95.7337 137.099 95.336L137.422 95.4951C137.907 95.0975 137.099 95.3361 137.18 95.0975C137.019 95.177 136.857 95.2565 136.938 95.4156C136.696 95.4951 136.615 95.3361 136.534 95.2565V95.336C136.211 95.336 135.888 95.3361 135.969 95.0975C136.373 95.177 136.211 94.8589 136.292 94.6998L136.373 94.7794C136.211 94.6203 136.211 94.3817 136.13 94.3022H136.211C136.05 94.2227 135.565 94.2227 135.646 93.9841C135.807 93.9841 136.373 94.1432 136.211 93.9046C136.453 93.9046 136.534 94.1431 136.534 94.3817C136.615 94.1431 137.019 93.9841 137.099 94.2227C137.422 94.0636 136.938 93.9841 137.019 93.825C136.938 93.9046 136.776 93.825 136.696 93.9046C137.099 93.825 136.615 93.4274 136.292 93.4274L136.615 93.666C136.292 93.7455 135.969 93.5069 135.807 93.5865C136.373 93.3479 135.403 92.9502 135.888 92.7117L135.646 92.8707C135.726 92.314 135 91.9959 134.838 91.4392C135.08 91.5983 135.646 91.5188 135.484 91.9164C135.565 91.3597 136.05 91.6778 136.373 91.5188C136.534 91.1211 135.726 91.3597 135.565 91.2802L135.726 91.5188C135 91.2802 135.726 90.4849 135.242 89.9282C135.403 89.8487 135.323 90.0078 135.403 90.0873C135.726 89.8487 135.323 89.8487 135.161 89.6896C135.242 89.4511 135.323 89.133 135.807 89.2125C135.888 88.8944 135.565 89.292 135.403 89.133L135.484 89.0534L134.919 88.8148C135.08 88.5763 135.323 88.2582 135.726 88.0991C135.646 87.5424 134.677 87.9401 134.515 87.4629C134.757 87.2243 134.838 87.5424 135.08 87.5424L135 87.1448C135.484 87.3038 135.242 87.5424 135.888 87.5424C135.242 87.2243 135.726 87.1448 135.323 86.7472H135.242C134.838 86.5881 135.161 86.1109 135.08 85.8724C135.323 85.9519 135.323 86.27 135.403 86.429C135.646 86.1905 135.484 85.4747 134.919 85.2361C135 85.0771 135.242 84.759 135.484 84.9976C135.646 84.4409 134.757 84.6794 134.919 84.2818L135.323 84.3613C135.969 83.8842 134.919 83.248 135.484 82.8503L135 82.7708C135.242 82.6913 135.323 82.4527 135.565 82.4527L135.726 82.6913C136.13 82.5322 135.403 82.3732 135.726 82.2141C135.565 82.2141 135.242 82.3732 135.08 82.3732C135.161 82.9299 135 83.407 134.838 83.9637C134.677 84.5204 134.596 84.9976 134.838 85.5542C134.919 85.5542 135 85.4747 135.08 85.4747C134.919 85.5542 135.08 85.7928 134.838 85.7928V85.7133C134.919 86.0314 134.354 86.27 134.354 86.429C134.677 86.5086 134.192 86.9857 134.757 86.9062L134.434 87.0653C134.677 87.1448 134.919 87.0653 135 87.2243C134.919 87.3834 134.757 87.4629 134.596 87.3038C134.354 88.0196 134.434 88.9739 134.677 89.6896L134.354 89.5306C134.192 89.6896 134.838 90.1668 134.192 90.0873C134.515 90.4054 134.111 91.1211 134.838 91.1211C134.192 91.4392 134.596 92.0754 134.838 92.5526C135.403 92.3936 135.08 92.9502 135.403 93.0298C134.919 93.1888 134.838 92.7117 134.515 92.7117C135.323 93.1093 134.273 94.3022 135.484 94.3022C135.484 94.3817 135.403 94.3817 135.323 94.3817C135.323 94.4613 135.161 94.6998 135.161 94.7794C135.403 94.7794 135.403 94.5408 135.565 94.7794C135.565 95.0179 135.242 94.9384 135.08 95.0975C135.403 95.4156 135.726 95.9723 136.211 95.8927C136.13 96.0518 135.888 96.2108 135.726 96.1313C136.292 96.6085 135.807 96.688 136.211 97.2447C136.13 97.0856 135.646 97.3242 135.807 96.9266C135.242 97.3242 136.211 97.8014 136.049 98.3581L136.534 98.4376C136.696 98.6762 136.292 98.8352 136.13 98.6762C136.05 99.2329 136.373 99.3919 136.534 99.7896C136.453 99.8691 136.373 99.8691 136.373 99.7896C136.453 99.9486 136.453 100.108 136.534 100.346C136.696 100.346 136.938 100.426 137.18 100.346C136.857 100.187 136.696 100.108 136.776 99.7896Z" fill="#4B1804"/>
<path d="M137.422 94.9382C137.342 95.0178 137.261 95.0973 137.261 95.0973C137.341 95.0973 137.422 95.0178 137.422 94.9382Z" fill="#4B1804"/>
<path d="M140.168 104.323C140.733 103.925 139.926 104.084 139.926 103.766C140.087 103.925 140.41 103.686 140.572 103.527C139.683 103.686 140.572 103.13 140.168 102.812C140.41 102.652 140.572 102.891 140.895 102.732C140.572 102.573 140.249 102.334 139.845 102.493C139.603 102.096 139.603 101.698 139.441 101.46C139.764 101.698 139.926 101.3 140.41 101.3C139.764 101.221 138.795 100.903 137.988 100.664C138.472 100.426 138.472 100.346 138.957 100.187C139.037 99.5509 138.472 100.267 138.391 99.71V99.9485C138.149 99.7895 137.665 99.9485 137.342 100.028L137.665 100.585C137.342 100.744 137.18 100.346 137.099 100.267C136.615 100.267 136.938 100.744 136.615 100.744C136.938 100.744 136.938 100.982 137.099 101.062L136.938 101.141C136.857 101.539 137.422 101.46 137.503 101.698C137.503 101.778 137.422 101.778 137.422 101.778C137.665 101.778 137.988 101.778 138.068 101.857L137.988 101.778C138.472 101.778 139.037 102.175 139.28 101.619L139.441 102.255C138.957 102.414 138.23 102.652 137.988 102.334L137.745 102.414C137.665 102.812 138.472 102.971 138.795 102.573C140.006 102.255 139.28 103.448 140.006 103.607C139.764 103.766 139.522 103.607 139.199 103.686C139.118 103.607 139.037 103.527 139.28 103.368C138.795 102.891 138.391 104.004 138.149 103.289C138.149 102.891 138.795 103.448 138.634 102.971L137.665 103.05C137.826 103.289 138.149 103.527 138.311 103.686C138.957 104.163 139.28 104.641 139.441 105.038C139.603 105.436 139.683 105.674 139.683 105.674C140.895 107.345 142.348 109.015 143.883 110.446C144.448 110.844 144.609 111.003 145.417 110.526C145.417 110.287 145.094 110.128 145.417 109.969C145.094 110.208 144.852 110.128 144.609 109.889C144.852 109.651 144.933 109.969 144.933 109.889V109.81C145.094 109.73 145.175 109.651 145.256 109.73C145.336 109.094 144.852 108.697 144.125 108.935C144.206 108.458 144.69 108.776 144.933 108.697C144.448 107.742 143.963 107.265 143.317 106.47C142.833 106.788 142.914 106.629 142.51 106.708L142.591 106.47C142.51 106.549 142.106 106.708 142.106 106.947C142.106 106.152 141.056 106.788 140.572 106.629L140.814 106.47C140.572 106.231 140.491 106.152 140.168 105.993C140.329 105.197 140.491 106.39 141.056 105.834L140.895 105.754C141.218 105.674 141.702 105.436 141.945 105.515C141.218 105.356 141.702 104.8 141.056 104.482C141.379 104.323 141.864 104.641 142.025 104.72C141.945 104.561 141.541 104.402 141.783 104.243L141.379 104.402C141.137 104.163 141.702 104.243 141.945 104.004C141.541 103.448 140.733 104.8 140.168 104.323Z" fill="#4B1804"/>
<path d="M137.019 96.6877C137.019 96.7673 137.019 96.8468 137.099 96.9263C137.099 96.8468 137.099 96.7673 137.019 96.6877Z" fill="#4B1804"/>
<path d="M138.311 97.9605C138.392 97.9605 138.392 97.9605 138.472 97.9605C138.392 97.881 138.311 97.881 138.311 97.9605Z" fill="#4B1804"/>
<path d="M138.876 97.8809C138.714 97.9604 138.634 97.8809 138.391 97.8809C138.634 97.9604 138.714 98.199 138.876 97.8809Z" fill="#4B1804"/>
<path d="M139.845 73.2275C139.764 73.148 139.684 72.9094 139.603 72.9094V73.2275H139.845Z" fill="#4B1804"/>
<path d="M139.199 73.7046L138.957 73.9432L139.441 74.3408C139.522 73.9432 139.118 73.9432 139.199 73.7046Z" fill="#4B1804"/>
<path d="M138.633 74.3408L138.553 74.2612C138.553 74.3408 138.553 74.3408 138.633 74.3408Z" fill="#4B1804"/>
<path d="M138.795 74.4205L139.118 74.659L138.957 74.1819L138.795 74.2614C138.634 74.1819 138.553 74.2614 138.472 74.2614L138.714 74.5C138.795 74.5795 138.795 74.4205 138.795 74.4205Z" fill="#4B1804"/>
<path d="M137.745 75.2157C137.907 75.2157 138.068 75.4543 138.23 75.4543C138.472 75.2157 137.907 74.9771 138.149 74.8181C138.311 75.2953 138.472 74.7386 138.714 74.7386C138.311 74.659 137.988 74.7386 137.826 74.9771L138.068 75.0567C137.988 75.2952 137.907 75.1362 137.745 75.2157Z" fill="#4B1804"/>
<path d="M137.826 76.9654L137.503 76.6472C137.665 76.6472 137.826 76.3292 138.23 76.4087C138.23 76.2496 138.068 76.1701 137.988 76.011C138.23 76.011 138.391 75.9315 138.149 75.7725C137.665 76.2496 137.665 76.011 137.422 76.4882C137.342 76.4882 137.342 76.4087 137.422 76.3291L137.099 76.5677C137.584 76.7268 137.422 77.2039 137.826 76.9654Z" fill="#4B1804"/>
<path d="M137.422 77.3629C137.503 77.1243 137.18 76.8857 136.857 76.8857L137.019 77.522C137.019 77.3629 137.099 77.1243 137.422 77.3629Z" fill="#4B1804"/>
<path d="M137.341 77.6809C137.099 77.7604 136.615 77.7604 137.018 78.0785C136.938 77.7604 137.503 78.0785 137.341 77.6809Z" fill="#4B1804"/>
<path d="M136.453 79.51C136.615 79.3509 136.695 79.1919 136.857 79.0328C137.422 79.0328 136.938 79.3509 137.18 79.51C137.342 79.1123 137.18 79.1919 136.938 78.7942C137.019 78.7147 136.776 78.3966 136.696 78.2375C136.938 79.0328 135.646 78.7942 136.453 79.51Z" fill="#4B1804"/>
<path d="M137.261 78.5559L137.019 78.4763L137.18 78.7944L137.261 78.5559Z" fill="#4B1804"/>
<path d="M135.646 80.6236C135 80.8622 135.888 81.2599 135.565 81.578C135.565 81.4984 135.484 81.578 135.403 81.4984V81.8165H135.242C135.646 81.8165 135.726 82.2142 135.969 82.3732C136.373 82.1346 135.565 82.1346 135.969 81.9756C136.13 82.0551 136.373 82.1346 136.534 82.2142C136.373 81.9756 136.13 81.8961 135.969 81.8165C135.969 81.5779 136.13 81.737 136.292 81.737C136.13 81.4984 135.565 81.4189 135.726 81.1008C136.13 80.9417 136.211 81.3394 136.13 80.9417C135.484 81.0213 136.292 80.6236 135.969 80.3851C136.13 80.1465 136.534 79.9874 136.696 80.1465C136.211 80.0669 135.888 79.7488 135.807 79.5103L136.049 80.0669L135.484 80.1465C135.888 80.226 135.807 80.385 135.646 80.6236Z" fill="#4B1804"/>
<path d="M137.019 79.9077L137.099 80.0668L137.261 79.9872L137.019 79.9077Z" fill="#4B1804"/>
<path d="M136.938 82.4526C136.938 82.373 136.776 82.373 136.776 82.373L137.019 82.5321L136.938 82.4526Z" fill="#4B1804"/>
<path d="M136.534 82.6116L136.211 82.7706L136.453 82.8502L136.534 82.6116Z" fill="#4B1804"/>
<path d="M135.969 88.9737C136.13 88.7351 135.807 88.8146 135.484 88.7351C135.403 89.1327 135.807 88.8146 135.969 88.9737Z" fill="#4B1804"/>
<path d="M136.857 92.8706C137.019 92.632 136.696 92.473 136.615 92.2344C136.453 92.473 136.615 92.7911 136.857 92.8706Z" fill="#4B1804"/>
<path d="M138.391 94.3022C138.23 94.3022 138.149 94.2227 138.149 94.3022L137.422 94.2227C137.341 94.6203 138.149 94.3817 138.391 94.3022Z" fill="#4B1804"/>
<path d="M138.957 96.0518L138.634 95.8132V95.9723C138.391 95.9723 138.23 95.9723 137.988 95.8928C138.23 96.0518 138.553 96.2109 138.957 96.0518Z" fill="#4B1804"/>
<path d="M137.826 95.6541L137.907 95.7336C137.988 95.7336 138.068 95.6541 137.826 95.6541Z" fill="#4B1804"/>
<path d="M137.988 95.8927H138.069C137.988 95.8132 137.988 95.8132 137.907 95.7336C137.826 95.8132 137.826 95.8132 137.988 95.8927Z" fill="#4B1804"/>
<path d="M138.715 96.3697L138.957 96.8469L139.038 96.6083C138.634 96.6878 139.199 96.2902 138.715 96.3697Z" fill="#4B1804"/>
<path d="M139.36 98.9941L139.037 99.1532C139.118 99.4713 140.006 99.5508 139.522 100.028C139.683 99.7894 140.006 100.108 140.006 99.7099C139.603 99.7099 139.36 99.3122 139.36 98.9941Z" fill="#4B1804"/>
<path d="M139.28 100.426C139.118 100.426 139.118 100.505 139.037 100.585C139.037 100.744 139.28 100.744 139.36 100.664C138.876 100.744 139.683 100.346 139.28 100.426Z" fill="#4B1804"/>
<path d="M140.006 101.778C139.926 101.698 139.845 101.619 139.845 101.778C140.006 102.016 140.33 101.778 140.653 101.778C140.814 101.46 140.168 101.539 140.006 101.778Z" fill="#4B1804"/>
<path d="M138.715 105.356C138.957 105.118 138.795 104.959 138.715 104.959C138.795 104.959 138.795 105.197 138.715 105.356Z" fill="#4B1804"/>
<path d="M141.137 103.925V103.845L140.653 104.004L141.137 103.925Z" fill="#4B1804"/>
<path d="M142.348 105.277H142.752L142.51 105.038L142.348 105.277Z" fill="#4B1804"/>
<path d="M142.51 105.595L142.672 105.834L142.752 105.674C142.752 105.515 142.51 105.674 142.51 105.595Z" fill="#4B1804"/>
<path d="M143.075 106.311C142.994 106.311 143.075 106.231 143.075 106.231L142.752 106.152L143.075 106.311Z" fill="#4B1804"/>
<path d="M144.771 111.321C144.448 111.559 144.852 111.559 144.932 111.718C144.932 111.639 145.094 111.162 144.771 111.321Z" fill="#4B1804"/>
</g>
</g>
<path d="M146.628 109.094C141.056 107.981 133.062 109.969 127.651 118.637C124.098 124.284 121.998 136.133 124.582 136.133C127.166 136.133 136.615 131.202 143.156 121.023C148.809 112.275 148.567 109.492 146.628 109.094Z" fill="#FF510C"/>
<path d="M142.995 62.8093C140.814 65.5928 135 74.1021 135 87.4627C135 91.2004 135.565 94.3815 136.373 97.0854C139.684 107.662 147.84 110.844 147.84 110.844" stroke="#1B1C1E" stroke-miterlimit="10"/>
<path d="M75.4023 50.3234C79.4401 48.8124 84.5277 46.9833 91.0688 44.8361C106.493 39.8259 121.19 37.3606 134.434 37.4401" stroke="#1B1C1E" stroke-miterlimit="10"/>
<path d="M67.8921 141.064C67.8921 141.064 63.9351 142.734 74.7563 143.211C85.6582 143.688 143.075 143.927 148.97 143.211C154.865 142.495 161.487 141.62 150.343 140.666C141.945 139.95 129.589 140.03 121.029 139.791C105.605 139.394 72.5759 139.553 67.8921 141.064Z" fill="#1B1C1E"/>
</svg>
