<svg width="125" height="132" viewBox="0 0 125 132" fill="none" xmlns="http://www.w3.org/2000/svg">
<path d="M1.96953 128.589C1.96953 128.589 -3.36031 130.657 11.2564 131.293C25.9538 131.929 103.479 132.247 111.393 131.293C119.387 130.339 134.892 130.895 114.3 128.589C93.7073 126.283 72.5495 127.635 51.7954 126.283C31.0414 124.851 5.03822 126.124 1.96953 128.589Z" fill="#1B1C1E"/>
<path d="M99.4409 91.8476C99.4409 91.8476 105.255 91.5295 105.094 86.5988C104.851 81.6681 101.298 81.9863 100.814 79.9981C100.248 77.6918 107.274 76.7375 111.07 82.3839C114.946 88.1894 112.523 99.6412 104.448 102.504C96.4529 105.288 99.4409 91.8476 99.4409 91.8476Z" fill="#967258"/>
<mask id="mask0_37_3727" style="mask-type:luminance" maskUnits="userSpaceOnUse" x="98" y="78" width="15" height="25">
<path d="M99.4409 91.8476C99.4409 91.8476 105.255 91.5295 105.094 86.5988C104.851 81.6681 101.298 81.9863 100.814 79.9981C100.248 77.6918 107.274 76.7375 111.07 82.3839C114.946 88.1894 112.523 99.6412 104.448 102.504C96.4529 105.288 99.4409 91.8476 99.4409 91.8476Z" fill="white"/>
</mask>
<g mask="url(#mask0_37_3727)">
<g opacity="0.53">
<path d="M104.771 93.4382L104.609 93.5178C104.69 93.5178 104.69 93.5178 104.771 93.4382Z" fill="#080809"/>
<path d="M107.678 94.9491C107.678 94.9491 107.759 94.9492 107.759 94.8696C107.678 94.8696 107.678 94.9491 107.678 94.9491Z" fill="#080809"/>
<path d="M109.213 98.4484L109.455 98.3689C109.374 98.3689 109.293 98.4484 109.213 98.4484Z" fill="#080809"/>
<path d="M104.206 92.6428H104.125C104.125 92.7223 104.125 92.7223 104.206 92.6428Z" fill="#080809"/>
<path d="M106.063 97.4145C106.628 97.1759 106.144 97.494 106.709 97.2555C106.547 97.2555 106.467 97.2555 106.79 97.0964C107.113 97.0169 106.79 97.1759 107.274 97.0169H107.032C107.274 96.8578 107.678 96.7783 107.597 96.7783C106.87 96.9373 107.759 96.4602 107.678 96.4602H107.759L108.001 96.2216C108.001 96.2216 107.92 96.2216 107.84 96.3011C108.163 96.1421 108.405 95.983 108.243 95.9035C107.84 95.983 108.001 95.6649 107.678 95.7444C107.759 95.7444 107.84 95.7444 107.759 95.824L107.274 95.983C107.274 95.9035 107.678 95.824 107.355 95.824C106.709 96.0626 107.436 95.9035 107.355 95.983C107.194 95.983 107.032 96.0626 106.951 96.0626C106.951 96.1421 106.79 96.3807 107.436 96.2216C107.274 96.3011 107.032 96.3807 106.951 96.3807C107.355 96.3011 106.628 96.5397 106.951 96.5397C106.386 96.6988 106.547 96.4602 106.224 96.5397C106.628 96.3011 106.144 96.3011 106.063 96.2216C106.467 96.0626 106.87 95.983 107.113 95.824C107.355 95.5854 106.871 95.824 106.547 95.824C106.628 95.6649 107.274 95.5059 107.194 95.4263H107.517C108.082 95.1082 107.274 95.4263 107.355 95.3468C107.194 95.4263 107.032 95.5059 107.113 95.5854C106.87 95.6649 106.79 95.6649 106.709 95.6649C106.386 95.7445 106.063 95.9035 106.224 95.7444C106.628 95.6649 106.467 95.5854 106.628 95.5059H106.709C106.547 95.5059 106.628 95.4263 106.547 95.4263H106.628C106.467 95.4263 105.982 95.5854 106.063 95.5059C106.224 95.4263 106.79 95.2673 106.628 95.2673C106.87 95.1878 106.951 95.2673 106.87 95.3468C106.951 95.2673 107.355 95.0287 107.436 95.1082C107.759 94.9492 107.274 95.1082 107.436 94.9492C107.355 95.0287 107.194 95.0287 107.113 95.1082C107.597 94.9492 107.113 94.9492 106.79 95.1082H107.113C106.709 95.2673 106.467 95.2673 106.305 95.4263C106.87 95.1082 105.901 95.3468 106.386 95.1082L106.063 95.2673C106.144 95.0287 105.417 95.1878 105.255 95.1082C105.498 95.1082 106.063 94.7901 105.901 94.9492C105.982 94.7106 106.467 94.6311 106.79 94.472C106.951 94.2334 106.144 94.7106 105.982 94.7106H106.144C105.336 94.9492 106.144 94.313 105.659 94.3925C105.821 94.313 105.821 94.3925 105.901 94.3925C106.224 94.1539 105.821 94.3925 105.659 94.3925C105.659 94.313 105.821 94.1539 106.305 93.9153C106.386 93.7563 106.063 94.0744 105.901 94.0744L105.982 93.9949L105.417 94.1539C105.498 93.9949 105.74 93.8358 106.144 93.5972C105.982 93.5177 105.094 94.0744 104.852 94.0744C105.013 93.9153 105.175 93.9153 105.336 93.8358L105.255 93.7563C105.74 93.5177 105.578 93.7563 106.144 93.4382C105.498 93.6767 105.901 93.4382 105.498 93.5177H105.417C105.013 93.6768 105.175 93.4382 105.094 93.4382C105.336 93.3586 105.417 93.3586 105.498 93.3586C105.659 93.1996 105.336 93.1201 104.852 93.3586C104.932 93.2791 105.094 93.0405 105.336 93.0405C105.336 92.8815 104.609 93.4382 104.69 93.1996L105.094 92.961C105.578 92.4838 104.448 92.961 104.852 92.5634L104.367 92.8815C104.529 92.7224 104.609 92.6429 104.771 92.4838H104.932C105.255 92.1657 104.529 92.6429 104.771 92.4043C104.609 92.4838 104.367 92.7224 104.206 92.8815C104.609 92.961 104.125 93.5972 104.771 93.5972C104.852 93.5177 104.852 93.5177 104.932 93.4382C104.852 93.5177 105.013 93.5177 104.771 93.6768C104.932 93.6768 104.367 94.0744 104.448 94.0744C104.771 93.9153 104.367 94.313 104.932 93.9949L104.609 94.2334C104.852 94.1539 105.094 93.9949 105.175 93.9949C105.175 94.0744 104.932 94.1539 104.771 94.2334C104.69 94.5515 104.852 94.7106 105.094 94.8697L104.771 94.9492C104.69 95.0287 105.336 94.8696 104.609 95.1878C104.932 95.1878 104.529 95.5059 105.255 95.1878C104.609 95.5854 105.094 95.5854 105.255 95.6649C105.821 95.3468 105.498 95.6649 105.74 95.5854C105.255 95.824 105.175 95.6649 104.852 95.824C105.659 95.6649 104.529 96.4602 105.74 95.983C105.74 95.983 105.659 96.0626 105.578 96.0626C105.578 96.0626 105.417 96.2216 105.336 96.3011C105.578 96.2216 105.659 96.1421 105.74 96.1421C105.74 96.2216 105.336 96.3011 105.255 96.3807C105.578 96.3807 105.74 96.4602 106.224 96.3011C106.063 96.3807 105.821 96.5397 105.74 96.5397C106.224 96.5397 105.74 96.6988 106.063 96.7783C106.063 96.6988 105.498 96.9373 105.74 96.7783C105.094 97.0964 105.982 97.0169 105.659 97.2555L106.144 97.1759C106.224 97.2555 105.821 97.4145 105.659 97.4145C105.417 97.6531 105.74 97.6531 105.74 97.7326C105.659 97.7326 105.578 97.8121 105.578 97.7326V97.8917C105.659 97.8917 105.982 97.8121 106.224 97.7326C106.063 97.494 105.901 97.5736 106.063 97.4145Z" fill="#080809"/>
<path d="M107.759 95.2673C107.678 95.3469 107.597 95.3469 107.597 95.3469C107.678 95.3469 107.759 95.3469 107.759 95.2673Z" fill="#080809"/>
<path d="M107.678 98.6075C108.405 98.369 107.517 98.528 107.678 98.4485C107.84 98.4485 108.243 98.369 108.405 98.2894C107.436 98.528 108.566 98.1304 108.324 98.0508C108.647 97.9713 108.728 97.9713 109.051 97.8918C108.809 97.8918 108.647 97.8123 108.082 97.9713C108.001 97.8123 108.163 97.6532 108.082 97.6532C108.324 97.6532 108.566 97.4942 109.051 97.4146C108.405 97.4942 107.678 97.4942 106.871 97.6532C107.436 97.4146 107.436 97.4146 108.001 97.2556C108.324 96.9375 107.436 97.4146 107.597 97.176L107.517 97.2556C107.355 97.2556 106.79 97.4146 106.467 97.4942L106.628 97.6532C106.224 97.8123 106.305 97.6532 106.144 97.6532C105.659 97.7327 105.821 97.8918 105.498 97.9713C105.821 97.8918 105.74 97.9713 105.901 97.9713L105.74 98.0508C105.578 98.2099 106.063 98.0508 106.063 98.1304C105.982 98.1304 105.982 98.2099 105.901 98.2099C106.144 98.1304 106.467 98.0508 106.548 98.1304C107.032 98.0508 107.436 98.0508 107.92 97.8123L107.84 98.0508C107.274 98.2099 106.467 98.4485 106.386 98.3689L106.144 98.4485C105.901 98.6075 106.628 98.528 107.032 98.2894C108.324 97.9713 107.194 98.528 107.759 98.528C107.436 98.6871 107.274 98.6075 107.032 98.6871C106.951 98.6871 106.951 98.6075 107.274 98.528C107.032 98.4485 106.144 98.9256 106.224 98.6871C106.386 98.528 106.79 98.6075 106.79 98.4485L105.821 98.6871C105.901 98.7666 106.063 98.7666 106.224 98.8461C107.032 99.0052 106.548 99.4823 106.548 99.4823C106.871 100.039 107.113 100.596 107.436 101.152C107.597 101.311 107.597 101.391 108.566 101.152C108.728 101.073 108.647 100.993 108.97 100.914C108.566 100.993 108.405 100.993 108.405 100.834C108.728 100.755 108.566 100.914 108.647 100.834C108.809 100.755 108.97 100.755 108.97 100.834C109.455 100.596 109.293 100.357 108.566 100.516C108.889 100.357 109.132 100.437 109.455 100.357C109.616 99.9595 109.535 99.7209 109.455 99.4028C108.809 99.5619 109.051 99.4823 108.647 99.5619L108.889 99.4823C108.809 99.5619 108.324 99.6414 108.243 99.7209C108.647 99.4028 107.355 99.7209 107.032 99.7209L107.355 99.6414C107.274 99.5619 107.274 99.5619 107.032 99.4823C107.597 99.1642 107.194 99.5618 107.92 99.3233H107.759C108.082 99.2437 108.647 99.0847 108.889 99.0847C108.324 99.0847 109.051 98.7666 108.566 98.7666C108.97 98.6871 109.293 98.7666 109.293 98.7666C109.293 98.6871 109.051 98.6871 109.374 98.528L108.889 98.6871C108.809 98.6075 109.293 98.6075 109.616 98.4485C109.293 98.1304 108.001 98.7666 107.678 98.6075Z" fill="#080809"/>
<path d="M108.082 96.3012C108.163 96.3012 108.163 96.3012 108.244 96.2217C108.244 96.2217 108.163 96.2217 108.082 96.3012Z" fill="#080809"/>
<path d="M108.728 96.0625C108.566 96.142 108.486 96.142 108.243 96.2216C108.405 96.2216 108.405 96.3011 108.728 96.0625Z" fill="#080809"/>
<path d="M104.044 88.7461C103.964 88.8256 103.802 88.9051 103.721 88.9847H103.883L104.044 88.7461Z" fill="#080809"/>
<path d="M103.883 89.2232L103.802 89.3823L104.286 88.9846C104.206 88.9846 103.963 89.3027 103.883 89.2232Z" fill="#080809"/>
<path d="M103.802 89.7004L103.641 89.78C103.721 89.7004 103.721 89.7004 103.802 89.7004Z" fill="#080809"/>
<path d="M103.964 89.462L104.367 89.2234L104.044 89.3824L103.964 89.462C103.802 89.5415 103.802 89.621 103.721 89.621L103.964 89.462C104.044 89.5415 103.964 89.5415 103.964 89.462Z" fill="#080809"/>
<path d="M104.044 89.5412L104.125 89.4617C104.125 89.5412 104.125 89.5412 104.044 89.5412Z" fill="#080809"/>
<path d="M103.56 90.3368C103.64 90.1778 103.883 90.0983 104.044 89.9392C104.125 89.7802 103.56 90.1778 103.721 90.0187C104.125 89.8597 103.883 89.7801 104.044 89.6211C103.802 89.8597 103.56 90.0983 103.56 90.3368L103.721 90.0983C103.802 90.0983 103.64 90.1778 103.56 90.3368Z" fill="#080809"/>
<path d="M104.448 90.2571L104.044 90.4957C104.206 90.3366 104.125 90.2571 104.448 90.0185C104.367 90.0185 104.206 90.1776 104.125 90.1776C104.287 90.0185 104.367 89.8595 104.125 90.0185C104.044 90.3366 103.883 90.4162 103.883 90.5752C103.802 90.6547 103.802 90.5752 103.802 90.5752L103.721 90.8138C104.125 90.4957 104.287 90.5752 104.448 90.2571Z" fill="#080809"/>
<path d="M104.287 90.5752C104.206 90.4956 103.883 90.7342 103.641 90.9728L104.044 90.8933C104.044 90.8138 103.964 90.8138 104.287 90.5752Z" fill="#080809"/>
<path d="M104.367 90.6548C104.206 90.8139 103.883 91.132 104.206 90.9729C104.125 90.9729 104.69 90.5753 104.367 90.6548Z" fill="#080809"/>
<path d="M104.448 91.45L104.61 91.1319C105.013 90.7343 104.771 91.0524 105.013 90.9728C105.013 90.8138 104.933 90.9728 104.529 91.0524C104.529 90.9728 104.287 91.1319 104.125 91.2114C104.61 91.0524 103.479 91.9272 104.448 91.45Z" fill="#080809"/>
<path d="M104.69 90.814L104.448 90.8935H104.69V90.814Z" fill="#080809"/>
<path d="M104.125 92.0862C103.64 92.5633 104.529 92.0066 104.367 92.2452C104.367 92.2452 104.286 92.3247 104.206 92.3247H104.286L104.125 92.4043C104.448 92.1657 104.609 92.1657 104.932 92.0066C105.255 91.6885 104.448 92.2452 104.852 91.9271C105.013 91.8476 105.255 91.6885 105.417 91.609C105.175 91.6885 105.013 91.7681 104.771 91.9271C104.69 91.9271 104.932 91.768 105.013 91.6885C104.771 91.768 104.286 92.0862 104.367 91.9271C104.609 91.6885 104.852 91.609 104.69 91.609C104.206 92.0066 104.69 91.4499 104.367 91.6885C104.448 91.5295 104.69 91.2909 104.932 91.1318C104.529 91.4499 104.125 91.609 103.963 91.609L104.367 91.4499L103.883 91.8476C104.206 91.9271 104.206 91.9271 104.125 92.0862Z" fill="#080809"/>
<path d="M105.013 91.132L105.094 91.0524L105.255 90.9729L105.013 91.132Z" fill="#080809"/>
<path d="M105.579 91.8477L105.336 92.0862L105.579 91.9272V91.8477Z" fill="#080809"/>
<path d="M106.305 93.7563C106.467 93.5973 106.063 93.7563 105.821 93.9154C105.821 94.0744 106.144 93.7563 106.305 93.7563Z" fill="#080809"/>
<path d="M107.355 94.7106C107.597 94.5515 107.194 94.631 107.194 94.5515C106.951 94.7106 107.113 94.7901 107.355 94.7106Z" fill="#080809"/>
<path d="M108.809 94.7107C108.647 94.7107 108.647 94.7107 108.566 94.7902L107.84 95.0288C107.759 95.1878 108.566 94.8697 108.809 94.7107Z" fill="#080809"/>
<path d="M109.132 95.2673H108.809V95.3469C108.567 95.4264 108.405 95.4264 108.163 95.5059C108.405 95.5059 108.728 95.5059 109.132 95.2673Z" fill="#080809"/>
<path d="M108.082 95.4263C108.082 95.5058 108.082 95.5058 108.082 95.4263C108.324 95.4263 108.244 95.4263 108.082 95.4263Z" fill="#080809"/>
<path d="M108.89 95.5059L109.051 95.6649L109.132 95.5854C108.728 95.6649 109.293 95.3468 108.89 95.5059Z" fill="#080809"/>
<path d="M108.809 96.4602L108.405 96.6193C108.324 96.7783 109.293 96.5397 108.647 96.8578C108.89 96.6988 109.132 96.7783 109.213 96.6193C108.89 96.7783 108.809 96.6193 108.809 96.4602Z" fill="#080809"/>
<path d="M108.405 97.0965C108.244 97.0965 108.244 97.176 108.082 97.2555C108.082 97.3351 108.244 97.2555 108.405 97.176C107.84 97.3351 108.728 97.017 108.405 97.0965Z" fill="#080809"/>
<path d="M108.567 97.5736C108.567 97.5736 108.486 97.494 108.405 97.5736C108.486 97.6531 108.89 97.494 109.213 97.4145C109.455 97.2555 108.809 97.4145 108.567 97.5736Z" fill="#080809"/>
<path d="M105.821 99.2438C106.144 99.0847 106.063 99.0847 105.982 99.0847C106.063 99.0847 105.982 99.1642 105.821 99.2438Z" fill="#080809"/>
<path d="M108.728 98.3688L108.809 98.2893L108.243 98.4484L108.728 98.3688Z" fill="#080809"/>
<path d="M109.213 98.7665H109.616L109.455 98.687L109.213 98.7665Z" fill="#080809"/>
<path d="M109.132 98.9257L109.212 99.0053L109.374 98.9257C109.455 98.8462 109.212 98.9257 109.132 98.9257Z" fill="#080809"/>
<path d="M107.517 101.311C107.113 101.391 107.436 101.391 107.355 101.47C107.436 101.391 107.84 101.232 107.517 101.311Z" fill="#080809"/>
</g>
</g>
<path d="M15.6978 65.3651C15.6978 65.3651 9.47962 100.198 8.75283 115.149C8.75283 115.149 1.9694 122.068 4.4728 129.384H39.1975C39.1975 129.384 40.6511 120.398 41.0549 116.103C41.0549 116.103 59.144 118.25 78.7675 115.865C78.7675 115.865 83.4513 127.078 86.6007 129.384H119.71C119.71 129.384 116.157 123.897 107.839 100.516C107.274 98.8459 106.628 97.0963 105.982 95.4262C105.255 93.5971 104.609 91.8475 103.802 90.0184C99.9253 80.7933 95.3223 71.6477 89.9117 63.8541C68.5116 33.0772 17.4744 50.4936 15.6978 65.3651Z" fill="#967258"/>
<mask id="mask1_37_3727" style="mask-type:luminance" maskUnits="userSpaceOnUse" x="30" y="114" width="12" height="16">
<path d="M41.1356 116.024C40.6511 120.398 39.2782 129.305 39.2782 129.305H30.0721C30.0721 129.305 31.9295 125.567 33.4639 118.33C33.7061 117.296 33.9484 116.183 34.1907 114.99C35.2405 115.706 41.1356 116.024 41.1356 116.024Z" fill="white"/>
</mask>
<g mask="url(#mask1_37_3727)">
<g opacity="0.73">
<path d="M34.9984 115.865C34.9984 115.944 34.9984 116.024 34.9984 116.103C35.0792 116.103 35.0792 116.024 34.9984 115.865Z" fill="#080809"/>
<path d="M39.6012 115.865L39.6819 115.547C39.6012 115.706 39.6012 115.785 39.6012 115.865Z" fill="#080809"/>
<path d="M35.5635 117.773C35.5635 117.853 35.5635 117.932 35.6442 118.092L35.5635 117.773Z" fill="#080809"/>
<path d="M36.3711 118.728C36.3711 118.808 36.4518 118.808 36.4518 118.887C36.4518 118.808 36.4518 118.728 36.3711 118.728Z" fill="#080809"/>
<path d="M31.1219 118.012L31.0411 117.933C31.1219 117.933 31.1219 118.012 31.1219 118.012Z" fill="#080809"/>
<path d="M31.3643 118.569C31.2835 118.569 31.2835 118.569 31.3643 118.569V118.648C31.445 118.728 31.3643 118.569 31.3643 118.569Z" fill="#080809"/>
<path d="M31.6874 118.648C31.7681 118.728 31.7681 118.728 31.6874 118.648Z" fill="#080809"/>
<path d="M33.7871 121.988L34.0294 122.147C33.9486 122.068 33.8679 121.988 33.7871 121.988Z" fill="#080809"/>
<path d="M30.8799 117.694C30.8799 117.774 30.9606 117.853 31.0414 117.933C31.0414 117.853 31.0414 117.774 30.8799 117.694Z" fill="#080809"/>
<path d="M41.0551 115.944L41.1358 115.865C41.055 115.706 41.0551 115.785 41.0551 115.944Z" fill="#080809"/>
<path d="M32.4141 117.535C33.0602 118.092 32.3334 117.694 32.9794 118.251C32.8987 118.092 32.8179 117.933 33.2217 118.251C33.5447 118.648 33.0602 118.33 33.6254 118.887L33.4639 118.648C33.787 118.887 34.11 119.364 34.11 119.285C33.4639 118.489 34.5945 119.364 34.5138 119.205L34.5945 119.285L34.9983 119.523C34.9983 119.523 34.9983 119.523 34.9983 119.603C34.9983 119.523 34.9175 119.523 34.9175 119.444C35.3213 119.762 35.5636 120 35.5636 119.841C35.2406 119.364 35.7251 119.523 35.4021 119.046C35.4828 119.205 35.4021 119.205 35.3213 119.126L34.9175 118.569C34.9983 118.489 35.3213 119.046 35.1598 118.648C34.5945 117.933 34.9983 118.728 34.9175 118.728C34.8368 118.569 34.756 118.33 34.6753 118.251C34.5138 118.33 34.1907 118.171 34.6753 118.966C34.5138 118.807 34.2715 118.569 34.1907 118.41C34.433 118.887 33.787 118.092 34.0292 118.489C33.4639 117.774 33.9485 118.012 33.7062 117.535C34.2715 117.933 34.0292 117.296 34.11 117.058C34.5138 117.615 34.6753 118.092 34.9983 118.33C35.4021 118.569 34.9175 117.933 34.8368 117.615C35.079 117.774 35.4828 118.489 35.6443 118.41L35.8058 118.807C36.3711 119.523 35.6443 118.489 35.8866 118.569C35.7251 118.41 35.6443 118.171 35.5636 118.251C35.4021 118.012 35.3213 117.853 35.4021 117.774C35.1598 117.376 34.9983 116.978 35.1598 117.058C35.4021 117.535 35.4828 117.376 35.5636 117.535V117.615C35.5636 117.376 35.6443 117.455 35.6443 117.296L35.7251 117.455C35.6443 117.217 35.4021 116.581 35.5636 116.74C35.6443 116.978 35.8866 117.694 35.8866 117.535C36.0481 117.933 35.9674 118.012 35.8058 117.853C35.9674 117.933 36.2904 118.569 36.2096 118.569C36.4519 119.046 36.2096 118.33 36.2904 118.569C36.2096 118.41 36.1289 118.251 36.0481 118.092C36.3711 118.728 36.2096 118.092 36.0481 117.615C36.0481 117.774 36.0481 117.853 36.1289 118.012C35.8866 117.535 35.8866 117.137 35.7251 116.819C36.0481 117.615 35.8866 116.342 36.2096 116.978L36.0481 116.581C36.3711 116.74 36.3711 115.785 36.6134 115.467C36.5326 115.785 36.6941 116.66 36.4519 116.422C36.6941 116.581 36.6941 117.376 36.8556 117.774C37.0172 118.092 36.7749 116.899 36.7749 116.581L36.6941 116.74C36.6941 115.626 37.1787 116.899 37.4209 116.183C37.4209 116.501 37.3402 116.342 37.3402 116.422C37.5017 116.978 37.4209 116.263 37.5017 116.104C37.6632 116.183 37.744 116.422 37.744 117.137C37.9055 117.296 37.744 116.74 37.744 116.501V116.66L37.9055 115.865C37.9862 116.104 38.1477 116.501 38.2285 117.137C38.4708 116.978 38.39 115.547 38.5515 115.308C38.6323 115.706 38.5515 115.865 38.4707 116.104L38.6323 116.024C38.5515 116.819 38.39 116.422 38.39 117.296C38.5515 116.422 38.5515 117.058 38.7938 116.422V116.342C38.8745 115.706 39.1168 116.183 39.1976 116.024C39.1168 116.422 39.036 116.422 38.9553 116.581C39.036 116.899 39.3591 116.581 39.5206 115.785C39.6013 115.944 39.6821 116.263 39.6013 116.581C39.8436 116.74 39.7628 115.467 40.0051 115.706L39.9243 116.342C40.0859 117.217 40.4896 115.626 40.5704 116.422L40.6511 115.706C40.6511 116.024 40.7319 116.183 40.7319 116.501L40.5704 116.74C40.5704 117.376 40.7319 116.183 40.8127 116.581C40.8127 116.342 40.8127 115.865 40.8127 115.626C40.3281 116.024 39.9243 114.911 39.3591 115.626C39.3591 115.706 39.3591 115.785 39.3591 115.944C39.3591 115.785 39.1975 115.944 39.2783 115.547V115.467C39.1168 115.626 39.1168 114.672 39.036 114.672C38.9553 115.149 38.7938 114.433 38.7938 115.308L38.713 114.752C38.6323 115.07 38.6323 115.467 38.6323 115.626C38.5515 115.547 38.5515 115.229 38.6323 114.99C38.3092 114.672 37.8247 114.752 37.4209 114.99L37.5017 114.593C37.4209 114.433 37.1787 115.308 37.1787 114.274C37.0172 114.672 36.5326 114.036 36.6941 115.149C36.4519 114.115 36.1289 114.752 35.8058 114.99C36.0481 115.865 35.6443 115.308 35.6443 115.706C35.4021 115.07 35.7251 114.911 35.5636 114.433C35.5636 114.99 35.2406 114.911 34.9983 114.831C34.756 114.831 34.5138 114.911 34.8368 115.706C34.756 115.626 34.756 115.626 34.756 115.547C34.6753 115.547 34.433 115.308 34.3522 115.308C34.433 115.626 34.6753 115.706 34.5945 115.865C34.433 115.865 34.2715 115.388 34.11 115.229C34.11 115.706 33.9485 116.024 34.3522 116.66C34.1907 116.501 33.9485 116.183 33.8677 116.024C33.9485 116.66 33.5447 116.104 33.5447 116.581C33.6255 116.501 33.1409 115.944 33.4639 116.104C32.7371 115.308 33.2217 116.581 32.6564 116.263L32.9794 116.819C32.9794 116.978 32.4949 116.501 32.4141 116.263C31.9296 116.104 32.0911 116.581 31.9296 116.66C31.8488 116.581 31.7681 116.501 31.8488 116.501L31.6066 116.66C31.6873 116.819 31.8488 117.137 32.2526 117.376C32.2526 117.694 32.1719 117.455 32.4141 117.535Z" fill="#080809"/>
<path d="M32.495 117.933C32.5758 118.012 32.5758 118.012 32.495 117.933Z" fill="#080809"/>
<path d="M36.048 118.887C35.9672 118.728 35.8865 118.728 35.8865 118.648C35.9672 118.728 35.9672 118.807 36.048 118.887Z" fill="#080809"/>
<path d="M32.0912 120.637C32.9795 121.114 32.0105 120.398 32.3335 120.478C32.4143 120.637 32.9795 120.955 33.2218 121.034C32.172 120.239 33.5448 121.034 33.3833 120.716C33.7871 120.955 33.7871 121.034 34.1909 121.352C33.9486 121.114 33.8678 120.875 33.3026 120.398C33.3833 120.239 33.7063 120.239 33.7063 120.08C33.8678 120.398 34.2716 120.557 34.7562 120.955C34.1101 120.398 33.4641 119.444 32.818 118.648C33.4641 119.126 33.5448 119.205 34.1101 119.682C34.6754 119.841 33.6256 119.126 33.9486 119.126H33.7871C33.7063 118.887 33.1411 118.33 32.7373 117.933L32.5758 118.251C32.172 117.853 32.3335 117.774 32.3335 117.615C31.9297 117.058 31.849 117.455 31.4452 117.058C31.7682 117.376 31.5259 117.376 31.6067 117.615L31.3644 117.455C31.0414 117.376 31.5259 117.933 31.4452 118.012C31.3644 117.933 31.2837 117.933 31.2837 117.933C31.5259 118.171 31.849 118.489 31.849 118.648V118.569C32.3335 119.126 32.5758 119.603 33.3026 119.921L32.9795 120C32.3335 119.523 31.3644 118.807 31.4452 118.569L31.2029 118.33C30.7184 118.171 31.4452 119.046 32.0912 119.285C33.6256 120.478 31.9297 119.682 32.4142 120.318C31.9297 120.08 31.849 119.841 31.6067 119.603C31.6067 119.523 31.6067 119.444 32.0105 119.682C31.9297 119.285 30.5569 118.887 30.9607 118.648C31.2837 118.648 31.526 119.285 31.7682 119.126C31.3644 118.807 31.0414 118.489 30.7184 118.171C30.6376 118.33 30.7184 118.569 30.7991 118.807C30.9607 119.364 30.8799 119.682 30.7184 119.841C30.5569 120 30.3146 120 30.3146 120C29.9916 121.034 29.7493 122.068 29.6686 123.102C29.8301 123.5 29.6686 123.579 31.1222 123.977C31.4452 123.977 31.3644 123.738 31.7682 123.897C31.2837 123.738 30.9607 123.579 31.0414 123.5C31.5259 123.579 31.2837 123.659 31.3644 123.659H31.4452C31.6875 123.738 31.849 123.818 31.849 123.818C32.6565 123.818 32.5758 123.579 31.6067 123.181C32.172 123.181 32.3335 123.5 32.7373 123.659C33.2218 123.34 33.2218 123.102 33.3833 122.704C32.495 122.386 32.818 122.466 32.3335 122.148L32.6565 122.227C32.495 122.148 31.9297 121.909 31.6875 121.909C32.4143 121.909 30.7184 121.114 30.3954 120.796L30.7991 121.034C30.7991 120.875 30.7991 120.796 30.6376 120.557C31.5259 120.716 30.6376 120.875 31.7682 121.273L31.6067 121.114C32.0105 121.352 32.6565 121.67 32.9795 121.909C32.4143 121.432 33.3833 121.75 32.9795 121.273C33.4641 121.511 33.7063 121.909 33.7063 121.989C33.7871 121.909 33.4641 121.67 33.9486 121.909L33.3833 121.591C33.3833 121.432 33.9486 121.909 34.3524 122.068C34.1909 121.829 32.2527 121.114 32.0912 120.637Z" fill="#080809"/>
<path d="M34.7558 118.092C34.6751 118.092 34.675 118.092 34.675 118.171C34.7558 118.171 34.7558 118.171 34.7558 118.092Z" fill="#080809"/>
<path d="M35.6444 120.159C35.4021 119.921 35.4829 119.921 35.2406 119.603C35.3214 119.841 35.2406 119.921 35.6444 120.159Z" fill="#080809"/>
<path d="M41.7818 116.342C41.701 115.388 41.4588 116.819 41.378 116.421C41.378 116.342 41.378 116.262 41.4588 116.183L41.2973 116.262V116.024C41.2165 116.581 41.055 116.819 40.9742 117.217C41.055 117.853 41.1358 116.501 41.1358 117.217C41.055 117.455 41.055 117.853 40.9742 118.092C41.055 117.853 41.1358 117.455 41.2165 117.137C41.2973 117.058 41.2165 117.376 41.2165 117.614C41.378 117.296 41.4588 116.501 41.5395 116.66C41.6203 117.137 41.378 117.455 41.6203 117.217C41.6203 116.342 41.7818 117.376 41.8626 116.819C41.9433 116.978 42.0241 117.535 41.9433 117.853C42.0241 117.137 42.1856 116.581 42.2663 116.421L42.0241 116.978V116.183C41.9433 116.581 41.8625 116.501 41.7818 116.342Z" fill="#080809"/>
<path d="M41.055 118.092C41.055 118.171 41.055 118.171 40.9742 118.251C40.9742 118.251 40.9742 118.171 41.055 118.092Z" fill="#080809"/>
<path d="M40.8934 118.648C40.8934 118.648 40.9741 118.41 40.8934 118.41L40.8126 118.807L40.8934 118.648Z" fill="#080809"/>
<path d="M40.8124 118.092L40.7317 117.615V118.012L40.8124 118.092Z" fill="#080809"/>
<path d="M37.9861 117.455C38.0668 117.774 38.0668 117.217 38.0668 116.819C37.9861 116.66 38.1476 117.296 37.9861 117.455Z" fill="#080809"/>
<path d="M36.6132 118.41C36.7747 118.728 36.694 118.171 36.7747 118.171C36.6132 117.933 36.5325 118.092 36.6132 118.41Z" fill="#080809"/>
<path d="M37.0171 120.239C36.9363 120.08 36.9363 120 36.8556 119.921L36.4518 119.046C36.2095 118.807 36.7748 119.841 37.0171 120.239Z" fill="#080809"/>
<path d="M36.6941 120.637L36.5326 120.239C36.5326 120.239 36.5326 120.239 36.4518 120.239C36.2095 119.921 36.1288 119.762 35.9673 119.444C36.048 119.682 36.2095 120.08 36.6941 120.637Z" fill="#080809"/>
<path d="M35.9673 119.285C36.1288 119.523 36.048 119.444 35.9673 119.285Z" fill="#080809"/>
<path d="M35.9675 119.364C35.8868 119.285 35.8868 119.205 35.9675 119.364Z" fill="#080809"/>
<path d="M36.2905 120.239L36.2097 120.398L36.3712 120.477C36.0482 120.08 36.6942 120.795 36.2905 120.239Z" fill="#080809"/>
<path d="M35.3213 120.477L34.8367 120.08C34.6752 120.08 35.5635 121.034 34.756 120.477C35.079 120.716 35.2405 120.955 35.402 121.034C35.079 120.557 35.1598 120.398 35.3213 120.477Z" fill="#080809"/>
<path d="M34.3522 120.239C34.1907 120.08 34.1099 120.08 33.9484 120C33.8677 119.921 34.0292 120.159 34.3522 120.239C34.6752 120.557 33.7062 119.762 34.3522 120.239Z" fill="#080809"/>
<path d="M34.0293 120.716C34.0293 120.716 34.0293 120.636 33.8678 120.557C33.787 120.636 34.4331 121.034 34.6753 121.273C34.9983 121.432 34.2716 120.875 34.0293 120.716Z" fill="#080809"/>
<path d="M33.3832 121.432H33.4639L32.8179 121.034L33.3832 121.432Z" fill="#080809"/>
<path d="M33.4637 122.227L33.8675 122.545V122.386L33.4637 122.227Z" fill="#080809"/>
<path d="M33.2217 122.307V122.466L33.4639 122.545C33.6255 122.466 33.2217 122.386 33.2217 122.307Z" fill="#080809"/>
<path d="M33.2216 122.704C33.2216 122.704 33.3024 122.704 33.3831 122.704L33.1409 122.466L33.2216 122.704Z" fill="#080809"/>
</g>
</g>
<path d="M30.9606 85.4059C30.9606 85.4059 39.5206 92.8814 54.5411 92.5633C69.6423 92.2452 78.1215 84.2925 78.1215 84.2925" stroke="#1B1C1E" stroke-width="1.2604" stroke-miterlimit="10" stroke-linecap="round" stroke-linejoin="round"/>
<path d="M29.9917 129.384C29.9917 129.384 31.8491 125.646 33.3834 118.41C34.9178 111.252 37.7442 100.357 37.7442 100.357C37.7442 100.357 54.5412 105.288 73.5187 100.755" stroke="#1B1C1E" stroke-width="1.2604" stroke-miterlimit="10" stroke-linecap="round" stroke-linejoin="round"/>
<path d="M78.8486 115.865C78.8486 115.865 75.2146 106.481 73.5995 100.834" stroke="#1B1C1E" stroke-width="1.2604" stroke-miterlimit="10" stroke-linecap="round" stroke-linejoin="round"/>
<path d="M41.1357 116.024C41.1357 116.024 35.2406 115.626 34.1908 115.069" stroke="#1B1C1E" stroke-width="1.1311" stroke-miterlimit="10" stroke-linecap="round" stroke-linejoin="round"/>
<path d="M11.3372 129.384C11.3372 129.384 9.88364 123.499 14.3252 121.352" stroke="#1B1C1E" stroke-width="1.2604" stroke-miterlimit="10" stroke-linecap="round" stroke-linejoin="round"/>
<path d="M20.3008 129.066C20.3008 129.066 19.4933 123.897 22.8042 122.068" stroke="#1B1C1E" stroke-width="1.2604" stroke-miterlimit="10" stroke-linecap="round" stroke-linejoin="round"/>
<path d="M114.219 129.384C114.219 129.384 114.219 119.841 107.193 116.262C107.193 116.262 101.46 103.061 97.5027 92.6428" stroke="#1B1C1E" stroke-width="1.2604" stroke-miterlimit="10" stroke-linecap="round" stroke-linejoin="round"/>
<path d="M106.144 129.384C106.144 129.384 105.982 124.135 102.268 121.67" stroke="#1B1C1E" stroke-width="1.2604" stroke-miterlimit="10" stroke-linecap="round" stroke-linejoin="round"/>
<path d="M95.8876 129.384C95.8876 129.384 95.4838 124.931 93.0612 121.67" stroke="#1B1C1E" stroke-width="1.2604" stroke-miterlimit="10" stroke-linecap="round" stroke-linejoin="round"/>
<path d="M19.4127 5.56097C19.4127 5.56097 14.5674 4.60665 10.6104 11.5255C6.65338 18.4443 -0.533818 31.5663 0.0314681 34.8269C0.596754 38.0079 3.90771 48.5055 13.2753 55.2653C22.6429 62.0251 21.6738 7.39009 19.4127 5.56097Z" fill="#3D291C"/>
<path d="M78.7677 3.73173C78.7677 3.73173 84.5821 1.42545 90.4772 10.4915C97.4221 21.1481 100.975 27.3512 102.025 31.4071C103.237 35.9401 96.9376 47.1534 90.3965 53.9927C83.8553 60.832 78.7677 3.73173 78.7677 3.73173Z" fill="#3D291C"/>
<path d="M19.4126 5.56096C19.4126 5.56096 14.325 9.45777 14.8096 22.9773C15.1326 32.8387 14.0828 39.9166 13.4367 45.8811C13.0329 49.0622 12.2254 57.8897 16.1824 66.1604C18.0398 69.9777 20.8662 73.7155 25.227 76.5785C29.1032 79.2029 34.2715 81.191 40.8934 82.1454C50.9878 83.5768 59.1441 83.4973 65.8468 82.2249C72.9532 80.9524 78.2023 78.4076 82.1593 75.147C86.0355 71.8864 88.539 67.91 89.9925 63.7746C91.2039 60.355 91.6884 56.8558 91.6884 53.5157C91.6884 44.5291 89.9925 38.326 88.6197 33.0773C84.9857 19.0805 85.9548 10.253 78.8483 3.73184C78.7676 3.73184 58.9826 -5.17517 19.4126 5.56096Z" fill="#967258"/>
<path d="M48.4845 61.9453C43.6392 64.9674 44.7698 65.365 40.086 69.2618C39.5207 69.739 39.0362 70.0571 38.4709 70.3752C34.2716 72.5224 30.0723 70.1366 27.0844 67.1146C23.7734 63.7744 21.9968 55.9808 29.2648 48.9825C36.5327 41.9841 48.4845 43.4156 48.4845 43.4156C47.2732 44.1313 46.7079 45.4037 47.3539 47.551C48.4845 51.5273 52.3608 52.4021 52.3608 52.4021C52.0377 55.1855 52.7645 57.7304 52.7645 57.7304C52.7645 57.7304 53.1683 59.0824 48.4845 61.9453Z" fill="#3D291C" stroke="#967258" stroke-width="1.2604" stroke-miterlimit="10" stroke-linecap="round" stroke-linejoin="round"/>
<path d="M79.0905 68.228C75.3758 72.0453 71.2573 71.3295 68.4308 69.3414C67.5425 68.7052 66.735 67.9099 66.1697 67.1146C63.6663 63.695 61.5667 62.4225 58.0942 61.2296C54.2179 59.9572 52.7644 57.7305 52.7644 57.7305C52.7644 57.7305 52.0376 55.1061 52.3606 52.4021C52.3606 52.4021 56.8829 51.6069 57.6904 47.4715C58.0942 45.3243 57.5289 44.1314 56.4791 43.4156C62.9395 42.5408 71.1765 43.6542 76.9101 48.903C82.8053 54.3903 84.0166 63.2973 79.0905 68.228Z" fill="#3D291C" stroke="#967258" stroke-width="1.2604" stroke-miterlimit="10" stroke-linecap="round" stroke-linejoin="round"/>
<path d="M41.7012 67.91C41.7012 67.91 41.7012 61.5479 42.428 60.6731C43.1548 59.8778 45.2544 64.2518 45.2544 64.2518" fill="#D6D4C8"/>
<path d="M61.7283 62.8998C61.7283 62.8998 63.4241 59.6392 64.2317 59.4802C65.0392 59.3211 65.2815 62.1841 65.3623 66.1604" fill="#D6D4C8"/>
<path d="M47.8385 0.868896C47.8385 0.868896 49.7766 1.02795 50.0996 3.49329C50.4226 5.95862 50.7457 13.116 50.6649 13.6727C50.5841 14.3089 48.7268 15.8995 44.5275 15.8199C39.763 15.7404 36.775 18.1262 36.775 18.1262" stroke="#1B1C1E" stroke-width="1.2604" stroke-miterlimit="10" stroke-linecap="round" stroke-linejoin="round"/>
<path d="M50.5842 13.6726C50.5842 13.6726 51.9571 15.2631 56.2371 14.945C60.5171 14.6269 63.505 15.1041 65.9277 17.0923" stroke="#1B1C1E" stroke-width="1.2604" stroke-miterlimit="10" stroke-linecap="round" stroke-linejoin="round"/>
<path d="M37.2594 23.8521C37.2594 23.8521 30.8797 20.3529 26.0344 26.2379" stroke="#1B1C1E" stroke-width="1.2604" stroke-miterlimit="10" stroke-linecap="round" stroke-linejoin="round"/>
<path d="M66.6544 24.0111C66.6544 24.0111 73.4378 20.0348 77.1526 26.2379" stroke="#1B1C1E" stroke-width="1.2604" stroke-miterlimit="10" stroke-linecap="round" stroke-linejoin="round"/>
<path d="M60.8402 75.6241C53.8953 77.5327 46.7081 76.6579 42.3473 74.5107C38.0673 72.3635 38.3903 70.6139 38.471 70.3753C39.0363 70.1367 39.5209 69.7391 40.0861 69.2619C44.7699 65.3651 43.6394 64.8879 48.4847 61.9455C53.1685 59.0825 52.7647 57.8101 52.7647 57.8101C52.7647 57.8101 54.2183 60.0368 58.0945 61.3092C61.4862 62.4226 63.5859 63.7746 66.1701 67.1942C66.7353 67.9895 67.5429 68.7848 68.4312 69.421C68.9965 69.8186 67.4621 73.795 60.8402 75.6241Z" fill="#3D291C" stroke="#967258" stroke-width="1.2604" stroke-miterlimit="10" stroke-linecap="round" stroke-linejoin="round"/>
<path d="M57.6906 47.5511C56.883 51.6865 52.3607 52.4818 52.3607 52.4818C52.3607 52.4818 48.4845 51.607 47.3539 47.6306C46.7079 45.4039 47.2732 44.1314 48.4845 43.4952C49.4535 42.9385 50.9071 42.7 52.3607 42.7C53.9758 42.7 55.4294 42.859 56.4792 43.5748C57.529 44.211 58.0943 45.4039 57.6906 47.5511Z" fill="#1B1C1E" stroke="#967258" stroke-width="1.2604" stroke-miterlimit="10" stroke-linecap="round" stroke-linejoin="round"/>
<path d="M50.2612 51.5275C50.2612 51.5275 50.2612 48.1874 49.1306 48.0283Z" fill="#1B1C1E"/>
<path d="M50.2612 51.5275C50.2612 51.5275 50.2612 48.1874 49.1306 48.0283" stroke="#967258" stroke-width="1.2604" stroke-miterlimit="10" stroke-linecap="round" stroke-linejoin="round"/>
<path d="M54.2988 51.7661C54.2988 51.7661 54.2988 47.7102 55.5909 48.0283Z" fill="#1B1C1E"/>
<path d="M54.2988 51.7661C54.2988 51.7661 54.2988 47.7102 55.5909 48.0283" stroke="#967258" stroke-width="1.2604" stroke-miterlimit="10" stroke-linecap="round" stroke-linejoin="round"/>
<path d="M16.1017 66.24C17.9591 70.0573 20.7855 73.795 25.1463 76.658C29.0225 79.2824 34.1908 81.2706 40.8127 82.2249" stroke="#1B1C1E" stroke-width="1.2604" stroke-miterlimit="10" stroke-linecap="round" stroke-linejoin="round"/>
<mask id="mask2_37_3727" style="mask-type:luminance" maskUnits="userSpaceOnUse" x="68" y="63" width="30" height="19">
<path d="M97.5835 76.4194C89.9118 81.5092 68.5117 81.6682 68.5117 81.6682C71.2574 80.4753 80.1404 76.7375 82.0786 75.147C85.9548 71.8864 88.4582 67.9101 89.9118 63.7747C92.7382 67.751 95.2417 71.9659 97.5835 76.4194Z" fill="white"/>
</mask>
<g mask="url(#mask2_37_3727)">
<g opacity="0.52">
<path d="M81.7555 75.4651C81.7555 75.5446 81.7555 75.6242 81.8363 75.6242C81.8363 75.6242 81.7555 75.5446 81.7555 75.4651Z" fill="#080809"/>
<path d="M85.8744 72.1249L85.7129 71.9658C85.7936 72.0453 85.7937 72.0453 85.8744 72.1249Z" fill="#080809"/>
<path d="M83.1285 77.3738L83.2093 77.4533C83.2093 77.3738 83.2093 77.3738 83.1285 77.3738Z" fill="#080809"/>
<path d="M77.3142 78.0894C77.2335 78.1689 77.2335 78.0894 77.3142 78.0894Z" fill="#080809"/>
<path d="M75.8606 81.4294L75.9413 81.668C75.8606 81.509 75.8606 81.509 75.8606 81.4294Z" fill="#080809"/>
<path d="M77.1527 77.135C77.1527 77.2145 77.1527 77.2941 77.1527 77.2941C77.2335 77.2941 77.2335 77.2145 77.1527 77.135Z" fill="#080809"/>
<path d="M81.6752 75.3855C81.6752 75.3855 81.6752 75.465 81.7559 75.465L81.6752 75.3855Z" fill="#080809"/>
<path d="M86.9239 70.3754C86.9239 70.2958 86.9239 70.2958 86.9239 70.2163C86.7624 70.2958 86.8432 70.3754 86.9239 70.3754Z" fill="#080809"/>
<path d="M78.6871 77.2146C79.0101 77.7713 78.5255 77.2941 78.8485 77.8508C78.8485 77.6918 78.9293 77.5327 79.0908 77.8508C79.1716 78.1689 78.8486 77.9304 79.0908 78.4075L79.1716 78.1689C79.4138 78.328 79.4946 78.8052 79.4946 78.7256C79.2523 78.0099 80.0599 78.7256 80.1406 78.5666V78.6461L80.5444 78.8052C80.5444 78.8052 80.5444 78.7256 80.4637 78.6461C80.7059 78.8847 81.029 79.0437 81.1097 78.8847C80.9482 78.487 81.5942 78.4075 81.4327 78.0894C81.4327 78.2485 81.352 78.2485 81.1904 78.2485L80.9482 77.8508C81.1097 77.7713 81.1904 78.2485 81.1904 77.9304C80.7867 77.3737 80.9482 78.0894 80.7867 78.0894C80.7059 77.9304 80.7059 77.7713 80.7867 77.6918C80.5444 77.7713 80.2214 77.6918 80.4637 78.4075C80.3021 78.328 80.2214 78.0894 80.2214 77.9304C80.2214 78.328 79.8984 77.6918 79.9791 78.0099C79.7369 77.4532 80.1406 77.5327 80.0599 77.1351C80.5444 77.4532 80.5444 76.8965 80.7059 76.6579C80.9482 77.0556 81.0289 77.4532 81.2712 77.6918C81.675 77.8508 81.352 77.3737 81.352 77.0556C81.5942 77.1351 81.8365 77.6918 82.0788 77.5327V77.8508C82.5633 78.328 82.0788 77.5327 82.2403 77.6123C82.0788 77.5327 81.998 77.3737 81.9173 77.4532C81.7557 77.2941 81.8365 77.1351 81.8365 77.0556C81.675 76.7374 81.5135 76.4193 81.7557 76.4989C81.9172 76.8965 82.0788 76.6579 82.1595 76.817V76.8965C82.1595 76.7375 82.321 76.6579 82.4018 76.5784L82.4825 76.6579C82.4825 76.4989 82.2403 76.0217 82.4018 76.0217C82.4825 76.1808 82.6441 76.7375 82.7248 76.5784C82.8863 76.817 82.7248 76.976 82.5633 76.976C82.7248 76.976 83.1286 77.2941 82.9671 77.4532C83.2093 77.6918 83.0478 77.2146 83.2093 77.2941C83.1286 77.2146 83.0478 77.0556 82.9671 76.976C83.2901 77.3737 83.2901 76.817 83.0478 76.4989V76.817C82.8056 76.4989 82.8056 76.1808 82.644 76.0217C83.1286 76.4989 82.8055 75.465 83.2093 75.8627L82.9671 75.6241C83.3708 75.5446 83.1286 74.8288 83.2901 74.4312C83.2901 74.6698 83.7746 75.2264 83.4516 75.1469C83.7746 75.0674 84.0169 75.6241 84.2591 75.7831C84.6629 75.7831 83.9361 75.2264 83.8554 74.9879L83.7746 75.2264C83.4516 74.5107 84.4207 74.9083 84.3399 74.2721C84.5014 74.4312 84.3399 74.4312 84.4206 74.5107C84.8244 74.6698 84.5014 74.3516 84.4206 74.1926C84.5822 74.1131 84.9052 74.1131 85.1475 74.5902C85.3897 74.5107 84.9052 74.3516 84.9052 74.1926L84.9859 74.2721L84.7437 73.7154C84.986 73.7154 85.309 73.795 85.7127 74.0335C85.8742 73.7154 84.9052 73.1587 84.9859 72.8406C85.309 72.9202 85.2282 73.1587 85.3897 73.2383L85.5512 72.9997C85.955 73.3973 85.5512 73.3973 86.1165 73.795C85.7127 73.1587 86.1973 73.4769 86.0357 72.9997H85.955C85.7127 72.6021 86.1165 72.6021 86.1165 72.443C86.278 72.6816 86.1973 72.8406 86.1973 72.9997C86.5203 72.9997 86.601 72.5225 86.1973 72.0454C86.3588 72.0454 86.6818 71.9658 86.7626 72.2044C87.0856 71.9658 86.1165 71.6477 86.4395 71.4887L86.8433 71.7273C87.5701 71.7273 86.6818 70.8525 87.3278 70.8525L86.8433 70.6139C87.0856 70.6934 87.2471 70.6139 87.4086 70.6934L87.4894 70.932C87.9739 71.0115 87.1663 70.6139 87.5701 70.6139C87.4086 70.5344 87.0048 70.5344 86.8433 70.4548C86.8433 71.1706 85.7935 71.3296 85.8743 72.2044C85.955 72.2044 86.0358 72.2044 86.1165 72.2839C85.955 72.2839 86.0358 72.443 85.7935 72.2839V72.2044C85.7935 72.443 85.1475 72.1249 85.0667 72.2044C85.309 72.5225 84.7437 72.3635 85.2282 72.6816L84.8244 72.5225C84.9859 72.6816 85.2282 72.9202 85.309 72.9997C85.1474 73.0792 84.9859 72.9202 84.9052 72.6816C84.4206 72.8406 84.0976 73.3178 83.9361 73.7154L83.8554 73.3973C83.6939 73.3973 83.9361 74.0335 83.4516 73.4768C83.5324 73.8745 82.8863 73.7154 83.3708 74.3516C82.7248 73.8745 82.7248 74.4312 82.5633 74.7493C83.0478 75.2264 82.4825 75.0674 82.644 75.3855C82.321 74.9879 82.4825 74.8288 82.321 74.5107C82.5633 75.3855 81.2712 74.5902 81.9173 75.7831C81.8365 75.7831 81.8365 75.7036 81.8365 75.7036C81.7557 75.7036 81.5942 75.6241 81.5135 75.6241C81.5942 75.8627 81.8365 75.8627 81.7557 76.0217C81.5942 76.0217 81.4327 75.7036 81.352 75.6241C81.352 76.0217 81.1097 76.3398 81.352 76.817C81.1905 76.7375 80.9482 76.4989 80.9482 76.4193C80.8674 76.976 80.6252 76.4989 80.3829 76.976C80.4636 76.8965 80.1406 76.4193 80.3829 76.5784C79.8176 76.0217 79.9791 76.976 79.4946 76.817L79.6561 77.2941C79.5753 77.4532 79.3331 77.0556 79.3331 76.817C78.9293 76.6579 78.9293 77.0556 78.6871 77.1351C78.6063 77.0556 78.6063 76.976 78.6871 76.976L78.364 77.1351C78.364 77.2941 78.364 77.5327 78.5255 77.7713C78.4448 77.3737 78.4448 77.1351 78.6871 77.2146Z" fill="#080809"/>
<path d="M82.4016 77.7712C82.3209 77.6917 82.2401 77.6917 82.2401 77.6917C82.3209 77.6917 82.4016 77.7712 82.4016 77.7712Z" fill="#080809"/>
<path d="M75.8608 79.7596C76.1838 80.4753 76.0223 79.6005 76.2646 79.68C76.1838 79.8391 76.3453 80.2367 76.5068 80.3958C76.3453 79.4415 76.8298 80.4753 77.0721 80.1572C77.2336 80.4753 77.0721 80.5548 77.1528 80.8729C77.2336 80.5548 77.4759 80.3163 77.3144 79.8391C77.6374 79.68 77.8796 79.7596 78.0412 79.6005C77.8796 79.9186 78.2027 80.0777 78.2834 80.6344C78.2834 79.9981 78.4449 79.0438 78.3642 78.2486C78.6872 78.7257 78.6872 78.8052 78.9295 79.2824C79.4947 79.4415 78.7679 78.7257 79.1717 78.7257H79.0102C79.091 78.4871 78.8487 78.01 78.6872 77.6123C78.6065 77.6919 78.4449 77.7714 78.3642 77.8509C78.2027 77.4533 78.4449 77.4533 78.4449 77.2942C78.3642 76.8171 78.1219 77.0557 77.9604 76.7375C78.0411 77.0557 77.8797 77.0557 77.7989 77.2147L77.7181 77.0557C77.4759 76.8966 77.5566 77.4533 77.4759 77.5328C77.3951 77.4533 77.3951 77.4533 77.3951 77.3738C77.4759 77.6123 77.5566 77.9305 77.4759 78.01L77.5566 77.9305C77.6374 78.4871 77.4759 78.8848 77.8797 79.3619H77.3951C77.2336 78.8053 76.9106 78.01 77.1528 77.8509L77.0721 77.6123C76.7491 77.3738 76.8298 78.2486 77.0721 78.6462C77.4759 79.9981 76.5068 78.9643 76.426 79.6005C76.2645 79.2824 76.3453 79.0438 76.3453 78.8053C76.426 78.7257 76.5068 78.7257 76.5876 78.9643C76.9106 78.6462 76.0223 77.9304 76.5068 77.8509C76.7491 77.9304 76.5068 78.4871 76.8298 78.4076L76.5876 77.3738C76.4261 77.4533 76.3453 77.6919 76.2646 77.8509C76.0223 78.3281 75.6185 78.4871 75.3762 78.5667C75.134 78.6462 74.8917 78.5667 74.8917 78.5667C73.6804 79.1234 72.4691 79.6005 71.2577 79.9982C70.9347 80.2367 70.7732 80.2367 70.7732 81.2706C70.9347 81.4296 71.177 81.2706 71.0962 81.6682C71.0962 81.2706 71.177 81.032 71.4192 81.032C71.5 81.3501 71.2577 81.2706 71.3385 81.3501H71.4192C71.4192 81.5092 71.4192 81.6682 71.3385 81.6682C71.7423 82.1454 72.146 81.9068 72.146 81.1911C72.4691 81.5092 72.146 81.7477 72.146 82.0658C72.9536 82.1454 73.4381 81.9863 74.1649 81.7477C74.0034 81.1115 74.0842 81.3501 74.0842 80.8729L74.2457 81.1115C74.1649 81.032 74.1649 80.5548 73.9226 80.4753C74.4879 80.8729 74.0842 79.521 74.2457 79.1234L74.3264 79.4415C74.4879 79.2824 74.5687 79.2824 74.7302 79.0438C75.2955 79.521 74.4879 79.2824 74.8109 79.9982L74.8917 79.8391C74.9725 80.1572 75.0532 80.7139 75.0532 80.9525C75.2147 80.3163 75.6185 80.9525 75.8608 80.4753C75.9415 80.8729 75.6993 81.2706 75.6185 81.3501C75.78 81.3501 75.8608 81.032 76.0223 81.3501L75.8608 80.8729C76.103 80.7139 76.0223 81.2706 76.1838 81.5887C76.5068 81.3501 75.5378 80.1572 75.8608 79.7596Z" fill="#080809"/>
<path d="M81.0291 77.5327C80.9483 77.5327 80.9483 77.6122 80.8676 77.6122C80.9483 77.6122 80.9483 77.6122 81.0291 77.5327Z" fill="#080809"/>
<path d="M80.4637 78.8848C80.4637 78.9643 80.5445 78.9643 80.5445 79.0438C80.5445 79.0438 80.5445 78.9643 80.4637 78.8848Z" fill="#080809"/>
<path d="M80.7059 79.5209C80.5444 79.3618 80.6252 79.2823 80.5444 79.0437C80.5444 79.2028 80.3829 79.2823 80.7059 79.5209Z" fill="#080809"/>
<path d="M91.2041 64.6495C91.0426 64.5699 90.9618 64.4109 90.8003 64.4109L90.9618 64.6495H91.2041Z" fill="#080809"/>
<path d="M90.6387 64.9675L90.3965 65.1266L91.0425 65.3652C91.0425 65.1266 90.558 65.2061 90.6387 64.9675Z" fill="#080809"/>
<path d="M90.1542 65.4445L89.9927 65.365C90.0734 65.4445 90.0734 65.4445 90.1542 65.4445Z" fill="#080809"/>
<path d="M90.3967 65.524L90.8812 65.6831L90.5582 65.365L90.3967 65.524C90.3159 65.4445 90.2352 65.4445 90.1544 65.4445L90.4774 65.6036C90.3967 65.6036 90.3159 65.524 90.3967 65.524Z" fill="#080809"/>
<path d="M89.4272 66.0808C89.5888 66.0808 89.831 66.2399 89.9925 66.3194C90.2348 66.1603 89.508 66.0013 89.831 65.8422C90.154 66.1603 90.1541 65.8422 90.3963 65.7627C89.9118 65.7627 89.6695 65.7627 89.4272 65.9217L89.7503 66.0013C89.7503 66.1603 89.5888 66.0013 89.4272 66.0808Z" fill="#080809"/>
<path d="M89.8314 67.3534L89.4277 67.1148C89.6699 67.1148 89.7507 66.8763 90.1544 67.0353C90.1544 66.9558 89.9122 66.8763 89.8314 66.7967C90.0737 66.7967 90.2352 66.7967 89.9929 66.6377C89.5892 66.9558 89.5084 66.7967 89.2661 67.1148C89.1854 67.1148 89.1854 67.0353 89.2661 67.0353L88.9431 67.1944C89.5084 67.1944 89.4277 67.433 89.8314 67.3534Z" fill="#080809"/>
<path d="M89.4274 67.592C89.4274 67.4329 89.1044 67.1943 88.7814 67.1943L89.0236 67.6715C89.0236 67.5124 89.0236 67.3534 89.4274 67.592Z" fill="#080809"/>
<path d="M89.3466 67.8306C89.1044 67.8306 88.6198 67.8306 89.0236 68.0691C88.9429 67.8306 89.5889 68.0691 89.3466 67.8306Z" fill="#080809"/>
<path d="M88.539 68.9437L88.9427 68.7051C89.508 68.8642 89.0235 68.9437 89.2658 69.1028C89.508 68.8642 89.2658 68.8642 89.0235 68.5461C89.1043 68.4665 88.862 68.228 88.7005 68.1484C89.0235 68.7051 87.6507 68.228 88.539 68.9437Z" fill="#080809"/>
<path d="M89.3466 68.4667L89.1044 68.3076L89.2659 68.5462L89.3466 68.4667Z" fill="#080809"/>
<path d="M87.6508 69.4208C86.924 69.3413 87.8931 69.898 87.4893 70.057C87.4893 70.057 87.4085 69.9775 87.3278 69.898V70.1366L87.1663 70.057C87.57 70.2161 87.57 70.4547 87.8931 70.6933C88.3776 70.6933 87.4893 70.3752 87.9738 70.4547C88.1353 70.6137 88.3776 70.6933 88.4583 70.8523C88.2968 70.6137 88.1353 70.5342 87.8931 70.3751C87.8931 70.2161 88.1353 70.3752 88.2161 70.4547C88.0546 70.2161 87.4893 69.9775 87.7315 69.8185C88.1353 69.8185 88.2161 70.1366 88.2161 69.8185C87.57 69.6594 88.3776 69.6594 88.0545 69.3413C88.2161 69.1822 88.7006 69.2618 88.8621 69.3413C88.3776 69.1822 88.0546 68.8641 87.9738 68.7051L88.2968 69.1822L87.7315 69.1027C87.893 69.2618 87.8123 69.3413 87.6508 69.4208Z" fill="#080809"/>
<path d="M88.4585 70.7729L88.5393 70.8525C88.5393 70.932 88.5393 70.8525 88.4585 70.7729Z" fill="#080809"/>
<path d="M89.1044 69.3416L89.1851 69.4211L89.3466 69.5006L89.1044 69.3416Z" fill="#080809"/>
<path d="M88.7813 71.1706C88.7813 71.1706 88.6198 71.0116 88.6198 71.0911L88.862 71.2502L88.7813 71.1706Z" fill="#080809"/>
<path d="M88.2969 71.1706L87.9739 71.0911L88.2161 71.2501L88.2969 71.1706Z" fill="#080809"/>
<path d="M85.3897 74.5108C85.6319 74.5904 85.3089 74.2723 85.1474 74.0337C84.9052 74.1927 85.3897 74.3518 85.3897 74.5108Z" fill="#080809"/>
<path d="M83.6131 76.7375C83.9361 76.817 83.7746 76.4194 83.9361 76.3398C83.6131 76.3398 83.5324 76.4989 83.6131 76.7375Z" fill="#080809"/>
<path d="M83.3709 78.5666C83.3709 78.4076 83.3709 78.328 83.2094 78.328L82.8864 77.6123C82.6441 77.6123 83.2094 78.328 83.3709 78.5666Z" fill="#080809"/>
<path d="M82.2404 79.4414L82.3211 79.1233L82.2404 79.2029C82.1596 78.9643 82.0789 78.8052 82.0789 78.5667C81.9174 78.7257 81.9174 79.0438 82.2404 79.4414Z" fill="#080809"/>
<path d="M82.0789 78.3281C82.1596 78.4872 82.0789 78.4077 82.0789 78.3281Z" fill="#080809"/>
<path d="M81.998 78.4075C81.998 78.328 81.9173 78.328 81.998 78.4075Z" fill="#080809"/>
<path d="M81.9173 79.2822L81.5942 79.5208L81.8365 79.6003C81.5943 79.2027 82.0788 79.6799 81.9173 79.2822Z" fill="#080809"/>
<path d="M79.8984 79.9186L79.6561 79.521C79.4138 79.521 79.5754 80.5549 79.0908 79.9982C79.3331 80.1572 79.0908 80.5548 79.4138 80.4753C79.4138 80.1572 79.7369 79.9186 79.8984 79.9186Z" fill="#080809"/>
<path d="M78.768 79.7595C78.768 79.6005 78.6872 79.6005 78.6065 79.4414C78.5257 79.4414 78.5257 79.68 78.6065 79.7595C78.445 79.2824 78.8487 80.1572 78.768 79.7595Z" fill="#080809"/>
<path d="M77.7986 80.2367C77.8793 80.2367 77.9601 80.1572 77.7986 80.0776C77.6371 80.1572 77.8793 80.6343 77.8793 80.9524C78.1216 81.1115 78.0408 80.4753 77.7986 80.2367Z" fill="#080809"/>
<path d="M75.053 77.9304C75.2145 78.2485 75.376 78.169 75.2952 78.01C75.2952 78.0895 75.1337 78.0099 75.053 77.9304Z" fill="#080809"/>
<path d="M76.1834 80.7933L76.2642 80.8728L76.1027 80.3162L76.1834 80.7933Z" fill="#080809"/>
<path d="M75.053 81.5886V81.9863L75.2145 81.8272L75.053 81.5886Z" fill="#080809"/>
<path d="M74.8108 81.509L74.6493 81.5886L74.73 81.6681C74.8915 81.8271 74.73 81.5886 74.8108 81.509Z" fill="#080809"/>
<path d="M74.2455 81.8272C74.2455 81.7477 74.3262 81.8272 74.3262 81.9067L74.407 81.5886L74.2455 81.8272Z" fill="#080809"/>
<path d="M70.45 80.3956C70.3693 79.9979 70.2885 80.316 70.2078 80.2365C70.2078 80.316 70.3693 80.7932 70.45 80.3956Z" fill="#080809"/>
</g>
</g>
<path d="M65.8469 82.3045C72.9534 81.0321 78.2025 78.4872 82.1595 75.2266C86.0357 71.966 88.5391 67.9896 89.9927 63.8542" stroke="#1B1C1E" stroke-width="1.2604" stroke-miterlimit="10" stroke-linecap="round" stroke-linejoin="round"/>
<path d="M107.92 100.437C107.355 98.7664 106.709 97.0168 106.063 95.3468C105.336 93.5177 104.69 91.7681 103.883 89.939" stroke="#1B1C1E" stroke-width="1.1311" stroke-miterlimit="10" stroke-linecap="round" stroke-linejoin="round"/>
<path d="M50.0189 3.0957C50.0189 3.0957 49.9381 1.10753 51.3917 0.630371" stroke="#1B1C1E" stroke-width="1.2604" stroke-miterlimit="10" stroke-linecap="round" stroke-linejoin="round"/>
<path d="M36.129 43.5746C39.7862 43.5746 42.7509 40.655 42.7509 37.0534C42.7509 33.4519 39.7862 30.5322 36.129 30.5322C32.4718 30.5322 29.5071 33.4519 29.5071 37.0534C29.5071 40.655 32.4718 43.5746 36.129 43.5746Z" fill="#D6D4C8"/>
<path d="M36.1287 42.0636C38.9385 42.0636 41.2163 39.8205 41.2163 37.0534C41.2163 34.2864 38.9385 32.0432 36.1287 32.0432C33.3189 32.0432 31.0411 34.2864 31.0411 37.0534C31.0411 39.8205 33.3189 42.0636 36.1287 42.0636Z" fill="#1B1C1E"/>
<path d="M34.5139 36.8945C35.4059 36.8945 36.129 36.1823 36.129 35.3039C36.129 34.4255 35.4059 33.7134 34.5139 33.7134C33.6219 33.7134 32.8988 34.4255 32.8988 35.3039C32.8988 36.1823 33.6219 36.8945 34.5139 36.8945Z" fill="#D6D4C8"/>
<path d="M66.6543 42.6205C70.3114 42.6205 73.2762 39.7009 73.2762 36.0993C73.2762 32.4978 70.3114 29.5781 66.6543 29.5781C62.9971 29.5781 60.0323 32.4978 60.0323 36.0993C60.0323 39.7009 62.9971 42.6205 66.6543 42.6205Z" fill="#D6D4C8"/>
<path d="M66.6543 41.1092C69.4641 41.1092 71.7419 38.8661 71.7419 36.0991C71.7419 33.332 69.4641 31.0889 66.6543 31.0889C63.8445 31.0889 61.5668 33.332 61.5668 36.0991C61.5668 38.8661 63.8445 41.1092 66.6543 41.1092Z" fill="#1B1C1E"/>
<path d="M65.0395 36.0197C65.9315 36.0197 66.6546 35.3076 66.6546 34.4292C66.6546 33.5507 65.9315 32.8386 65.0395 32.8386C64.1475 32.8386 63.4244 33.5507 63.4244 34.4292C63.4244 35.3076 64.1475 36.0197 65.0395 36.0197Z" fill="#D6D4C8"/>
</svg>
