<svg width="177" height="153" viewBox="0 0 177 153" fill="none" xmlns="http://www.w3.org/2000/svg">
<path d="M150.001 150.496C150.001 150.496 152.343 151.37 135.142 152.007C117.941 152.643 27.0916 152.961 17.724 152.007C8.35642 151.052 -9.81347 151.609 14.3323 149.303C38.4781 146.996 63.2699 146.599 87.6579 146.996C113.661 147.394 146.69 149.621 150.001 150.496Z" fill="#1B1C1E"/>
<path d="M61.1704 145.326C60.3628 145.326 59.5553 145.326 58.667 145.326H58.8285L71.7493 132.443C66.8232 133.795 64.3198 132.363 64.3198 132.363L51.9643 145.644C44.9386 146.121 38.8012 146.917 36.2978 146.917C31.614 146.917 30.5642 149.541 30.5642 149.541H67.7115C67.7115 149.541 67.227 145.326 61.1704 145.326Z" fill="#FF8080"/>
<mask id="mask0_37_3369" style="mask-type:luminance" maskUnits="userSpaceOnUse" x="30" y="132" width="42" height="18">
<path d="M61.1704 145.326C60.3628 145.326 59.5553 145.326 58.667 145.326H58.8285L71.7493 132.443C66.8232 133.795 64.3198 132.363 64.3198 132.363L51.9643 145.644C44.9386 146.121 38.8012 146.917 36.2978 146.917C31.614 146.917 30.5642 149.541 30.5642 149.541H67.7115C67.7115 149.541 67.227 145.326 61.1704 145.326Z" fill="white"/>
</mask>
<g mask="url(#mask0_37_3369)">
<g opacity="0.78">
<path d="M65.2082 138.805C65.2082 138.725 65.1274 138.725 65.1274 138.646C65.0467 138.646 65.1274 138.725 65.2082 138.805Z" fill="#191212"/>
<path d="M62.1394 141.906L62.3009 142.065C62.2202 141.986 62.1394 141.906 62.1394 141.906Z" fill="#191212"/>
<path d="M64.4007 137.612C64.4007 137.532 64.3199 137.453 64.3199 137.373L64.4007 137.612Z" fill="#191212"/>
<path d="M63.4315 137.453C63.4315 137.453 63.3507 137.453 63.3507 137.373C63.3507 137.373 63.4315 137.373 63.4315 137.453Z" fill="#191212"/>
<path d="M67.7924 135.703C67.8731 135.624 67.7924 135.624 67.7924 135.703Z" fill="#191212"/>
<path d="M67.3883 132.602L67.2268 132.443C67.3076 132.522 67.3076 132.522 67.3883 132.602Z" fill="#191212"/>
<path d="M68.2768 136.419C68.2768 136.339 68.196 136.339 68.196 136.26C68.2768 136.339 68.196 136.339 68.2768 136.419Z" fill="#191212"/>
<path d="M61.0898 143.179C61.0898 143.258 61.0898 143.258 61.0898 143.338C61.1706 143.338 61.1706 143.258 61.0898 143.179Z" fill="#191212"/>
<path d="M67.0653 136.737C66.5808 136.339 67.1461 136.578 66.6616 136.26C66.7423 136.419 66.7423 136.498 66.5 136.339C66.2578 136.101 66.6616 136.26 66.2578 135.862L66.3386 136.101C66.0963 136.021 65.854 135.624 65.854 135.703C66.3385 136.26 65.4502 135.783 65.4502 135.942V135.862L65.0465 135.783L65.1272 135.862C64.8042 135.703 64.5619 135.624 64.4812 135.783C64.7234 136.101 64.2389 136.18 64.4812 136.498C64.4812 136.419 64.4812 136.339 64.6427 136.339L64.9657 136.657C64.885 136.737 64.6427 136.339 64.7235 136.657C65.208 137.055 64.885 136.498 64.9657 136.498C65.0465 136.657 65.1272 136.737 65.1272 136.816C65.2887 136.657 65.531 136.657 65.1272 136.18C65.2887 136.26 65.4502 136.419 65.4502 136.498C65.2887 136.18 65.7732 136.657 65.6117 136.339C66.0155 136.737 65.6925 136.737 65.854 137.055C65.3695 136.896 65.531 137.373 65.531 137.532C65.208 137.214 64.9657 136.896 64.7235 136.816C64.4004 136.737 64.8042 137.135 64.8849 137.373C64.6427 137.373 64.3197 136.896 64.1582 137.055L63.9966 136.737C63.4314 136.419 64.0774 136.976 63.9159 136.976C64.0774 137.055 64.1582 137.135 64.2389 137.055C64.4004 137.214 64.4812 137.294 64.4004 137.373C64.6427 137.612 64.885 137.85 64.6427 137.85C64.4004 137.532 64.3197 137.771 64.1582 137.691V137.612C64.1582 137.771 64.0774 137.85 64.0774 137.93L63.9966 137.85C64.0774 138.009 64.4004 138.327 64.2389 138.327C64.0774 138.168 63.8351 137.771 63.7544 137.93C63.5121 137.771 63.5929 137.612 63.7544 137.612C63.5929 137.612 63.1891 137.373 63.2698 137.294C62.9468 137.055 63.2698 137.453 63.1083 137.453C63.1891 137.532 63.2699 137.612 63.3506 137.691C62.9468 137.373 63.1083 137.85 63.4314 138.089L63.3506 137.85C63.6736 138.089 63.7544 138.407 63.9159 138.487C63.4314 138.168 63.9159 138.964 63.5121 138.646L63.7544 138.805C63.4314 138.884 63.8351 139.52 63.7544 139.838C63.6736 139.679 63.1891 139.202 63.4314 139.202C63.1891 139.361 62.8661 138.805 62.5431 138.725C62.22 138.725 62.9468 139.202 63.1083 139.361V139.202C63.5929 139.838 62.6238 139.52 62.8661 139.998C62.7046 139.918 62.7853 139.918 62.7853 139.838C62.3815 139.679 62.7853 139.998 62.8661 140.157C62.7046 140.236 62.4623 140.236 62.1393 139.838C61.9778 139.838 62.3815 139.998 62.4623 140.157L62.3815 140.077L62.7046 140.554C62.4623 140.554 62.22 140.475 61.8163 140.236C61.7355 140.554 62.6238 141.031 62.6238 141.27C62.3815 141.19 62.3815 141.031 62.22 140.872L62.1393 141.031C61.7355 140.634 62.0585 140.713 61.574 140.316C61.9778 140.872 61.574 140.634 61.7355 141.031H61.8163C62.0585 141.35 61.7355 141.349 61.7355 141.509C61.574 141.27 61.6548 141.19 61.574 141.031C61.3317 141.031 61.251 141.429 61.6547 141.827C61.574 141.827 61.251 141.827 61.1702 141.588C60.928 141.747 61.7355 142.145 61.4125 142.224L61.0895 141.986C60.4434 141.827 61.1702 142.701 60.6049 142.622L61.0087 142.94C60.7664 142.861 60.6857 142.86 60.4434 142.781L60.3627 142.542C59.9589 142.383 60.6049 142.86 60.2819 142.781C60.4434 142.86 60.7664 143.02 60.928 143.099C61.0087 142.463 61.9778 142.542 61.897 141.747C61.8163 141.747 61.7355 141.668 61.6547 141.588C61.8163 141.588 61.7355 141.429 61.9778 141.668C61.9778 141.509 62.5431 141.747 62.6238 141.747C62.3815 141.509 62.9468 141.588 62.3815 141.27L62.7046 141.429C62.5431 141.27 62.3008 141.111 62.22 140.952C62.3008 140.872 62.5431 141.031 62.5431 141.19C62.9468 141.031 63.1891 140.634 63.2698 140.236L63.4314 140.475C63.5929 140.475 63.2699 139.918 63.7544 140.395C63.6736 140.077 64.2389 140.157 63.6736 139.679C64.3197 140.077 64.2389 139.52 64.3197 139.282C63.7544 138.884 64.3197 139.043 64.1582 138.725C64.5619 139.043 64.4004 139.202 64.6427 139.441C64.2389 138.725 65.531 139.202 64.6427 138.327C64.7234 138.327 64.7234 138.407 64.8042 138.407C64.8042 138.407 65.0465 138.487 65.1272 138.487C64.9657 138.327 64.8042 138.327 64.8042 138.168C64.8849 138.089 65.1272 138.407 65.2887 138.487C65.208 138.168 65.2887 137.85 64.8849 137.532C65.0465 137.612 65.2887 137.691 65.2887 137.85C65.208 137.373 65.531 137.691 65.531 137.294C65.4502 137.373 65.9348 137.691 65.6117 137.691C66.2578 138.089 65.854 137.294 66.2578 137.294L65.9348 136.896C65.9348 136.737 66.3386 137.055 66.3386 137.214C66.7423 137.214 66.5808 136.896 66.7423 136.816C66.8231 136.816 66.8231 136.896 66.8231 136.896L66.9846 136.737C66.9038 136.657 66.8231 136.419 66.5808 136.26C67.2268 136.578 67.3076 136.737 67.0653 136.737Z" fill="#191212"/>
<path d="M63.8353 136.976C63.9161 137.055 63.9968 137.055 63.9968 137.055C63.9968 136.976 63.9161 136.976 63.8353 136.976Z" fill="#191212"/>
<path d="M68.1153 133.954C67.55 133.477 68.1153 134.192 67.873 134.113C67.873 133.954 67.55 133.715 67.3885 133.556C67.9538 134.272 67.1463 133.556 67.0655 133.874C66.8232 133.715 66.904 133.556 66.6617 133.318C66.7425 133.556 66.6617 133.795 67.0655 134.192C66.904 134.351 66.6617 134.351 66.581 134.59C66.581 134.351 66.1772 134.192 65.9349 133.874C66.2579 134.431 66.5002 135.147 66.904 135.862C66.4194 135.544 66.4194 135.465 66.0157 135.147C65.5311 135.147 66.3387 135.544 66.0157 135.624H66.1772C66.2579 135.862 66.581 136.181 66.904 136.499L67.0655 136.181C67.3885 136.419 67.1462 136.578 67.227 136.658C67.55 137.055 67.6308 136.737 67.873 136.976C67.7115 136.737 67.873 136.737 67.7923 136.578L67.9538 136.737C68.1961 136.737 67.8731 136.34 67.9538 136.26C68.0346 136.26 68.0345 136.34 68.0345 136.34C67.873 136.181 67.7115 135.942 67.7115 135.783V135.862C67.3885 135.465 67.3885 134.988 66.8232 134.829L67.1463 134.67C67.55 135.067 68.1153 135.624 68.0345 135.862L68.1961 136.021C68.5191 136.101 68.1153 135.465 67.7115 135.226C66.8232 134.272 68.0346 134.829 67.7923 134.272C68.0346 134.51 68.1153 134.67 68.1961 134.908C68.1961 134.988 68.1153 135.067 67.9538 134.829C67.8731 135.226 68.8421 135.544 68.5191 135.703C68.2768 135.703 68.1961 135.147 68.0345 135.306L68.6806 136.101C68.7614 135.942 68.7614 135.783 68.7614 135.624C68.7614 134.67 69.4881 134.67 69.4881 134.67C70.1342 133.874 70.6995 132.999 71.3455 132.204C71.507 131.886 71.5878 131.807 70.9417 131.091C70.7802 131.011 70.6995 131.17 70.4572 130.932C70.6995 131.25 70.7802 131.409 70.6187 131.568C70.3764 131.329 70.6187 131.329 70.538 131.329H70.4572C70.3764 131.17 70.2957 131.091 70.2957 131.011C69.8112 130.773 69.5689 131.091 69.9727 131.648C69.5689 131.488 69.6497 131.17 69.4881 130.932C68.9229 131.17 68.6806 131.409 68.2768 131.807C68.7614 132.204 68.5191 132.125 68.7614 132.443L68.5191 132.284C68.5998 132.363 68.9229 132.681 69.0844 132.681C68.5191 132.602 69.4074 133.556 69.4881 133.874L69.2459 133.636C69.1651 133.795 69.1651 133.874 69.1651 134.113C68.5191 133.874 69.2459 133.874 68.5998 133.397L68.6806 133.556C68.5191 133.318 68.1153 132.92 68.0345 132.681C68.1961 133.238 67.6308 132.84 67.7115 133.318C67.4693 133.079 67.4693 132.681 67.4693 132.602C67.3885 132.681 67.4693 132.999 67.227 132.761L67.55 133.079C67.4693 133.238 67.227 132.761 66.9847 132.602C66.904 132.84 68.1961 133.477 68.1153 133.954Z" fill="#191212"/>
<path d="M65.1276 136.896C65.2083 136.896 65.2083 136.817 65.2083 136.817C65.1275 136.817 65.1276 136.896 65.1276 136.896Z" fill="#191212"/>
<path d="M64.9658 135.783C64.885 135.703 64.885 135.703 64.885 135.703C64.885 135.624 64.9658 135.703 64.9658 135.783Z" fill="#191212"/>
<path d="M64.5621 135.306C64.7236 135.385 64.7236 135.465 64.8851 135.624C64.8044 135.465 64.8852 135.385 64.5621 135.306Z" fill="#191212"/>
<path d="M56.0828 145.962C56.1635 146.042 56.2443 146.201 56.325 146.28V146.042L56.0828 145.962Z" fill="#191212"/>
<path d="M56.6482 146.042H56.8905L56.4867 145.564C56.406 145.724 56.729 145.883 56.6482 146.042Z" fill="#191212"/>
<path d="M57.0517 145.724L56.7286 145.406L56.8901 145.803L57.0517 145.724C57.1324 145.883 57.2132 145.883 57.2939 145.883L57.0517 145.644V145.724Z" fill="#191212"/>
<path d="M57.1328 145.565L57.052 145.485C57.052 145.565 57.052 145.565 57.1328 145.565Z" fill="#191212"/>
<path d="M58.0211 145.724C57.8596 145.644 57.698 145.406 57.5365 145.326C57.2943 145.326 57.8596 145.724 57.5365 145.724C57.375 145.326 57.2943 145.644 57.052 145.565C57.4558 145.803 57.698 145.883 57.8596 145.803L57.6173 145.644C57.7788 145.565 57.8596 145.724 58.0211 145.724Z" fill="#191212"/>
<path d="M57.9401 144.69L58.1823 145.008C58.0208 144.928 57.8593 145.087 57.5363 144.769C57.5363 144.849 57.6978 145.008 57.7786 145.087C57.5363 145.008 57.3748 144.928 57.617 145.167C58.0208 145.087 58.1016 145.246 58.3438 145.087C58.4246 145.167 58.3438 145.167 58.3438 145.167H58.6669C58.2631 144.928 58.3438 144.69 57.9401 144.69Z" fill="#191212"/>
<path d="M58.4246 144.69C58.3439 144.849 58.6669 145.087 58.9092 145.246L58.8284 144.849C58.7477 144.849 58.6669 144.928 58.4246 144.69Z" fill="#191212"/>
<path d="M58.5053 144.531C58.7475 144.61 59.1513 144.849 58.8283 144.531C58.8283 144.61 58.3437 144.212 58.5053 144.531Z" fill="#191212"/>
<path d="M59.4744 143.974L59.0706 144.054C58.5861 143.736 58.9898 143.815 58.8283 143.656C58.5861 143.736 58.7476 143.815 58.9899 144.133C58.9091 144.133 59.0706 144.451 59.1514 144.61C58.9899 143.974 60.1204 144.769 59.4744 143.974Z" fill="#191212"/>
<path d="M58.6671 144.053L58.8286 144.212L58.7479 143.974L58.6671 144.053Z" fill="#191212"/>
<path d="M60.3628 143.815C61.0088 144.054 60.282 143.338 60.605 143.338C60.605 143.338 60.6858 143.417 60.6858 143.497L60.7665 143.338L60.928 143.417C60.605 143.179 60.605 142.94 60.3628 142.702C59.959 142.543 60.6858 143.099 60.282 142.861C60.2012 142.702 59.959 142.543 59.8782 142.463C59.959 142.622 60.1205 142.781 60.282 143.02C60.282 143.099 60.1205 142.94 59.959 142.861C60.0397 143.099 60.5243 143.417 60.282 143.497C59.959 143.417 59.8782 143.099 59.8782 143.338C60.4435 143.656 59.7167 143.417 59.959 143.736C59.7975 143.815 59.3937 143.656 59.2322 143.497C59.636 143.815 59.8782 144.133 59.8782 144.292L59.7167 143.815L60.2012 144.133C60.0397 143.895 60.2012 143.815 60.3628 143.815Z" fill="#191212"/>
<path d="M59.7976 142.463C59.7976 142.463 59.7976 142.383 59.7168 142.383C59.7168 142.383 59.7168 142.463 59.7976 142.463Z" fill="#191212"/>
<path d="M59.0706 143.417L58.9899 143.338L58.8284 143.258L59.0706 143.417Z" fill="#191212"/>
<path d="M59.5552 142.145C59.5552 142.145 59.6359 142.304 59.7167 142.304L59.5552 142.145Z" fill="#191212"/>
<path d="M59.8784 142.224L60.2014 142.383L60.0399 142.224H59.8784Z" fill="#191212"/>
<path d="M62.301 139.839C62.0587 139.759 62.3818 139.998 62.624 140.236C62.7048 140.157 62.301 139.998 62.301 139.839Z" fill="#191212"/>
<path d="M63.2702 137.93C63.0279 137.851 63.1894 138.169 63.1086 138.248C63.3509 138.328 63.3509 138.089 63.2702 137.93Z" fill="#191212"/>
<path d="M62.7853 136.419C62.866 136.498 62.866 136.578 62.9468 136.578L63.4313 137.135C63.7543 137.135 63.0275 136.578 62.7853 136.419Z" fill="#191212"/>
<path d="M63.4316 135.544L63.5124 135.862L63.5931 135.783C63.7547 136.021 63.8354 136.101 63.9969 136.26C63.9162 136.101 63.8354 135.862 63.4316 135.544Z" fill="#191212"/>
<path d="M63.9968 136.499C63.9161 136.419 63.8353 136.34 63.9968 136.499Z" fill="#191212"/>
<path d="M63.9967 136.34C64.0775 136.499 64.0775 136.499 63.9967 136.34Z" fill="#191212"/>
<path d="M63.7545 135.703L63.9161 135.465H63.7545C63.9968 135.703 63.4315 135.385 63.7545 135.703Z" fill="#191212"/>
<path d="M65.0468 134.749L65.3698 134.987C65.5313 134.908 65.0467 134.113 65.612 134.51C65.3698 134.431 65.3698 134.113 65.1275 134.192C65.3698 134.51 65.2083 134.749 65.0468 134.749Z" fill="#191212"/>
<path d="M65.935 134.669C66.0157 134.749 66.0965 134.828 66.1772 134.828C66.258 134.828 66.1772 134.669 66.0157 134.51C66.4195 134.987 65.6927 134.431 65.935 134.669Z" fill="#191212"/>
<path d="M66.5003 134.033C66.5003 134.113 66.4196 134.192 66.5811 134.192C66.6618 134.033 66.2581 133.795 66.0966 133.556C65.8543 133.476 66.2581 133.954 66.5003 134.033Z" fill="#191212"/>
<path d="M69.6496 135.147C69.4074 134.908 69.3266 135.067 69.4074 135.147C69.3266 135.067 69.4881 135.067 69.6496 135.147Z" fill="#191212"/>
<path d="M67.3885 133.158H67.3077L67.7115 133.556L67.3885 133.158Z" fill="#191212"/>
</g>
</g>
<path d="M130.701 123.854C130.701 123.854 146.206 132.681 160.903 134.749C169.948 136.022 176.812 134.749 176.812 134.749L160.903 124.093C160.903 124.093 145.883 121.23 130.701 123.854Z" fill="#6C5353"/>
<mask id="mask1_37_3369" style="mask-type:luminance" maskUnits="userSpaceOnUse" x="130" y="122" width="47" height="14">
<path d="M130.701 123.854C130.701 123.854 146.206 132.681 160.903 134.749C169.948 136.022 176.812 134.749 176.812 134.749L160.903 124.093C160.903 124.093 145.883 121.23 130.701 123.854Z" fill="white"/>
</mask>
<g mask="url(#mask1_37_3369)">
<g opacity="0.78">
<path d="M144.671 123.456C144.671 123.536 144.591 123.615 144.591 123.695C144.591 123.695 144.671 123.615 144.671 123.456Z" fill="#191212"/>
<path d="M151.293 123.695V123.377C151.212 123.536 151.212 123.615 151.293 123.695Z" fill="#191212"/>
<path d="M144.106 125.524C144.025 125.603 144.025 125.683 143.944 125.922L144.106 125.524Z" fill="#191212"/>
<path d="M144.833 126.796C144.833 126.876 144.833 126.876 144.914 126.955C144.833 126.876 144.833 126.796 144.833 126.796Z" fill="#191212"/>
<path d="M138.211 123.377H138.13V123.456L138.211 123.377Z" fill="#191212"/>
<path d="M153.716 123.456C153.797 123.456 153.797 123.377 153.877 123.297C153.797 123.297 153.716 123.377 153.716 123.456Z" fill="#191212"/>
<path d="M140.391 123.456C140.472 124.411 140.149 123.536 140.23 124.411C140.311 124.252 140.472 124.092 140.472 124.57C140.391 125.047 140.23 124.49 140.149 125.285L140.311 124.967C140.472 125.365 140.311 125.922 140.391 125.922C140.553 124.888 140.957 126.319 141.118 126.16L141.037 126.24L141.28 126.717C141.28 126.717 141.28 126.717 141.28 126.796C141.28 126.717 141.28 126.717 141.28 126.637C141.441 127.194 141.603 127.512 141.845 127.353C141.926 126.796 142.572 127.115 142.652 126.637C142.572 126.796 142.491 126.796 142.329 126.637V125.922C142.572 125.922 142.329 126.558 142.572 126.16C142.491 125.206 142.249 126.16 142.168 126.081C142.249 125.842 142.249 125.683 142.41 125.524C142.087 125.524 141.845 125.206 141.683 126.16C141.603 125.922 141.603 125.524 141.683 125.444C141.522 126.001 141.522 124.888 141.36 125.444C141.36 124.57 141.764 124.967 141.926 124.411C142.249 125.126 142.572 124.411 142.814 124.252C142.814 124.888 142.652 125.524 142.814 125.842C143.137 126.24 143.137 125.444 143.218 125.047C143.46 125.285 143.299 126.16 143.622 126.16L143.46 126.637C143.702 127.592 143.622 126.24 143.783 126.478C143.702 126.24 143.702 126.001 143.541 126.001C143.541 125.683 143.622 125.524 143.702 125.444H143.622C143.702 124.967 143.702 124.49 143.864 124.729C143.783 125.285 144.025 125.126 144.106 125.365L144.025 125.444C144.187 125.285 144.348 125.365 144.429 125.206V125.365C144.51 125.126 144.591 124.411 144.752 124.57C144.752 124.888 144.591 125.604 144.752 125.524C144.752 125.922 144.51 126.001 144.348 125.842C144.51 126.001 144.671 126.637 144.429 126.717C144.51 127.274 144.591 126.478 144.752 126.717C144.752 126.558 144.752 126.399 144.752 126.24C144.752 126.955 145.156 126.319 145.156 125.763L144.994 126.16C144.994 125.604 145.237 125.206 145.075 124.888C145.237 125.763 145.64 124.411 145.721 125.206L145.64 124.729C146.044 124.967 146.367 123.933 146.771 123.695C146.609 124.013 146.69 124.967 146.367 124.649C146.771 124.808 146.529 125.604 146.69 126.081C147.013 126.399 146.771 125.126 146.932 124.808L146.69 124.967C146.933 123.774 147.498 125.206 147.902 124.411C147.982 124.729 147.821 124.57 147.74 124.729C147.982 125.285 147.902 124.57 148.063 124.331C148.305 124.411 148.548 124.649 148.467 125.365C148.709 125.524 148.386 124.888 148.548 124.729L148.628 124.888L148.79 124.092C149.032 124.331 149.274 124.729 149.355 125.365C149.759 125.206 149.436 123.695 149.759 123.456C150.001 123.854 149.759 124.013 149.759 124.331L150.082 124.252C150.001 125.047 149.759 124.649 149.84 125.604C150.001 124.649 150.163 125.285 150.405 124.649V124.57C150.486 123.933 150.889 124.331 151.051 124.252C150.97 124.649 150.809 124.729 150.647 124.888C150.889 125.206 151.374 124.888 151.536 124.013C151.697 124.172 151.939 124.49 151.778 124.808C152.182 124.888 151.859 123.615 152.262 123.854V124.49C152.747 125.365 152.989 123.615 153.474 124.411V123.615C153.554 123.933 153.797 124.092 153.797 124.411L153.635 124.649C153.877 125.285 153.797 124.013 154.039 124.49C154.039 124.252 153.797 123.774 153.797 123.456C152.989 123.933 152.101 122.9 151.374 123.774C151.374 123.854 151.455 123.933 151.455 124.092C151.374 123.933 151.213 124.092 151.213 123.695V123.615C150.97 123.774 150.728 122.9 150.647 122.9C150.566 123.456 150.163 122.741 150.324 123.615L150.163 123.059C150.163 123.377 150.163 123.854 150.082 124.013C149.92 123.933 149.92 123.615 150.001 123.377C149.436 123.059 148.79 123.218 148.144 123.536L148.305 123.138C148.144 122.9 147.821 123.933 147.902 122.82C147.659 123.297 147.094 122.581 147.175 123.695C146.932 122.581 146.448 123.218 146.044 123.456C146.125 124.411 145.721 123.774 145.64 124.172C145.56 123.456 145.963 123.377 145.963 122.9C145.64 124.092 144.833 122.104 144.671 124.013C144.591 123.933 144.591 123.854 144.591 123.774C144.51 123.774 144.429 123.456 144.348 123.377C144.348 123.695 144.51 123.854 144.268 124.013C144.106 123.933 144.187 123.377 144.106 123.138C143.864 123.615 143.379 123.774 143.379 124.57C143.299 124.331 143.218 123.933 143.299 123.774C142.895 124.411 142.895 123.695 142.41 124.092C142.572 124.092 142.491 123.297 142.733 123.615C142.491 122.502 142.006 123.854 141.683 123.297L141.522 124.013C141.28 124.172 141.28 123.456 141.441 123.218C141.037 122.82 140.876 123.218 140.553 123.218C140.553 123.138 140.553 122.979 140.553 123.059H140.149C140.149 123.218 139.988 123.615 139.988 124.013C140.068 123.456 140.149 123.218 140.391 123.456Z" fill="#191212"/>
<path d="M143.864 126.796C143.783 126.637 143.783 126.558 143.783 126.478C143.783 126.558 143.864 126.717 143.864 126.796Z" fill="#191212"/>
<path d="M136.111 125.206C136.192 126.24 136.353 125.047 136.515 125.285C136.353 125.444 136.434 126.081 136.434 126.399C136.596 125.047 136.676 126.637 137.08 126.399C137.08 126.876 136.919 126.955 136.919 127.433C137.161 127.115 137.484 126.876 137.484 126.16C137.888 126.16 138.13 126.399 138.372 126.319C138.13 126.637 138.372 127.115 138.13 127.751C138.372 126.876 138.938 125.763 139.341 124.649C139.422 125.524 139.422 125.604 139.422 126.319C139.907 126.876 139.503 125.524 139.987 125.763L139.826 125.604C139.987 125.365 139.987 124.57 140.068 124.013L139.584 124.172C139.584 123.615 139.907 123.695 139.987 123.536C140.149 122.82 139.745 123.059 139.745 122.502C139.664 122.979 139.503 122.82 139.341 122.979V122.661C139.099 122.343 139.018 123.138 138.776 123.138C138.776 123.059 138.776 122.979 138.776 122.9C138.695 123.218 138.614 123.695 138.534 123.774H138.615C138.453 124.49 138.049 124.967 138.291 125.763L137.807 125.524C137.888 124.729 137.888 123.456 138.211 123.377V123.059C137.968 122.581 137.645 123.695 137.726 124.411C137.565 126.399 136.919 124.49 136.596 125.285C136.596 124.729 136.757 124.57 136.838 124.172C136.919 124.092 136.999 124.092 137.08 124.57C137.565 124.252 136.919 122.9 137.484 123.059C137.726 123.297 137.161 123.933 137.565 124.013L137.807 122.502C137.565 122.581 137.322 122.82 137.161 122.979C136.111 123.933 135.304 123.138 135.304 123.138L130.62 123.615C130.135 123.854 129.974 123.774 129.731 125.206C129.812 125.524 130.135 125.365 130.054 125.842C130.135 125.285 130.297 124.967 130.539 125.047C130.539 125.604 130.297 125.285 130.377 125.444H130.458C130.458 125.683 130.377 125.922 130.297 125.922C130.62 126.717 131.104 126.558 131.347 125.524C131.589 126.081 131.185 126.319 131.024 126.796C131.831 127.194 132.396 127.115 133.285 127.194C133.285 126.24 133.365 126.637 133.446 125.922L133.527 126.24C133.527 126.081 133.608 125.444 133.446 125.206C133.931 125.922 134.011 123.933 134.334 123.536V124.013C134.577 123.933 134.658 123.933 134.9 123.615C135.304 124.49 134.496 123.774 134.657 124.967L134.819 124.808C134.738 125.285 134.658 126.081 134.577 126.399C134.981 125.604 135.223 126.717 135.627 126.081C135.546 126.637 135.142 127.035 135.061 127.115C135.223 127.194 135.465 126.796 135.546 127.274V126.558C135.788 126.478 135.546 127.194 135.627 127.592C136.192 127.671 135.546 125.604 136.111 125.206Z" fill="#191212"/>
<path d="M142.572 125.445C142.491 125.365 142.41 125.445 142.329 125.524C142.491 125.524 142.572 125.445 142.572 125.445Z" fill="#191212"/>
<path d="M141.28 127.671C141.28 127.353 141.36 127.353 141.36 126.956C141.28 127.194 141.037 127.194 141.28 127.671Z" fill="#191212"/>
<path d="M162.034 126.16C162.034 125.922 162.195 125.763 162.114 125.604L161.872 125.842L162.034 126.16Z" fill="#191212"/>
<path d="M161.469 125.445L161.226 125.206L161.146 126.16C161.388 126.081 161.146 125.524 161.469 125.445Z" fill="#191212"/>
<path d="M160.742 125.365V126.081L160.984 125.524L160.822 125.445C160.822 125.206 160.742 125.126 160.661 125.047L160.58 125.524C160.661 125.445 160.661 125.285 160.742 125.365Z" fill="#191212"/>
<path d="M159.692 124.252C159.772 124.49 159.692 124.888 159.692 125.126C159.934 125.365 159.853 124.331 160.095 124.649C159.853 125.206 160.257 125.047 160.418 125.365C160.257 124.729 160.095 124.331 159.853 124.172V124.57C159.772 124.729 159.853 124.49 159.692 124.252Z" fill="#191212"/>
<path d="M158.561 125.444L158.723 124.808C158.804 125.126 159.127 125.047 159.127 125.683C159.207 125.604 159.207 125.285 159.288 125.126C159.369 125.444 159.53 125.683 159.53 125.206C159.046 124.808 159.127 124.649 158.723 124.49C158.723 124.331 158.804 124.331 158.804 124.411L158.481 124.093C158.561 124.888 158.238 124.967 158.561 125.444Z" fill="#191212"/>
<path d="M158.077 124.967C158.319 124.888 158.319 124.331 158.157 123.933L157.754 124.49C157.996 124.49 158.157 124.411 158.077 124.967Z" fill="#191212"/>
<path d="M157.834 125.047C157.754 124.729 157.511 124.013 157.431 124.729C157.673 124.57 157.592 125.524 157.834 125.047Z" fill="#191212"/>
<path d="M156.219 124.57L156.704 124.967C156.865 125.763 156.542 125.206 156.462 125.603C156.865 125.763 156.704 125.444 156.946 124.967C157.027 125.047 157.188 124.57 157.269 124.331C156.704 125.047 156.542 123.059 156.219 124.57Z" fill="#191212"/>
<path d="M157.108 125.365L157.188 124.967L157.027 125.285L157.108 125.365Z" fill="#191212"/>
<path d="M155.169 123.774C154.846 122.82 154.766 124.331 154.443 123.933C154.443 123.854 154.443 123.774 154.523 123.695L154.281 123.774V123.536C154.362 124.092 154.12 124.331 154.039 124.808C154.362 125.444 154.12 124.092 154.362 124.729C154.362 124.967 154.362 125.365 154.281 125.603C154.443 125.285 154.443 124.967 154.443 124.649C154.604 124.57 154.604 124.888 154.604 125.126C154.766 124.808 154.685 123.933 155.008 124.092C155.25 124.57 155.008 124.888 155.25 124.649C155.008 123.695 155.573 124.808 155.654 124.172C155.896 124.331 156.058 124.888 156.058 125.206C155.977 124.49 156.138 123.854 156.3 123.615L155.977 124.252L155.815 123.377C155.573 123.933 155.412 123.854 155.169 123.774Z" fill="#191212"/>
<path d="M154.281 125.683C154.281 125.763 154.281 125.763 154.2 125.842C154.2 125.842 154.281 125.763 154.281 125.683Z" fill="#191212"/>
<path d="M156.058 125.524L155.977 125.683L156.138 125.922L156.058 125.524Z" fill="#191212"/>
<path d="M154.12 126.319C154.2 126.319 154.2 126.081 154.12 126.001L154.039 126.399L154.12 126.319Z" fill="#191212"/>
<path d="M153.877 125.763L153.716 125.285L153.635 125.683L153.877 125.763Z" fill="#191212"/>
<path d="M148.79 125.603C148.951 125.921 148.951 125.285 148.951 124.888C148.628 124.808 148.951 125.365 148.79 125.603Z" fill="#191212"/>
<path d="M145.56 126.478C145.721 126.876 145.883 126.24 146.044 126.319C145.963 126.001 145.721 126.16 145.56 126.478Z" fill="#191212"/>
<path d="M144.268 128.466C144.268 128.307 144.348 128.148 144.268 128.069L144.429 127.035C144.187 126.796 144.268 128.069 144.268 128.466Z" fill="#191212"/>
<path d="M142.733 128.705L142.975 128.308H142.814C142.895 127.91 142.895 127.671 142.975 127.353C142.895 127.512 142.652 127.91 142.733 128.705Z" fill="#191212"/>
<path d="M143.218 127.115C143.218 127.115 143.137 127.114 143.137 127.194C143.218 127.274 143.218 127.433 143.218 127.115Z" fill="#191212"/>
<path d="M143.056 127.194C143.056 127.274 143.056 127.274 143.056 127.274C143.137 127.194 143.137 127.194 143.218 127.115C143.137 127.115 143.137 127.035 143.056 127.194Z" fill="#191212"/>
<path d="M142.572 128.148L142.168 128.308L142.33 128.467C142.33 127.91 142.491 128.864 142.572 128.148Z" fill="#191212"/>
<path d="M140.23 127.671L140.149 127.035C139.907 126.876 139.584 128.228 139.341 127.274C139.503 127.671 139.099 127.989 139.422 128.149C139.664 127.592 140.068 127.512 140.23 127.671Z" fill="#191212"/>
<path d="M139.18 126.797C139.261 126.637 139.18 126.478 139.099 126.319C139.019 126.24 138.938 126.558 138.938 126.797C139.099 126.001 139.099 127.274 139.18 126.797Z" fill="#191212"/>
<path d="M137.969 126.876C138.049 126.876 138.13 126.796 138.049 126.637C137.807 126.717 137.888 127.353 137.807 127.83C137.969 128.148 138.13 127.194 137.969 126.876Z" fill="#191212"/>
<path d="M135.95 122.343C135.95 122.9 136.192 122.82 136.192 122.582C136.192 122.661 136.03 122.502 135.95 122.343Z" fill="#191212"/>
<path d="M136.031 126.796V126.876L136.111 126.081L136.031 126.796Z" fill="#191212"/>
<path d="M134.577 127.194L134.335 127.751L134.658 127.671L134.577 127.194Z" fill="#191212"/>
<path d="M134.254 127.115H134.012L134.092 127.353C134.254 127.512 134.173 127.115 134.254 127.115Z" fill="#191212"/>
<path d="M133.527 127.194C133.527 127.114 133.608 127.194 133.608 127.353L133.85 127.035L133.527 127.194Z" fill="#191212"/>
</g>
</g>
<path d="M80.2286 124.013L71.7493 132.443C66.8233 133.795 64.3199 132.363 64.3199 132.363L50.3492 122.741C50.3492 122.741 70.6995 118.367 80.2286 124.013Z" fill="#B3B3B3"/>
<path d="M50.5913 47.9058C50.5913 47.9058 25.4765 67.0718 6.90283 65.3222C8.35642 42.0208 11.2636 14.3455 11.2636 14.3455C13.8478 -5.13861 42.0313 -3.78665 45.2615 12.4368C47.7649 24.843 50.5913 47.9058 50.5913 47.9058Z" fill="#6C5353"/>
<path d="M62.0584 123.933C13.5246 122.343 8.437 107.233 6.49888 93.8722C5.77208 88.862 6.0951 77.7283 6.90266 65.2426C25.4763 67.0717 50.5911 47.8262 50.5911 47.8262C54.0636 49.9734 57.5361 52.1206 60.9278 54.2679C60.3625 54.3474 37.2666 58.3237 32.9058 84.17C28.545 110.255 49.2991 121.786 62.0584 123.933Z" fill="#B3B3B3"/>
<path d="M11.5866 12.5959C11.5866 12.5959 3.91487 13.7889 0.119385 22.8549C0.119385 22.8549 10.2138 23.6502 12.1519 23.8888C12.1519 23.8888 12.9594 17.3676 11.5866 12.5959Z" fill="#FF9F2C"/>
<path d="M0.119385 22.855C0.119385 22.855 8.1949 20.8669 12.4749 21.6621" stroke="#343434" stroke-miterlimit="10"/>
<path d="M22.8114 18.7195C24.9522 18.7195 26.6877 17.0105 26.6877 14.9022C26.6877 12.794 24.9522 11.085 22.8114 11.085C20.6706 11.085 18.9352 12.794 18.9352 14.9022C18.9352 17.0105 20.6706 18.7195 22.8114 18.7195Z" fill="#21262A"/>
<path d="M78.0481 132.443L65.1273 145.326L57.1326 146.917L70.6187 132.363C70.6187 132.363 73.1221 133.795 78.0481 132.443Z" fill="#FF8080"/>
<path d="M86.5272 124.013L78.048 132.443C73.1219 133.795 70.6185 132.363 70.6185 132.363L58.1014 123.775C58.1014 123.775 76.9981 118.367 86.5272 124.013Z" fill="#B3B3B3"/>
<path d="M36.863 149.541H74.0104C74.0104 149.541 73.5259 145.326 67.4692 145.326C57.1326 145.326 46.2306 146.917 42.5967 146.917C37.9129 146.917 36.863 149.541 36.863 149.541Z" fill="#FF8080"/>
<path d="M160.903 124.093C160.903 124.093 132.638 123.536 73.4449 124.093C69.4072 124.093 65.6117 124.093 61.9777 123.934C49.2184 121.786 28.5451 110.255 32.9059 84.1702C37.2666 58.4035 60.3626 54.4271 60.9279 54.2681C113.984 87.7489 160.903 124.093 160.903 124.093Z" fill="#6C5353"/>
<path d="M114.711 90.2142C112.207 96.0992 104.697 110.175 86.5272 123.934C82.3279 123.934 77.9671 124.013 73.4448 124.013C101.225 105.881 107.766 85.363 107.766 85.363C110.188 87.1126 112.45 88.7032 114.711 90.2142Z" fill="#563D3D"/>
<path d="M130.62 101.587C127.632 107.312 122.383 115.345 113.661 123.854C110.108 123.854 106.312 123.854 102.275 123.854C114.63 113.197 121.01 102.859 123.998 96.8149C126.259 98.485 128.52 100.076 130.62 101.587Z" fill="#563D3D"/>
<path d="M32.5832 87.1125C32.5832 87.1125 32.3409 118.287 72.3147 113.754C84.3472 112.402 71.5879 104.529 71.5879 104.529C71.5879 104.529 82.4091 110.732 88.1427 107.074C92.9072 104.052 82.2475 97.2125 82.2475 97.2125C82.2475 97.2125 90.7268 100.155 95.2491 98.2463C100.014 96.2581 90.9691 89.6574 90.9691 89.6574" stroke="#1B1C1E" stroke-miterlimit="10"/>
</svg>
