<svg width="206" height="143" viewBox="0 0 206 143" fill="none" xmlns="http://www.w3.org/2000/svg">
<path d="M0.0325791 138.316C-1.90554 137.282 192.553 135.453 203.858 138.316C212.015 140.384 182.458 142.452 147.653 142.372C110.667 142.372 67.7053 140.145 55.6728 141.338C32.1731 143.565 6.57374 141.816 0.0325791 138.316Z" fill="#1B1C1E"/>
<path d="M30.0737 84.2382C30.0737 84.2382 28.8624 94.8153 29.1047 101.973C29.3469 109.051 30.316 112.47 30.0737 113.584C29.8315 114.777 28.7009 119.628 29.5892 120.343C29.5892 120.343 29.9122 123.604 29.1047 126.944C28.2971 130.284 26.2782 136.726 28.1356 139.987H37.7455C37.7455 139.987 42.5908 129.171 40.0066 115.969C37.4224 102.768 32.1734 82.0115 30.0737 84.2382Z" fill="#FFF0DD"/>
<path d="M120.762 96.4057C120.762 96.4057 120.439 105.631 123.588 108.335C124.719 109.289 126.091 108.971 126.091 108.971C126.091 108.971 126.334 114.22 128.191 115.731C128.918 116.287 129.483 116.526 129.483 116.526C129.483 116.526 129.483 123.127 131.179 123.763C132.875 124.399 127.464 133.624 129.079 140.066H151.852C151.852 140.066 157.747 127.978 156.052 118.912C154.356 109.925 148.461 90.1231 144.746 87.4987C141.112 84.8743 123.426 89.4869 120.762 96.4057Z" fill="#FFF0DD"/>
<mask id="mask0_37_3512" style="mask-type:luminance" maskUnits="userSpaceOnUse" x="120" y="86" width="37" height="55">
<path d="M120.762 96.4057C120.762 96.4057 120.439 105.631 123.588 108.335C124.719 109.289 126.091 108.971 126.091 108.971C126.091 108.971 126.334 114.22 128.191 115.731C128.918 116.287 129.483 116.526 129.483 116.526C129.483 116.526 129.483 123.127 131.179 123.763C132.875 124.399 127.464 133.624 129.079 140.066H151.852C151.852 140.066 157.747 127.978 156.052 118.912C154.356 109.925 148.461 90.1231 144.746 87.4987C141.112 84.8743 123.426 89.4869 120.762 96.4057Z" fill="white"/>
</mask>
<g mask="url(#mask0_37_3512)">
<g opacity="0.7">
<path d="M131.906 95.9285C131.906 96.0875 131.825 96.2466 131.825 96.4056C131.825 96.3261 131.825 96.2466 131.906 95.9285Z" fill="#2C2C2D"/>
<path d="M126.495 95.7696V95.2129C126.576 95.4515 126.576 95.6105 126.495 95.7696Z" fill="#2C2C2D"/>
<path d="M131.179 99.6665C131.179 99.8256 131.179 99.9846 131.098 100.382L131.179 99.6665Z" fill="#2C2C2D"/>
<path d="M130.049 101.814C130.049 101.893 129.968 101.973 129.968 102.053C129.968 101.973 129.968 101.893 130.049 101.814Z" fill="#2C2C2D"/>
<path d="M136.993 96.167C136.993 96.0875 137.074 96.008 137.074 95.9285C136.993 96.008 136.993 96.0875 136.993 96.167Z" fill="#2C2C2D"/>
<path d="M136.913 97.2011C136.994 97.2011 136.994 97.1216 136.913 97.2011V97.3602C136.913 97.4397 136.913 97.2806 136.913 97.2011Z" fill="#2C2C2D"/>
<path d="M135.54 104.756L135.298 105.313C135.379 105.074 135.459 104.915 135.54 104.756Z" fill="#2C2C2D"/>
<path d="M137.155 95.4517C137.155 95.6107 137.074 95.7698 136.993 95.9288C137.074 95.7698 137.074 95.6902 137.155 95.4517Z" fill="#2C2C2D"/>
<path d="M131.987 95.6902C131.987 95.7697 131.906 95.8492 131.906 95.9288C131.987 95.8492 131.987 95.7697 131.987 95.6902Z" fill="#2C2C2D"/>
<path d="M124.396 95.5311C124.315 95.4516 124.315 95.4516 124.234 95.2925C124.396 95.1335 124.396 95.2925 124.396 95.5311Z" fill="#2C2C2D"/>
<path d="M135.217 96.8035C134.49 98.3941 135.379 96.9626 134.733 98.4736C134.813 98.076 134.813 97.8374 134.41 98.6326C134.087 99.5074 134.652 98.6326 134.087 99.9846L134.167 99.4279C133.844 100.064 133.521 101.177 133.441 101.018C134.087 99.1893 132.794 101.575 132.794 101.257V101.416L132.31 102.211V102.291C132.31 102.211 132.391 102.052 132.471 101.973C132.068 102.848 131.664 103.484 131.664 103.166C131.987 102.132 131.341 102.689 131.583 101.734C131.583 102.052 131.583 102.052 131.745 101.814L132.229 100.541C132.068 100.541 131.825 101.734 131.906 100.939C132.552 99.2688 132.068 101.018 132.229 100.859C132.31 100.462 132.391 100.064 132.391 99.9051C132.633 99.9051 133.037 99.4279 132.552 101.177C132.714 100.859 132.956 100.144 133.037 99.9051C132.794 100.939 133.521 98.9507 133.279 99.9051C133.844 98.3145 133.279 98.9507 133.521 97.9964C132.875 99.1893 133.037 97.9169 132.956 97.5988C132.552 98.7917 132.31 99.8255 131.987 100.462C131.502 101.178 131.987 99.746 132.148 99.0303C131.825 99.4279 131.422 101.018 131.179 101.018L131.018 101.814C130.291 103.404 131.099 101.098 130.937 101.416C131.099 101.018 131.26 100.541 131.341 100.621C131.583 99.9846 131.583 99.746 131.502 99.6665L131.583 99.587C131.825 98.7917 132.068 97.9169 131.825 98.235C131.583 99.2689 131.422 98.9507 131.26 99.4279V99.6665C131.26 99.2689 131.099 99.4279 131.099 99.1893L131.018 99.4279C131.099 99.0303 131.422 97.7578 131.179 97.9964C131.018 98.4736 130.776 99.9051 130.695 99.6665C130.453 100.382 130.614 100.541 130.776 100.303C130.533 100.541 130.13 101.734 130.21 101.893C129.887 102.848 130.21 101.416 129.968 101.893C130.049 101.575 130.13 101.257 130.21 101.018C129.807 102.291 129.887 101.018 130.21 100.144V100.78C130.533 99.746 130.533 99.0303 130.776 98.4736C130.21 100.064 130.614 97.5193 130.13 98.8712L130.453 98.076C130.049 98.4736 130.291 96.5649 130.049 96.0878C130.049 96.6445 129.564 98.3941 129.887 97.8374C129.484 98.076 129.322 99.587 128.999 100.462C128.595 101.098 129.322 98.7917 129.403 98.1555L129.484 98.5531C129.807 96.4059 128.757 98.8712 128.837 97.5193C128.676 98.0759 128.837 97.8374 128.837 98.076C128.434 99.1098 128.757 97.8374 128.757 97.3602C128.595 97.5193 128.272 97.9169 128.111 99.2689C127.868 99.587 128.272 98.4736 128.353 98.076L128.272 98.3941L128.434 96.8831C128.191 97.2807 127.868 97.9964 127.545 99.1893C127.303 98.8712 128.03 96.1673 127.868 95.6106C127.626 96.2468 127.707 96.6445 127.626 97.1216L127.465 96.9626C127.303 98.4736 127.545 97.7578 127.222 99.5074C127.384 97.7578 127.061 98.9507 127.061 97.7578V97.5988C127.142 96.4059 126.738 97.2012 126.657 96.9626C126.576 97.6783 126.738 97.7578 126.819 98.076C126.576 98.6326 126.253 97.9964 126.334 96.4059C126.173 96.6445 125.93 97.2807 126.011 97.9169C125.688 98.1555 126.092 95.6901 125.769 96.0878L125.688 97.2807C125.446 98.1555 125.365 97.7578 125.203 97.2807C125.042 96.8831 124.88 96.4854 124.719 97.2012V95.7697C124.638 96.4059 124.477 96.6445 124.477 97.2012L124.638 97.6783C124.477 98.8712 124.477 96.4854 124.315 97.3602C124.315 96.883 124.477 95.9287 124.477 95.4516C124.8 95.8492 125.203 95.5311 125.527 95.372C125.85 95.1335 126.253 95.0539 126.496 95.8492C126.415 96.0083 126.415 96.2468 126.415 96.4854C126.496 96.1673 126.576 96.5649 126.657 95.7697V95.6901C126.819 96.0083 127.222 94.3382 127.303 94.3382C127.222 95.2925 127.788 94.0201 127.384 95.6106L127.707 94.5768C127.626 95.213 127.465 96.0082 127.465 96.3264C127.626 96.2468 127.707 95.5311 127.707 95.1334C128.272 94.5768 128.837 94.8949 129.16 95.4516L129.241 94.6563C129.483 94.2587 129.322 96.0878 129.726 94.0996C129.807 94.8949 130.533 93.702 129.968 95.7697C130.614 93.861 130.776 95.0539 130.937 95.4516C130.372 97.2012 131.018 96.0082 130.856 96.8035C131.26 95.4516 131.018 95.372 131.26 94.4972C130.937 96.6445 132.633 93.2248 131.664 96.724C131.745 96.5649 131.825 96.4854 131.825 96.3264C131.906 96.3264 132.148 95.7697 132.229 95.6106C132.068 96.2468 131.825 96.4854 131.906 96.724C132.068 96.6445 132.31 95.6901 132.471 95.213C132.471 96.0878 132.633 96.4854 132.229 97.8374C132.391 97.5193 132.714 96.724 132.794 96.4854C132.794 97.6783 133.198 96.4059 133.279 97.2012C133.198 97.1216 133.764 95.7697 133.36 96.2468C134.167 94.3382 133.764 96.8035 134.41 95.8492L134.087 97.1216C134.167 97.3602 134.652 96.2468 134.652 95.7697C135.217 95.1335 135.056 95.9287 135.298 96.0082C135.379 95.8492 135.459 95.6106 135.379 95.6901L135.702 95.7697C135.621 96.0878 135.459 96.724 135.136 97.5193C135.459 96.883 135.621 96.4059 135.217 96.8035Z" fill="#2C2C2D"/>
<path d="M135.217 97.519L135.136 97.6781C135.217 97.6781 135.217 97.5986 135.217 97.519Z" fill="#2C2C2D"/>
<path d="M130.695 101.893C130.856 101.575 130.856 101.416 130.937 101.416C130.856 101.575 130.775 101.814 130.695 101.893Z" fill="#2C2C2D"/>
<path d="M136.994 100.859C136.105 102.609 136.994 100.462 136.59 100.939C136.59 101.257 136.024 102.291 135.782 102.768C136.751 100.382 135.378 103.166 135.378 102.529C135.055 103.245 135.055 103.484 134.652 104.279C134.813 103.643 134.732 103.245 135.298 101.893C135.055 101.734 134.652 102.132 134.652 101.893C134.571 102.529 134.086 103.245 133.683 104.359C134.248 102.768 134.652 100.78 135.136 98.7917C134.49 100.223 134.409 100.382 133.844 101.734C133.117 102.609 134.329 100.382 133.844 100.7L134.086 100.462C134.167 99.9846 134.732 98.6326 135.055 97.5988L135.298 97.9169C135.701 96.883 135.459 96.9625 135.459 96.724C135.863 95.4515 136.025 95.9287 136.348 94.9744C136.105 95.7696 136.348 95.6106 136.267 95.9287L136.509 95.372C136.913 94.8948 136.428 96.2468 136.59 96.3263C136.671 96.1673 136.751 96.0877 136.751 96.0082C136.509 96.6444 136.267 97.3602 136.267 97.5988L136.186 97.5192C135.782 98.8712 135.701 99.746 134.894 101.018L135.378 100.78C135.944 99.4279 136.913 97.2806 136.751 97.0421L136.994 96.4854C137.478 95.7696 136.913 97.7578 136.267 98.8712C134.894 102.211 136.751 99.1893 136.348 100.7C136.832 99.8255 136.832 99.4279 137.074 98.7121C137.074 98.5531 136.994 98.5531 136.671 99.2688C136.59 98.6326 138.124 96.4854 137.559 96.5649C137.155 96.9625 137.074 98.0759 136.751 98.0759L137.72 95.4515C137.882 95.6106 137.882 96.0877 137.882 96.4059C137.882 97.4397 138.205 97.5988 138.447 97.5988C138.77 97.5988 139.093 97.2807 139.093 97.2807C140.062 98.1554 141.031 98.9507 141.92 99.905C142.081 100.462 142.243 100.382 140.87 102.768C140.466 103.166 140.466 102.848 139.982 103.722C140.547 102.848 140.708 102.291 140.466 102.291C139.901 103.086 140.385 102.768 140.224 102.927H140.143C139.901 103.325 139.739 103.643 139.739 103.722C138.77 104.915 138.609 104.438 139.497 102.768C138.851 103.563 138.77 104.12 138.447 104.836C137.559 105.233 137.317 104.915 136.832 104.677C137.72 103.166 137.317 103.722 137.882 102.609L137.559 103.166C137.72 102.927 138.286 101.814 138.528 101.575C137.559 102.609 139.255 99.3483 139.416 98.5531L139.012 99.3483C138.932 99.1098 138.851 99.0302 138.932 98.5531C137.801 99.905 139.093 98.9507 137.963 100.859L138.043 100.462C137.72 101.257 136.994 102.609 136.832 103.245C137.236 101.814 136.186 103.563 136.428 102.45C136.025 103.404 135.863 104.199 135.863 104.359C135.701 104.359 135.863 103.643 135.459 104.518L136.025 103.404C135.944 103.166 135.54 104.438 135.055 105.154C134.894 105.074 136.994 101.734 136.994 100.859Z" fill="#2C2C2D"/>
<path d="M132.31 99.7461C132.391 99.6665 132.391 99.7461 132.391 99.8256C132.391 99.9051 132.31 99.8256 132.31 99.7461Z" fill="#2C2C2D"/>
<path d="M131.744 103.961C131.987 103.404 131.906 103.404 132.148 102.688C132.067 103.165 132.229 103.165 131.744 103.961Z" fill="#2C2C2D"/>
<path d="M121.892 102.768C121.731 102.609 121.65 102.529 121.489 102.37C121.246 102.132 121.004 101.973 120.762 101.734L120.681 101.655H120.6L121.489 102.45V102.37L121.408 102.291C121.327 102.211 121.246 102.211 121.246 102.132V102.211L120.681 101.655L120.762 101.734L120.923 101.893L121.327 102.291C121.408 102.37 121.408 102.37 121.489 102.45L121.892 102.768Z" fill="#2C2C2D"/>
<path d="M121.085 101.734C121.004 101.575 120.923 101.416 120.842 101.257C121.246 101.655 121.65 102.132 121.973 102.53C121.892 102.609 121.165 101.655 121.085 101.734Z" fill="#2C2C2D"/>
<path d="M120.762 100.78L120.52 100.462C120.6 100.541 120.681 100.621 120.762 100.78Z" fill="#2C2C2D"/>
<path d="M121.166 101.336L121.973 102.291C121.731 102.052 121.57 101.814 121.327 101.655L121.246 101.416C121.004 101.098 120.923 100.939 120.762 100.7L121.327 101.416C121.247 101.336 121.085 101.177 121.166 101.336Z" fill="#2C2C2D"/>
<path d="M121.327 101.257C121.408 101.337 121.488 101.496 121.569 101.575C121.408 101.496 121.408 101.416 121.327 101.257Z" fill="#2C2C2D"/>
<path d="M120.277 99.1892C120.52 99.5868 120.923 100.144 121.246 100.541C121.408 101.018 120.358 99.4278 120.6 100.064C121.327 100.78 120.923 100.7 121.327 101.336C120.681 100.382 120.277 99.6664 120.197 99.2687L120.6 99.9049C120.762 99.8254 120.439 99.5073 120.277 99.1892Z" fill="#2C2C2D"/>
<path d="M121.973 100.462C121.811 100.144 121.569 99.8255 121.327 99.5074C121.569 99.9846 121.408 100.144 121.973 101.177C121.811 101.018 121.569 100.621 121.408 100.382C121.65 100.939 121.892 101.337 121.408 100.621C121.246 99.746 121.004 99.5869 121.085 99.1098C120.923 98.8712 120.923 98.9507 120.923 99.0303C120.842 98.7917 120.842 98.6326 120.842 98.394C121.488 99.5869 121.731 99.587 121.973 100.462Z" fill="#2C2C2D"/>
<path d="M121.811 99.5074C121.65 99.5074 121.085 98.5531 120.842 97.7578C121.085 97.9964 121.327 98.235 121.488 98.4736C121.488 98.5531 121.327 98.4736 121.811 99.5074Z" fill="#2C2C2D"/>
<path d="M121.973 99.4281C121.811 98.8714 121.408 97.5989 121.973 98.6328C121.731 98.5533 122.377 100.223 121.973 99.4281Z" fill="#2C2C2D"/>
<path d="M122.619 98.0759C122.538 98.3145 122.538 98.6326 122.538 98.8712C122.861 100.382 122.781 99.2688 123.023 99.9846C122.942 100.303 122.861 99.8255 122.458 98.9507C122.458 99.0302 122.054 98.3145 121.892 97.9169C122.296 98.4736 122.215 97.8373 122.135 97.3602C122.135 97.0421 122.135 96.724 122.619 98.0759Z" fill="#2C2C2D"/>
<path d="M122.538 99.7458L122.296 99.1096L122.538 99.5868V99.7458Z" fill="#2C2C2D"/>
<path d="M123.104 96.3264C123.104 95.3721 123.265 95.6107 123.427 96.0083C123.588 96.4059 123.75 96.8831 123.831 96.4855C123.831 96.4059 123.831 96.2469 123.75 96.0083L123.992 96.1673V95.7697C123.992 96.8831 124.234 97.2807 124.315 98.1555C124.154 99.3484 124.154 96.8036 124.073 98.076C124.154 98.5532 124.154 99.3484 124.234 99.746C124.154 99.1894 124.073 98.5531 123.992 97.9169C123.831 97.8374 123.911 98.3941 123.992 98.8713C123.831 98.235 123.669 96.6445 123.508 97.0421C123.508 97.9965 123.75 98.5531 123.508 98.1555C123.427 96.4059 123.346 98.4736 123.104 97.3602C122.942 97.6783 123.104 98.7917 123.265 99.4279C123.023 98.076 122.619 97.0421 122.377 96.6445C122.538 96.9626 122.781 97.3602 122.942 97.6784L122.781 96.0878C123.104 96.8036 123.185 96.6445 123.346 96.4059L123.104 96.3264Z" fill="#2C2C2D"/>
<path d="M124.234 99.6665C124.234 99.746 124.234 99.8256 124.315 99.9846C124.234 99.9846 124.234 99.9051 124.234 99.6665Z" fill="#2C2C2D"/>
<path d="M123.185 99.8257L123.265 100.144L123.346 100.541L123.185 99.8257Z" fill="#2C2C2D"/>
<path d="M124.315 100.78C124.315 100.86 124.234 100.303 124.315 100.223L124.396 100.939L124.315 100.78Z" fill="#2C2C2D"/>
<path d="M124.476 99.8254L124.557 98.8711V99.5868L124.476 99.8254Z" fill="#2C2C2D"/>
<path d="M127.949 99.3486C127.707 99.8257 127.949 98.7919 128.11 98.0761C128.272 97.8376 127.868 98.9509 127.949 99.3486Z" fill="#2C2C2D"/>
<path d="M129.726 101.178C129.403 101.814 129.564 100.78 129.483 100.78C129.726 100.303 129.726 100.621 129.726 101.178Z" fill="#2C2C2D"/>
<path d="M129.403 104.915C129.483 104.597 129.483 104.359 129.645 104.279L130.129 102.45C130.452 101.893 129.726 104.12 129.403 104.915Z" fill="#2C2C2D"/>
<path d="M130.21 105.472L130.291 104.756H130.371C130.614 104.04 130.694 103.643 130.856 103.086C130.856 103.404 130.694 104.199 130.21 105.472Z" fill="#2C2C2D"/>
<path d="M130.856 102.609C130.856 102.609 130.856 102.689 130.856 102.768C130.775 102.927 130.695 103.245 130.856 102.609Z" fill="#2C2C2D"/>
<path d="M130.937 102.768C131.018 102.45 130.937 102.609 130.937 102.768Z" fill="#2C2C2D"/>
<path d="M130.695 104.597L130.856 104.915L130.614 105.233C131.018 104.12 130.291 105.79 130.695 104.597Z" fill="#2C2C2D"/>
<path d="M132.391 104.199L132.875 103.165C133.117 103.006 132.391 105.392 133.198 103.722C132.875 104.358 132.794 104.995 132.471 105.233C132.794 104.199 132.633 103.961 132.391 104.199Z" fill="#2C2C2D"/>
<path d="M133.683 102.847C133.763 102.529 133.925 102.291 134.086 102.052C134.167 101.973 134.086 102.45 133.844 102.927C134.409 101.416 133.36 103.722 133.683 102.847Z" fill="#2C2C2D"/>
<path d="M134.41 103.245C134.41 103.166 134.329 103.086 134.571 102.848C134.733 103.007 134.087 104.12 133.844 104.915C133.441 105.472 134.087 103.802 134.41 103.245Z" fill="#2C2C2D"/>
<path d="M139.416 96.1672C138.932 97.042 138.851 96.883 139.013 96.5649C138.932 96.7239 139.174 96.4853 139.416 96.1672Z" fill="#2C2C2D"/>
<path d="M135.702 103.563L135.621 103.802L136.186 102.37L135.702 103.563Z" fill="#2C2C2D"/>
<path d="M136.186 104.756L135.863 105.631L135.782 105.392L136.186 104.756Z" fill="#2C2C2D"/>
<path d="M136.509 104.597L136.59 104.756L136.347 105.074C136.186 105.313 136.509 104.677 136.509 104.597Z" fill="#2C2C2D"/>
<path d="M136.832 104.995C136.832 104.915 136.751 105.074 136.67 105.154L136.832 104.518V104.995Z" fill="#2C2C2D"/>
<path d="M142.485 101.019C143.05 100.144 142.808 100.78 142.969 100.621C142.808 100.86 142 101.893 142.485 101.019Z" fill="#2C2C2D"/>
</g>
</g>
<path d="M20.7866 43.9975C20.7866 43.9975 17.7987 55.7675 18.687 57.1194C19.5753 58.4714 20.2213 56.7218 20.2213 58.3919C20.2213 60.0619 20.3021 63.6407 21.5942 63.084C22.8862 62.5273 22.5632 61.4934 22.8862 62.5273C23.2093 63.4816 24.2591 67.2989 25.9549 66.4241C27.6508 65.6288 28.2968 63.5611 28.5391 63.9588C28.7814 64.3564 30.558 67.617 31.6885 66.106C32.8999 64.5154 35.2418 49.0077 34.1112 43.9975C32.9806 38.9873 30.7195 34.6133 28.0546 37.2377C25.3896 39.8621 20.7866 43.9975 20.7866 43.9975Z" fill="#FFF0DD"/>
<path d="M19.1716 22.5251C19.1716 22.5251 13.0342 28.2511 0.678644 29.6826C0.678644 29.6826 -0.532683 35.0108 3.50507 40.4982C7.78509 46.3832 17.718 48.2918 32.2539 45.1108C32.2539 45.1108 32.5769 50.5186 32.1731 59.5051C32.0924 62.05 31.9309 64.8334 31.6886 67.8555C30.881 77.5577 29.5082 84.8742 30.4773 90.8387C30.881 93.4631 31.6886 95.7694 33.2229 97.9166C33.2229 97.9166 32.4961 114.299 34.6765 113.106C34.6765 113.106 35.6456 124.24 36.1301 125.115C36.6147 126.069 37.4222 127.66 36.6954 131.477C35.9686 135.374 35.6456 138.555 36.6954 139.907H56.6419C57.611 139.907 58.4185 137.919 58.0955 134.817C57.934 133.545 60.3566 131 60.7604 126.785C60.7604 126.785 63.9099 123.047 64.3944 117.401C64.8789 111.834 63.7484 109.846 63.7484 109.846C63.7484 109.846 65.7672 108.812 65.202 105.154C65.202 105.154 67.9476 107.142 69.8857 107.46C71.8239 107.778 70.8548 106.187 70.8548 106.187C70.8548 106.187 74.408 107.539 77.6382 107.778C80.7877 108.017 80.4647 107.062 80.4647 107.062C80.4647 107.062 89.9938 107.301 95.2428 105.313C100.492 103.324 110.667 102.052 117.774 97.4395C117.774 97.4395 119.954 98.3142 121.892 97.0418C123.83 95.7694 123.265 95.0536 123.265 95.0536C123.265 95.0536 127.06 95.3718 129.321 93.8607C129.321 93.8607 132.067 101.734 134.651 103.881C137.235 106.028 137.801 104.517 137.801 104.517C137.801 104.517 138.851 108.573 139.658 109.13C140.466 109.607 140.95 108.891 140.95 108.891C140.95 108.891 144.019 116.924 146.442 118.116C148.864 119.389 149.51 118.832 149.51 118.832C149.51 118.832 150.318 122.252 152.175 123.922C152.175 123.922 152.014 124.797 152.579 125.274C153.144 125.751 147.734 134.579 151.125 139.827H173.656C173.656 139.827 174.706 137.998 174.867 135.135C174.948 132.352 176.644 129.886 177.209 127.66C177.209 127.66 179.632 127.739 179.47 121.854C179.47 121.854 180.762 120.979 180.682 116.605C180.601 112.231 179.47 110.005 177.855 108.494C177.855 108.494 180.278 106.824 176.079 101.893C176.079 101.893 177.452 102.052 177.129 100.302C176.805 98.5528 171.314 88.2143 171.476 84.5561C171.637 80.9774 173.898 71.1161 169.861 60.4595C165.823 49.8824 153.225 44.7131 133.925 47.8942C114.624 51.1548 81.9183 57.9941 71.3393 52.2682C60.7604 46.5422 61.6487 24.1157 52.9272 19.0259C44.1249 14.0157 42.2675 11.3914 33.7882 14.0953C24.8244 17.1173 19.1716 22.5251 19.1716 22.5251Z" fill="#FFF0DD"/>
<path d="M30.3159 90.8386C30.7197 93.463 31.5272 95.7693 33.0616 97.9165C33.0616 97.9165 32.3348 114.299 34.5152 113.106C34.5152 113.106 35.4842 124.24 35.9688 125.115C36.4533 126.069 37.2609 127.66 36.5341 131.477C35.8073 135.374 35.4842 138.555 36.5341 139.907" stroke="#1B1C1E" stroke-width="1.2604" stroke-miterlimit="10" stroke-linecap="round" stroke-linejoin="round"/>
<path d="M32.2538 45.1106C32.2538 45.1106 32.5768 50.5184 32.173 59.505C32.0923 62.0498 31.9307 64.8333 31.6885 67.8553" stroke="#1B1C1E" stroke-width="1.2604" stroke-miterlimit="10" stroke-linecap="round" stroke-linejoin="round"/>
<mask id="mask1_37_3512" style="mask-type:luminance" maskUnits="userSpaceOnUse" x="32" y="41" width="10" height="16">
<path d="M32.2539 56.0062C32.4154 49.0873 32.2539 45.111 32.2539 45.111C32.2539 45.111 37.503 43.759 40.0871 41.3732C42.5906 39.0669 44.2057 52.1889 32.2539 56.0062Z" fill="white"/>
</mask>
<g mask="url(#mask1_37_3512)">
<g opacity="0.87">
<path d="M36.3723 43.2822C36.3723 43.3618 36.4531 43.4413 36.4531 43.4413C36.4531 43.4413 36.4531 43.3618 36.3723 43.2822Z" fill="#080809"/>
<path d="M38.9564 41.6119L38.7949 41.4529C38.8757 41.4529 38.8757 41.5324 38.9564 41.6119Z" fill="#080809"/>
<path d="M37.1798 44.8726C37.1798 44.9521 37.2606 45.0316 37.2606 45.1907L37.1798 44.8726Z" fill="#080809"/>
<path d="M38.1487 45.5884L38.2294 45.6679C38.1487 45.6679 38.1487 45.5884 38.1487 45.5884Z" fill="#080809"/>
<path d="M33.7882 43.9182V43.8386C33.7075 43.8386 33.7075 43.9182 33.7882 43.9182Z" fill="#080809"/>
<path d="M33.7072 44.3955C33.7879 44.5546 33.7072 44.475 33.7072 44.3955Z" fill="#080809"/>
<path d="M33.465 48.2126L33.5457 48.4512C33.5457 48.2922 33.465 48.2126 33.465 48.2126Z" fill="#080809"/>
<path d="M33.6267 43.6001C33.6267 43.6796 33.6267 43.7591 33.7075 43.8387C33.7075 43.7591 33.7075 43.6796 33.6267 43.6001Z" fill="#080809"/>
<path d="M34.6764 44.1567C35.0801 44.8725 34.5956 44.2362 34.9186 44.952C34.9186 44.7929 34.8379 44.6339 35.0801 45.0315C35.2416 45.4291 34.9186 45.0315 35.2416 45.6677V45.4291C35.4839 45.6677 35.6454 46.2244 35.6454 46.1449C35.3224 45.2701 36.0492 46.3835 36.0492 46.1449V46.2244L36.3722 46.5425C36.3722 46.5425 36.3722 46.5425 36.3722 46.622C36.3722 46.5425 36.2915 46.5425 36.2915 46.463C36.5337 46.8606 36.8567 47.0197 36.8567 46.9402C36.6145 46.463 37.099 46.622 36.9375 46.2244C36.9375 46.3835 36.9375 46.3835 36.776 46.3039L36.453 45.7473C36.5337 45.6677 36.776 46.2244 36.6952 45.8268C36.2107 45.111 36.5337 45.9063 36.453 45.8268C36.3722 45.6677 36.2915 45.5087 36.2915 45.3496C36.1299 45.4291 35.8877 45.1906 36.2107 45.9858C36.0492 45.8268 35.8877 45.5087 35.8877 45.4291C36.0492 45.9063 35.5647 45.0315 35.7262 45.5087C35.4032 44.7929 35.7262 45.0315 35.5647 44.6339C35.9684 45.111 35.8877 44.4748 35.8877 44.3158C36.2107 44.7929 36.3722 45.2701 36.6145 45.5087C36.9375 45.7473 36.6145 45.1906 36.453 44.8725C36.6952 44.952 37.0183 45.6677 37.1798 45.5882L37.3413 45.9858C37.9066 46.6221 37.2605 45.6677 37.422 45.7473C37.2605 45.5882 37.1798 45.4291 37.099 45.5087C36.9375 45.2701 36.9375 45.111 36.9375 45.111C36.776 44.7929 36.5337 44.3953 36.6952 44.4748C36.9375 44.952 36.9375 44.7134 37.099 44.8725V44.952C37.099 44.7929 37.1798 44.7929 37.1798 44.7134L37.2605 44.7929C37.1798 44.6339 36.8568 44.0772 37.0183 44.1567C37.1798 44.3953 37.5028 44.952 37.5028 44.7929C37.7451 45.111 37.6643 45.1906 37.5028 45.111C37.6643 45.1906 38.0681 45.5882 37.9873 45.7473C38.3103 46.1449 37.9873 45.5087 38.1488 45.6677C38.0681 45.5882 37.9873 45.4291 37.9066 45.2701C38.3103 45.7473 38.1488 45.1906 37.8258 44.8725L37.9873 45.1906C37.6643 44.7929 37.5835 44.4748 37.3413 44.2362C37.9066 44.8725 37.3413 43.7591 37.7451 44.2362L37.422 43.9181C37.7451 43.9977 37.2605 43.1229 37.3413 42.8843C37.422 43.1229 37.9873 43.7591 37.7451 43.6796C37.9873 43.6796 38.3911 44.3158 38.7141 44.5544C39.0371 44.7134 38.2296 43.9181 38.0681 43.6796V43.8386C37.5028 42.9638 38.5526 43.7591 38.2296 43.1229C38.3911 43.2819 38.3103 43.2819 38.3103 43.3614C38.7141 43.6796 38.3103 43.2024 38.2296 43.0433C38.3911 43.0433 38.6334 43.1229 39.0371 43.6C39.1987 43.6 38.7949 43.3614 38.6334 43.1229L38.7141 43.2024L38.3103 42.6457C38.5526 42.7252 38.8756 42.8843 39.2794 43.2819C39.3602 43.0433 38.3103 42.2481 38.2296 41.93C38.5526 42.089 38.5526 42.2481 38.7141 42.4866L38.7949 42.3276C39.2794 42.8843 38.9564 42.7252 39.5217 43.2819C38.9564 42.6457 39.4409 42.9638 39.1986 42.4866L39.1179 42.4071C38.7141 42.0095 39.1179 42.089 39.1179 42.0095C39.3602 42.2481 39.2794 42.3276 39.3602 42.4866C39.6024 42.5662 39.6024 42.2481 39.1179 41.6914C39.2794 41.6914 39.5217 41.8504 39.7639 42.089C40.0062 42.0095 39.0371 41.3733 39.2794 41.3733L39.6832 41.7709C40.41 42.089 39.3602 40.9756 40.0869 41.2937L39.5217 40.8961C39.7639 41.0552 39.9254 41.0552 40.1677 41.2142L40.3292 41.4528C40.8137 41.7709 39.9254 41.0552 40.3292 41.2142C40.1677 41.0552 39.7639 40.8961 39.5217 40.7371C39.6024 41.2937 38.5526 40.9756 38.8756 41.6914C38.9564 41.7709 39.0371 41.7709 39.1179 41.8504C38.9564 41.7709 39.0371 41.93 38.7949 41.6914V41.6119C38.8756 41.7709 38.1488 41.2938 38.1488 41.3733C38.4718 41.6914 37.8258 41.3733 38.4718 41.93L38.0681 41.6119C38.2296 41.8504 38.5526 42.089 38.6334 42.2481C38.5526 42.2481 38.3103 42.0095 38.2296 41.8504C37.8258 41.8504 37.6643 42.089 37.6643 42.4866L37.422 42.1685C37.2605 42.089 37.6643 42.8048 37.099 42.089C37.2605 42.4866 36.6952 42.089 37.3413 42.8843C36.6145 42.2481 36.8568 42.7252 36.776 42.9638C37.3413 43.6 36.776 43.2819 37.0183 43.6C36.6145 43.1229 36.6952 42.9638 36.453 42.6457C36.9375 43.6 35.6454 42.3276 36.5337 43.7591C36.453 43.6796 36.453 43.6796 36.3722 43.6C36.3722 43.6 36.1299 43.441 36.0492 43.3614C36.2107 43.6 36.3722 43.6796 36.3722 43.8386C36.2915 43.8386 36.0492 43.441 35.8877 43.2819C35.9684 43.6796 35.8877 43.9181 36.2915 44.4748C36.1299 44.3158 35.8877 44.0772 35.8877 43.9181C35.9684 44.4748 35.6454 43.9181 35.6454 44.3158C35.7262 44.2362 35.3224 43.6796 35.5647 43.8386C34.9994 43.0433 35.4032 44.1567 34.9994 43.7591L35.2416 44.3158C35.2416 44.4748 34.9186 43.9181 34.8379 43.7591C34.5148 43.5205 34.5956 43.9181 34.5149 43.9181C34.4341 43.8386 34.4341 43.7591 34.4341 43.7591L34.2726 43.8386C34.3533 43.9977 34.4341 44.3158 34.5956 44.6339C34.5149 44.1567 34.4341 43.9977 34.6764 44.1567Z" fill="#080809"/>
<path d="M37.6643 45.827C37.5836 45.7475 37.5028 45.668 37.5028 45.668C37.5836 45.7475 37.5836 45.827 37.6643 45.827Z" fill="#080809"/>
<path d="M33.3034 46.2247C33.6265 47.0995 33.3842 46.0657 33.5457 46.2247C33.5457 46.3838 33.7072 46.8609 33.788 47.1791C33.5457 45.9861 34.0302 47.3381 34.111 47.02C34.2725 47.4176 34.1917 47.4972 34.2725 47.8948C34.2725 47.5767 34.434 47.3381 34.1917 46.7019C34.3533 46.6224 34.5955 46.7814 34.6763 46.6224C34.6763 46.9405 34.9185 47.2586 34.9993 47.8153C34.8378 47.02 34.8378 46.0657 34.5955 45.1113C34.9185 45.7476 34.9993 45.8271 35.2416 46.4633C35.6453 46.7814 34.9993 45.8271 35.3223 45.9066L35.1608 45.8271C35.1608 45.5885 34.8378 44.9523 34.6763 44.4751L34.5148 44.6342C34.2725 44.157 34.434 44.157 34.434 44.0775C34.1917 43.5208 34.111 43.7594 33.9495 43.2822C34.111 43.6799 33.9495 43.6003 34.0302 43.7594L33.9495 43.5208C33.788 43.2822 33.9495 43.9184 33.8687 43.998C33.8687 43.9184 33.788 43.8389 33.788 43.8389C33.8687 44.157 34.0302 44.4751 33.9495 44.6342V44.5547C34.111 45.1909 34.0302 45.668 34.434 46.2247L34.111 46.1452C33.8687 45.509 33.5457 44.4751 33.6265 44.3161L33.5457 43.998C33.3034 43.6799 33.465 44.6342 33.788 45.1113C34.2725 46.7814 33.4649 45.2704 33.5457 46.0657C33.3842 45.5885 33.465 45.4295 33.3842 45.1113C33.3842 45.0318 33.4649 45.0318 33.5457 45.3499C33.6265 45.0318 32.9804 43.998 33.3034 44.0775C33.4649 44.2365 33.4649 44.7932 33.6265 44.7932L33.3034 43.5208C33.2227 43.6003 33.2227 43.8389 33.2227 43.998C33.0612 44.9523 32.4959 44.3161 32.4959 44.3161C31.9306 44.6342 31.2038 44.8728 30.6385 45.0318C30.3963 45.1909 30.3963 45.1909 30.2347 46.4633C30.3155 46.7019 30.3962 46.6224 30.3962 47.02C30.3962 46.5428 30.477 46.3043 30.6385 46.3043C30.6385 46.7814 30.5578 46.5428 30.5578 46.6224C30.5578 46.8609 30.5578 47.02 30.477 47.02C30.6385 47.7357 30.9615 47.5767 31.0423 46.6224C31.2038 47.0995 31.0423 47.3381 30.9615 47.7357C31.4461 48.0538 31.7691 47.9743 32.2536 47.8948C32.0921 47.0995 32.2536 47.3381 32.1729 46.7814L32.2536 47.0995C32.1729 46.9405 32.1729 46.3838 32.0114 46.2247C32.3344 46.7814 32.0921 45.1113 32.1729 44.7137L32.2536 45.1113C32.3344 45.0318 32.4151 45.0318 32.4151 44.7137C32.8189 45.4295 32.2536 44.8728 32.5766 45.9066V45.7476C32.6574 46.1452 32.7382 46.8609 32.7382 47.1791C32.8189 46.4633 33.1419 47.3381 33.2227 46.7814C33.3034 47.2586 33.2227 47.6562 33.1419 47.7357C33.2227 47.7357 33.3034 47.4176 33.3842 47.8153L33.2227 47.2586C33.3842 47.179 33.3842 47.8153 33.4649 48.1334C33.9495 48.2924 33.1419 46.6224 33.3034 46.2247Z" fill="#080809"/>
<path d="M36.4531 45.1907C36.3723 45.1907 36.3723 45.1907 36.3723 45.2702C36.4531 45.2702 36.4531 45.2702 36.4531 45.1907Z" fill="#080809"/>
<path d="M36.4531 46.5425C36.4531 46.622 36.5339 46.7015 36.5339 46.7015C36.5339 46.622 36.4531 46.622 36.4531 46.5425Z" fill="#080809"/>
<path d="M36.7758 47.2583C36.6143 47.0198 36.6951 47.0198 36.5336 46.7017C36.6143 46.8607 36.4528 46.9402 36.7758 47.2583Z" fill="#080809"/>
<path d="M40.3292 40.26C39.5216 39.8624 40.5715 40.7372 40.2484 40.6576C40.2484 40.5781 40.1677 40.5781 40.0869 40.4986V40.6576L39.9254 40.5781C40.3292 40.8962 40.4099 41.0553 40.733 41.3734C41.2175 41.612 40.2484 40.9757 40.8137 41.2143C40.9752 41.3734 41.2983 41.612 41.379 41.6915C41.2175 41.4529 40.9752 41.2938 40.733 41.0553C40.733 40.9757 40.9752 41.1348 41.1367 41.2938C40.9752 41.0553 40.3292 40.5781 40.5715 40.5781C40.9752 40.7372 41.1367 41.0553 41.056 40.8167C40.3292 40.4191 41.2175 40.7372 40.8137 40.4191C40.9752 40.4191 41.4598 40.6576 41.702 40.8167C41.1367 40.4986 40.733 40.1009 40.6522 39.9419L40.9752 40.4191L40.3292 40.0214C40.6522 40.1805 40.4907 40.26 40.3292 40.26Z" fill="#080809"/>
<path d="M41.3788 41.6121L41.4595 41.6916C41.4595 41.7711 41.4595 41.6916 41.3788 41.6121Z" fill="#080809"/>
<path d="M41.7828 42.0094L41.6213 41.8503L41.8636 42.0889L41.7828 42.0094Z" fill="#080809"/>
<path d="M41.2984 41.8506L40.8947 41.6121L41.1369 41.8506H41.2984Z" fill="#080809"/>
<path d="M39.1987 43.5204C39.441 43.6794 39.0372 43.2818 38.7949 43.0432C38.6334 43.0432 39.118 43.3613 39.1987 43.5204Z" fill="#080809"/>
<path d="M38.3105 45.1906C38.6335 45.4292 38.3913 44.952 38.472 44.8725C38.2297 44.7134 38.2298 44.8725 38.3105 45.1906Z" fill="#080809"/>
<path d="M38.714 47.0197C38.6333 46.8607 38.6333 46.7811 38.5525 46.7811L38.068 45.9859C37.8257 45.7473 38.4717 46.7016 38.714 47.0197Z" fill="#080809"/>
<path d="M37.9873 47.5764L37.9066 47.1788H37.8258C37.6643 46.8607 37.5836 46.7017 37.5028 46.3835C37.5028 46.7017 37.6643 47.0993 37.9873 47.5764Z" fill="#080809"/>
<path d="M37.5028 46.304C37.6643 46.5425 37.5836 46.463 37.5028 46.304Z" fill="#080809"/>
<path d="M37.5028 46.3833C37.5028 46.3038 37.4221 46.2243 37.5028 46.3833Z" fill="#080809"/>
<path d="M37.6643 47.2585L37.5028 47.4971L37.6643 47.5767C37.4221 47.0995 37.9066 47.8152 37.6643 47.2585Z" fill="#080809"/>
<path d="M36.2108 47.4969L35.9685 47.0197C35.807 46.9402 36.13 48.1331 35.6455 47.3378C35.8878 47.5764 35.807 47.974 36.0493 47.974C35.8878 47.5764 36.0493 47.4173 36.2108 47.4969Z" fill="#080809"/>
<path d="M35.3223 47.0197C35.2416 46.8607 35.1608 46.7811 35.0801 46.6221C34.9993 46.6221 35.0801 46.8607 35.1608 47.0197C34.9993 46.3835 35.4839 47.4969 35.3223 47.0197Z" fill="#080809"/>
<path d="M34.7572 47.3379C34.7572 47.3379 34.838 47.2584 34.7572 47.0994C34.6765 47.1789 34.9187 47.7356 34.9995 48.1332C35.161 48.3718 34.9187 47.5765 34.7572 47.3379Z" fill="#080809"/>
<path d="M32.5767 43.8386C32.7382 44.3158 32.8189 44.2363 32.7382 44.0772C32.7382 44.1567 32.6574 43.9977 32.5767 43.8386Z" fill="#080809"/>
<path d="M33.6265 47.5762L33.7073 47.6557L33.5458 46.9399L33.6265 47.5762Z" fill="#080809"/>
<path d="M32.9803 48.1331V48.6102L33.0611 48.5307L32.9803 48.1331Z" fill="#080809"/>
<path d="M32.819 48.0537L32.6575 48.1332L32.7382 48.2923C32.819 48.3718 32.7382 48.0537 32.819 48.0537Z" fill="#080809"/>
<path d="M32.4153 48.2127C32.4153 48.1332 32.4153 48.2127 32.496 48.2922L32.5768 47.9741L32.4153 48.2127Z" fill="#080809"/>
</g>
</g>
<path d="M65.0405 105.233C65.0405 105.233 66.6556 106.187 65.6866 101.972C65.6866 101.972 68.5937 101.734 67.5439 93.7017C67.5439 93.7017 71.9855 91.7135 70.8549 84.5561C70.2089 80.5798 69.5628 81.2955 69.5628 81.2955" stroke="#1B1C1E" stroke-width="1.2604" stroke-miterlimit="10" stroke-linecap="round" stroke-linejoin="round"/>
<path d="M42.1869 139.986C42.1869 139.986 41.4601 135.612 43.9636 131.159" stroke="#1B1C1E" stroke-width="1.2604" stroke-miterlimit="10" stroke-linecap="round" stroke-linejoin="round"/>
<path d="M48.728 139.987C48.728 139.987 48.5665 135.533 50.6661 131.716" stroke="#1B1C1E" stroke-width="1.2604" stroke-miterlimit="10" stroke-linecap="round" stroke-linejoin="round"/>
<path d="M33.0614 139.986C33.0614 139.986 31.5271 135.771 33.5459 131.159" stroke="#1B1C1E" stroke-width="1.2604" stroke-miterlimit="10" stroke-linecap="round" stroke-linejoin="round"/>
<path d="M128.999 93.9402C128.999 93.9402 125.526 91.793 125.607 84.238C125.688 76.6829 125.203 76.3648 124.799 76.1262" stroke="#1B1C1E" stroke-width="1.2604" stroke-miterlimit="10" stroke-linecap="round" stroke-linejoin="round"/>
<path d="M135.459 139.986C135.459 139.986 134.409 133.624 137.558 130.284" stroke="#1B1C1E" stroke-width="1.2604" stroke-miterlimit="10" stroke-linecap="round" stroke-linejoin="round"/>
<path d="M140.789 139.986C140.789 139.986 141.596 134.181 144.1 131.079" stroke="#1B1C1E" stroke-width="1.2604" stroke-miterlimit="10" stroke-linecap="round" stroke-linejoin="round"/>
<path d="M155.486 139.907C155.486 139.907 154.84 135.135 157.182 131.159" stroke="#1B1C1E" stroke-width="1.2604" stroke-miterlimit="10" stroke-linecap="round" stroke-linejoin="round"/>
<path d="M160.978 139.907C160.978 139.907 162.189 134.26 164.289 131.795" stroke="#1B1C1E" stroke-width="1.2604" stroke-miterlimit="10" stroke-linecap="round" stroke-linejoin="round"/>
<path d="M146.038 49.4054C146.038 49.4054 150.156 45.9062 149.914 44.9519C149.914 44.9519 155.163 47.5763 155.163 48.4511C155.163 49.3259 151.691 55.2109 151.691 55.2109C151.691 55.2109 146.442 53.5408 146.038 49.4054Z" fill="#FFF0DD"/>
<path d="M140.466 35.4087C140.466 35.4087 136.993 38.9079 139.012 41.5323C140.95 44.1567 145.634 43.9976 146.038 45.5882C146.442 47.1787 145.876 49.9621 149.026 50.9165C152.175 51.8708 153.79 49.2464 154.517 50.1212C155.325 50.996 155.971 52.8251 158.474 52.8251C160.978 52.8251 162.027 50.6779 162.027 50.6779C162.027 50.6779 163.319 52.1094 165.742 51.6322C168.165 51.155 168.407 47.8149 168.407 47.8149C168.407 47.8149 171.153 48.2921 173.414 46.9401C175.675 45.5882 175.19 42.089 173.414 41.2937C173.414 41.2937 176.967 37.4764 172.041 36.0449C172.041 36.0449 173.979 31.2733 171.153 28.0923C168.326 24.9112 164.773 26.8198 164.773 26.8198C164.773 26.8198 166.55 23.3206 163.077 21.9687C159.605 20.6167 155.971 24.9907 155.971 24.9907C155.971 24.9907 155.486 20.2986 151.448 21.1734C147.411 22.0482 147.411 26.7403 147.411 26.7403C147.411 26.7403 143.05 23.7183 141.273 29.9214C141.273 30.0804 137.478 31.5914 140.466 35.4087Z" fill="#FFF0DD"/>
<path d="M146.038 45.5879C146.442 47.258 145.876 49.9619 149.026 50.9162C152.175 51.8705 153.79 49.2461 154.517 50.1209C155.325 50.9957 155.971 52.8248 158.474 52.8248C160.978 52.8248 162.027 50.6776 162.027 50.6776" stroke="#1B1C1E" stroke-width="1.2604" stroke-miterlimit="10" stroke-linecap="round" stroke-linejoin="round"/>
<path d="M17.8794 15.4474C17.8794 15.4474 14.8107 16.4813 14.7299 12.823C14.6492 9.16481 20.7058 7.01758 20.7058 7.01758C20.7058 7.01758 21.9171 3.5184 26.4394 1.21212C30.9617 -1.09416 33.2228 0.496378 32.8998 2.80266C32.8998 2.80266 37.0183 -0.616999 39.9255 0.0987429C42.7519 0.814485 41.2176 3.43887 41.2176 3.43887C41.2176 3.43887 43.398 0.814481 45.7399 1.53022C48.0818 2.24596 46.7897 6.22231 46.7897 6.22231C46.7897 6.22231 50.1007 3.5184 53.0886 4.79083C56.0765 6.06326 53.9769 9.16481 53.9769 9.16481C53.9769 9.16481 58.0954 6.85852 58.4992 8.21048C58.9837 9.64197 57.4494 10.2782 57.4494 10.2782C57.4494 10.2782 65.1211 14.0955 63.9098 19.0261C63.9098 19.0261 66.0902 24.593 65.1211 24.9111C64.152 25.3088 65.8479 28.5694 67.7053 33.1819C69.5626 37.7945 70.3702 46.0653 69.4011 45.5881C68.6743 45.27 69.8049 48.7692 70.0472 52.1888C70.1279 53.3817 70.1279 54.6542 69.8049 55.6085C68.7551 59.2667 67.3822 63.6407 65.5249 61.8116C65.5249 61.8116 63.3445 66.3446 60.5988 66.5832C57.8531 66.7423 57.7724 64.9131 57.7724 64.9131C57.7724 64.9131 54.0577 65.0722 53.8961 63.8793C53.8154 62.6069 51.4735 64.7541 50.2622 63.1636C49.0508 61.573 46.7897 64.595 46.5474 58.8691C46.5474 58.8691 43.3172 65.7879 42.8327 52.5865C42.8327 52.5865 40.1678 52.5865 41.4599 45.9062C42.7519 39.226 44.2863 26.4221 44.2863 26.4221C44.2863 26.4221 39.764 28.5694 39.3602 22.4458C39.3602 22.4458 36.3723 26.8993 33.5459 25.3883C30.7194 23.7977 29.9119 21.3324 29.9119 21.3324C29.9119 21.3324 27.9738 24.5135 25.8741 23.6387C23.7745 22.7639 23.3707 20.219 22.7247 21.4119C22.1594 22.5253 20.6251 23.0025 19.4137 22.2072C18.2832 21.2529 17.3948 19.2647 17.8794 15.4474Z" fill="#FFF0DD"/>
<path d="M44.3672 26.3426C44.3672 26.3426 46.3861 25.7859 46.4668 22.6843" stroke="#1B1C1E" stroke-width="1.2604" stroke-miterlimit="10" stroke-linecap="round" stroke-linejoin="round"/>
<path d="M31.6885 66.5035C31.6885 66.5035 31.7692 68.7303 34.1111 68.8098C36.453 68.8893 38.0681 66.5035 38.0681 66.5035C38.0681 66.5035 38.7949 68.2531 40.8138 68.2531C42.8327 68.2531 43.398 64.8335 44.2055 65.9468C45.0131 66.9807 47.0319 68.1736 48.4048 63.8792" stroke="#1B1C1E" stroke-width="1.2604" stroke-miterlimit="10" stroke-linecap="round" stroke-linejoin="round"/>
<path d="M0.0326505 30.5576C0.0326505 29.8418 0.597929 29.2056 1.32472 29.1261C2.77832 28.808 5.28172 28.4104 6.57381 28.5694C8.59268 28.808 7.94665 35.6473 3.66663 36.7607C0.194161 37.715 -0.12886 33.0229 0.0326505 30.5576Z" fill="#1B1C1E"/>
<path d="M23.29 46.5421C23.29 46.5421 29.3467 45.1901 31.1233 38.3508" stroke="#1B1C1E" stroke-width="1.2604" stroke-miterlimit="10" stroke-linecap="round" stroke-linejoin="round"/>
<path d="M29.3467 38.3509C29.3467 38.3509 31.2848 37.8737 33.3844 38.9076" stroke="#1B1C1E" stroke-width="1.2604" stroke-miterlimit="10" stroke-linecap="round" stroke-linejoin="round"/>
<path d="M70.1282 52.109C70.209 53.3019 70.209 54.5743 69.8859 55.5286C68.8361 59.1869 67.4633 63.5608 65.6059 61.7317C65.6059 61.7317 63.4255 66.2647 60.6798 66.5033C57.9342 66.6624 57.8534 64.8333 57.8534 64.8333C57.8534 64.8333 54.1387 64.9923 53.9772 63.7994C53.8964 62.527 51.5545 64.6742 50.3432 63.0837C49.1319 61.4931 46.8707 64.5152 46.6285 58.7892C46.6285 58.7892 43.3983 65.7081 42.9137 52.5066C42.9137 52.5066 40.2488 52.5066 41.5409 45.8263C42.833 39.1461 44.3673 26.3423 44.3673 26.3423C44.3673 26.3423 39.845 28.4895 39.4413 22.3659C39.4413 22.3659 36.4533 26.8194 33.6269 25.3084C30.8005 23.7179 29.9929 21.2525 29.9929 21.2525C29.9929 21.2525 28.0548 24.4336 25.9552 23.5588C23.8555 22.684 23.4518 20.1392 22.8057 21.3321C22.2404 22.4454 20.7061 22.9226 19.4948 22.1273" stroke="#1B1C1E" stroke-width="1.2604" stroke-miterlimit="10" stroke-linecap="round" stroke-linejoin="round"/>
<path d="M121.569 97.1215C123.507 95.8491 122.942 95.1333 122.942 95.1333C122.942 95.1333 126.737 95.4514 128.999 93.9404C128.999 93.9404 131.744 101.814 134.328 103.961C136.913 106.108 137.478 104.597 137.478 104.597C137.478 104.597 138.528 108.653 139.335 109.21C140.143 109.687 140.627 108.971 140.627 108.971C140.627 108.971 143.696 117.003 146.119 118.196C148.541 119.469 149.187 118.912 149.187 118.912C149.187 118.912 149.995 122.332 151.852 124.002C151.852 124.002 151.691 124.876 152.256 125.354C152.821 125.831 147.411 134.658 150.802 139.907" stroke="#1B1C1E" stroke-width="1.2604" stroke-miterlimit="10" stroke-linecap="round" stroke-linejoin="round"/>
<mask id="mask2_37_3512" style="mask-type:luminance" maskUnits="userSpaceOnUse" x="64" y="88" width="53" height="20">
<path d="M116.724 97.9167C109.698 102.211 100.007 103.404 94.9199 105.392C89.6708 107.38 80.1417 107.142 80.1417 107.142C80.1417 107.142 80.5455 108.096 77.3152 107.858C74.1658 107.619 70.5318 106.267 70.5318 106.267C70.5318 106.267 71.4201 107.858 69.5628 107.539C67.7861 107.221 65.2827 105.472 64.9597 105.233C65.202 105.313 66.4133 105.869 65.6058 101.893C65.6058 101.893 68.5129 101.654 67.4631 93.6222C67.4631 93.6222 70.2896 92.3498 70.8548 88.2939C73.6005 89.5664 83.8564 93.8608 93.0625 92.9065C102.188 92.0317 114.866 93.3041 116.724 97.9167Z" fill="white"/>
</mask>
<g mask="url(#mask2_37_3512)">
<g opacity="0.7">
<path d="M65.7675 104.438C65.6867 104.518 65.606 104.518 65.606 104.518L65.7675 104.438Z" fill="#2C2C2D"/>
<path d="M65.6063 104.518L65.041 104.756C65.2025 104.597 65.4448 104.518 65.6063 104.518Z" fill="#2C2C2D"/>
<path d="M67.8674 99.0306C68.0289 98.9511 68.2712 98.9511 68.675 98.8716L67.8674 99.0306Z" fill="#2C2C2D"/>
<path d="M71.5818 93.7815H72.2278C71.9048 93.861 71.7433 93.7815 71.5818 93.7815Z" fill="#2C2C2D"/>
<path d="M66.4944 106.585C66.4944 106.665 66.4944 106.745 66.4136 106.824C66.1713 106.824 66.2521 106.745 66.4944 106.585Z" fill="#2C2C2D"/>
<path d="M63.2639 96.5652C65.202 96.6448 63.3446 96.4062 65.202 96.4857C64.7982 96.5653 64.4752 96.6448 65.525 96.6448C66.5748 96.6448 65.4443 96.4857 67.0594 96.4857L66.4133 96.5652C67.2209 96.6448 68.513 96.5653 68.3515 96.6448C66.0903 96.6448 69.2398 97.0424 68.836 97.1219H69.0783L70.1281 97.281C70.2088 97.281 70.2088 97.281 70.2088 97.281C70.0473 97.281 69.9666 97.281 69.8051 97.281C70.9356 97.3605 71.6624 97.5196 71.4202 97.5991C70.1281 97.5991 71.0164 97.9967 69.8858 98.0763C70.2088 97.9967 70.2088 97.9967 69.8858 97.9172H68.3515C68.3515 98.0763 69.7243 97.9172 68.836 98.0763C66.7364 98.0763 68.836 97.9172 68.5937 97.8377C68.1092 97.8377 67.7054 97.9172 67.4632 97.9967C67.3824 97.8377 66.6556 97.5991 68.7552 97.5196C68.2707 97.44 67.4632 97.44 67.2209 97.5196C68.4322 97.44 66.0096 97.3605 67.1401 97.281C65.202 97.281 66.1711 97.5196 65.0405 97.6786C66.5749 97.8377 65.1213 98.0763 64.7982 98.3148C66.2518 98.3148 67.3824 98.1558 68.2707 98.2353C69.2398 98.3944 67.5439 98.3944 66.7364 98.5534C67.2209 98.7125 69.0783 98.5534 69.159 98.792L70.0473 98.6329C72.0662 98.7125 69.2398 98.7125 69.6435 98.8715C69.159 98.8715 68.5937 98.8715 68.6745 98.792C67.9477 98.792 67.6247 98.8715 67.5439 98.9511H67.4632C66.4941 99.0306 65.4443 99.0306 65.9288 99.1896C67.1401 99.1101 66.8171 99.2692 67.3824 99.2692L67.6247 99.1896C67.2209 99.2692 67.3824 99.4282 67.2209 99.4282H67.5439C67.0594 99.5077 65.6058 99.5873 65.9288 99.6668C66.4941 99.6668 68.1092 99.4282 67.8669 99.5873C68.7552 99.5077 68.836 99.4282 68.513 99.3487C68.836 99.4282 70.2896 99.4282 70.3703 99.3487C71.5009 99.3487 69.8858 99.5077 70.4511 99.5077C70.1281 99.5077 69.7243 99.5077 69.4013 99.5873C70.9356 99.5077 69.5628 99.8258 68.513 99.9054L69.3205 99.7463C68.1092 99.8258 67.3016 99.9849 66.5749 99.9849C68.513 99.9849 65.6058 100.383 67.3017 100.383H66.3326C66.9786 100.621 64.7175 101.019 64.3137 101.416C64.879 101.257 66.9786 101.019 66.2518 100.939C66.6556 101.178 68.3515 100.86 69.4013 100.78C70.2088 100.86 67.4632 101.098 66.8171 101.178L67.2209 101.019C64.7982 101.416 67.7862 101.496 66.3326 101.973C66.9786 101.894 66.6556 101.894 66.8979 101.814C68.19 101.734 66.6556 101.973 66.1711 102.132C66.4133 102.212 66.9786 102.291 68.4322 101.973C68.836 102.053 67.5439 102.132 67.0594 102.291H67.3824L65.6866 102.768C66.1711 102.848 67.0594 102.848 68.513 102.53C68.2707 102.848 65.1213 103.325 64.6367 103.723C65.4443 103.643 65.7673 103.405 66.3326 103.246L66.2518 103.484C67.8669 103.007 67.0594 103.086 68.9975 102.609C67.0594 103.246 68.513 102.927 67.3017 103.484H67.1401C65.8481 103.961 66.8171 103.961 66.6556 104.12C67.3824 103.802 67.4632 103.643 67.7054 103.484C68.3515 103.405 67.8669 103.882 66.2518 104.677C66.5749 104.677 67.3016 104.597 67.9477 104.2C68.3515 104.359 65.6865 105.313 66.2518 105.393L67.4632 104.836C68.4322 104.518 68.0284 104.836 67.7054 105.154C67.3824 105.472 67.0594 105.87 67.8669 105.552L66.4941 106.427C67.1401 106.108 67.4632 106.108 68.0284 105.711L68.4322 105.313C69.6435 104.677 67.3824 106.108 68.2707 105.711C67.8669 106.029 66.8171 106.506 66.4133 106.745C66.5749 106.188 66.0903 106.108 65.6866 105.87C65.2828 105.631 64.9598 105.313 65.6058 104.677C65.7673 104.597 66.0096 104.597 66.3326 104.438C65.9288 104.518 66.3326 104.2 65.4443 104.518L65.3635 104.597C65.6865 104.279 63.6677 104.757 63.6677 104.597C64.7175 104.2 63.1024 104.359 64.9597 103.882L63.7484 104.041C64.3945 103.802 65.3635 103.643 65.6866 103.484C65.525 103.405 64.7982 103.564 64.3137 103.802C63.4254 103.484 63.5869 102.848 64.0714 102.291L63.1831 102.53C62.6986 102.45 64.7175 101.894 62.4563 102.291C63.3447 101.973 61.7296 101.734 64.0714 101.416C61.7296 101.496 63.0216 100.939 63.3446 100.621C65.3635 100.542 63.9099 100.303 64.7982 100.223C63.1831 100.303 63.1831 100.542 62.1333 100.621C63.3446 100.383 62.8601 100.223 62.6179 99.9849C62.3756 99.8259 62.2948 99.6668 64.3137 99.5077C64.1522 99.5077 63.9907 99.5077 63.8292 99.5077C63.8292 99.4282 63.1024 99.4282 62.9409 99.3487C63.6677 99.2692 63.9907 99.4282 64.233 99.2692C64.0714 99.1896 62.9409 99.2692 62.4563 99.1896C63.3447 98.9511 63.7484 98.6329 65.3635 98.6329C64.9597 98.5534 63.9907 98.5534 63.6677 98.6329C64.9598 98.3148 63.4254 98.3148 64.233 97.9967C64.1522 98.0763 62.5371 98.0763 63.1831 98.2353C60.8412 98.0763 63.5869 97.7581 62.3756 97.5196L63.8292 97.44C64.0714 97.281 62.6986 97.281 62.1333 97.3605C61.245 97.0424 62.1333 96.9629 62.1333 96.7243C61.9718 96.7243 61.6488 96.7243 61.7295 96.7243V96.4062C62.1333 96.4062 62.8601 96.3267 63.7484 96.4062C63.2639 96.4062 62.6986 96.4062 63.2639 96.5652Z" fill="#2C2C2D"/>
<path d="M70.4515 98.8715C70.0477 98.8715 69.8862 98.8715 69.8054 98.792C70.0477 98.792 70.29 98.792 70.4515 98.8715Z" fill="#2C2C2D"/>
<path d="M66.8983 93.9408C69.1594 94.0999 66.4945 94.0999 67.1406 94.2589C67.4636 94.1794 68.7557 94.2589 69.4825 94.3385C66.5753 94.3385 70.0477 94.4975 69.4017 94.7361C70.3708 94.8156 70.5323 94.6566 71.5821 94.7361C70.8553 94.8156 70.4515 95.0542 68.8364 94.9747C68.8364 95.2132 69.4017 95.3723 69.0787 95.5314C69.7247 95.3723 70.6938 95.6109 72.0666 95.5314C70.2093 95.6109 67.8674 95.8495 65.6062 96.0085C67.3828 96.088 67.5443 96.1676 69.1594 96.1676C70.3708 96.4857 67.5443 96.1676 68.0289 96.4857L67.7058 96.3266C67.1406 96.4062 65.4447 96.4062 64.3141 96.4062L64.5564 96.0881C63.3451 96.0085 63.5066 96.2471 63.1836 96.3266C61.73 96.4062 62.1337 96.0881 61.0032 96.0881C61.9722 96.0881 61.6492 95.929 62.053 95.8495L61.4069 95.7699C60.7609 95.6109 62.376 95.5314 62.376 95.4518C62.2145 95.4518 62.053 95.4518 61.9722 95.4518C62.699 95.4518 63.5873 95.4518 63.9103 95.3723L63.8296 95.4518C65.3639 95.3723 66.4138 95.2133 68.1096 95.4518L67.6251 95.1337C65.9292 95.0542 63.2643 94.9747 63.1028 95.2133H62.376C61.4069 95.0542 63.7488 94.8951 65.2024 95.0542C69.3209 95.1337 65.3639 94.577 67.1406 94.418C66.01 94.3385 65.5255 94.418 64.7987 94.418C64.6372 94.4975 64.6372 94.4975 65.6062 94.577C64.9602 94.8156 62.053 94.3385 62.4568 94.6566C63.0221 94.8951 64.2334 94.577 64.3949 94.8156H61.2454C61.3262 94.6566 61.8915 94.577 62.2145 94.418C64.3141 93.8613 62.6183 93.2251 62.6183 93.2251L63.8296 90.2826C64.3141 89.9645 64.1526 89.8849 67.2213 89.9645C67.8674 90.044 67.5443 90.2031 68.5941 90.2031C67.4636 90.2031 66.8175 90.2826 66.8983 90.4416C68.0289 90.5212 67.4636 90.3621 67.7058 90.3621H67.7866C68.3519 90.3621 68.7557 90.3621 68.7557 90.3621C70.4515 90.6802 70.0477 90.9983 67.9481 90.9983C69.0787 91.2369 69.7247 90.9983 70.613 90.9983C71.4206 91.555 71.2591 91.9527 71.3398 92.4298C69.321 92.3503 70.0477 92.4298 68.7557 92.3503L69.4825 92.4298C69.1594 92.3503 67.7866 92.3503 67.3828 92.2708C68.9172 92.6684 64.7179 92.4298 63.8296 92.5889L64.8794 92.6684C64.7179 92.8274 64.6372 92.907 64.0719 92.9865C66.01 93.3841 64.3949 92.7479 66.8983 92.9865L66.4945 93.066C67.4636 93.066 69.1594 93.1456 69.8862 93.066C68.1904 93.2251 70.5323 93.4637 69.2402 93.7022C70.3708 93.7022 71.2591 93.5432 71.4206 93.4637C71.5013 93.5432 70.6938 93.7022 71.7436 93.7818L70.29 93.7022C70.1285 93.8613 71.6628 93.7818 72.5512 93.8613C72.1474 94.2589 67.7058 93.7022 66.8983 93.9408Z" fill="#2C2C2D"/>
<path d="M67.5441 98.0761C67.3826 97.9965 67.4633 97.9965 67.6248 97.917C67.6248 97.9965 67.6248 98.0761 67.5441 98.0761Z" fill="#2C2C2D"/>
<path d="M72.3086 97.3602C71.6625 97.3602 71.6625 97.3602 70.855 97.3602C71.2588 97.3602 71.2588 97.2012 72.3086 97.3602Z" fill="#2C2C2D"/>
<path d="M73.924 104.438C73.8433 104.677 73.6818 105.313 73.601 105.87V105.949L73.924 104.438L73.8433 104.518C73.8433 104.597 73.7625 104.597 73.7625 104.677C73.7625 104.756 73.7625 104.836 73.6818 104.915L73.7625 104.836L73.5203 105.949V105.87L73.601 105.711L73.7625 104.915L73.8433 104.597V104.518L73.924 104.438Z" fill="#2C2C2D"/>
<path d="M73.5201 105.234C73.4393 105.393 73.3586 105.552 73.2778 105.711C73.4393 105.074 73.6816 104.518 73.9239 103.882C73.9239 103.961 73.4393 105.154 73.5201 105.234Z" fill="#2C2C2D"/>
<path d="M72.8742 106.188L72.7126 106.665C72.7934 106.426 72.8742 106.267 72.8742 106.188Z" fill="#2C2C2D"/>
<path d="M73.197 105.393L73.6815 104.12C73.6008 104.438 73.4393 104.756 73.3585 105.074L73.197 105.313C73.0355 105.79 72.874 105.949 72.7932 106.108L73.1162 105.154C73.197 105.313 73.1162 105.552 73.197 105.393Z" fill="#2C2C2D"/>
<path d="M73.1165 105.313C73.1972 105.154 73.1972 105.074 73.278 104.915C73.278 105.074 73.1972 105.154 73.1165 105.313Z" fill="#2C2C2D"/>
<path d="M71.7434 107.54C71.9857 107.063 72.3087 106.347 72.551 105.87C72.874 105.393 71.9857 107.301 72.3894 106.744C72.7125 105.631 72.7932 106.029 73.197 105.313C72.6317 106.506 72.2279 107.301 71.9049 107.54L72.3087 106.744C72.1472 106.665 71.9857 107.222 71.7434 107.54Z" fill="#2C2C2D"/>
<path d="M72.1474 105.313C71.9052 105.711 71.7437 106.109 71.5014 106.427C71.8244 105.87 71.9859 105.95 72.7127 104.836C72.632 104.995 72.3897 105.552 72.2282 105.87C72.632 105.313 72.8742 104.836 72.4705 105.711C71.8244 106.427 71.7437 106.665 71.2591 106.904C71.0976 107.142 71.1784 107.142 71.2591 107.063C71.0976 107.222 70.9361 107.381 70.6938 107.62C71.5822 106.268 71.5014 106.109 72.1474 105.313Z" fill="#2C2C2D"/>
<path d="M71.4206 106.029C71.4206 106.188 70.8553 107.222 70.29 107.858C70.3708 107.54 70.5323 107.142 70.6131 106.824C70.7746 106.904 70.7746 107.142 71.4206 106.029Z" fill="#2C2C2D"/>
<path d="M71.3398 105.949C70.936 106.506 69.8862 107.619 70.6938 106.506C70.613 106.745 71.7436 105.074 71.3398 105.949Z" fill="#2C2C2D"/>
<path d="M69.8051 106.347C70.0473 106.188 70.3703 106.029 70.6126 105.87C71.8239 104.597 70.9356 105.392 71.4202 104.756C71.7432 104.597 71.3394 104.995 70.7741 105.87C70.8549 105.79 70.3704 106.585 70.1281 106.983C70.4511 106.347 69.8858 106.824 69.5628 107.142C69.0783 107.46 68.7552 107.54 69.8051 106.347Z" fill="#2C2C2D"/>
<path d="M71.3395 105.313L70.855 105.87L71.178 105.393L71.3395 105.313Z" fill="#2C2C2D"/>
<path d="M67.8673 107.063C66.979 107.619 67.1405 107.381 67.4635 106.983C67.7058 106.586 68.1096 106.188 67.7058 106.347C67.6251 106.427 67.4635 106.506 67.302 106.745L67.3828 106.427L66.979 106.665C67.9481 105.949 68.2711 105.552 68.9979 104.916C70.1285 104.279 67.7866 105.87 68.9979 105.154C69.4017 104.836 70.1285 104.279 70.4515 104.041C69.9669 104.438 69.4017 104.916 68.8364 105.313C68.7556 105.472 69.3209 104.995 69.7247 104.757C69.2402 105.234 67.7866 106.347 68.2711 106.268C69.1594 105.711 69.5632 105.154 69.3209 105.552C67.7866 106.745 69.7247 105.472 68.8364 106.347C69.2401 106.188 70.1285 105.472 70.613 104.916C69.4824 105.949 68.6749 106.983 68.5134 107.381C68.7556 106.983 68.9979 106.665 69.2401 106.268L67.8673 107.46C68.3518 106.745 68.1903 106.745 67.8673 106.824V107.063Z" fill="#2C2C2D"/>
<path d="M70.5322 104.2C70.613 104.12 70.6937 104.041 70.7745 103.961C70.8552 103.961 70.6937 104.041 70.5322 104.2Z" fill="#2C2C2D"/>
<path d="M71.0977 104.836L71.3399 104.518L71.7437 104.2L71.0977 104.836Z" fill="#2C2C2D"/>
<path d="M71.5822 103.405C71.6629 103.405 71.1784 103.723 71.0977 103.723L71.7437 103.246L71.5822 103.405Z" fill="#2C2C2D"/>
<path d="M70.5321 103.961L69.6438 104.438L70.2898 103.961H70.5321Z" fill="#2C2C2D"/>
<path d="M68.6748 101.814C69.3208 101.814 68.1095 101.973 67.2212 102.212C66.9789 102.053 68.271 101.973 68.6748 101.814Z" fill="#2C2C2D"/>
<path d="M70.0477 99.8257C70.8553 99.9052 69.644 100.064 69.7247 100.144C69.0787 100.144 69.4017 99.9847 70.0477 99.8257Z" fill="#2C2C2D"/>
<path d="M74.1659 98.9507C73.7622 98.9507 73.6006 99.0302 73.4391 98.9507L71.2587 99.1097C70.4512 99.0302 73.1969 98.9507 74.1659 98.9507Z" fill="#2C2C2D"/>
<path d="M74.489 98.1555L73.6814 98.3146L73.6007 98.235C72.7124 98.235 72.3086 98.3146 71.5818 98.3146C71.9856 98.235 72.8739 98.1555 74.489 98.1555Z" fill="#2C2C2D"/>
<path d="M71.178 98.4738C71.178 98.4738 71.2587 98.4738 71.3395 98.3943C71.5818 98.3943 71.9048 98.4738 71.178 98.4738Z" fill="#2C2C2D"/>
<path d="M73.3586 98.076L73.6009 97.8374L74.0047 97.9169C72.7126 97.9169 74.8122 97.9965 73.3586 98.076Z" fill="#2C2C2D"/>
<path d="M72.2281 96.7239L70.936 96.6444C70.613 96.4853 73.5202 96.4058 71.4205 96.1672C72.2281 96.2468 72.8741 96.0877 73.2779 96.3263C72.0666 96.4058 71.9051 96.6444 72.2281 96.7239Z" fill="#2C2C2D"/>
<path d="M70.2897 96.088C69.8859 96.088 69.6437 96.0085 69.2399 96.0085C69.0784 95.929 69.7244 95.929 70.209 95.929C68.5939 95.929 71.4203 96.088 70.2897 96.088Z" fill="#2C2C2D"/>
<path d="M70.4511 95.2929C70.4511 95.3724 70.2896 95.3724 69.9666 95.2929C70.0473 95.1339 71.5817 95.2929 72.47 95.2134C73.1968 95.452 71.1779 95.452 70.4511 95.2929Z" fill="#2C2C2D"/>
<path d="M70.209 94.0999L70.4512 94.1794L68.7554 94.0999H70.209Z" fill="#2C2C2D"/>
<path d="M71.178 93.2251H72.3086L72.147 93.3841L71.178 93.2251Z" fill="#2C2C2D"/>
<path d="M70.9358 93.066L71.0165 92.907L71.4203 92.9865C71.8241 93.066 70.9358 92.9865 70.9358 93.066Z" fill="#2C2C2D"/>
<path d="M71.1784 92.5886C71.0976 92.5886 71.2591 92.5886 71.4206 92.6682L70.6938 92.7477L71.1784 92.5886Z" fill="#2C2C2D"/>
<path d="M64.2332 89.726C63.1026 89.726 63.8294 89.5669 63.5872 89.5669C63.8294 89.5669 65.3638 89.726 64.2332 89.726Z" fill="#2C2C2D"/>
</g>
</g>
</svg>
