<svg width="212" height="113" viewBox="0 0 212 113" fill="none" xmlns="http://www.w3.org/2000/svg">
<path d="M211.171 110.705C211.171 110.705 213.836 111.58 194.374 112.216C174.912 112.852 72.1912 113.17 61.693 112.216C51.1141 111.262 30.5215 111.819 57.8975 109.512C85.2735 107.206 113.215 106.808 140.752 107.206C170.147 107.604 207.537 109.751 211.171 110.705Z" fill="#1B1C1E"/>
<path d="M45.2191 26.0092C45.2191 26.0092 36.9821 23.5439 30.6832 14.6368C22.6884 3.2645 5.2453 6.68417 1.20754 10.0243C-5.41437 15.5117 16.551 40.8807 34.1556 50.4239C34.2364 50.3444 44.8153 35.791 45.2191 26.0092Z" fill="#7DA050"/>
<path d="M17.2778 17.0225C18.482 17.0225 19.4582 16.0611 19.4582 14.8753C19.4582 13.6894 18.482 12.728 17.2778 12.728C16.0736 12.728 15.0974 13.6894 15.0974 14.8753C15.0974 16.0611 16.0736 17.0225 17.2778 17.0225Z" fill="#1B1C1E"/>
<path d="M5.24524 24.0206C5.24524 24.0206 14.9358 25.5316 24.788 23.4639" stroke="#1B1C1E" stroke-miterlimit="10"/>
<mask id="mask0_37_6098" style="mask-type:luminance" maskUnits="userSpaceOnUse" x="0" y="6" width="46" height="45">
<path d="M45.2191 26.0092C45.2191 26.0092 36.9821 23.5439 30.6832 14.6368C22.6884 3.2645 5.2453 6.68417 1.20754 10.0243C-5.41437 15.5117 16.551 40.8807 34.1556 50.4239C34.2364 50.3444 44.8153 35.791 45.2191 26.0092Z" fill="white"/>
</mask>
<g mask="url(#mask0_37_6098)">
<g opacity="0.78">
<path d="M27.8572 46.9247C27.9379 46.9247 27.9379 46.8452 28.0187 46.7656C27.9379 46.7656 27.8572 46.8451 27.8572 46.9247Z" fill="#181716"/>
<path d="M22.0425 43.6636L21.881 43.8226C22.0425 43.7431 22.0425 43.7431 22.0425 43.6636Z" fill="#181716"/>
<path d="M28.9877 45.8905C29.0684 45.8905 29.1492 45.811 29.2299 45.7314L28.9877 45.8905Z" fill="#181716"/>
<path d="M33.7521 49.5488C33.7521 49.5488 33.8328 49.5488 33.8328 49.6283V49.5488H33.7521Z" fill="#181716"/>
<path d="M37.3861 47.9583L37.4669 47.7197C37.3861 47.7993 37.3861 47.8788 37.3861 47.9583Z" fill="#181716"/>
<path d="M32.9446 49.9466C33.0253 49.9466 33.0253 49.8671 33.1061 49.7876C33.0253 49.8671 32.9446 49.8671 32.9446 49.9466Z" fill="#181716"/>
<path d="M19.8623 42.3916C19.7815 42.3916 19.7008 42.3916 19.62 42.3916C19.7815 42.5507 19.7815 42.5507 19.8623 42.3916Z" fill="#181716"/>
<path d="M31.7334 48.6742C31.8949 48.038 31.9757 48.7538 32.2179 48.1176C32.0564 48.1971 31.8949 48.2766 31.9757 47.9585C32.2179 47.6404 32.2179 48.1176 32.4602 47.6404L32.2179 47.7995C32.2179 47.4813 32.5409 47.1632 32.3794 47.1632C31.9757 47.7995 31.9757 46.6861 31.8142 46.7656L31.8949 46.6861L31.8142 46.2884C31.8142 46.2884 31.8141 46.368 31.7334 46.4475C31.8141 46.0499 31.7334 45.7318 31.4911 45.7318C31.2489 46.0499 30.7643 45.5727 30.6028 45.8908C30.7643 45.8113 30.7643 45.8908 30.8451 45.9703L30.6028 46.4475C30.4413 46.368 30.7643 46.0499 30.4413 46.2089C30.1991 46.8451 30.6836 46.2884 30.8451 46.4475C30.7643 46.6065 30.6028 46.6861 30.5221 46.6861C30.7643 46.8451 30.9258 47.1632 31.4104 46.6066C31.4104 46.7656 31.2489 47.0042 31.1681 47.0837C31.4911 46.7656 31.1681 47.4813 31.4911 47.2428C31.1681 47.7994 30.9259 47.4018 30.6836 47.6404C30.6028 47.0837 30.1183 47.4018 29.7953 47.3223C29.9568 46.9247 30.3606 46.6065 30.3606 46.2884C30.199 45.8908 29.9568 46.368 29.7145 46.6066C29.553 46.368 30.0375 45.8908 29.7145 45.7318L30.0375 45.4932C30.1183 44.7774 29.7953 45.6522 29.7145 45.4932C29.7145 45.6522 29.6338 45.8113 29.7953 45.8908C29.7145 46.1294 29.553 46.1294 29.4723 46.1294C29.3107 46.368 29.1492 46.6861 28.9877 46.4475C29.3107 46.1294 28.9877 46.1294 28.9877 45.8908L29.0685 45.8113C28.907 45.8908 28.7455 45.7318 28.6647 45.8113L28.7455 45.7318C28.5839 45.8113 28.3417 46.2884 28.2609 46.0499C28.3417 45.8908 28.7455 45.4932 28.5839 45.4932C28.7455 45.2546 28.907 45.3341 29.0685 45.4932C28.9877 45.3341 29.0685 44.857 29.3107 44.9365C29.3915 44.5388 29.0685 45.016 29.0685 44.7774C29.0685 44.857 28.9877 45.016 28.907 45.0955C29.1492 44.6184 28.584 44.857 28.4224 45.1751L28.7455 45.016C28.5839 45.4136 28.2609 45.4932 28.2609 45.7318C28.4224 45.0955 27.6149 45.8113 27.7764 45.2546L27.6956 45.5727C27.3726 45.2546 26.7266 45.7318 26.3228 45.7318C26.5651 45.6522 26.8881 45.016 26.9688 45.3341C26.6458 45.016 27.1304 44.6979 27.2111 44.3003C27.0496 43.9026 26.8073 44.7774 26.5651 44.9365H26.8073C26.1613 45.5727 26.1613 44.4593 25.596 44.6979C25.6768 44.4593 25.7575 44.6184 25.8383 44.6184C25.8383 44.1412 25.596 44.6184 25.4345 44.6979C25.273 44.5388 25.1922 44.3003 25.5153 43.9026C25.3537 43.6641 25.4345 44.2207 25.1922 44.3003V44.1412L24.7077 44.5388C24.6269 44.3003 24.5462 43.9822 24.7077 43.505C24.3039 43.4255 24.0617 44.4593 23.6579 44.4593C23.6579 44.1412 23.9002 44.1412 23.9809 43.9822L23.7386 43.9026C24.0617 43.4255 24.1424 43.8231 24.4654 43.1869C23.9001 43.6641 24.0617 43.1869 23.5771 43.4255V43.505C23.2541 43.8231 23.0926 43.4255 22.8503 43.4255C23.0926 43.1869 23.2541 43.2664 23.4156 43.2664C23.3349 42.9483 22.7696 42.9483 22.285 43.3459C22.2043 43.1869 22.1235 42.8688 22.3658 42.7097C22.0428 42.3916 21.8005 43.346 21.5583 43.0278L21.8005 42.6302C21.8005 41.8349 20.8315 42.7097 20.8315 41.994L20.5084 42.4711C20.5892 42.2326 20.5084 42.0735 20.5892 41.8349L20.8315 41.7554C20.9122 41.2782 20.4277 41.994 20.4277 41.6759C20.3469 41.8349 20.2662 42.2326 20.1854 42.3916C21.0737 42.5507 21.3967 43.6641 22.3658 43.5845C22.3658 43.505 22.3658 43.4255 22.4466 43.3459C22.4466 43.505 22.6888 43.4255 22.5273 43.664H22.4466C22.6888 43.664 22.5273 44.3003 22.6888 44.3798C22.9311 44.0617 23.0118 44.6979 23.2541 44.1412L23.1734 44.5388C23.3349 44.3798 23.4156 44.0617 23.5771 43.9822C23.6579 44.0617 23.5771 44.3003 23.4156 44.3798C23.8194 44.857 24.4654 45.0955 25.0307 45.1751L24.7885 45.3341C24.8692 45.4932 25.5153 45.0955 25.0307 45.7318C25.4345 45.5727 25.6768 46.2884 25.9998 45.5727C25.8383 46.368 26.4843 46.2089 26.8881 46.2089C27.1304 45.5727 27.2919 46.2089 27.5341 45.8908C27.3726 46.368 26.9688 46.2089 26.8073 46.527C27.5341 45.9703 27.6149 47.5609 28.3417 46.368C28.3417 46.4475 28.3417 46.4475 28.3417 46.527C28.4224 46.527 28.4224 46.8451 28.4224 46.9247C28.584 46.7656 28.4224 46.527 28.6647 46.527C28.7455 46.6065 28.5839 46.9247 28.5032 47.1632C28.907 47.0042 29.3915 47.0837 29.6338 46.6066C29.6338 46.7656 29.6338 47.0837 29.4723 47.1632C30.0375 46.9247 29.876 47.4018 30.3606 47.3223C30.199 47.2428 30.0375 47.7994 29.9568 47.4813C29.7953 48.2766 30.6836 47.6404 30.8451 48.1176L31.1681 47.7199C31.4104 47.7199 31.2489 48.1971 31.0066 48.2766C31.2489 48.6742 31.5719 48.5152 31.8142 48.5947C31.8142 48.6743 31.7334 48.7538 31.7334 48.6742L32.1372 48.8333C32.2179 48.7538 32.4602 48.5947 32.5409 48.2766C32.0564 48.8333 31.8949 48.9924 31.7334 48.6742Z" fill="#181716"/>
<path d="M29.5527 45.1748C29.5527 45.3339 29.5527 45.3339 29.5527 45.4134C29.6335 45.3339 29.6335 45.2543 29.5527 45.1748Z" fill="#181716"/>
<path d="M36.1748 49.1514C36.4171 48.4357 35.9326 49.1514 35.7711 48.9128C35.9326 48.8333 36.0941 48.4357 36.1748 48.1971C35.6096 48.9924 36.0133 47.9585 35.5288 47.9585C35.6096 47.6404 35.8518 47.72 35.9326 47.4018C35.6096 47.5609 35.2865 47.5609 35.0443 48.038C34.7212 47.879 34.5597 47.6404 34.3175 47.6404C34.6405 47.5609 34.5597 47.1633 34.8828 46.7656C34.3982 47.2428 33.5907 47.7199 32.9446 48.3562C33.1061 47.7995 33.1061 47.7199 33.3484 47.2428C33.1061 46.6861 33.0254 47.72 32.7024 47.4018L32.8639 47.5609C32.6216 47.6404 32.3794 48.1971 32.2178 48.5152L32.7024 48.5947C32.5409 48.9924 32.2986 48.8333 32.1371 48.8333C31.8141 49.231 32.2178 49.231 32.0563 49.6286C32.2178 49.39 32.3793 49.5491 32.5409 49.4695L32.4601 49.7081C32.6216 50.0262 32.9446 49.5491 33.1062 49.6286C33.1062 49.7081 33.1062 49.7081 33.1062 49.7876C33.2677 49.5491 33.4292 49.3105 33.5907 49.3105H33.5099C33.8329 48.9128 34.3982 48.7538 34.3175 48.1176L34.7213 48.4357C34.479 48.9128 34.0752 49.7081 33.7522 49.7081L33.6714 49.9467C33.7522 50.3443 34.3982 49.7876 34.479 49.231C35.2058 48.038 35.2058 49.4695 35.7711 49.0719C35.6903 49.4695 35.448 49.4695 35.2058 49.7081C35.125 49.7081 35.0443 49.7081 35.125 49.39C34.6405 49.39 34.802 50.5034 34.3175 50.1853C34.156 49.9467 34.802 49.7081 34.479 49.5491L33.8329 50.4239C34.0752 50.5034 34.3175 50.4239 34.5597 50.3443C35.7711 50.1058 36.3364 50.901 36.3364 50.901C37.8707 51.2987 39.405 51.6963 40.9394 52.0939C41.4239 52.0939 41.5854 52.1735 42.07 51.2987C42.07 51.0601 41.7469 51.0601 41.9085 50.742C41.7469 51.0601 41.5047 51.2191 41.2624 51.1396C41.3432 50.742 41.5047 51.0601 41.5047 50.901C41.5854 50.742 41.6662 50.5829 41.7469 50.6624C41.6662 50.0262 41.1009 50.0262 40.6971 50.5829C40.6164 50.1853 41.0201 50.1057 41.2624 49.8672C40.6164 49.3105 40.0511 49.231 39.2435 48.9128C39.0013 49.5491 39.0013 49.3105 38.759 49.7081V49.4695C38.759 49.6286 38.5167 49.9467 38.5975 50.1853C38.3552 49.5491 37.7899 50.8215 37.3862 50.9806L37.5477 50.6624C37.3054 50.6624 37.2247 50.5829 36.9016 50.742C36.7401 50.0262 37.3054 50.742 37.4669 49.9467L37.3054 50.0262C37.4669 49.7081 37.7899 49.231 37.9515 49.0719C37.3862 49.4695 37.4669 48.6743 36.9016 48.9128C37.0631 48.5947 37.5477 48.4357 37.7092 48.4357C37.5477 48.3562 37.2247 48.5152 37.3054 48.1971L37.1439 48.6743C36.9016 48.6743 37.3054 48.2766 37.3862 47.9585C36.8209 47.4814 36.8209 49.0719 36.1748 49.1514Z" fill="#181716"/>
<path d="M30.2798 46.5269C30.3605 46.6064 30.4413 46.6064 30.4413 46.6064C30.4413 46.6064 30.3605 46.5269 30.2798 46.5269Z" fill="#181716"/>
<path d="M31.8141 46.2084C31.8141 46.1289 31.8948 46.1288 31.8948 46.0493C31.8948 46.0493 31.8141 46.1289 31.8141 46.2084Z" fill="#181716"/>
<path d="M32.2179 45.6519C32.1372 45.8904 32.0564 45.8109 31.8949 46.0495C32.0564 45.97 32.2179 46.0495 32.2179 45.6519Z" fill="#181716"/>
<path d="M15.1783 35.8701C15.0168 35.9496 14.8553 35.9496 14.7745 36.0292L15.0976 36.1087L15.1783 35.8701Z" fill="#181716"/>
<path d="M15.1785 36.5861V36.9042L15.7438 36.5066C15.5823 36.3475 15.34 36.7452 15.1785 36.5861Z" fill="#181716"/>
<path d="M15.4208 37.3018L15.2593 37.3813C15.34 37.3018 15.34 37.3018 15.4208 37.3018Z" fill="#181716"/>
<path d="M15.5823 37.0632L15.9861 36.7451L15.5016 36.8246V36.9837C15.4208 37.1428 15.4208 37.2223 15.3401 37.3018L15.6631 37.1428C15.6631 37.1428 15.5823 37.1428 15.5823 37.0632Z" fill="#181716"/>
<path d="M15.7439 37.2221C15.7439 37.1426 15.8246 37.1426 15.8246 37.1426C15.8246 37.1426 15.8247 37.2221 15.7439 37.2221Z" fill="#181716"/>
<path d="M15.5822 38.256C15.6629 38.097 15.9052 37.9379 16.0667 37.8584C15.986 37.5403 15.5822 38.097 15.5014 37.7789C15.986 37.6993 15.5822 37.4607 15.7437 37.2222C15.5014 37.6198 15.3399 37.8584 15.4207 38.1765L15.6629 37.9379C15.8244 38.0174 15.6629 38.097 15.5822 38.256Z" fill="#181716"/>
<path d="M17.0356 38.4947L16.6318 38.7333C16.7126 38.5743 16.4703 38.3357 16.7933 38.0176C16.6318 38.0176 16.551 38.1766 16.3895 38.1766C16.4703 37.938 16.551 37.779 16.228 37.938C16.3895 38.4152 16.228 38.4152 16.3895 38.8128C16.3088 38.8924 16.3088 38.8128 16.228 38.8128L16.3088 39.131C16.7933 38.7333 17.0356 38.8924 17.0356 38.4947Z" fill="#181716"/>
<path d="M17.1166 38.972C16.9551 38.8924 16.5513 39.131 16.4706 39.4491H17.0359C16.9551 39.3696 16.7936 39.2901 17.1166 38.972Z" fill="#181716"/>
<path d="M17.3587 39.2102C17.278 39.4488 17.1164 39.926 17.4395 39.6874C17.2779 39.5283 17.7625 39.0512 17.3587 39.2102Z" fill="#181716"/>
<path d="M18.3278 40.4029L18.1663 39.9257C18.4085 39.4486 18.4085 39.8462 18.6508 39.7667C18.4085 39.4486 18.4085 39.6871 18.0047 39.8462C17.924 39.7667 17.601 39.9257 17.4395 40.0052C18.1662 39.8462 17.3587 41.0391 18.3278 40.4029Z" fill="#181716"/>
<path d="M18.0046 39.4487L17.8431 39.6078H18.0854L18.0046 39.4487Z" fill="#181716"/>
<path d="M18.7317 41.4369C18.5702 42.1527 19.3777 41.3574 19.3777 41.755C19.297 41.755 19.297 41.8346 19.2162 41.8346L19.4585 41.9141L19.3777 42.0731C19.62 41.755 19.8623 41.6755 20.1853 41.5164C20.1853 41.0393 19.7815 41.9141 19.8623 41.3574C20.0238 41.1983 20.1853 41.0393 20.3468 40.8802C20.1045 40.9598 19.943 41.1983 19.7815 41.3574C19.62 41.2779 19.7815 41.1188 19.8623 41.0393C19.62 41.1188 19.2162 41.6755 19.1355 41.3574C19.2162 40.9598 19.5392 40.9598 19.2162 40.8802C18.9739 41.5164 19.0547 40.6416 18.7317 40.8802C18.6509 40.6416 18.7317 40.244 18.8932 40.085C18.5702 40.4826 18.1664 40.7212 18.0049 40.8007L18.5702 40.6417L18.3279 41.1983C18.5702 41.1188 18.6509 41.2779 18.7317 41.4369Z" fill="#181716"/>
<path d="M20.3467 40.8803C20.4274 40.8803 20.4274 40.8803 20.5082 40.8008C20.5082 40.8008 20.4274 40.8803 20.3467 40.8803Z" fill="#181716"/>
<path d="M18.8932 39.9261H19.0547L19.1355 39.7671L18.8932 39.9261Z" fill="#181716"/>
<path d="M20.7505 40.6416C20.7505 40.6416 20.589 40.7211 20.6697 40.8007L20.912 40.6416H20.7505Z" fill="#181716"/>
<path d="M20.7503 41.1191L20.6696 41.4373L20.9118 41.2782L20.7503 41.1191Z" fill="#181716"/>
<path d="M24.9499 43.7435C24.8692 43.5049 24.7077 43.823 24.5461 44.1411C24.7077 44.3001 24.7077 43.823 24.9499 43.7435Z" fill="#181716"/>
<path d="M28.0183 44.6182C27.9376 44.3001 27.6146 44.6182 27.5338 44.5386C27.5338 44.7772 27.7761 44.7772 28.0183 44.6182Z" fill="#181716"/>
<path d="M29.795 43.9819C29.7143 44.0615 29.6335 44.141 29.7143 44.2205L29.2297 44.7772C29.3105 45.0953 29.6335 44.2205 29.795 43.9819Z" fill="#181716"/>
<path d="M31.1678 44.459L30.8448 44.618L30.9256 44.6976C30.7641 44.9361 30.6833 45.0157 30.441 45.2543C30.7641 45.0952 31.0063 44.9361 31.1678 44.459Z" fill="#181716"/>
<path d="M30.2798 45.2546H30.3605C30.3605 45.0955 30.3605 45.016 30.2798 45.2546Z" fill="#181716"/>
<path d="M30.441 45.2541C30.441 45.1746 30.3602 45.2541 30.3602 45.2541C30.3602 45.2541 30.3602 45.3336 30.441 45.2541Z" fill="#181716"/>
<path d="M31.1677 44.857L31.5715 44.9365L31.4908 44.7774C31.3292 45.0956 31.4907 44.3798 31.1677 44.857Z" fill="#181716"/>
<path d="M33.1061 46.0497L32.9446 46.4474C33.1868 46.6064 33.8329 45.8907 33.6714 46.6064C33.6714 46.2883 34.0752 46.2088 33.8329 45.9702C33.5906 46.2883 33.2676 46.2088 33.1061 46.0497Z" fill="#181716"/>
<path d="M33.752 47.0041C33.6713 47.0836 33.6713 47.2427 33.6713 47.3222C33.752 47.4017 33.9135 47.2427 33.9135 47.0836C33.6713 47.5608 33.9943 46.686 33.752 47.0041Z" fill="#181716"/>
<path d="M34.9633 47.4017C34.8825 47.4017 34.8018 47.4017 34.8018 47.5608C35.044 47.6403 35.1248 47.1632 35.367 46.9246C35.2863 46.5269 34.8825 47.0836 34.9633 47.4017Z" fill="#181716"/>
<path d="M36.6591 48.1171V48.0376L36.4169 48.5148L36.6591 48.1171Z" fill="#181716"/>
<path d="M38.1128 48.3557L38.4358 48.0376H38.1128V48.3557Z" fill="#181716"/>
<path d="M38.3553 48.5151L38.5976 48.5946V48.4355C38.5168 48.2765 38.4361 48.5151 38.3553 48.5151Z" fill="#181716"/>
<path d="M39.0817 48.6742V48.5947L38.8395 48.7538L39.0817 48.6742Z" fill="#181716"/>
</g>
</g>
<path d="M167.563 90.3459C165.544 94.3223 165.706 109.989 165.706 109.989H193.405L173.781 86.29C173.781 86.29 168.694 88.1192 167.563 90.3459Z" fill="#7DA050"/>
<mask id="mask1_37_6098" style="mask-type:luminance" maskUnits="userSpaceOnUse" x="165" y="86" width="29" height="24">
<path d="M167.563 90.3459C165.544 94.3223 165.706 109.989 165.706 109.989H193.405L173.781 86.29C173.781 86.29 168.694 88.1192 167.563 90.3459Z" fill="white"/>
</mask>
<g mask="url(#mask1_37_6098)">
<g opacity="0.78">
<path d="M178.868 100.208C178.788 100.208 178.626 100.287 178.545 100.287C178.545 100.287 178.707 100.287 178.868 100.208Z" fill="#181716"/>
<path d="M183.552 107.285L183.875 107.047C183.714 107.126 183.633 107.206 183.552 107.285Z" fill="#181716"/>
<path d="M176.204 101.082C176.042 101.082 175.881 101.082 175.639 101.162L176.204 101.082Z" fill="#181716"/>
<path d="M175.315 102.752C175.235 102.832 175.235 102.832 175.154 102.911C175.235 102.832 175.315 102.832 175.315 102.752Z" fill="#181716"/>
<path d="M175.396 93.2089C175.477 93.2089 175.477 93.2089 175.558 93.1294C175.558 93.2089 175.477 93.2089 175.396 93.2089Z" fill="#181716"/>
<path d="M174.508 93.1293C174.508 93.0498 174.508 93.0498 174.427 93.0498L174.346 93.1293C174.266 93.1293 174.427 93.1293 174.508 93.1293Z" fill="#181716"/>
<path d="M167.967 92.8115L167.644 92.9706C167.805 92.891 167.886 92.8115 167.967 92.8115Z" fill="#181716"/>
<path d="M175.962 93.0498C175.881 93.0498 175.719 93.1293 175.639 93.1293C175.719 93.2089 175.8 93.2089 175.962 93.0498Z" fill="#181716"/>
<path d="M179.03 100.048C178.95 100.048 178.95 100.128 178.869 100.128C178.95 100.128 179.03 100.128 179.03 100.048Z" fill="#181716"/>
<path d="M185.733 109.591C185.814 109.591 185.894 109.671 185.975 109.671C185.975 109.432 185.814 109.432 185.733 109.591Z" fill="#181716"/>
<path d="M175.881 95.5152C174.912 96.231 175.638 95.2767 174.669 95.9129C174.992 95.9129 175.235 95.9129 174.75 96.3105C174.104 96.5491 174.589 95.9924 173.7 96.4696H174.185C173.862 96.8672 173.054 97.1058 173.216 97.1853C174.508 96.6286 173.135 98.0601 173.458 98.1396H173.297L172.973 98.7758C172.973 98.7758 172.893 98.7758 172.893 98.8554C172.973 98.7758 173.054 98.7758 173.135 98.6963C172.65 99.1735 172.408 99.6506 172.65 99.8097C173.377 99.4916 173.377 100.446 174.023 100.128C173.781 100.128 173.7 100.048 173.781 99.8097L174.589 99.3325C174.75 99.5711 173.862 99.8097 174.508 99.7302C175.558 98.9349 174.266 99.412 174.266 99.1735C174.589 99.0939 174.831 99.0144 174.992 99.0144C174.831 98.6963 174.992 98.1396 173.781 98.6168C173.943 98.3782 174.427 98.1396 174.589 98.1396C173.781 98.2987 175.073 97.5829 174.346 97.742C175.396 97.1853 175.154 97.901 175.881 97.6625C175.315 98.4577 176.284 98.3782 176.688 98.6168C175.961 99.0939 175.154 99.3325 174.831 99.7302C174.589 100.366 175.477 99.8097 175.961 99.6506C175.881 100.048 174.75 100.525 174.992 100.923L174.346 101.003C173.458 101.957 174.912 100.923 174.831 101.241C175.073 101.003 175.315 100.844 175.154 100.684C175.558 100.366 175.8 100.446 175.881 100.446V100.366C176.446 100.128 177.011 99.7302 176.93 100.128C176.204 100.446 176.607 100.605 176.365 100.844H176.204C176.527 100.844 176.527 101.082 176.769 101.162L176.607 101.241C176.93 101.162 177.738 100.684 177.657 101.003C177.334 101.162 176.365 101.559 176.607 101.639C176.123 101.957 175.961 101.718 175.961 101.4C175.961 101.718 175.235 102.355 175.073 102.116C174.508 102.593 175.477 102.116 175.315 102.434C175.477 102.275 175.719 102.195 175.881 102.036C175.073 102.593 176.123 102.514 176.688 102.116L176.123 102.195C176.769 101.718 177.334 101.718 177.657 101.4C176.769 102.195 178.546 101.639 177.819 102.355L178.303 101.877C178.303 102.514 179.757 102.116 180.322 102.355C179.918 102.434 178.788 103.229 178.949 102.673C179.03 103.229 177.98 103.547 177.577 104.104C177.415 104.74 178.707 103.547 179.111 103.388L178.788 103.309C180.241 102.673 179.192 104.343 180.241 104.184C179.918 104.422 179.999 104.263 179.838 104.263C179.353 104.979 180.08 104.343 180.484 104.263C180.564 104.581 180.484 104.979 179.595 105.456C179.595 105.854 180.08 105.058 180.403 104.979L180.241 105.138L181.291 104.74C181.211 105.138 180.968 105.695 180.322 106.331C180.807 106.649 182.18 105.138 182.745 105.218C182.503 105.695 182.18 105.615 181.857 105.854L182.18 106.092C181.291 106.649 181.453 106.092 180.484 106.888C181.695 106.331 181.049 106.967 181.937 106.808L182.018 106.729C182.826 106.331 182.583 107.047 182.906 107.126C182.422 107.365 182.26 107.206 181.937 107.206C181.776 107.683 182.583 107.921 183.552 107.365C183.552 107.603 183.391 108.16 182.906 108.24C183.149 108.796 184.279 107.365 184.36 107.921L183.714 108.478C183.149 109.671 185.248 108.478 184.764 109.591L185.571 108.876C185.329 109.273 185.329 109.512 185.087 109.83L184.683 109.91C184.198 110.625 185.491 109.512 185.167 110.148C185.41 109.91 185.733 109.273 185.975 109.035C184.844 108.717 185.248 106.967 183.714 106.808C183.633 106.888 183.552 107.047 183.391 107.126C183.472 106.888 183.149 106.888 183.633 106.569H183.714C183.31 106.49 184.198 105.536 184.037 105.377C183.391 105.774 183.875 104.74 183.068 105.615L183.552 104.979C183.149 105.218 182.745 105.615 182.503 105.695C182.422 105.456 182.826 105.218 183.149 105.138C183.068 104.263 182.422 103.707 181.614 103.388L182.18 103.229C182.26 102.911 180.968 103.309 182.26 102.593C181.614 102.673 182.018 101.559 180.726 102.434C181.776 101.4 180.726 101.321 180.241 101.082C179.272 101.877 179.676 100.923 179.111 101.162C179.838 100.525 180.161 100.923 180.726 100.525C179.192 101.003 180.807 98.6963 178.546 100.048C178.626 99.9687 178.707 99.8892 178.788 99.8097C178.707 99.7302 179.03 99.3325 179.03 99.253C178.626 99.4916 178.626 99.7302 178.303 99.6506C178.303 99.4121 178.949 99.0939 179.111 98.8554C178.465 98.8554 177.9 98.5373 177.011 99.0939C177.173 98.8554 177.577 98.4577 177.819 98.3782C176.85 98.3782 177.657 97.8215 176.85 97.6625C177.011 97.8215 177.819 97.1058 177.657 97.6625C178.707 96.6286 176.93 97.1058 177.254 96.231L176.365 96.5491C176.042 96.39 176.769 95.9129 177.173 95.9129C177.415 95.1971 176.769 95.2766 176.527 94.9585C176.607 94.879 176.769 94.7995 176.769 94.879L176.527 94.4019C176.284 94.4814 175.8 94.5609 175.315 94.9585C175.638 95.1971 175.961 95.1176 175.881 95.5152Z" fill="#181716"/>
<path d="M175.154 95.4355L175.073 95.5151C175.154 95.4356 175.154 95.4355 175.154 95.4355Z" fill="#181716"/>
<path d="M174.669 101.718C174.831 101.559 174.912 101.48 174.912 101.4C174.75 101.48 174.669 101.639 174.669 101.718Z" fill="#181716"/>
<path d="M171.035 92.0162C169.824 92.8115 171.439 92.1753 171.197 92.5729C170.874 92.4934 170.228 92.9705 169.905 93.2091C171.601 92.4934 169.743 93.6863 170.389 93.9249C169.905 94.243 169.663 94.0839 169.097 94.402C169.663 94.402 170.066 94.6406 170.955 94.1634C171.197 94.5611 171.116 95.0382 171.439 95.1973C170.874 95.1178 170.551 95.6744 169.663 95.913C170.874 95.5949 172.489 95.5154 174.023 95.1178C173.135 95.754 173.054 95.8335 172.166 96.3902C171.843 97.265 173.135 95.9926 173.135 96.6288V96.3107C173.539 96.3107 174.427 95.754 175.154 95.4359L174.669 94.9587C175.315 94.5611 175.477 94.9587 175.638 94.9587C176.527 94.6406 176.042 94.3225 176.688 94.0044C176.123 94.243 176.123 93.9249 175.881 93.9249L176.204 93.6863C176.365 93.2091 175.477 93.6067 175.315 93.3682C175.396 93.2886 175.477 93.2091 175.558 93.2091C175.154 93.3682 174.589 93.6068 174.346 93.5272L174.427 93.6067C173.458 93.9249 172.65 93.7658 171.924 94.7201L171.843 94.0044C172.812 93.5272 174.266 92.7319 174.589 92.9705L174.992 92.732C175.396 92.1753 173.862 92.4934 173.135 93.1296C170.793 94.243 172.489 92.3343 171.358 92.4934C171.924 92.0957 172.327 92.1753 172.812 92.0162C172.973 92.0957 173.054 92.1753 172.489 92.4934C173.135 92.8115 174.346 91.2209 174.508 91.9367C174.346 92.4138 173.296 92.1753 173.539 92.6524L175.396 91.9367C175.154 91.6981 174.75 91.6186 174.427 91.5391C172.57 91.0619 172.973 89.6304 172.973 89.6304C171.681 88.0399 170.47 86.3698 169.259 84.7793C168.693 84.3816 168.693 84.143 166.836 84.8588C166.594 85.1769 166.917 85.4155 166.271 85.6541C166.917 85.3359 167.401 85.4155 167.482 85.7336C166.917 86.1312 166.998 85.6541 166.917 85.8131V85.8926C166.594 86.0517 166.352 86.1312 166.271 86.0517C165.544 86.9265 166.109 87.4036 167.401 87.006C166.917 87.6422 166.352 87.4036 165.786 87.4832C165.867 88.6761 166.352 89.2328 166.836 90.2666C167.886 89.6304 167.563 89.9485 168.37 89.6304L168.047 89.9485C168.209 89.7895 169.016 89.4714 169.178 89.1532C168.693 90.1871 171.035 88.9147 171.681 88.9942L171.116 89.3123C171.358 89.5509 171.439 89.6304 171.924 89.7099C171.197 90.8233 171.52 89.3918 170.228 90.3461H170.551C169.986 90.5847 169.016 91.0619 168.532 91.1414C169.743 91.0619 168.613 92.0162 169.582 92.0957C168.936 92.4138 168.128 92.2548 168.047 92.1753C168.128 92.4138 168.693 92.4138 168.209 92.8115L169.016 92.4138C169.339 92.6524 168.29 92.8115 167.805 93.2091C168.209 93.7658 170.147 91.6981 171.035 92.0162Z" fill="#181716"/>
<path d="M175.235 99.3329C175.235 99.1738 175.154 99.1738 175.073 99.1738C175.073 99.2534 175.073 99.3329 175.235 99.3329Z" fill="#181716"/>
<path d="M172.812 98.9351C172.731 99.0146 172.57 99.0146 172.489 99.0941C172.65 99.0941 172.731 99.0146 172.812 98.9351Z" fill="#181716"/>
<path d="M171.681 99.4919C172.004 99.2533 172.085 99.3328 172.57 99.0942C172.247 99.1738 172.085 98.9352 171.681 99.4919Z" fill="#181716"/>
<path d="M179.515 106.172C179.353 106.569 179.919 106.092 180.403 105.774C180.322 105.376 179.919 106.172 179.515 106.172Z" fill="#181716"/>
<path d="M176.204 103.389C175.961 103.866 176.688 103.627 176.769 103.786C177.011 103.389 176.607 103.309 176.204 103.389Z" fill="#181716"/>
<path d="M172.973 103.389C173.216 103.309 173.377 103.309 173.377 103.15L174.669 102.514C174.831 102.037 173.458 103.071 172.973 103.389Z" fill="#181716"/>
<path d="M171.681 101.877H172.327L172.247 101.718C172.731 101.48 172.973 101.4 173.458 101.241C173.054 101.162 172.489 101.241 171.681 101.877Z" fill="#181716"/>
<path d="M173.781 101.321C173.781 101.321 173.701 101.321 173.62 101.241C173.539 101.321 173.377 101.48 173.781 101.321Z" fill="#181716"/>
<path d="M173.539 101.162C173.458 101.162 173.458 101.162 173.377 101.241C173.458 101.241 173.539 101.241 173.619 101.321C173.781 101.162 173.781 101.082 173.539 101.162Z" fill="#181716"/>
<path d="M172.085 101.241L171.601 100.844L171.52 101.162C172.247 100.764 171.278 101.719 172.085 101.241Z" fill="#181716"/>
<path d="M170.955 98.3785L171.601 97.9013C171.52 97.5037 169.824 98.0603 170.793 97.1855C170.47 97.5832 169.824 97.4241 169.905 97.9013C170.632 97.6627 171.035 98.0603 170.955 98.3785Z" fill="#181716"/>
<path d="M171.278 96.6288C171.52 96.5493 171.601 96.3902 171.762 96.2312C171.762 96.0721 171.358 96.1517 171.116 96.3902C172.085 95.8336 170.632 96.8674 171.278 96.6288Z" fill="#181716"/>
<path d="M170.309 95.2768C170.389 95.3563 170.551 95.4358 170.632 95.1973C170.389 94.9587 169.663 95.5154 169.097 95.6744C168.855 96.1516 170.066 95.6744 170.309 95.2768Z" fill="#181716"/>
<path d="M174.185 89.9482C173.619 90.3459 173.781 90.5049 174.023 90.4254C173.862 90.4254 174.023 90.1868 174.185 89.9482Z" fill="#181716"/>
<path d="M169.097 92.9704L169.016 93.1295L169.986 92.6523L169.097 92.9704Z" fill="#181716"/>
<path d="M167.644 91.6982L166.917 91.8573L167.159 92.0959L167.644 91.6982Z" fill="#181716"/>
<path d="M167.563 91.3006L167.321 91.062L167.159 91.3006C167.079 91.5392 167.482 91.2211 167.563 91.3006Z" fill="#181716"/>
<path d="M166.917 90.5845C166.997 90.5845 166.917 90.664 166.836 90.7435H167.401L166.917 90.5845Z" fill="#181716"/>
</g>
</g>
<path d="M55.6367 67.8397C55.6367 67.8397 61.5318 97.2647 66.0541 109.989H87.858L86.0006 81.6774C86.0814 81.6774 66.5387 65.1358 55.6367 67.8397Z" fill="#7DA050"/>
<mask id="mask2_37_6098" style="mask-type:luminance" maskUnits="userSpaceOnUse" x="55" y="67" width="33" height="43">
<path d="M55.6367 67.8397C55.6367 67.8397 61.5318 97.2647 66.0541 109.989H87.858L86.0006 81.6774C86.0814 81.6774 66.5387 65.1358 55.6367 67.8397Z" fill="white"/>
</mask>
<g mask="url(#mask2_37_6098)">
<g opacity="0.78">
<path d="M70.9803 77.7012C70.8995 77.7807 70.8188 77.8602 70.738 77.9398C70.738 77.9398 70.8188 77.8602 70.9803 77.7012Z" fill="#181716"/>
<path d="M78.006 82.5525L78.2482 82.2344C78.006 82.3139 78.006 82.3934 78.006 82.5525Z" fill="#181716"/>
<path d="M68.8 79.5303C68.7192 79.5303 68.5577 79.6098 68.3154 79.8484L68.8 79.5303Z" fill="#181716"/>
<path d="M68.6383 81.439C68.6383 81.5185 68.5575 81.598 68.5575 81.6775C68.6383 81.5185 68.6383 81.439 68.6383 81.439Z" fill="#181716"/>
<path d="M65.0852 72.5317C65.166 72.5317 65.166 72.4521 65.166 72.4521L65.0852 72.5317Z" fill="#181716"/>
<path d="M64.1966 72.7704C64.1966 72.6909 64.1158 72.6909 64.1158 72.6909L64.0351 72.7704C63.9543 72.85 64.1158 72.7704 64.1966 72.7704Z" fill="#181716"/>
<path d="M57.9787 74.9175L57.7365 75.2356C57.898 75.0765 57.9787 74.997 57.9787 74.9175Z" fill="#181716"/>
<path d="M65.4887 72.2139C65.4079 72.2934 65.3272 72.3729 65.1656 72.4525C65.3272 72.3729 65.4079 72.3729 65.4887 72.2139Z" fill="#181716"/>
<path d="M71.0609 77.542C70.9801 77.6215 70.9801 77.6215 70.9801 77.701C70.9801 77.6215 71.0609 77.6215 71.0609 77.542Z" fill="#181716"/>
<path d="M80.8324 83.8249C80.9132 83.8249 80.9939 83.8249 81.0747 83.8249C80.9939 83.5863 80.9132 83.6658 80.8324 83.8249Z" fill="#181716"/>
<path d="M66.3772 74.5202C65.7311 75.554 66.0541 74.3611 65.4081 75.395C65.7311 75.2359 65.8926 75.1564 65.5696 75.7131C65.0851 76.1902 65.3273 75.4745 64.6813 76.2698L65.0851 76.1107C64.9236 76.5879 64.2775 77.1446 64.439 77.1446C65.4081 76.1107 64.6813 78.0194 65.0043 77.9398L64.8428 78.0194L64.7621 78.7351V78.8146C64.8428 78.7351 64.8428 78.6556 64.9236 78.5761C64.6813 79.2123 64.6005 79.769 64.9236 79.769C65.4889 79.2123 65.8926 80.0871 66.3772 79.6099C66.1349 79.6894 66.0541 79.6894 66.0541 79.3713L66.6194 78.5761C66.8617 78.7351 66.1349 79.2918 66.7002 78.9737C67.3462 77.8603 66.3772 78.7351 66.2964 78.5761C66.5387 78.3375 66.7809 78.1784 66.9424 78.1784C66.6194 77.9398 66.6194 77.3831 65.6504 78.2579C65.7311 77.9398 66.0541 77.5422 66.2157 77.4627C65.5696 77.9398 66.4579 76.7469 65.8926 77.1446C66.6194 76.1902 66.7002 76.9855 67.3462 76.5084C67.104 77.4627 67.9923 76.9855 68.396 77.065C67.9115 77.7808 67.2655 78.258 67.104 78.8146C67.104 79.5304 67.6692 78.6556 68.1538 78.3375C68.2345 78.7351 67.3462 79.6099 67.75 79.8485L67.1847 80.1666C66.7002 81.3595 67.6692 79.8485 67.6692 80.1666C67.8307 79.8485 67.9923 79.6099 67.75 79.5304C67.9923 79.1327 68.2345 79.0532 68.3153 79.0532V78.9737C68.7191 78.4965 69.1228 78.0194 69.2036 78.417C68.6383 78.9737 69.1228 78.9737 68.9613 79.2918L68.7998 79.3713C69.1228 79.2918 69.2036 79.4508 69.4459 79.4508L69.3651 79.6099C69.6881 79.4509 70.1727 78.7351 70.2534 78.9737C70.0111 79.2918 69.2843 80.0075 69.5266 80.0075C69.2036 80.4847 68.9613 80.3256 68.8806 80.0871C68.9613 80.4052 68.5575 81.2004 68.3153 81.1209C67.9923 81.7571 68.7191 81.0414 68.6383 81.3595C68.7191 81.2004 68.8806 80.9619 69.0421 80.8028C68.5576 81.5981 69.4459 81.1209 69.8496 80.5642L69.3651 80.8823C69.7689 80.2461 70.3342 80.0075 70.4149 79.5304C69.8496 80.6438 71.3032 79.3713 70.8994 80.3256L71.1417 79.769C71.384 80.4052 72.5145 79.4508 73.1606 79.4508C72.8376 79.6894 72.1108 80.8028 72.03 80.2461C72.353 80.7233 71.4647 81.439 71.3032 82.0752C71.384 82.7114 72.1108 81.1209 72.4338 80.8823L72.03 80.9619C73.1606 79.8485 72.7568 81.7571 73.7259 81.28C73.5644 81.6776 73.4836 81.439 73.4029 81.5185C73.2413 82.3138 73.7259 81.5185 73.9681 81.28C74.1296 81.5185 74.2104 81.9957 73.6451 82.7115C73.8066 83.0296 73.8874 82.1548 74.2104 81.9957L74.1296 82.2343L74.9372 81.439C75.0179 81.8367 75.018 82.4729 74.6949 83.2681C75.341 83.4272 75.9063 81.439 76.4715 81.3595C76.4715 81.9162 76.0678 81.9957 75.9063 82.3138L76.31 82.3933C75.664 83.2681 75.664 82.6319 75.0987 83.7453C75.987 82.791 75.664 83.6658 76.3908 83.1091V83.0296C76.9561 82.3933 77.0368 83.1091 77.3598 83.0296C77.0368 83.4272 76.7946 83.3477 76.4715 83.4272C76.5523 83.9043 77.3599 83.9043 78.0866 83.0296C78.1674 83.2681 78.2482 83.8248 77.8444 84.1429C78.2482 84.5406 78.7327 82.791 79.0557 83.3477L78.6519 84.0634C78.5712 85.4154 80.0248 83.5067 80.0248 84.6996L80.5093 83.7453C80.4285 84.1429 80.5093 84.461 80.4285 84.8587L80.0248 85.0973C79.8633 85.9721 80.5901 84.461 80.5901 85.0973C80.7516 84.7791 80.8323 84.0634 80.9131 83.7453C79.7018 83.8248 79.3787 82.0752 78.0059 82.5524C78.0059 82.7115 77.9251 82.791 77.8444 83.0296C77.8444 82.791 77.5214 82.8705 77.8444 82.3933L77.9251 82.3138C77.6021 82.3933 77.9251 81.2004 77.7636 81.1209C77.3598 81.6776 77.3598 80.5642 76.9561 81.6776L77.1176 80.9619C76.8753 81.3595 76.6331 81.8367 76.3908 81.9957C76.2293 81.8367 76.4715 81.439 76.7946 81.2004C76.3908 80.4847 75.5832 80.1666 74.6949 80.0871L75.1795 79.6894C75.1795 79.3713 74.1296 80.2461 74.9372 79.0532C74.2912 79.3713 74.2912 78.1784 73.4836 79.4508C74.0489 78.0989 73.0798 78.4965 72.5145 78.3375C71.9493 79.4508 71.9493 78.417 71.5455 78.8942C72.03 78.0194 72.4338 78.2579 72.8376 77.7013C71.5455 78.7351 72.1915 76.0312 70.6572 78.0194C70.6572 77.9398 70.7379 77.7808 70.8187 77.7808C70.7379 77.7013 70.8187 77.3036 70.8187 77.1446C70.4957 77.4627 70.5764 77.7808 70.3342 77.7808C70.2534 77.6217 70.7379 77.065 70.8187 76.7469C70.1727 77.065 69.6074 76.906 68.9613 77.7013C69.0421 77.3831 69.2036 76.8265 69.4459 76.7469C68.4768 77.065 69.0421 76.3493 68.2345 76.4288C68.396 76.5084 68.9613 75.554 68.9613 76.1107C69.5266 74.7588 68.073 75.7926 68.073 74.9178L67.427 75.554C67.104 75.554 67.5885 74.7588 67.9115 74.5997C67.8308 73.884 67.2655 74.2021 66.9424 73.9635C67.0232 73.884 67.104 73.7249 67.104 73.8044L66.7002 73.4863C66.5387 73.6454 66.1349 73.884 65.8119 74.4407C66.0541 74.2816 66.2964 74.043 66.3772 74.5202Z" fill="#181716"/>
<path d="M65.6502 74.6792L65.5695 74.7587C65.6502 74.6792 65.6502 74.6792 65.6502 74.6792Z" fill="#181716"/>
<path d="M67.5883 80.7233C67.669 80.4847 67.669 80.4052 67.669 80.3257C67.669 80.4052 67.5883 80.5643 67.5883 80.7233Z" fill="#181716"/>
<path d="M60.4819 73.0884C59.6744 74.2813 60.8857 73.0884 60.8857 73.5656C60.5627 73.6451 60.1589 74.2813 59.9167 74.679C61.2087 73.4065 59.9974 75.1561 60.6435 75.1561C60.3204 75.6333 60.0782 75.5538 59.5936 76.1105C60.0782 75.8719 60.6435 75.9514 61.2895 75.1561C61.6933 75.3947 61.774 75.9514 62.097 75.9514C61.5318 76.1105 61.451 76.7467 60.7242 77.3034C61.6933 76.5876 63.2276 75.8719 64.4389 74.9176C63.8737 75.8719 63.7929 75.9514 63.1469 76.7467C63.2276 77.701 63.8737 76.0309 64.1159 76.5876L64.0352 76.2695C64.4389 76.1105 65.085 75.3152 65.5695 74.7585L64.9235 74.5199C65.408 73.8837 65.6503 74.2018 65.8118 74.1223C66.4578 73.4861 65.8925 73.4066 66.3771 72.8499C65.9733 73.327 65.8925 73.0089 65.5695 73.0884L65.8118 72.7703C65.8118 72.2136 65.085 73.0089 64.8427 72.8499C64.9235 72.7703 64.9235 72.6908 65.0042 72.6113C64.6812 72.9294 64.2774 73.327 64.0352 73.4066H64.1967C63.4699 74.0428 62.5816 74.2813 62.2586 75.3152L61.9355 74.679C62.6623 73.8837 63.7121 72.6113 64.0352 72.6908L64.3582 72.3727C64.5197 71.7365 63.2276 72.6113 62.8238 73.4861C61.0472 75.3947 61.9355 73.0089 60.8857 73.5656C61.2895 73.0089 61.6933 72.9294 62.0163 72.6113C62.1778 72.6113 62.2586 72.6908 61.9355 73.168C62.6623 73.168 63.1469 71.2593 63.5506 71.8955C63.6314 72.3727 62.5816 72.6113 62.9046 72.9294L64.3582 71.5774C64.0352 71.4184 63.6314 71.5774 63.3084 71.5774C61.451 71.816 61.2895 70.3845 61.2895 70.3845C59.5129 69.3507 57.7363 68.3168 55.9597 67.283C55.3136 67.1239 55.1521 66.8853 53.7793 68.2373C53.6178 68.6349 54.1023 68.7145 53.537 69.1916C54.0215 68.6349 54.5061 68.4759 54.6676 68.794C54.2638 69.3507 54.183 68.8735 54.183 69.0326V69.1121C53.9408 69.3507 53.6985 69.5097 53.6178 69.5097C53.2947 70.5436 53.9408 70.8617 54.9906 69.9074C54.8291 70.7026 54.1831 70.6231 53.6985 71.0207C54.2638 72.1341 54.9099 72.4522 55.7174 73.168C56.525 72.2136 56.2827 72.6113 56.9287 72.0546L56.7672 72.4522C56.848 72.2136 57.494 71.657 57.494 71.3388C57.4133 72.4522 59.1091 70.464 59.7552 70.305L59.3514 70.7822C59.6744 70.8617 59.8359 70.9412 60.2397 70.8617C59.9974 72.1341 59.7552 70.7026 58.8668 72.0546L59.1899 71.9751C58.7861 72.3727 57.9785 73.2475 57.5748 73.4861C58.6246 73.0089 57.9785 74.2813 58.9476 73.9632C58.4631 74.5199 57.6555 74.5995 57.494 74.5995C57.6555 74.7585 58.2208 74.5994 57.817 75.0766L58.3823 74.3609C58.7053 74.4404 57.817 74.9971 57.5748 75.5538C58.5438 75.7924 59.5936 73.0884 60.4819 73.0884Z" fill="#181716"/>
<path d="M67.2654 78.3373C67.1847 78.1783 67.1039 78.1783 67.0232 78.2578C67.0232 78.2578 67.1039 78.3373 67.2654 78.3373Z" fill="#181716"/>
<path d="M64.8428 78.8145C64.7621 78.894 64.6813 78.9735 64.6006 79.053C64.7621 78.9735 64.8428 78.894 64.8428 78.8145Z" fill="#181716"/>
<path d="M64.0352 79.6894C64.1967 79.2917 64.3582 79.3713 64.6812 78.9736C64.4389 79.2122 64.1967 79.0532 64.0352 79.6894Z" fill="#181716"/>
<path d="M87.6156 87.4033C87.6964 87.7214 87.5349 88.1986 87.4541 88.5962C87.8579 88.9143 87.7771 87.6419 88.1001 88.0395C87.6964 88.7553 88.2617 88.5962 88.5847 88.9939C88.3424 88.1986 88.1809 87.6419 87.8579 87.4033V87.96C87.6156 88.0395 87.6964 87.6419 87.6156 87.4033Z" fill="#181716"/>
<path d="M85.6775 88.5963L86.0813 87.801C86.0813 88.1986 86.485 88.2782 86.4043 89.0734C86.5658 88.9939 86.6465 88.5963 86.8081 88.3577C86.8888 88.7553 86.9696 89.153 87.1311 88.5167C86.485 87.8805 86.7273 87.7215 86.2428 87.4034C86.2428 87.2443 86.3235 87.2443 86.4043 87.3238C86.3235 87.1648 86.2428 87.0057 86.162 86.8467C85.9197 87.9601 85.4352 87.8805 85.6775 88.5963Z" fill="#181716"/>
<path d="M85.2738 87.8808C85.5968 87.8808 85.8391 87.1651 85.8391 86.6084C85.5968 86.7675 85.3546 86.9265 85.1123 87.1651C85.2738 87.1651 85.5161 87.0856 85.2738 87.8808Z" fill="#181716"/>
<path d="M84.8699 87.8011C84.8699 87.3239 84.9507 86.3696 84.5469 87.1648C84.8699 87.1648 84.3854 88.2782 84.8699 87.8011Z" fill="#181716"/>
<path d="M83.1743 86.5286L83.4974 87.2444C83.2551 88.2782 83.1743 87.4829 82.8513 87.8806C83.2551 88.1987 83.1743 87.8806 83.7396 87.3239C83.8204 87.4034 84.2242 86.9263 84.4664 86.6877C83.4974 87.3239 84.2242 84.779 83.1743 86.5286Z" fill="#181716"/>
<path d="M83.9008 87.8805L84.0623 87.4829L83.7393 87.7215L83.9008 87.8805Z" fill="#181716"/>
<path d="M82.3665 84.938C82.528 83.6655 81.5589 85.4151 81.3974 84.7789C81.4782 84.6994 81.4782 84.6199 81.6397 84.5403H81.3167L81.3974 84.3018C81.0744 85.0175 80.6706 85.1766 80.3476 85.6537C80.3476 86.5285 80.9129 84.8584 80.7514 85.7332C80.5899 86.0514 80.2669 86.5285 80.1053 86.7671C80.4284 86.449 80.6706 86.0514 80.9129 85.7332C81.1552 85.7332 80.9129 86.1309 80.8321 86.3695C81.2359 86.0514 81.6397 85.0175 81.882 85.3356C81.882 86.0514 81.3974 86.2899 81.8012 86.1309C82.0435 84.938 82.1242 86.449 82.528 85.8128C82.6895 86.1309 82.6087 86.9261 82.4472 87.3238C82.7703 86.449 83.2548 85.7332 83.5778 85.5742C83.3356 85.8128 83.0933 85.9718 82.851 86.2104L83.0933 85.097C82.6895 85.4151 82.528 85.2561 82.3665 84.938Z" fill="#181716"/>
<path d="M80.1056 86.688C80.0248 86.7675 80.0248 86.7675 79.9441 86.847C79.9441 86.847 80.0248 86.847 80.1056 86.688Z" fill="#181716"/>
<path d="M82.4473 87.5625L82.2051 87.8011V88.1192L82.4473 87.5625Z" fill="#181716"/>
<path d="M79.5401 87.324C79.6208 87.4035 79.7823 87.0854 79.7016 87.0059L79.3785 87.4035L79.5401 87.324Z" fill="#181716"/>
<path d="M79.6208 86.5288L79.7016 85.8926L79.3785 86.3697L79.6208 86.5288Z" fill="#181716"/>
<path d="M73.8065 82.9497C73.8065 83.4269 74.1295 82.7111 74.4526 82.234C74.2911 81.9954 74.1295 82.8702 73.8065 82.9497Z" fill="#181716"/>
<path d="M69.6882 81.6775C69.6075 82.2342 70.2535 81.6775 70.415 81.8366C70.415 81.3594 70.092 81.4389 69.6882 81.6775Z" fill="#181716"/>
<path d="M66.7808 82.8703C66.9423 82.7112 67.1038 82.6317 67.023 82.4727L67.9921 81.4388C67.9113 80.8821 67.023 82.3931 66.7808 82.8703Z" fill="#181716"/>
<path d="M64.9235 81.916L65.4887 81.6774L65.3272 81.5184C65.731 81.1207 65.8925 80.9617 66.2155 80.6436C65.8925 80.8026 65.408 81.0412 64.9235 81.916Z" fill="#181716"/>
<path d="M66.6193 80.6436C66.5385 80.6436 66.5385 80.6436 66.4577 80.6436C66.4577 80.7231 66.377 80.9617 66.6193 80.6436Z" fill="#181716"/>
<path d="M66.3772 80.5645C66.2965 80.644 66.2965 80.644 66.2157 80.644C66.2965 80.644 66.3772 80.5645 66.458 80.5645C66.5387 80.485 66.5387 80.4054 66.3772 80.5645Z" fill="#181716"/>
<path d="M65.0851 81.2006L64.5198 81.0415V81.3596C65.0043 80.7234 64.439 81.9163 65.0851 81.2006Z" fill="#181716"/>
<path d="M62.9047 78.9737L63.3085 78.258C63.147 77.9399 61.6934 79.1328 62.2587 77.8604C62.0972 78.3375 61.4511 78.417 61.6934 78.8942C62.3394 78.417 62.824 78.6556 62.9047 78.9737Z" fill="#181716"/>
<path d="M62.5011 77.224C62.6626 77.065 62.7433 76.9059 62.8241 76.6673C62.7433 76.5083 62.4203 76.7469 62.2588 77.065C62.9856 76.1902 62.0165 77.7012 62.5011 77.224Z" fill="#181716"/>
<path d="M61.1282 76.3492C61.2089 76.4288 61.3704 76.4288 61.3704 76.1902C61.0474 76.0311 60.6436 76.8264 60.1591 77.224C60.0784 77.7012 60.9667 76.8264 61.1282 76.3492Z" fill="#181716"/>
<path d="M62.6624 69.9873C62.2586 70.544 62.5009 70.6235 62.7431 70.4645C62.5816 70.544 62.5816 70.3054 62.6624 69.9873Z" fill="#181716"/>
<path d="M59.109 74.6787V74.8377L59.8358 74.0425L59.109 74.6787Z" fill="#181716"/>
<path d="M57.252 74.0425L56.606 74.4401L57.0097 74.5992L57.252 74.0425Z" fill="#181716"/>
<path d="M57.0097 73.6454L56.6867 73.4863L56.606 73.8044C56.6867 74.043 56.929 73.6454 57.0097 73.6454Z" fill="#181716"/>
<path d="M56.2021 73.2476C56.2829 73.2476 56.2021 73.3271 56.2021 73.4066L56.6867 73.2476H56.2021Z" fill="#181716"/>
</g>
</g>
<path d="M200.35 80.962C200.35 80.962 173.216 98.617 121.694 93.2887C70.1725 88.0399 34.1558 50.2646 34.1558 50.2646C34.1558 50.2646 143.094 85.336 164.171 82.3935C185.249 79.451 200.35 80.962 200.35 80.962Z" fill="#EFEECE"/>
<mask id="mask3_37_6098" style="mask-type:luminance" maskUnits="userSpaceOnUse" x="34" y="50" width="167" height="45">
<path d="M200.35 80.962C200.35 80.962 173.216 98.617 121.694 93.2887C70.1725 88.0399 34.1558 50.2646 34.1558 50.2646C34.1558 50.2646 143.094 85.336 164.171 82.3935C185.249 79.451 200.35 80.962 200.35 80.962Z" fill="white"/>
</mask>
<g mask="url(#mask3_37_6098)">
<g opacity="0.78">
<path d="M90.5229 78.1782L90.1191 78.2577C90.2807 78.3373 90.3614 78.2577 90.5229 78.1782Z" fill="#181716"/>
<path d="M94.7219 86.7676C94.8027 86.8471 94.9642 86.8471 95.2872 86.9266L94.7219 86.7676Z" fill="#181716"/>
<path d="M91.7343 94.2429C91.815 94.2429 91.9765 94.2429 92.138 94.2429C91.9765 94.2429 91.8958 94.1633 91.7343 94.2429Z" fill="#181716"/>
<path d="M91.6534 86.6085C91.7342 86.6085 91.815 86.6085 91.815 86.6085C91.815 86.5289 91.7342 86.5289 91.6534 86.6085Z" fill="#181716"/>
<path d="M89.3922 75.3153C89.3114 75.2358 89.2307 75.1562 89.1499 75.1562C89.1499 75.3153 89.2307 75.3153 89.3922 75.3153Z" fill="#181716"/>
<path d="M92.7839 92.0161C93.9952 91.698 92.8646 92.3342 94.0759 92.0956C93.7529 92.0161 93.5914 91.9365 94.1567 91.698C94.8835 91.698 94.1567 92.0161 95.2065 91.9365L94.8027 91.7775C95.2873 91.5389 96.0948 91.6184 96.0141 91.4594C94.5605 91.5389 96.4178 90.6641 96.1756 90.5051L96.3371 90.5846L96.9024 90.1074H96.9831C96.9024 90.1074 96.8216 90.1074 96.7409 90.1074C97.3869 89.8688 97.8714 89.4712 97.6292 89.2326C96.8216 89.2326 97.2254 88.3578 96.4986 88.3578C96.7409 88.4374 96.7409 88.5169 96.5793 88.7555L95.6103 88.9145C95.6103 88.6759 96.4986 88.7555 95.8526 88.5964C94.5605 88.9145 95.9333 88.994 95.8526 89.1531C95.5295 89.1531 95.2873 89.0736 95.1258 88.994C95.1258 89.3917 94.8027 89.7893 96.0948 89.8688C95.8526 90.0279 95.2873 90.1074 95.1258 90.0279C95.9333 90.1869 94.399 90.346 95.1258 90.5051C93.9144 90.6641 94.399 90.0279 93.6722 89.9484C94.5605 89.3917 93.5914 89.1531 93.3491 88.835C94.2375 88.6759 95.045 88.7555 95.5295 88.5169C96.0141 88.0397 94.9643 88.1988 94.399 88.1192C94.6412 87.8011 95.8526 87.8011 95.8526 87.324L96.4986 87.483C97.7099 87.0059 95.9333 87.324 96.1756 87.0854C95.8526 87.2445 95.5295 87.2445 95.6103 87.483C95.1258 87.5626 94.9643 87.483 94.8835 87.4035V87.483C94.2375 87.483 93.5914 87.6421 93.8337 87.2444C94.5605 87.2444 94.3182 86.9263 94.6412 86.7673H94.8027C94.4797 86.6082 94.5605 86.3697 94.399 86.2901H94.5605C94.2375 86.2106 93.3492 86.3697 93.4299 86.0515C93.8337 85.972 94.8835 86.0515 94.6412 85.813C95.2065 85.7334 95.2873 85.972 95.1258 86.2106C95.2873 85.972 96.1756 85.6539 96.2563 85.8925C96.9024 85.6539 95.9333 85.7334 96.1756 85.4949C95.9333 85.5744 95.691 85.5744 95.5295 85.6539C96.4986 85.4153 95.5295 85.0972 94.8027 85.2563L95.368 85.4153C94.6412 85.5744 94.0759 85.4153 93.6722 85.5744C94.8027 85.1768 92.9454 85.0177 93.9144 84.6996L93.3491 84.9382C93.5914 84.302 92.1378 84.2224 91.734 83.7453C92.1378 83.8248 93.4299 83.5862 93.1069 83.9839C93.2684 83.4272 94.399 83.5067 94.9642 83.2681C95.368 82.7909 93.6722 83.3476 93.2684 83.3476L93.5914 83.5862C91.9763 83.5862 93.6722 82.4728 92.6224 82.1547C93.0261 81.9957 92.8646 82.2343 93.0261 82.2343C93.7529 81.8366 92.7839 82.0752 92.4608 81.9957C92.5416 81.6776 92.7839 81.3595 93.7529 81.2004C93.9144 80.8823 93.1876 81.3595 92.8646 81.2799L93.0261 81.2004H91.8956C92.1378 80.8823 92.5416 80.4847 93.4299 80.087C93.1069 79.6099 91.2495 80.4847 90.765 80.1666C91.1688 79.7689 91.4918 80.0075 91.8956 79.928L91.734 79.6099C92.7839 79.4508 92.3801 79.8485 93.5914 79.5303C92.2993 79.5303 93.1069 79.2122 92.2186 79.0532L92.1378 79.1327C91.2495 79.2122 91.734 78.6556 91.4918 78.417C92.0571 78.3374 92.1378 78.576 92.3801 78.7351C92.7031 78.3374 92.1378 77.7808 90.9265 77.9398C91.0072 77.7808 91.411 77.3036 91.8956 77.3831C91.8956 76.8264 90.2805 77.6217 90.442 77.065L91.2495 76.8264C92.2186 75.9516 89.8767 76.1902 90.765 75.3949L89.7959 75.7131C90.1997 75.4745 90.2805 75.1564 90.6842 74.9973L91.088 75.0768C91.8148 74.5997 90.1997 75.1564 90.6842 74.6792C90.3612 74.7587 89.7959 75.2359 89.4729 75.3949C90.442 76.1902 89.3114 77.6217 90.6035 78.2579C90.6842 78.1784 90.8457 78.0989 91.0073 78.0989C90.765 78.2579 91.088 78.417 90.6035 78.576H90.5227C90.8457 78.7351 89.7152 79.3713 89.7152 79.5303C90.442 79.4508 89.5537 80.1666 90.6842 79.6894L90.0382 80.087C90.5227 80.0075 91.0072 79.8484 91.3303 79.8484C91.2495 80.087 90.8457 80.1666 90.5227 80.1666C90.2805 80.9618 90.6035 81.7571 91.1688 82.3933L90.6035 82.3138C90.3612 82.5524 91.734 82.7114 90.2805 82.8705C90.9265 83.1091 90.1189 83.9043 91.5725 83.5862C90.1997 84.1429 91.1688 84.6201 91.4918 85.0177C92.7031 84.6201 91.9763 85.3358 92.5416 85.3358C91.5725 85.6539 91.411 85.1768 90.765 85.2563C92.3801 85.4153 89.9574 86.9263 92.5416 86.6082C92.4608 86.6878 92.3801 86.6878 92.2186 86.6878C92.2186 86.7673 91.8148 87.0059 91.734 87.1649C92.2186 87.1649 92.3801 86.8468 92.5416 87.0854C92.4608 87.324 91.734 87.324 91.4918 87.483C92.1378 87.7216 92.4608 88.2783 93.5107 88.1192C93.2684 88.2783 92.7031 88.5169 92.4608 88.4374C93.3492 88.835 92.4608 88.994 93.0261 89.4712C92.9454 89.3122 91.8956 89.5507 92.2993 89.2326C90.9265 89.7098 92.7031 90.0279 92.0571 90.6641H93.0261C93.2684 90.9027 92.3801 91.0617 91.9763 90.9822C91.4918 91.5389 92.1378 91.698 92.1378 92.0956C92.0571 92.1751 91.8148 92.1751 91.8956 92.0956L91.9763 92.6523C92.2186 92.6523 92.7031 92.8113 93.2684 92.6523C92.7839 92.4137 92.4608 92.3342 92.7839 92.0161Z" fill="#181716"/>
<path d="M96.418 86.8472C96.1757 86.9267 96.095 87.0062 96.095 87.0858C96.1757 86.9267 96.3372 86.9267 96.418 86.8472Z" fill="#181716"/>
<path d="M95.7717 97.106C97.1445 96.8674 95.5294 96.7879 95.8524 96.5493C96.0947 96.7083 96.9022 96.5493 97.306 96.4698C95.4486 96.4698 97.629 96.0721 97.1445 95.595C97.7098 95.5154 97.8713 95.754 98.5173 95.6745C98.0328 95.4359 97.7098 95.0383 96.66 95.1973C96.5792 94.7202 96.9022 94.3225 96.66 94.0839C97.1445 94.4021 97.7098 94.0044 98.5981 94.0839C97.3868 93.9249 95.8524 93.3682 94.3181 93.1296C95.4486 92.891 95.5294 92.8115 96.5792 92.732C97.2252 92.0162 95.5294 92.732 95.7717 92.1753L95.6102 92.4934C95.2064 92.3344 94.1566 92.4934 93.4298 92.4934L93.672 93.1296C92.9452 93.2887 92.9452 92.8115 92.703 92.732C91.7339 92.732 92.1377 93.2091 91.4109 93.2091C92.0569 93.2091 91.8954 93.4477 92.1377 93.6068L91.7339 93.6863C91.3301 94.0839 92.38 94.0044 92.4607 94.3225C92.38 94.4021 92.2992 94.402 92.2184 94.402C92.703 94.402 93.2683 94.402 93.4298 94.5611L93.349 94.4816C94.3988 94.5611 95.0449 95.0383 96.0947 94.4816L95.8524 95.1973C94.8026 95.2768 93.1067 95.4359 92.9452 95.0383H92.4607C91.8954 95.4359 93.4298 95.6745 94.3181 95.3564C96.983 95.1973 94.5603 96.3107 95.6909 96.6288C94.9641 96.7879 94.6411 96.5493 94.1566 96.4698C94.0758 96.3107 93.9951 96.2312 94.6411 96.1516C94.1566 95.5949 92.4607 96.6288 92.5415 95.9131C92.8645 95.5154 93.7528 96.1516 93.7528 95.6745L91.7339 95.595C91.8147 95.9131 92.2184 96.1516 92.4607 96.3107C93.9951 97.5036 93.026 98.617 93.026 98.617C93.5105 100.605 93.9951 102.593 94.4796 104.502C94.8026 105.138 94.8026 105.297 96.7407 105.377C97.1445 105.218 96.9022 104.82 97.629 104.9C96.9022 104.9 96.4985 104.741 96.4985 104.343C97.2253 104.263 96.9022 104.581 97.0637 104.502L97.1445 104.422C97.5483 104.422 97.7905 104.422 97.7905 104.581C98.8404 104.104 98.5173 103.389 97.1445 103.309C97.8713 102.911 98.2751 103.389 98.8404 103.468C99.2441 102.355 99.0826 101.639 99.0019 100.526C97.7905 100.685 98.1943 100.526 97.306 100.446L97.7905 100.287C97.5483 100.367 96.66 100.287 96.4985 100.605C97.3868 99.8894 94.7218 100.128 94.1566 99.7303L94.8026 99.6508C94.6411 99.3327 94.6411 99.2532 94.2373 98.9351C95.3679 98.2193 94.4796 99.4122 96.0947 99.0146L95.7717 98.8556C96.4177 98.8556 97.4675 98.8556 97.952 98.9351C96.8215 98.5374 98.2751 98.1398 97.3868 97.6627C98.1136 97.6627 98.7596 98.0603 98.8404 98.2193C98.9211 97.9808 98.2751 97.7422 99.0019 97.5831L98.1136 97.6627C97.9521 97.3445 98.9211 97.5831 99.4864 97.4241C99.0826 96.6288 96.4177 97.7422 95.7717 97.106Z" fill="#181716"/>
<path d="M94.8835 88.7554C94.8028 88.8349 94.8835 88.9144 94.9643 88.9939C95.0451 88.9144 94.9643 88.8349 94.8835 88.7554Z" fill="#181716"/>
<path d="M96.9025 90.1075C97.064 90.1075 97.1447 90.1075 97.2255 90.1075C97.1447 90.028 97.064 90.028 96.9025 90.1075Z" fill="#181716"/>
<path d="M98.1945 90.0283C97.7907 90.1078 97.7907 90.0283 97.2255 90.0283C97.5485 90.1078 97.6292 90.3464 98.1945 90.0283Z" fill="#181716"/>
<path d="M85.6776 64.0225C85.5161 64.261 85.1123 64.4201 85.1931 64.6587C85.3546 64.5792 85.5968 64.4996 85.7583 64.4996C85.7583 64.3406 85.6776 64.1815 85.6776 64.0225Z" fill="#181716"/>
<path d="M86.4043 65.2157C86.4851 65.3747 86.5658 65.5338 86.6466 65.6928C86.8888 65.3747 87.2118 65.0566 87.5349 64.818C87.0503 64.5794 86.8081 65.4542 86.4043 65.2157Z" fill="#181716"/>
<path d="M87.0504 66.4082L86.8081 66.5673C86.9696 66.5673 87.0504 66.4877 87.0504 66.4082Z" fill="#181716"/>
<path d="M87.3731 66.0107C87.6154 65.7721 87.7769 65.6131 88.0192 65.3745C87.6962 65.454 87.4539 65.5336 87.1309 65.6131L87.2116 65.8517C87.0501 66.0903 87.0501 66.2493 86.9694 66.4084C87.1309 66.2493 87.2924 66.1698 87.5346 66.0107C87.5346 66.0107 87.3731 66.0903 87.3731 66.0107Z" fill="#181716"/>
<path d="M87.777 66.2493C87.8577 66.1698 87.8577 66.0903 87.9385 66.0107C87.8577 66.0903 87.777 66.1698 87.777 66.2493Z" fill="#181716"/>
<path d="M87.2925 68.0781C87.454 67.76 87.9385 67.601 88.2615 67.3624C88.2615 66.8852 87.2925 67.76 87.3732 67.2829C88.1808 67.1238 87.6155 66.8057 87.777 66.249C87.3732 66.9648 87.131 67.5214 87.131 67.9191L87.5348 67.5214C87.6963 67.601 87.3732 67.76 87.2925 68.0781Z" fill="#181716"/>
<path d="M89.4731 68.5558L88.6655 68.7944C88.9885 68.5558 88.7463 68.1582 89.3923 67.681C89.2308 67.6015 88.9078 67.8401 88.6655 67.9196C88.9078 67.5219 89.0693 67.2834 88.5848 67.5219C88.5848 68.3967 88.2617 68.3967 88.4232 68.9534C88.2617 69.033 88.2617 68.9534 88.2617 68.8739C88.181 69.033 88.181 69.192 88.1002 69.4306C88.827 68.8739 89.15 69.192 89.4731 68.5558Z" fill="#181716"/>
<path d="M89.2307 69.3507C89.0692 69.1122 88.2616 69.4303 87.9386 69.8279C88.2616 69.8279 88.5039 69.9074 88.8269 69.9074C88.7462 69.8279 88.5039 69.6688 89.2307 69.3507Z" fill="#181716"/>
<path d="M89.4731 69.6689C89.15 69.9871 88.4233 70.6233 89.2308 70.3847C88.9885 70.1461 90.1999 69.6689 89.4731 69.6689Z" fill="#181716"/>
<path d="M89.7154 71.8164L89.9576 71.1007C90.9267 70.544 90.3614 71.1802 90.9267 71.1007C90.9267 70.544 90.6844 70.8621 89.8769 70.8621C89.8769 70.7031 89.3116 70.7826 88.9078 70.7826C90.1192 71.0212 87.6965 72.2141 89.7154 71.8164Z" fill="#181716"/>
<path d="M90.1996 70.3052L89.7958 70.4642L90.1996 70.5438V70.3052Z" fill="#181716"/>
<path d="M89.15 73.4065C88.1002 74.2017 90.0383 73.645 89.7153 74.2017C89.6346 74.2017 89.5538 74.2812 89.3923 74.2812L89.6346 74.5198L89.3923 74.6789C90.1191 74.3608 90.5229 74.5198 91.1689 74.4403C91.815 73.8836 90.1999 74.5994 90.9267 74.0427C91.2497 73.9631 91.815 73.8041 92.0572 73.8041C91.6535 73.7246 91.1689 73.8836 90.7651 73.9631C90.6036 73.8041 91.0074 73.7246 91.3304 73.5655C90.8459 73.486 89.7153 73.9631 89.8768 73.5655C90.4421 73.0883 90.9267 73.2474 90.5229 73.0088C89.4731 73.645 90.5229 72.6112 89.7961 72.7702C89.8768 72.4521 90.5229 71.8954 90.9267 71.8159C90.0383 72.2136 89.2308 72.3726 88.827 72.2931C89.15 72.2931 89.4731 72.3726 89.7961 72.3726L88.827 73.0088C89.3923 73.0088 89.3923 73.2474 89.3923 73.486L89.15 73.4065Z" fill="#181716"/>
<path d="M91.0071 71.5779H91.3301L91.5724 71.3394L91.0071 71.5779Z" fill="#181716"/>
<path d="M92.8648 73.7248C92.8648 73.6453 92.5417 73.7248 92.5417 73.8044L93.107 73.7248H92.8648Z" fill="#181716"/>
<path d="M92.2995 74.2817L91.7343 74.6794L92.2188 74.5999L92.2995 74.2817Z" fill="#181716"/>
<path d="M93.6721 80.8029C93.9951 80.4847 93.2683 80.7233 92.703 80.8029C92.6222 81.2005 93.349 80.7233 93.6721 80.8029Z" fill="#181716"/>
<path d="M95.6104 84.6997C96.0142 84.3816 95.2874 84.3021 95.2067 84.0635C94.8837 84.3816 95.2067 84.5406 95.6104 84.6997Z" fill="#181716"/>
<path d="M98.5982 85.8924C98.3559 85.8924 98.1944 85.8129 98.1137 85.972L96.7408 86.0515C96.337 86.4491 97.9522 86.0515 98.5982 85.8924Z" fill="#181716"/>
<path d="M99.1636 87.8807L98.5983 87.6421V87.8011C98.0331 87.8011 97.7908 87.8011 97.3063 87.8011C97.6293 87.9602 98.1946 88.1193 99.1636 87.8807Z" fill="#181716"/>
<path d="M96.9833 87.5625L97.064 87.642C97.2255 87.5625 97.4678 87.5625 96.9833 87.5625Z" fill="#181716"/>
<path d="M97.1448 87.8011C97.2255 87.8011 97.2255 87.8011 97.3063 87.8011C97.2255 87.7216 97.1448 87.7216 97.064 87.6421C96.9833 87.7216 96.9025 87.7216 97.1448 87.8011Z" fill="#181716"/>
<path d="M98.5176 88.1989L98.7598 88.7556L99.0021 88.517C98.1946 88.5966 99.4866 88.1194 98.5176 88.1989Z" fill="#181716"/>
<path d="M98.3559 91.3003L97.5483 91.4593C97.4676 91.857 99.2442 92.016 98.0329 92.4137C98.5174 92.1751 99.0019 92.5727 99.1634 92.0956C98.4366 92.0956 98.1944 91.6184 98.3559 91.3003Z" fill="#181716"/>
<path d="M97.3871 92.8115C97.1448 92.8115 96.9833 92.891 96.741 92.9706C96.6603 93.1296 97.0641 93.2092 97.3871 93.0501C96.3373 93.2092 98.1139 92.8911 97.3871 92.8115Z" fill="#181716"/>
<path d="M97.7101 94.4813C97.7101 94.4018 97.5486 94.2427 97.3871 94.4018C97.4678 94.7199 98.4369 94.4813 99.0022 94.5608C99.4867 94.2427 98.1139 94.1632 97.7101 94.4813Z" fill="#181716"/>
</g>
</g>
<path d="M93.9952 109.989C93.9952 109.989 70.98 109.989 69.0419 109.989C67.9113 109.989 65.2464 93.6863 63.2275 80.1667C61.7739 70.6235 60.7241 62.5117 60.7241 62.5117C60.7241 62.5117 68.1536 64.8975 75.0985 68.1581C80.8321 70.862 91.1688 76.747 91.1688 76.747L93.9952 109.989Z" fill="#7DA050"/>
<path d="M69.0419 109.989C67.9113 109.989 65.2464 93.6863 63.2275 80.1667C61.7739 70.6235 60.7241 62.5117 60.7241 62.5117" stroke="#1B1C1E" stroke-miterlimit="10"/>
<path d="M66.9424 103.945C66.9424 103.945 71.1416 97.6625 75.4217 109.91C75.4217 109.91 72.7567 102.434 78.1673 102.355C82.0436 102.275 84.7893 109.989 84.7893 109.989" stroke="#1B1C1E" stroke-miterlimit="10"/>
<path d="M200.35 80.9618C200.35 80.9618 206.083 105.615 205.841 109.91H182.745C182.745 109.91 180.484 104.343 177.012 98.1396C174.67 93.9247 171.763 89.3917 168.694 86.0516C168.775 86.0516 188.883 80.8823 200.35 80.9618Z" fill="#7DA050"/>
<path d="M182.826 109.91C182.826 109.91 180.565 104.343 177.092 98.1398C174.75 93.9249 171.843 89.3919 168.774 86.0518" stroke="#1B1C1E" stroke-miterlimit="10"/>
<path d="M190.901 83.1885C190.901 83.1885 197.362 91.6183 204.468 100.128" stroke="#1B1C1E" stroke-miterlimit="10"/>
<path d="M181.211 106.331C181.211 106.331 180.646 102.275 183.956 102.991C186.944 103.627 189.044 109.989 189.044 109.989C189.044 109.989 185.41 101.798 190.982 102.355C194.374 102.752 196.312 109.989 196.312 109.989" stroke="#1B1C1E" stroke-miterlimit="10"/>
<path d="M200.35 80.9621C200.35 80.9621 113.538 106.649 34.2366 50.3442C34.2366 50.3442 34.5596 48.4356 35.5287 45.4136C36.2555 45.8907 80.6707 74.8385 129.851 79.6101C178.304 84.3022 198.331 75.8724 198.815 75.7133C199.381 77.4629 199.946 79.2125 200.35 80.9621Z" fill="#93543B"/>
<path d="M198.815 75.6337C198.331 75.8723 178.303 84.2226 129.85 79.5305C80.6704 74.7589 36.2551 45.8111 35.5283 45.334C39.6468 32.2915 55.071 -1.90501 104.493 0.0831597C156.903 2.30991 188.075 42.0734 198.815 75.6337Z" fill="#A1683D"/>
<path d="M93.9954 0.321777C93.9954 0.321777 97.9524 12.887 99.4059 14.7161C100.133 15.5909 120.968 29.9058 120.968 29.9058C120.968 29.9058 149.07 32.1325 150.12 32.3711C152.139 32.8483 165.787 24.8161 165.787 24.8161" stroke="#1B1C1E" stroke-miterlimit="10"/>
<path d="M99.4059 14.6367C99.4059 14.6367 87.2118 19.6469 75.5024 32.2917L54.2638 27.8382L50.3068 19.8855" stroke="#1B1C1E" stroke-miterlimit="10"/>
<path d="M120.968 29.8262C120.968 29.8262 115.961 42.7095 113.296 52.2528" stroke="#1B1C1E" stroke-miterlimit="10"/>
<path d="M75.5021 32.2915L89.1497 50.3441L113.295 52.2527L137.037 65.9314L158.599 56.7063C156.903 46.2882 150.039 32.2915 150.039 32.2915" stroke="#1B1C1E" stroke-miterlimit="10"/>
<path d="M158.599 56.7064L185.006 59.967L188.963 53.4458" stroke="#1B1C1E" stroke-miterlimit="10"/>
<path d="M89.0693 50.3442C89.0693 50.3442 82.4473 61.0804 80.59 67.6016" stroke="#1B1C1E" stroke-miterlimit="10"/>
<path d="M137.038 65.8521C137.038 65.8521 137.038 73.9638 137.038 80.1669" stroke="#1B1C1E" stroke-miterlimit="10"/>
<path d="M185.006 59.9673C185.006 59.9673 190.417 72.7711 191.87 77.7018" stroke="#1B1C1E" stroke-miterlimit="10"/>
<path d="M54.1827 27.8379C54.1827 27.8379 47.2378 37.7788 42.7963 49.7078" stroke="#1B1C1E" stroke-miterlimit="10"/>
<path d="M35.5283 45.334C36.2551 45.8111 80.6704 74.7589 129.85 79.5305C178.303 84.2226 198.331 75.7928 198.815 75.6337" stroke="#1B1C1E" stroke-miterlimit="10"/>
<path d="M23.5768 20.9194C23.5768 20.9194 23.5768 24.18 26.8877 24.5777" stroke="#1B1C1E" stroke-miterlimit="10"/>
</svg>
